M48
;DRILL file {KiCad (5.0.0)} date 05/22/19 18:12:05
;FORMAT={-:-/ absolute / metric / decimal}
FMAT,2
METRIC,TZ
T1C0.800
T2C1.000
T3C1.001
T4C1.016
T5C1.050
T6C1.100
T7C2.200
T8C2.400
%
G90
G05
M71
T1
X110.8Y-64.5
X110.8Y-67.04
X110.8Y-69.58
X94.37Y-65.3
X106.55Y-65.3
X67.25Y-94.83
X69.79Y-94.83
X72.33Y-94.83
X74.87Y-94.83
X77.41Y-74.5
X77.41Y-94.83
X79.95Y-74.5
X79.95Y-94.83
X82.49Y-74.5
X82.49Y-94.83
X85.03Y-74.5
X85.03Y-94.83
X87.57Y-74.5
X87.57Y-94.83
X90.11Y-74.5
X90.11Y-94.83
X92.65Y-74.5
X92.65Y-94.83
X95.19Y-74.5
X95.19Y-94.83
X97.73Y-74.5
X97.73Y-94.83
X100.27Y-74.5
X100.27Y-94.83
X102.81Y-74.5
X102.81Y-94.83
X105.25Y-74.5
X105.25Y-94.83
X94.47Y-70.6
X106.65Y-70.6
X81.25Y-114.5
X93.43Y-114.5
X92.5Y-98.82
X92.5Y-111.
X66.69Y-77.
X66.69Y-92.24
X69.23Y-77.
X69.23Y-92.24
X71.77Y-77.
X71.77Y-92.24
X74.31Y-77.
X74.31Y-92.24
X76.85Y-77.
X76.85Y-92.24
X79.39Y-77.
X79.39Y-92.24
X81.93Y-77.
X81.93Y-92.24
X84.47Y-77.
X84.47Y-92.24
X87.01Y-77.
X87.01Y-92.24
X89.55Y-77.
X89.55Y-92.24
X92.09Y-77.
X92.09Y-92.24
X94.63Y-77.
X94.63Y-92.24
X97.17Y-77.
X97.17Y-92.24
X99.71Y-77.
X99.71Y-92.24
X102.25Y-77.
X102.25Y-92.24
T2
X181.Y-91.5
X181.Y-94.
X181.Y-96.5
X124.095Y-71.12
X124.095Y-73.66
X124.095Y-91.44
X124.095Y-93.98
X126.635Y-71.12
X126.635Y-73.66
X126.635Y-91.44
X126.635Y-93.98
X129.175Y-71.12
X129.175Y-73.66
X129.175Y-91.44
X129.175Y-93.98
X134.255Y-71.12
X134.255Y-73.66
X134.255Y-91.44
X134.255Y-93.98
X136.795Y-71.12
X136.795Y-73.66
X136.795Y-91.44
X136.795Y-93.98
X139.335Y-71.12
X139.335Y-73.66
X139.335Y-91.44
X139.335Y-93.98
X144.415Y-71.12
X144.415Y-73.66
X144.415Y-91.44
X144.415Y-93.98
X146.955Y-71.12
X146.955Y-73.66
X146.955Y-91.44
X146.955Y-93.98
X149.495Y-71.12
X149.495Y-73.66
X149.495Y-91.44
X149.495Y-93.98
X154.575Y-71.12
X154.575Y-73.66
X154.575Y-91.44
X154.575Y-93.98
X157.115Y-71.12
X157.115Y-73.66
X157.115Y-91.44
X157.115Y-93.98
X159.655Y-71.25
X159.655Y-73.66
X159.655Y-91.44
X159.655Y-93.98
X90.65Y-65.1
X90.65Y-67.64
X90.65Y-70.18
T3
X72.501Y-107.
X72.501Y-109.499
X72.501Y-62.25
X72.501Y-64.749
T4
X119.015Y-76.2
X119.015Y-78.74
X119.015Y-81.28
X119.015Y-83.82
X119.015Y-86.37
X119.015Y-88.89
X164.735Y-76.2
X164.735Y-78.74
X164.735Y-81.28
X164.735Y-83.82
X164.735Y-86.36
X164.735Y-88.9
T5
X159.5Y-116.
X162.Y-116.
X149.5Y-116.
X152.Y-116.
X109.5Y-116.
X112.Y-116.
X159.5Y-49.
X162.Y-49.
X79.5Y-49.
X82.Y-49.
X119.5Y-49.
X122.Y-49.
X181.Y-68.5
X181.Y-71.
X149.5Y-49.
X152.Y-49.
X119.5Y-116.
X122.Y-116.
X181.Y-58.5
X181.Y-61.
X89.5Y-49.
X92.Y-49.
X169.5Y-116.
X172.Y-116.
X169.5Y-49.
X172.Y-49.
X129.5Y-49.
X132.Y-49.
X129.5Y-116.
X132.Y-116.
X109.5Y-49.
X112.Y-49.
X139.5Y-49.
X142.Y-49.
X139.5Y-116.
X142.Y-116.
X99.5Y-49.
X102.Y-49.
X99.5Y-116.
X102.Y-116.
X179.5Y-116.
X182.Y-116.
X179.5Y-49.
X182.Y-49.
X69.5Y-49.
X72.Y-49.
X181.Y-104.25
X181.Y-106.75
T7
X68.237Y-101.9
X68.237Y-112.098
X68.237Y-57.15
X68.237Y-67.348
T8
X183.175Y-82.5
T6
X172.775Y-83.6G85X172.775Y-81.4
G05
X176.925Y-77.5G85X174.725Y-77.5
G05
X179.375Y-83.6G85X179.375Y-81.4
G05
T0
M30
