G04 #@! TF.GenerationSoftware,KiCad,Pcbnew,(5.0.0)*
G04 #@! TF.CreationDate,2019-09-17T13:41:45+01:00*
G04 #@! TF.ProjectId,Multi Chromatic Stimulator,4D756C7469204368726F6D6174696320,rev?*
G04 #@! TF.SameCoordinates,Original*
G04 #@! TF.FileFunction,Copper,L2,Bot,Signal*
G04 #@! TF.FilePolarity,Positive*
%FSLAX46Y46*%
G04 Gerber Fmt 4.6, Leading zero omitted, Abs format (unit mm)*
G04 Created by KiCad (PCBNEW (5.0.0)) date 09/17/19 13:41:45*
%MOMM*%
%LPD*%
G01*
G04 APERTURE LIST*
G04 #@! TA.AperFunction,ComponentPad*
%ADD10R,1.700000X1.700000*%
G04 #@! TD*
G04 #@! TA.AperFunction,ComponentPad*
%ADD11O,1.700000X1.700000*%
G04 #@! TD*
G04 #@! TA.AperFunction,ComponentPad*
%ADD12O,1.600000X1.600000*%
G04 #@! TD*
G04 #@! TA.AperFunction,ComponentPad*
%ADD13C,1.600000*%
G04 #@! TD*
G04 #@! TA.AperFunction,ComponentPad*
%ADD14R,1.500000X1.500000*%
G04 #@! TD*
G04 #@! TA.AperFunction,ComponentPad*
%ADD15C,1.500000*%
G04 #@! TD*
G04 #@! TA.AperFunction,ComponentPad*
%ADD16C,1.750000*%
G04 #@! TD*
G04 #@! TA.AperFunction,ComponentPad*
%ADD17R,1.750000X1.750000*%
G04 #@! TD*
G04 #@! TA.AperFunction,ComponentPad*
%ADD18R,1.600000X1.600000*%
G04 #@! TD*
G04 #@! TA.AperFunction,ComponentPad*
%ADD19C,1.778000*%
G04 #@! TD*
G04 #@! TA.AperFunction,ComponentPad*
%ADD20R,1.778000X1.778000*%
G04 #@! TD*
G04 #@! TA.AperFunction,ComponentPad*
%ADD21O,2.499360X1.600200*%
G04 #@! TD*
G04 #@! TA.AperFunction,ComponentPad*
%ADD22O,7.000240X3.500120*%
G04 #@! TD*
G04 #@! TA.AperFunction,ComponentPad*
%ADD23C,2.500000*%
G04 #@! TD*
G04 #@! TA.AperFunction,ComponentPad*
%ADD24R,3.500000X3.500000*%
G04 #@! TD*
G04 #@! TA.AperFunction,Conductor*
%ADD25C,0.100000*%
G04 #@! TD*
G04 #@! TA.AperFunction,ComponentPad*
%ADD26C,3.000000*%
G04 #@! TD*
G04 #@! TA.AperFunction,ComponentPad*
%ADD27C,3.500000*%
G04 #@! TD*
G04 #@! TA.AperFunction,Conductor*
%ADD28C,0.250000*%
G04 #@! TD*
G04 #@! TA.AperFunction,Conductor*
%ADD29C,0.254000*%
G04 #@! TD*
G04 APERTURE END LIST*
D10*
G04 #@! TO.P,,1*
G04 #@! TO.N,Net-(A1-Pad23)*
X95850000Y-103200000D03*
D11*
G04 #@! TO.P,,2*
X95850000Y-105740000D03*
G04 #@! TO.P,,3*
G04 #@! TO.N,Net-(A2-Pad20)*
X95850000Y-108280000D03*
G04 #@! TD*
D12*
G04 #@! TO.P,,2*
G04 #@! TO.N,Net-(Q1-Pad2)*
X94370000Y-65300000D03*
D13*
G04 #@! TO.P,,1*
X106550000Y-65300000D03*
G04 #@! TD*
D12*
G04 #@! TO.P,,2*
G04 #@! TO.N,Net-(A1-Pad16)*
X94470000Y-70600000D03*
D13*
G04 #@! TO.P,,1*
G04 #@! TO.N,Net-(A1-Pad23)*
X106650000Y-70600000D03*
G04 #@! TD*
D14*
G04 #@! TO.P,2N5089,1*
G04 #@! TO.N,GNDREF*
X110800000Y-64500000D03*
D15*
G04 #@! TO.P,2N5089,3*
G04 #@! TO.N,Net-(A1-Pad23)*
X110800000Y-69580000D03*
G04 #@! TO.P,2N5089,2*
G04 #@! TO.N,Net-(Q1-Pad2)*
X110800000Y-67040000D03*
G04 #@! TD*
D16*
G04 #@! TO.P,,2*
G04 #@! TO.N,Net-(J25-Pad1)*
X69500000Y-49000000D03*
D17*
G04 #@! TO.P,,1*
G04 #@! TO.N,Net-(J24-Pad1)*
X72000000Y-49000000D03*
G04 #@! TD*
D16*
G04 #@! TO.P,,2*
G04 #@! TO.N,Net-(J25-Pad1)*
X79500000Y-49000000D03*
D17*
G04 #@! TO.P,,1*
G04 #@! TO.N,Net-(J23-Pad1)*
X82000000Y-49000000D03*
G04 #@! TD*
D16*
G04 #@! TO.P,,2*
G04 #@! TO.N,Net-(J25-Pad1)*
X89500000Y-49000000D03*
D17*
G04 #@! TO.P,,1*
G04 #@! TO.N,Net-(J22-Pad1)*
X92000000Y-49000000D03*
G04 #@! TD*
D16*
G04 #@! TO.P,,2*
G04 #@! TO.N,Net-(J25-Pad1)*
X99500000Y-49000000D03*
D17*
G04 #@! TO.P,,1*
G04 #@! TO.N,Net-(J21-Pad1)*
X102000000Y-49000000D03*
G04 #@! TD*
D16*
G04 #@! TO.P,,2*
G04 #@! TO.N,Net-(J25-Pad1)*
X109500000Y-49000000D03*
D17*
G04 #@! TO.P,,1*
G04 #@! TO.N,Net-(J20-Pad1)*
X112000000Y-49000000D03*
G04 #@! TD*
D16*
G04 #@! TO.P,,2*
G04 #@! TO.N,Net-(J25-Pad1)*
X119500000Y-49000000D03*
D17*
G04 #@! TO.P,,1*
G04 #@! TO.N,Net-(J19-Pad1)*
X122000000Y-49000000D03*
G04 #@! TD*
D16*
G04 #@! TO.P,,2*
G04 #@! TO.N,Net-(J25-Pad1)*
X129500000Y-49000000D03*
D17*
G04 #@! TO.P,,1*
G04 #@! TO.N,Net-(J18-Pad1)*
X132000000Y-49000000D03*
G04 #@! TD*
D16*
G04 #@! TO.P,,2*
G04 #@! TO.N,Net-(J25-Pad1)*
X139500000Y-49000000D03*
D17*
G04 #@! TO.P,,1*
G04 #@! TO.N,Net-(J17-Pad1)*
X142000000Y-49000000D03*
G04 #@! TD*
D16*
G04 #@! TO.P,,2*
G04 #@! TO.N,Net-(J25-Pad1)*
X149500000Y-49000000D03*
D17*
G04 #@! TO.P,,1*
G04 #@! TO.N,Net-(J16-Pad1)*
X152000000Y-49000000D03*
G04 #@! TD*
D16*
G04 #@! TO.P,,2*
G04 #@! TO.N,Net-(J25-Pad1)*
X159500000Y-49000000D03*
D17*
G04 #@! TO.P,,1*
G04 #@! TO.N,Net-(J15-Pad1)*
X162000000Y-49000000D03*
G04 #@! TD*
D16*
G04 #@! TO.P,,2*
G04 #@! TO.N,Net-(J25-Pad1)*
X169500000Y-49000000D03*
D17*
G04 #@! TO.P,,1*
G04 #@! TO.N,Net-(J14-Pad1)*
X172000000Y-49000000D03*
G04 #@! TD*
D16*
G04 #@! TO.P,,2*
G04 #@! TO.N,Net-(J25-Pad1)*
X179500000Y-49000000D03*
D17*
G04 #@! TO.P,,1*
G04 #@! TO.N,Net-(J13-Pad1)*
X182000000Y-49000000D03*
G04 #@! TD*
G04 #@! TO.P,,1*
G04 #@! TO.N,Net-(J12-Pad1)*
X181000000Y-61000000D03*
D16*
G04 #@! TO.P,,2*
G04 #@! TO.N,Net-(J25-Pad1)*
X181000000Y-58500000D03*
G04 #@! TD*
D17*
G04 #@! TO.P,,1*
G04 #@! TO.N,Net-(J11-Pad1)*
X181000000Y-71000000D03*
D16*
G04 #@! TO.P,,2*
G04 #@! TO.N,Net-(J25-Pad1)*
X181000000Y-68500000D03*
G04 #@! TD*
D17*
G04 #@! TO.P,,1*
G04 #@! TO.N,Net-(J10-Pad1)*
X181000000Y-106750000D03*
D16*
G04 #@! TO.P,,2*
G04 #@! TO.N,Net-(J25-Pad1)*
X181000000Y-104250000D03*
G04 #@! TD*
G04 #@! TO.P,,2*
G04 #@! TO.N,Net-(J25-Pad1)*
X182000000Y-116000000D03*
D17*
G04 #@! TO.P,,1*
G04 #@! TO.N,Net-(J9-Pad1)*
X179500000Y-116000000D03*
G04 #@! TD*
D16*
G04 #@! TO.P,,2*
G04 #@! TO.N,Net-(J25-Pad1)*
X172000000Y-116000000D03*
D17*
G04 #@! TO.P,,1*
G04 #@! TO.N,Net-(J8-Pad1)*
X169500000Y-116000000D03*
G04 #@! TD*
D16*
G04 #@! TO.P,,2*
G04 #@! TO.N,Net-(J25-Pad1)*
X162000000Y-116000000D03*
D17*
G04 #@! TO.P,,1*
G04 #@! TO.N,Net-(J7-Pad1)*
X159500000Y-116000000D03*
G04 #@! TD*
D16*
G04 #@! TO.P,,2*
G04 #@! TO.N,Net-(J25-Pad1)*
X152000000Y-116000000D03*
D17*
G04 #@! TO.P,,1*
G04 #@! TO.N,Net-(J6-Pad1)*
X149500000Y-116000000D03*
G04 #@! TD*
D16*
G04 #@! TO.P,,2*
G04 #@! TO.N,Net-(J25-Pad1)*
X142000000Y-116000000D03*
D17*
G04 #@! TO.P,,1*
G04 #@! TO.N,Net-(J5-Pad1)*
X139500000Y-116000000D03*
G04 #@! TD*
D16*
G04 #@! TO.P,,2*
G04 #@! TO.N,Net-(J25-Pad1)*
X132000000Y-116000000D03*
D17*
G04 #@! TO.P,,1*
G04 #@! TO.N,Net-(J4-Pad1)*
X129500000Y-116000000D03*
G04 #@! TD*
D16*
G04 #@! TO.P,,2*
G04 #@! TO.N,Net-(J25-Pad1)*
X122000000Y-116000000D03*
D17*
G04 #@! TO.P,,1*
G04 #@! TO.N,Net-(J3-Pad1)*
X119500000Y-116000000D03*
G04 #@! TD*
D16*
G04 #@! TO.P,,2*
G04 #@! TO.N,Net-(J25-Pad1)*
X112000000Y-116000000D03*
D17*
G04 #@! TO.P,,1*
G04 #@! TO.N,Net-(J2-Pad1)*
X109500000Y-116000000D03*
G04 #@! TD*
G04 #@! TO.P,,1*
G04 #@! TO.N,Net-(J1-Pad1)*
X99500000Y-116000000D03*
D16*
G04 #@! TO.P,,2*
G04 #@! TO.N,Net-(J25-Pad1)*
X102000000Y-116000000D03*
G04 #@! TD*
D12*
G04 #@! TO.P,,2*
G04 #@! TO.N,GNDREF*
X91030000Y-114200000D03*
D13*
G04 #@! TO.P,,1*
G04 #@! TO.N,Net-(A1-Pad23)*
X78850000Y-114200000D03*
G04 #@! TD*
D18*
G04 #@! TO.P,,SDA/23*
G04 #@! TO.N,N/C*
X105250000Y-74500000D03*
D12*
G04 #@! TO.P,,NC*
G04 #@! TO.N,Net-(A1-Pad17)*
X72330000Y-94830000D03*
G04 #@! TO.P,,SCL/22*
G04 #@! TO.N,N/C*
X102810000Y-74500000D03*
G04 #@! TO.P,,18*
G04 #@! TO.N,GNDREF*
X74870000Y-94830000D03*
G04 #@! TO.P,,14/A6*
G04 #@! TO.N,N/C*
X100270000Y-74500000D03*
G04 #@! TO.P,,A0/26*
G04 #@! TO.N,Net-(A1-Pad19)*
X77410000Y-94830000D03*
G04 #@! TO.P,,32/A7*
G04 #@! TO.N,N/C*
X97730000Y-74500000D03*
G04 #@! TO.P,,A1/25*
G04 #@! TO.N,Net-(A1-Pad23)*
X79950000Y-94830000D03*
G04 #@! TO.P,,15/A8*
G04 #@! TO.N,N/C*
X95190000Y-74500000D03*
G04 #@! TO.P,,A2/34*
G04 #@! TO.N,Net-(A1-Pad21)*
X82490000Y-94830000D03*
G04 #@! TO.P,,33/A9*
G04 #@! TO.N,N/C*
X92650000Y-74500000D03*
G04 #@! TO.P,,A3/39*
G04 #@! TO.N,Net-(A1-Pad22)*
X85030000Y-94830000D03*
G04 #@! TO.P,,27/A10*
G04 #@! TO.N,N/C*
X90110000Y-74500000D03*
G04 #@! TO.P,,A4/36*
G04 #@! TO.N,Net-(A1-Pad23)*
X87570000Y-94830000D03*
G04 #@! TO.P,,12/A11*
G04 #@! TO.N,N/C*
X87570000Y-74500000D03*
G04 #@! TO.P,,A5/4*
G04 #@! TO.N,Net-(A1-Pad24)*
X90110000Y-94830000D03*
G04 #@! TO.P,,13/A12*
G04 #@! TO.N,N/C*
X85030000Y-74500000D03*
G04 #@! TO.P,,SCK/5*
G04 #@! TO.N,Net-(A1-Pad25)*
X92650000Y-94830000D03*
G04 #@! TO.P,,USB*
G04 #@! TO.N,N/C*
X82490000Y-74500000D03*
G04 #@! TO.P,,MOSI/18*
G04 #@! TO.N,Net-(A1-Pad26)*
X95190000Y-94830000D03*
G04 #@! TO.P,,En*
G04 #@! TO.N,N/C*
X79950000Y-74500000D03*
G04 #@! TO.P,,MISO/19*
G04 #@! TO.N,Net-(A1-Pad27)*
X97730000Y-94830000D03*
G04 #@! TO.P,,BAT*
G04 #@! TO.N,N/C*
X77410000Y-74500000D03*
G04 #@! TO.P,,RX/16*
G04 #@! TO.N,Net-(A1-Pad28)*
X100270000Y-94830000D03*
G04 #@! TO.P,,TX/17*
G04 #@! TO.N,N/C*
X102810000Y-94830000D03*
G04 #@! TO.P,,21*
G04 #@! TO.N,Net-(A1-Pad30)*
X105250000Y-94830000D03*
G04 #@! TO.P,,3V*
G04 #@! TO.N,Net-(A1-Pad16)*
X69790000Y-94830000D03*
G04 #@! TO.P,,RST*
G04 #@! TO.N,N/C*
X67250000Y-94830000D03*
G04 #@! TD*
D19*
G04 #@! TO.P,,25*
G04 #@! TO.N,Net-(J21-Pad1)*
X134255000Y-73660000D03*
G04 #@! TO.P,,*
G04 #@! TO.N,Net-(J25-Pad1)*
X134255000Y-71120000D03*
G04 #@! TO.P,,26*
G04 #@! TO.N,Net-(J22-Pad1)*
X129175000Y-73660000D03*
G04 #@! TO.P,,*
G04 #@! TO.N,Net-(J25-Pad1)*
X126635000Y-71120000D03*
G04 #@! TO.P,,27*
G04 #@! TO.N,Net-(J23-Pad1)*
X126635000Y-73660000D03*
G04 #@! TO.P,,*
G04 #@! TO.N,Net-(J25-Pad1)*
X124095000Y-71120000D03*
G04 #@! TO.P,,28*
G04 #@! TO.N,Net-(J24-Pad1)*
X124095000Y-73660000D03*
G04 #@! TO.P,,*
G04 #@! TO.N,Net-(J25-Pad1)*
X136795000Y-71120000D03*
G04 #@! TO.P,,24*
G04 #@! TO.N,Net-(J20-Pad1)*
X136795000Y-73660000D03*
G04 #@! TO.P,,23*
G04 #@! TO.N,Net-(J19-Pad1)*
X139335000Y-73660000D03*
G04 #@! TO.P,,*
G04 #@! TO.N,Net-(J25-Pad1)*
X146955000Y-71120000D03*
X144415000Y-71120000D03*
G04 #@! TO.P,,22*
G04 #@! TO.N,Net-(J18-Pad1)*
X144415000Y-73660000D03*
G04 #@! TO.P,,21*
G04 #@! TO.N,Net-(J17-Pad1)*
X146955000Y-73660000D03*
G04 #@! TO.P,,20*
G04 #@! TO.N,Net-(J16-Pad1)*
X149495000Y-73660000D03*
G04 #@! TO.P,,19*
G04 #@! TO.N,Net-(J15-Pad1)*
X154575000Y-73660000D03*
G04 #@! TO.P,,*
G04 #@! TO.N,Net-(J25-Pad1)*
X154575000Y-71120000D03*
X157115000Y-71120000D03*
G04 #@! TO.P,,18*
G04 #@! TO.N,Net-(J14-Pad1)*
X157115000Y-73660000D03*
G04 #@! TO.P,,17*
G04 #@! TO.N,Net-(J13-Pad1)*
X159655000Y-73660000D03*
G04 #@! TO.P,,16*
G04 #@! TO.N,Net-(J12-Pad1)*
X159655000Y-91440000D03*
G04 #@! TO.P,,*
G04 #@! TO.N,Net-(J25-Pad1)*
X159655000Y-93980000D03*
X157115000Y-93980000D03*
G04 #@! TO.P,,15*
G04 #@! TO.N,Net-(J11-Pad1)*
X157115000Y-91440000D03*
G04 #@! TO.P,,14*
G04 #@! TO.N,Net-(J10-Pad1)*
X154575000Y-91440000D03*
G04 #@! TO.P,,*
G04 #@! TO.N,Net-(J25-Pad1)*
X149495000Y-93980000D03*
X146955000Y-93980000D03*
G04 #@! TO.P,,13*
G04 #@! TO.N,Net-(J9-Pad1)*
X149495000Y-91440000D03*
G04 #@! TO.P,,12*
G04 #@! TO.N,Net-(J8-Pad1)*
X146955000Y-91440000D03*
G04 #@! TO.P,,11*
G04 #@! TO.N,Net-(J7-Pad1)*
X144415000Y-91440000D03*
D20*
G04 #@! TO.P,,*
G04 #@! TO.N,Net-(J25-Pad1)*
X129175000Y-71120000D03*
X139335000Y-71120000D03*
X149495000Y-71120000D03*
X159655000Y-71250000D03*
X154575000Y-93980000D03*
X144415000Y-93980000D03*
D19*
X139335000Y-93980000D03*
X136795000Y-93980000D03*
D20*
X134255000Y-93980000D03*
D19*
G04 #@! TO.P,,10*
G04 #@! TO.N,Net-(J6-Pad1)*
X139335000Y-91440000D03*
G04 #@! TO.P,,9*
G04 #@! TO.N,Net-(J5-Pad1)*
X136795000Y-91440000D03*
G04 #@! TO.P,,8*
G04 #@! TO.N,Net-(J4-Pad1)*
X134255000Y-91440000D03*
G04 #@! TO.P,,*
G04 #@! TO.N,Net-(J25-Pad1)*
X129175000Y-93980000D03*
X126635000Y-93980000D03*
D20*
X124095000Y-93980000D03*
D19*
G04 #@! TO.P,,7*
G04 #@! TO.N,Net-(J3-Pad1)*
X129175000Y-91440000D03*
G04 #@! TO.P,,6*
G04 #@! TO.N,Net-(J2-Pad1)*
X126635000Y-91440000D03*
G04 #@! TO.P,,5*
G04 #@! TO.N,Net-(J1-Pad1)*
X124095000Y-91440000D03*
G04 #@! TO.P,,30*
G04 #@! TO.N,Net-(A1-Pad30)*
X119015000Y-76200000D03*
G04 #@! TO.P,,2*
G04 #@! TO.N,Net-(A1-Pad23)*
X119015000Y-78740000D03*
G04 #@! TO.P,,3*
G04 #@! TO.N,Net-(A1-Pad25)*
X119015000Y-81280000D03*
G04 #@! TO.P,,4*
G04 #@! TO.N,Net-(A1-Pad26)*
X119015000Y-83820000D03*
G04 #@! TO.P,,1*
G04 #@! TO.N,GNDREF*
X119015000Y-86370000D03*
G04 #@! TO.P,,32*
G04 #@! TO.N,Net-(J25-Pad1)*
X119015000Y-88890000D03*
X164735000Y-88900000D03*
G04 #@! TO.P,,*
G04 #@! TO.N,GNDREF*
X164735000Y-86360000D03*
G04 #@! TO.N,*
X164735000Y-83820000D03*
X164735000Y-81280000D03*
X164735000Y-78740000D03*
X164735000Y-76200000D03*
G04 #@! TD*
D21*
G04 #@! TO.P,,2*
G04 #@! TO.N,GNDREF*
X72501260Y-64749360D03*
G04 #@! TO.P,,1*
G04 #@! TO.N,Net-(A1-Pad23)*
X72501260Y-62250000D03*
D22*
G04 #@! TO.P,,2*
G04 #@! TO.N,GNDREF*
X68236600Y-57149680D03*
X68236600Y-67347780D03*
G04 #@! TD*
D23*
G04 #@! TO.P,J2,4*
G04 #@! TO.N,N/C*
X183175000Y-82500000D03*
D24*
G04 #@! TO.P,J2,1*
G04 #@! TO.N,Net-(J2-Pad1)*
X172775000Y-82500000D03*
D25*
G04 #@! TD*
G04 #@! TO.N,GNDREF*
G04 #@! TO.C,J2*
G36*
X180198513Y-80753611D02*
X180271318Y-80764411D01*
X180342714Y-80782295D01*
X180412013Y-80807090D01*
X180478548Y-80838559D01*
X180541678Y-80876398D01*
X180600795Y-80920242D01*
X180655330Y-80969670D01*
X180704758Y-81024205D01*
X180748602Y-81083322D01*
X180786441Y-81146452D01*
X180817910Y-81212987D01*
X180842705Y-81282286D01*
X180860589Y-81353682D01*
X180871389Y-81426487D01*
X180875000Y-81500000D01*
X180875000Y-83500000D01*
X180871389Y-83573513D01*
X180860589Y-83646318D01*
X180842705Y-83717714D01*
X180817910Y-83787013D01*
X180786441Y-83853548D01*
X180748602Y-83916678D01*
X180704758Y-83975795D01*
X180655330Y-84030330D01*
X180600795Y-84079758D01*
X180541678Y-84123602D01*
X180478548Y-84161441D01*
X180412013Y-84192910D01*
X180342714Y-84217705D01*
X180271318Y-84235589D01*
X180198513Y-84246389D01*
X180125000Y-84250000D01*
X178625000Y-84250000D01*
X178551487Y-84246389D01*
X178478682Y-84235589D01*
X178407286Y-84217705D01*
X178337987Y-84192910D01*
X178271452Y-84161441D01*
X178208322Y-84123602D01*
X178149205Y-84079758D01*
X178094670Y-84030330D01*
X178045242Y-83975795D01*
X178001398Y-83916678D01*
X177963559Y-83853548D01*
X177932090Y-83787013D01*
X177907295Y-83717714D01*
X177889411Y-83646318D01*
X177878611Y-83573513D01*
X177875000Y-83500000D01*
X177875000Y-81500000D01*
X177878611Y-81426487D01*
X177889411Y-81353682D01*
X177907295Y-81282286D01*
X177932090Y-81212987D01*
X177963559Y-81146452D01*
X178001398Y-81083322D01*
X178045242Y-81024205D01*
X178094670Y-80969670D01*
X178149205Y-80920242D01*
X178208322Y-80876398D01*
X178271452Y-80838559D01*
X178337987Y-80807090D01*
X178407286Y-80782295D01*
X178478682Y-80764411D01*
X178551487Y-80753611D01*
X178625000Y-80750000D01*
X180125000Y-80750000D01*
X180198513Y-80753611D01*
X180198513Y-80753611D01*
G37*
D26*
G04 #@! TO.P,J2,2*
G04 #@! TO.N,GNDREF*
X179375000Y-82500000D03*
D25*
G04 #@! TD*
G04 #@! TO.N,GNDREF*
G04 #@! TO.C,J2*
G36*
X176785765Y-75754213D02*
X176870704Y-75766813D01*
X176953999Y-75787677D01*
X177034848Y-75816605D01*
X177112472Y-75853319D01*
X177186124Y-75897464D01*
X177255094Y-75948616D01*
X177318718Y-76006282D01*
X177376384Y-76069906D01*
X177427536Y-76138876D01*
X177471681Y-76212528D01*
X177508395Y-76290152D01*
X177537323Y-76371001D01*
X177558187Y-76454296D01*
X177570787Y-76539235D01*
X177575000Y-76625000D01*
X177575000Y-78375000D01*
X177570787Y-78460765D01*
X177558187Y-78545704D01*
X177537323Y-78628999D01*
X177508395Y-78709848D01*
X177471681Y-78787472D01*
X177427536Y-78861124D01*
X177376384Y-78930094D01*
X177318718Y-78993718D01*
X177255094Y-79051384D01*
X177186124Y-79102536D01*
X177112472Y-79146681D01*
X177034848Y-79183395D01*
X176953999Y-79212323D01*
X176870704Y-79233187D01*
X176785765Y-79245787D01*
X176700000Y-79250000D01*
X174950000Y-79250000D01*
X174864235Y-79245787D01*
X174779296Y-79233187D01*
X174696001Y-79212323D01*
X174615152Y-79183395D01*
X174537528Y-79146681D01*
X174463876Y-79102536D01*
X174394906Y-79051384D01*
X174331282Y-78993718D01*
X174273616Y-78930094D01*
X174222464Y-78861124D01*
X174178319Y-78787472D01*
X174141605Y-78709848D01*
X174112677Y-78628999D01*
X174091813Y-78545704D01*
X174079213Y-78460765D01*
X174075000Y-78375000D01*
X174075000Y-76625000D01*
X174079213Y-76539235D01*
X174091813Y-76454296D01*
X174112677Y-76371001D01*
X174141605Y-76290152D01*
X174178319Y-76212528D01*
X174222464Y-76138876D01*
X174273616Y-76069906D01*
X174331282Y-76006282D01*
X174394906Y-75948616D01*
X174463876Y-75897464D01*
X174537528Y-75853319D01*
X174615152Y-75816605D01*
X174696001Y-75787677D01*
X174779296Y-75766813D01*
X174864235Y-75754213D01*
X174950000Y-75750000D01*
X176700000Y-75750000D01*
X176785765Y-75754213D01*
X176785765Y-75754213D01*
G37*
D27*
G04 #@! TO.P,J2,3*
G04 #@! TO.N,GNDREF*
X175825000Y-77500000D03*
G04 #@! TD*
D22*
G04 #@! TO.P,,2*
G04 #@! TO.N,GNDREF*
X68236600Y-112097780D03*
X68236600Y-101899680D03*
D21*
G04 #@! TO.P,,1*
G04 #@! TO.N,Net-(A1-Pad19)*
X72501260Y-107000000D03*
G04 #@! TO.P,,2*
G04 #@! TO.N,GNDREF*
X72501260Y-109499360D03*
G04 #@! TD*
D12*
G04 #@! TO.P,,D13*
G04 #@! TO.N,N/C*
X66690000Y-92240000D03*
G04 #@! TO.P,,D12*
X66690000Y-77000000D03*
G04 #@! TO.P,,Vin*
X102250000Y-92240000D03*
G04 #@! TO.P,,D11*
X69230000Y-77000000D03*
G04 #@! TO.P,,GND*
G04 #@! TO.N,GNDREF*
X99710000Y-92240000D03*
G04 #@! TO.P,,D10*
G04 #@! TO.N,N/C*
X71770000Y-77000000D03*
G04 #@! TO.P,,RST*
X97170000Y-92240000D03*
G04 #@! TO.P,,D9*
X74310000Y-77000000D03*
G04 #@! TO.P,,5V*
X94630000Y-92240000D03*
G04 #@! TO.P,,D8*
X76850000Y-77000000D03*
G04 #@! TO.P,,A7*
X92090000Y-92240000D03*
G04 #@! TO.P,,D7*
X79390000Y-77000000D03*
G04 #@! TO.P,,A6*
X89550000Y-92240000D03*
G04 #@! TO.P,,D6*
G04 #@! TO.N,Net-(A1-Pad30)*
X81930000Y-77000000D03*
G04 #@! TO.P,,A5*
G04 #@! TO.N,N/C*
X87010000Y-92240000D03*
G04 #@! TO.P,,D5*
G04 #@! TO.N,Net-(A1-Pad25)*
X84470000Y-77000000D03*
G04 #@! TO.P,,A4*
G04 #@! TO.N,N/C*
X84470000Y-92240000D03*
G04 #@! TO.P,,D4*
G04 #@! TO.N,Net-(A1-Pad26)*
X87010000Y-77000000D03*
G04 #@! TO.P,,A3*
G04 #@! TO.N,N/C*
X81930000Y-92240000D03*
G04 #@! TO.P,,D3*
G04 #@! TO.N,Net-(A1-Pad23)*
X89550000Y-77000000D03*
G04 #@! TO.P,,A2*
G04 #@! TO.N,N/C*
X79390000Y-92240000D03*
G04 #@! TO.P,,D2*
G04 #@! TO.N,Net-(A1-Pad23)*
X92090000Y-77000000D03*
G04 #@! TO.P,,A1*
G04 #@! TO.N,N/C*
X76850000Y-92240000D03*
G04 #@! TO.P,,GND*
G04 #@! TO.N,GNDREF*
X94630000Y-77000000D03*
G04 #@! TO.P,,A0*
G04 #@! TO.N,Net-(A1-Pad19)*
X74310000Y-92240000D03*
G04 #@! TO.P,,RST*
G04 #@! TO.N,N/C*
X97170000Y-77000000D03*
G04 #@! TO.P,,REF*
X71770000Y-92240000D03*
G04 #@! TO.P,,RX0*
X99710000Y-77000000D03*
G04 #@! TO.P,,3V3*
G04 #@! TO.N,Net-(A1-Pad16)*
X69230000Y-92240000D03*
D18*
G04 #@! TO.P,,TX1*
G04 #@! TO.N,N/C*
X102250000Y-77000000D03*
G04 #@! TD*
D13*
G04 #@! TO.P,,1*
G04 #@! TO.N,Net-(A2-Pad20)*
X90100000Y-110700000D03*
D12*
G04 #@! TO.P,,2*
G04 #@! TO.N,Net-(A1-Pad23)*
X90100000Y-98520000D03*
G04 #@! TD*
D17*
G04 #@! TO.P,,1*
G04 #@! TO.N,GNDREF*
X181000000Y-96500000D03*
D16*
G04 #@! TO.P,,2*
G04 #@! TO.N,Net-(J25-Pad1)*
X181000000Y-94000000D03*
G04 #@! TO.P,,3*
X181000000Y-91500000D03*
G04 #@! TD*
D11*
G04 #@! TO.P,,3*
G04 #@! TO.N,Net-(A1-Pad23)*
X90650000Y-70180000D03*
G04 #@! TO.P,,2*
X90650000Y-67640000D03*
D10*
G04 #@! TO.P,,1*
G04 #@! TO.N,Net-(Q1-Pad2)*
X90650000Y-65100000D03*
G04 #@! TD*
D28*
G04 #@! TO.N,GNDREF*
X74870000Y-94830000D02*
X76250000Y-96210000D01*
X74870000Y-94830000D02*
X68236600Y-101463400D01*
X68236600Y-101463400D02*
X68236600Y-101899680D01*
G04 #@! TO.N,Net-(A1-Pad30)*
X81930000Y-78131370D02*
X84048630Y-80250000D01*
X81930000Y-77000000D02*
X81930000Y-78131370D01*
X84048630Y-80250000D02*
X109500000Y-80250000D01*
X113550000Y-76200000D02*
X119015000Y-76200000D01*
X109500000Y-80250000D02*
X113550000Y-76200000D01*
X105250000Y-84500000D02*
X109500000Y-80250000D01*
X105250000Y-94830000D02*
X105250000Y-84500000D01*
G04 #@! TO.N,Net-(J1-Pad1)*
X122935000Y-91440000D02*
X124095000Y-91440000D01*
X99500000Y-114875000D02*
X122935000Y-91440000D01*
X99500000Y-116000000D02*
X99500000Y-114875000D01*
G04 #@! TO.N,Net-(J2-Pad1)*
X106125000Y-118250000D02*
X108375000Y-116000000D01*
X98000000Y-118250000D02*
X106125000Y-118250000D01*
X126635000Y-91440000D02*
X126635000Y-90182765D01*
X108375000Y-116000000D02*
X109500000Y-116000000D01*
X126635000Y-90182765D02*
X125702235Y-89250000D01*
X125702235Y-89250000D02*
X123250000Y-89250000D01*
X123250000Y-89250000D02*
X97250000Y-115250000D01*
X97250000Y-115250000D02*
X97250000Y-117500000D01*
X97250000Y-117500000D02*
X98000000Y-118250000D01*
G04 #@! TO.N,Net-(J3-Pad1)*
X130432235Y-91440000D02*
X130750000Y-91757765D01*
X129175000Y-91440000D02*
X130432235Y-91440000D01*
X130750000Y-91757765D02*
X130750000Y-97500000D01*
X119500000Y-108750000D02*
X119500000Y-116000000D01*
X130750000Y-97500000D02*
X119500000Y-108750000D01*
G04 #@! TO.N,Net-(J4-Pad1)*
X134255000Y-91440000D02*
X132000000Y-93695000D01*
X132000000Y-93695000D02*
X132000000Y-106250000D01*
X129500000Y-108750000D02*
X129500000Y-116000000D01*
X132000000Y-106250000D02*
X129500000Y-108750000D01*
G04 #@! TO.N,Net-(J5-Pad1)*
X135580999Y-92654001D02*
X135580999Y-106080999D01*
X136795000Y-91440000D02*
X135580999Y-92654001D01*
X139500000Y-110000000D02*
X139500000Y-116000000D01*
X135580999Y-106080999D02*
X139500000Y-110000000D01*
G04 #@! TO.N,Net-(J6-Pad1)*
X139335000Y-91440000D02*
X141000000Y-93105000D01*
X141000000Y-93105000D02*
X141000000Y-106250000D01*
X149500000Y-114750000D02*
X149500000Y-116000000D01*
X141000000Y-106250000D02*
X149500000Y-114750000D01*
G04 #@! TO.N,Net-(J7-Pad1)*
X144415000Y-91440000D02*
X142500000Y-93355000D01*
X159500000Y-114875000D02*
X159500000Y-116000000D01*
X142500000Y-97875000D02*
X159500000Y-114875000D01*
X142500000Y-93355000D02*
X142500000Y-97875000D01*
G04 #@! TO.N,Net-(J8-Pad1)*
X168375000Y-116000000D02*
X169500000Y-116000000D01*
X148280999Y-95905999D02*
X168375000Y-116000000D01*
X148280999Y-92765999D02*
X148280999Y-95905999D01*
X146955000Y-91440000D02*
X148280999Y-92765999D01*
G04 #@! TO.N,Net-(J9-Pad1)*
X179500000Y-114875000D02*
X179500000Y-116000000D01*
X177875000Y-113250000D02*
X179500000Y-114875000D01*
X171305000Y-113250000D02*
X177875000Y-113250000D01*
X149495000Y-91440000D02*
X171305000Y-113250000D01*
G04 #@! TO.N,Net-(J10-Pad1)*
X155789001Y-94450723D02*
X162588278Y-101250000D01*
X154575000Y-91440000D02*
X155789001Y-92654001D01*
X155789001Y-92654001D02*
X155789001Y-94450723D01*
X179875000Y-106750000D02*
X181000000Y-106750000D01*
X174375000Y-101250000D02*
X179875000Y-106750000D01*
X162588278Y-101250000D02*
X174375000Y-101250000D01*
G04 #@! TO.N,Net-(J11-Pad1)*
X157115000Y-91440000D02*
X158425000Y-92750000D01*
X158425000Y-92750000D02*
X164500000Y-92750000D01*
X164500000Y-92750000D02*
X169000000Y-88250000D01*
X169000000Y-88250000D02*
X169000000Y-78750000D01*
X176750000Y-71000000D02*
X181000000Y-71000000D01*
X169000000Y-78750000D02*
X176750000Y-71000000D01*
G04 #@! TO.N,Net-(J12-Pad1)*
X159655000Y-91440000D02*
X159655000Y-77845000D01*
X159655000Y-77845000D02*
X167750000Y-69750000D01*
X179875000Y-61000000D02*
X181000000Y-61000000D01*
X171125000Y-69750000D02*
X179875000Y-61000000D01*
X167750000Y-69750000D02*
X171125000Y-69750000D01*
G04 #@! TO.N,Net-(J13-Pad1)*
X159655000Y-73660000D02*
X160912235Y-73660000D01*
X182000000Y-50125000D02*
X170375000Y-61750000D01*
X182000000Y-49000000D02*
X182000000Y-50125000D01*
X170375000Y-61750000D02*
X168750000Y-61750000D01*
X168750000Y-61750000D02*
X162750000Y-67750000D01*
X162750000Y-71822235D02*
X160912235Y-73660000D01*
X162750000Y-67750000D02*
X162750000Y-71822235D01*
G04 #@! TO.N,Net-(J14-Pad1)*
X172000000Y-50125000D02*
X172000000Y-49000000D01*
X158440999Y-63684001D02*
X172000000Y-50125000D01*
X158440999Y-72334001D02*
X158440999Y-63684001D01*
X157115000Y-73660000D02*
X158440999Y-72334001D01*
G04 #@! TO.N,Net-(J15-Pad1)*
X162000000Y-49000000D02*
X162000000Y-54250000D01*
X153686001Y-72771001D02*
X154575000Y-73660000D01*
X153360999Y-72445999D02*
X153686001Y-72771001D01*
X153360999Y-62889001D02*
X153360999Y-72445999D01*
X162000000Y-54250000D02*
X153360999Y-62889001D01*
G04 #@! TO.N,Net-(J16-Pad1)*
X152000000Y-49000000D02*
X152000000Y-68250000D01*
X152000000Y-68250000D02*
X151250000Y-69000000D01*
X151250000Y-71905000D02*
X149495000Y-73660000D01*
X151250000Y-69000000D02*
X151250000Y-71905000D01*
G04 #@! TO.N,Net-(J17-Pad1)*
X146066001Y-72771001D02*
X146955000Y-73660000D01*
X145629001Y-72334001D02*
X146066001Y-72771001D01*
X145629001Y-53754001D02*
X145629001Y-72334001D01*
X142000000Y-50125000D02*
X145629001Y-53754001D01*
X142000000Y-49000000D02*
X142000000Y-50125000D01*
G04 #@! TO.N,Net-(J18-Pad1)*
X132000000Y-49000000D02*
X132000000Y-57500000D01*
X132000000Y-57500000D02*
X142500000Y-68000000D01*
X142500000Y-71745000D02*
X144415000Y-73660000D01*
X142500000Y-68000000D02*
X142500000Y-71745000D01*
G04 #@! TO.N,Net-(J19-Pad1)*
X122000000Y-50125000D02*
X141250000Y-69375000D01*
X122000000Y-49000000D02*
X122000000Y-50125000D01*
X141250000Y-71745000D02*
X139335000Y-73660000D01*
X141250000Y-69375000D02*
X141250000Y-71745000D01*
G04 #@! TO.N,Net-(J20-Pad1)*
X135906001Y-72771001D02*
X136795000Y-73660000D01*
X135580999Y-72445999D02*
X135906001Y-72771001D01*
X135580999Y-70649277D02*
X135580999Y-72445999D01*
X113931722Y-49000000D02*
X135580999Y-70649277D01*
X112000000Y-49000000D02*
X113931722Y-49000000D01*
G04 #@! TO.N,Net-(J21-Pad1)*
X131500000Y-70000000D02*
X131500000Y-70905000D01*
X102000000Y-50125000D02*
X103375000Y-51500000D01*
X102000000Y-49000000D02*
X102000000Y-50125000D01*
X103375000Y-51500000D02*
X110250000Y-51500000D01*
X110250000Y-51500000D02*
X127500000Y-68750000D01*
X131500000Y-70905000D02*
X134255000Y-73660000D01*
X127500000Y-68750000D02*
X130250000Y-68750000D01*
X130250000Y-68750000D02*
X131500000Y-70000000D01*
G04 #@! TO.N,Net-(J22-Pad1)*
X92000000Y-50125000D02*
X94375000Y-52500000D01*
X92000000Y-49000000D02*
X92000000Y-50125000D01*
X128286001Y-72771001D02*
X129175000Y-73660000D01*
X127960999Y-72445999D02*
X128286001Y-72771001D01*
X127960999Y-70649277D02*
X127960999Y-72445999D01*
X109811722Y-52500000D02*
X127960999Y-70649277D01*
X94375000Y-52500000D02*
X109811722Y-52500000D01*
G04 #@! TO.N,Net-(J23-Pad1)*
X82000000Y-50125000D02*
X85375000Y-53500000D01*
X82000000Y-49000000D02*
X82000000Y-50125000D01*
X85375000Y-53500000D02*
X109000000Y-53500000D01*
X125746001Y-72771001D02*
X126635000Y-73660000D01*
X125420999Y-72445999D02*
X125746001Y-72771001D01*
X125420999Y-69920999D02*
X125420999Y-72445999D01*
X109000000Y-53500000D02*
X125420999Y-69920999D01*
G04 #@! TO.N,Net-(J24-Pad1)*
X72000000Y-50125000D02*
X76625000Y-54750000D01*
X72000000Y-49000000D02*
X72000000Y-50125000D01*
X105185000Y-54750000D02*
X124095000Y-73660000D01*
X76625000Y-54750000D02*
X105185000Y-54750000D01*
G04 #@! TD*
D29*
G04 #@! TO.N,GNDREF*
G36*
X184290001Y-80949208D02*
X184242767Y-80901974D01*
X183549950Y-80615000D01*
X182800050Y-80615000D01*
X182107233Y-80901974D01*
X181576974Y-81432233D01*
X181510000Y-81593923D01*
X181510000Y-80623690D01*
X181413327Y-80390301D01*
X181234698Y-80211673D01*
X181001309Y-80115000D01*
X179660750Y-80115000D01*
X179502000Y-80273750D01*
X179502000Y-82373000D01*
X179522000Y-82373000D01*
X179522000Y-82627000D01*
X179502000Y-82627000D01*
X179502000Y-84726250D01*
X179660750Y-84885000D01*
X181001309Y-84885000D01*
X181234698Y-84788327D01*
X181413327Y-84609699D01*
X181510000Y-84376310D01*
X181510000Y-83406077D01*
X181576974Y-83567767D01*
X182107233Y-84098026D01*
X182800050Y-84385000D01*
X183549950Y-84385000D01*
X184242767Y-84098026D01*
X184290000Y-84050793D01*
X184290000Y-119290000D01*
X60710000Y-119290000D01*
X60710000Y-112595793D01*
X64154054Y-112595793D01*
X64234431Y-112893170D01*
X64710245Y-113694469D01*
X65456484Y-114252687D01*
X66359540Y-114482840D01*
X68109600Y-114482840D01*
X68109600Y-112224780D01*
X68363600Y-112224780D01*
X68363600Y-114482840D01*
X70113660Y-114482840D01*
X71016716Y-114252687D01*
X71468730Y-113914561D01*
X77415000Y-113914561D01*
X77415000Y-114485439D01*
X77633466Y-115012862D01*
X78037138Y-115416534D01*
X78564561Y-115635000D01*
X79135439Y-115635000D01*
X79662862Y-115416534D01*
X80066534Y-115012862D01*
X80258655Y-114549039D01*
X89638096Y-114549039D01*
X89798959Y-114937423D01*
X90174866Y-115352389D01*
X90680959Y-115591914D01*
X90903000Y-115470629D01*
X90903000Y-114327000D01*
X91157000Y-114327000D01*
X91157000Y-115470629D01*
X91379041Y-115591914D01*
X91885134Y-115352389D01*
X91977885Y-115250000D01*
X96475112Y-115250000D01*
X96490000Y-115324847D01*
X96490001Y-117425148D01*
X96475112Y-117500000D01*
X96490001Y-117574852D01*
X96527929Y-117765527D01*
X96534097Y-117796537D01*
X96638952Y-117953463D01*
X96702072Y-118047929D01*
X96765528Y-118090329D01*
X97409671Y-118734473D01*
X97452071Y-118797929D01*
X97703463Y-118965904D01*
X97925148Y-119010000D01*
X97925152Y-119010000D01*
X97999999Y-119024888D01*
X98074846Y-119010000D01*
X106050153Y-119010000D01*
X106125000Y-119024888D01*
X106199847Y-119010000D01*
X106199852Y-119010000D01*
X106421537Y-118965904D01*
X106672929Y-118797929D01*
X106715331Y-118734470D01*
X108147084Y-117302717D01*
X108167191Y-117332809D01*
X108377235Y-117473157D01*
X108625000Y-117522440D01*
X110375000Y-117522440D01*
X110622765Y-117473157D01*
X110832809Y-117332809D01*
X110973157Y-117122765D01*
X110975504Y-117110966D01*
X111144654Y-117280116D01*
X111699642Y-117510000D01*
X112300358Y-117510000D01*
X112855346Y-117280116D01*
X113280116Y-116855346D01*
X113510000Y-116300358D01*
X113510000Y-115699642D01*
X113280116Y-115144654D01*
X112855346Y-114719884D01*
X112300358Y-114490000D01*
X111699642Y-114490000D01*
X111144654Y-114719884D01*
X110975504Y-114889034D01*
X110973157Y-114877235D01*
X110832809Y-114667191D01*
X110622765Y-114526843D01*
X110375000Y-114477560D01*
X108625000Y-114477560D01*
X108377235Y-114526843D01*
X108167191Y-114667191D01*
X108026843Y-114877235D01*
X107977560Y-115125000D01*
X107977560Y-115351517D01*
X107827071Y-115452071D01*
X107784671Y-115515527D01*
X105810199Y-117490000D01*
X102348642Y-117490000D01*
X102855346Y-117280116D01*
X103280116Y-116855346D01*
X103510000Y-116300358D01*
X103510000Y-115699642D01*
X103280116Y-115144654D01*
X102855346Y-114719884D01*
X102300358Y-114490000D01*
X101699642Y-114490000D01*
X101144654Y-114719884D01*
X100975504Y-114889034D01*
X100973157Y-114877235D01*
X100832809Y-114667191D01*
X100802717Y-114647084D01*
X122610413Y-92839389D01*
X122607843Y-92843235D01*
X122558560Y-93091000D01*
X122558560Y-94869000D01*
X122607843Y-95116765D01*
X122748191Y-95326809D01*
X122958235Y-95467157D01*
X123206000Y-95516440D01*
X124984000Y-95516440D01*
X125231765Y-95467157D01*
X125441809Y-95326809D01*
X125582157Y-95116765D01*
X125587855Y-95088117D01*
X125771723Y-95271985D01*
X126331858Y-95504000D01*
X126938142Y-95504000D01*
X127498277Y-95271985D01*
X127905000Y-94865262D01*
X128311723Y-95271985D01*
X128871858Y-95504000D01*
X129478142Y-95504000D01*
X129990001Y-95291982D01*
X129990001Y-97185197D01*
X119015530Y-108159669D01*
X118952071Y-108202071D01*
X118784096Y-108453464D01*
X118740000Y-108675149D01*
X118740000Y-108675153D01*
X118725112Y-108750000D01*
X118740000Y-108824847D01*
X118740001Y-114477560D01*
X118625000Y-114477560D01*
X118377235Y-114526843D01*
X118167191Y-114667191D01*
X118026843Y-114877235D01*
X117977560Y-115125000D01*
X117977560Y-116875000D01*
X118026843Y-117122765D01*
X118167191Y-117332809D01*
X118377235Y-117473157D01*
X118625000Y-117522440D01*
X120375000Y-117522440D01*
X120622765Y-117473157D01*
X120832809Y-117332809D01*
X120973157Y-117122765D01*
X120975504Y-117110966D01*
X121144654Y-117280116D01*
X121699642Y-117510000D01*
X122300358Y-117510000D01*
X122855346Y-117280116D01*
X123280116Y-116855346D01*
X123510000Y-116300358D01*
X123510000Y-115699642D01*
X123280116Y-115144654D01*
X122855346Y-114719884D01*
X122300358Y-114490000D01*
X121699642Y-114490000D01*
X121144654Y-114719884D01*
X120975504Y-114889034D01*
X120973157Y-114877235D01*
X120832809Y-114667191D01*
X120622765Y-114526843D01*
X120375000Y-114477560D01*
X120260000Y-114477560D01*
X120260000Y-109064801D01*
X131234473Y-98090329D01*
X131240000Y-98086636D01*
X131240001Y-105935197D01*
X129015530Y-108159669D01*
X128952071Y-108202071D01*
X128784096Y-108453464D01*
X128740000Y-108675149D01*
X128740000Y-108675153D01*
X128725112Y-108750000D01*
X128740000Y-108824847D01*
X128740001Y-114477560D01*
X128625000Y-114477560D01*
X128377235Y-114526843D01*
X128167191Y-114667191D01*
X128026843Y-114877235D01*
X127977560Y-115125000D01*
X127977560Y-116875000D01*
X128026843Y-117122765D01*
X128167191Y-117332809D01*
X128377235Y-117473157D01*
X128625000Y-117522440D01*
X130375000Y-117522440D01*
X130622765Y-117473157D01*
X130832809Y-117332809D01*
X130973157Y-117122765D01*
X130975504Y-117110966D01*
X131144654Y-117280116D01*
X131699642Y-117510000D01*
X132300358Y-117510000D01*
X132855346Y-117280116D01*
X133280116Y-116855346D01*
X133510000Y-116300358D01*
X133510000Y-115699642D01*
X133280116Y-115144654D01*
X132855346Y-114719884D01*
X132300358Y-114490000D01*
X131699642Y-114490000D01*
X131144654Y-114719884D01*
X130975504Y-114889034D01*
X130973157Y-114877235D01*
X130832809Y-114667191D01*
X130622765Y-114526843D01*
X130375000Y-114477560D01*
X130260000Y-114477560D01*
X130260000Y-109064801D01*
X132484473Y-106840329D01*
X132547929Y-106797929D01*
X132715904Y-106546537D01*
X132760000Y-106324852D01*
X132760000Y-106324847D01*
X132774888Y-106250000D01*
X132760000Y-106175153D01*
X132760000Y-95077335D01*
X132767843Y-95116765D01*
X132908191Y-95326809D01*
X133118235Y-95467157D01*
X133366000Y-95516440D01*
X134820999Y-95516440D01*
X134821000Y-106006147D01*
X134806111Y-106080999D01*
X134865096Y-106377536D01*
X134978020Y-106546538D01*
X135033071Y-106628928D01*
X135096527Y-106671328D01*
X138740000Y-110314803D01*
X138740001Y-114477560D01*
X138625000Y-114477560D01*
X138377235Y-114526843D01*
X138167191Y-114667191D01*
X138026843Y-114877235D01*
X137977560Y-115125000D01*
X137977560Y-116875000D01*
X138026843Y-117122765D01*
X138167191Y-117332809D01*
X138377235Y-117473157D01*
X138625000Y-117522440D01*
X140375000Y-117522440D01*
X140622765Y-117473157D01*
X140832809Y-117332809D01*
X140973157Y-117122765D01*
X140975504Y-117110966D01*
X141144654Y-117280116D01*
X141699642Y-117510000D01*
X142300358Y-117510000D01*
X142855346Y-117280116D01*
X143280116Y-116855346D01*
X143510000Y-116300358D01*
X143510000Y-115699642D01*
X143280116Y-115144654D01*
X142855346Y-114719884D01*
X142300358Y-114490000D01*
X141699642Y-114490000D01*
X141144654Y-114719884D01*
X140975504Y-114889034D01*
X140973157Y-114877235D01*
X140832809Y-114667191D01*
X140622765Y-114526843D01*
X140375000Y-114477560D01*
X140260000Y-114477560D01*
X140260000Y-110074846D01*
X140274888Y-109999999D01*
X140260000Y-109925152D01*
X140260000Y-109925148D01*
X140215904Y-109703463D01*
X140096584Y-109524888D01*
X140090329Y-109515526D01*
X140090327Y-109515524D01*
X140047929Y-109452071D01*
X139984476Y-109409673D01*
X136340999Y-105766198D01*
X136340999Y-95441512D01*
X136491858Y-95504000D01*
X137098142Y-95504000D01*
X137658277Y-95271985D01*
X138065000Y-94865262D01*
X138471723Y-95271985D01*
X139031858Y-95504000D01*
X139638142Y-95504000D01*
X140198277Y-95271985D01*
X140240000Y-95230262D01*
X140240001Y-106175148D01*
X140225112Y-106250000D01*
X140240001Y-106324852D01*
X140284097Y-106546537D01*
X140452072Y-106797929D01*
X140515528Y-106840329D01*
X148272214Y-114597016D01*
X148167191Y-114667191D01*
X148026843Y-114877235D01*
X147977560Y-115125000D01*
X147977560Y-116875000D01*
X148026843Y-117122765D01*
X148167191Y-117332809D01*
X148377235Y-117473157D01*
X148625000Y-117522440D01*
X150375000Y-117522440D01*
X150622765Y-117473157D01*
X150832809Y-117332809D01*
X150973157Y-117122765D01*
X150975504Y-117110966D01*
X151144654Y-117280116D01*
X151699642Y-117510000D01*
X152300358Y-117510000D01*
X152855346Y-117280116D01*
X153280116Y-116855346D01*
X153510000Y-116300358D01*
X153510000Y-115699642D01*
X153280116Y-115144654D01*
X152855346Y-114719884D01*
X152300358Y-114490000D01*
X151699642Y-114490000D01*
X151144654Y-114719884D01*
X150975504Y-114889034D01*
X150973157Y-114877235D01*
X150832809Y-114667191D01*
X150622765Y-114526843D01*
X150375000Y-114477560D01*
X150220697Y-114477560D01*
X150215904Y-114453463D01*
X150047929Y-114202071D01*
X149984473Y-114159671D01*
X141760000Y-105935199D01*
X141760000Y-98050394D01*
X141784097Y-98171537D01*
X141952072Y-98422929D01*
X142015528Y-98465329D01*
X158197282Y-114647084D01*
X158167191Y-114667191D01*
X158026843Y-114877235D01*
X157977560Y-115125000D01*
X157977560Y-116875000D01*
X158026843Y-117122765D01*
X158167191Y-117332809D01*
X158377235Y-117473157D01*
X158625000Y-117522440D01*
X160375000Y-117522440D01*
X160622765Y-117473157D01*
X160832809Y-117332809D01*
X160973157Y-117122765D01*
X160975504Y-117110966D01*
X161144654Y-117280116D01*
X161699642Y-117510000D01*
X162300358Y-117510000D01*
X162855346Y-117280116D01*
X163280116Y-116855346D01*
X163510000Y-116300358D01*
X163510000Y-115699642D01*
X163280116Y-115144654D01*
X162855346Y-114719884D01*
X162300358Y-114490000D01*
X161699642Y-114490000D01*
X161144654Y-114719884D01*
X160975504Y-114889034D01*
X160973157Y-114877235D01*
X160832809Y-114667191D01*
X160622765Y-114526843D01*
X160375000Y-114477560D01*
X160148483Y-114477560D01*
X160047929Y-114327071D01*
X159984473Y-114284671D01*
X143260000Y-97560199D01*
X143260000Y-95454973D01*
X143278235Y-95467157D01*
X143526000Y-95516440D01*
X145304000Y-95516440D01*
X145551765Y-95467157D01*
X145761809Y-95326809D01*
X145902157Y-95116765D01*
X145907855Y-95088117D01*
X146091723Y-95271985D01*
X146651858Y-95504000D01*
X147258142Y-95504000D01*
X147521000Y-95395121D01*
X147521000Y-95831147D01*
X147506111Y-95905999D01*
X147565096Y-96202536D01*
X147678997Y-96373000D01*
X147733071Y-96453928D01*
X147796527Y-96496328D01*
X167784671Y-116484473D01*
X167827071Y-116547929D01*
X167890527Y-116590329D01*
X167977560Y-116648483D01*
X167977560Y-116875000D01*
X168026843Y-117122765D01*
X168167191Y-117332809D01*
X168377235Y-117473157D01*
X168625000Y-117522440D01*
X170375000Y-117522440D01*
X170622765Y-117473157D01*
X170832809Y-117332809D01*
X170973157Y-117122765D01*
X170975504Y-117110966D01*
X171144654Y-117280116D01*
X171699642Y-117510000D01*
X172300358Y-117510000D01*
X172855346Y-117280116D01*
X173280116Y-116855346D01*
X173510000Y-116300358D01*
X173510000Y-115699642D01*
X173280116Y-115144654D01*
X172855346Y-114719884D01*
X172300358Y-114490000D01*
X171699642Y-114490000D01*
X171144654Y-114719884D01*
X170975504Y-114889034D01*
X170973157Y-114877235D01*
X170832809Y-114667191D01*
X170622765Y-114526843D01*
X170375000Y-114477560D01*
X168625000Y-114477560D01*
X168377235Y-114526843D01*
X168167191Y-114667191D01*
X168147084Y-114697282D01*
X149040999Y-95591198D01*
X149040999Y-95441512D01*
X149191858Y-95504000D01*
X149798142Y-95504000D01*
X150358277Y-95271985D01*
X150786985Y-94843277D01*
X151019000Y-94283142D01*
X151019000Y-94038801D01*
X170714670Y-113734472D01*
X170757071Y-113797929D01*
X170820527Y-113840329D01*
X171008462Y-113965904D01*
X171054750Y-113975111D01*
X171230148Y-114010000D01*
X171230152Y-114010000D01*
X171305000Y-114024888D01*
X171379848Y-114010000D01*
X177560199Y-114010000D01*
X178197283Y-114647084D01*
X178167191Y-114667191D01*
X178026843Y-114877235D01*
X177977560Y-115125000D01*
X177977560Y-116875000D01*
X178026843Y-117122765D01*
X178167191Y-117332809D01*
X178377235Y-117473157D01*
X178625000Y-117522440D01*
X180375000Y-117522440D01*
X180622765Y-117473157D01*
X180832809Y-117332809D01*
X180973157Y-117122765D01*
X180975504Y-117110966D01*
X181144654Y-117280116D01*
X181699642Y-117510000D01*
X182300358Y-117510000D01*
X182855346Y-117280116D01*
X183280116Y-116855346D01*
X183510000Y-116300358D01*
X183510000Y-115699642D01*
X183280116Y-115144654D01*
X182855346Y-114719884D01*
X182300358Y-114490000D01*
X181699642Y-114490000D01*
X181144654Y-114719884D01*
X180975504Y-114889034D01*
X180973157Y-114877235D01*
X180832809Y-114667191D01*
X180622765Y-114526843D01*
X180375000Y-114477560D01*
X180148483Y-114477560D01*
X180047929Y-114327071D01*
X179984473Y-114284671D01*
X178465331Y-112765530D01*
X178422929Y-112702071D01*
X178171537Y-112534096D01*
X177949852Y-112490000D01*
X177949847Y-112490000D01*
X177875000Y-112475112D01*
X177800153Y-112490000D01*
X171619802Y-112490000D01*
X163685233Y-104555431D01*
X167765000Y-104555431D01*
X167765000Y-105444569D01*
X168105259Y-106266026D01*
X168733974Y-106894741D01*
X169555431Y-107235000D01*
X170444569Y-107235000D01*
X171266026Y-106894741D01*
X171894741Y-106266026D01*
X172235000Y-105444569D01*
X172235000Y-104555431D01*
X171894741Y-103733974D01*
X171266026Y-103105259D01*
X170444569Y-102765000D01*
X169555431Y-102765000D01*
X168733974Y-103105259D01*
X168105259Y-103733974D01*
X167765000Y-104555431D01*
X163685233Y-104555431D01*
X154646241Y-95516440D01*
X155464000Y-95516440D01*
X155711765Y-95467157D01*
X155723076Y-95459599D01*
X161997948Y-101734472D01*
X162040349Y-101797929D01*
X162103805Y-101840329D01*
X162291740Y-101965904D01*
X162339883Y-101975480D01*
X162513426Y-102010000D01*
X162513430Y-102010000D01*
X162588278Y-102024888D01*
X162663126Y-102010000D01*
X174060199Y-102010000D01*
X179284671Y-107234473D01*
X179327071Y-107297929D01*
X179477560Y-107398483D01*
X179477560Y-107625000D01*
X179526843Y-107872765D01*
X179667191Y-108082809D01*
X179877235Y-108223157D01*
X180125000Y-108272440D01*
X181875000Y-108272440D01*
X182122765Y-108223157D01*
X182332809Y-108082809D01*
X182473157Y-107872765D01*
X182522440Y-107625000D01*
X182522440Y-105875000D01*
X182473157Y-105627235D01*
X182332809Y-105417191D01*
X182122765Y-105276843D01*
X182110966Y-105274496D01*
X182280116Y-105105346D01*
X182510000Y-104550358D01*
X182510000Y-103949642D01*
X182280116Y-103394654D01*
X181855346Y-102969884D01*
X181300358Y-102740000D01*
X180699642Y-102740000D01*
X180144654Y-102969884D01*
X179719884Y-103394654D01*
X179490000Y-103949642D01*
X179490000Y-104550358D01*
X179719884Y-105105346D01*
X179889034Y-105274496D01*
X179877235Y-105276843D01*
X179667191Y-105417191D01*
X179647084Y-105447282D01*
X174965331Y-100765530D01*
X174922929Y-100702071D01*
X174671537Y-100534096D01*
X174449852Y-100490000D01*
X174449847Y-100490000D01*
X174375000Y-100475112D01*
X174300153Y-100490000D01*
X162903080Y-100490000D01*
X159198830Y-96785750D01*
X179490000Y-96785750D01*
X179490000Y-97501309D01*
X179586673Y-97734698D01*
X179765301Y-97913327D01*
X179998690Y-98010000D01*
X180714250Y-98010000D01*
X180873000Y-97851250D01*
X180873000Y-96627000D01*
X181127000Y-96627000D01*
X181127000Y-97851250D01*
X181285750Y-98010000D01*
X182001310Y-98010000D01*
X182234699Y-97913327D01*
X182413327Y-97734698D01*
X182510000Y-97501309D01*
X182510000Y-96785750D01*
X182351250Y-96627000D01*
X181127000Y-96627000D01*
X180873000Y-96627000D01*
X179648750Y-96627000D01*
X179490000Y-96785750D01*
X159198830Y-96785750D01*
X157770944Y-95357865D01*
X157978277Y-95271985D01*
X158385000Y-94865262D01*
X158791723Y-95271985D01*
X159351858Y-95504000D01*
X159958142Y-95504000D01*
X160518277Y-95271985D01*
X160946985Y-94843277D01*
X161179000Y-94283142D01*
X161179000Y-93676858D01*
X161109885Y-93510000D01*
X164425153Y-93510000D01*
X164500000Y-93524888D01*
X164574847Y-93510000D01*
X164574852Y-93510000D01*
X164796537Y-93465904D01*
X165047929Y-93297929D01*
X165090331Y-93234470D01*
X167125159Y-91199642D01*
X179490000Y-91199642D01*
X179490000Y-91800358D01*
X179719884Y-92355346D01*
X180114538Y-92750000D01*
X179719884Y-93144654D01*
X179490000Y-93699642D01*
X179490000Y-94300358D01*
X179719884Y-94855346D01*
X179896759Y-95032221D01*
X179765301Y-95086673D01*
X179586673Y-95265302D01*
X179490000Y-95498691D01*
X179490000Y-96214250D01*
X179648750Y-96373000D01*
X180873000Y-96373000D01*
X180873000Y-96353000D01*
X181127000Y-96353000D01*
X181127000Y-96373000D01*
X182351250Y-96373000D01*
X182510000Y-96214250D01*
X182510000Y-95498691D01*
X182413327Y-95265302D01*
X182234699Y-95086673D01*
X182103241Y-95032221D01*
X182280116Y-94855346D01*
X182510000Y-94300358D01*
X182510000Y-93699642D01*
X182280116Y-93144654D01*
X181885462Y-92750000D01*
X182280116Y-92355346D01*
X182510000Y-91800358D01*
X182510000Y-91199642D01*
X182280116Y-90644654D01*
X181855346Y-90219884D01*
X181300358Y-89990000D01*
X180699642Y-89990000D01*
X180144654Y-90219884D01*
X179719884Y-90644654D01*
X179490000Y-91199642D01*
X167125159Y-91199642D01*
X169484473Y-88840329D01*
X169547929Y-88797929D01*
X169715904Y-88546537D01*
X169760000Y-88324852D01*
X169760000Y-88324848D01*
X169774888Y-88250001D01*
X169760000Y-88175154D01*
X169760000Y-80750000D01*
X170377560Y-80750000D01*
X170377560Y-84250000D01*
X170426843Y-84497765D01*
X170567191Y-84707809D01*
X170777235Y-84848157D01*
X171025000Y-84897440D01*
X174525000Y-84897440D01*
X174772765Y-84848157D01*
X174982809Y-84707809D01*
X175123157Y-84497765D01*
X175172440Y-84250000D01*
X175172440Y-82785750D01*
X177240000Y-82785750D01*
X177240000Y-84376310D01*
X177336673Y-84609699D01*
X177515302Y-84788327D01*
X177748691Y-84885000D01*
X179089250Y-84885000D01*
X179248000Y-84726250D01*
X179248000Y-82627000D01*
X177398750Y-82627000D01*
X177240000Y-82785750D01*
X175172440Y-82785750D01*
X175172440Y-80750000D01*
X175147316Y-80623690D01*
X177240000Y-80623690D01*
X177240000Y-82214250D01*
X177398750Y-82373000D01*
X179248000Y-82373000D01*
X179248000Y-80273750D01*
X179089250Y-80115000D01*
X177748691Y-80115000D01*
X177515302Y-80211673D01*
X177336673Y-80390301D01*
X177240000Y-80623690D01*
X175147316Y-80623690D01*
X175123157Y-80502235D01*
X174982809Y-80292191D01*
X174772765Y-80151843D01*
X174525000Y-80102560D01*
X171025000Y-80102560D01*
X170777235Y-80151843D01*
X170567191Y-80292191D01*
X170426843Y-80502235D01*
X170377560Y-80750000D01*
X169760000Y-80750000D01*
X169760000Y-79064801D01*
X171039051Y-77785750D01*
X173440000Y-77785750D01*
X173440000Y-79376310D01*
X173536673Y-79609699D01*
X173715302Y-79788327D01*
X173948691Y-79885000D01*
X175539250Y-79885000D01*
X175698000Y-79726250D01*
X175698000Y-77627000D01*
X175952000Y-77627000D01*
X175952000Y-79726250D01*
X176110750Y-79885000D01*
X177701309Y-79885000D01*
X177934698Y-79788327D01*
X178113327Y-79609699D01*
X178210000Y-79376310D01*
X178210000Y-77785750D01*
X178051250Y-77627000D01*
X175952000Y-77627000D01*
X175698000Y-77627000D01*
X173598750Y-77627000D01*
X173440000Y-77785750D01*
X171039051Y-77785750D01*
X173201111Y-75623690D01*
X173440000Y-75623690D01*
X173440000Y-77214250D01*
X173598750Y-77373000D01*
X175698000Y-77373000D01*
X175698000Y-75273750D01*
X175952000Y-75273750D01*
X175952000Y-77373000D01*
X178051250Y-77373000D01*
X178210000Y-77214250D01*
X178210000Y-75623690D01*
X178113327Y-75390301D01*
X177934698Y-75211673D01*
X177701309Y-75115000D01*
X176110750Y-75115000D01*
X175952000Y-75273750D01*
X175698000Y-75273750D01*
X175539250Y-75115000D01*
X173948691Y-75115000D01*
X173715302Y-75211673D01*
X173536673Y-75390301D01*
X173440000Y-75623690D01*
X173201111Y-75623690D01*
X177064802Y-71760000D01*
X179477560Y-71760000D01*
X179477560Y-71875000D01*
X179526843Y-72122765D01*
X179667191Y-72332809D01*
X179877235Y-72473157D01*
X180125000Y-72522440D01*
X181875000Y-72522440D01*
X182122765Y-72473157D01*
X182332809Y-72332809D01*
X182473157Y-72122765D01*
X182522440Y-71875000D01*
X182522440Y-70125000D01*
X182473157Y-69877235D01*
X182332809Y-69667191D01*
X182122765Y-69526843D01*
X182110966Y-69524496D01*
X182280116Y-69355346D01*
X182510000Y-68800358D01*
X182510000Y-68199642D01*
X182280116Y-67644654D01*
X181855346Y-67219884D01*
X181300358Y-66990000D01*
X180699642Y-66990000D01*
X180144654Y-67219884D01*
X179719884Y-67644654D01*
X179490000Y-68199642D01*
X179490000Y-68800358D01*
X179719884Y-69355346D01*
X179889034Y-69524496D01*
X179877235Y-69526843D01*
X179667191Y-69667191D01*
X179526843Y-69877235D01*
X179477560Y-70125000D01*
X179477560Y-70240000D01*
X176824846Y-70240000D01*
X176749999Y-70225112D01*
X176675152Y-70240000D01*
X176675148Y-70240000D01*
X176453463Y-70284096D01*
X176202071Y-70452071D01*
X176159671Y-70515527D01*
X168515528Y-78159671D01*
X168452072Y-78202071D01*
X168409672Y-78265527D01*
X168409671Y-78265528D01*
X168284097Y-78453463D01*
X168225112Y-78750000D01*
X168240001Y-78824852D01*
X168240000Y-87935198D01*
X164185199Y-91990000D01*
X161076748Y-91990000D01*
X161179000Y-91743142D01*
X161179000Y-91136858D01*
X160946985Y-90576723D01*
X160518277Y-90148015D01*
X160415000Y-90105236D01*
X160415000Y-88596858D01*
X163211000Y-88596858D01*
X163211000Y-89203142D01*
X163443015Y-89763277D01*
X163871723Y-90191985D01*
X164431858Y-90424000D01*
X165038142Y-90424000D01*
X165598277Y-90191985D01*
X166026985Y-89763277D01*
X166259000Y-89203142D01*
X166259000Y-88596858D01*
X166026985Y-88036723D01*
X165598277Y-87608015D01*
X165572570Y-87597367D01*
X165627591Y-87432196D01*
X164735000Y-86539605D01*
X163842409Y-87432196D01*
X163897430Y-87597367D01*
X163871723Y-87608015D01*
X163443015Y-88036723D01*
X163211000Y-88596858D01*
X160415000Y-88596858D01*
X160415000Y-86121965D01*
X163199484Y-86121965D01*
X163225277Y-86727700D01*
X163407461Y-87167533D01*
X163662804Y-87252591D01*
X164555395Y-86360000D01*
X164914605Y-86360000D01*
X165807196Y-87252591D01*
X166062539Y-87167533D01*
X166270516Y-86598035D01*
X166244723Y-85992300D01*
X166062539Y-85552467D01*
X165807196Y-85467409D01*
X164914605Y-86360000D01*
X164555395Y-86360000D01*
X163662804Y-85467409D01*
X163407461Y-85552467D01*
X163199484Y-86121965D01*
X160415000Y-86121965D01*
X160415000Y-78159801D01*
X162677943Y-75896858D01*
X163211000Y-75896858D01*
X163211000Y-76503142D01*
X163443015Y-77063277D01*
X163849738Y-77470000D01*
X163443015Y-77876723D01*
X163211000Y-78436858D01*
X163211000Y-79043142D01*
X163443015Y-79603277D01*
X163849738Y-80010000D01*
X163443015Y-80416723D01*
X163211000Y-80976858D01*
X163211000Y-81583142D01*
X163443015Y-82143277D01*
X163849738Y-82550000D01*
X163443015Y-82956723D01*
X163211000Y-83516858D01*
X163211000Y-84123142D01*
X163443015Y-84683277D01*
X163871723Y-85111985D01*
X163897430Y-85122633D01*
X163842409Y-85287804D01*
X164735000Y-86180395D01*
X165627591Y-85287804D01*
X165572570Y-85122633D01*
X165598277Y-85111985D01*
X166026985Y-84683277D01*
X166259000Y-84123142D01*
X166259000Y-83516858D01*
X166026985Y-82956723D01*
X165620262Y-82550000D01*
X166026985Y-82143277D01*
X166259000Y-81583142D01*
X166259000Y-80976858D01*
X166026985Y-80416723D01*
X165620262Y-80010000D01*
X166026985Y-79603277D01*
X166259000Y-79043142D01*
X166259000Y-78436858D01*
X166026985Y-77876723D01*
X165620262Y-77470000D01*
X166026985Y-77063277D01*
X166259000Y-76503142D01*
X166259000Y-75896858D01*
X166026985Y-75336723D01*
X165598277Y-74908015D01*
X165038142Y-74676000D01*
X164431858Y-74676000D01*
X163871723Y-74908015D01*
X163443015Y-75336723D01*
X163211000Y-75896858D01*
X162677943Y-75896858D01*
X168064802Y-70510000D01*
X171050153Y-70510000D01*
X171125000Y-70524888D01*
X171199847Y-70510000D01*
X171199852Y-70510000D01*
X171421537Y-70465904D01*
X171672929Y-70297929D01*
X171715331Y-70234470D01*
X179647084Y-62302718D01*
X179667191Y-62332809D01*
X179877235Y-62473157D01*
X180125000Y-62522440D01*
X181875000Y-62522440D01*
X182122765Y-62473157D01*
X182332809Y-62332809D01*
X182473157Y-62122765D01*
X182522440Y-61875000D01*
X182522440Y-60125000D01*
X182473157Y-59877235D01*
X182332809Y-59667191D01*
X182122765Y-59526843D01*
X182110966Y-59524496D01*
X182280116Y-59355346D01*
X182510000Y-58800358D01*
X182510000Y-58199642D01*
X182280116Y-57644654D01*
X181855346Y-57219884D01*
X181300358Y-56990000D01*
X180699642Y-56990000D01*
X180144654Y-57219884D01*
X179719884Y-57644654D01*
X179490000Y-58199642D01*
X179490000Y-58800358D01*
X179719884Y-59355346D01*
X179889034Y-59524496D01*
X179877235Y-59526843D01*
X179667191Y-59667191D01*
X179526843Y-59877235D01*
X179477560Y-60125000D01*
X179477560Y-60351517D01*
X179391418Y-60409076D01*
X179327071Y-60452071D01*
X179284671Y-60515527D01*
X170810199Y-68990000D01*
X167824848Y-68990000D01*
X167750000Y-68975112D01*
X167675152Y-68990000D01*
X167675148Y-68990000D01*
X167501605Y-69024520D01*
X167453462Y-69034096D01*
X167285822Y-69146110D01*
X167202071Y-69202071D01*
X167159671Y-69265527D01*
X159170528Y-77254671D01*
X159107072Y-77297071D01*
X159064672Y-77360527D01*
X159064671Y-77360528D01*
X158939097Y-77548463D01*
X158880112Y-77845000D01*
X158895001Y-77919852D01*
X158895000Y-90105236D01*
X158791723Y-90148015D01*
X158385000Y-90554738D01*
X157978277Y-90148015D01*
X157418142Y-89916000D01*
X156811858Y-89916000D01*
X156251723Y-90148015D01*
X155845000Y-90554738D01*
X155438277Y-90148015D01*
X154878142Y-89916000D01*
X154271858Y-89916000D01*
X153711723Y-90148015D01*
X153283015Y-90576723D01*
X153051000Y-91136858D01*
X153051000Y-91743142D01*
X153283015Y-92303277D01*
X153466883Y-92487145D01*
X153438235Y-92492843D01*
X153228191Y-92633191D01*
X153087843Y-92843235D01*
X153038560Y-93091000D01*
X153038560Y-93908759D01*
X150976221Y-91846420D01*
X151019000Y-91743142D01*
X151019000Y-91136858D01*
X150786985Y-90576723D01*
X150358277Y-90148015D01*
X149798142Y-89916000D01*
X149191858Y-89916000D01*
X148631723Y-90148015D01*
X148225000Y-90554738D01*
X147818277Y-90148015D01*
X147258142Y-89916000D01*
X146651858Y-89916000D01*
X146091723Y-90148015D01*
X145685000Y-90554738D01*
X145278277Y-90148015D01*
X144718142Y-89916000D01*
X144111858Y-89916000D01*
X143551723Y-90148015D01*
X143123015Y-90576723D01*
X142891000Y-91136858D01*
X142891000Y-91743142D01*
X142933779Y-91846420D01*
X142015530Y-92764669D01*
X141952071Y-92807071D01*
X141784096Y-93058464D01*
X141774864Y-93104878D01*
X141760000Y-93030152D01*
X141760000Y-93030148D01*
X141715904Y-92808463D01*
X141547929Y-92557071D01*
X141484473Y-92514671D01*
X140816221Y-91846420D01*
X140859000Y-91743142D01*
X140859000Y-91136858D01*
X140626985Y-90576723D01*
X140198277Y-90148015D01*
X139638142Y-89916000D01*
X139031858Y-89916000D01*
X138471723Y-90148015D01*
X138065000Y-90554738D01*
X137658277Y-90148015D01*
X137098142Y-89916000D01*
X136491858Y-89916000D01*
X135931723Y-90148015D01*
X135525000Y-90554738D01*
X135118277Y-90148015D01*
X134558142Y-89916000D01*
X133951858Y-89916000D01*
X133391723Y-90148015D01*
X132963015Y-90576723D01*
X132731000Y-91136858D01*
X132731000Y-91743142D01*
X132773779Y-91846420D01*
X131515530Y-93104669D01*
X131510000Y-93108364D01*
X131510000Y-91832613D01*
X131524888Y-91757765D01*
X131510000Y-91682917D01*
X131510000Y-91682913D01*
X131465904Y-91461228D01*
X131297929Y-91209836D01*
X131234470Y-91167434D01*
X131022566Y-90955530D01*
X130980164Y-90892071D01*
X130728772Y-90724096D01*
X130510004Y-90680580D01*
X130466985Y-90576723D01*
X130038277Y-90148015D01*
X129478142Y-89916000D01*
X128871858Y-89916000D01*
X128311723Y-90148015D01*
X127905000Y-90554738D01*
X127498277Y-90148015D01*
X127394420Y-90104996D01*
X127350904Y-89886228D01*
X127182929Y-89634836D01*
X127119473Y-89592436D01*
X126292566Y-88765530D01*
X126250164Y-88702071D01*
X125998772Y-88534096D01*
X125777087Y-88490000D01*
X125777082Y-88490000D01*
X125702235Y-88475112D01*
X125627388Y-88490000D01*
X123324848Y-88490000D01*
X123250000Y-88475112D01*
X123175152Y-88490000D01*
X123175148Y-88490000D01*
X122953463Y-88534096D01*
X122702071Y-88702071D01*
X122659671Y-88765527D01*
X96765530Y-114659669D01*
X96702071Y-114702071D01*
X96534096Y-114953464D01*
X96490000Y-115175149D01*
X96490000Y-115175153D01*
X96475112Y-115250000D01*
X91977885Y-115250000D01*
X92261041Y-114937423D01*
X92421904Y-114549039D01*
X92299915Y-114327000D01*
X91157000Y-114327000D01*
X90903000Y-114327000D01*
X89760085Y-114327000D01*
X89638096Y-114549039D01*
X80258655Y-114549039D01*
X80285000Y-114485439D01*
X80285000Y-113914561D01*
X80258656Y-113850961D01*
X89638096Y-113850961D01*
X89760085Y-114073000D01*
X90903000Y-114073000D01*
X90903000Y-112929371D01*
X91157000Y-112929371D01*
X91157000Y-114073000D01*
X92299915Y-114073000D01*
X92421904Y-113850961D01*
X92261041Y-113462577D01*
X91885134Y-113047611D01*
X91379041Y-112808086D01*
X91157000Y-112929371D01*
X90903000Y-112929371D01*
X90680959Y-112808086D01*
X90174866Y-113047611D01*
X89798959Y-113462577D01*
X89638096Y-113850961D01*
X80258656Y-113850961D01*
X80066534Y-113387138D01*
X79662862Y-112983466D01*
X79135439Y-112765000D01*
X78564561Y-112765000D01*
X78037138Y-112983466D01*
X77633466Y-113387138D01*
X77415000Y-113914561D01*
X71468730Y-113914561D01*
X71762955Y-113694469D01*
X72238769Y-112893170D01*
X72319146Y-112595793D01*
X72209345Y-112224780D01*
X68363600Y-112224780D01*
X68109600Y-112224780D01*
X64263855Y-112224780D01*
X64154054Y-112595793D01*
X60710000Y-112595793D01*
X60710000Y-111599767D01*
X64154054Y-111599767D01*
X64263855Y-111970780D01*
X68109600Y-111970780D01*
X68109600Y-109712720D01*
X68363600Y-109712720D01*
X68363600Y-111970780D01*
X72209345Y-111970780D01*
X72319146Y-111599767D01*
X72238769Y-111302390D01*
X72020291Y-110934460D01*
X72374260Y-110934460D01*
X72374260Y-109626360D01*
X72628260Y-109626360D01*
X72628260Y-110934460D01*
X73077840Y-110934460D01*
X73617362Y-110776619D01*
X74055412Y-110424327D01*
X74060757Y-110414561D01*
X88665000Y-110414561D01*
X88665000Y-110985439D01*
X88883466Y-111512862D01*
X89287138Y-111916534D01*
X89814561Y-112135000D01*
X90385439Y-112135000D01*
X90912862Y-111916534D01*
X91316534Y-111512862D01*
X91535000Y-110985439D01*
X91535000Y-110414561D01*
X91316534Y-109887138D01*
X90912862Y-109483466D01*
X90385439Y-109265000D01*
X89814561Y-109265000D01*
X89287138Y-109483466D01*
X88883466Y-109887138D01*
X88665000Y-110414561D01*
X74060757Y-110414561D01*
X74325301Y-109931217D01*
X74342843Y-109848415D01*
X74220856Y-109626360D01*
X72628260Y-109626360D01*
X72374260Y-109626360D01*
X70781664Y-109626360D01*
X70659677Y-109848415D01*
X70660453Y-109852076D01*
X70113660Y-109712720D01*
X68363600Y-109712720D01*
X68109600Y-109712720D01*
X66359540Y-109712720D01*
X65456484Y-109942873D01*
X64710245Y-110501091D01*
X64234431Y-111302390D01*
X64154054Y-111599767D01*
X60710000Y-111599767D01*
X60710000Y-107000000D01*
X70588465Y-107000000D01*
X70699846Y-107559948D01*
X71017031Y-108034649D01*
X71345412Y-108254066D01*
X70947108Y-108574393D01*
X70677219Y-109067503D01*
X70659677Y-109150305D01*
X70781664Y-109372360D01*
X72374260Y-109372360D01*
X72374260Y-109352360D01*
X72628260Y-109352360D01*
X72628260Y-109372360D01*
X74220856Y-109372360D01*
X74342843Y-109150305D01*
X74325301Y-109067503D01*
X74055412Y-108574393D01*
X73657108Y-108254066D01*
X73985489Y-108034649D01*
X74302674Y-107559948D01*
X74414055Y-107000000D01*
X74302674Y-106440052D01*
X73985489Y-105965351D01*
X73510788Y-105648166D01*
X73092183Y-105564900D01*
X71910337Y-105564900D01*
X71491732Y-105648166D01*
X71017031Y-105965351D01*
X70699846Y-106440052D01*
X70588465Y-107000000D01*
X60710000Y-107000000D01*
X60710000Y-104555431D01*
X82765000Y-104555431D01*
X82765000Y-105444569D01*
X83105259Y-106266026D01*
X83733974Y-106894741D01*
X84555431Y-107235000D01*
X85444569Y-107235000D01*
X86266026Y-106894741D01*
X86894741Y-106266026D01*
X87112628Y-105740000D01*
X94335908Y-105740000D01*
X94451161Y-106319418D01*
X94779375Y-106810625D01*
X95077761Y-107010000D01*
X94779375Y-107209375D01*
X94451161Y-107700582D01*
X94335908Y-108280000D01*
X94451161Y-108859418D01*
X94779375Y-109350625D01*
X95270582Y-109678839D01*
X95703744Y-109765000D01*
X95996256Y-109765000D01*
X96429418Y-109678839D01*
X96920625Y-109350625D01*
X97248839Y-108859418D01*
X97364092Y-108280000D01*
X97248839Y-107700582D01*
X96920625Y-107209375D01*
X96622239Y-107010000D01*
X96920625Y-106810625D01*
X97248839Y-106319418D01*
X97364092Y-105740000D01*
X97248839Y-105160582D01*
X96920625Y-104669375D01*
X96902381Y-104657184D01*
X96947765Y-104648157D01*
X97157809Y-104507809D01*
X97298157Y-104297765D01*
X97347440Y-104050000D01*
X97347440Y-102350000D01*
X97298157Y-102102235D01*
X97157809Y-101892191D01*
X96947765Y-101751843D01*
X96700000Y-101702560D01*
X95000000Y-101702560D01*
X94752235Y-101751843D01*
X94542191Y-101892191D01*
X94401843Y-102102235D01*
X94352560Y-102350000D01*
X94352560Y-104050000D01*
X94401843Y-104297765D01*
X94542191Y-104507809D01*
X94752235Y-104648157D01*
X94797619Y-104657184D01*
X94779375Y-104669375D01*
X94451161Y-105160582D01*
X94335908Y-105740000D01*
X87112628Y-105740000D01*
X87235000Y-105444569D01*
X87235000Y-104555431D01*
X86894741Y-103733974D01*
X86266026Y-103105259D01*
X85444569Y-102765000D01*
X84555431Y-102765000D01*
X83733974Y-103105259D01*
X83105259Y-103733974D01*
X82765000Y-104555431D01*
X60710000Y-104555431D01*
X60710000Y-102397693D01*
X64154054Y-102397693D01*
X64234431Y-102695070D01*
X64710245Y-103496369D01*
X65456484Y-104054587D01*
X66359540Y-104284740D01*
X68109600Y-104284740D01*
X68109600Y-102026680D01*
X68363600Y-102026680D01*
X68363600Y-104284740D01*
X70113660Y-104284740D01*
X71016716Y-104054587D01*
X71762955Y-103496369D01*
X72238769Y-102695070D01*
X72319146Y-102397693D01*
X72209345Y-102026680D01*
X68363600Y-102026680D01*
X68109600Y-102026680D01*
X64263855Y-102026680D01*
X64154054Y-102397693D01*
X60710000Y-102397693D01*
X60710000Y-101401667D01*
X64154054Y-101401667D01*
X64263855Y-101772680D01*
X68109600Y-101772680D01*
X68109600Y-99514620D01*
X68363600Y-99514620D01*
X68363600Y-101772680D01*
X72209345Y-101772680D01*
X72319146Y-101401667D01*
X72238769Y-101104290D01*
X71762955Y-100302991D01*
X71016716Y-99744773D01*
X70113660Y-99514620D01*
X68363600Y-99514620D01*
X68109600Y-99514620D01*
X66359540Y-99514620D01*
X65456484Y-99744773D01*
X64710245Y-100302991D01*
X64234431Y-101104290D01*
X64154054Y-101401667D01*
X60710000Y-101401667D01*
X60710000Y-98520000D01*
X88636887Y-98520000D01*
X88748260Y-99079909D01*
X89065423Y-99554577D01*
X89540091Y-99871740D01*
X89958667Y-99955000D01*
X90241333Y-99955000D01*
X90659909Y-99871740D01*
X91134577Y-99554577D01*
X91451740Y-99079909D01*
X91563113Y-98520000D01*
X91451740Y-97960091D01*
X91134577Y-97485423D01*
X90659909Y-97168260D01*
X90241333Y-97085000D01*
X89958667Y-97085000D01*
X89540091Y-97168260D01*
X89065423Y-97485423D01*
X88748260Y-97960091D01*
X88636887Y-98520000D01*
X60710000Y-98520000D01*
X60710000Y-77000000D01*
X65226887Y-77000000D01*
X65338260Y-77559909D01*
X65655423Y-78034577D01*
X66130091Y-78351740D01*
X66548667Y-78435000D01*
X66831333Y-78435000D01*
X67249909Y-78351740D01*
X67724577Y-78034577D01*
X67960000Y-77682242D01*
X68195423Y-78034577D01*
X68670091Y-78351740D01*
X69088667Y-78435000D01*
X69371333Y-78435000D01*
X69789909Y-78351740D01*
X70264577Y-78034577D01*
X70500000Y-77682242D01*
X70735423Y-78034577D01*
X71210091Y-78351740D01*
X71628667Y-78435000D01*
X71911333Y-78435000D01*
X72329909Y-78351740D01*
X72804577Y-78034577D01*
X73040000Y-77682242D01*
X73275423Y-78034577D01*
X73750091Y-78351740D01*
X74168667Y-78435000D01*
X74451333Y-78435000D01*
X74869909Y-78351740D01*
X75344577Y-78034577D01*
X75580000Y-77682242D01*
X75815423Y-78034577D01*
X76290091Y-78351740D01*
X76708667Y-78435000D01*
X76991333Y-78435000D01*
X77409909Y-78351740D01*
X77884577Y-78034577D01*
X78120000Y-77682242D01*
X78355423Y-78034577D01*
X78830091Y-78351740D01*
X79248667Y-78435000D01*
X79531333Y-78435000D01*
X79949909Y-78351740D01*
X80424577Y-78034577D01*
X80660000Y-77682242D01*
X80895423Y-78034577D01*
X81172713Y-78219856D01*
X81214097Y-78427907D01*
X81382072Y-78679299D01*
X81445528Y-78721699D01*
X83458301Y-80734473D01*
X83500701Y-80797929D01*
X83752093Y-80965904D01*
X83973778Y-81010000D01*
X83973782Y-81010000D01*
X84048629Y-81024888D01*
X84123476Y-81010000D01*
X107665198Y-81010000D01*
X104765528Y-83909671D01*
X104702072Y-83952071D01*
X104659672Y-84015527D01*
X104659671Y-84015528D01*
X104534097Y-84203463D01*
X104475112Y-84500000D01*
X104490001Y-84574852D01*
X104490000Y-93611956D01*
X104215423Y-93795423D01*
X104030000Y-94072928D01*
X103844577Y-93795423D01*
X103369909Y-93478260D01*
X103069249Y-93418455D01*
X103284577Y-93274577D01*
X103601740Y-92799909D01*
X103713113Y-92240000D01*
X103601740Y-91680091D01*
X103284577Y-91205423D01*
X102809909Y-90888260D01*
X102391333Y-90805000D01*
X102108667Y-90805000D01*
X101690091Y-90888260D01*
X101215423Y-91205423D01*
X100959053Y-91589108D01*
X100862389Y-91384866D01*
X100447423Y-91008959D01*
X100059039Y-90848096D01*
X99837000Y-90970085D01*
X99837000Y-92113000D01*
X99857000Y-92113000D01*
X99857000Y-92367000D01*
X99837000Y-92367000D01*
X99837000Y-92387000D01*
X99583000Y-92387000D01*
X99583000Y-92367000D01*
X99563000Y-92367000D01*
X99563000Y-92113000D01*
X99583000Y-92113000D01*
X99583000Y-90970085D01*
X99360961Y-90848096D01*
X98972577Y-91008959D01*
X98557611Y-91384866D01*
X98460947Y-91589108D01*
X98204577Y-91205423D01*
X97729909Y-90888260D01*
X97311333Y-90805000D01*
X97028667Y-90805000D01*
X96610091Y-90888260D01*
X96135423Y-91205423D01*
X95900000Y-91557758D01*
X95664577Y-91205423D01*
X95189909Y-90888260D01*
X94771333Y-90805000D01*
X94488667Y-90805000D01*
X94070091Y-90888260D01*
X93595423Y-91205423D01*
X93360000Y-91557758D01*
X93124577Y-91205423D01*
X92649909Y-90888260D01*
X92231333Y-90805000D01*
X91948667Y-90805000D01*
X91530091Y-90888260D01*
X91055423Y-91205423D01*
X90820000Y-91557758D01*
X90584577Y-91205423D01*
X90109909Y-90888260D01*
X89691333Y-90805000D01*
X89408667Y-90805000D01*
X88990091Y-90888260D01*
X88515423Y-91205423D01*
X88280000Y-91557758D01*
X88044577Y-91205423D01*
X87569909Y-90888260D01*
X87151333Y-90805000D01*
X86868667Y-90805000D01*
X86450091Y-90888260D01*
X85975423Y-91205423D01*
X85740000Y-91557758D01*
X85504577Y-91205423D01*
X85029909Y-90888260D01*
X84611333Y-90805000D01*
X84328667Y-90805000D01*
X83910091Y-90888260D01*
X83435423Y-91205423D01*
X83200000Y-91557758D01*
X82964577Y-91205423D01*
X82489909Y-90888260D01*
X82071333Y-90805000D01*
X81788667Y-90805000D01*
X81370091Y-90888260D01*
X80895423Y-91205423D01*
X80660000Y-91557758D01*
X80424577Y-91205423D01*
X79949909Y-90888260D01*
X79531333Y-90805000D01*
X79248667Y-90805000D01*
X78830091Y-90888260D01*
X78355423Y-91205423D01*
X78120000Y-91557758D01*
X77884577Y-91205423D01*
X77409909Y-90888260D01*
X76991333Y-90805000D01*
X76708667Y-90805000D01*
X76290091Y-90888260D01*
X75815423Y-91205423D01*
X75580000Y-91557758D01*
X75344577Y-91205423D01*
X74869909Y-90888260D01*
X74451333Y-90805000D01*
X74168667Y-90805000D01*
X73750091Y-90888260D01*
X73275423Y-91205423D01*
X73040000Y-91557758D01*
X72804577Y-91205423D01*
X72329909Y-90888260D01*
X71911333Y-90805000D01*
X71628667Y-90805000D01*
X71210091Y-90888260D01*
X70735423Y-91205423D01*
X70500000Y-91557758D01*
X70264577Y-91205423D01*
X69789909Y-90888260D01*
X69371333Y-90805000D01*
X69088667Y-90805000D01*
X68670091Y-90888260D01*
X68195423Y-91205423D01*
X67960000Y-91557758D01*
X67724577Y-91205423D01*
X67249909Y-90888260D01*
X66831333Y-90805000D01*
X66548667Y-90805000D01*
X66130091Y-90888260D01*
X65655423Y-91205423D01*
X65338260Y-91680091D01*
X65226887Y-92240000D01*
X65338260Y-92799909D01*
X65655423Y-93274577D01*
X66130091Y-93591740D01*
X66430751Y-93651545D01*
X66215423Y-93795423D01*
X65898260Y-94270091D01*
X65786887Y-94830000D01*
X65898260Y-95389909D01*
X66215423Y-95864577D01*
X66690091Y-96181740D01*
X67108667Y-96265000D01*
X67391333Y-96265000D01*
X67809909Y-96181740D01*
X68284577Y-95864577D01*
X68520000Y-95512242D01*
X68755423Y-95864577D01*
X69230091Y-96181740D01*
X69648667Y-96265000D01*
X69931333Y-96265000D01*
X70349909Y-96181740D01*
X70824577Y-95864577D01*
X71060000Y-95512242D01*
X71295423Y-95864577D01*
X71770091Y-96181740D01*
X72188667Y-96265000D01*
X72471333Y-96265000D01*
X72889909Y-96181740D01*
X73364577Y-95864577D01*
X73620947Y-95480892D01*
X73717611Y-95685134D01*
X74132577Y-96061041D01*
X74520961Y-96221904D01*
X74743000Y-96099915D01*
X74743000Y-94957000D01*
X74723000Y-94957000D01*
X74723000Y-94703000D01*
X74743000Y-94703000D01*
X74743000Y-94683000D01*
X74997000Y-94683000D01*
X74997000Y-94703000D01*
X75017000Y-94703000D01*
X75017000Y-94957000D01*
X74997000Y-94957000D01*
X74997000Y-96099915D01*
X75219039Y-96221904D01*
X75607423Y-96061041D01*
X76022389Y-95685134D01*
X76119053Y-95480892D01*
X76375423Y-95864577D01*
X76850091Y-96181740D01*
X77268667Y-96265000D01*
X77551333Y-96265000D01*
X77969909Y-96181740D01*
X78444577Y-95864577D01*
X78680000Y-95512242D01*
X78915423Y-95864577D01*
X79390091Y-96181740D01*
X79808667Y-96265000D01*
X80091333Y-96265000D01*
X80509909Y-96181740D01*
X80984577Y-95864577D01*
X81220000Y-95512242D01*
X81455423Y-95864577D01*
X81930091Y-96181740D01*
X82348667Y-96265000D01*
X82631333Y-96265000D01*
X83049909Y-96181740D01*
X83524577Y-95864577D01*
X83760000Y-95512242D01*
X83995423Y-95864577D01*
X84470091Y-96181740D01*
X84888667Y-96265000D01*
X85171333Y-96265000D01*
X85589909Y-96181740D01*
X86064577Y-95864577D01*
X86300000Y-95512242D01*
X86535423Y-95864577D01*
X87010091Y-96181740D01*
X87428667Y-96265000D01*
X87711333Y-96265000D01*
X88129909Y-96181740D01*
X88604577Y-95864577D01*
X88840000Y-95512242D01*
X89075423Y-95864577D01*
X89550091Y-96181740D01*
X89968667Y-96265000D01*
X90251333Y-96265000D01*
X90669909Y-96181740D01*
X91144577Y-95864577D01*
X91380000Y-95512242D01*
X91615423Y-95864577D01*
X92090091Y-96181740D01*
X92508667Y-96265000D01*
X92791333Y-96265000D01*
X93209909Y-96181740D01*
X93684577Y-95864577D01*
X93920000Y-95512242D01*
X94155423Y-95864577D01*
X94630091Y-96181740D01*
X95048667Y-96265000D01*
X95331333Y-96265000D01*
X95749909Y-96181740D01*
X96224577Y-95864577D01*
X96460000Y-95512242D01*
X96695423Y-95864577D01*
X97170091Y-96181740D01*
X97588667Y-96265000D01*
X97871333Y-96265000D01*
X98289909Y-96181740D01*
X98764577Y-95864577D01*
X99000000Y-95512242D01*
X99235423Y-95864577D01*
X99710091Y-96181740D01*
X100128667Y-96265000D01*
X100411333Y-96265000D01*
X100829909Y-96181740D01*
X101304577Y-95864577D01*
X101540000Y-95512242D01*
X101775423Y-95864577D01*
X102250091Y-96181740D01*
X102668667Y-96265000D01*
X102951333Y-96265000D01*
X103369909Y-96181740D01*
X103844577Y-95864577D01*
X104030000Y-95587072D01*
X104215423Y-95864577D01*
X104690091Y-96181740D01*
X105108667Y-96265000D01*
X105391333Y-96265000D01*
X105809909Y-96181740D01*
X106284577Y-95864577D01*
X106601740Y-95389909D01*
X106713113Y-94830000D01*
X106601740Y-94270091D01*
X106284577Y-93795423D01*
X106010000Y-93611957D01*
X106010000Y-88586858D01*
X117491000Y-88586858D01*
X117491000Y-89193142D01*
X117723015Y-89753277D01*
X118151723Y-90181985D01*
X118711858Y-90414000D01*
X119318142Y-90414000D01*
X119878277Y-90181985D01*
X120306985Y-89753277D01*
X120539000Y-89193142D01*
X120539000Y-88586858D01*
X120306985Y-88026723D01*
X119878277Y-87598015D01*
X119858425Y-87589792D01*
X119907591Y-87442196D01*
X119015000Y-86549605D01*
X118122409Y-87442196D01*
X118171575Y-87589792D01*
X118151723Y-87598015D01*
X117723015Y-88026723D01*
X117491000Y-88586858D01*
X106010000Y-88586858D01*
X106010000Y-86131965D01*
X117479484Y-86131965D01*
X117505277Y-86737700D01*
X117687461Y-87177533D01*
X117942804Y-87262591D01*
X118835395Y-86370000D01*
X119194605Y-86370000D01*
X120087196Y-87262591D01*
X120342539Y-87177533D01*
X120550516Y-86608035D01*
X120524723Y-86002300D01*
X120342539Y-85562467D01*
X120087196Y-85477409D01*
X119194605Y-86370000D01*
X118835395Y-86370000D01*
X117942804Y-85477409D01*
X117687461Y-85562467D01*
X117479484Y-86131965D01*
X106010000Y-86131965D01*
X106010000Y-84814801D01*
X109984473Y-80840329D01*
X110047929Y-80797929D01*
X110090331Y-80734470D01*
X113864802Y-76960000D01*
X117680236Y-76960000D01*
X117723015Y-77063277D01*
X118129738Y-77470000D01*
X117723015Y-77876723D01*
X117491000Y-78436858D01*
X117491000Y-79043142D01*
X117723015Y-79603277D01*
X118129738Y-80010000D01*
X117723015Y-80416723D01*
X117491000Y-80976858D01*
X117491000Y-81583142D01*
X117723015Y-82143277D01*
X118129738Y-82550000D01*
X117723015Y-82956723D01*
X117491000Y-83516858D01*
X117491000Y-84123142D01*
X117723015Y-84683277D01*
X118151723Y-85111985D01*
X118180357Y-85123845D01*
X118122409Y-85297804D01*
X119015000Y-86190395D01*
X119907591Y-85297804D01*
X119849643Y-85123845D01*
X119878277Y-85111985D01*
X120306985Y-84683277D01*
X120539000Y-84123142D01*
X120539000Y-83516858D01*
X120306985Y-82956723D01*
X119900262Y-82550000D01*
X120306985Y-82143277D01*
X120539000Y-81583142D01*
X120539000Y-80976858D01*
X120306985Y-80416723D01*
X119900262Y-80010000D01*
X120306985Y-79603277D01*
X120539000Y-79043142D01*
X120539000Y-78436858D01*
X120306985Y-77876723D01*
X119900262Y-77470000D01*
X120306985Y-77063277D01*
X120539000Y-76503142D01*
X120539000Y-75896858D01*
X120306985Y-75336723D01*
X119878277Y-74908015D01*
X119318142Y-74676000D01*
X118711858Y-74676000D01*
X118151723Y-74908015D01*
X117723015Y-75336723D01*
X117680236Y-75440000D01*
X113624847Y-75440000D01*
X113550000Y-75425112D01*
X113475153Y-75440000D01*
X113475148Y-75440000D01*
X113253463Y-75484096D01*
X113002071Y-75652071D01*
X112959671Y-75715527D01*
X109185199Y-79490000D01*
X84363432Y-79490000D01*
X82930667Y-78057235D01*
X82964577Y-78034577D01*
X83200000Y-77682242D01*
X83435423Y-78034577D01*
X83910091Y-78351740D01*
X84328667Y-78435000D01*
X84611333Y-78435000D01*
X85029909Y-78351740D01*
X85504577Y-78034577D01*
X85740000Y-77682242D01*
X85975423Y-78034577D01*
X86450091Y-78351740D01*
X86868667Y-78435000D01*
X87151333Y-78435000D01*
X87569909Y-78351740D01*
X88044577Y-78034577D01*
X88280000Y-77682242D01*
X88515423Y-78034577D01*
X88990091Y-78351740D01*
X89408667Y-78435000D01*
X89691333Y-78435000D01*
X90109909Y-78351740D01*
X90584577Y-78034577D01*
X90820000Y-77682242D01*
X91055423Y-78034577D01*
X91530091Y-78351740D01*
X91948667Y-78435000D01*
X92231333Y-78435000D01*
X92649909Y-78351740D01*
X93124577Y-78034577D01*
X93380947Y-77650892D01*
X93477611Y-77855134D01*
X93892577Y-78231041D01*
X94280961Y-78391904D01*
X94503000Y-78269915D01*
X94503000Y-77127000D01*
X94483000Y-77127000D01*
X94483000Y-76873000D01*
X94503000Y-76873000D01*
X94503000Y-76853000D01*
X94757000Y-76853000D01*
X94757000Y-76873000D01*
X94777000Y-76873000D01*
X94777000Y-77127000D01*
X94757000Y-77127000D01*
X94757000Y-78269915D01*
X94979039Y-78391904D01*
X95367423Y-78231041D01*
X95782389Y-77855134D01*
X95879053Y-77650892D01*
X96135423Y-78034577D01*
X96610091Y-78351740D01*
X97028667Y-78435000D01*
X97311333Y-78435000D01*
X97729909Y-78351740D01*
X98204577Y-78034577D01*
X98440000Y-77682242D01*
X98675423Y-78034577D01*
X99150091Y-78351740D01*
X99568667Y-78435000D01*
X99851333Y-78435000D01*
X100269909Y-78351740D01*
X100744577Y-78034577D01*
X100825215Y-77913894D01*
X100851843Y-78047765D01*
X100992191Y-78257809D01*
X101202235Y-78398157D01*
X101450000Y-78447440D01*
X103050000Y-78447440D01*
X103297765Y-78398157D01*
X103507809Y-78257809D01*
X103648157Y-78047765D01*
X103697440Y-77800000D01*
X103697440Y-76200000D01*
X103648157Y-75952235D01*
X103515850Y-75754225D01*
X103844577Y-75534577D01*
X103848155Y-75529223D01*
X103851843Y-75547765D01*
X103992191Y-75757809D01*
X104202235Y-75898157D01*
X104450000Y-75947440D01*
X106050000Y-75947440D01*
X106297765Y-75898157D01*
X106507809Y-75757809D01*
X106648157Y-75547765D01*
X106697440Y-75300000D01*
X106697440Y-73700000D01*
X106648157Y-73452235D01*
X106507809Y-73242191D01*
X106297765Y-73101843D01*
X106050000Y-73052560D01*
X104450000Y-73052560D01*
X104202235Y-73101843D01*
X103992191Y-73242191D01*
X103851843Y-73452235D01*
X103848155Y-73470777D01*
X103844577Y-73465423D01*
X103369909Y-73148260D01*
X102951333Y-73065000D01*
X102668667Y-73065000D01*
X102250091Y-73148260D01*
X101775423Y-73465423D01*
X101540000Y-73817758D01*
X101304577Y-73465423D01*
X100829909Y-73148260D01*
X100411333Y-73065000D01*
X100128667Y-73065000D01*
X99710091Y-73148260D01*
X99235423Y-73465423D01*
X99000000Y-73817758D01*
X98764577Y-73465423D01*
X98289909Y-73148260D01*
X97871333Y-73065000D01*
X97588667Y-73065000D01*
X97170091Y-73148260D01*
X96695423Y-73465423D01*
X96460000Y-73817758D01*
X96224577Y-73465423D01*
X95749909Y-73148260D01*
X95331333Y-73065000D01*
X95048667Y-73065000D01*
X94630091Y-73148260D01*
X94155423Y-73465423D01*
X93920000Y-73817758D01*
X93684577Y-73465423D01*
X93209909Y-73148260D01*
X92791333Y-73065000D01*
X92508667Y-73065000D01*
X92090091Y-73148260D01*
X91615423Y-73465423D01*
X91380000Y-73817758D01*
X91144577Y-73465423D01*
X90669909Y-73148260D01*
X90251333Y-73065000D01*
X89968667Y-73065000D01*
X89550091Y-73148260D01*
X89075423Y-73465423D01*
X88840000Y-73817758D01*
X88604577Y-73465423D01*
X88129909Y-73148260D01*
X87711333Y-73065000D01*
X87428667Y-73065000D01*
X87010091Y-73148260D01*
X86535423Y-73465423D01*
X86300000Y-73817758D01*
X86064577Y-73465423D01*
X85589909Y-73148260D01*
X85171333Y-73065000D01*
X84888667Y-73065000D01*
X84470091Y-73148260D01*
X83995423Y-73465423D01*
X83760000Y-73817758D01*
X83524577Y-73465423D01*
X83049909Y-73148260D01*
X82631333Y-73065000D01*
X82348667Y-73065000D01*
X81930091Y-73148260D01*
X81455423Y-73465423D01*
X81220000Y-73817758D01*
X80984577Y-73465423D01*
X80509909Y-73148260D01*
X80091333Y-73065000D01*
X79808667Y-73065000D01*
X79390091Y-73148260D01*
X78915423Y-73465423D01*
X78680000Y-73817758D01*
X78444577Y-73465423D01*
X77969909Y-73148260D01*
X77551333Y-73065000D01*
X77268667Y-73065000D01*
X76850091Y-73148260D01*
X76375423Y-73465423D01*
X76058260Y-73940091D01*
X75946887Y-74500000D01*
X76058260Y-75059909D01*
X76375423Y-75534577D01*
X76486956Y-75609101D01*
X76290091Y-75648260D01*
X75815423Y-75965423D01*
X75580000Y-76317758D01*
X75344577Y-75965423D01*
X74869909Y-75648260D01*
X74451333Y-75565000D01*
X74168667Y-75565000D01*
X73750091Y-75648260D01*
X73275423Y-75965423D01*
X73040000Y-76317758D01*
X72804577Y-75965423D01*
X72329909Y-75648260D01*
X71911333Y-75565000D01*
X71628667Y-75565000D01*
X71210091Y-75648260D01*
X70735423Y-75965423D01*
X70500000Y-76317758D01*
X70264577Y-75965423D01*
X69789909Y-75648260D01*
X69371333Y-75565000D01*
X69088667Y-75565000D01*
X68670091Y-75648260D01*
X68195423Y-75965423D01*
X67960000Y-76317758D01*
X67724577Y-75965423D01*
X67249909Y-75648260D01*
X66831333Y-75565000D01*
X66548667Y-75565000D01*
X66130091Y-75648260D01*
X65655423Y-75965423D01*
X65338260Y-76440091D01*
X65226887Y-77000000D01*
X60710000Y-77000000D01*
X60710000Y-67845793D01*
X64154054Y-67845793D01*
X64234431Y-68143170D01*
X64710245Y-68944469D01*
X65456484Y-69502687D01*
X66359540Y-69732840D01*
X68109600Y-69732840D01*
X68109600Y-67474780D01*
X68363600Y-67474780D01*
X68363600Y-69732840D01*
X70113660Y-69732840D01*
X71016716Y-69502687D01*
X71762955Y-68944469D01*
X72238769Y-68143170D01*
X72319146Y-67845793D01*
X72258242Y-67640000D01*
X89135908Y-67640000D01*
X89251161Y-68219418D01*
X89579375Y-68710625D01*
X89877761Y-68910000D01*
X89579375Y-69109375D01*
X89251161Y-69600582D01*
X89135908Y-70180000D01*
X89251161Y-70759418D01*
X89579375Y-71250625D01*
X90070582Y-71578839D01*
X90503744Y-71665000D01*
X90796256Y-71665000D01*
X91229418Y-71578839D01*
X91720625Y-71250625D01*
X92048839Y-70759418D01*
X92080549Y-70600000D01*
X93006887Y-70600000D01*
X93118260Y-71159909D01*
X93435423Y-71634577D01*
X93910091Y-71951740D01*
X94328667Y-72035000D01*
X94611333Y-72035000D01*
X95029909Y-71951740D01*
X95504577Y-71634577D01*
X95821740Y-71159909D01*
X95933113Y-70600000D01*
X95876336Y-70314561D01*
X105215000Y-70314561D01*
X105215000Y-70885439D01*
X105433466Y-71412862D01*
X105837138Y-71816534D01*
X106364561Y-72035000D01*
X106935439Y-72035000D01*
X107462862Y-71816534D01*
X107866534Y-71412862D01*
X108085000Y-70885439D01*
X108085000Y-70314561D01*
X107866534Y-69787138D01*
X107462862Y-69383466D01*
X106935439Y-69165000D01*
X106364561Y-69165000D01*
X105837138Y-69383466D01*
X105433466Y-69787138D01*
X105215000Y-70314561D01*
X95876336Y-70314561D01*
X95821740Y-70040091D01*
X95504577Y-69565423D01*
X95029909Y-69248260D01*
X94611333Y-69165000D01*
X94328667Y-69165000D01*
X93910091Y-69248260D01*
X93435423Y-69565423D01*
X93118260Y-70040091D01*
X93006887Y-70600000D01*
X92080549Y-70600000D01*
X92164092Y-70180000D01*
X92048839Y-69600582D01*
X91720625Y-69109375D01*
X91422239Y-68910000D01*
X91720625Y-68710625D01*
X92048839Y-68219418D01*
X92164092Y-67640000D01*
X92048839Y-67060582D01*
X91720625Y-66569375D01*
X91702381Y-66557184D01*
X91747765Y-66548157D01*
X91957809Y-66407809D01*
X92098157Y-66197765D01*
X92147440Y-65950000D01*
X92147440Y-65300000D01*
X92906887Y-65300000D01*
X93018260Y-65859909D01*
X93335423Y-66334577D01*
X93810091Y-66651740D01*
X94228667Y-66735000D01*
X94511333Y-66735000D01*
X94929909Y-66651740D01*
X95404577Y-66334577D01*
X95721740Y-65859909D01*
X95833113Y-65300000D01*
X95776336Y-65014561D01*
X105115000Y-65014561D01*
X105115000Y-65585439D01*
X105333466Y-66112862D01*
X105737138Y-66516534D01*
X106264561Y-66735000D01*
X106835439Y-66735000D01*
X107362862Y-66516534D01*
X107766534Y-66112862D01*
X107985000Y-65585439D01*
X107985000Y-65014561D01*
X107890224Y-64785750D01*
X109415000Y-64785750D01*
X109415000Y-65376310D01*
X109511673Y-65609699D01*
X109690302Y-65788327D01*
X109923691Y-65885000D01*
X109996313Y-65885000D01*
X109625853Y-66255460D01*
X109415000Y-66764506D01*
X109415000Y-67315494D01*
X109625853Y-67824540D01*
X110015460Y-68214147D01*
X110246870Y-68310000D01*
X110015460Y-68405853D01*
X109625853Y-68795460D01*
X109415000Y-69304506D01*
X109415000Y-69855494D01*
X109625853Y-70364540D01*
X110015460Y-70754147D01*
X110524506Y-70965000D01*
X111075494Y-70965000D01*
X111584540Y-70754147D01*
X111974147Y-70364540D01*
X112185000Y-69855494D01*
X112185000Y-69304506D01*
X111974147Y-68795460D01*
X111584540Y-68405853D01*
X111353130Y-68310000D01*
X111584540Y-68214147D01*
X111974147Y-67824540D01*
X112185000Y-67315494D01*
X112185000Y-66764506D01*
X111974147Y-66255460D01*
X111603687Y-65885000D01*
X111676309Y-65885000D01*
X111909698Y-65788327D01*
X112088327Y-65609699D01*
X112185000Y-65376310D01*
X112185000Y-64785750D01*
X112026250Y-64627000D01*
X110927000Y-64627000D01*
X110927000Y-64647000D01*
X110673000Y-64647000D01*
X110673000Y-64627000D01*
X109573750Y-64627000D01*
X109415000Y-64785750D01*
X107890224Y-64785750D01*
X107766534Y-64487138D01*
X107362862Y-64083466D01*
X106835439Y-63865000D01*
X106264561Y-63865000D01*
X105737138Y-64083466D01*
X105333466Y-64487138D01*
X105115000Y-65014561D01*
X95776336Y-65014561D01*
X95721740Y-64740091D01*
X95404577Y-64265423D01*
X94929909Y-63948260D01*
X94511333Y-63865000D01*
X94228667Y-63865000D01*
X93810091Y-63948260D01*
X93335423Y-64265423D01*
X93018260Y-64740091D01*
X92906887Y-65300000D01*
X92147440Y-65300000D01*
X92147440Y-64250000D01*
X92098157Y-64002235D01*
X91957809Y-63792191D01*
X91747765Y-63651843D01*
X91606229Y-63623690D01*
X109415000Y-63623690D01*
X109415000Y-64214250D01*
X109573750Y-64373000D01*
X110673000Y-64373000D01*
X110673000Y-63273750D01*
X110927000Y-63273750D01*
X110927000Y-64373000D01*
X112026250Y-64373000D01*
X112185000Y-64214250D01*
X112185000Y-63623690D01*
X112088327Y-63390301D01*
X111909698Y-63211673D01*
X111676309Y-63115000D01*
X111085750Y-63115000D01*
X110927000Y-63273750D01*
X110673000Y-63273750D01*
X110514250Y-63115000D01*
X109923691Y-63115000D01*
X109690302Y-63211673D01*
X109511673Y-63390301D01*
X109415000Y-63623690D01*
X91606229Y-63623690D01*
X91500000Y-63602560D01*
X89800000Y-63602560D01*
X89552235Y-63651843D01*
X89342191Y-63792191D01*
X89201843Y-64002235D01*
X89152560Y-64250000D01*
X89152560Y-65950000D01*
X89201843Y-66197765D01*
X89342191Y-66407809D01*
X89552235Y-66548157D01*
X89597619Y-66557184D01*
X89579375Y-66569375D01*
X89251161Y-67060582D01*
X89135908Y-67640000D01*
X72258242Y-67640000D01*
X72209345Y-67474780D01*
X68363600Y-67474780D01*
X68109600Y-67474780D01*
X64263855Y-67474780D01*
X64154054Y-67845793D01*
X60710000Y-67845793D01*
X60710000Y-66849767D01*
X64154054Y-66849767D01*
X64263855Y-67220780D01*
X68109600Y-67220780D01*
X68109600Y-64962720D01*
X68363600Y-64962720D01*
X68363600Y-67220780D01*
X72209345Y-67220780D01*
X72319146Y-66849767D01*
X72238769Y-66552390D01*
X72020291Y-66184460D01*
X72374260Y-66184460D01*
X72374260Y-64876360D01*
X72628260Y-64876360D01*
X72628260Y-66184460D01*
X73077840Y-66184460D01*
X73617362Y-66026619D01*
X74055412Y-65674327D01*
X74325301Y-65181217D01*
X74342843Y-65098415D01*
X74220856Y-64876360D01*
X72628260Y-64876360D01*
X72374260Y-64876360D01*
X70781664Y-64876360D01*
X70659677Y-65098415D01*
X70660453Y-65102076D01*
X70113660Y-64962720D01*
X68363600Y-64962720D01*
X68109600Y-64962720D01*
X66359540Y-64962720D01*
X65456484Y-65192873D01*
X64710245Y-65751091D01*
X64234431Y-66552390D01*
X64154054Y-66849767D01*
X60710000Y-66849767D01*
X60710000Y-62250000D01*
X70588465Y-62250000D01*
X70699846Y-62809948D01*
X71017031Y-63284649D01*
X71345412Y-63504066D01*
X70947108Y-63824393D01*
X70677219Y-64317503D01*
X70659677Y-64400305D01*
X70781664Y-64622360D01*
X72374260Y-64622360D01*
X72374260Y-64602360D01*
X72628260Y-64602360D01*
X72628260Y-64622360D01*
X74220856Y-64622360D01*
X74257623Y-64555431D01*
X82765000Y-64555431D01*
X82765000Y-65444569D01*
X83105259Y-66266026D01*
X83733974Y-66894741D01*
X84555431Y-67235000D01*
X85444569Y-67235000D01*
X86266026Y-66894741D01*
X86894741Y-66266026D01*
X87235000Y-65444569D01*
X87235000Y-64555431D01*
X86894741Y-63733974D01*
X86266026Y-63105259D01*
X85444569Y-62765000D01*
X84555431Y-62765000D01*
X83733974Y-63105259D01*
X83105259Y-63733974D01*
X82765000Y-64555431D01*
X74257623Y-64555431D01*
X74342843Y-64400305D01*
X74325301Y-64317503D01*
X74055412Y-63824393D01*
X73657108Y-63504066D01*
X73985489Y-63284649D01*
X74302674Y-62809948D01*
X74414055Y-62250000D01*
X74302674Y-61690052D01*
X73985489Y-61215351D01*
X73510788Y-60898166D01*
X73092183Y-60814900D01*
X71910337Y-60814900D01*
X71491732Y-60898166D01*
X71017031Y-61215351D01*
X70699846Y-61690052D01*
X70588465Y-62250000D01*
X60710000Y-62250000D01*
X60710000Y-57647693D01*
X64154054Y-57647693D01*
X64234431Y-57945070D01*
X64710245Y-58746369D01*
X65456484Y-59304587D01*
X66359540Y-59534740D01*
X68109600Y-59534740D01*
X68109600Y-57276680D01*
X68363600Y-57276680D01*
X68363600Y-59534740D01*
X70113660Y-59534740D01*
X71016716Y-59304587D01*
X71762955Y-58746369D01*
X72238769Y-57945070D01*
X72319146Y-57647693D01*
X72209345Y-57276680D01*
X68363600Y-57276680D01*
X68109600Y-57276680D01*
X64263855Y-57276680D01*
X64154054Y-57647693D01*
X60710000Y-57647693D01*
X60710000Y-56651667D01*
X64154054Y-56651667D01*
X64263855Y-57022680D01*
X68109600Y-57022680D01*
X68109600Y-54764620D01*
X68363600Y-54764620D01*
X68363600Y-57022680D01*
X72209345Y-57022680D01*
X72319146Y-56651667D01*
X72238769Y-56354290D01*
X71762955Y-55552991D01*
X71016716Y-54994773D01*
X70113660Y-54764620D01*
X68363600Y-54764620D01*
X68109600Y-54764620D01*
X66359540Y-54764620D01*
X65456484Y-54994773D01*
X64710245Y-55552991D01*
X64234431Y-56354290D01*
X64154054Y-56651667D01*
X60710000Y-56651667D01*
X60710000Y-48699642D01*
X67990000Y-48699642D01*
X67990000Y-49300358D01*
X68219884Y-49855346D01*
X68644654Y-50280116D01*
X69199642Y-50510000D01*
X69800358Y-50510000D01*
X70355346Y-50280116D01*
X70524496Y-50110966D01*
X70526843Y-50122765D01*
X70667191Y-50332809D01*
X70877235Y-50473157D01*
X71125000Y-50522440D01*
X71351518Y-50522440D01*
X71452072Y-50672929D01*
X71515528Y-50715329D01*
X76034670Y-55234472D01*
X76077071Y-55297929D01*
X76140527Y-55340329D01*
X76328462Y-55465904D01*
X76376605Y-55475480D01*
X76550148Y-55510000D01*
X76550152Y-55510000D01*
X76625000Y-55524888D01*
X76699848Y-55510000D01*
X104870199Y-55510000D01*
X122613778Y-73253581D01*
X122571000Y-73356858D01*
X122571000Y-73963142D01*
X122803015Y-74523277D01*
X123231723Y-74951985D01*
X123791858Y-75184000D01*
X124398142Y-75184000D01*
X124958277Y-74951985D01*
X125365000Y-74545262D01*
X125771723Y-74951985D01*
X126331858Y-75184000D01*
X126938142Y-75184000D01*
X127498277Y-74951985D01*
X127905000Y-74545262D01*
X128311723Y-74951985D01*
X128871858Y-75184000D01*
X129478142Y-75184000D01*
X130038277Y-74951985D01*
X130466985Y-74523277D01*
X130699000Y-73963142D01*
X130699000Y-73356858D01*
X130466985Y-72796723D01*
X130283117Y-72612855D01*
X130311765Y-72607157D01*
X130521809Y-72466809D01*
X130662157Y-72256765D01*
X130711440Y-72009000D01*
X130711440Y-70286242D01*
X130740000Y-70314802D01*
X130740001Y-70830149D01*
X130725112Y-70905000D01*
X130784097Y-71201537D01*
X130893441Y-71365181D01*
X130952072Y-71452929D01*
X131015528Y-71495329D01*
X132773779Y-73253581D01*
X132731000Y-73356858D01*
X132731000Y-73963142D01*
X132963015Y-74523277D01*
X133391723Y-74951985D01*
X133951858Y-75184000D01*
X134558142Y-75184000D01*
X135118277Y-74951985D01*
X135525000Y-74545262D01*
X135931723Y-74951985D01*
X136491858Y-75184000D01*
X137098142Y-75184000D01*
X137658277Y-74951985D01*
X138065000Y-74545262D01*
X138471723Y-74951985D01*
X139031858Y-75184000D01*
X139638142Y-75184000D01*
X140198277Y-74951985D01*
X140626985Y-74523277D01*
X140859000Y-73963142D01*
X140859000Y-73356858D01*
X140816221Y-73253580D01*
X141734473Y-72335329D01*
X141797929Y-72292929D01*
X141875000Y-72177584D01*
X141891006Y-72201537D01*
X141952072Y-72292929D01*
X142015528Y-72335329D01*
X142933779Y-73253580D01*
X142891000Y-73356858D01*
X142891000Y-73963142D01*
X143123015Y-74523277D01*
X143551723Y-74951985D01*
X144111858Y-75184000D01*
X144718142Y-75184000D01*
X145278277Y-74951985D01*
X145685000Y-74545262D01*
X146091723Y-74951985D01*
X146651858Y-75184000D01*
X147258142Y-75184000D01*
X147818277Y-74951985D01*
X148225000Y-74545262D01*
X148631723Y-74951985D01*
X149191858Y-75184000D01*
X149798142Y-75184000D01*
X150358277Y-74951985D01*
X150786985Y-74523277D01*
X151019000Y-73963142D01*
X151019000Y-73356858D01*
X150976221Y-73253580D01*
X151734473Y-72495329D01*
X151797929Y-72452929D01*
X151947238Y-72229473D01*
X151965904Y-72201538D01*
X151982367Y-72118772D01*
X152010000Y-71979852D01*
X152010000Y-71979848D01*
X152024888Y-71905000D01*
X152010000Y-71830152D01*
X152010000Y-69314801D01*
X152484473Y-68840329D01*
X152547929Y-68797929D01*
X152601000Y-68718503D01*
X152601000Y-72371147D01*
X152586111Y-72445999D01*
X152645096Y-72742536D01*
X152695836Y-72818473D01*
X152813071Y-72993928D01*
X152876527Y-73036328D01*
X153093779Y-73253580D01*
X153051000Y-73356858D01*
X153051000Y-73963142D01*
X153283015Y-74523277D01*
X153711723Y-74951985D01*
X154271858Y-75184000D01*
X154878142Y-75184000D01*
X155438277Y-74951985D01*
X155845000Y-74545262D01*
X156251723Y-74951985D01*
X156811858Y-75184000D01*
X157418142Y-75184000D01*
X157978277Y-74951985D01*
X158385000Y-74545262D01*
X158791723Y-74951985D01*
X159351858Y-75184000D01*
X159958142Y-75184000D01*
X160518277Y-74951985D01*
X160946985Y-74523277D01*
X160990004Y-74419420D01*
X161208772Y-74375904D01*
X161460164Y-74207929D01*
X161502566Y-74144470D01*
X163234473Y-72412564D01*
X163297929Y-72370164D01*
X163465904Y-72118772D01*
X163510000Y-71897087D01*
X163510000Y-71897083D01*
X163524888Y-71822236D01*
X163510000Y-71747389D01*
X163510000Y-68064801D01*
X167019371Y-64555431D01*
X167765000Y-64555431D01*
X167765000Y-65444569D01*
X168105259Y-66266026D01*
X168733974Y-66894741D01*
X169555431Y-67235000D01*
X170444569Y-67235000D01*
X171266026Y-66894741D01*
X171894741Y-66266026D01*
X172235000Y-65444569D01*
X172235000Y-64555431D01*
X171894741Y-63733974D01*
X171266026Y-63105259D01*
X170444569Y-62765000D01*
X169555431Y-62765000D01*
X168733974Y-63105259D01*
X168105259Y-63733974D01*
X167765000Y-64555431D01*
X167019371Y-64555431D01*
X169064803Y-62510000D01*
X170300153Y-62510000D01*
X170375000Y-62524888D01*
X170449847Y-62510000D01*
X170449852Y-62510000D01*
X170671537Y-62465904D01*
X170922929Y-62297929D01*
X170965331Y-62234470D01*
X182484473Y-50715329D01*
X182547929Y-50672929D01*
X182648483Y-50522440D01*
X182875000Y-50522440D01*
X183122765Y-50473157D01*
X183332809Y-50332809D01*
X183473157Y-50122765D01*
X183522440Y-49875000D01*
X183522440Y-48125000D01*
X183473157Y-47877235D01*
X183332809Y-47667191D01*
X183122765Y-47526843D01*
X182875000Y-47477560D01*
X181125000Y-47477560D01*
X180877235Y-47526843D01*
X180667191Y-47667191D01*
X180526843Y-47877235D01*
X180524496Y-47889034D01*
X180355346Y-47719884D01*
X179800358Y-47490000D01*
X179199642Y-47490000D01*
X178644654Y-47719884D01*
X178219884Y-48144654D01*
X177990000Y-48699642D01*
X177990000Y-49300358D01*
X178219884Y-49855346D01*
X178644654Y-50280116D01*
X179199642Y-50510000D01*
X179800358Y-50510000D01*
X180355346Y-50280116D01*
X180524496Y-50110966D01*
X180526843Y-50122765D01*
X180667191Y-50332809D01*
X180697282Y-50352916D01*
X170060199Y-60990000D01*
X168824846Y-60990000D01*
X168749999Y-60975112D01*
X168675152Y-60990000D01*
X168675148Y-60990000D01*
X168453463Y-61034096D01*
X168453461Y-61034097D01*
X168453462Y-61034097D01*
X168265526Y-61159671D01*
X168265524Y-61159673D01*
X168202071Y-61202071D01*
X168159673Y-61265524D01*
X162265530Y-67159669D01*
X162202071Y-67202071D01*
X162034096Y-67453464D01*
X161990000Y-67675149D01*
X161990000Y-67675153D01*
X161975112Y-67750000D01*
X161990000Y-67824847D01*
X161990001Y-71507432D01*
X161149976Y-72347458D01*
X161191440Y-72139000D01*
X161191440Y-70361000D01*
X161142157Y-70113235D01*
X161001809Y-69903191D01*
X160791765Y-69762843D01*
X160544000Y-69713560D01*
X159200999Y-69713560D01*
X159200999Y-63998802D01*
X172484473Y-50715329D01*
X172547929Y-50672929D01*
X172648483Y-50522440D01*
X172875000Y-50522440D01*
X173122765Y-50473157D01*
X173332809Y-50332809D01*
X173473157Y-50122765D01*
X173522440Y-49875000D01*
X173522440Y-48125000D01*
X173473157Y-47877235D01*
X173332809Y-47667191D01*
X173122765Y-47526843D01*
X172875000Y-47477560D01*
X171125000Y-47477560D01*
X170877235Y-47526843D01*
X170667191Y-47667191D01*
X170526843Y-47877235D01*
X170524496Y-47889034D01*
X170355346Y-47719884D01*
X169800358Y-47490000D01*
X169199642Y-47490000D01*
X168644654Y-47719884D01*
X168219884Y-48144654D01*
X167990000Y-48699642D01*
X167990000Y-49300358D01*
X168219884Y-49855346D01*
X168644654Y-50280116D01*
X169199642Y-50510000D01*
X169800358Y-50510000D01*
X170355346Y-50280116D01*
X170524496Y-50110966D01*
X170526843Y-50122765D01*
X170667191Y-50332809D01*
X170697282Y-50352916D01*
X157956527Y-63093672D01*
X157893071Y-63136072D01*
X157850671Y-63199528D01*
X157850670Y-63199529D01*
X157725096Y-63387464D01*
X157666111Y-63684001D01*
X157681000Y-63758853D01*
X157680999Y-69704879D01*
X157418142Y-69596000D01*
X156811858Y-69596000D01*
X156251723Y-69828015D01*
X155845000Y-70234738D01*
X155438277Y-69828015D01*
X154878142Y-69596000D01*
X154271858Y-69596000D01*
X154120999Y-69658488D01*
X154120999Y-63203802D01*
X162484476Y-54840327D01*
X162547929Y-54797929D01*
X162590327Y-54734476D01*
X162590329Y-54734474D01*
X162715903Y-54546538D01*
X162715904Y-54546537D01*
X162760000Y-54324852D01*
X162760000Y-54324848D01*
X162774888Y-54250001D01*
X162760000Y-54175154D01*
X162760000Y-50522440D01*
X162875000Y-50522440D01*
X163122765Y-50473157D01*
X163332809Y-50332809D01*
X163473157Y-50122765D01*
X163522440Y-49875000D01*
X163522440Y-48125000D01*
X163473157Y-47877235D01*
X163332809Y-47667191D01*
X163122765Y-47526843D01*
X162875000Y-47477560D01*
X161125000Y-47477560D01*
X160877235Y-47526843D01*
X160667191Y-47667191D01*
X160526843Y-47877235D01*
X160524496Y-47889034D01*
X160355346Y-47719884D01*
X159800358Y-47490000D01*
X159199642Y-47490000D01*
X158644654Y-47719884D01*
X158219884Y-48144654D01*
X157990000Y-48699642D01*
X157990000Y-49300358D01*
X158219884Y-49855346D01*
X158644654Y-50280116D01*
X159199642Y-50510000D01*
X159800358Y-50510000D01*
X160355346Y-50280116D01*
X160524496Y-50110966D01*
X160526843Y-50122765D01*
X160667191Y-50332809D01*
X160877235Y-50473157D01*
X161125000Y-50522440D01*
X161240000Y-50522440D01*
X161240001Y-53935196D01*
X152876529Y-62298670D01*
X152813070Y-62341072D01*
X152760000Y-62420497D01*
X152760000Y-50522440D01*
X152875000Y-50522440D01*
X153122765Y-50473157D01*
X153332809Y-50332809D01*
X153473157Y-50122765D01*
X153522440Y-49875000D01*
X153522440Y-48125000D01*
X153473157Y-47877235D01*
X153332809Y-47667191D01*
X153122765Y-47526843D01*
X152875000Y-47477560D01*
X151125000Y-47477560D01*
X150877235Y-47526843D01*
X150667191Y-47667191D01*
X150526843Y-47877235D01*
X150524496Y-47889034D01*
X150355346Y-47719884D01*
X149800358Y-47490000D01*
X149199642Y-47490000D01*
X148644654Y-47719884D01*
X148219884Y-48144654D01*
X147990000Y-48699642D01*
X147990000Y-49300358D01*
X148219884Y-49855346D01*
X148644654Y-50280116D01*
X149199642Y-50510000D01*
X149800358Y-50510000D01*
X150355346Y-50280116D01*
X150524496Y-50110966D01*
X150526843Y-50122765D01*
X150667191Y-50332809D01*
X150877235Y-50473157D01*
X151125000Y-50522440D01*
X151240000Y-50522440D01*
X151240001Y-67935197D01*
X150765530Y-68409669D01*
X150702071Y-68452071D01*
X150534096Y-68703464D01*
X150490000Y-68925149D01*
X150490000Y-68925153D01*
X150475112Y-69000000D01*
X150490000Y-69074847D01*
X150490000Y-69604645D01*
X150384000Y-69583560D01*
X148606000Y-69583560D01*
X148358235Y-69632843D01*
X148148191Y-69773191D01*
X148007843Y-69983235D01*
X148002145Y-70011883D01*
X147818277Y-69828015D01*
X147258142Y-69596000D01*
X146651858Y-69596000D01*
X146389001Y-69704879D01*
X146389001Y-53828847D01*
X146403889Y-53754000D01*
X146389001Y-53679153D01*
X146389001Y-53679149D01*
X146344905Y-53457464D01*
X146303103Y-53394903D01*
X146219330Y-53269527D01*
X146219328Y-53269525D01*
X146176930Y-53206072D01*
X146113477Y-53163674D01*
X143302717Y-50352916D01*
X143332809Y-50332809D01*
X143473157Y-50122765D01*
X143522440Y-49875000D01*
X143522440Y-48125000D01*
X143473157Y-47877235D01*
X143332809Y-47667191D01*
X143122765Y-47526843D01*
X142875000Y-47477560D01*
X141125000Y-47477560D01*
X140877235Y-47526843D01*
X140667191Y-47667191D01*
X140526843Y-47877235D01*
X140524496Y-47889034D01*
X140355346Y-47719884D01*
X139800358Y-47490000D01*
X139199642Y-47490000D01*
X138644654Y-47719884D01*
X138219884Y-48144654D01*
X137990000Y-48699642D01*
X137990000Y-49300358D01*
X138219884Y-49855346D01*
X138644654Y-50280116D01*
X139199642Y-50510000D01*
X139800358Y-50510000D01*
X140355346Y-50280116D01*
X140524496Y-50110966D01*
X140526843Y-50122765D01*
X140667191Y-50332809D01*
X140877235Y-50473157D01*
X141125000Y-50522440D01*
X141351518Y-50522440D01*
X141452072Y-50672929D01*
X141515528Y-50715329D01*
X144869001Y-54068804D01*
X144869002Y-69658488D01*
X144718142Y-69596000D01*
X144111858Y-69596000D01*
X143551723Y-69828015D01*
X143260000Y-70119738D01*
X143260000Y-68074846D01*
X143274888Y-67999999D01*
X143260000Y-67925152D01*
X143260000Y-67925148D01*
X143215904Y-67703463D01*
X143173499Y-67640000D01*
X143090329Y-67515526D01*
X143090327Y-67515524D01*
X143047929Y-67452071D01*
X142984476Y-67409673D01*
X132760000Y-57185199D01*
X132760000Y-50522440D01*
X132875000Y-50522440D01*
X133122765Y-50473157D01*
X133332809Y-50332809D01*
X133473157Y-50122765D01*
X133522440Y-49875000D01*
X133522440Y-48125000D01*
X133473157Y-47877235D01*
X133332809Y-47667191D01*
X133122765Y-47526843D01*
X132875000Y-47477560D01*
X131125000Y-47477560D01*
X130877235Y-47526843D01*
X130667191Y-47667191D01*
X130526843Y-47877235D01*
X130524496Y-47889034D01*
X130355346Y-47719884D01*
X129800358Y-47490000D01*
X129199642Y-47490000D01*
X128644654Y-47719884D01*
X128219884Y-48144654D01*
X127990000Y-48699642D01*
X127990000Y-49300358D01*
X128219884Y-49855346D01*
X128644654Y-50280116D01*
X129199642Y-50510000D01*
X129800358Y-50510000D01*
X130355346Y-50280116D01*
X130524496Y-50110966D01*
X130526843Y-50122765D01*
X130667191Y-50332809D01*
X130877235Y-50473157D01*
X131125000Y-50522440D01*
X131240000Y-50522440D01*
X131240001Y-57425148D01*
X131225112Y-57500000D01*
X131284097Y-57796537D01*
X131383344Y-57945070D01*
X131452072Y-58047929D01*
X131515528Y-58090329D01*
X141740000Y-68314803D01*
X141740000Y-68788364D01*
X141734473Y-68784671D01*
X123302717Y-50352916D01*
X123332809Y-50332809D01*
X123473157Y-50122765D01*
X123522440Y-49875000D01*
X123522440Y-48125000D01*
X123473157Y-47877235D01*
X123332809Y-47667191D01*
X123122765Y-47526843D01*
X122875000Y-47477560D01*
X121125000Y-47477560D01*
X120877235Y-47526843D01*
X120667191Y-47667191D01*
X120526843Y-47877235D01*
X120524496Y-47889034D01*
X120355346Y-47719884D01*
X119800358Y-47490000D01*
X119199642Y-47490000D01*
X118644654Y-47719884D01*
X118219884Y-48144654D01*
X117990000Y-48699642D01*
X117990000Y-49300358D01*
X118219884Y-49855346D01*
X118644654Y-50280116D01*
X119199642Y-50510000D01*
X119800358Y-50510000D01*
X120355346Y-50280116D01*
X120524496Y-50110966D01*
X120526843Y-50122765D01*
X120667191Y-50332809D01*
X120877235Y-50473157D01*
X121125000Y-50522440D01*
X121351518Y-50522440D01*
X121452072Y-50672929D01*
X121515528Y-50715329D01*
X140423426Y-69623228D01*
X140224000Y-69583560D01*
X138446000Y-69583560D01*
X138198235Y-69632843D01*
X137988191Y-69773191D01*
X137847843Y-69983235D01*
X137842145Y-70011883D01*
X137658277Y-69828015D01*
X137098142Y-69596000D01*
X136491858Y-69596000D01*
X135931723Y-69828015D01*
X135883131Y-69876607D01*
X114522053Y-48515530D01*
X114479651Y-48452071D01*
X114228259Y-48284096D01*
X114006574Y-48240000D01*
X114006569Y-48240000D01*
X113931722Y-48225112D01*
X113856875Y-48240000D01*
X113522440Y-48240000D01*
X113522440Y-48125000D01*
X113473157Y-47877235D01*
X113332809Y-47667191D01*
X113122765Y-47526843D01*
X112875000Y-47477560D01*
X111125000Y-47477560D01*
X110877235Y-47526843D01*
X110667191Y-47667191D01*
X110526843Y-47877235D01*
X110524496Y-47889034D01*
X110355346Y-47719884D01*
X109800358Y-47490000D01*
X109199642Y-47490000D01*
X108644654Y-47719884D01*
X108219884Y-48144654D01*
X107990000Y-48699642D01*
X107990000Y-49300358D01*
X108219884Y-49855346D01*
X108644654Y-50280116D01*
X109199642Y-50510000D01*
X109800358Y-50510000D01*
X110355346Y-50280116D01*
X110524496Y-50110966D01*
X110526843Y-50122765D01*
X110667191Y-50332809D01*
X110877235Y-50473157D01*
X111125000Y-50522440D01*
X112875000Y-50522440D01*
X113122765Y-50473157D01*
X113332809Y-50332809D01*
X113473157Y-50122765D01*
X113522440Y-49875000D01*
X113522440Y-49760000D01*
X113616921Y-49760000D01*
X133599055Y-69742135D01*
X133391723Y-69828015D01*
X132963015Y-70256723D01*
X132731000Y-70816858D01*
X132731000Y-71061198D01*
X132260000Y-70590199D01*
X132260000Y-70074847D01*
X132274888Y-70000000D01*
X132260000Y-69925153D01*
X132260000Y-69925148D01*
X132215904Y-69703463D01*
X132047929Y-69452071D01*
X131984473Y-69409671D01*
X130840331Y-68265530D01*
X130797929Y-68202071D01*
X130546537Y-68034096D01*
X130324852Y-67990000D01*
X130324847Y-67990000D01*
X130250000Y-67975112D01*
X130175153Y-67990000D01*
X127814802Y-67990000D01*
X110840331Y-51015530D01*
X110797929Y-50952071D01*
X110546537Y-50784096D01*
X110324852Y-50740000D01*
X110324847Y-50740000D01*
X110250000Y-50725112D01*
X110175153Y-50740000D01*
X103689802Y-50740000D01*
X103302717Y-50352916D01*
X103332809Y-50332809D01*
X103473157Y-50122765D01*
X103522440Y-49875000D01*
X103522440Y-48125000D01*
X103473157Y-47877235D01*
X103332809Y-47667191D01*
X103122765Y-47526843D01*
X102875000Y-47477560D01*
X101125000Y-47477560D01*
X100877235Y-47526843D01*
X100667191Y-47667191D01*
X100526843Y-47877235D01*
X100524496Y-47889034D01*
X100355346Y-47719884D01*
X99800358Y-47490000D01*
X99199642Y-47490000D01*
X98644654Y-47719884D01*
X98219884Y-48144654D01*
X97990000Y-48699642D01*
X97990000Y-49300358D01*
X98219884Y-49855346D01*
X98644654Y-50280116D01*
X99199642Y-50510000D01*
X99800358Y-50510000D01*
X100355346Y-50280116D01*
X100524496Y-50110966D01*
X100526843Y-50122765D01*
X100667191Y-50332809D01*
X100877235Y-50473157D01*
X101125000Y-50522440D01*
X101351518Y-50522440D01*
X101452072Y-50672929D01*
X101515528Y-50715329D01*
X102540198Y-51740000D01*
X94689802Y-51740000D01*
X93302717Y-50352916D01*
X93332809Y-50332809D01*
X93473157Y-50122765D01*
X93522440Y-49875000D01*
X93522440Y-48125000D01*
X93473157Y-47877235D01*
X93332809Y-47667191D01*
X93122765Y-47526843D01*
X92875000Y-47477560D01*
X91125000Y-47477560D01*
X90877235Y-47526843D01*
X90667191Y-47667191D01*
X90526843Y-47877235D01*
X90524496Y-47889034D01*
X90355346Y-47719884D01*
X89800358Y-47490000D01*
X89199642Y-47490000D01*
X88644654Y-47719884D01*
X88219884Y-48144654D01*
X87990000Y-48699642D01*
X87990000Y-49300358D01*
X88219884Y-49855346D01*
X88644654Y-50280116D01*
X89199642Y-50510000D01*
X89800358Y-50510000D01*
X90355346Y-50280116D01*
X90524496Y-50110966D01*
X90526843Y-50122765D01*
X90667191Y-50332809D01*
X90877235Y-50473157D01*
X91125000Y-50522440D01*
X91351518Y-50522440D01*
X91452072Y-50672929D01*
X91515528Y-50715329D01*
X93540198Y-52740000D01*
X85689802Y-52740000D01*
X83302717Y-50352916D01*
X83332809Y-50332809D01*
X83473157Y-50122765D01*
X83522440Y-49875000D01*
X83522440Y-48125000D01*
X83473157Y-47877235D01*
X83332809Y-47667191D01*
X83122765Y-47526843D01*
X82875000Y-47477560D01*
X81125000Y-47477560D01*
X80877235Y-47526843D01*
X80667191Y-47667191D01*
X80526843Y-47877235D01*
X80524496Y-47889034D01*
X80355346Y-47719884D01*
X79800358Y-47490000D01*
X79199642Y-47490000D01*
X78644654Y-47719884D01*
X78219884Y-48144654D01*
X77990000Y-48699642D01*
X77990000Y-49300358D01*
X78219884Y-49855346D01*
X78644654Y-50280116D01*
X79199642Y-50510000D01*
X79800358Y-50510000D01*
X80355346Y-50280116D01*
X80524496Y-50110966D01*
X80526843Y-50122765D01*
X80667191Y-50332809D01*
X80877235Y-50473157D01*
X81125000Y-50522440D01*
X81351518Y-50522440D01*
X81452072Y-50672929D01*
X81515528Y-50715329D01*
X84784670Y-53984472D01*
X84788364Y-53990000D01*
X76939802Y-53990000D01*
X73302717Y-50352916D01*
X73332809Y-50332809D01*
X73473157Y-50122765D01*
X73522440Y-49875000D01*
X73522440Y-48125000D01*
X73473157Y-47877235D01*
X73332809Y-47667191D01*
X73122765Y-47526843D01*
X72875000Y-47477560D01*
X71125000Y-47477560D01*
X70877235Y-47526843D01*
X70667191Y-47667191D01*
X70526843Y-47877235D01*
X70524496Y-47889034D01*
X70355346Y-47719884D01*
X69800358Y-47490000D01*
X69199642Y-47490000D01*
X68644654Y-47719884D01*
X68219884Y-48144654D01*
X67990000Y-48699642D01*
X60710000Y-48699642D01*
X60710000Y-45710000D01*
X184290001Y-45710000D01*
X184290001Y-80949208D01*
X184290001Y-80949208D01*
G37*
X184290001Y-80949208D02*
X184242767Y-80901974D01*
X183549950Y-80615000D01*
X182800050Y-80615000D01*
X182107233Y-80901974D01*
X181576974Y-81432233D01*
X181510000Y-81593923D01*
X181510000Y-80623690D01*
X181413327Y-80390301D01*
X181234698Y-80211673D01*
X181001309Y-80115000D01*
X179660750Y-80115000D01*
X179502000Y-80273750D01*
X179502000Y-82373000D01*
X179522000Y-82373000D01*
X179522000Y-82627000D01*
X179502000Y-82627000D01*
X179502000Y-84726250D01*
X179660750Y-84885000D01*
X181001309Y-84885000D01*
X181234698Y-84788327D01*
X181413327Y-84609699D01*
X181510000Y-84376310D01*
X181510000Y-83406077D01*
X181576974Y-83567767D01*
X182107233Y-84098026D01*
X182800050Y-84385000D01*
X183549950Y-84385000D01*
X184242767Y-84098026D01*
X184290000Y-84050793D01*
X184290000Y-119290000D01*
X60710000Y-119290000D01*
X60710000Y-112595793D01*
X64154054Y-112595793D01*
X64234431Y-112893170D01*
X64710245Y-113694469D01*
X65456484Y-114252687D01*
X66359540Y-114482840D01*
X68109600Y-114482840D01*
X68109600Y-112224780D01*
X68363600Y-112224780D01*
X68363600Y-114482840D01*
X70113660Y-114482840D01*
X71016716Y-114252687D01*
X71468730Y-113914561D01*
X77415000Y-113914561D01*
X77415000Y-114485439D01*
X77633466Y-115012862D01*
X78037138Y-115416534D01*
X78564561Y-115635000D01*
X79135439Y-115635000D01*
X79662862Y-115416534D01*
X80066534Y-115012862D01*
X80258655Y-114549039D01*
X89638096Y-114549039D01*
X89798959Y-114937423D01*
X90174866Y-115352389D01*
X90680959Y-115591914D01*
X90903000Y-115470629D01*
X90903000Y-114327000D01*
X91157000Y-114327000D01*
X91157000Y-115470629D01*
X91379041Y-115591914D01*
X91885134Y-115352389D01*
X91977885Y-115250000D01*
X96475112Y-115250000D01*
X96490000Y-115324847D01*
X96490001Y-117425148D01*
X96475112Y-117500000D01*
X96490001Y-117574852D01*
X96527929Y-117765527D01*
X96534097Y-117796537D01*
X96638952Y-117953463D01*
X96702072Y-118047929D01*
X96765528Y-118090329D01*
X97409671Y-118734473D01*
X97452071Y-118797929D01*
X97703463Y-118965904D01*
X97925148Y-119010000D01*
X97925152Y-119010000D01*
X97999999Y-119024888D01*
X98074846Y-119010000D01*
X106050153Y-119010000D01*
X106125000Y-119024888D01*
X106199847Y-119010000D01*
X106199852Y-119010000D01*
X106421537Y-118965904D01*
X106672929Y-118797929D01*
X106715331Y-118734470D01*
X108147084Y-117302717D01*
X108167191Y-117332809D01*
X108377235Y-117473157D01*
X108625000Y-117522440D01*
X110375000Y-117522440D01*
X110622765Y-117473157D01*
X110832809Y-117332809D01*
X110973157Y-117122765D01*
X110975504Y-117110966D01*
X111144654Y-117280116D01*
X111699642Y-117510000D01*
X112300358Y-117510000D01*
X112855346Y-117280116D01*
X113280116Y-116855346D01*
X113510000Y-116300358D01*
X113510000Y-115699642D01*
X113280116Y-115144654D01*
X112855346Y-114719884D01*
X112300358Y-114490000D01*
X111699642Y-114490000D01*
X111144654Y-114719884D01*
X110975504Y-114889034D01*
X110973157Y-114877235D01*
X110832809Y-114667191D01*
X110622765Y-114526843D01*
X110375000Y-114477560D01*
X108625000Y-114477560D01*
X108377235Y-114526843D01*
X108167191Y-114667191D01*
X108026843Y-114877235D01*
X107977560Y-115125000D01*
X107977560Y-115351517D01*
X107827071Y-115452071D01*
X107784671Y-115515527D01*
X105810199Y-117490000D01*
X102348642Y-117490000D01*
X102855346Y-117280116D01*
X103280116Y-116855346D01*
X103510000Y-116300358D01*
X103510000Y-115699642D01*
X103280116Y-115144654D01*
X102855346Y-114719884D01*
X102300358Y-114490000D01*
X101699642Y-114490000D01*
X101144654Y-114719884D01*
X100975504Y-114889034D01*
X100973157Y-114877235D01*
X100832809Y-114667191D01*
X100802717Y-114647084D01*
X122610413Y-92839389D01*
X122607843Y-92843235D01*
X122558560Y-93091000D01*
X122558560Y-94869000D01*
X122607843Y-95116765D01*
X122748191Y-95326809D01*
X122958235Y-95467157D01*
X123206000Y-95516440D01*
X124984000Y-95516440D01*
X125231765Y-95467157D01*
X125441809Y-95326809D01*
X125582157Y-95116765D01*
X125587855Y-95088117D01*
X125771723Y-95271985D01*
X126331858Y-95504000D01*
X126938142Y-95504000D01*
X127498277Y-95271985D01*
X127905000Y-94865262D01*
X128311723Y-95271985D01*
X128871858Y-95504000D01*
X129478142Y-95504000D01*
X129990001Y-95291982D01*
X129990001Y-97185197D01*
X119015530Y-108159669D01*
X118952071Y-108202071D01*
X118784096Y-108453464D01*
X118740000Y-108675149D01*
X118740000Y-108675153D01*
X118725112Y-108750000D01*
X118740000Y-108824847D01*
X118740001Y-114477560D01*
X118625000Y-114477560D01*
X118377235Y-114526843D01*
X118167191Y-114667191D01*
X118026843Y-114877235D01*
X117977560Y-115125000D01*
X117977560Y-116875000D01*
X118026843Y-117122765D01*
X118167191Y-117332809D01*
X118377235Y-117473157D01*
X118625000Y-117522440D01*
X120375000Y-117522440D01*
X120622765Y-117473157D01*
X120832809Y-117332809D01*
X120973157Y-117122765D01*
X120975504Y-117110966D01*
X121144654Y-117280116D01*
X121699642Y-117510000D01*
X122300358Y-117510000D01*
X122855346Y-117280116D01*
X123280116Y-116855346D01*
X123510000Y-116300358D01*
X123510000Y-115699642D01*
X123280116Y-115144654D01*
X122855346Y-114719884D01*
X122300358Y-114490000D01*
X121699642Y-114490000D01*
X121144654Y-114719884D01*
X120975504Y-114889034D01*
X120973157Y-114877235D01*
X120832809Y-114667191D01*
X120622765Y-114526843D01*
X120375000Y-114477560D01*
X120260000Y-114477560D01*
X120260000Y-109064801D01*
X131234473Y-98090329D01*
X131240000Y-98086636D01*
X131240001Y-105935197D01*
X129015530Y-108159669D01*
X128952071Y-108202071D01*
X128784096Y-108453464D01*
X128740000Y-108675149D01*
X128740000Y-108675153D01*
X128725112Y-108750000D01*
X128740000Y-108824847D01*
X128740001Y-114477560D01*
X128625000Y-114477560D01*
X128377235Y-114526843D01*
X128167191Y-114667191D01*
X128026843Y-114877235D01*
X127977560Y-115125000D01*
X127977560Y-116875000D01*
X128026843Y-117122765D01*
X128167191Y-117332809D01*
X128377235Y-117473157D01*
X128625000Y-117522440D01*
X130375000Y-117522440D01*
X130622765Y-117473157D01*
X130832809Y-117332809D01*
X130973157Y-117122765D01*
X130975504Y-117110966D01*
X131144654Y-117280116D01*
X131699642Y-117510000D01*
X132300358Y-117510000D01*
X132855346Y-117280116D01*
X133280116Y-116855346D01*
X133510000Y-116300358D01*
X133510000Y-115699642D01*
X133280116Y-115144654D01*
X132855346Y-114719884D01*
X132300358Y-114490000D01*
X131699642Y-114490000D01*
X131144654Y-114719884D01*
X130975504Y-114889034D01*
X130973157Y-114877235D01*
X130832809Y-114667191D01*
X130622765Y-114526843D01*
X130375000Y-114477560D01*
X130260000Y-114477560D01*
X130260000Y-109064801D01*
X132484473Y-106840329D01*
X132547929Y-106797929D01*
X132715904Y-106546537D01*
X132760000Y-106324852D01*
X132760000Y-106324847D01*
X132774888Y-106250000D01*
X132760000Y-106175153D01*
X132760000Y-95077335D01*
X132767843Y-95116765D01*
X132908191Y-95326809D01*
X133118235Y-95467157D01*
X133366000Y-95516440D01*
X134820999Y-95516440D01*
X134821000Y-106006147D01*
X134806111Y-106080999D01*
X134865096Y-106377536D01*
X134978020Y-106546538D01*
X135033071Y-106628928D01*
X135096527Y-106671328D01*
X138740000Y-110314803D01*
X138740001Y-114477560D01*
X138625000Y-114477560D01*
X138377235Y-114526843D01*
X138167191Y-114667191D01*
X138026843Y-114877235D01*
X137977560Y-115125000D01*
X137977560Y-116875000D01*
X138026843Y-117122765D01*
X138167191Y-117332809D01*
X138377235Y-117473157D01*
X138625000Y-117522440D01*
X140375000Y-117522440D01*
X140622765Y-117473157D01*
X140832809Y-117332809D01*
X140973157Y-117122765D01*
X140975504Y-117110966D01*
X141144654Y-117280116D01*
X141699642Y-117510000D01*
X142300358Y-117510000D01*
X142855346Y-117280116D01*
X143280116Y-116855346D01*
X143510000Y-116300358D01*
X143510000Y-115699642D01*
X143280116Y-115144654D01*
X142855346Y-114719884D01*
X142300358Y-114490000D01*
X141699642Y-114490000D01*
X141144654Y-114719884D01*
X140975504Y-114889034D01*
X140973157Y-114877235D01*
X140832809Y-114667191D01*
X140622765Y-114526843D01*
X140375000Y-114477560D01*
X140260000Y-114477560D01*
X140260000Y-110074846D01*
X140274888Y-109999999D01*
X140260000Y-109925152D01*
X140260000Y-109925148D01*
X140215904Y-109703463D01*
X140096584Y-109524888D01*
X140090329Y-109515526D01*
X140090327Y-109515524D01*
X140047929Y-109452071D01*
X139984476Y-109409673D01*
X136340999Y-105766198D01*
X136340999Y-95441512D01*
X136491858Y-95504000D01*
X137098142Y-95504000D01*
X137658277Y-95271985D01*
X138065000Y-94865262D01*
X138471723Y-95271985D01*
X139031858Y-95504000D01*
X139638142Y-95504000D01*
X140198277Y-95271985D01*
X140240000Y-95230262D01*
X140240001Y-106175148D01*
X140225112Y-106250000D01*
X140240001Y-106324852D01*
X140284097Y-106546537D01*
X140452072Y-106797929D01*
X140515528Y-106840329D01*
X148272214Y-114597016D01*
X148167191Y-114667191D01*
X148026843Y-114877235D01*
X147977560Y-115125000D01*
X147977560Y-116875000D01*
X148026843Y-117122765D01*
X148167191Y-117332809D01*
X148377235Y-117473157D01*
X148625000Y-117522440D01*
X150375000Y-117522440D01*
X150622765Y-117473157D01*
X150832809Y-117332809D01*
X150973157Y-117122765D01*
X150975504Y-117110966D01*
X151144654Y-117280116D01*
X151699642Y-117510000D01*
X152300358Y-117510000D01*
X152855346Y-117280116D01*
X153280116Y-116855346D01*
X153510000Y-116300358D01*
X153510000Y-115699642D01*
X153280116Y-115144654D01*
X152855346Y-114719884D01*
X152300358Y-114490000D01*
X151699642Y-114490000D01*
X151144654Y-114719884D01*
X150975504Y-114889034D01*
X150973157Y-114877235D01*
X150832809Y-114667191D01*
X150622765Y-114526843D01*
X150375000Y-114477560D01*
X150220697Y-114477560D01*
X150215904Y-114453463D01*
X150047929Y-114202071D01*
X149984473Y-114159671D01*
X141760000Y-105935199D01*
X141760000Y-98050394D01*
X141784097Y-98171537D01*
X141952072Y-98422929D01*
X142015528Y-98465329D01*
X158197282Y-114647084D01*
X158167191Y-114667191D01*
X158026843Y-114877235D01*
X157977560Y-115125000D01*
X157977560Y-116875000D01*
X158026843Y-117122765D01*
X158167191Y-117332809D01*
X158377235Y-117473157D01*
X158625000Y-117522440D01*
X160375000Y-117522440D01*
X160622765Y-117473157D01*
X160832809Y-117332809D01*
X160973157Y-117122765D01*
X160975504Y-117110966D01*
X161144654Y-117280116D01*
X161699642Y-117510000D01*
X162300358Y-117510000D01*
X162855346Y-117280116D01*
X163280116Y-116855346D01*
X163510000Y-116300358D01*
X163510000Y-115699642D01*
X163280116Y-115144654D01*
X162855346Y-114719884D01*
X162300358Y-114490000D01*
X161699642Y-114490000D01*
X161144654Y-114719884D01*
X160975504Y-114889034D01*
X160973157Y-114877235D01*
X160832809Y-114667191D01*
X160622765Y-114526843D01*
X160375000Y-114477560D01*
X160148483Y-114477560D01*
X160047929Y-114327071D01*
X159984473Y-114284671D01*
X143260000Y-97560199D01*
X143260000Y-95454973D01*
X143278235Y-95467157D01*
X143526000Y-95516440D01*
X145304000Y-95516440D01*
X145551765Y-95467157D01*
X145761809Y-95326809D01*
X145902157Y-95116765D01*
X145907855Y-95088117D01*
X146091723Y-95271985D01*
X146651858Y-95504000D01*
X147258142Y-95504000D01*
X147521000Y-95395121D01*
X147521000Y-95831147D01*
X147506111Y-95905999D01*
X147565096Y-96202536D01*
X147678997Y-96373000D01*
X147733071Y-96453928D01*
X147796527Y-96496328D01*
X167784671Y-116484473D01*
X167827071Y-116547929D01*
X167890527Y-116590329D01*
X167977560Y-116648483D01*
X167977560Y-116875000D01*
X168026843Y-117122765D01*
X168167191Y-117332809D01*
X168377235Y-117473157D01*
X168625000Y-117522440D01*
X170375000Y-117522440D01*
X170622765Y-117473157D01*
X170832809Y-117332809D01*
X170973157Y-117122765D01*
X170975504Y-117110966D01*
X171144654Y-117280116D01*
X171699642Y-117510000D01*
X172300358Y-117510000D01*
X172855346Y-117280116D01*
X173280116Y-116855346D01*
X173510000Y-116300358D01*
X173510000Y-115699642D01*
X173280116Y-115144654D01*
X172855346Y-114719884D01*
X172300358Y-114490000D01*
X171699642Y-114490000D01*
X171144654Y-114719884D01*
X170975504Y-114889034D01*
X170973157Y-114877235D01*
X170832809Y-114667191D01*
X170622765Y-114526843D01*
X170375000Y-114477560D01*
X168625000Y-114477560D01*
X168377235Y-114526843D01*
X168167191Y-114667191D01*
X168147084Y-114697282D01*
X149040999Y-95591198D01*
X149040999Y-95441512D01*
X149191858Y-95504000D01*
X149798142Y-95504000D01*
X150358277Y-95271985D01*
X150786985Y-94843277D01*
X151019000Y-94283142D01*
X151019000Y-94038801D01*
X170714670Y-113734472D01*
X170757071Y-113797929D01*
X170820527Y-113840329D01*
X171008462Y-113965904D01*
X171054750Y-113975111D01*
X171230148Y-114010000D01*
X171230152Y-114010000D01*
X171305000Y-114024888D01*
X171379848Y-114010000D01*
X177560199Y-114010000D01*
X178197283Y-114647084D01*
X178167191Y-114667191D01*
X178026843Y-114877235D01*
X177977560Y-115125000D01*
X177977560Y-116875000D01*
X178026843Y-117122765D01*
X178167191Y-117332809D01*
X178377235Y-117473157D01*
X178625000Y-117522440D01*
X180375000Y-117522440D01*
X180622765Y-117473157D01*
X180832809Y-117332809D01*
X180973157Y-117122765D01*
X180975504Y-117110966D01*
X181144654Y-117280116D01*
X181699642Y-117510000D01*
X182300358Y-117510000D01*
X182855346Y-117280116D01*
X183280116Y-116855346D01*
X183510000Y-116300358D01*
X183510000Y-115699642D01*
X183280116Y-115144654D01*
X182855346Y-114719884D01*
X182300358Y-114490000D01*
X181699642Y-114490000D01*
X181144654Y-114719884D01*
X180975504Y-114889034D01*
X180973157Y-114877235D01*
X180832809Y-114667191D01*
X180622765Y-114526843D01*
X180375000Y-114477560D01*
X180148483Y-114477560D01*
X180047929Y-114327071D01*
X179984473Y-114284671D01*
X178465331Y-112765530D01*
X178422929Y-112702071D01*
X178171537Y-112534096D01*
X177949852Y-112490000D01*
X177949847Y-112490000D01*
X177875000Y-112475112D01*
X177800153Y-112490000D01*
X171619802Y-112490000D01*
X163685233Y-104555431D01*
X167765000Y-104555431D01*
X167765000Y-105444569D01*
X168105259Y-106266026D01*
X168733974Y-106894741D01*
X169555431Y-107235000D01*
X170444569Y-107235000D01*
X171266026Y-106894741D01*
X171894741Y-106266026D01*
X172235000Y-105444569D01*
X172235000Y-104555431D01*
X171894741Y-103733974D01*
X171266026Y-103105259D01*
X170444569Y-102765000D01*
X169555431Y-102765000D01*
X168733974Y-103105259D01*
X168105259Y-103733974D01*
X167765000Y-104555431D01*
X163685233Y-104555431D01*
X154646241Y-95516440D01*
X155464000Y-95516440D01*
X155711765Y-95467157D01*
X155723076Y-95459599D01*
X161997948Y-101734472D01*
X162040349Y-101797929D01*
X162103805Y-101840329D01*
X162291740Y-101965904D01*
X162339883Y-101975480D01*
X162513426Y-102010000D01*
X162513430Y-102010000D01*
X162588278Y-102024888D01*
X162663126Y-102010000D01*
X174060199Y-102010000D01*
X179284671Y-107234473D01*
X179327071Y-107297929D01*
X179477560Y-107398483D01*
X179477560Y-107625000D01*
X179526843Y-107872765D01*
X179667191Y-108082809D01*
X179877235Y-108223157D01*
X180125000Y-108272440D01*
X181875000Y-108272440D01*
X182122765Y-108223157D01*
X182332809Y-108082809D01*
X182473157Y-107872765D01*
X182522440Y-107625000D01*
X182522440Y-105875000D01*
X182473157Y-105627235D01*
X182332809Y-105417191D01*
X182122765Y-105276843D01*
X182110966Y-105274496D01*
X182280116Y-105105346D01*
X182510000Y-104550358D01*
X182510000Y-103949642D01*
X182280116Y-103394654D01*
X181855346Y-102969884D01*
X181300358Y-102740000D01*
X180699642Y-102740000D01*
X180144654Y-102969884D01*
X179719884Y-103394654D01*
X179490000Y-103949642D01*
X179490000Y-104550358D01*
X179719884Y-105105346D01*
X179889034Y-105274496D01*
X179877235Y-105276843D01*
X179667191Y-105417191D01*
X179647084Y-105447282D01*
X174965331Y-100765530D01*
X174922929Y-100702071D01*
X174671537Y-100534096D01*
X174449852Y-100490000D01*
X174449847Y-100490000D01*
X174375000Y-100475112D01*
X174300153Y-100490000D01*
X162903080Y-100490000D01*
X159198830Y-96785750D01*
X179490000Y-96785750D01*
X179490000Y-97501309D01*
X179586673Y-97734698D01*
X179765301Y-97913327D01*
X179998690Y-98010000D01*
X180714250Y-98010000D01*
X180873000Y-97851250D01*
X180873000Y-96627000D01*
X181127000Y-96627000D01*
X181127000Y-97851250D01*
X181285750Y-98010000D01*
X182001310Y-98010000D01*
X182234699Y-97913327D01*
X182413327Y-97734698D01*
X182510000Y-97501309D01*
X182510000Y-96785750D01*
X182351250Y-96627000D01*
X181127000Y-96627000D01*
X180873000Y-96627000D01*
X179648750Y-96627000D01*
X179490000Y-96785750D01*
X159198830Y-96785750D01*
X157770944Y-95357865D01*
X157978277Y-95271985D01*
X158385000Y-94865262D01*
X158791723Y-95271985D01*
X159351858Y-95504000D01*
X159958142Y-95504000D01*
X160518277Y-95271985D01*
X160946985Y-94843277D01*
X161179000Y-94283142D01*
X161179000Y-93676858D01*
X161109885Y-93510000D01*
X164425153Y-93510000D01*
X164500000Y-93524888D01*
X164574847Y-93510000D01*
X164574852Y-93510000D01*
X164796537Y-93465904D01*
X165047929Y-93297929D01*
X165090331Y-93234470D01*
X167125159Y-91199642D01*
X179490000Y-91199642D01*
X179490000Y-91800358D01*
X179719884Y-92355346D01*
X180114538Y-92750000D01*
X179719884Y-93144654D01*
X179490000Y-93699642D01*
X179490000Y-94300358D01*
X179719884Y-94855346D01*
X179896759Y-95032221D01*
X179765301Y-95086673D01*
X179586673Y-95265302D01*
X179490000Y-95498691D01*
X179490000Y-96214250D01*
X179648750Y-96373000D01*
X180873000Y-96373000D01*
X180873000Y-96353000D01*
X181127000Y-96353000D01*
X181127000Y-96373000D01*
X182351250Y-96373000D01*
X182510000Y-96214250D01*
X182510000Y-95498691D01*
X182413327Y-95265302D01*
X182234699Y-95086673D01*
X182103241Y-95032221D01*
X182280116Y-94855346D01*
X182510000Y-94300358D01*
X182510000Y-93699642D01*
X182280116Y-93144654D01*
X181885462Y-92750000D01*
X182280116Y-92355346D01*
X182510000Y-91800358D01*
X182510000Y-91199642D01*
X182280116Y-90644654D01*
X181855346Y-90219884D01*
X181300358Y-89990000D01*
X180699642Y-89990000D01*
X180144654Y-90219884D01*
X179719884Y-90644654D01*
X179490000Y-91199642D01*
X167125159Y-91199642D01*
X169484473Y-88840329D01*
X169547929Y-88797929D01*
X169715904Y-88546537D01*
X169760000Y-88324852D01*
X169760000Y-88324848D01*
X169774888Y-88250001D01*
X169760000Y-88175154D01*
X169760000Y-80750000D01*
X170377560Y-80750000D01*
X170377560Y-84250000D01*
X170426843Y-84497765D01*
X170567191Y-84707809D01*
X170777235Y-84848157D01*
X171025000Y-84897440D01*
X174525000Y-84897440D01*
X174772765Y-84848157D01*
X174982809Y-84707809D01*
X175123157Y-84497765D01*
X175172440Y-84250000D01*
X175172440Y-82785750D01*
X177240000Y-82785750D01*
X177240000Y-84376310D01*
X177336673Y-84609699D01*
X177515302Y-84788327D01*
X177748691Y-84885000D01*
X179089250Y-84885000D01*
X179248000Y-84726250D01*
X179248000Y-82627000D01*
X177398750Y-82627000D01*
X177240000Y-82785750D01*
X175172440Y-82785750D01*
X175172440Y-80750000D01*
X175147316Y-80623690D01*
X177240000Y-80623690D01*
X177240000Y-82214250D01*
X177398750Y-82373000D01*
X179248000Y-82373000D01*
X179248000Y-80273750D01*
X179089250Y-80115000D01*
X177748691Y-80115000D01*
X177515302Y-80211673D01*
X177336673Y-80390301D01*
X177240000Y-80623690D01*
X175147316Y-80623690D01*
X175123157Y-80502235D01*
X174982809Y-80292191D01*
X174772765Y-80151843D01*
X174525000Y-80102560D01*
X171025000Y-80102560D01*
X170777235Y-80151843D01*
X170567191Y-80292191D01*
X170426843Y-80502235D01*
X170377560Y-80750000D01*
X169760000Y-80750000D01*
X169760000Y-79064801D01*
X171039051Y-77785750D01*
X173440000Y-77785750D01*
X173440000Y-79376310D01*
X173536673Y-79609699D01*
X173715302Y-79788327D01*
X173948691Y-79885000D01*
X175539250Y-79885000D01*
X175698000Y-79726250D01*
X175698000Y-77627000D01*
X175952000Y-77627000D01*
X175952000Y-79726250D01*
X176110750Y-79885000D01*
X177701309Y-79885000D01*
X177934698Y-79788327D01*
X178113327Y-79609699D01*
X178210000Y-79376310D01*
X178210000Y-77785750D01*
X178051250Y-77627000D01*
X175952000Y-77627000D01*
X175698000Y-77627000D01*
X173598750Y-77627000D01*
X173440000Y-77785750D01*
X171039051Y-77785750D01*
X173201111Y-75623690D01*
X173440000Y-75623690D01*
X173440000Y-77214250D01*
X173598750Y-77373000D01*
X175698000Y-77373000D01*
X175698000Y-75273750D01*
X175952000Y-75273750D01*
X175952000Y-77373000D01*
X178051250Y-77373000D01*
X178210000Y-77214250D01*
X178210000Y-75623690D01*
X178113327Y-75390301D01*
X177934698Y-75211673D01*
X177701309Y-75115000D01*
X176110750Y-75115000D01*
X175952000Y-75273750D01*
X175698000Y-75273750D01*
X175539250Y-75115000D01*
X173948691Y-75115000D01*
X173715302Y-75211673D01*
X173536673Y-75390301D01*
X173440000Y-75623690D01*
X173201111Y-75623690D01*
X177064802Y-71760000D01*
X179477560Y-71760000D01*
X179477560Y-71875000D01*
X179526843Y-72122765D01*
X179667191Y-72332809D01*
X179877235Y-72473157D01*
X180125000Y-72522440D01*
X181875000Y-72522440D01*
X182122765Y-72473157D01*
X182332809Y-72332809D01*
X182473157Y-72122765D01*
X182522440Y-71875000D01*
X182522440Y-70125000D01*
X182473157Y-69877235D01*
X182332809Y-69667191D01*
X182122765Y-69526843D01*
X182110966Y-69524496D01*
X182280116Y-69355346D01*
X182510000Y-68800358D01*
X182510000Y-68199642D01*
X182280116Y-67644654D01*
X181855346Y-67219884D01*
X181300358Y-66990000D01*
X180699642Y-66990000D01*
X180144654Y-67219884D01*
X179719884Y-67644654D01*
X179490000Y-68199642D01*
X179490000Y-68800358D01*
X179719884Y-69355346D01*
X179889034Y-69524496D01*
X179877235Y-69526843D01*
X179667191Y-69667191D01*
X179526843Y-69877235D01*
X179477560Y-70125000D01*
X179477560Y-70240000D01*
X176824846Y-70240000D01*
X176749999Y-70225112D01*
X176675152Y-70240000D01*
X176675148Y-70240000D01*
X176453463Y-70284096D01*
X176202071Y-70452071D01*
X176159671Y-70515527D01*
X168515528Y-78159671D01*
X168452072Y-78202071D01*
X168409672Y-78265527D01*
X168409671Y-78265528D01*
X168284097Y-78453463D01*
X168225112Y-78750000D01*
X168240001Y-78824852D01*
X168240000Y-87935198D01*
X164185199Y-91990000D01*
X161076748Y-91990000D01*
X161179000Y-91743142D01*
X161179000Y-91136858D01*
X160946985Y-90576723D01*
X160518277Y-90148015D01*
X160415000Y-90105236D01*
X160415000Y-88596858D01*
X163211000Y-88596858D01*
X163211000Y-89203142D01*
X163443015Y-89763277D01*
X163871723Y-90191985D01*
X164431858Y-90424000D01*
X165038142Y-90424000D01*
X165598277Y-90191985D01*
X166026985Y-89763277D01*
X166259000Y-89203142D01*
X166259000Y-88596858D01*
X166026985Y-88036723D01*
X165598277Y-87608015D01*
X165572570Y-87597367D01*
X165627591Y-87432196D01*
X164735000Y-86539605D01*
X163842409Y-87432196D01*
X163897430Y-87597367D01*
X163871723Y-87608015D01*
X163443015Y-88036723D01*
X163211000Y-88596858D01*
X160415000Y-88596858D01*
X160415000Y-86121965D01*
X163199484Y-86121965D01*
X163225277Y-86727700D01*
X163407461Y-87167533D01*
X163662804Y-87252591D01*
X164555395Y-86360000D01*
X164914605Y-86360000D01*
X165807196Y-87252591D01*
X166062539Y-87167533D01*
X166270516Y-86598035D01*
X166244723Y-85992300D01*
X166062539Y-85552467D01*
X165807196Y-85467409D01*
X164914605Y-86360000D01*
X164555395Y-86360000D01*
X163662804Y-85467409D01*
X163407461Y-85552467D01*
X163199484Y-86121965D01*
X160415000Y-86121965D01*
X160415000Y-78159801D01*
X162677943Y-75896858D01*
X163211000Y-75896858D01*
X163211000Y-76503142D01*
X163443015Y-77063277D01*
X163849738Y-77470000D01*
X163443015Y-77876723D01*
X163211000Y-78436858D01*
X163211000Y-79043142D01*
X163443015Y-79603277D01*
X163849738Y-80010000D01*
X163443015Y-80416723D01*
X163211000Y-80976858D01*
X163211000Y-81583142D01*
X163443015Y-82143277D01*
X163849738Y-82550000D01*
X163443015Y-82956723D01*
X163211000Y-83516858D01*
X163211000Y-84123142D01*
X163443015Y-84683277D01*
X163871723Y-85111985D01*
X163897430Y-85122633D01*
X163842409Y-85287804D01*
X164735000Y-86180395D01*
X165627591Y-85287804D01*
X165572570Y-85122633D01*
X165598277Y-85111985D01*
X166026985Y-84683277D01*
X166259000Y-84123142D01*
X166259000Y-83516858D01*
X166026985Y-82956723D01*
X165620262Y-82550000D01*
X166026985Y-82143277D01*
X166259000Y-81583142D01*
X166259000Y-80976858D01*
X166026985Y-80416723D01*
X165620262Y-80010000D01*
X166026985Y-79603277D01*
X166259000Y-79043142D01*
X166259000Y-78436858D01*
X166026985Y-77876723D01*
X165620262Y-77470000D01*
X166026985Y-77063277D01*
X166259000Y-76503142D01*
X166259000Y-75896858D01*
X166026985Y-75336723D01*
X165598277Y-74908015D01*
X165038142Y-74676000D01*
X164431858Y-74676000D01*
X163871723Y-74908015D01*
X163443015Y-75336723D01*
X163211000Y-75896858D01*
X162677943Y-75896858D01*
X168064802Y-70510000D01*
X171050153Y-70510000D01*
X171125000Y-70524888D01*
X171199847Y-70510000D01*
X171199852Y-70510000D01*
X171421537Y-70465904D01*
X171672929Y-70297929D01*
X171715331Y-70234470D01*
X179647084Y-62302718D01*
X179667191Y-62332809D01*
X179877235Y-62473157D01*
X180125000Y-62522440D01*
X181875000Y-62522440D01*
X182122765Y-62473157D01*
X182332809Y-62332809D01*
X182473157Y-62122765D01*
X182522440Y-61875000D01*
X182522440Y-60125000D01*
X182473157Y-59877235D01*
X182332809Y-59667191D01*
X182122765Y-59526843D01*
X182110966Y-59524496D01*
X182280116Y-59355346D01*
X182510000Y-58800358D01*
X182510000Y-58199642D01*
X182280116Y-57644654D01*
X181855346Y-57219884D01*
X181300358Y-56990000D01*
X180699642Y-56990000D01*
X180144654Y-57219884D01*
X179719884Y-57644654D01*
X179490000Y-58199642D01*
X179490000Y-58800358D01*
X179719884Y-59355346D01*
X179889034Y-59524496D01*
X179877235Y-59526843D01*
X179667191Y-59667191D01*
X179526843Y-59877235D01*
X179477560Y-60125000D01*
X179477560Y-60351517D01*
X179391418Y-60409076D01*
X179327071Y-60452071D01*
X179284671Y-60515527D01*
X170810199Y-68990000D01*
X167824848Y-68990000D01*
X167750000Y-68975112D01*
X167675152Y-68990000D01*
X167675148Y-68990000D01*
X167501605Y-69024520D01*
X167453462Y-69034096D01*
X167285822Y-69146110D01*
X167202071Y-69202071D01*
X167159671Y-69265527D01*
X159170528Y-77254671D01*
X159107072Y-77297071D01*
X159064672Y-77360527D01*
X159064671Y-77360528D01*
X158939097Y-77548463D01*
X158880112Y-77845000D01*
X158895001Y-77919852D01*
X158895000Y-90105236D01*
X158791723Y-90148015D01*
X158385000Y-90554738D01*
X157978277Y-90148015D01*
X157418142Y-89916000D01*
X156811858Y-89916000D01*
X156251723Y-90148015D01*
X155845000Y-90554738D01*
X155438277Y-90148015D01*
X154878142Y-89916000D01*
X154271858Y-89916000D01*
X153711723Y-90148015D01*
X153283015Y-90576723D01*
X153051000Y-91136858D01*
X153051000Y-91743142D01*
X153283015Y-92303277D01*
X153466883Y-92487145D01*
X153438235Y-92492843D01*
X153228191Y-92633191D01*
X153087843Y-92843235D01*
X153038560Y-93091000D01*
X153038560Y-93908759D01*
X150976221Y-91846420D01*
X151019000Y-91743142D01*
X151019000Y-91136858D01*
X150786985Y-90576723D01*
X150358277Y-90148015D01*
X149798142Y-89916000D01*
X149191858Y-89916000D01*
X148631723Y-90148015D01*
X148225000Y-90554738D01*
X147818277Y-90148015D01*
X147258142Y-89916000D01*
X146651858Y-89916000D01*
X146091723Y-90148015D01*
X145685000Y-90554738D01*
X145278277Y-90148015D01*
X144718142Y-89916000D01*
X144111858Y-89916000D01*
X143551723Y-90148015D01*
X143123015Y-90576723D01*
X142891000Y-91136858D01*
X142891000Y-91743142D01*
X142933779Y-91846420D01*
X142015530Y-92764669D01*
X141952071Y-92807071D01*
X141784096Y-93058464D01*
X141774864Y-93104878D01*
X141760000Y-93030152D01*
X141760000Y-93030148D01*
X141715904Y-92808463D01*
X141547929Y-92557071D01*
X141484473Y-92514671D01*
X140816221Y-91846420D01*
X140859000Y-91743142D01*
X140859000Y-91136858D01*
X140626985Y-90576723D01*
X140198277Y-90148015D01*
X139638142Y-89916000D01*
X139031858Y-89916000D01*
X138471723Y-90148015D01*
X138065000Y-90554738D01*
X137658277Y-90148015D01*
X137098142Y-89916000D01*
X136491858Y-89916000D01*
X135931723Y-90148015D01*
X135525000Y-90554738D01*
X135118277Y-90148015D01*
X134558142Y-89916000D01*
X133951858Y-89916000D01*
X133391723Y-90148015D01*
X132963015Y-90576723D01*
X132731000Y-91136858D01*
X132731000Y-91743142D01*
X132773779Y-91846420D01*
X131515530Y-93104669D01*
X131510000Y-93108364D01*
X131510000Y-91832613D01*
X131524888Y-91757765D01*
X131510000Y-91682917D01*
X131510000Y-91682913D01*
X131465904Y-91461228D01*
X131297929Y-91209836D01*
X131234470Y-91167434D01*
X131022566Y-90955530D01*
X130980164Y-90892071D01*
X130728772Y-90724096D01*
X130510004Y-90680580D01*
X130466985Y-90576723D01*
X130038277Y-90148015D01*
X129478142Y-89916000D01*
X128871858Y-89916000D01*
X128311723Y-90148015D01*
X127905000Y-90554738D01*
X127498277Y-90148015D01*
X127394420Y-90104996D01*
X127350904Y-89886228D01*
X127182929Y-89634836D01*
X127119473Y-89592436D01*
X126292566Y-88765530D01*
X126250164Y-88702071D01*
X125998772Y-88534096D01*
X125777087Y-88490000D01*
X125777082Y-88490000D01*
X125702235Y-88475112D01*
X125627388Y-88490000D01*
X123324848Y-88490000D01*
X123250000Y-88475112D01*
X123175152Y-88490000D01*
X123175148Y-88490000D01*
X122953463Y-88534096D01*
X122702071Y-88702071D01*
X122659671Y-88765527D01*
X96765530Y-114659669D01*
X96702071Y-114702071D01*
X96534096Y-114953464D01*
X96490000Y-115175149D01*
X96490000Y-115175153D01*
X96475112Y-115250000D01*
X91977885Y-115250000D01*
X92261041Y-114937423D01*
X92421904Y-114549039D01*
X92299915Y-114327000D01*
X91157000Y-114327000D01*
X90903000Y-114327000D01*
X89760085Y-114327000D01*
X89638096Y-114549039D01*
X80258655Y-114549039D01*
X80285000Y-114485439D01*
X80285000Y-113914561D01*
X80258656Y-113850961D01*
X89638096Y-113850961D01*
X89760085Y-114073000D01*
X90903000Y-114073000D01*
X90903000Y-112929371D01*
X91157000Y-112929371D01*
X91157000Y-114073000D01*
X92299915Y-114073000D01*
X92421904Y-113850961D01*
X92261041Y-113462577D01*
X91885134Y-113047611D01*
X91379041Y-112808086D01*
X91157000Y-112929371D01*
X90903000Y-112929371D01*
X90680959Y-112808086D01*
X90174866Y-113047611D01*
X89798959Y-113462577D01*
X89638096Y-113850961D01*
X80258656Y-113850961D01*
X80066534Y-113387138D01*
X79662862Y-112983466D01*
X79135439Y-112765000D01*
X78564561Y-112765000D01*
X78037138Y-112983466D01*
X77633466Y-113387138D01*
X77415000Y-113914561D01*
X71468730Y-113914561D01*
X71762955Y-113694469D01*
X72238769Y-112893170D01*
X72319146Y-112595793D01*
X72209345Y-112224780D01*
X68363600Y-112224780D01*
X68109600Y-112224780D01*
X64263855Y-112224780D01*
X64154054Y-112595793D01*
X60710000Y-112595793D01*
X60710000Y-111599767D01*
X64154054Y-111599767D01*
X64263855Y-111970780D01*
X68109600Y-111970780D01*
X68109600Y-109712720D01*
X68363600Y-109712720D01*
X68363600Y-111970780D01*
X72209345Y-111970780D01*
X72319146Y-111599767D01*
X72238769Y-111302390D01*
X72020291Y-110934460D01*
X72374260Y-110934460D01*
X72374260Y-109626360D01*
X72628260Y-109626360D01*
X72628260Y-110934460D01*
X73077840Y-110934460D01*
X73617362Y-110776619D01*
X74055412Y-110424327D01*
X74060757Y-110414561D01*
X88665000Y-110414561D01*
X88665000Y-110985439D01*
X88883466Y-111512862D01*
X89287138Y-111916534D01*
X89814561Y-112135000D01*
X90385439Y-112135000D01*
X90912862Y-111916534D01*
X91316534Y-111512862D01*
X91535000Y-110985439D01*
X91535000Y-110414561D01*
X91316534Y-109887138D01*
X90912862Y-109483466D01*
X90385439Y-109265000D01*
X89814561Y-109265000D01*
X89287138Y-109483466D01*
X88883466Y-109887138D01*
X88665000Y-110414561D01*
X74060757Y-110414561D01*
X74325301Y-109931217D01*
X74342843Y-109848415D01*
X74220856Y-109626360D01*
X72628260Y-109626360D01*
X72374260Y-109626360D01*
X70781664Y-109626360D01*
X70659677Y-109848415D01*
X70660453Y-109852076D01*
X70113660Y-109712720D01*
X68363600Y-109712720D01*
X68109600Y-109712720D01*
X66359540Y-109712720D01*
X65456484Y-109942873D01*
X64710245Y-110501091D01*
X64234431Y-111302390D01*
X64154054Y-111599767D01*
X60710000Y-111599767D01*
X60710000Y-107000000D01*
X70588465Y-107000000D01*
X70699846Y-107559948D01*
X71017031Y-108034649D01*
X71345412Y-108254066D01*
X70947108Y-108574393D01*
X70677219Y-109067503D01*
X70659677Y-109150305D01*
X70781664Y-109372360D01*
X72374260Y-109372360D01*
X72374260Y-109352360D01*
X72628260Y-109352360D01*
X72628260Y-109372360D01*
X74220856Y-109372360D01*
X74342843Y-109150305D01*
X74325301Y-109067503D01*
X74055412Y-108574393D01*
X73657108Y-108254066D01*
X73985489Y-108034649D01*
X74302674Y-107559948D01*
X74414055Y-107000000D01*
X74302674Y-106440052D01*
X73985489Y-105965351D01*
X73510788Y-105648166D01*
X73092183Y-105564900D01*
X71910337Y-105564900D01*
X71491732Y-105648166D01*
X71017031Y-105965351D01*
X70699846Y-106440052D01*
X70588465Y-107000000D01*
X60710000Y-107000000D01*
X60710000Y-104555431D01*
X82765000Y-104555431D01*
X82765000Y-105444569D01*
X83105259Y-106266026D01*
X83733974Y-106894741D01*
X84555431Y-107235000D01*
X85444569Y-107235000D01*
X86266026Y-106894741D01*
X86894741Y-106266026D01*
X87112628Y-105740000D01*
X94335908Y-105740000D01*
X94451161Y-106319418D01*
X94779375Y-106810625D01*
X95077761Y-107010000D01*
X94779375Y-107209375D01*
X94451161Y-107700582D01*
X94335908Y-108280000D01*
X94451161Y-108859418D01*
X94779375Y-109350625D01*
X95270582Y-109678839D01*
X95703744Y-109765000D01*
X95996256Y-109765000D01*
X96429418Y-109678839D01*
X96920625Y-109350625D01*
X97248839Y-108859418D01*
X97364092Y-108280000D01*
X97248839Y-107700582D01*
X96920625Y-107209375D01*
X96622239Y-107010000D01*
X96920625Y-106810625D01*
X97248839Y-106319418D01*
X97364092Y-105740000D01*
X97248839Y-105160582D01*
X96920625Y-104669375D01*
X96902381Y-104657184D01*
X96947765Y-104648157D01*
X97157809Y-104507809D01*
X97298157Y-104297765D01*
X97347440Y-104050000D01*
X97347440Y-102350000D01*
X97298157Y-102102235D01*
X97157809Y-101892191D01*
X96947765Y-101751843D01*
X96700000Y-101702560D01*
X95000000Y-101702560D01*
X94752235Y-101751843D01*
X94542191Y-101892191D01*
X94401843Y-102102235D01*
X94352560Y-102350000D01*
X94352560Y-104050000D01*
X94401843Y-104297765D01*
X94542191Y-104507809D01*
X94752235Y-104648157D01*
X94797619Y-104657184D01*
X94779375Y-104669375D01*
X94451161Y-105160582D01*
X94335908Y-105740000D01*
X87112628Y-105740000D01*
X87235000Y-105444569D01*
X87235000Y-104555431D01*
X86894741Y-103733974D01*
X86266026Y-103105259D01*
X85444569Y-102765000D01*
X84555431Y-102765000D01*
X83733974Y-103105259D01*
X83105259Y-103733974D01*
X82765000Y-104555431D01*
X60710000Y-104555431D01*
X60710000Y-102397693D01*
X64154054Y-102397693D01*
X64234431Y-102695070D01*
X64710245Y-103496369D01*
X65456484Y-104054587D01*
X66359540Y-104284740D01*
X68109600Y-104284740D01*
X68109600Y-102026680D01*
X68363600Y-102026680D01*
X68363600Y-104284740D01*
X70113660Y-104284740D01*
X71016716Y-104054587D01*
X71762955Y-103496369D01*
X72238769Y-102695070D01*
X72319146Y-102397693D01*
X72209345Y-102026680D01*
X68363600Y-102026680D01*
X68109600Y-102026680D01*
X64263855Y-102026680D01*
X64154054Y-102397693D01*
X60710000Y-102397693D01*
X60710000Y-101401667D01*
X64154054Y-101401667D01*
X64263855Y-101772680D01*
X68109600Y-101772680D01*
X68109600Y-99514620D01*
X68363600Y-99514620D01*
X68363600Y-101772680D01*
X72209345Y-101772680D01*
X72319146Y-101401667D01*
X72238769Y-101104290D01*
X71762955Y-100302991D01*
X71016716Y-99744773D01*
X70113660Y-99514620D01*
X68363600Y-99514620D01*
X68109600Y-99514620D01*
X66359540Y-99514620D01*
X65456484Y-99744773D01*
X64710245Y-100302991D01*
X64234431Y-101104290D01*
X64154054Y-101401667D01*
X60710000Y-101401667D01*
X60710000Y-98520000D01*
X88636887Y-98520000D01*
X88748260Y-99079909D01*
X89065423Y-99554577D01*
X89540091Y-99871740D01*
X89958667Y-99955000D01*
X90241333Y-99955000D01*
X90659909Y-99871740D01*
X91134577Y-99554577D01*
X91451740Y-99079909D01*
X91563113Y-98520000D01*
X91451740Y-97960091D01*
X91134577Y-97485423D01*
X90659909Y-97168260D01*
X90241333Y-97085000D01*
X89958667Y-97085000D01*
X89540091Y-97168260D01*
X89065423Y-97485423D01*
X88748260Y-97960091D01*
X88636887Y-98520000D01*
X60710000Y-98520000D01*
X60710000Y-77000000D01*
X65226887Y-77000000D01*
X65338260Y-77559909D01*
X65655423Y-78034577D01*
X66130091Y-78351740D01*
X66548667Y-78435000D01*
X66831333Y-78435000D01*
X67249909Y-78351740D01*
X67724577Y-78034577D01*
X67960000Y-77682242D01*
X68195423Y-78034577D01*
X68670091Y-78351740D01*
X69088667Y-78435000D01*
X69371333Y-78435000D01*
X69789909Y-78351740D01*
X70264577Y-78034577D01*
X70500000Y-77682242D01*
X70735423Y-78034577D01*
X71210091Y-78351740D01*
X71628667Y-78435000D01*
X71911333Y-78435000D01*
X72329909Y-78351740D01*
X72804577Y-78034577D01*
X73040000Y-77682242D01*
X73275423Y-78034577D01*
X73750091Y-78351740D01*
X74168667Y-78435000D01*
X74451333Y-78435000D01*
X74869909Y-78351740D01*
X75344577Y-78034577D01*
X75580000Y-77682242D01*
X75815423Y-78034577D01*
X76290091Y-78351740D01*
X76708667Y-78435000D01*
X76991333Y-78435000D01*
X77409909Y-78351740D01*
X77884577Y-78034577D01*
X78120000Y-77682242D01*
X78355423Y-78034577D01*
X78830091Y-78351740D01*
X79248667Y-78435000D01*
X79531333Y-78435000D01*
X79949909Y-78351740D01*
X80424577Y-78034577D01*
X80660000Y-77682242D01*
X80895423Y-78034577D01*
X81172713Y-78219856D01*
X81214097Y-78427907D01*
X81382072Y-78679299D01*
X81445528Y-78721699D01*
X83458301Y-80734473D01*
X83500701Y-80797929D01*
X83752093Y-80965904D01*
X83973778Y-81010000D01*
X83973782Y-81010000D01*
X84048629Y-81024888D01*
X84123476Y-81010000D01*
X107665198Y-81010000D01*
X104765528Y-83909671D01*
X104702072Y-83952071D01*
X104659672Y-84015527D01*
X104659671Y-84015528D01*
X104534097Y-84203463D01*
X104475112Y-84500000D01*
X104490001Y-84574852D01*
X104490000Y-93611956D01*
X104215423Y-93795423D01*
X104030000Y-94072928D01*
X103844577Y-93795423D01*
X103369909Y-93478260D01*
X103069249Y-93418455D01*
X103284577Y-93274577D01*
X103601740Y-92799909D01*
X103713113Y-92240000D01*
X103601740Y-91680091D01*
X103284577Y-91205423D01*
X102809909Y-90888260D01*
X102391333Y-90805000D01*
X102108667Y-90805000D01*
X101690091Y-90888260D01*
X101215423Y-91205423D01*
X100959053Y-91589108D01*
X100862389Y-91384866D01*
X100447423Y-91008959D01*
X100059039Y-90848096D01*
X99837000Y-90970085D01*
X99837000Y-92113000D01*
X99857000Y-92113000D01*
X99857000Y-92367000D01*
X99837000Y-92367000D01*
X99837000Y-92387000D01*
X99583000Y-92387000D01*
X99583000Y-92367000D01*
X99563000Y-92367000D01*
X99563000Y-92113000D01*
X99583000Y-92113000D01*
X99583000Y-90970085D01*
X99360961Y-90848096D01*
X98972577Y-91008959D01*
X98557611Y-91384866D01*
X98460947Y-91589108D01*
X98204577Y-91205423D01*
X97729909Y-90888260D01*
X97311333Y-90805000D01*
X97028667Y-90805000D01*
X96610091Y-90888260D01*
X96135423Y-91205423D01*
X95900000Y-91557758D01*
X95664577Y-91205423D01*
X95189909Y-90888260D01*
X94771333Y-90805000D01*
X94488667Y-90805000D01*
X94070091Y-90888260D01*
X93595423Y-91205423D01*
X93360000Y-91557758D01*
X93124577Y-91205423D01*
X92649909Y-90888260D01*
X92231333Y-90805000D01*
X91948667Y-90805000D01*
X91530091Y-90888260D01*
X91055423Y-91205423D01*
X90820000Y-91557758D01*
X90584577Y-91205423D01*
X90109909Y-90888260D01*
X89691333Y-90805000D01*
X89408667Y-90805000D01*
X88990091Y-90888260D01*
X88515423Y-91205423D01*
X88280000Y-91557758D01*
X88044577Y-91205423D01*
X87569909Y-90888260D01*
X87151333Y-90805000D01*
X86868667Y-90805000D01*
X86450091Y-90888260D01*
X85975423Y-91205423D01*
X85740000Y-91557758D01*
X85504577Y-91205423D01*
X85029909Y-90888260D01*
X84611333Y-90805000D01*
X84328667Y-90805000D01*
X83910091Y-90888260D01*
X83435423Y-91205423D01*
X83200000Y-91557758D01*
X82964577Y-91205423D01*
X82489909Y-90888260D01*
X82071333Y-90805000D01*
X81788667Y-90805000D01*
X81370091Y-90888260D01*
X80895423Y-91205423D01*
X80660000Y-91557758D01*
X80424577Y-91205423D01*
X79949909Y-90888260D01*
X79531333Y-90805000D01*
X79248667Y-90805000D01*
X78830091Y-90888260D01*
X78355423Y-91205423D01*
X78120000Y-91557758D01*
X77884577Y-91205423D01*
X77409909Y-90888260D01*
X76991333Y-90805000D01*
X76708667Y-90805000D01*
X76290091Y-90888260D01*
X75815423Y-91205423D01*
X75580000Y-91557758D01*
X75344577Y-91205423D01*
X74869909Y-90888260D01*
X74451333Y-90805000D01*
X74168667Y-90805000D01*
X73750091Y-90888260D01*
X73275423Y-91205423D01*
X73040000Y-91557758D01*
X72804577Y-91205423D01*
X72329909Y-90888260D01*
X71911333Y-90805000D01*
X71628667Y-90805000D01*
X71210091Y-90888260D01*
X70735423Y-91205423D01*
X70500000Y-91557758D01*
X70264577Y-91205423D01*
X69789909Y-90888260D01*
X69371333Y-90805000D01*
X69088667Y-90805000D01*
X68670091Y-90888260D01*
X68195423Y-91205423D01*
X67960000Y-91557758D01*
X67724577Y-91205423D01*
X67249909Y-90888260D01*
X66831333Y-90805000D01*
X66548667Y-90805000D01*
X66130091Y-90888260D01*
X65655423Y-91205423D01*
X65338260Y-91680091D01*
X65226887Y-92240000D01*
X65338260Y-92799909D01*
X65655423Y-93274577D01*
X66130091Y-93591740D01*
X66430751Y-93651545D01*
X66215423Y-93795423D01*
X65898260Y-94270091D01*
X65786887Y-94830000D01*
X65898260Y-95389909D01*
X66215423Y-95864577D01*
X66690091Y-96181740D01*
X67108667Y-96265000D01*
X67391333Y-96265000D01*
X67809909Y-96181740D01*
X68284577Y-95864577D01*
X68520000Y-95512242D01*
X68755423Y-95864577D01*
X69230091Y-96181740D01*
X69648667Y-96265000D01*
X69931333Y-96265000D01*
X70349909Y-96181740D01*
X70824577Y-95864577D01*
X71060000Y-95512242D01*
X71295423Y-95864577D01*
X71770091Y-96181740D01*
X72188667Y-96265000D01*
X72471333Y-96265000D01*
X72889909Y-96181740D01*
X73364577Y-95864577D01*
X73620947Y-95480892D01*
X73717611Y-95685134D01*
X74132577Y-96061041D01*
X74520961Y-96221904D01*
X74743000Y-96099915D01*
X74743000Y-94957000D01*
X74723000Y-94957000D01*
X74723000Y-94703000D01*
X74743000Y-94703000D01*
X74743000Y-94683000D01*
X74997000Y-94683000D01*
X74997000Y-94703000D01*
X75017000Y-94703000D01*
X75017000Y-94957000D01*
X74997000Y-94957000D01*
X74997000Y-96099915D01*
X75219039Y-96221904D01*
X75607423Y-96061041D01*
X76022389Y-95685134D01*
X76119053Y-95480892D01*
X76375423Y-95864577D01*
X76850091Y-96181740D01*
X77268667Y-96265000D01*
X77551333Y-96265000D01*
X77969909Y-96181740D01*
X78444577Y-95864577D01*
X78680000Y-95512242D01*
X78915423Y-95864577D01*
X79390091Y-96181740D01*
X79808667Y-96265000D01*
X80091333Y-96265000D01*
X80509909Y-96181740D01*
X80984577Y-95864577D01*
X81220000Y-95512242D01*
X81455423Y-95864577D01*
X81930091Y-96181740D01*
X82348667Y-96265000D01*
X82631333Y-96265000D01*
X83049909Y-96181740D01*
X83524577Y-95864577D01*
X83760000Y-95512242D01*
X83995423Y-95864577D01*
X84470091Y-96181740D01*
X84888667Y-96265000D01*
X85171333Y-96265000D01*
X85589909Y-96181740D01*
X86064577Y-95864577D01*
X86300000Y-95512242D01*
X86535423Y-95864577D01*
X87010091Y-96181740D01*
X87428667Y-96265000D01*
X87711333Y-96265000D01*
X88129909Y-96181740D01*
X88604577Y-95864577D01*
X88840000Y-95512242D01*
X89075423Y-95864577D01*
X89550091Y-96181740D01*
X89968667Y-96265000D01*
X90251333Y-96265000D01*
X90669909Y-96181740D01*
X91144577Y-95864577D01*
X91380000Y-95512242D01*
X91615423Y-95864577D01*
X92090091Y-96181740D01*
X92508667Y-96265000D01*
X92791333Y-96265000D01*
X93209909Y-96181740D01*
X93684577Y-95864577D01*
X93920000Y-95512242D01*
X94155423Y-95864577D01*
X94630091Y-96181740D01*
X95048667Y-96265000D01*
X95331333Y-96265000D01*
X95749909Y-96181740D01*
X96224577Y-95864577D01*
X96460000Y-95512242D01*
X96695423Y-95864577D01*
X97170091Y-96181740D01*
X97588667Y-96265000D01*
X97871333Y-96265000D01*
X98289909Y-96181740D01*
X98764577Y-95864577D01*
X99000000Y-95512242D01*
X99235423Y-95864577D01*
X99710091Y-96181740D01*
X100128667Y-96265000D01*
X100411333Y-96265000D01*
X100829909Y-96181740D01*
X101304577Y-95864577D01*
X101540000Y-95512242D01*
X101775423Y-95864577D01*
X102250091Y-96181740D01*
X102668667Y-96265000D01*
X102951333Y-96265000D01*
X103369909Y-96181740D01*
X103844577Y-95864577D01*
X104030000Y-95587072D01*
X104215423Y-95864577D01*
X104690091Y-96181740D01*
X105108667Y-96265000D01*
X105391333Y-96265000D01*
X105809909Y-96181740D01*
X106284577Y-95864577D01*
X106601740Y-95389909D01*
X106713113Y-94830000D01*
X106601740Y-94270091D01*
X106284577Y-93795423D01*
X106010000Y-93611957D01*
X106010000Y-88586858D01*
X117491000Y-88586858D01*
X117491000Y-89193142D01*
X117723015Y-89753277D01*
X118151723Y-90181985D01*
X118711858Y-90414000D01*
X119318142Y-90414000D01*
X119878277Y-90181985D01*
X120306985Y-89753277D01*
X120539000Y-89193142D01*
X120539000Y-88586858D01*
X120306985Y-88026723D01*
X119878277Y-87598015D01*
X119858425Y-87589792D01*
X119907591Y-87442196D01*
X119015000Y-86549605D01*
X118122409Y-87442196D01*
X118171575Y-87589792D01*
X118151723Y-87598015D01*
X117723015Y-88026723D01*
X117491000Y-88586858D01*
X106010000Y-88586858D01*
X106010000Y-86131965D01*
X117479484Y-86131965D01*
X117505277Y-86737700D01*
X117687461Y-87177533D01*
X117942804Y-87262591D01*
X118835395Y-86370000D01*
X119194605Y-86370000D01*
X120087196Y-87262591D01*
X120342539Y-87177533D01*
X120550516Y-86608035D01*
X120524723Y-86002300D01*
X120342539Y-85562467D01*
X120087196Y-85477409D01*
X119194605Y-86370000D01*
X118835395Y-86370000D01*
X117942804Y-85477409D01*
X117687461Y-85562467D01*
X117479484Y-86131965D01*
X106010000Y-86131965D01*
X106010000Y-84814801D01*
X109984473Y-80840329D01*
X110047929Y-80797929D01*
X110090331Y-80734470D01*
X113864802Y-76960000D01*
X117680236Y-76960000D01*
X117723015Y-77063277D01*
X118129738Y-77470000D01*
X117723015Y-77876723D01*
X117491000Y-78436858D01*
X117491000Y-79043142D01*
X117723015Y-79603277D01*
X118129738Y-80010000D01*
X117723015Y-80416723D01*
X117491000Y-80976858D01*
X117491000Y-81583142D01*
X117723015Y-82143277D01*
X118129738Y-82550000D01*
X117723015Y-82956723D01*
X117491000Y-83516858D01*
X117491000Y-84123142D01*
X117723015Y-84683277D01*
X118151723Y-85111985D01*
X118180357Y-85123845D01*
X118122409Y-85297804D01*
X119015000Y-86190395D01*
X119907591Y-85297804D01*
X119849643Y-85123845D01*
X119878277Y-85111985D01*
X120306985Y-84683277D01*
X120539000Y-84123142D01*
X120539000Y-83516858D01*
X120306985Y-82956723D01*
X119900262Y-82550000D01*
X120306985Y-82143277D01*
X120539000Y-81583142D01*
X120539000Y-80976858D01*
X120306985Y-80416723D01*
X119900262Y-80010000D01*
X120306985Y-79603277D01*
X120539000Y-79043142D01*
X120539000Y-78436858D01*
X120306985Y-77876723D01*
X119900262Y-77470000D01*
X120306985Y-77063277D01*
X120539000Y-76503142D01*
X120539000Y-75896858D01*
X120306985Y-75336723D01*
X119878277Y-74908015D01*
X119318142Y-74676000D01*
X118711858Y-74676000D01*
X118151723Y-74908015D01*
X117723015Y-75336723D01*
X117680236Y-75440000D01*
X113624847Y-75440000D01*
X113550000Y-75425112D01*
X113475153Y-75440000D01*
X113475148Y-75440000D01*
X113253463Y-75484096D01*
X113002071Y-75652071D01*
X112959671Y-75715527D01*
X109185199Y-79490000D01*
X84363432Y-79490000D01*
X82930667Y-78057235D01*
X82964577Y-78034577D01*
X83200000Y-77682242D01*
X83435423Y-78034577D01*
X83910091Y-78351740D01*
X84328667Y-78435000D01*
X84611333Y-78435000D01*
X85029909Y-78351740D01*
X85504577Y-78034577D01*
X85740000Y-77682242D01*
X85975423Y-78034577D01*
X86450091Y-78351740D01*
X86868667Y-78435000D01*
X87151333Y-78435000D01*
X87569909Y-78351740D01*
X88044577Y-78034577D01*
X88280000Y-77682242D01*
X88515423Y-78034577D01*
X88990091Y-78351740D01*
X89408667Y-78435000D01*
X89691333Y-78435000D01*
X90109909Y-78351740D01*
X90584577Y-78034577D01*
X90820000Y-77682242D01*
X91055423Y-78034577D01*
X91530091Y-78351740D01*
X91948667Y-78435000D01*
X92231333Y-78435000D01*
X92649909Y-78351740D01*
X93124577Y-78034577D01*
X93380947Y-77650892D01*
X93477611Y-77855134D01*
X93892577Y-78231041D01*
X94280961Y-78391904D01*
X94503000Y-78269915D01*
X94503000Y-77127000D01*
X94483000Y-77127000D01*
X94483000Y-76873000D01*
X94503000Y-76873000D01*
X94503000Y-76853000D01*
X94757000Y-76853000D01*
X94757000Y-76873000D01*
X94777000Y-76873000D01*
X94777000Y-77127000D01*
X94757000Y-77127000D01*
X94757000Y-78269915D01*
X94979039Y-78391904D01*
X95367423Y-78231041D01*
X95782389Y-77855134D01*
X95879053Y-77650892D01*
X96135423Y-78034577D01*
X96610091Y-78351740D01*
X97028667Y-78435000D01*
X97311333Y-78435000D01*
X97729909Y-78351740D01*
X98204577Y-78034577D01*
X98440000Y-77682242D01*
X98675423Y-78034577D01*
X99150091Y-78351740D01*
X99568667Y-78435000D01*
X99851333Y-78435000D01*
X100269909Y-78351740D01*
X100744577Y-78034577D01*
X100825215Y-77913894D01*
X100851843Y-78047765D01*
X100992191Y-78257809D01*
X101202235Y-78398157D01*
X101450000Y-78447440D01*
X103050000Y-78447440D01*
X103297765Y-78398157D01*
X103507809Y-78257809D01*
X103648157Y-78047765D01*
X103697440Y-77800000D01*
X103697440Y-76200000D01*
X103648157Y-75952235D01*
X103515850Y-75754225D01*
X103844577Y-75534577D01*
X103848155Y-75529223D01*
X103851843Y-75547765D01*
X103992191Y-75757809D01*
X104202235Y-75898157D01*
X104450000Y-75947440D01*
X106050000Y-75947440D01*
X106297765Y-75898157D01*
X106507809Y-75757809D01*
X106648157Y-75547765D01*
X106697440Y-75300000D01*
X106697440Y-73700000D01*
X106648157Y-73452235D01*
X106507809Y-73242191D01*
X106297765Y-73101843D01*
X106050000Y-73052560D01*
X104450000Y-73052560D01*
X104202235Y-73101843D01*
X103992191Y-73242191D01*
X103851843Y-73452235D01*
X103848155Y-73470777D01*
X103844577Y-73465423D01*
X103369909Y-73148260D01*
X102951333Y-73065000D01*
X102668667Y-73065000D01*
X102250091Y-73148260D01*
X101775423Y-73465423D01*
X101540000Y-73817758D01*
X101304577Y-73465423D01*
X100829909Y-73148260D01*
X100411333Y-73065000D01*
X100128667Y-73065000D01*
X99710091Y-73148260D01*
X99235423Y-73465423D01*
X99000000Y-73817758D01*
X98764577Y-73465423D01*
X98289909Y-73148260D01*
X97871333Y-73065000D01*
X97588667Y-73065000D01*
X97170091Y-73148260D01*
X96695423Y-73465423D01*
X96460000Y-73817758D01*
X96224577Y-73465423D01*
X95749909Y-73148260D01*
X95331333Y-73065000D01*
X95048667Y-73065000D01*
X94630091Y-73148260D01*
X94155423Y-73465423D01*
X93920000Y-73817758D01*
X93684577Y-73465423D01*
X93209909Y-73148260D01*
X92791333Y-73065000D01*
X92508667Y-73065000D01*
X92090091Y-73148260D01*
X91615423Y-73465423D01*
X91380000Y-73817758D01*
X91144577Y-73465423D01*
X90669909Y-73148260D01*
X90251333Y-73065000D01*
X89968667Y-73065000D01*
X89550091Y-73148260D01*
X89075423Y-73465423D01*
X88840000Y-73817758D01*
X88604577Y-73465423D01*
X88129909Y-73148260D01*
X87711333Y-73065000D01*
X87428667Y-73065000D01*
X87010091Y-73148260D01*
X86535423Y-73465423D01*
X86300000Y-73817758D01*
X86064577Y-73465423D01*
X85589909Y-73148260D01*
X85171333Y-73065000D01*
X84888667Y-73065000D01*
X84470091Y-73148260D01*
X83995423Y-73465423D01*
X83760000Y-73817758D01*
X83524577Y-73465423D01*
X83049909Y-73148260D01*
X82631333Y-73065000D01*
X82348667Y-73065000D01*
X81930091Y-73148260D01*
X81455423Y-73465423D01*
X81220000Y-73817758D01*
X80984577Y-73465423D01*
X80509909Y-73148260D01*
X80091333Y-73065000D01*
X79808667Y-73065000D01*
X79390091Y-73148260D01*
X78915423Y-73465423D01*
X78680000Y-73817758D01*
X78444577Y-73465423D01*
X77969909Y-73148260D01*
X77551333Y-73065000D01*
X77268667Y-73065000D01*
X76850091Y-73148260D01*
X76375423Y-73465423D01*
X76058260Y-73940091D01*
X75946887Y-74500000D01*
X76058260Y-75059909D01*
X76375423Y-75534577D01*
X76486956Y-75609101D01*
X76290091Y-75648260D01*
X75815423Y-75965423D01*
X75580000Y-76317758D01*
X75344577Y-75965423D01*
X74869909Y-75648260D01*
X74451333Y-75565000D01*
X74168667Y-75565000D01*
X73750091Y-75648260D01*
X73275423Y-75965423D01*
X73040000Y-76317758D01*
X72804577Y-75965423D01*
X72329909Y-75648260D01*
X71911333Y-75565000D01*
X71628667Y-75565000D01*
X71210091Y-75648260D01*
X70735423Y-75965423D01*
X70500000Y-76317758D01*
X70264577Y-75965423D01*
X69789909Y-75648260D01*
X69371333Y-75565000D01*
X69088667Y-75565000D01*
X68670091Y-75648260D01*
X68195423Y-75965423D01*
X67960000Y-76317758D01*
X67724577Y-75965423D01*
X67249909Y-75648260D01*
X66831333Y-75565000D01*
X66548667Y-75565000D01*
X66130091Y-75648260D01*
X65655423Y-75965423D01*
X65338260Y-76440091D01*
X65226887Y-77000000D01*
X60710000Y-77000000D01*
X60710000Y-67845793D01*
X64154054Y-67845793D01*
X64234431Y-68143170D01*
X64710245Y-68944469D01*
X65456484Y-69502687D01*
X66359540Y-69732840D01*
X68109600Y-69732840D01*
X68109600Y-67474780D01*
X68363600Y-67474780D01*
X68363600Y-69732840D01*
X70113660Y-69732840D01*
X71016716Y-69502687D01*
X71762955Y-68944469D01*
X72238769Y-68143170D01*
X72319146Y-67845793D01*
X72258242Y-67640000D01*
X89135908Y-67640000D01*
X89251161Y-68219418D01*
X89579375Y-68710625D01*
X89877761Y-68910000D01*
X89579375Y-69109375D01*
X89251161Y-69600582D01*
X89135908Y-70180000D01*
X89251161Y-70759418D01*
X89579375Y-71250625D01*
X90070582Y-71578839D01*
X90503744Y-71665000D01*
X90796256Y-71665000D01*
X91229418Y-71578839D01*
X91720625Y-71250625D01*
X92048839Y-70759418D01*
X92080549Y-70600000D01*
X93006887Y-70600000D01*
X93118260Y-71159909D01*
X93435423Y-71634577D01*
X93910091Y-71951740D01*
X94328667Y-72035000D01*
X94611333Y-72035000D01*
X95029909Y-71951740D01*
X95504577Y-71634577D01*
X95821740Y-71159909D01*
X95933113Y-70600000D01*
X95876336Y-70314561D01*
X105215000Y-70314561D01*
X105215000Y-70885439D01*
X105433466Y-71412862D01*
X105837138Y-71816534D01*
X106364561Y-72035000D01*
X106935439Y-72035000D01*
X107462862Y-71816534D01*
X107866534Y-71412862D01*
X108085000Y-70885439D01*
X108085000Y-70314561D01*
X107866534Y-69787138D01*
X107462862Y-69383466D01*
X106935439Y-69165000D01*
X106364561Y-69165000D01*
X105837138Y-69383466D01*
X105433466Y-69787138D01*
X105215000Y-70314561D01*
X95876336Y-70314561D01*
X95821740Y-70040091D01*
X95504577Y-69565423D01*
X95029909Y-69248260D01*
X94611333Y-69165000D01*
X94328667Y-69165000D01*
X93910091Y-69248260D01*
X93435423Y-69565423D01*
X93118260Y-70040091D01*
X93006887Y-70600000D01*
X92080549Y-70600000D01*
X92164092Y-70180000D01*
X92048839Y-69600582D01*
X91720625Y-69109375D01*
X91422239Y-68910000D01*
X91720625Y-68710625D01*
X92048839Y-68219418D01*
X92164092Y-67640000D01*
X92048839Y-67060582D01*
X91720625Y-66569375D01*
X91702381Y-66557184D01*
X91747765Y-66548157D01*
X91957809Y-66407809D01*
X92098157Y-66197765D01*
X92147440Y-65950000D01*
X92147440Y-65300000D01*
X92906887Y-65300000D01*
X93018260Y-65859909D01*
X93335423Y-66334577D01*
X93810091Y-66651740D01*
X94228667Y-66735000D01*
X94511333Y-66735000D01*
X94929909Y-66651740D01*
X95404577Y-66334577D01*
X95721740Y-65859909D01*
X95833113Y-65300000D01*
X95776336Y-65014561D01*
X105115000Y-65014561D01*
X105115000Y-65585439D01*
X105333466Y-66112862D01*
X105737138Y-66516534D01*
X106264561Y-66735000D01*
X106835439Y-66735000D01*
X107362862Y-66516534D01*
X107766534Y-66112862D01*
X107985000Y-65585439D01*
X107985000Y-65014561D01*
X107890224Y-64785750D01*
X109415000Y-64785750D01*
X109415000Y-65376310D01*
X109511673Y-65609699D01*
X109690302Y-65788327D01*
X109923691Y-65885000D01*
X109996313Y-65885000D01*
X109625853Y-66255460D01*
X109415000Y-66764506D01*
X109415000Y-67315494D01*
X109625853Y-67824540D01*
X110015460Y-68214147D01*
X110246870Y-68310000D01*
X110015460Y-68405853D01*
X109625853Y-68795460D01*
X109415000Y-69304506D01*
X109415000Y-69855494D01*
X109625853Y-70364540D01*
X110015460Y-70754147D01*
X110524506Y-70965000D01*
X111075494Y-70965000D01*
X111584540Y-70754147D01*
X111974147Y-70364540D01*
X112185000Y-69855494D01*
X112185000Y-69304506D01*
X111974147Y-68795460D01*
X111584540Y-68405853D01*
X111353130Y-68310000D01*
X111584540Y-68214147D01*
X111974147Y-67824540D01*
X112185000Y-67315494D01*
X112185000Y-66764506D01*
X111974147Y-66255460D01*
X111603687Y-65885000D01*
X111676309Y-65885000D01*
X111909698Y-65788327D01*
X112088327Y-65609699D01*
X112185000Y-65376310D01*
X112185000Y-64785750D01*
X112026250Y-64627000D01*
X110927000Y-64627000D01*
X110927000Y-64647000D01*
X110673000Y-64647000D01*
X110673000Y-64627000D01*
X109573750Y-64627000D01*
X109415000Y-64785750D01*
X107890224Y-64785750D01*
X107766534Y-64487138D01*
X107362862Y-64083466D01*
X106835439Y-63865000D01*
X106264561Y-63865000D01*
X105737138Y-64083466D01*
X105333466Y-64487138D01*
X105115000Y-65014561D01*
X95776336Y-65014561D01*
X95721740Y-64740091D01*
X95404577Y-64265423D01*
X94929909Y-63948260D01*
X94511333Y-63865000D01*
X94228667Y-63865000D01*
X93810091Y-63948260D01*
X93335423Y-64265423D01*
X93018260Y-64740091D01*
X92906887Y-65300000D01*
X92147440Y-65300000D01*
X92147440Y-64250000D01*
X92098157Y-64002235D01*
X91957809Y-63792191D01*
X91747765Y-63651843D01*
X91606229Y-63623690D01*
X109415000Y-63623690D01*
X109415000Y-64214250D01*
X109573750Y-64373000D01*
X110673000Y-64373000D01*
X110673000Y-63273750D01*
X110927000Y-63273750D01*
X110927000Y-64373000D01*
X112026250Y-64373000D01*
X112185000Y-64214250D01*
X112185000Y-63623690D01*
X112088327Y-63390301D01*
X111909698Y-63211673D01*
X111676309Y-63115000D01*
X111085750Y-63115000D01*
X110927000Y-63273750D01*
X110673000Y-63273750D01*
X110514250Y-63115000D01*
X109923691Y-63115000D01*
X109690302Y-63211673D01*
X109511673Y-63390301D01*
X109415000Y-63623690D01*
X91606229Y-63623690D01*
X91500000Y-63602560D01*
X89800000Y-63602560D01*
X89552235Y-63651843D01*
X89342191Y-63792191D01*
X89201843Y-64002235D01*
X89152560Y-64250000D01*
X89152560Y-65950000D01*
X89201843Y-66197765D01*
X89342191Y-66407809D01*
X89552235Y-66548157D01*
X89597619Y-66557184D01*
X89579375Y-66569375D01*
X89251161Y-67060582D01*
X89135908Y-67640000D01*
X72258242Y-67640000D01*
X72209345Y-67474780D01*
X68363600Y-67474780D01*
X68109600Y-67474780D01*
X64263855Y-67474780D01*
X64154054Y-67845793D01*
X60710000Y-67845793D01*
X60710000Y-66849767D01*
X64154054Y-66849767D01*
X64263855Y-67220780D01*
X68109600Y-67220780D01*
X68109600Y-64962720D01*
X68363600Y-64962720D01*
X68363600Y-67220780D01*
X72209345Y-67220780D01*
X72319146Y-66849767D01*
X72238769Y-66552390D01*
X72020291Y-66184460D01*
X72374260Y-66184460D01*
X72374260Y-64876360D01*
X72628260Y-64876360D01*
X72628260Y-66184460D01*
X73077840Y-66184460D01*
X73617362Y-66026619D01*
X74055412Y-65674327D01*
X74325301Y-65181217D01*
X74342843Y-65098415D01*
X74220856Y-64876360D01*
X72628260Y-64876360D01*
X72374260Y-64876360D01*
X70781664Y-64876360D01*
X70659677Y-65098415D01*
X70660453Y-65102076D01*
X70113660Y-64962720D01*
X68363600Y-64962720D01*
X68109600Y-64962720D01*
X66359540Y-64962720D01*
X65456484Y-65192873D01*
X64710245Y-65751091D01*
X64234431Y-66552390D01*
X64154054Y-66849767D01*
X60710000Y-66849767D01*
X60710000Y-62250000D01*
X70588465Y-62250000D01*
X70699846Y-62809948D01*
X71017031Y-63284649D01*
X71345412Y-63504066D01*
X70947108Y-63824393D01*
X70677219Y-64317503D01*
X70659677Y-64400305D01*
X70781664Y-64622360D01*
X72374260Y-64622360D01*
X72374260Y-64602360D01*
X72628260Y-64602360D01*
X72628260Y-64622360D01*
X74220856Y-64622360D01*
X74257623Y-64555431D01*
X82765000Y-64555431D01*
X82765000Y-65444569D01*
X83105259Y-66266026D01*
X83733974Y-66894741D01*
X84555431Y-67235000D01*
X85444569Y-67235000D01*
X86266026Y-66894741D01*
X86894741Y-66266026D01*
X87235000Y-65444569D01*
X87235000Y-64555431D01*
X86894741Y-63733974D01*
X86266026Y-63105259D01*
X85444569Y-62765000D01*
X84555431Y-62765000D01*
X83733974Y-63105259D01*
X83105259Y-63733974D01*
X82765000Y-64555431D01*
X74257623Y-64555431D01*
X74342843Y-64400305D01*
X74325301Y-64317503D01*
X74055412Y-63824393D01*
X73657108Y-63504066D01*
X73985489Y-63284649D01*
X74302674Y-62809948D01*
X74414055Y-62250000D01*
X74302674Y-61690052D01*
X73985489Y-61215351D01*
X73510788Y-60898166D01*
X73092183Y-60814900D01*
X71910337Y-60814900D01*
X71491732Y-60898166D01*
X71017031Y-61215351D01*
X70699846Y-61690052D01*
X70588465Y-62250000D01*
X60710000Y-62250000D01*
X60710000Y-57647693D01*
X64154054Y-57647693D01*
X64234431Y-57945070D01*
X64710245Y-58746369D01*
X65456484Y-59304587D01*
X66359540Y-59534740D01*
X68109600Y-59534740D01*
X68109600Y-57276680D01*
X68363600Y-57276680D01*
X68363600Y-59534740D01*
X70113660Y-59534740D01*
X71016716Y-59304587D01*
X71762955Y-58746369D01*
X72238769Y-57945070D01*
X72319146Y-57647693D01*
X72209345Y-57276680D01*
X68363600Y-57276680D01*
X68109600Y-57276680D01*
X64263855Y-57276680D01*
X64154054Y-57647693D01*
X60710000Y-57647693D01*
X60710000Y-56651667D01*
X64154054Y-56651667D01*
X64263855Y-57022680D01*
X68109600Y-57022680D01*
X68109600Y-54764620D01*
X68363600Y-54764620D01*
X68363600Y-57022680D01*
X72209345Y-57022680D01*
X72319146Y-56651667D01*
X72238769Y-56354290D01*
X71762955Y-55552991D01*
X71016716Y-54994773D01*
X70113660Y-54764620D01*
X68363600Y-54764620D01*
X68109600Y-54764620D01*
X66359540Y-54764620D01*
X65456484Y-54994773D01*
X64710245Y-55552991D01*
X64234431Y-56354290D01*
X64154054Y-56651667D01*
X60710000Y-56651667D01*
X60710000Y-48699642D01*
X67990000Y-48699642D01*
X67990000Y-49300358D01*
X68219884Y-49855346D01*
X68644654Y-50280116D01*
X69199642Y-50510000D01*
X69800358Y-50510000D01*
X70355346Y-50280116D01*
X70524496Y-50110966D01*
X70526843Y-50122765D01*
X70667191Y-50332809D01*
X70877235Y-50473157D01*
X71125000Y-50522440D01*
X71351518Y-50522440D01*
X71452072Y-50672929D01*
X71515528Y-50715329D01*
X76034670Y-55234472D01*
X76077071Y-55297929D01*
X76140527Y-55340329D01*
X76328462Y-55465904D01*
X76376605Y-55475480D01*
X76550148Y-55510000D01*
X76550152Y-55510000D01*
X76625000Y-55524888D01*
X76699848Y-55510000D01*
X104870199Y-55510000D01*
X122613778Y-73253581D01*
X122571000Y-73356858D01*
X122571000Y-73963142D01*
X122803015Y-74523277D01*
X123231723Y-74951985D01*
X123791858Y-75184000D01*
X124398142Y-75184000D01*
X124958277Y-74951985D01*
X125365000Y-74545262D01*
X125771723Y-74951985D01*
X126331858Y-75184000D01*
X126938142Y-75184000D01*
X127498277Y-74951985D01*
X127905000Y-74545262D01*
X128311723Y-74951985D01*
X128871858Y-75184000D01*
X129478142Y-75184000D01*
X130038277Y-74951985D01*
X130466985Y-74523277D01*
X130699000Y-73963142D01*
X130699000Y-73356858D01*
X130466985Y-72796723D01*
X130283117Y-72612855D01*
X130311765Y-72607157D01*
X130521809Y-72466809D01*
X130662157Y-72256765D01*
X130711440Y-72009000D01*
X130711440Y-70286242D01*
X130740000Y-70314802D01*
X130740001Y-70830149D01*
X130725112Y-70905000D01*
X130784097Y-71201537D01*
X130893441Y-71365181D01*
X130952072Y-71452929D01*
X131015528Y-71495329D01*
X132773779Y-73253581D01*
X132731000Y-73356858D01*
X132731000Y-73963142D01*
X132963015Y-74523277D01*
X133391723Y-74951985D01*
X133951858Y-75184000D01*
X134558142Y-75184000D01*
X135118277Y-74951985D01*
X135525000Y-74545262D01*
X135931723Y-74951985D01*
X136491858Y-75184000D01*
X137098142Y-75184000D01*
X137658277Y-74951985D01*
X138065000Y-74545262D01*
X138471723Y-74951985D01*
X139031858Y-75184000D01*
X139638142Y-75184000D01*
X140198277Y-74951985D01*
X140626985Y-74523277D01*
X140859000Y-73963142D01*
X140859000Y-73356858D01*
X140816221Y-73253580D01*
X141734473Y-72335329D01*
X141797929Y-72292929D01*
X141875000Y-72177584D01*
X141891006Y-72201537D01*
X141952072Y-72292929D01*
X142015528Y-72335329D01*
X142933779Y-73253580D01*
X142891000Y-73356858D01*
X142891000Y-73963142D01*
X143123015Y-74523277D01*
X143551723Y-74951985D01*
X144111858Y-75184000D01*
X144718142Y-75184000D01*
X145278277Y-74951985D01*
X145685000Y-74545262D01*
X146091723Y-74951985D01*
X146651858Y-75184000D01*
X147258142Y-75184000D01*
X147818277Y-74951985D01*
X148225000Y-74545262D01*
X148631723Y-74951985D01*
X149191858Y-75184000D01*
X149798142Y-75184000D01*
X150358277Y-74951985D01*
X150786985Y-74523277D01*
X151019000Y-73963142D01*
X151019000Y-73356858D01*
X150976221Y-73253580D01*
X151734473Y-72495329D01*
X151797929Y-72452929D01*
X151947238Y-72229473D01*
X151965904Y-72201538D01*
X151982367Y-72118772D01*
X152010000Y-71979852D01*
X152010000Y-71979848D01*
X152024888Y-71905000D01*
X152010000Y-71830152D01*
X152010000Y-69314801D01*
X152484473Y-68840329D01*
X152547929Y-68797929D01*
X152601000Y-68718503D01*
X152601000Y-72371147D01*
X152586111Y-72445999D01*
X152645096Y-72742536D01*
X152695836Y-72818473D01*
X152813071Y-72993928D01*
X152876527Y-73036328D01*
X153093779Y-73253580D01*
X153051000Y-73356858D01*
X153051000Y-73963142D01*
X153283015Y-74523277D01*
X153711723Y-74951985D01*
X154271858Y-75184000D01*
X154878142Y-75184000D01*
X155438277Y-74951985D01*
X155845000Y-74545262D01*
X156251723Y-74951985D01*
X156811858Y-75184000D01*
X157418142Y-75184000D01*
X157978277Y-74951985D01*
X158385000Y-74545262D01*
X158791723Y-74951985D01*
X159351858Y-75184000D01*
X159958142Y-75184000D01*
X160518277Y-74951985D01*
X160946985Y-74523277D01*
X160990004Y-74419420D01*
X161208772Y-74375904D01*
X161460164Y-74207929D01*
X161502566Y-74144470D01*
X163234473Y-72412564D01*
X163297929Y-72370164D01*
X163465904Y-72118772D01*
X163510000Y-71897087D01*
X163510000Y-71897083D01*
X163524888Y-71822236D01*
X163510000Y-71747389D01*
X163510000Y-68064801D01*
X167019371Y-64555431D01*
X167765000Y-64555431D01*
X167765000Y-65444569D01*
X168105259Y-66266026D01*
X168733974Y-66894741D01*
X169555431Y-67235000D01*
X170444569Y-67235000D01*
X171266026Y-66894741D01*
X171894741Y-66266026D01*
X172235000Y-65444569D01*
X172235000Y-64555431D01*
X171894741Y-63733974D01*
X171266026Y-63105259D01*
X170444569Y-62765000D01*
X169555431Y-62765000D01*
X168733974Y-63105259D01*
X168105259Y-63733974D01*
X167765000Y-64555431D01*
X167019371Y-64555431D01*
X169064803Y-62510000D01*
X170300153Y-62510000D01*
X170375000Y-62524888D01*
X170449847Y-62510000D01*
X170449852Y-62510000D01*
X170671537Y-62465904D01*
X170922929Y-62297929D01*
X170965331Y-62234470D01*
X182484473Y-50715329D01*
X182547929Y-50672929D01*
X182648483Y-50522440D01*
X182875000Y-50522440D01*
X183122765Y-50473157D01*
X183332809Y-50332809D01*
X183473157Y-50122765D01*
X183522440Y-49875000D01*
X183522440Y-48125000D01*
X183473157Y-47877235D01*
X183332809Y-47667191D01*
X183122765Y-47526843D01*
X182875000Y-47477560D01*
X181125000Y-47477560D01*
X180877235Y-47526843D01*
X180667191Y-47667191D01*
X180526843Y-47877235D01*
X180524496Y-47889034D01*
X180355346Y-47719884D01*
X179800358Y-47490000D01*
X179199642Y-47490000D01*
X178644654Y-47719884D01*
X178219884Y-48144654D01*
X177990000Y-48699642D01*
X177990000Y-49300358D01*
X178219884Y-49855346D01*
X178644654Y-50280116D01*
X179199642Y-50510000D01*
X179800358Y-50510000D01*
X180355346Y-50280116D01*
X180524496Y-50110966D01*
X180526843Y-50122765D01*
X180667191Y-50332809D01*
X180697282Y-50352916D01*
X170060199Y-60990000D01*
X168824846Y-60990000D01*
X168749999Y-60975112D01*
X168675152Y-60990000D01*
X168675148Y-60990000D01*
X168453463Y-61034096D01*
X168453461Y-61034097D01*
X168453462Y-61034097D01*
X168265526Y-61159671D01*
X168265524Y-61159673D01*
X168202071Y-61202071D01*
X168159673Y-61265524D01*
X162265530Y-67159669D01*
X162202071Y-67202071D01*
X162034096Y-67453464D01*
X161990000Y-67675149D01*
X161990000Y-67675153D01*
X161975112Y-67750000D01*
X161990000Y-67824847D01*
X161990001Y-71507432D01*
X161149976Y-72347458D01*
X161191440Y-72139000D01*
X161191440Y-70361000D01*
X161142157Y-70113235D01*
X161001809Y-69903191D01*
X160791765Y-69762843D01*
X160544000Y-69713560D01*
X159200999Y-69713560D01*
X159200999Y-63998802D01*
X172484473Y-50715329D01*
X172547929Y-50672929D01*
X172648483Y-50522440D01*
X172875000Y-50522440D01*
X173122765Y-50473157D01*
X173332809Y-50332809D01*
X173473157Y-50122765D01*
X173522440Y-49875000D01*
X173522440Y-48125000D01*
X173473157Y-47877235D01*
X173332809Y-47667191D01*
X173122765Y-47526843D01*
X172875000Y-47477560D01*
X171125000Y-47477560D01*
X170877235Y-47526843D01*
X170667191Y-47667191D01*
X170526843Y-47877235D01*
X170524496Y-47889034D01*
X170355346Y-47719884D01*
X169800358Y-47490000D01*
X169199642Y-47490000D01*
X168644654Y-47719884D01*
X168219884Y-48144654D01*
X167990000Y-48699642D01*
X167990000Y-49300358D01*
X168219884Y-49855346D01*
X168644654Y-50280116D01*
X169199642Y-50510000D01*
X169800358Y-50510000D01*
X170355346Y-50280116D01*
X170524496Y-50110966D01*
X170526843Y-50122765D01*
X170667191Y-50332809D01*
X170697282Y-50352916D01*
X157956527Y-63093672D01*
X157893071Y-63136072D01*
X157850671Y-63199528D01*
X157850670Y-63199529D01*
X157725096Y-63387464D01*
X157666111Y-63684001D01*
X157681000Y-63758853D01*
X157680999Y-69704879D01*
X157418142Y-69596000D01*
X156811858Y-69596000D01*
X156251723Y-69828015D01*
X155845000Y-70234738D01*
X155438277Y-69828015D01*
X154878142Y-69596000D01*
X154271858Y-69596000D01*
X154120999Y-69658488D01*
X154120999Y-63203802D01*
X162484476Y-54840327D01*
X162547929Y-54797929D01*
X162590327Y-54734476D01*
X162590329Y-54734474D01*
X162715903Y-54546538D01*
X162715904Y-54546537D01*
X162760000Y-54324852D01*
X162760000Y-54324848D01*
X162774888Y-54250001D01*
X162760000Y-54175154D01*
X162760000Y-50522440D01*
X162875000Y-50522440D01*
X163122765Y-50473157D01*
X163332809Y-50332809D01*
X163473157Y-50122765D01*
X163522440Y-49875000D01*
X163522440Y-48125000D01*
X163473157Y-47877235D01*
X163332809Y-47667191D01*
X163122765Y-47526843D01*
X162875000Y-47477560D01*
X161125000Y-47477560D01*
X160877235Y-47526843D01*
X160667191Y-47667191D01*
X160526843Y-47877235D01*
X160524496Y-47889034D01*
X160355346Y-47719884D01*
X159800358Y-47490000D01*
X159199642Y-47490000D01*
X158644654Y-47719884D01*
X158219884Y-48144654D01*
X157990000Y-48699642D01*
X157990000Y-49300358D01*
X158219884Y-49855346D01*
X158644654Y-50280116D01*
X159199642Y-50510000D01*
X159800358Y-50510000D01*
X160355346Y-50280116D01*
X160524496Y-50110966D01*
X160526843Y-50122765D01*
X160667191Y-50332809D01*
X160877235Y-50473157D01*
X161125000Y-50522440D01*
X161240000Y-50522440D01*
X161240001Y-53935196D01*
X152876529Y-62298670D01*
X152813070Y-62341072D01*
X152760000Y-62420497D01*
X152760000Y-50522440D01*
X152875000Y-50522440D01*
X153122765Y-50473157D01*
X153332809Y-50332809D01*
X153473157Y-50122765D01*
X153522440Y-49875000D01*
X153522440Y-48125000D01*
X153473157Y-47877235D01*
X153332809Y-47667191D01*
X153122765Y-47526843D01*
X152875000Y-47477560D01*
X151125000Y-47477560D01*
X150877235Y-47526843D01*
X150667191Y-47667191D01*
X150526843Y-47877235D01*
X150524496Y-47889034D01*
X150355346Y-47719884D01*
X149800358Y-47490000D01*
X149199642Y-47490000D01*
X148644654Y-47719884D01*
X148219884Y-48144654D01*
X147990000Y-48699642D01*
X147990000Y-49300358D01*
X148219884Y-49855346D01*
X148644654Y-50280116D01*
X149199642Y-50510000D01*
X149800358Y-50510000D01*
X150355346Y-50280116D01*
X150524496Y-50110966D01*
X150526843Y-50122765D01*
X150667191Y-50332809D01*
X150877235Y-50473157D01*
X151125000Y-50522440D01*
X151240000Y-50522440D01*
X151240001Y-67935197D01*
X150765530Y-68409669D01*
X150702071Y-68452071D01*
X150534096Y-68703464D01*
X150490000Y-68925149D01*
X150490000Y-68925153D01*
X150475112Y-69000000D01*
X150490000Y-69074847D01*
X150490000Y-69604645D01*
X150384000Y-69583560D01*
X148606000Y-69583560D01*
X148358235Y-69632843D01*
X148148191Y-69773191D01*
X148007843Y-69983235D01*
X148002145Y-70011883D01*
X147818277Y-69828015D01*
X147258142Y-69596000D01*
X146651858Y-69596000D01*
X146389001Y-69704879D01*
X146389001Y-53828847D01*
X146403889Y-53754000D01*
X146389001Y-53679153D01*
X146389001Y-53679149D01*
X146344905Y-53457464D01*
X146303103Y-53394903D01*
X146219330Y-53269527D01*
X146219328Y-53269525D01*
X146176930Y-53206072D01*
X146113477Y-53163674D01*
X143302717Y-50352916D01*
X143332809Y-50332809D01*
X143473157Y-50122765D01*
X143522440Y-49875000D01*
X143522440Y-48125000D01*
X143473157Y-47877235D01*
X143332809Y-47667191D01*
X143122765Y-47526843D01*
X142875000Y-47477560D01*
X141125000Y-47477560D01*
X140877235Y-47526843D01*
X140667191Y-47667191D01*
X140526843Y-47877235D01*
X140524496Y-47889034D01*
X140355346Y-47719884D01*
X139800358Y-47490000D01*
X139199642Y-47490000D01*
X138644654Y-47719884D01*
X138219884Y-48144654D01*
X137990000Y-48699642D01*
X137990000Y-49300358D01*
X138219884Y-49855346D01*
X138644654Y-50280116D01*
X139199642Y-50510000D01*
X139800358Y-50510000D01*
X140355346Y-50280116D01*
X140524496Y-50110966D01*
X140526843Y-50122765D01*
X140667191Y-50332809D01*
X140877235Y-50473157D01*
X141125000Y-50522440D01*
X141351518Y-50522440D01*
X141452072Y-50672929D01*
X141515528Y-50715329D01*
X144869001Y-54068804D01*
X144869002Y-69658488D01*
X144718142Y-69596000D01*
X144111858Y-69596000D01*
X143551723Y-69828015D01*
X143260000Y-70119738D01*
X143260000Y-68074846D01*
X143274888Y-67999999D01*
X143260000Y-67925152D01*
X143260000Y-67925148D01*
X143215904Y-67703463D01*
X143173499Y-67640000D01*
X143090329Y-67515526D01*
X143090327Y-67515524D01*
X143047929Y-67452071D01*
X142984476Y-67409673D01*
X132760000Y-57185199D01*
X132760000Y-50522440D01*
X132875000Y-50522440D01*
X133122765Y-50473157D01*
X133332809Y-50332809D01*
X133473157Y-50122765D01*
X133522440Y-49875000D01*
X133522440Y-48125000D01*
X133473157Y-47877235D01*
X133332809Y-47667191D01*
X133122765Y-47526843D01*
X132875000Y-47477560D01*
X131125000Y-47477560D01*
X130877235Y-47526843D01*
X130667191Y-47667191D01*
X130526843Y-47877235D01*
X130524496Y-47889034D01*
X130355346Y-47719884D01*
X129800358Y-47490000D01*
X129199642Y-47490000D01*
X128644654Y-47719884D01*
X128219884Y-48144654D01*
X127990000Y-48699642D01*
X127990000Y-49300358D01*
X128219884Y-49855346D01*
X128644654Y-50280116D01*
X129199642Y-50510000D01*
X129800358Y-50510000D01*
X130355346Y-50280116D01*
X130524496Y-50110966D01*
X130526843Y-50122765D01*
X130667191Y-50332809D01*
X130877235Y-50473157D01*
X131125000Y-50522440D01*
X131240000Y-50522440D01*
X131240001Y-57425148D01*
X131225112Y-57500000D01*
X131284097Y-57796537D01*
X131383344Y-57945070D01*
X131452072Y-58047929D01*
X131515528Y-58090329D01*
X141740000Y-68314803D01*
X141740000Y-68788364D01*
X141734473Y-68784671D01*
X123302717Y-50352916D01*
X123332809Y-50332809D01*
X123473157Y-50122765D01*
X123522440Y-49875000D01*
X123522440Y-48125000D01*
X123473157Y-47877235D01*
X123332809Y-47667191D01*
X123122765Y-47526843D01*
X122875000Y-47477560D01*
X121125000Y-47477560D01*
X120877235Y-47526843D01*
X120667191Y-47667191D01*
X120526843Y-47877235D01*
X120524496Y-47889034D01*
X120355346Y-47719884D01*
X119800358Y-47490000D01*
X119199642Y-47490000D01*
X118644654Y-47719884D01*
X118219884Y-48144654D01*
X117990000Y-48699642D01*
X117990000Y-49300358D01*
X118219884Y-49855346D01*
X118644654Y-50280116D01*
X119199642Y-50510000D01*
X119800358Y-50510000D01*
X120355346Y-50280116D01*
X120524496Y-50110966D01*
X120526843Y-50122765D01*
X120667191Y-50332809D01*
X120877235Y-50473157D01*
X121125000Y-50522440D01*
X121351518Y-50522440D01*
X121452072Y-50672929D01*
X121515528Y-50715329D01*
X140423426Y-69623228D01*
X140224000Y-69583560D01*
X138446000Y-69583560D01*
X138198235Y-69632843D01*
X137988191Y-69773191D01*
X137847843Y-69983235D01*
X137842145Y-70011883D01*
X137658277Y-69828015D01*
X137098142Y-69596000D01*
X136491858Y-69596000D01*
X135931723Y-69828015D01*
X135883131Y-69876607D01*
X114522053Y-48515530D01*
X114479651Y-48452071D01*
X114228259Y-48284096D01*
X114006574Y-48240000D01*
X114006569Y-48240000D01*
X113931722Y-48225112D01*
X113856875Y-48240000D01*
X113522440Y-48240000D01*
X113522440Y-48125000D01*
X113473157Y-47877235D01*
X113332809Y-47667191D01*
X113122765Y-47526843D01*
X112875000Y-47477560D01*
X111125000Y-47477560D01*
X110877235Y-47526843D01*
X110667191Y-47667191D01*
X110526843Y-47877235D01*
X110524496Y-47889034D01*
X110355346Y-47719884D01*
X109800358Y-47490000D01*
X109199642Y-47490000D01*
X108644654Y-47719884D01*
X108219884Y-48144654D01*
X107990000Y-48699642D01*
X107990000Y-49300358D01*
X108219884Y-49855346D01*
X108644654Y-50280116D01*
X109199642Y-50510000D01*
X109800358Y-50510000D01*
X110355346Y-50280116D01*
X110524496Y-50110966D01*
X110526843Y-50122765D01*
X110667191Y-50332809D01*
X110877235Y-50473157D01*
X111125000Y-50522440D01*
X112875000Y-50522440D01*
X113122765Y-50473157D01*
X113332809Y-50332809D01*
X113473157Y-50122765D01*
X113522440Y-49875000D01*
X113522440Y-49760000D01*
X113616921Y-49760000D01*
X133599055Y-69742135D01*
X133391723Y-69828015D01*
X132963015Y-70256723D01*
X132731000Y-70816858D01*
X132731000Y-71061198D01*
X132260000Y-70590199D01*
X132260000Y-70074847D01*
X132274888Y-70000000D01*
X132260000Y-69925153D01*
X132260000Y-69925148D01*
X132215904Y-69703463D01*
X132047929Y-69452071D01*
X131984473Y-69409671D01*
X130840331Y-68265530D01*
X130797929Y-68202071D01*
X130546537Y-68034096D01*
X130324852Y-67990000D01*
X130324847Y-67990000D01*
X130250000Y-67975112D01*
X130175153Y-67990000D01*
X127814802Y-67990000D01*
X110840331Y-51015530D01*
X110797929Y-50952071D01*
X110546537Y-50784096D01*
X110324852Y-50740000D01*
X110324847Y-50740000D01*
X110250000Y-50725112D01*
X110175153Y-50740000D01*
X103689802Y-50740000D01*
X103302717Y-50352916D01*
X103332809Y-50332809D01*
X103473157Y-50122765D01*
X103522440Y-49875000D01*
X103522440Y-48125000D01*
X103473157Y-47877235D01*
X103332809Y-47667191D01*
X103122765Y-47526843D01*
X102875000Y-47477560D01*
X101125000Y-47477560D01*
X100877235Y-47526843D01*
X100667191Y-47667191D01*
X100526843Y-47877235D01*
X100524496Y-47889034D01*
X100355346Y-47719884D01*
X99800358Y-47490000D01*
X99199642Y-47490000D01*
X98644654Y-47719884D01*
X98219884Y-48144654D01*
X97990000Y-48699642D01*
X97990000Y-49300358D01*
X98219884Y-49855346D01*
X98644654Y-50280116D01*
X99199642Y-50510000D01*
X99800358Y-50510000D01*
X100355346Y-50280116D01*
X100524496Y-50110966D01*
X100526843Y-50122765D01*
X100667191Y-50332809D01*
X100877235Y-50473157D01*
X101125000Y-50522440D01*
X101351518Y-50522440D01*
X101452072Y-50672929D01*
X101515528Y-50715329D01*
X102540198Y-51740000D01*
X94689802Y-51740000D01*
X93302717Y-50352916D01*
X93332809Y-50332809D01*
X93473157Y-50122765D01*
X93522440Y-49875000D01*
X93522440Y-48125000D01*
X93473157Y-47877235D01*
X93332809Y-47667191D01*
X93122765Y-47526843D01*
X92875000Y-47477560D01*
X91125000Y-47477560D01*
X90877235Y-47526843D01*
X90667191Y-47667191D01*
X90526843Y-47877235D01*
X90524496Y-47889034D01*
X90355346Y-47719884D01*
X89800358Y-47490000D01*
X89199642Y-47490000D01*
X88644654Y-47719884D01*
X88219884Y-48144654D01*
X87990000Y-48699642D01*
X87990000Y-49300358D01*
X88219884Y-49855346D01*
X88644654Y-50280116D01*
X89199642Y-50510000D01*
X89800358Y-50510000D01*
X90355346Y-50280116D01*
X90524496Y-50110966D01*
X90526843Y-50122765D01*
X90667191Y-50332809D01*
X90877235Y-50473157D01*
X91125000Y-50522440D01*
X91351518Y-50522440D01*
X91452072Y-50672929D01*
X91515528Y-50715329D01*
X93540198Y-52740000D01*
X85689802Y-52740000D01*
X83302717Y-50352916D01*
X83332809Y-50332809D01*
X83473157Y-50122765D01*
X83522440Y-49875000D01*
X83522440Y-48125000D01*
X83473157Y-47877235D01*
X83332809Y-47667191D01*
X83122765Y-47526843D01*
X82875000Y-47477560D01*
X81125000Y-47477560D01*
X80877235Y-47526843D01*
X80667191Y-47667191D01*
X80526843Y-47877235D01*
X80524496Y-47889034D01*
X80355346Y-47719884D01*
X79800358Y-47490000D01*
X79199642Y-47490000D01*
X78644654Y-47719884D01*
X78219884Y-48144654D01*
X77990000Y-48699642D01*
X77990000Y-49300358D01*
X78219884Y-49855346D01*
X78644654Y-50280116D01*
X79199642Y-50510000D01*
X79800358Y-50510000D01*
X80355346Y-50280116D01*
X80524496Y-50110966D01*
X80526843Y-50122765D01*
X80667191Y-50332809D01*
X80877235Y-50473157D01*
X81125000Y-50522440D01*
X81351518Y-50522440D01*
X81452072Y-50672929D01*
X81515528Y-50715329D01*
X84784670Y-53984472D01*
X84788364Y-53990000D01*
X76939802Y-53990000D01*
X73302717Y-50352916D01*
X73332809Y-50332809D01*
X73473157Y-50122765D01*
X73522440Y-49875000D01*
X73522440Y-48125000D01*
X73473157Y-47877235D01*
X73332809Y-47667191D01*
X73122765Y-47526843D01*
X72875000Y-47477560D01*
X71125000Y-47477560D01*
X70877235Y-47526843D01*
X70667191Y-47667191D01*
X70526843Y-47877235D01*
X70524496Y-47889034D01*
X70355346Y-47719884D01*
X69800358Y-47490000D01*
X69199642Y-47490000D01*
X68644654Y-47719884D01*
X68219884Y-48144654D01*
X67990000Y-48699642D01*
X60710000Y-48699642D01*
X60710000Y-45710000D01*
X184290001Y-45710000D01*
X184290001Y-80949208D01*
G04 #@! TD*
M02*
