M48
;DRILL file {KiCad (5.0.0)} date 02/27/19 09:15:51
;FORMAT={-:-/ absolute / metric / decimal}
FMAT,2
METRIC,TZ
T1C0.750
T2C1.000
%
G90
G05
M71
T1
X41.7Y-85.
X41.7Y-87.
X43.7Y-85.
X43.7Y-87.
X45.7Y-85.
X45.7Y-87.
X47.7Y-85.
X47.7Y-87.
X49.7Y-85.
X49.7Y-87.
X51.7Y-85.
X51.7Y-87.
X53.7Y-85.
X53.7Y-87.
X55.7Y-85.
X55.7Y-87.
X57.7Y-85.
X57.7Y-87.
X59.7Y-85.
X59.7Y-87.
X61.7Y-85.
X61.7Y-87.
X63.7Y-85.
X63.7Y-87.
X118.6Y-85.
X118.6Y-87.
X120.6Y-85.
X120.6Y-87.
X122.6Y-85.
X122.6Y-87.
X124.6Y-85.
X124.6Y-87.
X126.6Y-85.
X126.6Y-87.
X128.6Y-85.
X128.6Y-87.
X130.6Y-85.
X130.6Y-87.
X132.6Y-85.
X132.6Y-87.
X134.6Y-85.
X134.6Y-87.
X136.6Y-85.
X136.6Y-87.
X138.6Y-85.
X138.6Y-87.
X140.6Y-85.
X140.6Y-87.
T2
X152.Y-47.3
X152.Y-60.
X154.54Y-52.38
X44.Y-47.3
X44.Y-60.
X46.54Y-52.38
X80.Y-47.3
X80.Y-60.
X82.54Y-52.38
X62.Y-47.3
X62.Y-60.
X64.54Y-52.38
X146.Y-47.3
X146.Y-60.
X148.54Y-52.38
X128.Y-47.3
X128.Y-60.
X130.54Y-52.38
X74.Y-47.3
X74.Y-60.
X76.54Y-52.38
X38.Y-47.3
X38.Y-60.
X40.54Y-52.38
X110.Y-47.3
X110.Y-60.
X112.54Y-52.38
X50.Y-47.3
X50.Y-60.
X52.54Y-52.38
X116.Y-47.3
X116.Y-60.
X118.54Y-52.38
X140.Y-47.3
X140.Y-60.
X142.54Y-52.38
X104.Y-47.3
X104.Y-60.
X106.54Y-52.38
X20.Y-47.3
X20.Y-60.
X22.54Y-52.38
X134.Y-47.3
X134.Y-60.
X136.54Y-52.38
X98.Y-47.3
X98.Y-60.
X100.54Y-52.38
X56.Y-47.3
X56.Y-60.
X58.54Y-52.38
X92.Y-47.3
X92.Y-60.
X94.54Y-52.38
X122.Y-47.3
X122.Y-60.
X124.54Y-52.38
X158.Y-47.3
X158.Y-60.
X160.54Y-52.38
X86.Y-47.3
X86.Y-60.
X88.54Y-52.38
X68.Y-47.3
X68.Y-60.
X70.54Y-52.38
X26.Y-47.3
X26.Y-60.
X28.54Y-52.38
X32.Y-47.3
X32.Y-60.
X34.54Y-52.38
T0
M30
