G04 #@! TF.GenerationSoftware,KiCad,Pcbnew,(5.0.0)*
G04 #@! TF.CreationDate,2019-02-27T09:15:48+01:00*
G04 #@! TF.ProjectId,Potentiometer_mount_24LED,506F74656E74696F6D657465725F6D6F,rev?*
G04 #@! TF.SameCoordinates,Original*
G04 #@! TF.FileFunction,Copper,L2,Bot,Signal*
G04 #@! TF.FilePolarity,Positive*
%FSLAX46Y46*%
G04 Gerber Fmt 4.6, Leading zero omitted, Abs format (unit mm)*
G04 Created by KiCad (PCBNEW (5.0.0)) date 02/27/19 09:15:48*
%MOMM*%
%LPD*%
G01*
G04 APERTURE LIST*
G04 #@! TA.AperFunction,ComponentPad*
%ADD10C,1.800000*%
G04 #@! TD*
G04 #@! TA.AperFunction,ComponentPad*
%ADD11C,1.200000*%
G04 #@! TD*
G04 #@! TA.AperFunction,ComponentPad*
%ADD12R,1.200000X1.200000*%
G04 #@! TD*
G04 #@! TA.AperFunction,Conductor*
%ADD13C,0.250000*%
G04 #@! TD*
G04 #@! TA.AperFunction,NonConductor*
%ADD14C,0.254000*%
G04 #@! TD*
G04 APERTURE END LIST*
D10*
G04 #@! TO.P,LED 1,3*
G04 #@! TO.N,Net-(J1-Pad1)*
X20000000Y-47300000D03*
G04 #@! TO.P,LED 1,2*
G04 #@! TO.N,Net-(J2-Pad1)*
X22540000Y-52380000D03*
G04 #@! TO.P,LED 1,1*
G04 #@! TO.N,Net-(RV1-Pad1)*
X20000000Y-60000000D03*
G04 #@! TD*
G04 #@! TO.P,LED 2,1*
G04 #@! TO.N,Net-(RV2-Pad1)*
X26000000Y-60000000D03*
G04 #@! TO.P,LED 2,2*
G04 #@! TO.N,Net-(J2-Pad2)*
X28540000Y-52380000D03*
G04 #@! TO.P,LED 2,3*
G04 #@! TO.N,Net-(J1-Pad2)*
X26000000Y-47300000D03*
G04 #@! TD*
G04 #@! TO.P,LED 3,3*
G04 #@! TO.N,Net-(J1-Pad3)*
X32000000Y-47300000D03*
G04 #@! TO.P,LED 3,2*
G04 #@! TO.N,Net-(J2-Pad3)*
X34540000Y-52380000D03*
G04 #@! TO.P,LED 3,1*
G04 #@! TO.N,Net-(RV3-Pad1)*
X32000000Y-60000000D03*
G04 #@! TD*
G04 #@! TO.P,LED 4,1*
G04 #@! TO.N,Net-(RV4-Pad1)*
X38000000Y-60000000D03*
G04 #@! TO.P,LED 4,2*
G04 #@! TO.N,Net-(J2-Pad4)*
X40540000Y-52380000D03*
G04 #@! TO.P,LED 4,3*
G04 #@! TO.N,Net-(J1-Pad4)*
X38000000Y-47300000D03*
G04 #@! TD*
D11*
G04 #@! TO.P,From Stimulator,24*
G04 #@! TO.N,Net-(J1-Pad24)*
X63700000Y-87000000D03*
G04 #@! TO.P,From Stimulator,22*
G04 #@! TO.N,Net-(J1-Pad22)*
X61700000Y-87000000D03*
G04 #@! TO.P,From Stimulator,20*
G04 #@! TO.N,Net-(J1-Pad20)*
X59700000Y-87000000D03*
G04 #@! TO.P,From Stimulator,18*
G04 #@! TO.N,Net-(J1-Pad18)*
X57700000Y-87000000D03*
G04 #@! TO.P,From Stimulator,16*
G04 #@! TO.N,Net-(J1-Pad16)*
X55700000Y-87000000D03*
G04 #@! TO.P,From Stimulator,14*
G04 #@! TO.N,Net-(J1-Pad14)*
X53700000Y-87000000D03*
G04 #@! TO.P,From Stimulator,12*
G04 #@! TO.N,Net-(J1-Pad12)*
X51700000Y-87000000D03*
G04 #@! TO.P,From Stimulator,10*
G04 #@! TO.N,Net-(J1-Pad10)*
X49700000Y-87000000D03*
G04 #@! TO.P,From Stimulator,8*
G04 #@! TO.N,Net-(J1-Pad8)*
X47700000Y-87000000D03*
G04 #@! TO.P,From Stimulator,6*
G04 #@! TO.N,Net-(J1-Pad6)*
X45700000Y-87000000D03*
G04 #@! TO.P,From Stimulator,4*
G04 #@! TO.N,Net-(J1-Pad4)*
X43700000Y-87000000D03*
G04 #@! TO.P,From Stimulator,2*
G04 #@! TO.N,Net-(J1-Pad2)*
X41700000Y-87000000D03*
G04 #@! TO.P,From Stimulator,23*
G04 #@! TO.N,Net-(J1-Pad23)*
X63700000Y-85000000D03*
G04 #@! TO.P,From Stimulator,21*
G04 #@! TO.N,Net-(J1-Pad21)*
X61700000Y-85000000D03*
G04 #@! TO.P,From Stimulator,19*
G04 #@! TO.N,Net-(J1-Pad19)*
X59700000Y-85000000D03*
G04 #@! TO.P,From Stimulator,17*
G04 #@! TO.N,Net-(J1-Pad17)*
X57700000Y-85000000D03*
G04 #@! TO.P,From Stimulator,15*
G04 #@! TO.N,Net-(J1-Pad15)*
X55700000Y-85000000D03*
G04 #@! TO.P,From Stimulator,13*
G04 #@! TO.N,Net-(J1-Pad13)*
X53700000Y-85000000D03*
G04 #@! TO.P,From Stimulator,11*
G04 #@! TO.N,Net-(J1-Pad11)*
X51700000Y-85000000D03*
G04 #@! TO.P,From Stimulator,9*
G04 #@! TO.N,Net-(J1-Pad9)*
X49700000Y-85000000D03*
G04 #@! TO.P,From Stimulator,7*
G04 #@! TO.N,Net-(J1-Pad7)*
X47700000Y-85000000D03*
G04 #@! TO.P,From Stimulator,5*
G04 #@! TO.N,Net-(J1-Pad5)*
X45700000Y-85000000D03*
G04 #@! TO.P,From Stimulator,3*
G04 #@! TO.N,Net-(J1-Pad3)*
X43700000Y-85000000D03*
D12*
G04 #@! TO.P,From Stimulator,1*
G04 #@! TO.N,Net-(J1-Pad1)*
X41700000Y-85000000D03*
G04 #@! TD*
G04 #@! TO.P,To LED,1*
G04 #@! TO.N,Net-(J2-Pad1)*
X118600000Y-85000000D03*
D11*
G04 #@! TO.P,To LED,3*
G04 #@! TO.N,Net-(J2-Pad3)*
X120600000Y-85000000D03*
G04 #@! TO.P,To LED,5*
G04 #@! TO.N,Net-(J2-Pad5)*
X122600000Y-85000000D03*
G04 #@! TO.P,To LED,7*
G04 #@! TO.N,Net-(J2-Pad7)*
X124600000Y-85000000D03*
G04 #@! TO.P,To LED,9*
G04 #@! TO.N,Net-(J2-Pad9)*
X126600000Y-85000000D03*
G04 #@! TO.P,To LED,11*
G04 #@! TO.N,Net-(J2-Pad11)*
X128600000Y-85000000D03*
G04 #@! TO.P,To LED,13*
G04 #@! TO.N,Net-(J2-Pad13)*
X130600000Y-85000000D03*
G04 #@! TO.P,To LED,15*
G04 #@! TO.N,Net-(J2-Pad15)*
X132600000Y-85000000D03*
G04 #@! TO.P,To LED,17*
G04 #@! TO.N,Net-(J2-Pad17)*
X134600000Y-85000000D03*
G04 #@! TO.P,To LED,19*
G04 #@! TO.N,Net-(J2-Pad19)*
X136600000Y-85000000D03*
G04 #@! TO.P,To LED,21*
G04 #@! TO.N,Net-(J2-Pad21)*
X138600000Y-85000000D03*
G04 #@! TO.P,To LED,23*
G04 #@! TO.N,Net-(J2-Pad23)*
X140600000Y-85000000D03*
G04 #@! TO.P,To LED,2*
G04 #@! TO.N,Net-(J2-Pad2)*
X118600000Y-87000000D03*
G04 #@! TO.P,To LED,4*
G04 #@! TO.N,Net-(J2-Pad4)*
X120600000Y-87000000D03*
G04 #@! TO.P,To LED,6*
G04 #@! TO.N,Net-(J2-Pad6)*
X122600000Y-87000000D03*
G04 #@! TO.P,To LED,8*
G04 #@! TO.N,Net-(J2-Pad8)*
X124600000Y-87000000D03*
G04 #@! TO.P,To LED,10*
G04 #@! TO.N,Net-(J2-Pad10)*
X126600000Y-87000000D03*
G04 #@! TO.P,To LED,12*
G04 #@! TO.N,Net-(J2-Pad12)*
X128600000Y-87000000D03*
G04 #@! TO.P,To LED,14*
G04 #@! TO.N,Net-(J2-Pad14)*
X130600000Y-87000000D03*
G04 #@! TO.P,To LED,16*
G04 #@! TO.N,Net-(J2-Pad16)*
X132600000Y-87000000D03*
G04 #@! TO.P,To LED,18*
G04 #@! TO.N,Net-(J2-Pad18)*
X134600000Y-87000000D03*
G04 #@! TO.P,To LED,20*
G04 #@! TO.N,Net-(J2-Pad20)*
X136600000Y-87000000D03*
G04 #@! TO.P,To LED,22*
G04 #@! TO.N,Net-(J2-Pad22)*
X138600000Y-87000000D03*
G04 #@! TO.P,To LED,24*
G04 #@! TO.N,Net-(J2-Pad24)*
X140600000Y-87000000D03*
G04 #@! TD*
D10*
G04 #@! TO.P,LED 5,1*
G04 #@! TO.N,Net-(RV5-Pad1)*
X44000000Y-60000000D03*
G04 #@! TO.P,LED 5,2*
G04 #@! TO.N,Net-(J2-Pad5)*
X46540000Y-52380000D03*
G04 #@! TO.P,LED 5,3*
G04 #@! TO.N,Net-(J1-Pad5)*
X44000000Y-47300000D03*
G04 #@! TD*
G04 #@! TO.P,LED 6,3*
G04 #@! TO.N,Net-(J1-Pad6)*
X50000000Y-47300000D03*
G04 #@! TO.P,LED 6,2*
G04 #@! TO.N,Net-(J2-Pad6)*
X52540000Y-52380000D03*
G04 #@! TO.P,LED 6,1*
G04 #@! TO.N,Net-(RV6-Pad1)*
X50000000Y-60000000D03*
G04 #@! TD*
G04 #@! TO.P,LED 7,1*
G04 #@! TO.N,Net-(RV7-Pad1)*
X56000000Y-60000000D03*
G04 #@! TO.P,LED 7,2*
G04 #@! TO.N,Net-(J2-Pad7)*
X58540000Y-52380000D03*
G04 #@! TO.P,LED 7,3*
G04 #@! TO.N,Net-(J1-Pad7)*
X56000000Y-47300000D03*
G04 #@! TD*
G04 #@! TO.P,LED 8,3*
G04 #@! TO.N,Net-(J1-Pad8)*
X62000000Y-47300000D03*
G04 #@! TO.P,LED 8,2*
G04 #@! TO.N,Net-(J2-Pad8)*
X64540000Y-52380000D03*
G04 #@! TO.P,LED 8,1*
G04 #@! TO.N,Net-(RV8-Pad1)*
X62000000Y-60000000D03*
G04 #@! TD*
G04 #@! TO.P,LED 9,1*
G04 #@! TO.N,Net-(RV9-Pad1)*
X68000000Y-60000000D03*
G04 #@! TO.P,LED 9,2*
G04 #@! TO.N,Net-(J2-Pad9)*
X70540000Y-52380000D03*
G04 #@! TO.P,LED 9,3*
G04 #@! TO.N,Net-(J1-Pad9)*
X68000000Y-47300000D03*
G04 #@! TD*
G04 #@! TO.P,LED 10,3*
G04 #@! TO.N,Net-(J1-Pad10)*
X74000000Y-47300000D03*
G04 #@! TO.P,LED 10,2*
G04 #@! TO.N,Net-(J2-Pad10)*
X76540000Y-52380000D03*
G04 #@! TO.P,LED 10,1*
G04 #@! TO.N,Net-(RV10-Pad1)*
X74000000Y-60000000D03*
G04 #@! TD*
G04 #@! TO.P, LED 11,1*
G04 #@! TO.N,Net-(RV11-Pad1)*
X80000000Y-60000000D03*
G04 #@! TO.P, LED 11,2*
G04 #@! TO.N,Net-(J2-Pad11)*
X82540000Y-52380000D03*
G04 #@! TO.P, LED 11,3*
G04 #@! TO.N,Net-(J1-Pad11)*
X80000000Y-47300000D03*
G04 #@! TD*
G04 #@! TO.P,LED 12,1*
G04 #@! TO.N,Net-(RV12-Pad1)*
X86000000Y-60000000D03*
G04 #@! TO.P,LED 12,2*
G04 #@! TO.N,Net-(J2-Pad12)*
X88540000Y-52380000D03*
G04 #@! TO.P,LED 12,3*
G04 #@! TO.N,Net-(J1-Pad12)*
X86000000Y-47300000D03*
G04 #@! TD*
G04 #@! TO.P,LED 13,1*
G04 #@! TO.N,Net-(RV13-Pad1)*
X92000000Y-60000000D03*
G04 #@! TO.P,LED 13,2*
G04 #@! TO.N,Net-(J2-Pad13)*
X94540000Y-52380000D03*
G04 #@! TO.P,LED 13,3*
G04 #@! TO.N,Net-(J1-Pad13)*
X92000000Y-47300000D03*
G04 #@! TD*
G04 #@! TO.P,LED 14,3*
G04 #@! TO.N,Net-(J1-Pad14)*
X98000000Y-47300000D03*
G04 #@! TO.P,LED 14,2*
G04 #@! TO.N,Net-(J2-Pad14)*
X100540000Y-52380000D03*
G04 #@! TO.P,LED 14,1*
G04 #@! TO.N,Net-(RV14-Pad1)*
X98000000Y-60000000D03*
G04 #@! TD*
G04 #@! TO.P,LED 15,1*
G04 #@! TO.N,Net-(RV15-Pad1)*
X104000000Y-60000000D03*
G04 #@! TO.P,LED 15,2*
G04 #@! TO.N,Net-(J2-Pad15)*
X106540000Y-52380000D03*
G04 #@! TO.P,LED 15,3*
G04 #@! TO.N,Net-(J1-Pad15)*
X104000000Y-47300000D03*
G04 #@! TD*
G04 #@! TO.P,LED 16,3*
G04 #@! TO.N,Net-(J1-Pad16)*
X110000000Y-47300000D03*
G04 #@! TO.P,LED 16,2*
G04 #@! TO.N,Net-(J2-Pad16)*
X112540000Y-52380000D03*
G04 #@! TO.P,LED 16,1*
G04 #@! TO.N,Net-(RV16-Pad1)*
X110000000Y-60000000D03*
G04 #@! TD*
G04 #@! TO.P,LED 17,1*
G04 #@! TO.N,Net-(RV17-Pad1)*
X116000000Y-60000000D03*
G04 #@! TO.P,LED 17,2*
G04 #@! TO.N,Net-(J2-Pad17)*
X118540000Y-52380000D03*
G04 #@! TO.P,LED 17,3*
G04 #@! TO.N,Net-(J1-Pad17)*
X116000000Y-47300000D03*
G04 #@! TD*
G04 #@! TO.P,LED 18,3*
G04 #@! TO.N,Net-(J1-Pad18)*
X122000000Y-47300000D03*
G04 #@! TO.P,LED 18,2*
G04 #@! TO.N,Net-(J2-Pad18)*
X124540000Y-52380000D03*
G04 #@! TO.P,LED 18,1*
G04 #@! TO.N,Net-(RV18-Pad1)*
X122000000Y-60000000D03*
G04 #@! TD*
G04 #@! TO.P,LED 19,1*
G04 #@! TO.N,Net-(RV19-Pad1)*
X128000000Y-60000000D03*
G04 #@! TO.P,LED 19,2*
G04 #@! TO.N,Net-(J2-Pad19)*
X130540000Y-52380000D03*
G04 #@! TO.P,LED 19,3*
G04 #@! TO.N,Net-(J1-Pad19)*
X128000000Y-47300000D03*
G04 #@! TD*
G04 #@! TO.P,LED 20,3*
G04 #@! TO.N,Net-(J1-Pad20)*
X134000000Y-47300000D03*
G04 #@! TO.P,LED 20,2*
G04 #@! TO.N,Net-(J2-Pad20)*
X136540000Y-52380000D03*
G04 #@! TO.P,LED 20,1*
G04 #@! TO.N,Net-(RV20-Pad1)*
X134000000Y-60000000D03*
G04 #@! TD*
G04 #@! TO.P,LED 21,1*
G04 #@! TO.N,Net-(RV21-Pad1)*
X140000000Y-60000000D03*
G04 #@! TO.P,LED 21,2*
G04 #@! TO.N,Net-(J2-Pad21)*
X142540000Y-52380000D03*
G04 #@! TO.P,LED 21,3*
G04 #@! TO.N,Net-(J1-Pad21)*
X140000000Y-47300000D03*
G04 #@! TD*
G04 #@! TO.P,LED 22,3*
G04 #@! TO.N,Net-(J1-Pad22)*
X146000000Y-47300000D03*
G04 #@! TO.P,LED 22,2*
G04 #@! TO.N,Net-(J2-Pad22)*
X148540000Y-52380000D03*
G04 #@! TO.P,LED 22,1*
G04 #@! TO.N,Net-(RV22-Pad1)*
X146000000Y-60000000D03*
G04 #@! TD*
G04 #@! TO.P,LED 23,1*
G04 #@! TO.N,Net-(RV23-Pad1)*
X152000000Y-60000000D03*
G04 #@! TO.P,LED 23,2*
G04 #@! TO.N,Net-(J2-Pad23)*
X154540000Y-52380000D03*
G04 #@! TO.P,LED 23,3*
G04 #@! TO.N,Net-(J1-Pad23)*
X152000000Y-47300000D03*
G04 #@! TD*
G04 #@! TO.P,LED 24,3*
G04 #@! TO.N,Net-(J1-Pad24)*
X158000000Y-47300000D03*
G04 #@! TO.P,LED 24,2*
G04 #@! TO.N,Net-(J2-Pad24)*
X160540000Y-52380000D03*
G04 #@! TO.P,LED 24,1*
G04 #@! TO.N,Net-(RV24-Pad1)*
X158000000Y-60000000D03*
G04 #@! TD*
D13*
G04 #@! TO.N,Net-(J2-Pad4)*
X40540000Y-54726998D02*
X65913002Y-80100000D01*
X40540000Y-52380000D02*
X40540000Y-54726998D01*
X121199999Y-86400001D02*
X120600000Y-87000000D01*
X121525001Y-86074999D02*
X121199999Y-86400001D01*
X121525001Y-84440063D02*
X121525001Y-86074999D01*
X117184938Y-80100000D02*
X121525001Y-84440063D01*
X65913002Y-80100000D02*
X117184938Y-80100000D01*
G04 #@! TO.N,Net-(J2-Pad3)*
X34540000Y-52380000D02*
X63660000Y-81500000D01*
X120600000Y-84151472D02*
X120600000Y-85000000D01*
X117948528Y-81500000D02*
X120600000Y-84151472D01*
X63660000Y-81500000D02*
X117948528Y-81500000D01*
G04 #@! TO.N,Net-(J2-Pad2)*
X119199999Y-86400001D02*
X118600000Y-87000000D01*
X119525001Y-86074999D02*
X119199999Y-86400001D01*
X119525001Y-84139999D02*
X119525001Y-86074999D01*
X117985002Y-82600000D02*
X119525001Y-84139999D01*
X58760000Y-82600000D02*
X117985002Y-82600000D01*
X28540000Y-52380000D02*
X58760000Y-82600000D01*
G04 #@! TO.N,Net-(J2-Pad1)*
X117750000Y-85000000D02*
X118600000Y-85000000D01*
X115824999Y-83074999D02*
X117750000Y-85000000D01*
X53234999Y-83074999D02*
X115824999Y-83074999D01*
X22540000Y-52380000D02*
X53234999Y-83074999D01*
G04 #@! TO.N,Net-(J2-Pad5)*
X46540000Y-54726998D02*
X54000000Y-62186998D01*
X46540000Y-52380000D02*
X46540000Y-54726998D01*
X54000000Y-62186998D02*
X54000000Y-65700000D01*
X54000000Y-65700000D02*
X67300000Y-79000000D01*
X122600000Y-84151472D02*
X122600000Y-85000000D01*
X117448528Y-79000000D02*
X122600000Y-84151472D01*
X67300000Y-79000000D02*
X117448528Y-79000000D01*
G04 #@! TO.N,Net-(J2-Pad7)*
X59439999Y-53279999D02*
X59439999Y-67039999D01*
X58540000Y-52380000D02*
X59439999Y-53279999D01*
X59439999Y-67039999D02*
X68600000Y-76200000D01*
X124600000Y-84151472D02*
X124600000Y-85000000D01*
X116648528Y-76200000D02*
X124600000Y-84151472D01*
X68600000Y-76200000D02*
X116648528Y-76200000D01*
G04 #@! TO.N,Net-(J2-Pad9)*
X70540000Y-52380000D02*
X70540000Y-71840000D01*
X70540000Y-71840000D02*
X72500000Y-73800000D01*
X126600000Y-84151472D02*
X126600000Y-85000000D01*
X116248528Y-73800000D02*
X126600000Y-84151472D01*
X72500000Y-73800000D02*
X116248528Y-73800000D01*
G04 #@! TO.N,Net-(J2-Pad11)*
X82540000Y-52380000D02*
X82540000Y-67340000D01*
X82540000Y-67340000D02*
X86700000Y-71500000D01*
X128600000Y-84151472D02*
X128600000Y-85000000D01*
X115948528Y-71500000D02*
X128600000Y-84151472D01*
X86700000Y-71500000D02*
X115948528Y-71500000D01*
G04 #@! TO.N,Net-(J2-Pad13)*
X94540000Y-52380000D02*
X94540000Y-66240000D01*
X94540000Y-66240000D02*
X97300000Y-69000000D01*
X130600000Y-84151472D02*
X130600000Y-85000000D01*
X115448528Y-69000000D02*
X130600000Y-84151472D01*
X97300000Y-69000000D02*
X115448528Y-69000000D01*
G04 #@! TO.N,Net-(J2-Pad15)*
X106540000Y-52380000D02*
X106540000Y-64240000D01*
X106540000Y-64240000D02*
X108900000Y-66600000D01*
X132600000Y-84151472D02*
X132600000Y-85000000D01*
X115048528Y-66600000D02*
X132600000Y-84151472D01*
X108900000Y-66600000D02*
X115048528Y-66600000D01*
G04 #@! TO.N,Net-(J2-Pad17)*
X118540000Y-52380000D02*
X118540000Y-67040000D01*
X134600000Y-83100000D02*
X134600000Y-85000000D01*
X118540000Y-67040000D02*
X134600000Y-83100000D01*
G04 #@! TO.N,Net-(J2-Pad19)*
X136600000Y-58440000D02*
X136600000Y-85000000D01*
X130540000Y-52380000D02*
X136600000Y-58440000D01*
G04 #@! TO.N,Net-(J2-Pad21)*
X138600000Y-64900000D02*
X138600000Y-85000000D01*
X142540000Y-52380000D02*
X142540000Y-60960000D01*
X142540000Y-60960000D02*
X138600000Y-64900000D01*
G04 #@! TO.N,Net-(J2-Pad23)*
X154540000Y-71060000D02*
X140600000Y-85000000D01*
X154540000Y-52380000D02*
X154540000Y-71060000D01*
G04 #@! TO.N,Net-(J2-Pad6)*
X52540000Y-54726998D02*
X58100000Y-60286998D01*
X52540000Y-52380000D02*
X52540000Y-54726998D01*
X58100000Y-60286998D02*
X58100000Y-67600000D01*
X58100000Y-67600000D02*
X68200000Y-77700000D01*
X123199999Y-86400001D02*
X122600000Y-87000000D01*
X123525001Y-86074999D02*
X123199999Y-86400001D01*
X123525001Y-84440063D02*
X123525001Y-86074999D01*
X116784938Y-77700000D02*
X123525001Y-84440063D01*
X68200000Y-77700000D02*
X116784938Y-77700000D01*
G04 #@! TO.N,Net-(J2-Pad8)*
X125199999Y-86400001D02*
X124600000Y-87000000D01*
X125674999Y-85925001D02*
X125199999Y-86400001D01*
X64540000Y-52380000D02*
X64540000Y-58353002D01*
X64540000Y-58353002D02*
X64500000Y-58393002D01*
X64500000Y-58393002D02*
X64500000Y-70600000D01*
X125674999Y-84374999D02*
X125674999Y-85925001D01*
X64500000Y-70600000D02*
X68900000Y-75000000D01*
X68900000Y-75000000D02*
X116300000Y-75000000D01*
X116300000Y-75000000D02*
X125674999Y-84374999D01*
G04 #@! TO.N,Net-(J2-Pad10)*
X127525001Y-86074999D02*
X126600000Y-87000000D01*
X127525001Y-84440063D02*
X127525001Y-86074999D01*
X115484938Y-72400000D02*
X127525001Y-84440063D01*
X77900000Y-72400000D02*
X115484938Y-72400000D01*
X76540000Y-52380000D02*
X76540000Y-71040000D01*
X76540000Y-71040000D02*
X77900000Y-72400000D01*
G04 #@! TO.N,Net-(J2-Pad12)*
X88540000Y-52380000D02*
X88540000Y-63340000D01*
X88540000Y-63340000D02*
X95500000Y-70300000D01*
X129199999Y-86400001D02*
X128600000Y-87000000D01*
X129525001Y-86074999D02*
X129199999Y-86400001D01*
X129525001Y-84440063D02*
X129525001Y-86074999D01*
X115384938Y-70300000D02*
X129525001Y-84440063D01*
X95500000Y-70300000D02*
X115384938Y-70300000D01*
G04 #@! TO.N,Net-(J2-Pad14)*
X100540000Y-52380000D02*
X100540000Y-66240000D01*
X100540000Y-66240000D02*
X102000000Y-67700000D01*
X131199999Y-86400001D02*
X130600000Y-87000000D01*
X131525001Y-86074999D02*
X131199999Y-86400001D01*
X131525001Y-84440063D02*
X131525001Y-86074999D01*
X114784938Y-67700000D02*
X131525001Y-84440063D01*
X102000000Y-67700000D02*
X114784938Y-67700000D01*
G04 #@! TO.N,Net-(J2-Pad16)*
X133199999Y-86400001D02*
X132600000Y-87000000D01*
X133674999Y-85925001D02*
X133199999Y-86400001D01*
X133674999Y-84274999D02*
X133674999Y-85925001D01*
X112540000Y-63140000D02*
X133674999Y-84274999D01*
X112540000Y-52380000D02*
X112540000Y-63140000D01*
G04 #@! TO.N,Net-(J2-Pad18)*
X124540000Y-52380000D02*
X124540000Y-70940000D01*
X135199999Y-86400001D02*
X134600000Y-87000000D01*
X135525001Y-86074999D02*
X135199999Y-86400001D01*
X135525001Y-81925001D02*
X135525001Y-86074999D01*
X124540000Y-70940000D02*
X135525001Y-81925001D01*
G04 #@! TO.N,Net-(J2-Pad20)*
X137199999Y-86400001D02*
X136600000Y-87000000D01*
X137525001Y-86074999D02*
X137199999Y-86400001D01*
X137525001Y-53365001D02*
X137525001Y-86074999D01*
X136540000Y-52380000D02*
X137525001Y-53365001D01*
G04 #@! TO.N,Net-(J2-Pad22)*
X147640001Y-53279999D02*
X147640001Y-60259999D01*
X148540000Y-52380000D02*
X147640001Y-53279999D01*
X139199999Y-86400001D02*
X138600000Y-87000000D01*
X139525001Y-86074999D02*
X139199999Y-86400001D01*
X139525001Y-68374999D02*
X139525001Y-86074999D01*
X147640001Y-60259999D02*
X139525001Y-68374999D01*
G04 #@! TO.N,Net-(J2-Pad24)*
X160540000Y-67060000D02*
X140600000Y-87000000D01*
X160540000Y-52380000D02*
X160540000Y-67060000D01*
G04 #@! TD*
D14*
G36*
X161765000Y-51434183D02*
X161409507Y-51078690D01*
X160845330Y-50845000D01*
X160234670Y-50845000D01*
X159670493Y-51078690D01*
X159238690Y-51510493D01*
X159005000Y-52074670D01*
X159005000Y-52685330D01*
X159238690Y-53249507D01*
X159670493Y-53681310D01*
X159780000Y-53726669D01*
X159780001Y-66745196D01*
X155277567Y-71247631D01*
X155300000Y-71134852D01*
X155300000Y-71134848D01*
X155314888Y-71060001D01*
X155300000Y-70985154D01*
X155300000Y-59694670D01*
X156465000Y-59694670D01*
X156465000Y-60305330D01*
X156698690Y-60869507D01*
X157130493Y-61301310D01*
X157694670Y-61535000D01*
X158305330Y-61535000D01*
X158869507Y-61301310D01*
X159301310Y-60869507D01*
X159535000Y-60305330D01*
X159535000Y-59694670D01*
X159301310Y-59130493D01*
X158869507Y-58698690D01*
X158305330Y-58465000D01*
X157694670Y-58465000D01*
X157130493Y-58698690D01*
X156698690Y-59130493D01*
X156465000Y-59694670D01*
X155300000Y-59694670D01*
X155300000Y-53726669D01*
X155409507Y-53681310D01*
X155841310Y-53249507D01*
X156075000Y-52685330D01*
X156075000Y-52074670D01*
X155841310Y-51510493D01*
X155409507Y-51078690D01*
X154845330Y-50845000D01*
X154234670Y-50845000D01*
X153670493Y-51078690D01*
X153238690Y-51510493D01*
X153005000Y-52074670D01*
X153005000Y-52685330D01*
X153238690Y-53249507D01*
X153670493Y-53681310D01*
X153780000Y-53726669D01*
X153780001Y-70745197D01*
X140760199Y-83765000D01*
X140354343Y-83765000D01*
X140285001Y-83793722D01*
X140285001Y-68689800D01*
X148124474Y-60850328D01*
X148187930Y-60807928D01*
X148355905Y-60556536D01*
X148400001Y-60334851D01*
X148400001Y-60334847D01*
X148414889Y-60260000D01*
X148400001Y-60185153D01*
X148400001Y-59694670D01*
X150465000Y-59694670D01*
X150465000Y-60305330D01*
X150698690Y-60869507D01*
X151130493Y-61301310D01*
X151694670Y-61535000D01*
X152305330Y-61535000D01*
X152869507Y-61301310D01*
X153301310Y-60869507D01*
X153535000Y-60305330D01*
X153535000Y-59694670D01*
X153301310Y-59130493D01*
X152869507Y-58698690D01*
X152305330Y-58465000D01*
X151694670Y-58465000D01*
X151130493Y-58698690D01*
X150698690Y-59130493D01*
X150465000Y-59694670D01*
X148400001Y-59694670D01*
X148400001Y-53915000D01*
X148845330Y-53915000D01*
X149409507Y-53681310D01*
X149841310Y-53249507D01*
X150075000Y-52685330D01*
X150075000Y-52074670D01*
X149841310Y-51510493D01*
X149409507Y-51078690D01*
X148845330Y-50845000D01*
X148234670Y-50845000D01*
X147670493Y-51078690D01*
X147238690Y-51510493D01*
X147005000Y-52074670D01*
X147005000Y-52685330D01*
X147050273Y-52794627D01*
X146924097Y-52983463D01*
X146880001Y-53205148D01*
X146880001Y-53205152D01*
X146865113Y-53279999D01*
X146880001Y-53354846D01*
X146880002Y-58709185D01*
X146869507Y-58698690D01*
X146305330Y-58465000D01*
X145694670Y-58465000D01*
X145130493Y-58698690D01*
X144698690Y-59130493D01*
X144465000Y-59694670D01*
X144465000Y-60305330D01*
X144698690Y-60869507D01*
X145130493Y-61301310D01*
X145408665Y-61416533D01*
X139360000Y-67465199D01*
X139360000Y-65214801D01*
X143024476Y-61550327D01*
X143087929Y-61507929D01*
X143130327Y-61444476D01*
X143130329Y-61444474D01*
X143255903Y-61256538D01*
X143255904Y-61256537D01*
X143300000Y-61034852D01*
X143300000Y-61034848D01*
X143314888Y-60960001D01*
X143300000Y-60885154D01*
X143300000Y-53726669D01*
X143409507Y-53681310D01*
X143841310Y-53249507D01*
X144075000Y-52685330D01*
X144075000Y-52074670D01*
X143841310Y-51510493D01*
X143409507Y-51078690D01*
X142845330Y-50845000D01*
X142234670Y-50845000D01*
X141670493Y-51078690D01*
X141238690Y-51510493D01*
X141005000Y-52074670D01*
X141005000Y-52685330D01*
X141238690Y-53249507D01*
X141670493Y-53681310D01*
X141780000Y-53726669D01*
X141780001Y-60645196D01*
X138285001Y-64140198D01*
X138285001Y-59694670D01*
X138465000Y-59694670D01*
X138465000Y-60305330D01*
X138698690Y-60869507D01*
X139130493Y-61301310D01*
X139694670Y-61535000D01*
X140305330Y-61535000D01*
X140869507Y-61301310D01*
X141301310Y-60869507D01*
X141535000Y-60305330D01*
X141535000Y-59694670D01*
X141301310Y-59130493D01*
X140869507Y-58698690D01*
X140305330Y-58465000D01*
X139694670Y-58465000D01*
X139130493Y-58698690D01*
X138698690Y-59130493D01*
X138465000Y-59694670D01*
X138285001Y-59694670D01*
X138285001Y-53439849D01*
X138299889Y-53365001D01*
X138285001Y-53290153D01*
X138285001Y-53290149D01*
X138240905Y-53068464D01*
X138240905Y-53068463D01*
X138115330Y-52880528D01*
X138072930Y-52817072D01*
X138031811Y-52789597D01*
X138075000Y-52685330D01*
X138075000Y-52074670D01*
X137841310Y-51510493D01*
X137409507Y-51078690D01*
X136845330Y-50845000D01*
X136234670Y-50845000D01*
X135670493Y-51078690D01*
X135238690Y-51510493D01*
X135005000Y-52074670D01*
X135005000Y-52685330D01*
X135238690Y-53249507D01*
X135670493Y-53681310D01*
X136234670Y-53915000D01*
X136765001Y-53915000D01*
X136765001Y-57530199D01*
X132029640Y-52794839D01*
X132075000Y-52685330D01*
X132075000Y-52074670D01*
X131841310Y-51510493D01*
X131409507Y-51078690D01*
X130845330Y-50845000D01*
X130234670Y-50845000D01*
X129670493Y-51078690D01*
X129238690Y-51510493D01*
X129005000Y-52074670D01*
X129005000Y-52685330D01*
X129238690Y-53249507D01*
X129670493Y-53681310D01*
X130234670Y-53915000D01*
X130845330Y-53915000D01*
X130954839Y-53869640D01*
X135840000Y-58754802D01*
X135840001Y-81165198D01*
X125300000Y-70625199D01*
X125300000Y-59694670D01*
X126465000Y-59694670D01*
X126465000Y-60305330D01*
X126698690Y-60869507D01*
X127130493Y-61301310D01*
X127694670Y-61535000D01*
X128305330Y-61535000D01*
X128869507Y-61301310D01*
X129301310Y-60869507D01*
X129535000Y-60305330D01*
X129535000Y-59694670D01*
X132465000Y-59694670D01*
X132465000Y-60305330D01*
X132698690Y-60869507D01*
X133130493Y-61301310D01*
X133694670Y-61535000D01*
X134305330Y-61535000D01*
X134869507Y-61301310D01*
X135301310Y-60869507D01*
X135535000Y-60305330D01*
X135535000Y-59694670D01*
X135301310Y-59130493D01*
X134869507Y-58698690D01*
X134305330Y-58465000D01*
X133694670Y-58465000D01*
X133130493Y-58698690D01*
X132698690Y-59130493D01*
X132465000Y-59694670D01*
X129535000Y-59694670D01*
X129301310Y-59130493D01*
X128869507Y-58698690D01*
X128305330Y-58465000D01*
X127694670Y-58465000D01*
X127130493Y-58698690D01*
X126698690Y-59130493D01*
X126465000Y-59694670D01*
X125300000Y-59694670D01*
X125300000Y-53726669D01*
X125409507Y-53681310D01*
X125841310Y-53249507D01*
X126075000Y-52685330D01*
X126075000Y-52074670D01*
X125841310Y-51510493D01*
X125409507Y-51078690D01*
X124845330Y-50845000D01*
X124234670Y-50845000D01*
X123670493Y-51078690D01*
X123238690Y-51510493D01*
X123005000Y-52074670D01*
X123005000Y-52685330D01*
X123238690Y-53249507D01*
X123670493Y-53681310D01*
X123780000Y-53726669D01*
X123780001Y-70865148D01*
X123765112Y-70940000D01*
X123824097Y-71236537D01*
X123849789Y-71274987D01*
X119300000Y-66725199D01*
X119300000Y-59694670D01*
X120465000Y-59694670D01*
X120465000Y-60305330D01*
X120698690Y-60869507D01*
X121130493Y-61301310D01*
X121694670Y-61535000D01*
X122305330Y-61535000D01*
X122869507Y-61301310D01*
X123301310Y-60869507D01*
X123535000Y-60305330D01*
X123535000Y-59694670D01*
X123301310Y-59130493D01*
X122869507Y-58698690D01*
X122305330Y-58465000D01*
X121694670Y-58465000D01*
X121130493Y-58698690D01*
X120698690Y-59130493D01*
X120465000Y-59694670D01*
X119300000Y-59694670D01*
X119300000Y-53726669D01*
X119409507Y-53681310D01*
X119841310Y-53249507D01*
X120075000Y-52685330D01*
X120075000Y-52074670D01*
X119841310Y-51510493D01*
X119409507Y-51078690D01*
X118845330Y-50845000D01*
X118234670Y-50845000D01*
X117670493Y-51078690D01*
X117238690Y-51510493D01*
X117005000Y-52074670D01*
X117005000Y-52685330D01*
X117238690Y-53249507D01*
X117670493Y-53681310D01*
X117780000Y-53726669D01*
X117780001Y-66965148D01*
X117765112Y-67040000D01*
X117824097Y-67336537D01*
X117849789Y-67374988D01*
X113300000Y-62825199D01*
X113300000Y-59694670D01*
X114465000Y-59694670D01*
X114465000Y-60305330D01*
X114698690Y-60869507D01*
X115130493Y-61301310D01*
X115694670Y-61535000D01*
X116305330Y-61535000D01*
X116869507Y-61301310D01*
X117301310Y-60869507D01*
X117535000Y-60305330D01*
X117535000Y-59694670D01*
X117301310Y-59130493D01*
X116869507Y-58698690D01*
X116305330Y-58465000D01*
X115694670Y-58465000D01*
X115130493Y-58698690D01*
X114698690Y-59130493D01*
X114465000Y-59694670D01*
X113300000Y-59694670D01*
X113300000Y-53726669D01*
X113409507Y-53681310D01*
X113841310Y-53249507D01*
X114075000Y-52685330D01*
X114075000Y-52074670D01*
X113841310Y-51510493D01*
X113409507Y-51078690D01*
X112845330Y-50845000D01*
X112234670Y-50845000D01*
X111670493Y-51078690D01*
X111238690Y-51510493D01*
X111005000Y-52074670D01*
X111005000Y-52685330D01*
X111238690Y-53249507D01*
X111670493Y-53681310D01*
X111780000Y-53726669D01*
X111780001Y-63065148D01*
X111765112Y-63140000D01*
X111780001Y-63214852D01*
X111824097Y-63436537D01*
X111992072Y-63687929D01*
X112055528Y-63730329D01*
X114165199Y-65840000D01*
X109214802Y-65840000D01*
X107300000Y-63925199D01*
X107300000Y-59694670D01*
X108465000Y-59694670D01*
X108465000Y-60305330D01*
X108698690Y-60869507D01*
X109130493Y-61301310D01*
X109694670Y-61535000D01*
X110305330Y-61535000D01*
X110869507Y-61301310D01*
X111301310Y-60869507D01*
X111535000Y-60305330D01*
X111535000Y-59694670D01*
X111301310Y-59130493D01*
X110869507Y-58698690D01*
X110305330Y-58465000D01*
X109694670Y-58465000D01*
X109130493Y-58698690D01*
X108698690Y-59130493D01*
X108465000Y-59694670D01*
X107300000Y-59694670D01*
X107300000Y-53726669D01*
X107409507Y-53681310D01*
X107841310Y-53249507D01*
X108075000Y-52685330D01*
X108075000Y-52074670D01*
X107841310Y-51510493D01*
X107409507Y-51078690D01*
X106845330Y-50845000D01*
X106234670Y-50845000D01*
X105670493Y-51078690D01*
X105238690Y-51510493D01*
X105005000Y-52074670D01*
X105005000Y-52685330D01*
X105238690Y-53249507D01*
X105670493Y-53681310D01*
X105780000Y-53726669D01*
X105780001Y-64165148D01*
X105765112Y-64240000D01*
X105824097Y-64536537D01*
X105868816Y-64603463D01*
X105992072Y-64787929D01*
X106055528Y-64830329D01*
X108165198Y-66940000D01*
X102314802Y-66940000D01*
X101300000Y-65925199D01*
X101300000Y-59694670D01*
X102465000Y-59694670D01*
X102465000Y-60305330D01*
X102698690Y-60869507D01*
X103130493Y-61301310D01*
X103694670Y-61535000D01*
X104305330Y-61535000D01*
X104869507Y-61301310D01*
X105301310Y-60869507D01*
X105535000Y-60305330D01*
X105535000Y-59694670D01*
X105301310Y-59130493D01*
X104869507Y-58698690D01*
X104305330Y-58465000D01*
X103694670Y-58465000D01*
X103130493Y-58698690D01*
X102698690Y-59130493D01*
X102465000Y-59694670D01*
X101300000Y-59694670D01*
X101300000Y-53726669D01*
X101409507Y-53681310D01*
X101841310Y-53249507D01*
X102075000Y-52685330D01*
X102075000Y-52074670D01*
X101841310Y-51510493D01*
X101409507Y-51078690D01*
X100845330Y-50845000D01*
X100234670Y-50845000D01*
X99670493Y-51078690D01*
X99238690Y-51510493D01*
X99005000Y-52074670D01*
X99005000Y-52685330D01*
X99238690Y-53249507D01*
X99670493Y-53681310D01*
X99780000Y-53726669D01*
X99780001Y-66165148D01*
X99765112Y-66240000D01*
X99780001Y-66314852D01*
X99824097Y-66536537D01*
X99992072Y-66787929D01*
X100055528Y-66830329D01*
X101409670Y-68184472D01*
X101446773Y-68240000D01*
X97614803Y-68240000D01*
X95300000Y-65925199D01*
X95300000Y-59694670D01*
X96465000Y-59694670D01*
X96465000Y-60305330D01*
X96698690Y-60869507D01*
X97130493Y-61301310D01*
X97694670Y-61535000D01*
X98305330Y-61535000D01*
X98869507Y-61301310D01*
X99301310Y-60869507D01*
X99535000Y-60305330D01*
X99535000Y-59694670D01*
X99301310Y-59130493D01*
X98869507Y-58698690D01*
X98305330Y-58465000D01*
X97694670Y-58465000D01*
X97130493Y-58698690D01*
X96698690Y-59130493D01*
X96465000Y-59694670D01*
X95300000Y-59694670D01*
X95300000Y-53726669D01*
X95409507Y-53681310D01*
X95841310Y-53249507D01*
X96075000Y-52685330D01*
X96075000Y-52074670D01*
X95841310Y-51510493D01*
X95409507Y-51078690D01*
X94845330Y-50845000D01*
X94234670Y-50845000D01*
X93670493Y-51078690D01*
X93238690Y-51510493D01*
X93005000Y-52074670D01*
X93005000Y-52685330D01*
X93238690Y-53249507D01*
X93670493Y-53681310D01*
X93780000Y-53726669D01*
X93780001Y-66165148D01*
X93765112Y-66240000D01*
X93780001Y-66314852D01*
X93824097Y-66536537D01*
X93992072Y-66787929D01*
X94055528Y-66830329D01*
X96709673Y-69484476D01*
X96746773Y-69540000D01*
X95814803Y-69540000D01*
X89300000Y-63025199D01*
X89300000Y-59694670D01*
X90465000Y-59694670D01*
X90465000Y-60305330D01*
X90698690Y-60869507D01*
X91130493Y-61301310D01*
X91694670Y-61535000D01*
X92305330Y-61535000D01*
X92869507Y-61301310D01*
X93301310Y-60869507D01*
X93535000Y-60305330D01*
X93535000Y-59694670D01*
X93301310Y-59130493D01*
X92869507Y-58698690D01*
X92305330Y-58465000D01*
X91694670Y-58465000D01*
X91130493Y-58698690D01*
X90698690Y-59130493D01*
X90465000Y-59694670D01*
X89300000Y-59694670D01*
X89300000Y-53726669D01*
X89409507Y-53681310D01*
X89841310Y-53249507D01*
X90075000Y-52685330D01*
X90075000Y-52074670D01*
X89841310Y-51510493D01*
X89409507Y-51078690D01*
X88845330Y-50845000D01*
X88234670Y-50845000D01*
X87670493Y-51078690D01*
X87238690Y-51510493D01*
X87005000Y-52074670D01*
X87005000Y-52685330D01*
X87238690Y-53249507D01*
X87670493Y-53681310D01*
X87780000Y-53726669D01*
X87780001Y-63265148D01*
X87765112Y-63340000D01*
X87780001Y-63414852D01*
X87824097Y-63636537D01*
X87992072Y-63887929D01*
X88055528Y-63930329D01*
X94865197Y-70740000D01*
X87014803Y-70740000D01*
X83300000Y-67025199D01*
X83300000Y-59694670D01*
X84465000Y-59694670D01*
X84465000Y-60305330D01*
X84698690Y-60869507D01*
X85130493Y-61301310D01*
X85694670Y-61535000D01*
X86305330Y-61535000D01*
X86869507Y-61301310D01*
X87301310Y-60869507D01*
X87535000Y-60305330D01*
X87535000Y-59694670D01*
X87301310Y-59130493D01*
X86869507Y-58698690D01*
X86305330Y-58465000D01*
X85694670Y-58465000D01*
X85130493Y-58698690D01*
X84698690Y-59130493D01*
X84465000Y-59694670D01*
X83300000Y-59694670D01*
X83300000Y-53726669D01*
X83409507Y-53681310D01*
X83841310Y-53249507D01*
X84075000Y-52685330D01*
X84075000Y-52074670D01*
X83841310Y-51510493D01*
X83409507Y-51078690D01*
X82845330Y-50845000D01*
X82234670Y-50845000D01*
X81670493Y-51078690D01*
X81238690Y-51510493D01*
X81005000Y-52074670D01*
X81005000Y-52685330D01*
X81238690Y-53249507D01*
X81670493Y-53681310D01*
X81780000Y-53726669D01*
X81780001Y-67265148D01*
X81765112Y-67340000D01*
X81824097Y-67636537D01*
X81903856Y-67755904D01*
X81992072Y-67887929D01*
X82055528Y-67930329D01*
X85765197Y-71640000D01*
X78214803Y-71640000D01*
X77300000Y-70725199D01*
X77300000Y-59694670D01*
X78465000Y-59694670D01*
X78465000Y-60305330D01*
X78698690Y-60869507D01*
X79130493Y-61301310D01*
X79694670Y-61535000D01*
X80305330Y-61535000D01*
X80869507Y-61301310D01*
X81301310Y-60869507D01*
X81535000Y-60305330D01*
X81535000Y-59694670D01*
X81301310Y-59130493D01*
X80869507Y-58698690D01*
X80305330Y-58465000D01*
X79694670Y-58465000D01*
X79130493Y-58698690D01*
X78698690Y-59130493D01*
X78465000Y-59694670D01*
X77300000Y-59694670D01*
X77300000Y-53726669D01*
X77409507Y-53681310D01*
X77841310Y-53249507D01*
X78075000Y-52685330D01*
X78075000Y-52074670D01*
X77841310Y-51510493D01*
X77409507Y-51078690D01*
X76845330Y-50845000D01*
X76234670Y-50845000D01*
X75670493Y-51078690D01*
X75238690Y-51510493D01*
X75005000Y-52074670D01*
X75005000Y-52685330D01*
X75238690Y-53249507D01*
X75670493Y-53681310D01*
X75780000Y-53726669D01*
X75780001Y-70965148D01*
X75765112Y-71040000D01*
X75824097Y-71336537D01*
X75933320Y-71500000D01*
X75992072Y-71587929D01*
X76055528Y-71630329D01*
X77309673Y-72884476D01*
X77352071Y-72947929D01*
X77415524Y-72990327D01*
X77415526Y-72990329D01*
X77489864Y-73040000D01*
X72814802Y-73040000D01*
X71300000Y-71525199D01*
X71300000Y-59694670D01*
X72465000Y-59694670D01*
X72465000Y-60305330D01*
X72698690Y-60869507D01*
X73130493Y-61301310D01*
X73694670Y-61535000D01*
X74305330Y-61535000D01*
X74869507Y-61301310D01*
X75301310Y-60869507D01*
X75535000Y-60305330D01*
X75535000Y-59694670D01*
X75301310Y-59130493D01*
X74869507Y-58698690D01*
X74305330Y-58465000D01*
X73694670Y-58465000D01*
X73130493Y-58698690D01*
X72698690Y-59130493D01*
X72465000Y-59694670D01*
X71300000Y-59694670D01*
X71300000Y-53726669D01*
X71409507Y-53681310D01*
X71841310Y-53249507D01*
X72075000Y-52685330D01*
X72075000Y-52074670D01*
X71841310Y-51510493D01*
X71409507Y-51078690D01*
X70845330Y-50845000D01*
X70234670Y-50845000D01*
X69670493Y-51078690D01*
X69238690Y-51510493D01*
X69005000Y-52074670D01*
X69005000Y-52685330D01*
X69238690Y-53249507D01*
X69670493Y-53681310D01*
X69780000Y-53726669D01*
X69780001Y-71765148D01*
X69765112Y-71840000D01*
X69780001Y-71914852D01*
X69824097Y-72136537D01*
X69992072Y-72387929D01*
X70055528Y-72430329D01*
X71865198Y-74240000D01*
X69214802Y-74240000D01*
X65260000Y-70285199D01*
X65260000Y-59694670D01*
X66465000Y-59694670D01*
X66465000Y-60305330D01*
X66698690Y-60869507D01*
X67130493Y-61301310D01*
X67694670Y-61535000D01*
X68305330Y-61535000D01*
X68869507Y-61301310D01*
X69301310Y-60869507D01*
X69535000Y-60305330D01*
X69535000Y-59694670D01*
X69301310Y-59130493D01*
X68869507Y-58698690D01*
X68305330Y-58465000D01*
X67694670Y-58465000D01*
X67130493Y-58698690D01*
X66698690Y-59130493D01*
X66465000Y-59694670D01*
X65260000Y-59694670D01*
X65260000Y-58628947D01*
X65300000Y-58427854D01*
X65300000Y-58427850D01*
X65314888Y-58353002D01*
X65300000Y-58278154D01*
X65300000Y-53726669D01*
X65409507Y-53681310D01*
X65841310Y-53249507D01*
X66075000Y-52685330D01*
X66075000Y-52074670D01*
X65841310Y-51510493D01*
X65409507Y-51078690D01*
X64845330Y-50845000D01*
X64234670Y-50845000D01*
X63670493Y-51078690D01*
X63238690Y-51510493D01*
X63005000Y-52074670D01*
X63005000Y-52685330D01*
X63238690Y-53249507D01*
X63670493Y-53681310D01*
X63780000Y-53726669D01*
X63780001Y-58117053D01*
X63740000Y-58318151D01*
X63740000Y-58318155D01*
X63725112Y-58393002D01*
X63740000Y-58467849D01*
X63740001Y-70265200D01*
X60199999Y-66725198D01*
X60199999Y-59694670D01*
X60465000Y-59694670D01*
X60465000Y-60305330D01*
X60698690Y-60869507D01*
X61130493Y-61301310D01*
X61694670Y-61535000D01*
X62305330Y-61535000D01*
X62869507Y-61301310D01*
X63301310Y-60869507D01*
X63535000Y-60305330D01*
X63535000Y-59694670D01*
X63301310Y-59130493D01*
X62869507Y-58698690D01*
X62305330Y-58465000D01*
X61694670Y-58465000D01*
X61130493Y-58698690D01*
X60698690Y-59130493D01*
X60465000Y-59694670D01*
X60199999Y-59694670D01*
X60199999Y-53354847D01*
X60214887Y-53279999D01*
X60199999Y-53205151D01*
X60199999Y-53205147D01*
X60155903Y-52983462D01*
X60155903Y-52983461D01*
X60030328Y-52795526D01*
X60029728Y-52794627D01*
X60075000Y-52685330D01*
X60075000Y-52074670D01*
X59841310Y-51510493D01*
X59409507Y-51078690D01*
X58845330Y-50845000D01*
X58234670Y-50845000D01*
X57670493Y-51078690D01*
X57238690Y-51510493D01*
X57005000Y-52074670D01*
X57005000Y-52685330D01*
X57238690Y-53249507D01*
X57670493Y-53681310D01*
X58234670Y-53915000D01*
X58679999Y-53915000D01*
X58679999Y-59787066D01*
X58647929Y-59739069D01*
X58584476Y-59696671D01*
X53300000Y-54412197D01*
X53300000Y-53726669D01*
X53409507Y-53681310D01*
X53841310Y-53249507D01*
X54075000Y-52685330D01*
X54075000Y-52074670D01*
X53841310Y-51510493D01*
X53409507Y-51078690D01*
X52845330Y-50845000D01*
X52234670Y-50845000D01*
X51670493Y-51078690D01*
X51238690Y-51510493D01*
X51005000Y-52074670D01*
X51005000Y-52685330D01*
X51238690Y-53249507D01*
X51670493Y-53681310D01*
X51780001Y-53726670D01*
X51780001Y-54652146D01*
X51765112Y-54726998D01*
X51780001Y-54801850D01*
X51824097Y-55023535D01*
X51992072Y-55274927D01*
X52055528Y-55317327D01*
X55347148Y-58608948D01*
X55130493Y-58698690D01*
X54698690Y-59130493D01*
X54465000Y-59694670D01*
X54465000Y-60305330D01*
X54698690Y-60869507D01*
X55130493Y-61301310D01*
X55694670Y-61535000D01*
X56305330Y-61535000D01*
X56869507Y-61301310D01*
X57301310Y-60869507D01*
X57340000Y-60776101D01*
X57340001Y-67525148D01*
X57325112Y-67600000D01*
X57384097Y-67896537D01*
X57505656Y-68078462D01*
X57552072Y-68147929D01*
X57615528Y-68190329D01*
X67609670Y-78184472D01*
X67646773Y-78240000D01*
X67614803Y-78240000D01*
X54760000Y-65385199D01*
X54760000Y-62261844D01*
X54774888Y-62186997D01*
X54760000Y-62112150D01*
X54760000Y-62112146D01*
X54715904Y-61890461D01*
X54547929Y-61639069D01*
X54484473Y-61596669D01*
X47300000Y-54412197D01*
X47300000Y-53726669D01*
X47409507Y-53681310D01*
X47841310Y-53249507D01*
X48075000Y-52685330D01*
X48075000Y-52074670D01*
X47841310Y-51510493D01*
X47409507Y-51078690D01*
X46845330Y-50845000D01*
X46234670Y-50845000D01*
X45670493Y-51078690D01*
X45238690Y-51510493D01*
X45005000Y-52074670D01*
X45005000Y-52685330D01*
X45238690Y-53249507D01*
X45670493Y-53681310D01*
X45780001Y-53726670D01*
X45780001Y-54652146D01*
X45765112Y-54726998D01*
X45780001Y-54801850D01*
X45824097Y-55023535D01*
X45992072Y-55274927D01*
X46055528Y-55317327D01*
X49347149Y-58608948D01*
X49130493Y-58698690D01*
X48698690Y-59130493D01*
X48465000Y-59694670D01*
X48465000Y-60305330D01*
X48698690Y-60869507D01*
X49130493Y-61301310D01*
X49694670Y-61535000D01*
X50305330Y-61535000D01*
X50869507Y-61301310D01*
X51301310Y-60869507D01*
X51391052Y-60652851D01*
X53240000Y-62501800D01*
X53240001Y-65625148D01*
X53225112Y-65700000D01*
X53284097Y-65996537D01*
X53363604Y-66115527D01*
X53452072Y-66247929D01*
X53515528Y-66290329D01*
X66565197Y-79340000D01*
X66227804Y-79340000D01*
X41300000Y-54412197D01*
X41300000Y-53726669D01*
X41409507Y-53681310D01*
X41841310Y-53249507D01*
X42075000Y-52685330D01*
X42075000Y-52074670D01*
X41841310Y-51510493D01*
X41409507Y-51078690D01*
X40845330Y-50845000D01*
X40234670Y-50845000D01*
X39670493Y-51078690D01*
X39238690Y-51510493D01*
X39005000Y-52074670D01*
X39005000Y-52685330D01*
X39238690Y-53249507D01*
X39670493Y-53681310D01*
X39780001Y-53726670D01*
X39780001Y-54652146D01*
X39765112Y-54726998D01*
X39780001Y-54801850D01*
X39824097Y-55023535D01*
X39992072Y-55274927D01*
X40055528Y-55317327D01*
X43347149Y-58608948D01*
X43130493Y-58698690D01*
X42698690Y-59130493D01*
X42601041Y-59366239D01*
X36029640Y-52794839D01*
X36075000Y-52685330D01*
X36075000Y-52074670D01*
X35841310Y-51510493D01*
X35409507Y-51078690D01*
X34845330Y-50845000D01*
X34234670Y-50845000D01*
X33670493Y-51078690D01*
X33238690Y-51510493D01*
X33005000Y-52074670D01*
X33005000Y-52685330D01*
X33238690Y-53249507D01*
X33670493Y-53681310D01*
X34234670Y-53915000D01*
X34845330Y-53915000D01*
X34954839Y-53869640D01*
X62925198Y-81840000D01*
X59074802Y-81840000D01*
X38633761Y-61398959D01*
X38869507Y-61301310D01*
X39301310Y-60869507D01*
X39535000Y-60305330D01*
X39535000Y-59694670D01*
X39301310Y-59130493D01*
X38869507Y-58698690D01*
X38305330Y-58465000D01*
X37694670Y-58465000D01*
X37130493Y-58698690D01*
X36698690Y-59130493D01*
X36601041Y-59366239D01*
X30029640Y-52794839D01*
X30075000Y-52685330D01*
X30075000Y-52074670D01*
X29841310Y-51510493D01*
X29409507Y-51078690D01*
X28845330Y-50845000D01*
X28234670Y-50845000D01*
X27670493Y-51078690D01*
X27238690Y-51510493D01*
X27005000Y-52074670D01*
X27005000Y-52685330D01*
X27238690Y-53249507D01*
X27670493Y-53681310D01*
X28234670Y-53915000D01*
X28845330Y-53915000D01*
X28954839Y-53869640D01*
X57400197Y-82314999D01*
X53549801Y-82314999D01*
X32633761Y-61398959D01*
X32869507Y-61301310D01*
X33301310Y-60869507D01*
X33535000Y-60305330D01*
X33535000Y-59694670D01*
X33301310Y-59130493D01*
X32869507Y-58698690D01*
X32305330Y-58465000D01*
X31694670Y-58465000D01*
X31130493Y-58698690D01*
X30698690Y-59130493D01*
X30601041Y-59366239D01*
X24029640Y-52794839D01*
X24075000Y-52685330D01*
X24075000Y-52074670D01*
X23841310Y-51510493D01*
X23409507Y-51078690D01*
X22845330Y-50845000D01*
X22234670Y-50845000D01*
X21670493Y-51078690D01*
X21238690Y-51510493D01*
X21005000Y-52074670D01*
X21005000Y-52685330D01*
X21238690Y-53249507D01*
X21670493Y-53681310D01*
X22234670Y-53915000D01*
X22845330Y-53915000D01*
X22954839Y-53869640D01*
X52644669Y-83559471D01*
X52687070Y-83622928D01*
X52938462Y-83790903D01*
X53160147Y-83834999D01*
X53160152Y-83834999D01*
X53234999Y-83849887D01*
X53262721Y-83844373D01*
X53000429Y-83953018D01*
X52700000Y-84253447D01*
X52399571Y-83953018D01*
X51945657Y-83765000D01*
X51454343Y-83765000D01*
X51000429Y-83953018D01*
X50700000Y-84253447D01*
X50399571Y-83953018D01*
X49945657Y-83765000D01*
X49454343Y-83765000D01*
X49000429Y-83953018D01*
X48700000Y-84253447D01*
X48399571Y-83953018D01*
X47945657Y-83765000D01*
X47454343Y-83765000D01*
X47000429Y-83953018D01*
X46700000Y-84253447D01*
X46399571Y-83953018D01*
X45945657Y-83765000D01*
X45454343Y-83765000D01*
X45000429Y-83953018D01*
X44700000Y-84253447D01*
X44399571Y-83953018D01*
X43945657Y-83765000D01*
X43454343Y-83765000D01*
X43000429Y-83953018D01*
X42859326Y-84094121D01*
X42757809Y-83942191D01*
X42547765Y-83801843D01*
X42300000Y-83752560D01*
X41100000Y-83752560D01*
X40852235Y-83801843D01*
X40642191Y-83942191D01*
X40501843Y-84152235D01*
X40452560Y-84400000D01*
X40452560Y-85600000D01*
X40501843Y-85847765D01*
X40642191Y-86057809D01*
X40794121Y-86159326D01*
X40653018Y-86300429D01*
X40465000Y-86754343D01*
X40465000Y-87245657D01*
X40653018Y-87699571D01*
X41000429Y-88046982D01*
X41454343Y-88235000D01*
X41945657Y-88235000D01*
X42399571Y-88046982D01*
X42700000Y-87746553D01*
X43000429Y-88046982D01*
X43454343Y-88235000D01*
X43945657Y-88235000D01*
X44399571Y-88046982D01*
X44700000Y-87746553D01*
X45000429Y-88046982D01*
X45454343Y-88235000D01*
X45945657Y-88235000D01*
X46399571Y-88046982D01*
X46700000Y-87746553D01*
X47000429Y-88046982D01*
X47454343Y-88235000D01*
X47945657Y-88235000D01*
X48399571Y-88046982D01*
X48700000Y-87746553D01*
X49000429Y-88046982D01*
X49454343Y-88235000D01*
X49945657Y-88235000D01*
X50399571Y-88046982D01*
X50700000Y-87746553D01*
X51000429Y-88046982D01*
X51454343Y-88235000D01*
X51945657Y-88235000D01*
X52399571Y-88046982D01*
X52700000Y-87746553D01*
X53000429Y-88046982D01*
X53454343Y-88235000D01*
X53945657Y-88235000D01*
X54399571Y-88046982D01*
X54700000Y-87746553D01*
X55000429Y-88046982D01*
X55454343Y-88235000D01*
X55945657Y-88235000D01*
X56399571Y-88046982D01*
X56700000Y-87746553D01*
X57000429Y-88046982D01*
X57454343Y-88235000D01*
X57945657Y-88235000D01*
X58399571Y-88046982D01*
X58700000Y-87746553D01*
X59000429Y-88046982D01*
X59454343Y-88235000D01*
X59945657Y-88235000D01*
X60399571Y-88046982D01*
X60700000Y-87746553D01*
X61000429Y-88046982D01*
X61454343Y-88235000D01*
X61945657Y-88235000D01*
X62399571Y-88046982D01*
X62700000Y-87746553D01*
X63000429Y-88046982D01*
X63454343Y-88235000D01*
X63945657Y-88235000D01*
X64399571Y-88046982D01*
X64746982Y-87699571D01*
X64935000Y-87245657D01*
X64935000Y-86754343D01*
X64746982Y-86300429D01*
X64446553Y-86000000D01*
X64746982Y-85699571D01*
X64935000Y-85245657D01*
X64935000Y-84754343D01*
X64746982Y-84300429D01*
X64399571Y-83953018D01*
X64114649Y-83834999D01*
X88357143Y-83834999D01*
X88228086Y-84161708D01*
X88065000Y-84555431D01*
X88065000Y-84574560D01*
X88057974Y-84592346D01*
X88065000Y-85018390D01*
X88065000Y-85444569D01*
X88072320Y-85462240D01*
X88072635Y-85481363D01*
X88384640Y-86234610D01*
X88394347Y-86239682D01*
X88405259Y-86266026D01*
X89033974Y-86894741D01*
X89060318Y-86905653D01*
X89065390Y-86915360D01*
X89461708Y-87071914D01*
X89855431Y-87235000D01*
X89874560Y-87235000D01*
X89892346Y-87242026D01*
X90318390Y-87235000D01*
X90744569Y-87235000D01*
X90762240Y-87227680D01*
X90781363Y-87227365D01*
X91534610Y-86915360D01*
X91539682Y-86905653D01*
X91566026Y-86894741D01*
X92194741Y-86266026D01*
X92205653Y-86239682D01*
X92215360Y-86234610D01*
X92371914Y-85838292D01*
X92535000Y-85444569D01*
X92535000Y-85425440D01*
X92542026Y-85407654D01*
X92535000Y-84981610D01*
X92535000Y-84555431D01*
X92527680Y-84537760D01*
X92527365Y-84518637D01*
X92244193Y-83834999D01*
X115510198Y-83834999D01*
X117159671Y-85484473D01*
X117202071Y-85547929D01*
X117363682Y-85655914D01*
X117401843Y-85847765D01*
X117542191Y-86057809D01*
X117694121Y-86159326D01*
X117553018Y-86300429D01*
X117365000Y-86754343D01*
X117365000Y-87245657D01*
X117553018Y-87699571D01*
X117900429Y-88046982D01*
X118354343Y-88235000D01*
X118845657Y-88235000D01*
X119299571Y-88046982D01*
X119600000Y-87746553D01*
X119900429Y-88046982D01*
X120354343Y-88235000D01*
X120845657Y-88235000D01*
X121299571Y-88046982D01*
X121600000Y-87746553D01*
X121900429Y-88046982D01*
X122354343Y-88235000D01*
X122845657Y-88235000D01*
X123299571Y-88046982D01*
X123600000Y-87746553D01*
X123900429Y-88046982D01*
X124354343Y-88235000D01*
X124845657Y-88235000D01*
X125299571Y-88046982D01*
X125600000Y-87746553D01*
X125900429Y-88046982D01*
X126354343Y-88235000D01*
X126845657Y-88235000D01*
X127299571Y-88046982D01*
X127600000Y-87746553D01*
X127900429Y-88046982D01*
X128354343Y-88235000D01*
X128845657Y-88235000D01*
X129299571Y-88046982D01*
X129600000Y-87746553D01*
X129900429Y-88046982D01*
X130354343Y-88235000D01*
X130845657Y-88235000D01*
X131299571Y-88046982D01*
X131600000Y-87746553D01*
X131900429Y-88046982D01*
X132354343Y-88235000D01*
X132845657Y-88235000D01*
X133299571Y-88046982D01*
X133600000Y-87746553D01*
X133900429Y-88046982D01*
X134354343Y-88235000D01*
X134845657Y-88235000D01*
X135299571Y-88046982D01*
X135600000Y-87746553D01*
X135900429Y-88046982D01*
X136354343Y-88235000D01*
X136845657Y-88235000D01*
X137299571Y-88046982D01*
X137600000Y-87746553D01*
X137900429Y-88046982D01*
X138354343Y-88235000D01*
X138845657Y-88235000D01*
X139299571Y-88046982D01*
X139600000Y-87746553D01*
X139900429Y-88046982D01*
X140354343Y-88235000D01*
X140845657Y-88235000D01*
X141299571Y-88046982D01*
X141646982Y-87699571D01*
X141835000Y-87245657D01*
X141835000Y-86839801D01*
X144082455Y-84592346D01*
X155257974Y-84592346D01*
X155265000Y-85018390D01*
X155265000Y-85444569D01*
X155272320Y-85462240D01*
X155272635Y-85481363D01*
X155584640Y-86234610D01*
X155594347Y-86239682D01*
X155605259Y-86266026D01*
X156233974Y-86894741D01*
X156260318Y-86905653D01*
X156265390Y-86915360D01*
X156661708Y-87071914D01*
X157055431Y-87235000D01*
X157074560Y-87235000D01*
X157092346Y-87242026D01*
X157518390Y-87235000D01*
X157944569Y-87235000D01*
X157962240Y-87227680D01*
X157981363Y-87227365D01*
X158734610Y-86915360D01*
X158739682Y-86905653D01*
X158766026Y-86894741D01*
X159394741Y-86266026D01*
X159405653Y-86239682D01*
X159415360Y-86234610D01*
X159571914Y-85838292D01*
X159735000Y-85444569D01*
X159735000Y-85425440D01*
X159742026Y-85407654D01*
X159735000Y-84981610D01*
X159735000Y-84555431D01*
X159727680Y-84537760D01*
X159727365Y-84518637D01*
X159415360Y-83765390D01*
X159405653Y-83760318D01*
X159394741Y-83733974D01*
X158766026Y-83105259D01*
X158739682Y-83094347D01*
X158734610Y-83084640D01*
X158338292Y-82928086D01*
X157944569Y-82765000D01*
X157925440Y-82765000D01*
X157907654Y-82757974D01*
X157481610Y-82765000D01*
X157055431Y-82765000D01*
X157037760Y-82772320D01*
X157018637Y-82772635D01*
X156265390Y-83084640D01*
X156260318Y-83094347D01*
X156233974Y-83105259D01*
X155605259Y-83733974D01*
X155594347Y-83760318D01*
X155584640Y-83765390D01*
X155428086Y-84161708D01*
X155265000Y-84555431D01*
X155265000Y-84574560D01*
X155257974Y-84592346D01*
X144082455Y-84592346D01*
X161024476Y-67650327D01*
X161087929Y-67607929D01*
X161130327Y-67544476D01*
X161130329Y-67544474D01*
X161255903Y-67356538D01*
X161255904Y-67356537D01*
X161300000Y-67134852D01*
X161300000Y-67134848D01*
X161314888Y-67060001D01*
X161300000Y-66985154D01*
X161300000Y-53726669D01*
X161409507Y-53681310D01*
X161765000Y-53325817D01*
X161765001Y-91265000D01*
X18235000Y-91265000D01*
X18235000Y-84592346D01*
X20257974Y-84592346D01*
X20265000Y-85018390D01*
X20265000Y-85444569D01*
X20272320Y-85462240D01*
X20272635Y-85481363D01*
X20584640Y-86234610D01*
X20594347Y-86239682D01*
X20605259Y-86266026D01*
X21233974Y-86894741D01*
X21260318Y-86905653D01*
X21265390Y-86915360D01*
X21661708Y-87071914D01*
X22055431Y-87235000D01*
X22074560Y-87235000D01*
X22092346Y-87242026D01*
X22518390Y-87235000D01*
X22944569Y-87235000D01*
X22962240Y-87227680D01*
X22981363Y-87227365D01*
X23734610Y-86915360D01*
X23739682Y-86905653D01*
X23766026Y-86894741D01*
X24394741Y-86266026D01*
X24405653Y-86239682D01*
X24415360Y-86234610D01*
X24571914Y-85838292D01*
X24735000Y-85444569D01*
X24735000Y-85425440D01*
X24742026Y-85407654D01*
X24735000Y-84981610D01*
X24735000Y-84555431D01*
X24727680Y-84537760D01*
X24727365Y-84518637D01*
X24415360Y-83765390D01*
X24405653Y-83760318D01*
X24394741Y-83733974D01*
X23766026Y-83105259D01*
X23739682Y-83094347D01*
X23734610Y-83084640D01*
X23338292Y-82928086D01*
X22944569Y-82765000D01*
X22925440Y-82765000D01*
X22907654Y-82757974D01*
X22481610Y-82765000D01*
X22055431Y-82765000D01*
X22037760Y-82772320D01*
X22018637Y-82772635D01*
X21265390Y-83084640D01*
X21260318Y-83094347D01*
X21233974Y-83105259D01*
X20605259Y-83733974D01*
X20594347Y-83760318D01*
X20584640Y-83765390D01*
X20428086Y-84161708D01*
X20265000Y-84555431D01*
X20265000Y-84574560D01*
X20257974Y-84592346D01*
X18235000Y-84592346D01*
X18235000Y-59694670D01*
X18465000Y-59694670D01*
X18465000Y-60305330D01*
X18698690Y-60869507D01*
X19130493Y-61301310D01*
X19694670Y-61535000D01*
X20305330Y-61535000D01*
X20869507Y-61301310D01*
X21301310Y-60869507D01*
X21535000Y-60305330D01*
X21535000Y-59694670D01*
X24465000Y-59694670D01*
X24465000Y-60305330D01*
X24698690Y-60869507D01*
X25130493Y-61301310D01*
X25694670Y-61535000D01*
X26305330Y-61535000D01*
X26869507Y-61301310D01*
X27301310Y-60869507D01*
X27535000Y-60305330D01*
X27535000Y-59694670D01*
X27301310Y-59130493D01*
X26869507Y-58698690D01*
X26305330Y-58465000D01*
X25694670Y-58465000D01*
X25130493Y-58698690D01*
X24698690Y-59130493D01*
X24465000Y-59694670D01*
X21535000Y-59694670D01*
X21301310Y-59130493D01*
X20869507Y-58698690D01*
X20305330Y-58465000D01*
X19694670Y-58465000D01*
X19130493Y-58698690D01*
X18698690Y-59130493D01*
X18465000Y-59694670D01*
X18235000Y-59694670D01*
X18235000Y-46994670D01*
X18465000Y-46994670D01*
X18465000Y-47605330D01*
X18698690Y-48169507D01*
X19130493Y-48601310D01*
X19694670Y-48835000D01*
X20305330Y-48835000D01*
X20869507Y-48601310D01*
X21301310Y-48169507D01*
X21535000Y-47605330D01*
X21535000Y-46994670D01*
X24465000Y-46994670D01*
X24465000Y-47605330D01*
X24698690Y-48169507D01*
X25130493Y-48601310D01*
X25694670Y-48835000D01*
X26305330Y-48835000D01*
X26869507Y-48601310D01*
X27301310Y-48169507D01*
X27535000Y-47605330D01*
X27535000Y-46994670D01*
X30465000Y-46994670D01*
X30465000Y-47605330D01*
X30698690Y-48169507D01*
X31130493Y-48601310D01*
X31694670Y-48835000D01*
X32305330Y-48835000D01*
X32869507Y-48601310D01*
X33301310Y-48169507D01*
X33535000Y-47605330D01*
X33535000Y-46994670D01*
X36465000Y-46994670D01*
X36465000Y-47605330D01*
X36698690Y-48169507D01*
X37130493Y-48601310D01*
X37694670Y-48835000D01*
X38305330Y-48835000D01*
X38869507Y-48601310D01*
X39301310Y-48169507D01*
X39535000Y-47605330D01*
X39535000Y-46994670D01*
X42465000Y-46994670D01*
X42465000Y-47605330D01*
X42698690Y-48169507D01*
X43130493Y-48601310D01*
X43694670Y-48835000D01*
X44305330Y-48835000D01*
X44869507Y-48601310D01*
X45301310Y-48169507D01*
X45535000Y-47605330D01*
X45535000Y-46994670D01*
X48465000Y-46994670D01*
X48465000Y-47605330D01*
X48698690Y-48169507D01*
X49130493Y-48601310D01*
X49694670Y-48835000D01*
X50305330Y-48835000D01*
X50869507Y-48601310D01*
X51301310Y-48169507D01*
X51535000Y-47605330D01*
X51535000Y-46994670D01*
X54465000Y-46994670D01*
X54465000Y-47605330D01*
X54698690Y-48169507D01*
X55130493Y-48601310D01*
X55694670Y-48835000D01*
X56305330Y-48835000D01*
X56869507Y-48601310D01*
X57301310Y-48169507D01*
X57535000Y-47605330D01*
X57535000Y-46994670D01*
X60465000Y-46994670D01*
X60465000Y-47605330D01*
X60698690Y-48169507D01*
X61130493Y-48601310D01*
X61694670Y-48835000D01*
X62305330Y-48835000D01*
X62869507Y-48601310D01*
X63301310Y-48169507D01*
X63535000Y-47605330D01*
X63535000Y-46994670D01*
X66465000Y-46994670D01*
X66465000Y-47605330D01*
X66698690Y-48169507D01*
X67130493Y-48601310D01*
X67694670Y-48835000D01*
X68305330Y-48835000D01*
X68869507Y-48601310D01*
X69301310Y-48169507D01*
X69535000Y-47605330D01*
X69535000Y-46994670D01*
X72465000Y-46994670D01*
X72465000Y-47605330D01*
X72698690Y-48169507D01*
X73130493Y-48601310D01*
X73694670Y-48835000D01*
X74305330Y-48835000D01*
X74869507Y-48601310D01*
X75301310Y-48169507D01*
X75535000Y-47605330D01*
X75535000Y-46994670D01*
X78465000Y-46994670D01*
X78465000Y-47605330D01*
X78698690Y-48169507D01*
X79130493Y-48601310D01*
X79694670Y-48835000D01*
X80305330Y-48835000D01*
X80869507Y-48601310D01*
X81301310Y-48169507D01*
X81535000Y-47605330D01*
X81535000Y-46994670D01*
X84465000Y-46994670D01*
X84465000Y-47605330D01*
X84698690Y-48169507D01*
X85130493Y-48601310D01*
X85694670Y-48835000D01*
X86305330Y-48835000D01*
X86869507Y-48601310D01*
X87301310Y-48169507D01*
X87535000Y-47605330D01*
X87535000Y-46994670D01*
X90465000Y-46994670D01*
X90465000Y-47605330D01*
X90698690Y-48169507D01*
X91130493Y-48601310D01*
X91694670Y-48835000D01*
X92305330Y-48835000D01*
X92869507Y-48601310D01*
X93301310Y-48169507D01*
X93535000Y-47605330D01*
X93535000Y-46994670D01*
X96465000Y-46994670D01*
X96465000Y-47605330D01*
X96698690Y-48169507D01*
X97130493Y-48601310D01*
X97694670Y-48835000D01*
X98305330Y-48835000D01*
X98869507Y-48601310D01*
X99301310Y-48169507D01*
X99535000Y-47605330D01*
X99535000Y-46994670D01*
X102465000Y-46994670D01*
X102465000Y-47605330D01*
X102698690Y-48169507D01*
X103130493Y-48601310D01*
X103694670Y-48835000D01*
X104305330Y-48835000D01*
X104869507Y-48601310D01*
X105301310Y-48169507D01*
X105535000Y-47605330D01*
X105535000Y-46994670D01*
X108465000Y-46994670D01*
X108465000Y-47605330D01*
X108698690Y-48169507D01*
X109130493Y-48601310D01*
X109694670Y-48835000D01*
X110305330Y-48835000D01*
X110869507Y-48601310D01*
X111301310Y-48169507D01*
X111535000Y-47605330D01*
X111535000Y-46994670D01*
X114465000Y-46994670D01*
X114465000Y-47605330D01*
X114698690Y-48169507D01*
X115130493Y-48601310D01*
X115694670Y-48835000D01*
X116305330Y-48835000D01*
X116869507Y-48601310D01*
X117301310Y-48169507D01*
X117535000Y-47605330D01*
X117535000Y-46994670D01*
X120465000Y-46994670D01*
X120465000Y-47605330D01*
X120698690Y-48169507D01*
X121130493Y-48601310D01*
X121694670Y-48835000D01*
X122305330Y-48835000D01*
X122869507Y-48601310D01*
X123301310Y-48169507D01*
X123535000Y-47605330D01*
X123535000Y-46994670D01*
X126465000Y-46994670D01*
X126465000Y-47605330D01*
X126698690Y-48169507D01*
X127130493Y-48601310D01*
X127694670Y-48835000D01*
X128305330Y-48835000D01*
X128869507Y-48601310D01*
X129301310Y-48169507D01*
X129535000Y-47605330D01*
X129535000Y-46994670D01*
X132465000Y-46994670D01*
X132465000Y-47605330D01*
X132698690Y-48169507D01*
X133130493Y-48601310D01*
X133694670Y-48835000D01*
X134305330Y-48835000D01*
X134869507Y-48601310D01*
X135301310Y-48169507D01*
X135535000Y-47605330D01*
X135535000Y-46994670D01*
X138465000Y-46994670D01*
X138465000Y-47605330D01*
X138698690Y-48169507D01*
X139130493Y-48601310D01*
X139694670Y-48835000D01*
X140305330Y-48835000D01*
X140869507Y-48601310D01*
X141301310Y-48169507D01*
X141535000Y-47605330D01*
X141535000Y-46994670D01*
X144465000Y-46994670D01*
X144465000Y-47605330D01*
X144698690Y-48169507D01*
X145130493Y-48601310D01*
X145694670Y-48835000D01*
X146305330Y-48835000D01*
X146869507Y-48601310D01*
X147301310Y-48169507D01*
X147535000Y-47605330D01*
X147535000Y-46994670D01*
X150465000Y-46994670D01*
X150465000Y-47605330D01*
X150698690Y-48169507D01*
X151130493Y-48601310D01*
X151694670Y-48835000D01*
X152305330Y-48835000D01*
X152869507Y-48601310D01*
X153301310Y-48169507D01*
X153535000Y-47605330D01*
X153535000Y-46994670D01*
X156465000Y-46994670D01*
X156465000Y-47605330D01*
X156698690Y-48169507D01*
X157130493Y-48601310D01*
X157694670Y-48835000D01*
X158305330Y-48835000D01*
X158869507Y-48601310D01*
X159301310Y-48169507D01*
X159535000Y-47605330D01*
X159535000Y-46994670D01*
X159301310Y-46430493D01*
X158869507Y-45998690D01*
X158305330Y-45765000D01*
X157694670Y-45765000D01*
X157130493Y-45998690D01*
X156698690Y-46430493D01*
X156465000Y-46994670D01*
X153535000Y-46994670D01*
X153301310Y-46430493D01*
X152869507Y-45998690D01*
X152305330Y-45765000D01*
X151694670Y-45765000D01*
X151130493Y-45998690D01*
X150698690Y-46430493D01*
X150465000Y-46994670D01*
X147535000Y-46994670D01*
X147301310Y-46430493D01*
X146869507Y-45998690D01*
X146305330Y-45765000D01*
X145694670Y-45765000D01*
X145130493Y-45998690D01*
X144698690Y-46430493D01*
X144465000Y-46994670D01*
X141535000Y-46994670D01*
X141301310Y-46430493D01*
X140869507Y-45998690D01*
X140305330Y-45765000D01*
X139694670Y-45765000D01*
X139130493Y-45998690D01*
X138698690Y-46430493D01*
X138465000Y-46994670D01*
X135535000Y-46994670D01*
X135301310Y-46430493D01*
X134869507Y-45998690D01*
X134305330Y-45765000D01*
X133694670Y-45765000D01*
X133130493Y-45998690D01*
X132698690Y-46430493D01*
X132465000Y-46994670D01*
X129535000Y-46994670D01*
X129301310Y-46430493D01*
X128869507Y-45998690D01*
X128305330Y-45765000D01*
X127694670Y-45765000D01*
X127130493Y-45998690D01*
X126698690Y-46430493D01*
X126465000Y-46994670D01*
X123535000Y-46994670D01*
X123301310Y-46430493D01*
X122869507Y-45998690D01*
X122305330Y-45765000D01*
X121694670Y-45765000D01*
X121130493Y-45998690D01*
X120698690Y-46430493D01*
X120465000Y-46994670D01*
X117535000Y-46994670D01*
X117301310Y-46430493D01*
X116869507Y-45998690D01*
X116305330Y-45765000D01*
X115694670Y-45765000D01*
X115130493Y-45998690D01*
X114698690Y-46430493D01*
X114465000Y-46994670D01*
X111535000Y-46994670D01*
X111301310Y-46430493D01*
X110869507Y-45998690D01*
X110305330Y-45765000D01*
X109694670Y-45765000D01*
X109130493Y-45998690D01*
X108698690Y-46430493D01*
X108465000Y-46994670D01*
X105535000Y-46994670D01*
X105301310Y-46430493D01*
X104869507Y-45998690D01*
X104305330Y-45765000D01*
X103694670Y-45765000D01*
X103130493Y-45998690D01*
X102698690Y-46430493D01*
X102465000Y-46994670D01*
X99535000Y-46994670D01*
X99301310Y-46430493D01*
X98869507Y-45998690D01*
X98305330Y-45765000D01*
X97694670Y-45765000D01*
X97130493Y-45998690D01*
X96698690Y-46430493D01*
X96465000Y-46994670D01*
X93535000Y-46994670D01*
X93301310Y-46430493D01*
X92869507Y-45998690D01*
X92305330Y-45765000D01*
X91694670Y-45765000D01*
X91130493Y-45998690D01*
X90698690Y-46430493D01*
X90465000Y-46994670D01*
X87535000Y-46994670D01*
X87301310Y-46430493D01*
X86869507Y-45998690D01*
X86305330Y-45765000D01*
X85694670Y-45765000D01*
X85130493Y-45998690D01*
X84698690Y-46430493D01*
X84465000Y-46994670D01*
X81535000Y-46994670D01*
X81301310Y-46430493D01*
X80869507Y-45998690D01*
X80305330Y-45765000D01*
X79694670Y-45765000D01*
X79130493Y-45998690D01*
X78698690Y-46430493D01*
X78465000Y-46994670D01*
X75535000Y-46994670D01*
X75301310Y-46430493D01*
X74869507Y-45998690D01*
X74305330Y-45765000D01*
X73694670Y-45765000D01*
X73130493Y-45998690D01*
X72698690Y-46430493D01*
X72465000Y-46994670D01*
X69535000Y-46994670D01*
X69301310Y-46430493D01*
X68869507Y-45998690D01*
X68305330Y-45765000D01*
X67694670Y-45765000D01*
X67130493Y-45998690D01*
X66698690Y-46430493D01*
X66465000Y-46994670D01*
X63535000Y-46994670D01*
X63301310Y-46430493D01*
X62869507Y-45998690D01*
X62305330Y-45765000D01*
X61694670Y-45765000D01*
X61130493Y-45998690D01*
X60698690Y-46430493D01*
X60465000Y-46994670D01*
X57535000Y-46994670D01*
X57301310Y-46430493D01*
X56869507Y-45998690D01*
X56305330Y-45765000D01*
X55694670Y-45765000D01*
X55130493Y-45998690D01*
X54698690Y-46430493D01*
X54465000Y-46994670D01*
X51535000Y-46994670D01*
X51301310Y-46430493D01*
X50869507Y-45998690D01*
X50305330Y-45765000D01*
X49694670Y-45765000D01*
X49130493Y-45998690D01*
X48698690Y-46430493D01*
X48465000Y-46994670D01*
X45535000Y-46994670D01*
X45301310Y-46430493D01*
X44869507Y-45998690D01*
X44305330Y-45765000D01*
X43694670Y-45765000D01*
X43130493Y-45998690D01*
X42698690Y-46430493D01*
X42465000Y-46994670D01*
X39535000Y-46994670D01*
X39301310Y-46430493D01*
X38869507Y-45998690D01*
X38305330Y-45765000D01*
X37694670Y-45765000D01*
X37130493Y-45998690D01*
X36698690Y-46430493D01*
X36465000Y-46994670D01*
X33535000Y-46994670D01*
X33301310Y-46430493D01*
X32869507Y-45998690D01*
X32305330Y-45765000D01*
X31694670Y-45765000D01*
X31130493Y-45998690D01*
X30698690Y-46430493D01*
X30465000Y-46994670D01*
X27535000Y-46994670D01*
X27301310Y-46430493D01*
X26869507Y-45998690D01*
X26305330Y-45765000D01*
X25694670Y-45765000D01*
X25130493Y-45998690D01*
X24698690Y-46430493D01*
X24465000Y-46994670D01*
X21535000Y-46994670D01*
X21301310Y-46430493D01*
X20869507Y-45998690D01*
X20305330Y-45765000D01*
X19694670Y-45765000D01*
X19130493Y-45998690D01*
X18698690Y-46430493D01*
X18465000Y-46994670D01*
X18235000Y-46994670D01*
X18235000Y-44735000D01*
X161765000Y-44735000D01*
X161765000Y-51434183D01*
X161765000Y-51434183D01*
G37*
X161765000Y-51434183D02*
X161409507Y-51078690D01*
X160845330Y-50845000D01*
X160234670Y-50845000D01*
X159670493Y-51078690D01*
X159238690Y-51510493D01*
X159005000Y-52074670D01*
X159005000Y-52685330D01*
X159238690Y-53249507D01*
X159670493Y-53681310D01*
X159780000Y-53726669D01*
X159780001Y-66745196D01*
X155277567Y-71247631D01*
X155300000Y-71134852D01*
X155300000Y-71134848D01*
X155314888Y-71060001D01*
X155300000Y-70985154D01*
X155300000Y-59694670D01*
X156465000Y-59694670D01*
X156465000Y-60305330D01*
X156698690Y-60869507D01*
X157130493Y-61301310D01*
X157694670Y-61535000D01*
X158305330Y-61535000D01*
X158869507Y-61301310D01*
X159301310Y-60869507D01*
X159535000Y-60305330D01*
X159535000Y-59694670D01*
X159301310Y-59130493D01*
X158869507Y-58698690D01*
X158305330Y-58465000D01*
X157694670Y-58465000D01*
X157130493Y-58698690D01*
X156698690Y-59130493D01*
X156465000Y-59694670D01*
X155300000Y-59694670D01*
X155300000Y-53726669D01*
X155409507Y-53681310D01*
X155841310Y-53249507D01*
X156075000Y-52685330D01*
X156075000Y-52074670D01*
X155841310Y-51510493D01*
X155409507Y-51078690D01*
X154845330Y-50845000D01*
X154234670Y-50845000D01*
X153670493Y-51078690D01*
X153238690Y-51510493D01*
X153005000Y-52074670D01*
X153005000Y-52685330D01*
X153238690Y-53249507D01*
X153670493Y-53681310D01*
X153780000Y-53726669D01*
X153780001Y-70745197D01*
X140760199Y-83765000D01*
X140354343Y-83765000D01*
X140285001Y-83793722D01*
X140285001Y-68689800D01*
X148124474Y-60850328D01*
X148187930Y-60807928D01*
X148355905Y-60556536D01*
X148400001Y-60334851D01*
X148400001Y-60334847D01*
X148414889Y-60260000D01*
X148400001Y-60185153D01*
X148400001Y-59694670D01*
X150465000Y-59694670D01*
X150465000Y-60305330D01*
X150698690Y-60869507D01*
X151130493Y-61301310D01*
X151694670Y-61535000D01*
X152305330Y-61535000D01*
X152869507Y-61301310D01*
X153301310Y-60869507D01*
X153535000Y-60305330D01*
X153535000Y-59694670D01*
X153301310Y-59130493D01*
X152869507Y-58698690D01*
X152305330Y-58465000D01*
X151694670Y-58465000D01*
X151130493Y-58698690D01*
X150698690Y-59130493D01*
X150465000Y-59694670D01*
X148400001Y-59694670D01*
X148400001Y-53915000D01*
X148845330Y-53915000D01*
X149409507Y-53681310D01*
X149841310Y-53249507D01*
X150075000Y-52685330D01*
X150075000Y-52074670D01*
X149841310Y-51510493D01*
X149409507Y-51078690D01*
X148845330Y-50845000D01*
X148234670Y-50845000D01*
X147670493Y-51078690D01*
X147238690Y-51510493D01*
X147005000Y-52074670D01*
X147005000Y-52685330D01*
X147050273Y-52794627D01*
X146924097Y-52983463D01*
X146880001Y-53205148D01*
X146880001Y-53205152D01*
X146865113Y-53279999D01*
X146880001Y-53354846D01*
X146880002Y-58709185D01*
X146869507Y-58698690D01*
X146305330Y-58465000D01*
X145694670Y-58465000D01*
X145130493Y-58698690D01*
X144698690Y-59130493D01*
X144465000Y-59694670D01*
X144465000Y-60305330D01*
X144698690Y-60869507D01*
X145130493Y-61301310D01*
X145408665Y-61416533D01*
X139360000Y-67465199D01*
X139360000Y-65214801D01*
X143024476Y-61550327D01*
X143087929Y-61507929D01*
X143130327Y-61444476D01*
X143130329Y-61444474D01*
X143255903Y-61256538D01*
X143255904Y-61256537D01*
X143300000Y-61034852D01*
X143300000Y-61034848D01*
X143314888Y-60960001D01*
X143300000Y-60885154D01*
X143300000Y-53726669D01*
X143409507Y-53681310D01*
X143841310Y-53249507D01*
X144075000Y-52685330D01*
X144075000Y-52074670D01*
X143841310Y-51510493D01*
X143409507Y-51078690D01*
X142845330Y-50845000D01*
X142234670Y-50845000D01*
X141670493Y-51078690D01*
X141238690Y-51510493D01*
X141005000Y-52074670D01*
X141005000Y-52685330D01*
X141238690Y-53249507D01*
X141670493Y-53681310D01*
X141780000Y-53726669D01*
X141780001Y-60645196D01*
X138285001Y-64140198D01*
X138285001Y-59694670D01*
X138465000Y-59694670D01*
X138465000Y-60305330D01*
X138698690Y-60869507D01*
X139130493Y-61301310D01*
X139694670Y-61535000D01*
X140305330Y-61535000D01*
X140869507Y-61301310D01*
X141301310Y-60869507D01*
X141535000Y-60305330D01*
X141535000Y-59694670D01*
X141301310Y-59130493D01*
X140869507Y-58698690D01*
X140305330Y-58465000D01*
X139694670Y-58465000D01*
X139130493Y-58698690D01*
X138698690Y-59130493D01*
X138465000Y-59694670D01*
X138285001Y-59694670D01*
X138285001Y-53439849D01*
X138299889Y-53365001D01*
X138285001Y-53290153D01*
X138285001Y-53290149D01*
X138240905Y-53068464D01*
X138240905Y-53068463D01*
X138115330Y-52880528D01*
X138072930Y-52817072D01*
X138031811Y-52789597D01*
X138075000Y-52685330D01*
X138075000Y-52074670D01*
X137841310Y-51510493D01*
X137409507Y-51078690D01*
X136845330Y-50845000D01*
X136234670Y-50845000D01*
X135670493Y-51078690D01*
X135238690Y-51510493D01*
X135005000Y-52074670D01*
X135005000Y-52685330D01*
X135238690Y-53249507D01*
X135670493Y-53681310D01*
X136234670Y-53915000D01*
X136765001Y-53915000D01*
X136765001Y-57530199D01*
X132029640Y-52794839D01*
X132075000Y-52685330D01*
X132075000Y-52074670D01*
X131841310Y-51510493D01*
X131409507Y-51078690D01*
X130845330Y-50845000D01*
X130234670Y-50845000D01*
X129670493Y-51078690D01*
X129238690Y-51510493D01*
X129005000Y-52074670D01*
X129005000Y-52685330D01*
X129238690Y-53249507D01*
X129670493Y-53681310D01*
X130234670Y-53915000D01*
X130845330Y-53915000D01*
X130954839Y-53869640D01*
X135840000Y-58754802D01*
X135840001Y-81165198D01*
X125300000Y-70625199D01*
X125300000Y-59694670D01*
X126465000Y-59694670D01*
X126465000Y-60305330D01*
X126698690Y-60869507D01*
X127130493Y-61301310D01*
X127694670Y-61535000D01*
X128305330Y-61535000D01*
X128869507Y-61301310D01*
X129301310Y-60869507D01*
X129535000Y-60305330D01*
X129535000Y-59694670D01*
X132465000Y-59694670D01*
X132465000Y-60305330D01*
X132698690Y-60869507D01*
X133130493Y-61301310D01*
X133694670Y-61535000D01*
X134305330Y-61535000D01*
X134869507Y-61301310D01*
X135301310Y-60869507D01*
X135535000Y-60305330D01*
X135535000Y-59694670D01*
X135301310Y-59130493D01*
X134869507Y-58698690D01*
X134305330Y-58465000D01*
X133694670Y-58465000D01*
X133130493Y-58698690D01*
X132698690Y-59130493D01*
X132465000Y-59694670D01*
X129535000Y-59694670D01*
X129301310Y-59130493D01*
X128869507Y-58698690D01*
X128305330Y-58465000D01*
X127694670Y-58465000D01*
X127130493Y-58698690D01*
X126698690Y-59130493D01*
X126465000Y-59694670D01*
X125300000Y-59694670D01*
X125300000Y-53726669D01*
X125409507Y-53681310D01*
X125841310Y-53249507D01*
X126075000Y-52685330D01*
X126075000Y-52074670D01*
X125841310Y-51510493D01*
X125409507Y-51078690D01*
X124845330Y-50845000D01*
X124234670Y-50845000D01*
X123670493Y-51078690D01*
X123238690Y-51510493D01*
X123005000Y-52074670D01*
X123005000Y-52685330D01*
X123238690Y-53249507D01*
X123670493Y-53681310D01*
X123780000Y-53726669D01*
X123780001Y-70865148D01*
X123765112Y-70940000D01*
X123824097Y-71236537D01*
X123849789Y-71274987D01*
X119300000Y-66725199D01*
X119300000Y-59694670D01*
X120465000Y-59694670D01*
X120465000Y-60305330D01*
X120698690Y-60869507D01*
X121130493Y-61301310D01*
X121694670Y-61535000D01*
X122305330Y-61535000D01*
X122869507Y-61301310D01*
X123301310Y-60869507D01*
X123535000Y-60305330D01*
X123535000Y-59694670D01*
X123301310Y-59130493D01*
X122869507Y-58698690D01*
X122305330Y-58465000D01*
X121694670Y-58465000D01*
X121130493Y-58698690D01*
X120698690Y-59130493D01*
X120465000Y-59694670D01*
X119300000Y-59694670D01*
X119300000Y-53726669D01*
X119409507Y-53681310D01*
X119841310Y-53249507D01*
X120075000Y-52685330D01*
X120075000Y-52074670D01*
X119841310Y-51510493D01*
X119409507Y-51078690D01*
X118845330Y-50845000D01*
X118234670Y-50845000D01*
X117670493Y-51078690D01*
X117238690Y-51510493D01*
X117005000Y-52074670D01*
X117005000Y-52685330D01*
X117238690Y-53249507D01*
X117670493Y-53681310D01*
X117780000Y-53726669D01*
X117780001Y-66965148D01*
X117765112Y-67040000D01*
X117824097Y-67336537D01*
X117849789Y-67374988D01*
X113300000Y-62825199D01*
X113300000Y-59694670D01*
X114465000Y-59694670D01*
X114465000Y-60305330D01*
X114698690Y-60869507D01*
X115130493Y-61301310D01*
X115694670Y-61535000D01*
X116305330Y-61535000D01*
X116869507Y-61301310D01*
X117301310Y-60869507D01*
X117535000Y-60305330D01*
X117535000Y-59694670D01*
X117301310Y-59130493D01*
X116869507Y-58698690D01*
X116305330Y-58465000D01*
X115694670Y-58465000D01*
X115130493Y-58698690D01*
X114698690Y-59130493D01*
X114465000Y-59694670D01*
X113300000Y-59694670D01*
X113300000Y-53726669D01*
X113409507Y-53681310D01*
X113841310Y-53249507D01*
X114075000Y-52685330D01*
X114075000Y-52074670D01*
X113841310Y-51510493D01*
X113409507Y-51078690D01*
X112845330Y-50845000D01*
X112234670Y-50845000D01*
X111670493Y-51078690D01*
X111238690Y-51510493D01*
X111005000Y-52074670D01*
X111005000Y-52685330D01*
X111238690Y-53249507D01*
X111670493Y-53681310D01*
X111780000Y-53726669D01*
X111780001Y-63065148D01*
X111765112Y-63140000D01*
X111780001Y-63214852D01*
X111824097Y-63436537D01*
X111992072Y-63687929D01*
X112055528Y-63730329D01*
X114165199Y-65840000D01*
X109214802Y-65840000D01*
X107300000Y-63925199D01*
X107300000Y-59694670D01*
X108465000Y-59694670D01*
X108465000Y-60305330D01*
X108698690Y-60869507D01*
X109130493Y-61301310D01*
X109694670Y-61535000D01*
X110305330Y-61535000D01*
X110869507Y-61301310D01*
X111301310Y-60869507D01*
X111535000Y-60305330D01*
X111535000Y-59694670D01*
X111301310Y-59130493D01*
X110869507Y-58698690D01*
X110305330Y-58465000D01*
X109694670Y-58465000D01*
X109130493Y-58698690D01*
X108698690Y-59130493D01*
X108465000Y-59694670D01*
X107300000Y-59694670D01*
X107300000Y-53726669D01*
X107409507Y-53681310D01*
X107841310Y-53249507D01*
X108075000Y-52685330D01*
X108075000Y-52074670D01*
X107841310Y-51510493D01*
X107409507Y-51078690D01*
X106845330Y-50845000D01*
X106234670Y-50845000D01*
X105670493Y-51078690D01*
X105238690Y-51510493D01*
X105005000Y-52074670D01*
X105005000Y-52685330D01*
X105238690Y-53249507D01*
X105670493Y-53681310D01*
X105780000Y-53726669D01*
X105780001Y-64165148D01*
X105765112Y-64240000D01*
X105824097Y-64536537D01*
X105868816Y-64603463D01*
X105992072Y-64787929D01*
X106055528Y-64830329D01*
X108165198Y-66940000D01*
X102314802Y-66940000D01*
X101300000Y-65925199D01*
X101300000Y-59694670D01*
X102465000Y-59694670D01*
X102465000Y-60305330D01*
X102698690Y-60869507D01*
X103130493Y-61301310D01*
X103694670Y-61535000D01*
X104305330Y-61535000D01*
X104869507Y-61301310D01*
X105301310Y-60869507D01*
X105535000Y-60305330D01*
X105535000Y-59694670D01*
X105301310Y-59130493D01*
X104869507Y-58698690D01*
X104305330Y-58465000D01*
X103694670Y-58465000D01*
X103130493Y-58698690D01*
X102698690Y-59130493D01*
X102465000Y-59694670D01*
X101300000Y-59694670D01*
X101300000Y-53726669D01*
X101409507Y-53681310D01*
X101841310Y-53249507D01*
X102075000Y-52685330D01*
X102075000Y-52074670D01*
X101841310Y-51510493D01*
X101409507Y-51078690D01*
X100845330Y-50845000D01*
X100234670Y-50845000D01*
X99670493Y-51078690D01*
X99238690Y-51510493D01*
X99005000Y-52074670D01*
X99005000Y-52685330D01*
X99238690Y-53249507D01*
X99670493Y-53681310D01*
X99780000Y-53726669D01*
X99780001Y-66165148D01*
X99765112Y-66240000D01*
X99780001Y-66314852D01*
X99824097Y-66536537D01*
X99992072Y-66787929D01*
X100055528Y-66830329D01*
X101409670Y-68184472D01*
X101446773Y-68240000D01*
X97614803Y-68240000D01*
X95300000Y-65925199D01*
X95300000Y-59694670D01*
X96465000Y-59694670D01*
X96465000Y-60305330D01*
X96698690Y-60869507D01*
X97130493Y-61301310D01*
X97694670Y-61535000D01*
X98305330Y-61535000D01*
X98869507Y-61301310D01*
X99301310Y-60869507D01*
X99535000Y-60305330D01*
X99535000Y-59694670D01*
X99301310Y-59130493D01*
X98869507Y-58698690D01*
X98305330Y-58465000D01*
X97694670Y-58465000D01*
X97130493Y-58698690D01*
X96698690Y-59130493D01*
X96465000Y-59694670D01*
X95300000Y-59694670D01*
X95300000Y-53726669D01*
X95409507Y-53681310D01*
X95841310Y-53249507D01*
X96075000Y-52685330D01*
X96075000Y-52074670D01*
X95841310Y-51510493D01*
X95409507Y-51078690D01*
X94845330Y-50845000D01*
X94234670Y-50845000D01*
X93670493Y-51078690D01*
X93238690Y-51510493D01*
X93005000Y-52074670D01*
X93005000Y-52685330D01*
X93238690Y-53249507D01*
X93670493Y-53681310D01*
X93780000Y-53726669D01*
X93780001Y-66165148D01*
X93765112Y-66240000D01*
X93780001Y-66314852D01*
X93824097Y-66536537D01*
X93992072Y-66787929D01*
X94055528Y-66830329D01*
X96709673Y-69484476D01*
X96746773Y-69540000D01*
X95814803Y-69540000D01*
X89300000Y-63025199D01*
X89300000Y-59694670D01*
X90465000Y-59694670D01*
X90465000Y-60305330D01*
X90698690Y-60869507D01*
X91130493Y-61301310D01*
X91694670Y-61535000D01*
X92305330Y-61535000D01*
X92869507Y-61301310D01*
X93301310Y-60869507D01*
X93535000Y-60305330D01*
X93535000Y-59694670D01*
X93301310Y-59130493D01*
X92869507Y-58698690D01*
X92305330Y-58465000D01*
X91694670Y-58465000D01*
X91130493Y-58698690D01*
X90698690Y-59130493D01*
X90465000Y-59694670D01*
X89300000Y-59694670D01*
X89300000Y-53726669D01*
X89409507Y-53681310D01*
X89841310Y-53249507D01*
X90075000Y-52685330D01*
X90075000Y-52074670D01*
X89841310Y-51510493D01*
X89409507Y-51078690D01*
X88845330Y-50845000D01*
X88234670Y-50845000D01*
X87670493Y-51078690D01*
X87238690Y-51510493D01*
X87005000Y-52074670D01*
X87005000Y-52685330D01*
X87238690Y-53249507D01*
X87670493Y-53681310D01*
X87780000Y-53726669D01*
X87780001Y-63265148D01*
X87765112Y-63340000D01*
X87780001Y-63414852D01*
X87824097Y-63636537D01*
X87992072Y-63887929D01*
X88055528Y-63930329D01*
X94865197Y-70740000D01*
X87014803Y-70740000D01*
X83300000Y-67025199D01*
X83300000Y-59694670D01*
X84465000Y-59694670D01*
X84465000Y-60305330D01*
X84698690Y-60869507D01*
X85130493Y-61301310D01*
X85694670Y-61535000D01*
X86305330Y-61535000D01*
X86869507Y-61301310D01*
X87301310Y-60869507D01*
X87535000Y-60305330D01*
X87535000Y-59694670D01*
X87301310Y-59130493D01*
X86869507Y-58698690D01*
X86305330Y-58465000D01*
X85694670Y-58465000D01*
X85130493Y-58698690D01*
X84698690Y-59130493D01*
X84465000Y-59694670D01*
X83300000Y-59694670D01*
X83300000Y-53726669D01*
X83409507Y-53681310D01*
X83841310Y-53249507D01*
X84075000Y-52685330D01*
X84075000Y-52074670D01*
X83841310Y-51510493D01*
X83409507Y-51078690D01*
X82845330Y-50845000D01*
X82234670Y-50845000D01*
X81670493Y-51078690D01*
X81238690Y-51510493D01*
X81005000Y-52074670D01*
X81005000Y-52685330D01*
X81238690Y-53249507D01*
X81670493Y-53681310D01*
X81780000Y-53726669D01*
X81780001Y-67265148D01*
X81765112Y-67340000D01*
X81824097Y-67636537D01*
X81903856Y-67755904D01*
X81992072Y-67887929D01*
X82055528Y-67930329D01*
X85765197Y-71640000D01*
X78214803Y-71640000D01*
X77300000Y-70725199D01*
X77300000Y-59694670D01*
X78465000Y-59694670D01*
X78465000Y-60305330D01*
X78698690Y-60869507D01*
X79130493Y-61301310D01*
X79694670Y-61535000D01*
X80305330Y-61535000D01*
X80869507Y-61301310D01*
X81301310Y-60869507D01*
X81535000Y-60305330D01*
X81535000Y-59694670D01*
X81301310Y-59130493D01*
X80869507Y-58698690D01*
X80305330Y-58465000D01*
X79694670Y-58465000D01*
X79130493Y-58698690D01*
X78698690Y-59130493D01*
X78465000Y-59694670D01*
X77300000Y-59694670D01*
X77300000Y-53726669D01*
X77409507Y-53681310D01*
X77841310Y-53249507D01*
X78075000Y-52685330D01*
X78075000Y-52074670D01*
X77841310Y-51510493D01*
X77409507Y-51078690D01*
X76845330Y-50845000D01*
X76234670Y-50845000D01*
X75670493Y-51078690D01*
X75238690Y-51510493D01*
X75005000Y-52074670D01*
X75005000Y-52685330D01*
X75238690Y-53249507D01*
X75670493Y-53681310D01*
X75780000Y-53726669D01*
X75780001Y-70965148D01*
X75765112Y-71040000D01*
X75824097Y-71336537D01*
X75933320Y-71500000D01*
X75992072Y-71587929D01*
X76055528Y-71630329D01*
X77309673Y-72884476D01*
X77352071Y-72947929D01*
X77415524Y-72990327D01*
X77415526Y-72990329D01*
X77489864Y-73040000D01*
X72814802Y-73040000D01*
X71300000Y-71525199D01*
X71300000Y-59694670D01*
X72465000Y-59694670D01*
X72465000Y-60305330D01*
X72698690Y-60869507D01*
X73130493Y-61301310D01*
X73694670Y-61535000D01*
X74305330Y-61535000D01*
X74869507Y-61301310D01*
X75301310Y-60869507D01*
X75535000Y-60305330D01*
X75535000Y-59694670D01*
X75301310Y-59130493D01*
X74869507Y-58698690D01*
X74305330Y-58465000D01*
X73694670Y-58465000D01*
X73130493Y-58698690D01*
X72698690Y-59130493D01*
X72465000Y-59694670D01*
X71300000Y-59694670D01*
X71300000Y-53726669D01*
X71409507Y-53681310D01*
X71841310Y-53249507D01*
X72075000Y-52685330D01*
X72075000Y-52074670D01*
X71841310Y-51510493D01*
X71409507Y-51078690D01*
X70845330Y-50845000D01*
X70234670Y-50845000D01*
X69670493Y-51078690D01*
X69238690Y-51510493D01*
X69005000Y-52074670D01*
X69005000Y-52685330D01*
X69238690Y-53249507D01*
X69670493Y-53681310D01*
X69780000Y-53726669D01*
X69780001Y-71765148D01*
X69765112Y-71840000D01*
X69780001Y-71914852D01*
X69824097Y-72136537D01*
X69992072Y-72387929D01*
X70055528Y-72430329D01*
X71865198Y-74240000D01*
X69214802Y-74240000D01*
X65260000Y-70285199D01*
X65260000Y-59694670D01*
X66465000Y-59694670D01*
X66465000Y-60305330D01*
X66698690Y-60869507D01*
X67130493Y-61301310D01*
X67694670Y-61535000D01*
X68305330Y-61535000D01*
X68869507Y-61301310D01*
X69301310Y-60869507D01*
X69535000Y-60305330D01*
X69535000Y-59694670D01*
X69301310Y-59130493D01*
X68869507Y-58698690D01*
X68305330Y-58465000D01*
X67694670Y-58465000D01*
X67130493Y-58698690D01*
X66698690Y-59130493D01*
X66465000Y-59694670D01*
X65260000Y-59694670D01*
X65260000Y-58628947D01*
X65300000Y-58427854D01*
X65300000Y-58427850D01*
X65314888Y-58353002D01*
X65300000Y-58278154D01*
X65300000Y-53726669D01*
X65409507Y-53681310D01*
X65841310Y-53249507D01*
X66075000Y-52685330D01*
X66075000Y-52074670D01*
X65841310Y-51510493D01*
X65409507Y-51078690D01*
X64845330Y-50845000D01*
X64234670Y-50845000D01*
X63670493Y-51078690D01*
X63238690Y-51510493D01*
X63005000Y-52074670D01*
X63005000Y-52685330D01*
X63238690Y-53249507D01*
X63670493Y-53681310D01*
X63780000Y-53726669D01*
X63780001Y-58117053D01*
X63740000Y-58318151D01*
X63740000Y-58318155D01*
X63725112Y-58393002D01*
X63740000Y-58467849D01*
X63740001Y-70265200D01*
X60199999Y-66725198D01*
X60199999Y-59694670D01*
X60465000Y-59694670D01*
X60465000Y-60305330D01*
X60698690Y-60869507D01*
X61130493Y-61301310D01*
X61694670Y-61535000D01*
X62305330Y-61535000D01*
X62869507Y-61301310D01*
X63301310Y-60869507D01*
X63535000Y-60305330D01*
X63535000Y-59694670D01*
X63301310Y-59130493D01*
X62869507Y-58698690D01*
X62305330Y-58465000D01*
X61694670Y-58465000D01*
X61130493Y-58698690D01*
X60698690Y-59130493D01*
X60465000Y-59694670D01*
X60199999Y-59694670D01*
X60199999Y-53354847D01*
X60214887Y-53279999D01*
X60199999Y-53205151D01*
X60199999Y-53205147D01*
X60155903Y-52983462D01*
X60155903Y-52983461D01*
X60030328Y-52795526D01*
X60029728Y-52794627D01*
X60075000Y-52685330D01*
X60075000Y-52074670D01*
X59841310Y-51510493D01*
X59409507Y-51078690D01*
X58845330Y-50845000D01*
X58234670Y-50845000D01*
X57670493Y-51078690D01*
X57238690Y-51510493D01*
X57005000Y-52074670D01*
X57005000Y-52685330D01*
X57238690Y-53249507D01*
X57670493Y-53681310D01*
X58234670Y-53915000D01*
X58679999Y-53915000D01*
X58679999Y-59787066D01*
X58647929Y-59739069D01*
X58584476Y-59696671D01*
X53300000Y-54412197D01*
X53300000Y-53726669D01*
X53409507Y-53681310D01*
X53841310Y-53249507D01*
X54075000Y-52685330D01*
X54075000Y-52074670D01*
X53841310Y-51510493D01*
X53409507Y-51078690D01*
X52845330Y-50845000D01*
X52234670Y-50845000D01*
X51670493Y-51078690D01*
X51238690Y-51510493D01*
X51005000Y-52074670D01*
X51005000Y-52685330D01*
X51238690Y-53249507D01*
X51670493Y-53681310D01*
X51780001Y-53726670D01*
X51780001Y-54652146D01*
X51765112Y-54726998D01*
X51780001Y-54801850D01*
X51824097Y-55023535D01*
X51992072Y-55274927D01*
X52055528Y-55317327D01*
X55347148Y-58608948D01*
X55130493Y-58698690D01*
X54698690Y-59130493D01*
X54465000Y-59694670D01*
X54465000Y-60305330D01*
X54698690Y-60869507D01*
X55130493Y-61301310D01*
X55694670Y-61535000D01*
X56305330Y-61535000D01*
X56869507Y-61301310D01*
X57301310Y-60869507D01*
X57340000Y-60776101D01*
X57340001Y-67525148D01*
X57325112Y-67600000D01*
X57384097Y-67896537D01*
X57505656Y-68078462D01*
X57552072Y-68147929D01*
X57615528Y-68190329D01*
X67609670Y-78184472D01*
X67646773Y-78240000D01*
X67614803Y-78240000D01*
X54760000Y-65385199D01*
X54760000Y-62261844D01*
X54774888Y-62186997D01*
X54760000Y-62112150D01*
X54760000Y-62112146D01*
X54715904Y-61890461D01*
X54547929Y-61639069D01*
X54484473Y-61596669D01*
X47300000Y-54412197D01*
X47300000Y-53726669D01*
X47409507Y-53681310D01*
X47841310Y-53249507D01*
X48075000Y-52685330D01*
X48075000Y-52074670D01*
X47841310Y-51510493D01*
X47409507Y-51078690D01*
X46845330Y-50845000D01*
X46234670Y-50845000D01*
X45670493Y-51078690D01*
X45238690Y-51510493D01*
X45005000Y-52074670D01*
X45005000Y-52685330D01*
X45238690Y-53249507D01*
X45670493Y-53681310D01*
X45780001Y-53726670D01*
X45780001Y-54652146D01*
X45765112Y-54726998D01*
X45780001Y-54801850D01*
X45824097Y-55023535D01*
X45992072Y-55274927D01*
X46055528Y-55317327D01*
X49347149Y-58608948D01*
X49130493Y-58698690D01*
X48698690Y-59130493D01*
X48465000Y-59694670D01*
X48465000Y-60305330D01*
X48698690Y-60869507D01*
X49130493Y-61301310D01*
X49694670Y-61535000D01*
X50305330Y-61535000D01*
X50869507Y-61301310D01*
X51301310Y-60869507D01*
X51391052Y-60652851D01*
X53240000Y-62501800D01*
X53240001Y-65625148D01*
X53225112Y-65700000D01*
X53284097Y-65996537D01*
X53363604Y-66115527D01*
X53452072Y-66247929D01*
X53515528Y-66290329D01*
X66565197Y-79340000D01*
X66227804Y-79340000D01*
X41300000Y-54412197D01*
X41300000Y-53726669D01*
X41409507Y-53681310D01*
X41841310Y-53249507D01*
X42075000Y-52685330D01*
X42075000Y-52074670D01*
X41841310Y-51510493D01*
X41409507Y-51078690D01*
X40845330Y-50845000D01*
X40234670Y-50845000D01*
X39670493Y-51078690D01*
X39238690Y-51510493D01*
X39005000Y-52074670D01*
X39005000Y-52685330D01*
X39238690Y-53249507D01*
X39670493Y-53681310D01*
X39780001Y-53726670D01*
X39780001Y-54652146D01*
X39765112Y-54726998D01*
X39780001Y-54801850D01*
X39824097Y-55023535D01*
X39992072Y-55274927D01*
X40055528Y-55317327D01*
X43347149Y-58608948D01*
X43130493Y-58698690D01*
X42698690Y-59130493D01*
X42601041Y-59366239D01*
X36029640Y-52794839D01*
X36075000Y-52685330D01*
X36075000Y-52074670D01*
X35841310Y-51510493D01*
X35409507Y-51078690D01*
X34845330Y-50845000D01*
X34234670Y-50845000D01*
X33670493Y-51078690D01*
X33238690Y-51510493D01*
X33005000Y-52074670D01*
X33005000Y-52685330D01*
X33238690Y-53249507D01*
X33670493Y-53681310D01*
X34234670Y-53915000D01*
X34845330Y-53915000D01*
X34954839Y-53869640D01*
X62925198Y-81840000D01*
X59074802Y-81840000D01*
X38633761Y-61398959D01*
X38869507Y-61301310D01*
X39301310Y-60869507D01*
X39535000Y-60305330D01*
X39535000Y-59694670D01*
X39301310Y-59130493D01*
X38869507Y-58698690D01*
X38305330Y-58465000D01*
X37694670Y-58465000D01*
X37130493Y-58698690D01*
X36698690Y-59130493D01*
X36601041Y-59366239D01*
X30029640Y-52794839D01*
X30075000Y-52685330D01*
X30075000Y-52074670D01*
X29841310Y-51510493D01*
X29409507Y-51078690D01*
X28845330Y-50845000D01*
X28234670Y-50845000D01*
X27670493Y-51078690D01*
X27238690Y-51510493D01*
X27005000Y-52074670D01*
X27005000Y-52685330D01*
X27238690Y-53249507D01*
X27670493Y-53681310D01*
X28234670Y-53915000D01*
X28845330Y-53915000D01*
X28954839Y-53869640D01*
X57400197Y-82314999D01*
X53549801Y-82314999D01*
X32633761Y-61398959D01*
X32869507Y-61301310D01*
X33301310Y-60869507D01*
X33535000Y-60305330D01*
X33535000Y-59694670D01*
X33301310Y-59130493D01*
X32869507Y-58698690D01*
X32305330Y-58465000D01*
X31694670Y-58465000D01*
X31130493Y-58698690D01*
X30698690Y-59130493D01*
X30601041Y-59366239D01*
X24029640Y-52794839D01*
X24075000Y-52685330D01*
X24075000Y-52074670D01*
X23841310Y-51510493D01*
X23409507Y-51078690D01*
X22845330Y-50845000D01*
X22234670Y-50845000D01*
X21670493Y-51078690D01*
X21238690Y-51510493D01*
X21005000Y-52074670D01*
X21005000Y-52685330D01*
X21238690Y-53249507D01*
X21670493Y-53681310D01*
X22234670Y-53915000D01*
X22845330Y-53915000D01*
X22954839Y-53869640D01*
X52644669Y-83559471D01*
X52687070Y-83622928D01*
X52938462Y-83790903D01*
X53160147Y-83834999D01*
X53160152Y-83834999D01*
X53234999Y-83849887D01*
X53262721Y-83844373D01*
X53000429Y-83953018D01*
X52700000Y-84253447D01*
X52399571Y-83953018D01*
X51945657Y-83765000D01*
X51454343Y-83765000D01*
X51000429Y-83953018D01*
X50700000Y-84253447D01*
X50399571Y-83953018D01*
X49945657Y-83765000D01*
X49454343Y-83765000D01*
X49000429Y-83953018D01*
X48700000Y-84253447D01*
X48399571Y-83953018D01*
X47945657Y-83765000D01*
X47454343Y-83765000D01*
X47000429Y-83953018D01*
X46700000Y-84253447D01*
X46399571Y-83953018D01*
X45945657Y-83765000D01*
X45454343Y-83765000D01*
X45000429Y-83953018D01*
X44700000Y-84253447D01*
X44399571Y-83953018D01*
X43945657Y-83765000D01*
X43454343Y-83765000D01*
X43000429Y-83953018D01*
X42859326Y-84094121D01*
X42757809Y-83942191D01*
X42547765Y-83801843D01*
X42300000Y-83752560D01*
X41100000Y-83752560D01*
X40852235Y-83801843D01*
X40642191Y-83942191D01*
X40501843Y-84152235D01*
X40452560Y-84400000D01*
X40452560Y-85600000D01*
X40501843Y-85847765D01*
X40642191Y-86057809D01*
X40794121Y-86159326D01*
X40653018Y-86300429D01*
X40465000Y-86754343D01*
X40465000Y-87245657D01*
X40653018Y-87699571D01*
X41000429Y-88046982D01*
X41454343Y-88235000D01*
X41945657Y-88235000D01*
X42399571Y-88046982D01*
X42700000Y-87746553D01*
X43000429Y-88046982D01*
X43454343Y-88235000D01*
X43945657Y-88235000D01*
X44399571Y-88046982D01*
X44700000Y-87746553D01*
X45000429Y-88046982D01*
X45454343Y-88235000D01*
X45945657Y-88235000D01*
X46399571Y-88046982D01*
X46700000Y-87746553D01*
X47000429Y-88046982D01*
X47454343Y-88235000D01*
X47945657Y-88235000D01*
X48399571Y-88046982D01*
X48700000Y-87746553D01*
X49000429Y-88046982D01*
X49454343Y-88235000D01*
X49945657Y-88235000D01*
X50399571Y-88046982D01*
X50700000Y-87746553D01*
X51000429Y-88046982D01*
X51454343Y-88235000D01*
X51945657Y-88235000D01*
X52399571Y-88046982D01*
X52700000Y-87746553D01*
X53000429Y-88046982D01*
X53454343Y-88235000D01*
X53945657Y-88235000D01*
X54399571Y-88046982D01*
X54700000Y-87746553D01*
X55000429Y-88046982D01*
X55454343Y-88235000D01*
X55945657Y-88235000D01*
X56399571Y-88046982D01*
X56700000Y-87746553D01*
X57000429Y-88046982D01*
X57454343Y-88235000D01*
X57945657Y-88235000D01*
X58399571Y-88046982D01*
X58700000Y-87746553D01*
X59000429Y-88046982D01*
X59454343Y-88235000D01*
X59945657Y-88235000D01*
X60399571Y-88046982D01*
X60700000Y-87746553D01*
X61000429Y-88046982D01*
X61454343Y-88235000D01*
X61945657Y-88235000D01*
X62399571Y-88046982D01*
X62700000Y-87746553D01*
X63000429Y-88046982D01*
X63454343Y-88235000D01*
X63945657Y-88235000D01*
X64399571Y-88046982D01*
X64746982Y-87699571D01*
X64935000Y-87245657D01*
X64935000Y-86754343D01*
X64746982Y-86300429D01*
X64446553Y-86000000D01*
X64746982Y-85699571D01*
X64935000Y-85245657D01*
X64935000Y-84754343D01*
X64746982Y-84300429D01*
X64399571Y-83953018D01*
X64114649Y-83834999D01*
X88357143Y-83834999D01*
X88228086Y-84161708D01*
X88065000Y-84555431D01*
X88065000Y-84574560D01*
X88057974Y-84592346D01*
X88065000Y-85018390D01*
X88065000Y-85444569D01*
X88072320Y-85462240D01*
X88072635Y-85481363D01*
X88384640Y-86234610D01*
X88394347Y-86239682D01*
X88405259Y-86266026D01*
X89033974Y-86894741D01*
X89060318Y-86905653D01*
X89065390Y-86915360D01*
X89461708Y-87071914D01*
X89855431Y-87235000D01*
X89874560Y-87235000D01*
X89892346Y-87242026D01*
X90318390Y-87235000D01*
X90744569Y-87235000D01*
X90762240Y-87227680D01*
X90781363Y-87227365D01*
X91534610Y-86915360D01*
X91539682Y-86905653D01*
X91566026Y-86894741D01*
X92194741Y-86266026D01*
X92205653Y-86239682D01*
X92215360Y-86234610D01*
X92371914Y-85838292D01*
X92535000Y-85444569D01*
X92535000Y-85425440D01*
X92542026Y-85407654D01*
X92535000Y-84981610D01*
X92535000Y-84555431D01*
X92527680Y-84537760D01*
X92527365Y-84518637D01*
X92244193Y-83834999D01*
X115510198Y-83834999D01*
X117159671Y-85484473D01*
X117202071Y-85547929D01*
X117363682Y-85655914D01*
X117401843Y-85847765D01*
X117542191Y-86057809D01*
X117694121Y-86159326D01*
X117553018Y-86300429D01*
X117365000Y-86754343D01*
X117365000Y-87245657D01*
X117553018Y-87699571D01*
X117900429Y-88046982D01*
X118354343Y-88235000D01*
X118845657Y-88235000D01*
X119299571Y-88046982D01*
X119600000Y-87746553D01*
X119900429Y-88046982D01*
X120354343Y-88235000D01*
X120845657Y-88235000D01*
X121299571Y-88046982D01*
X121600000Y-87746553D01*
X121900429Y-88046982D01*
X122354343Y-88235000D01*
X122845657Y-88235000D01*
X123299571Y-88046982D01*
X123600000Y-87746553D01*
X123900429Y-88046982D01*
X124354343Y-88235000D01*
X124845657Y-88235000D01*
X125299571Y-88046982D01*
X125600000Y-87746553D01*
X125900429Y-88046982D01*
X126354343Y-88235000D01*
X126845657Y-88235000D01*
X127299571Y-88046982D01*
X127600000Y-87746553D01*
X127900429Y-88046982D01*
X128354343Y-88235000D01*
X128845657Y-88235000D01*
X129299571Y-88046982D01*
X129600000Y-87746553D01*
X129900429Y-88046982D01*
X130354343Y-88235000D01*
X130845657Y-88235000D01*
X131299571Y-88046982D01*
X131600000Y-87746553D01*
X131900429Y-88046982D01*
X132354343Y-88235000D01*
X132845657Y-88235000D01*
X133299571Y-88046982D01*
X133600000Y-87746553D01*
X133900429Y-88046982D01*
X134354343Y-88235000D01*
X134845657Y-88235000D01*
X135299571Y-88046982D01*
X135600000Y-87746553D01*
X135900429Y-88046982D01*
X136354343Y-88235000D01*
X136845657Y-88235000D01*
X137299571Y-88046982D01*
X137600000Y-87746553D01*
X137900429Y-88046982D01*
X138354343Y-88235000D01*
X138845657Y-88235000D01*
X139299571Y-88046982D01*
X139600000Y-87746553D01*
X139900429Y-88046982D01*
X140354343Y-88235000D01*
X140845657Y-88235000D01*
X141299571Y-88046982D01*
X141646982Y-87699571D01*
X141835000Y-87245657D01*
X141835000Y-86839801D01*
X144082455Y-84592346D01*
X155257974Y-84592346D01*
X155265000Y-85018390D01*
X155265000Y-85444569D01*
X155272320Y-85462240D01*
X155272635Y-85481363D01*
X155584640Y-86234610D01*
X155594347Y-86239682D01*
X155605259Y-86266026D01*
X156233974Y-86894741D01*
X156260318Y-86905653D01*
X156265390Y-86915360D01*
X156661708Y-87071914D01*
X157055431Y-87235000D01*
X157074560Y-87235000D01*
X157092346Y-87242026D01*
X157518390Y-87235000D01*
X157944569Y-87235000D01*
X157962240Y-87227680D01*
X157981363Y-87227365D01*
X158734610Y-86915360D01*
X158739682Y-86905653D01*
X158766026Y-86894741D01*
X159394741Y-86266026D01*
X159405653Y-86239682D01*
X159415360Y-86234610D01*
X159571914Y-85838292D01*
X159735000Y-85444569D01*
X159735000Y-85425440D01*
X159742026Y-85407654D01*
X159735000Y-84981610D01*
X159735000Y-84555431D01*
X159727680Y-84537760D01*
X159727365Y-84518637D01*
X159415360Y-83765390D01*
X159405653Y-83760318D01*
X159394741Y-83733974D01*
X158766026Y-83105259D01*
X158739682Y-83094347D01*
X158734610Y-83084640D01*
X158338292Y-82928086D01*
X157944569Y-82765000D01*
X157925440Y-82765000D01*
X157907654Y-82757974D01*
X157481610Y-82765000D01*
X157055431Y-82765000D01*
X157037760Y-82772320D01*
X157018637Y-82772635D01*
X156265390Y-83084640D01*
X156260318Y-83094347D01*
X156233974Y-83105259D01*
X155605259Y-83733974D01*
X155594347Y-83760318D01*
X155584640Y-83765390D01*
X155428086Y-84161708D01*
X155265000Y-84555431D01*
X155265000Y-84574560D01*
X155257974Y-84592346D01*
X144082455Y-84592346D01*
X161024476Y-67650327D01*
X161087929Y-67607929D01*
X161130327Y-67544476D01*
X161130329Y-67544474D01*
X161255903Y-67356538D01*
X161255904Y-67356537D01*
X161300000Y-67134852D01*
X161300000Y-67134848D01*
X161314888Y-67060001D01*
X161300000Y-66985154D01*
X161300000Y-53726669D01*
X161409507Y-53681310D01*
X161765000Y-53325817D01*
X161765001Y-91265000D01*
X18235000Y-91265000D01*
X18235000Y-84592346D01*
X20257974Y-84592346D01*
X20265000Y-85018390D01*
X20265000Y-85444569D01*
X20272320Y-85462240D01*
X20272635Y-85481363D01*
X20584640Y-86234610D01*
X20594347Y-86239682D01*
X20605259Y-86266026D01*
X21233974Y-86894741D01*
X21260318Y-86905653D01*
X21265390Y-86915360D01*
X21661708Y-87071914D01*
X22055431Y-87235000D01*
X22074560Y-87235000D01*
X22092346Y-87242026D01*
X22518390Y-87235000D01*
X22944569Y-87235000D01*
X22962240Y-87227680D01*
X22981363Y-87227365D01*
X23734610Y-86915360D01*
X23739682Y-86905653D01*
X23766026Y-86894741D01*
X24394741Y-86266026D01*
X24405653Y-86239682D01*
X24415360Y-86234610D01*
X24571914Y-85838292D01*
X24735000Y-85444569D01*
X24735000Y-85425440D01*
X24742026Y-85407654D01*
X24735000Y-84981610D01*
X24735000Y-84555431D01*
X24727680Y-84537760D01*
X24727365Y-84518637D01*
X24415360Y-83765390D01*
X24405653Y-83760318D01*
X24394741Y-83733974D01*
X23766026Y-83105259D01*
X23739682Y-83094347D01*
X23734610Y-83084640D01*
X23338292Y-82928086D01*
X22944569Y-82765000D01*
X22925440Y-82765000D01*
X22907654Y-82757974D01*
X22481610Y-82765000D01*
X22055431Y-82765000D01*
X22037760Y-82772320D01*
X22018637Y-82772635D01*
X21265390Y-83084640D01*
X21260318Y-83094347D01*
X21233974Y-83105259D01*
X20605259Y-83733974D01*
X20594347Y-83760318D01*
X20584640Y-83765390D01*
X20428086Y-84161708D01*
X20265000Y-84555431D01*
X20265000Y-84574560D01*
X20257974Y-84592346D01*
X18235000Y-84592346D01*
X18235000Y-59694670D01*
X18465000Y-59694670D01*
X18465000Y-60305330D01*
X18698690Y-60869507D01*
X19130493Y-61301310D01*
X19694670Y-61535000D01*
X20305330Y-61535000D01*
X20869507Y-61301310D01*
X21301310Y-60869507D01*
X21535000Y-60305330D01*
X21535000Y-59694670D01*
X24465000Y-59694670D01*
X24465000Y-60305330D01*
X24698690Y-60869507D01*
X25130493Y-61301310D01*
X25694670Y-61535000D01*
X26305330Y-61535000D01*
X26869507Y-61301310D01*
X27301310Y-60869507D01*
X27535000Y-60305330D01*
X27535000Y-59694670D01*
X27301310Y-59130493D01*
X26869507Y-58698690D01*
X26305330Y-58465000D01*
X25694670Y-58465000D01*
X25130493Y-58698690D01*
X24698690Y-59130493D01*
X24465000Y-59694670D01*
X21535000Y-59694670D01*
X21301310Y-59130493D01*
X20869507Y-58698690D01*
X20305330Y-58465000D01*
X19694670Y-58465000D01*
X19130493Y-58698690D01*
X18698690Y-59130493D01*
X18465000Y-59694670D01*
X18235000Y-59694670D01*
X18235000Y-46994670D01*
X18465000Y-46994670D01*
X18465000Y-47605330D01*
X18698690Y-48169507D01*
X19130493Y-48601310D01*
X19694670Y-48835000D01*
X20305330Y-48835000D01*
X20869507Y-48601310D01*
X21301310Y-48169507D01*
X21535000Y-47605330D01*
X21535000Y-46994670D01*
X24465000Y-46994670D01*
X24465000Y-47605330D01*
X24698690Y-48169507D01*
X25130493Y-48601310D01*
X25694670Y-48835000D01*
X26305330Y-48835000D01*
X26869507Y-48601310D01*
X27301310Y-48169507D01*
X27535000Y-47605330D01*
X27535000Y-46994670D01*
X30465000Y-46994670D01*
X30465000Y-47605330D01*
X30698690Y-48169507D01*
X31130493Y-48601310D01*
X31694670Y-48835000D01*
X32305330Y-48835000D01*
X32869507Y-48601310D01*
X33301310Y-48169507D01*
X33535000Y-47605330D01*
X33535000Y-46994670D01*
X36465000Y-46994670D01*
X36465000Y-47605330D01*
X36698690Y-48169507D01*
X37130493Y-48601310D01*
X37694670Y-48835000D01*
X38305330Y-48835000D01*
X38869507Y-48601310D01*
X39301310Y-48169507D01*
X39535000Y-47605330D01*
X39535000Y-46994670D01*
X42465000Y-46994670D01*
X42465000Y-47605330D01*
X42698690Y-48169507D01*
X43130493Y-48601310D01*
X43694670Y-48835000D01*
X44305330Y-48835000D01*
X44869507Y-48601310D01*
X45301310Y-48169507D01*
X45535000Y-47605330D01*
X45535000Y-46994670D01*
X48465000Y-46994670D01*
X48465000Y-47605330D01*
X48698690Y-48169507D01*
X49130493Y-48601310D01*
X49694670Y-48835000D01*
X50305330Y-48835000D01*
X50869507Y-48601310D01*
X51301310Y-48169507D01*
X51535000Y-47605330D01*
X51535000Y-46994670D01*
X54465000Y-46994670D01*
X54465000Y-47605330D01*
X54698690Y-48169507D01*
X55130493Y-48601310D01*
X55694670Y-48835000D01*
X56305330Y-48835000D01*
X56869507Y-48601310D01*
X57301310Y-48169507D01*
X57535000Y-47605330D01*
X57535000Y-46994670D01*
X60465000Y-46994670D01*
X60465000Y-47605330D01*
X60698690Y-48169507D01*
X61130493Y-48601310D01*
X61694670Y-48835000D01*
X62305330Y-48835000D01*
X62869507Y-48601310D01*
X63301310Y-48169507D01*
X63535000Y-47605330D01*
X63535000Y-46994670D01*
X66465000Y-46994670D01*
X66465000Y-47605330D01*
X66698690Y-48169507D01*
X67130493Y-48601310D01*
X67694670Y-48835000D01*
X68305330Y-48835000D01*
X68869507Y-48601310D01*
X69301310Y-48169507D01*
X69535000Y-47605330D01*
X69535000Y-46994670D01*
X72465000Y-46994670D01*
X72465000Y-47605330D01*
X72698690Y-48169507D01*
X73130493Y-48601310D01*
X73694670Y-48835000D01*
X74305330Y-48835000D01*
X74869507Y-48601310D01*
X75301310Y-48169507D01*
X75535000Y-47605330D01*
X75535000Y-46994670D01*
X78465000Y-46994670D01*
X78465000Y-47605330D01*
X78698690Y-48169507D01*
X79130493Y-48601310D01*
X79694670Y-48835000D01*
X80305330Y-48835000D01*
X80869507Y-48601310D01*
X81301310Y-48169507D01*
X81535000Y-47605330D01*
X81535000Y-46994670D01*
X84465000Y-46994670D01*
X84465000Y-47605330D01*
X84698690Y-48169507D01*
X85130493Y-48601310D01*
X85694670Y-48835000D01*
X86305330Y-48835000D01*
X86869507Y-48601310D01*
X87301310Y-48169507D01*
X87535000Y-47605330D01*
X87535000Y-46994670D01*
X90465000Y-46994670D01*
X90465000Y-47605330D01*
X90698690Y-48169507D01*
X91130493Y-48601310D01*
X91694670Y-48835000D01*
X92305330Y-48835000D01*
X92869507Y-48601310D01*
X93301310Y-48169507D01*
X93535000Y-47605330D01*
X93535000Y-46994670D01*
X96465000Y-46994670D01*
X96465000Y-47605330D01*
X96698690Y-48169507D01*
X97130493Y-48601310D01*
X97694670Y-48835000D01*
X98305330Y-48835000D01*
X98869507Y-48601310D01*
X99301310Y-48169507D01*
X99535000Y-47605330D01*
X99535000Y-46994670D01*
X102465000Y-46994670D01*
X102465000Y-47605330D01*
X102698690Y-48169507D01*
X103130493Y-48601310D01*
X103694670Y-48835000D01*
X104305330Y-48835000D01*
X104869507Y-48601310D01*
X105301310Y-48169507D01*
X105535000Y-47605330D01*
X105535000Y-46994670D01*
X108465000Y-46994670D01*
X108465000Y-47605330D01*
X108698690Y-48169507D01*
X109130493Y-48601310D01*
X109694670Y-48835000D01*
X110305330Y-48835000D01*
X110869507Y-48601310D01*
X111301310Y-48169507D01*
X111535000Y-47605330D01*
X111535000Y-46994670D01*
X114465000Y-46994670D01*
X114465000Y-47605330D01*
X114698690Y-48169507D01*
X115130493Y-48601310D01*
X115694670Y-48835000D01*
X116305330Y-48835000D01*
X116869507Y-48601310D01*
X117301310Y-48169507D01*
X117535000Y-47605330D01*
X117535000Y-46994670D01*
X120465000Y-46994670D01*
X120465000Y-47605330D01*
X120698690Y-48169507D01*
X121130493Y-48601310D01*
X121694670Y-48835000D01*
X122305330Y-48835000D01*
X122869507Y-48601310D01*
X123301310Y-48169507D01*
X123535000Y-47605330D01*
X123535000Y-46994670D01*
X126465000Y-46994670D01*
X126465000Y-47605330D01*
X126698690Y-48169507D01*
X127130493Y-48601310D01*
X127694670Y-48835000D01*
X128305330Y-48835000D01*
X128869507Y-48601310D01*
X129301310Y-48169507D01*
X129535000Y-47605330D01*
X129535000Y-46994670D01*
X132465000Y-46994670D01*
X132465000Y-47605330D01*
X132698690Y-48169507D01*
X133130493Y-48601310D01*
X133694670Y-48835000D01*
X134305330Y-48835000D01*
X134869507Y-48601310D01*
X135301310Y-48169507D01*
X135535000Y-47605330D01*
X135535000Y-46994670D01*
X138465000Y-46994670D01*
X138465000Y-47605330D01*
X138698690Y-48169507D01*
X139130493Y-48601310D01*
X139694670Y-48835000D01*
X140305330Y-48835000D01*
X140869507Y-48601310D01*
X141301310Y-48169507D01*
X141535000Y-47605330D01*
X141535000Y-46994670D01*
X144465000Y-46994670D01*
X144465000Y-47605330D01*
X144698690Y-48169507D01*
X145130493Y-48601310D01*
X145694670Y-48835000D01*
X146305330Y-48835000D01*
X146869507Y-48601310D01*
X147301310Y-48169507D01*
X147535000Y-47605330D01*
X147535000Y-46994670D01*
X150465000Y-46994670D01*
X150465000Y-47605330D01*
X150698690Y-48169507D01*
X151130493Y-48601310D01*
X151694670Y-48835000D01*
X152305330Y-48835000D01*
X152869507Y-48601310D01*
X153301310Y-48169507D01*
X153535000Y-47605330D01*
X153535000Y-46994670D01*
X156465000Y-46994670D01*
X156465000Y-47605330D01*
X156698690Y-48169507D01*
X157130493Y-48601310D01*
X157694670Y-48835000D01*
X158305330Y-48835000D01*
X158869507Y-48601310D01*
X159301310Y-48169507D01*
X159535000Y-47605330D01*
X159535000Y-46994670D01*
X159301310Y-46430493D01*
X158869507Y-45998690D01*
X158305330Y-45765000D01*
X157694670Y-45765000D01*
X157130493Y-45998690D01*
X156698690Y-46430493D01*
X156465000Y-46994670D01*
X153535000Y-46994670D01*
X153301310Y-46430493D01*
X152869507Y-45998690D01*
X152305330Y-45765000D01*
X151694670Y-45765000D01*
X151130493Y-45998690D01*
X150698690Y-46430493D01*
X150465000Y-46994670D01*
X147535000Y-46994670D01*
X147301310Y-46430493D01*
X146869507Y-45998690D01*
X146305330Y-45765000D01*
X145694670Y-45765000D01*
X145130493Y-45998690D01*
X144698690Y-46430493D01*
X144465000Y-46994670D01*
X141535000Y-46994670D01*
X141301310Y-46430493D01*
X140869507Y-45998690D01*
X140305330Y-45765000D01*
X139694670Y-45765000D01*
X139130493Y-45998690D01*
X138698690Y-46430493D01*
X138465000Y-46994670D01*
X135535000Y-46994670D01*
X135301310Y-46430493D01*
X134869507Y-45998690D01*
X134305330Y-45765000D01*
X133694670Y-45765000D01*
X133130493Y-45998690D01*
X132698690Y-46430493D01*
X132465000Y-46994670D01*
X129535000Y-46994670D01*
X129301310Y-46430493D01*
X128869507Y-45998690D01*
X128305330Y-45765000D01*
X127694670Y-45765000D01*
X127130493Y-45998690D01*
X126698690Y-46430493D01*
X126465000Y-46994670D01*
X123535000Y-46994670D01*
X123301310Y-46430493D01*
X122869507Y-45998690D01*
X122305330Y-45765000D01*
X121694670Y-45765000D01*
X121130493Y-45998690D01*
X120698690Y-46430493D01*
X120465000Y-46994670D01*
X117535000Y-46994670D01*
X117301310Y-46430493D01*
X116869507Y-45998690D01*
X116305330Y-45765000D01*
X115694670Y-45765000D01*
X115130493Y-45998690D01*
X114698690Y-46430493D01*
X114465000Y-46994670D01*
X111535000Y-46994670D01*
X111301310Y-46430493D01*
X110869507Y-45998690D01*
X110305330Y-45765000D01*
X109694670Y-45765000D01*
X109130493Y-45998690D01*
X108698690Y-46430493D01*
X108465000Y-46994670D01*
X105535000Y-46994670D01*
X105301310Y-46430493D01*
X104869507Y-45998690D01*
X104305330Y-45765000D01*
X103694670Y-45765000D01*
X103130493Y-45998690D01*
X102698690Y-46430493D01*
X102465000Y-46994670D01*
X99535000Y-46994670D01*
X99301310Y-46430493D01*
X98869507Y-45998690D01*
X98305330Y-45765000D01*
X97694670Y-45765000D01*
X97130493Y-45998690D01*
X96698690Y-46430493D01*
X96465000Y-46994670D01*
X93535000Y-46994670D01*
X93301310Y-46430493D01*
X92869507Y-45998690D01*
X92305330Y-45765000D01*
X91694670Y-45765000D01*
X91130493Y-45998690D01*
X90698690Y-46430493D01*
X90465000Y-46994670D01*
X87535000Y-46994670D01*
X87301310Y-46430493D01*
X86869507Y-45998690D01*
X86305330Y-45765000D01*
X85694670Y-45765000D01*
X85130493Y-45998690D01*
X84698690Y-46430493D01*
X84465000Y-46994670D01*
X81535000Y-46994670D01*
X81301310Y-46430493D01*
X80869507Y-45998690D01*
X80305330Y-45765000D01*
X79694670Y-45765000D01*
X79130493Y-45998690D01*
X78698690Y-46430493D01*
X78465000Y-46994670D01*
X75535000Y-46994670D01*
X75301310Y-46430493D01*
X74869507Y-45998690D01*
X74305330Y-45765000D01*
X73694670Y-45765000D01*
X73130493Y-45998690D01*
X72698690Y-46430493D01*
X72465000Y-46994670D01*
X69535000Y-46994670D01*
X69301310Y-46430493D01*
X68869507Y-45998690D01*
X68305330Y-45765000D01*
X67694670Y-45765000D01*
X67130493Y-45998690D01*
X66698690Y-46430493D01*
X66465000Y-46994670D01*
X63535000Y-46994670D01*
X63301310Y-46430493D01*
X62869507Y-45998690D01*
X62305330Y-45765000D01*
X61694670Y-45765000D01*
X61130493Y-45998690D01*
X60698690Y-46430493D01*
X60465000Y-46994670D01*
X57535000Y-46994670D01*
X57301310Y-46430493D01*
X56869507Y-45998690D01*
X56305330Y-45765000D01*
X55694670Y-45765000D01*
X55130493Y-45998690D01*
X54698690Y-46430493D01*
X54465000Y-46994670D01*
X51535000Y-46994670D01*
X51301310Y-46430493D01*
X50869507Y-45998690D01*
X50305330Y-45765000D01*
X49694670Y-45765000D01*
X49130493Y-45998690D01*
X48698690Y-46430493D01*
X48465000Y-46994670D01*
X45535000Y-46994670D01*
X45301310Y-46430493D01*
X44869507Y-45998690D01*
X44305330Y-45765000D01*
X43694670Y-45765000D01*
X43130493Y-45998690D01*
X42698690Y-46430493D01*
X42465000Y-46994670D01*
X39535000Y-46994670D01*
X39301310Y-46430493D01*
X38869507Y-45998690D01*
X38305330Y-45765000D01*
X37694670Y-45765000D01*
X37130493Y-45998690D01*
X36698690Y-46430493D01*
X36465000Y-46994670D01*
X33535000Y-46994670D01*
X33301310Y-46430493D01*
X32869507Y-45998690D01*
X32305330Y-45765000D01*
X31694670Y-45765000D01*
X31130493Y-45998690D01*
X30698690Y-46430493D01*
X30465000Y-46994670D01*
X27535000Y-46994670D01*
X27301310Y-46430493D01*
X26869507Y-45998690D01*
X26305330Y-45765000D01*
X25694670Y-45765000D01*
X25130493Y-45998690D01*
X24698690Y-46430493D01*
X24465000Y-46994670D01*
X21535000Y-46994670D01*
X21301310Y-46430493D01*
X20869507Y-45998690D01*
X20305330Y-45765000D01*
X19694670Y-45765000D01*
X19130493Y-45998690D01*
X18698690Y-46430493D01*
X18465000Y-46994670D01*
X18235000Y-46994670D01*
X18235000Y-44735000D01*
X161765000Y-44735000D01*
X161765000Y-51434183D01*
G36*
X58953447Y-86000000D02*
X58700000Y-86253447D01*
X58446553Y-86000000D01*
X58700000Y-85746553D01*
X58953447Y-86000000D01*
X58953447Y-86000000D01*
G37*
X58953447Y-86000000D02*
X58700000Y-86253447D01*
X58446553Y-86000000D01*
X58700000Y-85746553D01*
X58953447Y-86000000D01*
G36*
X44953447Y-86000000D02*
X44700000Y-86253447D01*
X44446553Y-86000000D01*
X44700000Y-85746553D01*
X44953447Y-86000000D01*
X44953447Y-86000000D01*
G37*
X44953447Y-86000000D02*
X44700000Y-86253447D01*
X44446553Y-86000000D01*
X44700000Y-85746553D01*
X44953447Y-86000000D01*
G36*
X46953447Y-86000000D02*
X46700000Y-86253447D01*
X46446553Y-86000000D01*
X46700000Y-85746553D01*
X46953447Y-86000000D01*
X46953447Y-86000000D01*
G37*
X46953447Y-86000000D02*
X46700000Y-86253447D01*
X46446553Y-86000000D01*
X46700000Y-85746553D01*
X46953447Y-86000000D01*
G36*
X48953447Y-86000000D02*
X48700000Y-86253447D01*
X48446553Y-86000000D01*
X48700000Y-85746553D01*
X48953447Y-86000000D01*
X48953447Y-86000000D01*
G37*
X48953447Y-86000000D02*
X48700000Y-86253447D01*
X48446553Y-86000000D01*
X48700000Y-85746553D01*
X48953447Y-86000000D01*
G36*
X50953447Y-86000000D02*
X50700000Y-86253447D01*
X50446553Y-86000000D01*
X50700000Y-85746553D01*
X50953447Y-86000000D01*
X50953447Y-86000000D01*
G37*
X50953447Y-86000000D02*
X50700000Y-86253447D01*
X50446553Y-86000000D01*
X50700000Y-85746553D01*
X50953447Y-86000000D01*
G36*
X52953447Y-86000000D02*
X52700000Y-86253447D01*
X52446553Y-86000000D01*
X52700000Y-85746553D01*
X52953447Y-86000000D01*
X52953447Y-86000000D01*
G37*
X52953447Y-86000000D02*
X52700000Y-86253447D01*
X52446553Y-86000000D01*
X52700000Y-85746553D01*
X52953447Y-86000000D01*
G36*
X54953447Y-86000000D02*
X54700000Y-86253447D01*
X54446553Y-86000000D01*
X54700000Y-85746553D01*
X54953447Y-86000000D01*
X54953447Y-86000000D01*
G37*
X54953447Y-86000000D02*
X54700000Y-86253447D01*
X54446553Y-86000000D01*
X54700000Y-85746553D01*
X54953447Y-86000000D01*
G36*
X56953447Y-86000000D02*
X56700000Y-86253447D01*
X56446553Y-86000000D01*
X56700000Y-85746553D01*
X56953447Y-86000000D01*
X56953447Y-86000000D01*
G37*
X56953447Y-86000000D02*
X56700000Y-86253447D01*
X56446553Y-86000000D01*
X56700000Y-85746553D01*
X56953447Y-86000000D01*
G36*
X42953447Y-86000000D02*
X42700000Y-86253447D01*
X42605879Y-86159326D01*
X42757809Y-86057809D01*
X42859326Y-85905879D01*
X42953447Y-86000000D01*
X42953447Y-86000000D01*
G37*
X42953447Y-86000000D02*
X42700000Y-86253447D01*
X42605879Y-86159326D01*
X42757809Y-86057809D01*
X42859326Y-85905879D01*
X42953447Y-86000000D01*
G36*
X60953447Y-86000000D02*
X60700000Y-86253447D01*
X60446553Y-86000000D01*
X60700000Y-85746553D01*
X60953447Y-86000000D01*
X60953447Y-86000000D01*
G37*
X60953447Y-86000000D02*
X60700000Y-86253447D01*
X60446553Y-86000000D01*
X60700000Y-85746553D01*
X60953447Y-86000000D01*
G36*
X62953447Y-86000000D02*
X62700000Y-86253447D01*
X62446553Y-86000000D01*
X62700000Y-85746553D01*
X62953447Y-86000000D01*
X62953447Y-86000000D01*
G37*
X62953447Y-86000000D02*
X62700000Y-86253447D01*
X62446553Y-86000000D01*
X62700000Y-85746553D01*
X62953447Y-86000000D01*
G36*
X63000429Y-83953018D02*
X62700000Y-84253447D01*
X62399571Y-83953018D01*
X62114649Y-83834999D01*
X63285351Y-83834999D01*
X63000429Y-83953018D01*
X63000429Y-83953018D01*
G37*
X63000429Y-83953018D02*
X62700000Y-84253447D01*
X62399571Y-83953018D01*
X62114649Y-83834999D01*
X63285351Y-83834999D01*
X63000429Y-83953018D01*
G36*
X61000429Y-83953018D02*
X60700000Y-84253447D01*
X60399571Y-83953018D01*
X60114649Y-83834999D01*
X61285351Y-83834999D01*
X61000429Y-83953018D01*
X61000429Y-83953018D01*
G37*
X61000429Y-83953018D02*
X60700000Y-84253447D01*
X60399571Y-83953018D01*
X60114649Y-83834999D01*
X61285351Y-83834999D01*
X61000429Y-83953018D01*
G36*
X59000429Y-83953018D02*
X58700000Y-84253447D01*
X58399571Y-83953018D01*
X58114649Y-83834999D01*
X59285351Y-83834999D01*
X59000429Y-83953018D01*
X59000429Y-83953018D01*
G37*
X59000429Y-83953018D02*
X58700000Y-84253447D01*
X58399571Y-83953018D01*
X58114649Y-83834999D01*
X59285351Y-83834999D01*
X59000429Y-83953018D01*
G36*
X57000429Y-83953018D02*
X56700000Y-84253447D01*
X56399571Y-83953018D01*
X56114649Y-83834999D01*
X57285351Y-83834999D01*
X57000429Y-83953018D01*
X57000429Y-83953018D01*
G37*
X57000429Y-83953018D02*
X56700000Y-84253447D01*
X56399571Y-83953018D01*
X56114649Y-83834999D01*
X57285351Y-83834999D01*
X57000429Y-83953018D01*
G36*
X55000429Y-83953018D02*
X54700000Y-84253447D01*
X54399571Y-83953018D01*
X54114649Y-83834999D01*
X55285351Y-83834999D01*
X55000429Y-83953018D01*
X55000429Y-83953018D01*
G37*
X55000429Y-83953018D02*
X54700000Y-84253447D01*
X54399571Y-83953018D01*
X54114649Y-83834999D01*
X55285351Y-83834999D01*
X55000429Y-83953018D01*
G36*
X118062760Y-83752560D02*
X118000000Y-83752560D01*
X117752235Y-83801843D01*
X117676949Y-83852148D01*
X117184801Y-83360000D01*
X117670201Y-83360000D01*
X118062760Y-83752560D01*
X118062760Y-83752560D01*
G37*
X118062760Y-83752560D02*
X118000000Y-83752560D01*
X117752235Y-83801843D01*
X117676949Y-83852148D01*
X117184801Y-83360000D01*
X117670201Y-83360000D01*
X118062760Y-83752560D01*
G36*
X65322672Y-80584472D02*
X65365073Y-80647929D01*
X65502867Y-80740000D01*
X63974802Y-80740000D01*
X44633761Y-61398959D01*
X44869507Y-61301310D01*
X45301310Y-60869507D01*
X45391052Y-60652851D01*
X65322672Y-80584472D01*
X65322672Y-80584472D01*
G37*
X65322672Y-80584472D02*
X65365073Y-80647929D01*
X65502867Y-80740000D01*
X63974802Y-80740000D01*
X44633761Y-61398959D01*
X44869507Y-61301310D01*
X45301310Y-60869507D01*
X45391052Y-60652851D01*
X65322672Y-80584472D01*
M02*
