G04 #@! TF.GenerationSoftware,KiCad,Pcbnew,(5.0.0)*
G04 #@! TF.CreationDate,2019-02-27T09:15:48+01:00*
G04 #@! TF.ProjectId,Potentiometer_mount_24LED,506F74656E74696F6D657465725F6D6F,rev?*
G04 #@! TF.SameCoordinates,Original*
G04 #@! TF.FileFunction,Legend,Top*
G04 #@! TF.FilePolarity,Positive*
%FSLAX46Y46*%
G04 Gerber Fmt 4.6, Leading zero omitted, Abs format (unit mm)*
G04 Created by KiCad (PCBNEW (5.0.0)) date 02/27/19 09:15:48*
%MOMM*%
%LPD*%
G01*
G04 APERTURE LIST*
%ADD10C,0.200000*%
%ADD11C,0.250000*%
%ADD12C,0.120000*%
%ADD13C,0.010000*%
%ADD14C,0.150000*%
G04 APERTURE END LIST*
D10*
X115900000Y-78102380D02*
X115328571Y-78102380D01*
X115614285Y-78102380D02*
X115614285Y-77102380D01*
X115519047Y-77245238D01*
X115423809Y-77340476D01*
X115328571Y-77388095D01*
X117757142Y-77102380D02*
X118376190Y-77102380D01*
X118042857Y-77483333D01*
X118185714Y-77483333D01*
X118280952Y-77530952D01*
X118328571Y-77578571D01*
X118376190Y-77673809D01*
X118376190Y-77911904D01*
X118328571Y-78007142D01*
X118280952Y-78054761D01*
X118185714Y-78102380D01*
X117900000Y-78102380D01*
X117804761Y-78054761D01*
X117757142Y-78007142D01*
X120804761Y-77102380D02*
X120328571Y-77102380D01*
X120280952Y-77578571D01*
X120328571Y-77530952D01*
X120423809Y-77483333D01*
X120661904Y-77483333D01*
X120757142Y-77530952D01*
X120804761Y-77578571D01*
X120852380Y-77673809D01*
X120852380Y-77911904D01*
X120804761Y-78007142D01*
X120757142Y-78054761D01*
X120661904Y-78102380D01*
X120423809Y-78102380D01*
X120328571Y-78054761D01*
X120280952Y-78007142D01*
X122709523Y-77102380D02*
X123376190Y-77102380D01*
X122947619Y-78102380D01*
X125328571Y-78102380D02*
X125519047Y-78102380D01*
X125614285Y-78054761D01*
X125661904Y-78007142D01*
X125757142Y-77864285D01*
X125804761Y-77673809D01*
X125804761Y-77292857D01*
X125757142Y-77197619D01*
X125709523Y-77150000D01*
X125614285Y-77102380D01*
X125423809Y-77102380D01*
X125328571Y-77150000D01*
X125280952Y-77197619D01*
X125233333Y-77292857D01*
X125233333Y-77530952D01*
X125280952Y-77626190D01*
X125328571Y-77673809D01*
X125423809Y-77721428D01*
X125614285Y-77721428D01*
X125709523Y-77673809D01*
X125757142Y-77626190D01*
X125804761Y-77530952D01*
X127519047Y-78102380D02*
X126947619Y-78102380D01*
X127233333Y-78102380D02*
X127233333Y-77102380D01*
X127138095Y-77245238D01*
X127042857Y-77340476D01*
X126947619Y-77388095D01*
X128471428Y-78102380D02*
X127900000Y-78102380D01*
X128185714Y-78102380D02*
X128185714Y-77102380D01*
X128090476Y-77245238D01*
X127995238Y-77340476D01*
X127900000Y-77388095D01*
X130185714Y-78102380D02*
X129614285Y-78102380D01*
X129900000Y-78102380D02*
X129900000Y-77102380D01*
X129804761Y-77245238D01*
X129709523Y-77340476D01*
X129614285Y-77388095D01*
X130519047Y-77102380D02*
X131138095Y-77102380D01*
X130804761Y-77483333D01*
X130947619Y-77483333D01*
X131042857Y-77530952D01*
X131090476Y-77578571D01*
X131138095Y-77673809D01*
X131138095Y-77911904D01*
X131090476Y-78007142D01*
X131042857Y-78054761D01*
X130947619Y-78102380D01*
X130661904Y-78102380D01*
X130566666Y-78054761D01*
X130519047Y-78007142D01*
X132852380Y-78102380D02*
X132280952Y-78102380D01*
X132566666Y-78102380D02*
X132566666Y-77102380D01*
X132471428Y-77245238D01*
X132376190Y-77340476D01*
X132280952Y-77388095D01*
X133757142Y-77102380D02*
X133280952Y-77102380D01*
X133233333Y-77578571D01*
X133280952Y-77530952D01*
X133376190Y-77483333D01*
X133614285Y-77483333D01*
X133709523Y-77530952D01*
X133757142Y-77578571D01*
X133804761Y-77673809D01*
X133804761Y-77911904D01*
X133757142Y-78007142D01*
X133709523Y-78054761D01*
X133614285Y-78102380D01*
X133376190Y-78102380D01*
X133280952Y-78054761D01*
X133233333Y-78007142D01*
X135519047Y-78102380D02*
X134947619Y-78102380D01*
X135233333Y-78102380D02*
X135233333Y-77102380D01*
X135138095Y-77245238D01*
X135042857Y-77340476D01*
X134947619Y-77388095D01*
X135852380Y-77102380D02*
X136519047Y-77102380D01*
X136090476Y-78102380D01*
X138185714Y-78102380D02*
X137614285Y-78102380D01*
X137900000Y-78102380D02*
X137900000Y-77102380D01*
X137804761Y-77245238D01*
X137709523Y-77340476D01*
X137614285Y-77388095D01*
X138661904Y-78102380D02*
X138852380Y-78102380D01*
X138947619Y-78054761D01*
X138995238Y-78007142D01*
X139090476Y-77864285D01*
X139138095Y-77673809D01*
X139138095Y-77292857D01*
X139090476Y-77197619D01*
X139042857Y-77150000D01*
X138947619Y-77102380D01*
X138757142Y-77102380D01*
X138661904Y-77150000D01*
X138614285Y-77197619D01*
X138566666Y-77292857D01*
X138566666Y-77530952D01*
X138614285Y-77626190D01*
X138661904Y-77673809D01*
X138757142Y-77721428D01*
X138947619Y-77721428D01*
X139042857Y-77673809D01*
X139090476Y-77626190D01*
X139138095Y-77530952D01*
X140280952Y-77197619D02*
X140328571Y-77150000D01*
X140423809Y-77102380D01*
X140661904Y-77102380D01*
X140757142Y-77150000D01*
X140804761Y-77197619D01*
X140852380Y-77292857D01*
X140852380Y-77388095D01*
X140804761Y-77530952D01*
X140233333Y-78102380D01*
X140852380Y-78102380D01*
X141804761Y-78102380D02*
X141233333Y-78102380D01*
X141519047Y-78102380D02*
X141519047Y-77102380D01*
X141423809Y-77245238D01*
X141328571Y-77340476D01*
X141233333Y-77388095D01*
X142947619Y-77197619D02*
X142995238Y-77150000D01*
X143090476Y-77102380D01*
X143328571Y-77102380D01*
X143423809Y-77150000D01*
X143471428Y-77197619D01*
X143519047Y-77292857D01*
X143519047Y-77388095D01*
X143471428Y-77530952D01*
X142900000Y-78102380D01*
X143519047Y-78102380D01*
X143852380Y-77102380D02*
X144471428Y-77102380D01*
X144138095Y-77483333D01*
X144280952Y-77483333D01*
X144376190Y-77530952D01*
X144423809Y-77578571D01*
X144471428Y-77673809D01*
X144471428Y-77911904D01*
X144423809Y-78007142D01*
X144376190Y-78054761D01*
X144280952Y-78102380D01*
X143995238Y-78102380D01*
X143900000Y-78054761D01*
X143852380Y-78007142D01*
X115233333Y-78897619D02*
X115280952Y-78850000D01*
X115376190Y-78802380D01*
X115614285Y-78802380D01*
X115709523Y-78850000D01*
X115757142Y-78897619D01*
X115804761Y-78992857D01*
X115804761Y-79088095D01*
X115757142Y-79230952D01*
X115185714Y-79802380D01*
X115804761Y-79802380D01*
X118185714Y-79135714D02*
X118185714Y-79802380D01*
X117947619Y-78754761D02*
X117709523Y-79469047D01*
X118328571Y-79469047D01*
X120661904Y-78802380D02*
X120471428Y-78802380D01*
X120376190Y-78850000D01*
X120328571Y-78897619D01*
X120233333Y-79040476D01*
X120185714Y-79230952D01*
X120185714Y-79611904D01*
X120233333Y-79707142D01*
X120280952Y-79754761D01*
X120376190Y-79802380D01*
X120566666Y-79802380D01*
X120661904Y-79754761D01*
X120709523Y-79707142D01*
X120757142Y-79611904D01*
X120757142Y-79373809D01*
X120709523Y-79278571D01*
X120661904Y-79230952D01*
X120566666Y-79183333D01*
X120376190Y-79183333D01*
X120280952Y-79230952D01*
X120233333Y-79278571D01*
X120185714Y-79373809D01*
X122852380Y-79230952D02*
X122757142Y-79183333D01*
X122709523Y-79135714D01*
X122661904Y-79040476D01*
X122661904Y-78992857D01*
X122709523Y-78897619D01*
X122757142Y-78850000D01*
X122852380Y-78802380D01*
X123042857Y-78802380D01*
X123138095Y-78850000D01*
X123185714Y-78897619D01*
X123233333Y-78992857D01*
X123233333Y-79040476D01*
X123185714Y-79135714D01*
X123138095Y-79183333D01*
X123042857Y-79230952D01*
X122852380Y-79230952D01*
X122757142Y-79278571D01*
X122709523Y-79326190D01*
X122661904Y-79421428D01*
X122661904Y-79611904D01*
X122709523Y-79707142D01*
X122757142Y-79754761D01*
X122852380Y-79802380D01*
X123042857Y-79802380D01*
X123138095Y-79754761D01*
X123185714Y-79707142D01*
X123233333Y-79611904D01*
X123233333Y-79421428D01*
X123185714Y-79326190D01*
X123138095Y-79278571D01*
X123042857Y-79230952D01*
X124947619Y-79802380D02*
X124376190Y-79802380D01*
X124661904Y-79802380D02*
X124661904Y-78802380D01*
X124566666Y-78945238D01*
X124471428Y-79040476D01*
X124376190Y-79088095D01*
X125566666Y-78802380D02*
X125661904Y-78802380D01*
X125757142Y-78850000D01*
X125804761Y-78897619D01*
X125852380Y-78992857D01*
X125899999Y-79183333D01*
X125899999Y-79421428D01*
X125852380Y-79611904D01*
X125804761Y-79707142D01*
X125757142Y-79754761D01*
X125661904Y-79802380D01*
X125566666Y-79802380D01*
X125471428Y-79754761D01*
X125423809Y-79707142D01*
X125376190Y-79611904D01*
X125328571Y-79421428D01*
X125328571Y-79183333D01*
X125376190Y-78992857D01*
X125423809Y-78897619D01*
X125471428Y-78850000D01*
X125566666Y-78802380D01*
X127614285Y-79802380D02*
X127042857Y-79802380D01*
X127328571Y-79802380D02*
X127328571Y-78802380D01*
X127233333Y-78945238D01*
X127138095Y-79040476D01*
X127042857Y-79088095D01*
X127995238Y-78897619D02*
X128042857Y-78850000D01*
X128138095Y-78802380D01*
X128376190Y-78802380D01*
X128471428Y-78850000D01*
X128519047Y-78897619D01*
X128566666Y-78992857D01*
X128566666Y-79088095D01*
X128519047Y-79230952D01*
X127947619Y-79802380D01*
X128566666Y-79802380D01*
X130280952Y-79802380D02*
X129709523Y-79802380D01*
X129995238Y-79802380D02*
X129995238Y-78802380D01*
X129899999Y-78945238D01*
X129804761Y-79040476D01*
X129709523Y-79088095D01*
X131138095Y-79135714D02*
X131138095Y-79802380D01*
X130899999Y-78754761D02*
X130661904Y-79469047D01*
X131280952Y-79469047D01*
X132947619Y-79802380D02*
X132376190Y-79802380D01*
X132661904Y-79802380D02*
X132661904Y-78802380D01*
X132566666Y-78945238D01*
X132471428Y-79040476D01*
X132376190Y-79088095D01*
X133804761Y-78802380D02*
X133614285Y-78802380D01*
X133519047Y-78850000D01*
X133471428Y-78897619D01*
X133376190Y-79040476D01*
X133328571Y-79230952D01*
X133328571Y-79611904D01*
X133376190Y-79707142D01*
X133423809Y-79754761D01*
X133519047Y-79802380D01*
X133709523Y-79802380D01*
X133804761Y-79754761D01*
X133852380Y-79707142D01*
X133899999Y-79611904D01*
X133899999Y-79373809D01*
X133852380Y-79278571D01*
X133804761Y-79230952D01*
X133709523Y-79183333D01*
X133519047Y-79183333D01*
X133423809Y-79230952D01*
X133376190Y-79278571D01*
X133328571Y-79373809D01*
X135614285Y-79802380D02*
X135042857Y-79802380D01*
X135328571Y-79802380D02*
X135328571Y-78802380D01*
X135233333Y-78945238D01*
X135138095Y-79040476D01*
X135042857Y-79088095D01*
X136185714Y-79230952D02*
X136090476Y-79183333D01*
X136042857Y-79135714D01*
X135995238Y-79040476D01*
X135995238Y-78992857D01*
X136042857Y-78897619D01*
X136090476Y-78850000D01*
X136185714Y-78802380D01*
X136376190Y-78802380D01*
X136471428Y-78850000D01*
X136519047Y-78897619D01*
X136566666Y-78992857D01*
X136566666Y-79040476D01*
X136519047Y-79135714D01*
X136471428Y-79183333D01*
X136376190Y-79230952D01*
X136185714Y-79230952D01*
X136090476Y-79278571D01*
X136042857Y-79326190D01*
X135995238Y-79421428D01*
X135995238Y-79611904D01*
X136042857Y-79707142D01*
X136090476Y-79754761D01*
X136185714Y-79802380D01*
X136376190Y-79802380D01*
X136471428Y-79754761D01*
X136519047Y-79707142D01*
X136566666Y-79611904D01*
X136566666Y-79421428D01*
X136519047Y-79326190D01*
X136471428Y-79278571D01*
X136376190Y-79230952D01*
X137709523Y-78897619D02*
X137757142Y-78850000D01*
X137852380Y-78802380D01*
X138090476Y-78802380D01*
X138185714Y-78850000D01*
X138233333Y-78897619D01*
X138280952Y-78992857D01*
X138280952Y-79088095D01*
X138233333Y-79230952D01*
X137661904Y-79802380D01*
X138280952Y-79802380D01*
X138899999Y-78802380D02*
X138995238Y-78802380D01*
X139090476Y-78850000D01*
X139138095Y-78897619D01*
X139185714Y-78992857D01*
X139233333Y-79183333D01*
X139233333Y-79421428D01*
X139185714Y-79611904D01*
X139138095Y-79707142D01*
X139090476Y-79754761D01*
X138995238Y-79802380D01*
X138899999Y-79802380D01*
X138804761Y-79754761D01*
X138757142Y-79707142D01*
X138709523Y-79611904D01*
X138661904Y-79421428D01*
X138661904Y-79183333D01*
X138709523Y-78992857D01*
X138757142Y-78897619D01*
X138804761Y-78850000D01*
X138899999Y-78802380D01*
X140376190Y-78897619D02*
X140423809Y-78850000D01*
X140519047Y-78802380D01*
X140757142Y-78802380D01*
X140852380Y-78850000D01*
X140899999Y-78897619D01*
X140947619Y-78992857D01*
X140947619Y-79088095D01*
X140899999Y-79230952D01*
X140328571Y-79802380D01*
X140947619Y-79802380D01*
X141328571Y-78897619D02*
X141376190Y-78850000D01*
X141471428Y-78802380D01*
X141709523Y-78802380D01*
X141804761Y-78850000D01*
X141852380Y-78897619D01*
X141899999Y-78992857D01*
X141899999Y-79088095D01*
X141852380Y-79230952D01*
X141280952Y-79802380D01*
X141899999Y-79802380D01*
X143042857Y-78897619D02*
X143090476Y-78850000D01*
X143185714Y-78802380D01*
X143423809Y-78802380D01*
X143519047Y-78850000D01*
X143566666Y-78897619D01*
X143614285Y-78992857D01*
X143614285Y-79088095D01*
X143566666Y-79230952D01*
X142995238Y-79802380D01*
X143614285Y-79802380D01*
X144471428Y-79135714D02*
X144471428Y-79802380D01*
X144233333Y-78754761D02*
X143995238Y-79469047D01*
X144614285Y-79469047D01*
X38599999Y-78102380D02*
X38028571Y-78102380D01*
X38314285Y-78102380D02*
X38314285Y-77102380D01*
X38219047Y-77245238D01*
X38123809Y-77340476D01*
X38028571Y-77388095D01*
X40457142Y-77102380D02*
X41076190Y-77102380D01*
X40742857Y-77483333D01*
X40885714Y-77483333D01*
X40980952Y-77530952D01*
X41028571Y-77578571D01*
X41076190Y-77673809D01*
X41076190Y-77911904D01*
X41028571Y-78007142D01*
X40980952Y-78054761D01*
X40885714Y-78102380D01*
X40599999Y-78102380D01*
X40504761Y-78054761D01*
X40457142Y-78007142D01*
X43504761Y-77102380D02*
X43028571Y-77102380D01*
X42980952Y-77578571D01*
X43028571Y-77530952D01*
X43123809Y-77483333D01*
X43361904Y-77483333D01*
X43457142Y-77530952D01*
X43504761Y-77578571D01*
X43552380Y-77673809D01*
X43552380Y-77911904D01*
X43504761Y-78007142D01*
X43457142Y-78054761D01*
X43361904Y-78102380D01*
X43123809Y-78102380D01*
X43028571Y-78054761D01*
X42980952Y-78007142D01*
X45409523Y-77102380D02*
X46076190Y-77102380D01*
X45647619Y-78102380D01*
X48028571Y-78102380D02*
X48219047Y-78102380D01*
X48314285Y-78054761D01*
X48361904Y-78007142D01*
X48457142Y-77864285D01*
X48504761Y-77673809D01*
X48504761Y-77292857D01*
X48457142Y-77197619D01*
X48409523Y-77150000D01*
X48314285Y-77102380D01*
X48123809Y-77102380D01*
X48028571Y-77150000D01*
X47980952Y-77197619D01*
X47933333Y-77292857D01*
X47933333Y-77530952D01*
X47980952Y-77626190D01*
X48028571Y-77673809D01*
X48123809Y-77721428D01*
X48314285Y-77721428D01*
X48409523Y-77673809D01*
X48457142Y-77626190D01*
X48504761Y-77530952D01*
X50219047Y-78102380D02*
X49647619Y-78102380D01*
X49933333Y-78102380D02*
X49933333Y-77102380D01*
X49838095Y-77245238D01*
X49742857Y-77340476D01*
X49647619Y-77388095D01*
X51171428Y-78102380D02*
X50599999Y-78102380D01*
X50885714Y-78102380D02*
X50885714Y-77102380D01*
X50790476Y-77245238D01*
X50695238Y-77340476D01*
X50599999Y-77388095D01*
X52885714Y-78102380D02*
X52314285Y-78102380D01*
X52599999Y-78102380D02*
X52599999Y-77102380D01*
X52504761Y-77245238D01*
X52409523Y-77340476D01*
X52314285Y-77388095D01*
X53219047Y-77102380D02*
X53838095Y-77102380D01*
X53504761Y-77483333D01*
X53647619Y-77483333D01*
X53742857Y-77530952D01*
X53790476Y-77578571D01*
X53838095Y-77673809D01*
X53838095Y-77911904D01*
X53790476Y-78007142D01*
X53742857Y-78054761D01*
X53647619Y-78102380D01*
X53361904Y-78102380D01*
X53266666Y-78054761D01*
X53219047Y-78007142D01*
X55552380Y-78102380D02*
X54980952Y-78102380D01*
X55266666Y-78102380D02*
X55266666Y-77102380D01*
X55171428Y-77245238D01*
X55076190Y-77340476D01*
X54980952Y-77388095D01*
X56457142Y-77102380D02*
X55980952Y-77102380D01*
X55933333Y-77578571D01*
X55980952Y-77530952D01*
X56076190Y-77483333D01*
X56314285Y-77483333D01*
X56409523Y-77530952D01*
X56457142Y-77578571D01*
X56504761Y-77673809D01*
X56504761Y-77911904D01*
X56457142Y-78007142D01*
X56409523Y-78054761D01*
X56314285Y-78102380D01*
X56076190Y-78102380D01*
X55980952Y-78054761D01*
X55933333Y-78007142D01*
X58219047Y-78102380D02*
X57647619Y-78102380D01*
X57933333Y-78102380D02*
X57933333Y-77102380D01*
X57838095Y-77245238D01*
X57742857Y-77340476D01*
X57647619Y-77388095D01*
X58552380Y-77102380D02*
X59219047Y-77102380D01*
X58790476Y-78102380D01*
X60885714Y-78102380D02*
X60314285Y-78102380D01*
X60599999Y-78102380D02*
X60599999Y-77102380D01*
X60504761Y-77245238D01*
X60409523Y-77340476D01*
X60314285Y-77388095D01*
X61361904Y-78102380D02*
X61552380Y-78102380D01*
X61647619Y-78054761D01*
X61695238Y-78007142D01*
X61790476Y-77864285D01*
X61838095Y-77673809D01*
X61838095Y-77292857D01*
X61790476Y-77197619D01*
X61742857Y-77150000D01*
X61647619Y-77102380D01*
X61457142Y-77102380D01*
X61361904Y-77150000D01*
X61314285Y-77197619D01*
X61266666Y-77292857D01*
X61266666Y-77530952D01*
X61314285Y-77626190D01*
X61361904Y-77673809D01*
X61457142Y-77721428D01*
X61647619Y-77721428D01*
X61742857Y-77673809D01*
X61790476Y-77626190D01*
X61838095Y-77530952D01*
X62980952Y-77197619D02*
X63028571Y-77150000D01*
X63123809Y-77102380D01*
X63361904Y-77102380D01*
X63457142Y-77150000D01*
X63504761Y-77197619D01*
X63552380Y-77292857D01*
X63552380Y-77388095D01*
X63504761Y-77530952D01*
X62933333Y-78102380D01*
X63552380Y-78102380D01*
X64504761Y-78102380D02*
X63933333Y-78102380D01*
X64219047Y-78102380D02*
X64219047Y-77102380D01*
X64123809Y-77245238D01*
X64028571Y-77340476D01*
X63933333Y-77388095D01*
X65647619Y-77197619D02*
X65695238Y-77150000D01*
X65790476Y-77102380D01*
X66028571Y-77102380D01*
X66123809Y-77150000D01*
X66171428Y-77197619D01*
X66219047Y-77292857D01*
X66219047Y-77388095D01*
X66171428Y-77530952D01*
X65599999Y-78102380D01*
X66219047Y-78102380D01*
X66552380Y-77102380D02*
X67171428Y-77102380D01*
X66838095Y-77483333D01*
X66980952Y-77483333D01*
X67076190Y-77530952D01*
X67123809Y-77578571D01*
X67171428Y-77673809D01*
X67171428Y-77911904D01*
X67123809Y-78007142D01*
X67076190Y-78054761D01*
X66980952Y-78102380D01*
X66695238Y-78102380D01*
X66599999Y-78054761D01*
X66552380Y-78007142D01*
X37933333Y-78897619D02*
X37980952Y-78850000D01*
X38076190Y-78802380D01*
X38314285Y-78802380D01*
X38409523Y-78850000D01*
X38457142Y-78897619D01*
X38504761Y-78992857D01*
X38504761Y-79088095D01*
X38457142Y-79230952D01*
X37885714Y-79802380D01*
X38504761Y-79802380D01*
X40885714Y-79135714D02*
X40885714Y-79802380D01*
X40647619Y-78754761D02*
X40409523Y-79469047D01*
X41028571Y-79469047D01*
X43361904Y-78802380D02*
X43171428Y-78802380D01*
X43076190Y-78850000D01*
X43028571Y-78897619D01*
X42933333Y-79040476D01*
X42885714Y-79230952D01*
X42885714Y-79611904D01*
X42933333Y-79707142D01*
X42980952Y-79754761D01*
X43076190Y-79802380D01*
X43266666Y-79802380D01*
X43361904Y-79754761D01*
X43409523Y-79707142D01*
X43457142Y-79611904D01*
X43457142Y-79373809D01*
X43409523Y-79278571D01*
X43361904Y-79230952D01*
X43266666Y-79183333D01*
X43076190Y-79183333D01*
X42980952Y-79230952D01*
X42933333Y-79278571D01*
X42885714Y-79373809D01*
X45552380Y-79230952D02*
X45457142Y-79183333D01*
X45409523Y-79135714D01*
X45361904Y-79040476D01*
X45361904Y-78992857D01*
X45409523Y-78897619D01*
X45457142Y-78850000D01*
X45552380Y-78802380D01*
X45742857Y-78802380D01*
X45838095Y-78850000D01*
X45885714Y-78897619D01*
X45933333Y-78992857D01*
X45933333Y-79040476D01*
X45885714Y-79135714D01*
X45838095Y-79183333D01*
X45742857Y-79230952D01*
X45552380Y-79230952D01*
X45457142Y-79278571D01*
X45409523Y-79326190D01*
X45361904Y-79421428D01*
X45361904Y-79611904D01*
X45409523Y-79707142D01*
X45457142Y-79754761D01*
X45552380Y-79802380D01*
X45742857Y-79802380D01*
X45838095Y-79754761D01*
X45885714Y-79707142D01*
X45933333Y-79611904D01*
X45933333Y-79421428D01*
X45885714Y-79326190D01*
X45838095Y-79278571D01*
X45742857Y-79230952D01*
X47647619Y-79802380D02*
X47076190Y-79802380D01*
X47361904Y-79802380D02*
X47361904Y-78802380D01*
X47266666Y-78945238D01*
X47171428Y-79040476D01*
X47076190Y-79088095D01*
X48266666Y-78802380D02*
X48361904Y-78802380D01*
X48457142Y-78850000D01*
X48504761Y-78897619D01*
X48552380Y-78992857D01*
X48599999Y-79183333D01*
X48599999Y-79421428D01*
X48552380Y-79611904D01*
X48504761Y-79707142D01*
X48457142Y-79754761D01*
X48361904Y-79802380D01*
X48266666Y-79802380D01*
X48171428Y-79754761D01*
X48123809Y-79707142D01*
X48076190Y-79611904D01*
X48028571Y-79421428D01*
X48028571Y-79183333D01*
X48076190Y-78992857D01*
X48123809Y-78897619D01*
X48171428Y-78850000D01*
X48266666Y-78802380D01*
X50314285Y-79802380D02*
X49742857Y-79802380D01*
X50028571Y-79802380D02*
X50028571Y-78802380D01*
X49933333Y-78945238D01*
X49838095Y-79040476D01*
X49742857Y-79088095D01*
X50695238Y-78897619D02*
X50742857Y-78850000D01*
X50838095Y-78802380D01*
X51076190Y-78802380D01*
X51171428Y-78850000D01*
X51219047Y-78897619D01*
X51266666Y-78992857D01*
X51266666Y-79088095D01*
X51219047Y-79230952D01*
X50647619Y-79802380D01*
X51266666Y-79802380D01*
X52980952Y-79802380D02*
X52409523Y-79802380D01*
X52695238Y-79802380D02*
X52695238Y-78802380D01*
X52599999Y-78945238D01*
X52504761Y-79040476D01*
X52409523Y-79088095D01*
X53838095Y-79135714D02*
X53838095Y-79802380D01*
X53599999Y-78754761D02*
X53361904Y-79469047D01*
X53980952Y-79469047D01*
X55647619Y-79802380D02*
X55076190Y-79802380D01*
X55361904Y-79802380D02*
X55361904Y-78802380D01*
X55266666Y-78945238D01*
X55171428Y-79040476D01*
X55076190Y-79088095D01*
X56504761Y-78802380D02*
X56314285Y-78802380D01*
X56219047Y-78850000D01*
X56171428Y-78897619D01*
X56076190Y-79040476D01*
X56028571Y-79230952D01*
X56028571Y-79611904D01*
X56076190Y-79707142D01*
X56123809Y-79754761D01*
X56219047Y-79802380D01*
X56409523Y-79802380D01*
X56504761Y-79754761D01*
X56552380Y-79707142D01*
X56599999Y-79611904D01*
X56599999Y-79373809D01*
X56552380Y-79278571D01*
X56504761Y-79230952D01*
X56409523Y-79183333D01*
X56219047Y-79183333D01*
X56123809Y-79230952D01*
X56076190Y-79278571D01*
X56028571Y-79373809D01*
X58314285Y-79802380D02*
X57742857Y-79802380D01*
X58028571Y-79802380D02*
X58028571Y-78802380D01*
X57933333Y-78945238D01*
X57838095Y-79040476D01*
X57742857Y-79088095D01*
X58885714Y-79230952D02*
X58790476Y-79183333D01*
X58742857Y-79135714D01*
X58695238Y-79040476D01*
X58695238Y-78992857D01*
X58742857Y-78897619D01*
X58790476Y-78850000D01*
X58885714Y-78802380D01*
X59076190Y-78802380D01*
X59171428Y-78850000D01*
X59219047Y-78897619D01*
X59266666Y-78992857D01*
X59266666Y-79040476D01*
X59219047Y-79135714D01*
X59171428Y-79183333D01*
X59076190Y-79230952D01*
X58885714Y-79230952D01*
X58790476Y-79278571D01*
X58742857Y-79326190D01*
X58695238Y-79421428D01*
X58695238Y-79611904D01*
X58742857Y-79707142D01*
X58790476Y-79754761D01*
X58885714Y-79802380D01*
X59076190Y-79802380D01*
X59171428Y-79754761D01*
X59219047Y-79707142D01*
X59266666Y-79611904D01*
X59266666Y-79421428D01*
X59219047Y-79326190D01*
X59171428Y-79278571D01*
X59076190Y-79230952D01*
X60409523Y-78897619D02*
X60457142Y-78850000D01*
X60552380Y-78802380D01*
X60790476Y-78802380D01*
X60885714Y-78850000D01*
X60933333Y-78897619D01*
X60980952Y-78992857D01*
X60980952Y-79088095D01*
X60933333Y-79230952D01*
X60361904Y-79802380D01*
X60980952Y-79802380D01*
X61599999Y-78802380D02*
X61695238Y-78802380D01*
X61790476Y-78850000D01*
X61838095Y-78897619D01*
X61885714Y-78992857D01*
X61933333Y-79183333D01*
X61933333Y-79421428D01*
X61885714Y-79611904D01*
X61838095Y-79707142D01*
X61790476Y-79754761D01*
X61695238Y-79802380D01*
X61599999Y-79802380D01*
X61504761Y-79754761D01*
X61457142Y-79707142D01*
X61409523Y-79611904D01*
X61361904Y-79421428D01*
X61361904Y-79183333D01*
X61409523Y-78992857D01*
X61457142Y-78897619D01*
X61504761Y-78850000D01*
X61599999Y-78802380D01*
X63076190Y-78897619D02*
X63123809Y-78850000D01*
X63219047Y-78802380D01*
X63457142Y-78802380D01*
X63552380Y-78850000D01*
X63599999Y-78897619D01*
X63647619Y-78992857D01*
X63647619Y-79088095D01*
X63599999Y-79230952D01*
X63028571Y-79802380D01*
X63647619Y-79802380D01*
X64028571Y-78897619D02*
X64076190Y-78850000D01*
X64171428Y-78802380D01*
X64409523Y-78802380D01*
X64504761Y-78850000D01*
X64552380Y-78897619D01*
X64599999Y-78992857D01*
X64599999Y-79088095D01*
X64552380Y-79230952D01*
X63980952Y-79802380D01*
X64599999Y-79802380D01*
X65742857Y-78897619D02*
X65790476Y-78850000D01*
X65885714Y-78802380D01*
X66123809Y-78802380D01*
X66219047Y-78850000D01*
X66266666Y-78897619D01*
X66314285Y-78992857D01*
X66314285Y-79088095D01*
X66266666Y-79230952D01*
X65695238Y-79802380D01*
X66314285Y-79802380D01*
X67171428Y-79135714D02*
X67171428Y-79802380D01*
X66933333Y-78754761D02*
X66695238Y-79469047D01*
X67314285Y-79469047D01*
D11*
X66585714Y-69678571D02*
X66585714Y-68178571D01*
X67157142Y-68178571D01*
X67299999Y-68250000D01*
X67371428Y-68321428D01*
X67442857Y-68464285D01*
X67442857Y-68678571D01*
X67371428Y-68821428D01*
X67299999Y-68892857D01*
X67157142Y-68964285D01*
X66585714Y-68964285D01*
X68299999Y-69678571D02*
X68157142Y-69607142D01*
X68085714Y-69535714D01*
X68014285Y-69392857D01*
X68014285Y-68964285D01*
X68085714Y-68821428D01*
X68157142Y-68750000D01*
X68299999Y-68678571D01*
X68514285Y-68678571D01*
X68657142Y-68750000D01*
X68728571Y-68821428D01*
X68799999Y-68964285D01*
X68799999Y-69392857D01*
X68728571Y-69535714D01*
X68657142Y-69607142D01*
X68514285Y-69678571D01*
X68299999Y-69678571D01*
X69228571Y-68678571D02*
X69799999Y-68678571D01*
X69442857Y-68178571D02*
X69442857Y-69464285D01*
X69514285Y-69607142D01*
X69657142Y-69678571D01*
X69799999Y-69678571D01*
X70871428Y-69607142D02*
X70728571Y-69678571D01*
X70442857Y-69678571D01*
X70299999Y-69607142D01*
X70228571Y-69464285D01*
X70228571Y-68892857D01*
X70299999Y-68750000D01*
X70442857Y-68678571D01*
X70728571Y-68678571D01*
X70871428Y-68750000D01*
X70942857Y-68892857D01*
X70942857Y-69035714D01*
X70228571Y-69178571D01*
X71585714Y-68678571D02*
X71585714Y-69678571D01*
X71585714Y-68821428D02*
X71657142Y-68750000D01*
X71799999Y-68678571D01*
X72014285Y-68678571D01*
X72157142Y-68750000D01*
X72228571Y-68892857D01*
X72228571Y-69678571D01*
X72728571Y-68678571D02*
X73299999Y-68678571D01*
X72942857Y-68178571D02*
X72942857Y-69464285D01*
X73014285Y-69607142D01*
X73157142Y-69678571D01*
X73299999Y-69678571D01*
X73799999Y-69678571D02*
X73799999Y-68678571D01*
X73799999Y-68178571D02*
X73728571Y-68250000D01*
X73799999Y-68321428D01*
X73871428Y-68250000D01*
X73799999Y-68178571D01*
X73799999Y-68321428D01*
X74728571Y-69678571D02*
X74585714Y-69607142D01*
X74514285Y-69535714D01*
X74442857Y-69392857D01*
X74442857Y-68964285D01*
X74514285Y-68821428D01*
X74585714Y-68750000D01*
X74728571Y-68678571D01*
X74942857Y-68678571D01*
X75085714Y-68750000D01*
X75157142Y-68821428D01*
X75228571Y-68964285D01*
X75228571Y-69392857D01*
X75157142Y-69535714D01*
X75085714Y-69607142D01*
X74942857Y-69678571D01*
X74728571Y-69678571D01*
X75871428Y-69678571D02*
X75871428Y-68678571D01*
X75871428Y-68821428D02*
X75942857Y-68750000D01*
X76085714Y-68678571D01*
X76299999Y-68678571D01*
X76442857Y-68750000D01*
X76514285Y-68892857D01*
X76514285Y-69678571D01*
X76514285Y-68892857D02*
X76585714Y-68750000D01*
X76728571Y-68678571D01*
X76942857Y-68678571D01*
X77085714Y-68750000D01*
X77157142Y-68892857D01*
X77157142Y-69678571D01*
X78442857Y-69607142D02*
X78299999Y-69678571D01*
X78014285Y-69678571D01*
X77871428Y-69607142D01*
X77799999Y-69464285D01*
X77799999Y-68892857D01*
X77871428Y-68750000D01*
X78014285Y-68678571D01*
X78299999Y-68678571D01*
X78442857Y-68750000D01*
X78514285Y-68892857D01*
X78514285Y-69035714D01*
X77799999Y-69178571D01*
X78942857Y-68678571D02*
X79514285Y-68678571D01*
X79157142Y-68178571D02*
X79157142Y-69464285D01*
X79228571Y-69607142D01*
X79371428Y-69678571D01*
X79514285Y-69678571D01*
X80585714Y-69607142D02*
X80442857Y-69678571D01*
X80157142Y-69678571D01*
X80014285Y-69607142D01*
X79942857Y-69464285D01*
X79942857Y-68892857D01*
X80014285Y-68750000D01*
X80157142Y-68678571D01*
X80442857Y-68678571D01*
X80585714Y-68750000D01*
X80657142Y-68892857D01*
X80657142Y-69035714D01*
X79942857Y-69178571D01*
X81299999Y-69678571D02*
X81299999Y-68678571D01*
X81299999Y-68964285D02*
X81371428Y-68821428D01*
X81442857Y-68750000D01*
X81585714Y-68678571D01*
X81728571Y-68678571D01*
X83871428Y-68892857D02*
X84085714Y-68964285D01*
X84157142Y-69035714D01*
X84228571Y-69178571D01*
X84228571Y-69392857D01*
X84157142Y-69535714D01*
X84085714Y-69607142D01*
X83942857Y-69678571D01*
X83371428Y-69678571D01*
X83371428Y-68178571D01*
X83871428Y-68178571D01*
X84014285Y-68250000D01*
X84085714Y-68321428D01*
X84157142Y-68464285D01*
X84157142Y-68607142D01*
X84085714Y-68750000D01*
X84014285Y-68821428D01*
X83871428Y-68892857D01*
X83371428Y-68892857D01*
X85085714Y-69678571D02*
X84942857Y-69607142D01*
X84871428Y-69535714D01*
X84799999Y-69392857D01*
X84799999Y-68964285D01*
X84871428Y-68821428D01*
X84942857Y-68750000D01*
X85085714Y-68678571D01*
X85299999Y-68678571D01*
X85442857Y-68750000D01*
X85514285Y-68821428D01*
X85585714Y-68964285D01*
X85585714Y-69392857D01*
X85514285Y-69535714D01*
X85442857Y-69607142D01*
X85299999Y-69678571D01*
X85085714Y-69678571D01*
X86871428Y-69678571D02*
X86871428Y-68892857D01*
X86799999Y-68750000D01*
X86657142Y-68678571D01*
X86371428Y-68678571D01*
X86228571Y-68750000D01*
X86871428Y-69607142D02*
X86728571Y-69678571D01*
X86371428Y-69678571D01*
X86228571Y-69607142D01*
X86157142Y-69464285D01*
X86157142Y-69321428D01*
X86228571Y-69178571D01*
X86371428Y-69107142D01*
X86728571Y-69107142D01*
X86871428Y-69035714D01*
X87585714Y-69678571D02*
X87585714Y-68678571D01*
X87585714Y-68964285D02*
X87657142Y-68821428D01*
X87728571Y-68750000D01*
X87871428Y-68678571D01*
X88014285Y-68678571D01*
X89157142Y-69678571D02*
X89157142Y-68178571D01*
X89157142Y-69607142D02*
X89014285Y-69678571D01*
X88728571Y-69678571D01*
X88585714Y-69607142D01*
X88514285Y-69535714D01*
X88442857Y-69392857D01*
X88442857Y-68964285D01*
X88514285Y-68821428D01*
X88585714Y-68750000D01*
X88728571Y-68678571D01*
X89014285Y-68678571D01*
X89157142Y-68750000D01*
X90799999Y-68678571D02*
X91371428Y-68678571D01*
X91014285Y-69678571D02*
X91014285Y-68392857D01*
X91085714Y-68250000D01*
X91228571Y-68178571D01*
X91371428Y-68178571D01*
X92085714Y-69678571D02*
X91942857Y-69607142D01*
X91871428Y-69535714D01*
X91800000Y-69392857D01*
X91800000Y-68964285D01*
X91871428Y-68821428D01*
X91942857Y-68750000D01*
X92085714Y-68678571D01*
X92300000Y-68678571D01*
X92442857Y-68750000D01*
X92514285Y-68821428D01*
X92585714Y-68964285D01*
X92585714Y-69392857D01*
X92514285Y-69535714D01*
X92442857Y-69607142D01*
X92300000Y-69678571D01*
X92085714Y-69678571D01*
X93228571Y-69678571D02*
X93228571Y-68678571D01*
X93228571Y-68964285D02*
X93300000Y-68821428D01*
X93371428Y-68750000D01*
X93514285Y-68678571D01*
X93657142Y-68678571D01*
X95228571Y-68321428D02*
X95300000Y-68250000D01*
X95442857Y-68178571D01*
X95800000Y-68178571D01*
X95942857Y-68250000D01*
X96014285Y-68321428D01*
X96085714Y-68464285D01*
X96085714Y-68607142D01*
X96014285Y-68821428D01*
X95157142Y-69678571D01*
X96085714Y-69678571D01*
X97371428Y-68678571D02*
X97371428Y-69678571D01*
X97014285Y-68107142D02*
X96657142Y-69178571D01*
X97585714Y-69178571D01*
X100014285Y-69678571D02*
X99300000Y-69678571D01*
X99300000Y-68178571D01*
X100514285Y-68892857D02*
X101014285Y-68892857D01*
X101228571Y-69678571D02*
X100514285Y-69678571D01*
X100514285Y-68178571D01*
X101228571Y-68178571D01*
X101871428Y-69678571D02*
X101871428Y-68178571D01*
X102228571Y-68178571D01*
X102442857Y-68250000D01*
X102585714Y-68392857D01*
X102657142Y-68535714D01*
X102728571Y-68821428D01*
X102728571Y-69035714D01*
X102657142Y-69321428D01*
X102585714Y-69464285D01*
X102442857Y-69607142D01*
X102228571Y-69678571D01*
X101871428Y-69678571D01*
X105371428Y-69535714D02*
X105300000Y-69607142D01*
X105085714Y-69678571D01*
X104942857Y-69678571D01*
X104728571Y-69607142D01*
X104585714Y-69464285D01*
X104514285Y-69321428D01*
X104442857Y-69035714D01*
X104442857Y-68821428D01*
X104514285Y-68535714D01*
X104585714Y-68392857D01*
X104728571Y-68250000D01*
X104942857Y-68178571D01*
X105085714Y-68178571D01*
X105300000Y-68250000D01*
X105371428Y-68321428D01*
X106014285Y-69678571D02*
X106014285Y-68178571D01*
X106657142Y-69678571D02*
X106657142Y-68892857D01*
X106585714Y-68750000D01*
X106442857Y-68678571D01*
X106228571Y-68678571D01*
X106085714Y-68750000D01*
X106014285Y-68821428D01*
X108014285Y-69678571D02*
X108014285Y-68892857D01*
X107942857Y-68750000D01*
X107800000Y-68678571D01*
X107514285Y-68678571D01*
X107371428Y-68750000D01*
X108014285Y-69607142D02*
X107871428Y-69678571D01*
X107514285Y-69678571D01*
X107371428Y-69607142D01*
X107300000Y-69464285D01*
X107300000Y-69321428D01*
X107371428Y-69178571D01*
X107514285Y-69107142D01*
X107871428Y-69107142D01*
X108014285Y-69035714D01*
X108728571Y-68678571D02*
X108728571Y-69678571D01*
X108728571Y-68821428D02*
X108800000Y-68750000D01*
X108942857Y-68678571D01*
X109157142Y-68678571D01*
X109300000Y-68750000D01*
X109371428Y-68892857D01*
X109371428Y-69678571D01*
X110085714Y-68678571D02*
X110085714Y-69678571D01*
X110085714Y-68821428D02*
X110157142Y-68750000D01*
X110300000Y-68678571D01*
X110514285Y-68678571D01*
X110657142Y-68750000D01*
X110728571Y-68892857D01*
X110728571Y-69678571D01*
X112014285Y-69607142D02*
X111871428Y-69678571D01*
X111585714Y-69678571D01*
X111442857Y-69607142D01*
X111371428Y-69464285D01*
X111371428Y-68892857D01*
X111442857Y-68750000D01*
X111585714Y-68678571D01*
X111871428Y-68678571D01*
X112014285Y-68750000D01*
X112085714Y-68892857D01*
X112085714Y-69035714D01*
X111371428Y-69178571D01*
X112942857Y-69678571D02*
X112800000Y-69607142D01*
X112728571Y-69464285D01*
X112728571Y-68178571D01*
X113442857Y-69607142D02*
X113585714Y-69678571D01*
X113871428Y-69678571D01*
X114014285Y-69607142D01*
X114085714Y-69464285D01*
X114085714Y-69392857D01*
X114014285Y-69250000D01*
X113871428Y-69178571D01*
X113657142Y-69178571D01*
X113514285Y-69107142D01*
X113442857Y-68964285D01*
X113442857Y-68892857D01*
X113514285Y-68750000D01*
X113657142Y-68678571D01*
X113871428Y-68678571D01*
X114014285Y-68750000D01*
D12*
G04 #@! TO.C,LED 1*
X21270000Y-42360000D02*
X21270000Y-43119000D01*
X22570000Y-43879000D02*
X19970000Y-43879000D01*
X22570000Y-42360000D02*
X19970000Y-42360000D01*
X19970000Y-42360000D02*
X19970000Y-43879000D01*
X22570000Y-42360000D02*
X22570000Y-43879000D01*
X23790000Y-63120000D02*
X18750000Y-63120000D01*
X23790000Y-43880000D02*
X18750000Y-43880000D01*
X18750000Y-43880000D02*
X18750000Y-63120000D01*
X23790000Y-43880000D02*
X23790000Y-63120000D01*
G04 #@! TO.C,LED 2*
X29790000Y-43880000D02*
X29790000Y-63120000D01*
X24750000Y-43880000D02*
X24750000Y-63120000D01*
X29790000Y-43880000D02*
X24750000Y-43880000D01*
X29790000Y-63120000D02*
X24750000Y-63120000D01*
X28570000Y-42360000D02*
X28570000Y-43879000D01*
X25970000Y-42360000D02*
X25970000Y-43879000D01*
X28570000Y-42360000D02*
X25970000Y-42360000D01*
X28570000Y-43879000D02*
X25970000Y-43879000D01*
X27270000Y-42360000D02*
X27270000Y-43119000D01*
G04 #@! TO.C,LED 3*
X33270000Y-42360000D02*
X33270000Y-43119000D01*
X34570000Y-43879000D02*
X31970000Y-43879000D01*
X34570000Y-42360000D02*
X31970000Y-42360000D01*
X31970000Y-42360000D02*
X31970000Y-43879000D01*
X34570000Y-42360000D02*
X34570000Y-43879000D01*
X35790000Y-63120000D02*
X30750000Y-63120000D01*
X35790000Y-43880000D02*
X30750000Y-43880000D01*
X30750000Y-43880000D02*
X30750000Y-63120000D01*
X35790000Y-43880000D02*
X35790000Y-63120000D01*
G04 #@! TO.C,LED 4*
X41790000Y-43880000D02*
X41790000Y-63120000D01*
X36750000Y-43880000D02*
X36750000Y-63120000D01*
X41790000Y-43880000D02*
X36750000Y-43880000D01*
X41790000Y-63120000D02*
X36750000Y-63120000D01*
X40570000Y-42360000D02*
X40570000Y-43879000D01*
X37970000Y-42360000D02*
X37970000Y-43879000D01*
X40570000Y-42360000D02*
X37970000Y-42360000D01*
X40570000Y-43879000D02*
X37970000Y-43879000D01*
X39270000Y-42360000D02*
X39270000Y-43119000D01*
G04 #@! TO.C,From Stimulator*
X38790000Y-84700000D02*
X39390000Y-85000000D01*
X38790000Y-85300000D02*
X38790000Y-84700000D01*
X39390000Y-85000000D02*
X38790000Y-85300000D01*
X65810000Y-80990000D02*
X39590000Y-80990000D01*
X65810000Y-89510000D02*
X65810000Y-80990000D01*
X39590000Y-89510000D02*
X65810000Y-89510000D01*
X39590000Y-80990000D02*
X39590000Y-89510000D01*
X64950000Y-88650000D02*
X52700000Y-88650000D01*
X64950000Y-81850000D02*
X64950000Y-88650000D01*
X59950000Y-81850000D02*
X64950000Y-81850000D01*
X59950000Y-82600000D02*
X59950000Y-81850000D01*
X59200000Y-82600000D02*
X59950000Y-82600000D01*
X59200000Y-80990000D02*
X59200000Y-82600000D01*
X40450000Y-88650000D02*
X52700000Y-88650000D01*
X40450000Y-81850000D02*
X40450000Y-88650000D01*
X45450000Y-81850000D02*
X40450000Y-81850000D01*
X45450000Y-82600000D02*
X45450000Y-81850000D01*
X46200000Y-82600000D02*
X45450000Y-82600000D01*
X46200000Y-80990000D02*
X46200000Y-82600000D01*
X58450000Y-81850000D02*
X46950000Y-81850000D01*
X58450000Y-82600000D02*
X58450000Y-81850000D01*
X46950000Y-82600000D02*
X58450000Y-82600000D01*
X46950000Y-81850000D02*
X46950000Y-82600000D01*
G04 #@! TO.C,To LED*
X123850000Y-81850000D02*
X123850000Y-82600000D01*
X123850000Y-82600000D02*
X135350000Y-82600000D01*
X135350000Y-82600000D02*
X135350000Y-81850000D01*
X135350000Y-81850000D02*
X123850000Y-81850000D01*
X123100000Y-80990000D02*
X123100000Y-82600000D01*
X123100000Y-82600000D02*
X122350000Y-82600000D01*
X122350000Y-82600000D02*
X122350000Y-81850000D01*
X122350000Y-81850000D02*
X117350000Y-81850000D01*
X117350000Y-81850000D02*
X117350000Y-88650000D01*
X117350000Y-88650000D02*
X129600000Y-88650000D01*
X136100000Y-80990000D02*
X136100000Y-82600000D01*
X136100000Y-82600000D02*
X136850000Y-82600000D01*
X136850000Y-82600000D02*
X136850000Y-81850000D01*
X136850000Y-81850000D02*
X141850000Y-81850000D01*
X141850000Y-81850000D02*
X141850000Y-88650000D01*
X141850000Y-88650000D02*
X129600000Y-88650000D01*
X116490000Y-80990000D02*
X116490000Y-89510000D01*
X116490000Y-89510000D02*
X142710000Y-89510000D01*
X142710000Y-89510000D02*
X142710000Y-80990000D01*
X142710000Y-80990000D02*
X116490000Y-80990000D01*
X116290000Y-85000000D02*
X115690000Y-85300000D01*
X115690000Y-85300000D02*
X115690000Y-84700000D01*
X115690000Y-84700000D02*
X116290000Y-85000000D01*
G04 #@! TO.C,LED 5*
X47790000Y-43880000D02*
X47790000Y-63120000D01*
X42750000Y-43880000D02*
X42750000Y-63120000D01*
X47790000Y-43880000D02*
X42750000Y-43880000D01*
X47790000Y-63120000D02*
X42750000Y-63120000D01*
X46570000Y-42360000D02*
X46570000Y-43879000D01*
X43970000Y-42360000D02*
X43970000Y-43879000D01*
X46570000Y-42360000D02*
X43970000Y-42360000D01*
X46570000Y-43879000D02*
X43970000Y-43879000D01*
X45270000Y-42360000D02*
X45270000Y-43119000D01*
G04 #@! TO.C,LED 6*
X51270000Y-42360000D02*
X51270000Y-43119000D01*
X52570000Y-43879000D02*
X49970000Y-43879000D01*
X52570000Y-42360000D02*
X49970000Y-42360000D01*
X49970000Y-42360000D02*
X49970000Y-43879000D01*
X52570000Y-42360000D02*
X52570000Y-43879000D01*
X53790000Y-63120000D02*
X48750000Y-63120000D01*
X53790000Y-43880000D02*
X48750000Y-43880000D01*
X48750000Y-43880000D02*
X48750000Y-63120000D01*
X53790000Y-43880000D02*
X53790000Y-63120000D01*
G04 #@! TO.C,LED 7*
X59790000Y-43880000D02*
X59790000Y-63120000D01*
X54750000Y-43880000D02*
X54750000Y-63120000D01*
X59790000Y-43880000D02*
X54750000Y-43880000D01*
X59790000Y-63120000D02*
X54750000Y-63120000D01*
X58570000Y-42360000D02*
X58570000Y-43879000D01*
X55970000Y-42360000D02*
X55970000Y-43879000D01*
X58570000Y-42360000D02*
X55970000Y-42360000D01*
X58570000Y-43879000D02*
X55970000Y-43879000D01*
X57270000Y-42360000D02*
X57270000Y-43119000D01*
G04 #@! TO.C,LED 8*
X63270000Y-42360000D02*
X63270000Y-43119000D01*
X64570000Y-43879000D02*
X61970000Y-43879000D01*
X64570000Y-42360000D02*
X61970000Y-42360000D01*
X61970000Y-42360000D02*
X61970000Y-43879000D01*
X64570000Y-42360000D02*
X64570000Y-43879000D01*
X65790000Y-63120000D02*
X60750000Y-63120000D01*
X65790000Y-43880000D02*
X60750000Y-43880000D01*
X60750000Y-43880000D02*
X60750000Y-63120000D01*
X65790000Y-43880000D02*
X65790000Y-63120000D01*
G04 #@! TO.C,LED 9*
X71790000Y-43880000D02*
X71790000Y-63120000D01*
X66750000Y-43880000D02*
X66750000Y-63120000D01*
X71790000Y-43880000D02*
X66750000Y-43880000D01*
X71790000Y-63120000D02*
X66750000Y-63120000D01*
X70570000Y-42360000D02*
X70570000Y-43879000D01*
X67970000Y-42360000D02*
X67970000Y-43879000D01*
X70570000Y-42360000D02*
X67970000Y-42360000D01*
X70570000Y-43879000D02*
X67970000Y-43879000D01*
X69270000Y-42360000D02*
X69270000Y-43119000D01*
G04 #@! TO.C,LED 10*
X75270000Y-42360000D02*
X75270000Y-43119000D01*
X76570000Y-43879000D02*
X73970000Y-43879000D01*
X76570000Y-42360000D02*
X73970000Y-42360000D01*
X73970000Y-42360000D02*
X73970000Y-43879000D01*
X76570000Y-42360000D02*
X76570000Y-43879000D01*
X77790000Y-63120000D02*
X72750000Y-63120000D01*
X77790000Y-43880000D02*
X72750000Y-43880000D01*
X72750000Y-43880000D02*
X72750000Y-63120000D01*
X77790000Y-43880000D02*
X77790000Y-63120000D01*
G04 #@! TO.C, LED 11*
X83790000Y-43880000D02*
X83790000Y-63120000D01*
X78750000Y-43880000D02*
X78750000Y-63120000D01*
X83790000Y-43880000D02*
X78750000Y-43880000D01*
X83790000Y-63120000D02*
X78750000Y-63120000D01*
X82570000Y-42360000D02*
X82570000Y-43879000D01*
X79970000Y-42360000D02*
X79970000Y-43879000D01*
X82570000Y-42360000D02*
X79970000Y-42360000D01*
X82570000Y-43879000D02*
X79970000Y-43879000D01*
X81270000Y-42360000D02*
X81270000Y-43119000D01*
G04 #@! TO.C,LED 12*
X89790000Y-43880000D02*
X89790000Y-63120000D01*
X84750000Y-43880000D02*
X84750000Y-63120000D01*
X89790000Y-43880000D02*
X84750000Y-43880000D01*
X89790000Y-63120000D02*
X84750000Y-63120000D01*
X88570000Y-42360000D02*
X88570000Y-43879000D01*
X85970000Y-42360000D02*
X85970000Y-43879000D01*
X88570000Y-42360000D02*
X85970000Y-42360000D01*
X88570000Y-43879000D02*
X85970000Y-43879000D01*
X87270000Y-42360000D02*
X87270000Y-43119000D01*
G04 #@! TO.C,LED 13*
X95790000Y-43880000D02*
X95790000Y-63120000D01*
X90750000Y-43880000D02*
X90750000Y-63120000D01*
X95790000Y-43880000D02*
X90750000Y-43880000D01*
X95790000Y-63120000D02*
X90750000Y-63120000D01*
X94570000Y-42360000D02*
X94570000Y-43879000D01*
X91970000Y-42360000D02*
X91970000Y-43879000D01*
X94570000Y-42360000D02*
X91970000Y-42360000D01*
X94570000Y-43879000D02*
X91970000Y-43879000D01*
X93270000Y-42360000D02*
X93270000Y-43119000D01*
G04 #@! TO.C,LED 14*
X99270000Y-42360000D02*
X99270000Y-43119000D01*
X100570000Y-43879000D02*
X97970000Y-43879000D01*
X100570000Y-42360000D02*
X97970000Y-42360000D01*
X97970000Y-42360000D02*
X97970000Y-43879000D01*
X100570000Y-42360000D02*
X100570000Y-43879000D01*
X101790000Y-63120000D02*
X96750000Y-63120000D01*
X101790000Y-43880000D02*
X96750000Y-43880000D01*
X96750000Y-43880000D02*
X96750000Y-63120000D01*
X101790000Y-43880000D02*
X101790000Y-63120000D01*
G04 #@! TO.C,LED 15*
X107790000Y-43880000D02*
X107790000Y-63120000D01*
X102750000Y-43880000D02*
X102750000Y-63120000D01*
X107790000Y-43880000D02*
X102750000Y-43880000D01*
X107790000Y-63120000D02*
X102750000Y-63120000D01*
X106570000Y-42360000D02*
X106570000Y-43879000D01*
X103970000Y-42360000D02*
X103970000Y-43879000D01*
X106570000Y-42360000D02*
X103970000Y-42360000D01*
X106570000Y-43879000D02*
X103970000Y-43879000D01*
X105270000Y-42360000D02*
X105270000Y-43119000D01*
G04 #@! TO.C,LED 16*
X111270000Y-42360000D02*
X111270000Y-43119000D01*
X112570000Y-43879000D02*
X109970000Y-43879000D01*
X112570000Y-42360000D02*
X109970000Y-42360000D01*
X109970000Y-42360000D02*
X109970000Y-43879000D01*
X112570000Y-42360000D02*
X112570000Y-43879000D01*
X113790000Y-63120000D02*
X108750000Y-63120000D01*
X113790000Y-43880000D02*
X108750000Y-43880000D01*
X108750000Y-43880000D02*
X108750000Y-63120000D01*
X113790000Y-43880000D02*
X113790000Y-63120000D01*
G04 #@! TO.C,LED 17*
X119790000Y-43880000D02*
X119790000Y-63120000D01*
X114750000Y-43880000D02*
X114750000Y-63120000D01*
X119790000Y-43880000D02*
X114750000Y-43880000D01*
X119790000Y-63120000D02*
X114750000Y-63120000D01*
X118570000Y-42360000D02*
X118570000Y-43879000D01*
X115970000Y-42360000D02*
X115970000Y-43879000D01*
X118570000Y-42360000D02*
X115970000Y-42360000D01*
X118570000Y-43879000D02*
X115970000Y-43879000D01*
X117270000Y-42360000D02*
X117270000Y-43119000D01*
G04 #@! TO.C,LED 18*
X123270000Y-42360000D02*
X123270000Y-43119000D01*
X124570000Y-43879000D02*
X121970000Y-43879000D01*
X124570000Y-42360000D02*
X121970000Y-42360000D01*
X121970000Y-42360000D02*
X121970000Y-43879000D01*
X124570000Y-42360000D02*
X124570000Y-43879000D01*
X125790000Y-63120000D02*
X120750000Y-63120000D01*
X125790000Y-43880000D02*
X120750000Y-43880000D01*
X120750000Y-43880000D02*
X120750000Y-63120000D01*
X125790000Y-43880000D02*
X125790000Y-63120000D01*
G04 #@! TO.C,LED 19*
X131790000Y-43880000D02*
X131790000Y-63120000D01*
X126750000Y-43880000D02*
X126750000Y-63120000D01*
X131790000Y-43880000D02*
X126750000Y-43880000D01*
X131790000Y-63120000D02*
X126750000Y-63120000D01*
X130570000Y-42360000D02*
X130570000Y-43879000D01*
X127970000Y-42360000D02*
X127970000Y-43879000D01*
X130570000Y-42360000D02*
X127970000Y-42360000D01*
X130570000Y-43879000D02*
X127970000Y-43879000D01*
X129270000Y-42360000D02*
X129270000Y-43119000D01*
G04 #@! TO.C,LED 20*
X135270000Y-42360000D02*
X135270000Y-43119000D01*
X136570000Y-43879000D02*
X133970000Y-43879000D01*
X136570000Y-42360000D02*
X133970000Y-42360000D01*
X133970000Y-42360000D02*
X133970000Y-43879000D01*
X136570000Y-42360000D02*
X136570000Y-43879000D01*
X137790000Y-63120000D02*
X132750000Y-63120000D01*
X137790000Y-43880000D02*
X132750000Y-43880000D01*
X132750000Y-43880000D02*
X132750000Y-63120000D01*
X137790000Y-43880000D02*
X137790000Y-63120000D01*
G04 #@! TO.C,LED 21*
X143790000Y-43880000D02*
X143790000Y-63120000D01*
X138750000Y-43880000D02*
X138750000Y-63120000D01*
X143790000Y-43880000D02*
X138750000Y-43880000D01*
X143790000Y-63120000D02*
X138750000Y-63120000D01*
X142570000Y-42360000D02*
X142570000Y-43879000D01*
X139970000Y-42360000D02*
X139970000Y-43879000D01*
X142570000Y-42360000D02*
X139970000Y-42360000D01*
X142570000Y-43879000D02*
X139970000Y-43879000D01*
X141270000Y-42360000D02*
X141270000Y-43119000D01*
G04 #@! TO.C,LED 22*
X147270000Y-42360000D02*
X147270000Y-43119000D01*
X148570000Y-43879000D02*
X145970000Y-43879000D01*
X148570000Y-42360000D02*
X145970000Y-42360000D01*
X145970000Y-42360000D02*
X145970000Y-43879000D01*
X148570000Y-42360000D02*
X148570000Y-43879000D01*
X149790000Y-63120000D02*
X144750000Y-63120000D01*
X149790000Y-43880000D02*
X144750000Y-43880000D01*
X144750000Y-43880000D02*
X144750000Y-63120000D01*
X149790000Y-43880000D02*
X149790000Y-63120000D01*
G04 #@! TO.C,LED 23*
X155790000Y-43880000D02*
X155790000Y-63120000D01*
X150750000Y-43880000D02*
X150750000Y-63120000D01*
X155790000Y-43880000D02*
X150750000Y-43880000D01*
X155790000Y-63120000D02*
X150750000Y-63120000D01*
X154570000Y-42360000D02*
X154570000Y-43879000D01*
X151970000Y-42360000D02*
X151970000Y-43879000D01*
X154570000Y-42360000D02*
X151970000Y-42360000D01*
X154570000Y-43879000D02*
X151970000Y-43879000D01*
X153270000Y-42360000D02*
X153270000Y-43119000D01*
G04 #@! TO.C,LED 24*
X159270000Y-42360000D02*
X159270000Y-43119000D01*
X160570000Y-43879000D02*
X157970000Y-43879000D01*
X160570000Y-42360000D02*
X157970000Y-42360000D01*
X157970000Y-42360000D02*
X157970000Y-43879000D01*
X160570000Y-42360000D02*
X160570000Y-43879000D01*
X161790000Y-63120000D02*
X156750000Y-63120000D01*
X161790000Y-43880000D02*
X156750000Y-43880000D01*
X156750000Y-43880000D02*
X156750000Y-63120000D01*
X161790000Y-43880000D02*
X161790000Y-63120000D01*
D13*
G04 #@! TO.C,G\002A\002A\002A*
G36*
X75202773Y-75067885D02*
X75462998Y-75213069D01*
X75656409Y-75427056D01*
X75777020Y-75687114D01*
X75818843Y-75970512D01*
X75775890Y-76254518D01*
X75642175Y-76516399D01*
X75411711Y-76733425D01*
X75345250Y-76774123D01*
X75047067Y-76894034D01*
X74760664Y-76899319D01*
X74454181Y-76792144D01*
X74190529Y-76603764D01*
X74028703Y-76345858D01*
X73963685Y-76009663D01*
X73961857Y-75932137D01*
X74015495Y-75584488D01*
X74168956Y-75309698D01*
X74411057Y-75118926D01*
X74730616Y-75023330D01*
X74881721Y-75014237D01*
X75202773Y-75067885D01*
X75202773Y-75067885D01*
G37*
X75202773Y-75067885D02*
X75462998Y-75213069D01*
X75656409Y-75427056D01*
X75777020Y-75687114D01*
X75818843Y-75970512D01*
X75775890Y-76254518D01*
X75642175Y-76516399D01*
X75411711Y-76733425D01*
X75345250Y-76774123D01*
X75047067Y-76894034D01*
X74760664Y-76899319D01*
X74454181Y-76792144D01*
X74190529Y-76603764D01*
X74028703Y-76345858D01*
X73963685Y-76009663D01*
X73961857Y-75932137D01*
X74015495Y-75584488D01*
X74168956Y-75309698D01*
X74411057Y-75118926D01*
X74730616Y-75023330D01*
X74881721Y-75014237D01*
X75202773Y-75067885D01*
G36*
X103247860Y-75362482D02*
X103537683Y-75486346D01*
X103774184Y-75708969D01*
X103805674Y-75754080D01*
X103848874Y-75837077D01*
X103881051Y-75948822D01*
X103904354Y-76109457D01*
X103920928Y-76339128D01*
X103932922Y-76657978D01*
X103941370Y-77027111D01*
X103962490Y-78125500D01*
X103063000Y-78125500D01*
X103063000Y-77341225D01*
X103057667Y-77019396D01*
X103043158Y-76727367D01*
X103021707Y-76497842D01*
X102996339Y-76365728D01*
X102879309Y-76176303D01*
X102709711Y-76084079D01*
X102515638Y-76102795D01*
X102485950Y-76116122D01*
X102367122Y-76194911D01*
X102282048Y-76307602D01*
X102225532Y-76474240D01*
X102192378Y-76714868D01*
X102177388Y-77049529D01*
X102174936Y-77315875D01*
X102174000Y-78125500D01*
X101285000Y-78125500D01*
X101285000Y-75395000D01*
X101729500Y-75395000D01*
X101961629Y-75397041D01*
X102094467Y-75410224D01*
X102155723Y-75445134D01*
X102173103Y-75512356D01*
X102174000Y-75564818D01*
X102174000Y-75734637D01*
X102316875Y-75608687D01*
X102611614Y-75421129D01*
X102930556Y-75339902D01*
X103247860Y-75362482D01*
X103247860Y-75362482D01*
G37*
X103247860Y-75362482D02*
X103537683Y-75486346D01*
X103774184Y-75708969D01*
X103805674Y-75754080D01*
X103848874Y-75837077D01*
X103881051Y-75948822D01*
X103904354Y-76109457D01*
X103920928Y-76339128D01*
X103932922Y-76657978D01*
X103941370Y-77027111D01*
X103962490Y-78125500D01*
X103063000Y-78125500D01*
X103063000Y-77341225D01*
X103057667Y-77019396D01*
X103043158Y-76727367D01*
X103021707Y-76497842D01*
X102996339Y-76365728D01*
X102879309Y-76176303D01*
X102709711Y-76084079D01*
X102515638Y-76102795D01*
X102485950Y-76116122D01*
X102367122Y-76194911D01*
X102282048Y-76307602D01*
X102225532Y-76474240D01*
X102192378Y-76714868D01*
X102177388Y-77049529D01*
X102174936Y-77315875D01*
X102174000Y-78125500D01*
X101285000Y-78125500D01*
X101285000Y-75395000D01*
X101729500Y-75395000D01*
X101961629Y-75397041D01*
X102094467Y-75410224D01*
X102155723Y-75445134D01*
X102173103Y-75512356D01*
X102174000Y-75564818D01*
X102174000Y-75734637D01*
X102316875Y-75608687D01*
X102611614Y-75421129D01*
X102930556Y-75339902D01*
X103247860Y-75362482D01*
G36*
X89839125Y-74325561D02*
X90223099Y-74335884D01*
X90504277Y-74348413D01*
X90706853Y-74366573D01*
X90855024Y-74393786D01*
X90972987Y-74433478D01*
X91084939Y-74489072D01*
X91115350Y-74506156D01*
X91375232Y-74703982D01*
X91522576Y-74946115D01*
X91569496Y-75252540D01*
X91569500Y-75255456D01*
X91519236Y-75518434D01*
X91387515Y-75770541D01*
X91202938Y-75962905D01*
X91128965Y-76008167D01*
X90977992Y-76083435D01*
X91194371Y-76174953D01*
X91460943Y-76348044D01*
X91638499Y-76588403D01*
X91726425Y-76872116D01*
X91724107Y-77175268D01*
X91630928Y-77473944D01*
X91446276Y-77744230D01*
X91239204Y-77919395D01*
X91138020Y-77983425D01*
X91042567Y-78029965D01*
X90930380Y-78062316D01*
X90778992Y-78083778D01*
X90565937Y-78097649D01*
X90268748Y-78107230D01*
X89907475Y-78114977D01*
X88839000Y-78136204D01*
X88839000Y-76538000D01*
X89791500Y-76538000D01*
X89791500Y-77427000D01*
X90140750Y-77427000D01*
X90381228Y-77412366D01*
X90537718Y-77361284D01*
X90617000Y-77300000D01*
X90737281Y-77112137D01*
X90745732Y-76923096D01*
X90655778Y-76752678D01*
X90480843Y-76620686D01*
X90234351Y-76546924D01*
X90100436Y-76538000D01*
X89791500Y-76538000D01*
X88839000Y-76538000D01*
X88839000Y-75014000D01*
X89791500Y-75014000D01*
X89791500Y-75839500D01*
X90072641Y-75839500D01*
X90273780Y-75822719D01*
X90405665Y-75757506D01*
X90485391Y-75672186D01*
X90594103Y-75496626D01*
X90596479Y-75352808D01*
X90490557Y-75200126D01*
X90461136Y-75169863D01*
X90286289Y-75050591D01*
X90059232Y-75014047D01*
X90048386Y-75014000D01*
X89791500Y-75014000D01*
X88839000Y-75014000D01*
X88839000Y-74302193D01*
X89839125Y-74325561D01*
X89839125Y-74325561D01*
G37*
X89839125Y-74325561D02*
X90223099Y-74335884D01*
X90504277Y-74348413D01*
X90706853Y-74366573D01*
X90855024Y-74393786D01*
X90972987Y-74433478D01*
X91084939Y-74489072D01*
X91115350Y-74506156D01*
X91375232Y-74703982D01*
X91522576Y-74946115D01*
X91569496Y-75252540D01*
X91569500Y-75255456D01*
X91519236Y-75518434D01*
X91387515Y-75770541D01*
X91202938Y-75962905D01*
X91128965Y-76008167D01*
X90977992Y-76083435D01*
X91194371Y-76174953D01*
X91460943Y-76348044D01*
X91638499Y-76588403D01*
X91726425Y-76872116D01*
X91724107Y-77175268D01*
X91630928Y-77473944D01*
X91446276Y-77744230D01*
X91239204Y-77919395D01*
X91138020Y-77983425D01*
X91042567Y-78029965D01*
X90930380Y-78062316D01*
X90778992Y-78083778D01*
X90565937Y-78097649D01*
X90268748Y-78107230D01*
X89907475Y-78114977D01*
X88839000Y-78136204D01*
X88839000Y-76538000D01*
X89791500Y-76538000D01*
X89791500Y-77427000D01*
X90140750Y-77427000D01*
X90381228Y-77412366D01*
X90537718Y-77361284D01*
X90617000Y-77300000D01*
X90737281Y-77112137D01*
X90745732Y-76923096D01*
X90655778Y-76752678D01*
X90480843Y-76620686D01*
X90234351Y-76546924D01*
X90100436Y-76538000D01*
X89791500Y-76538000D01*
X88839000Y-76538000D01*
X88839000Y-75014000D01*
X89791500Y-75014000D01*
X89791500Y-75839500D01*
X90072641Y-75839500D01*
X90273780Y-75822719D01*
X90405665Y-75757506D01*
X90485391Y-75672186D01*
X90594103Y-75496626D01*
X90596479Y-75352808D01*
X90490557Y-75200126D01*
X90461136Y-75169863D01*
X90286289Y-75050591D01*
X90059232Y-75014047D01*
X90048386Y-75014000D01*
X89791500Y-75014000D01*
X88839000Y-75014000D01*
X88839000Y-74302193D01*
X89839125Y-74325561D01*
G36*
X109159000Y-75718963D02*
X109383926Y-75547403D01*
X109668012Y-75400876D01*
X109989836Y-75346014D01*
X110316898Y-75377817D01*
X110616697Y-75491281D01*
X110856733Y-75681403D01*
X110933766Y-75785947D01*
X111082828Y-76139755D01*
X111151353Y-76550916D01*
X111140032Y-76979153D01*
X111049557Y-77384193D01*
X110901013Y-77695620D01*
X110666965Y-77944950D01*
X110362567Y-78110986D01*
X110019537Y-78186008D01*
X109669593Y-78162297D01*
X109396184Y-78061876D01*
X109245885Y-77988656D01*
X109175767Y-77980268D01*
X109159000Y-78030126D01*
X109117208Y-78096410D01*
X108978536Y-78123747D01*
X108905000Y-78125500D01*
X108651000Y-78125500D01*
X108651000Y-76787722D01*
X109190750Y-76787722D01*
X109190750Y-76798429D01*
X109192456Y-77071993D01*
X109203454Y-77250912D01*
X109232564Y-77367539D01*
X109288604Y-77454229D01*
X109380393Y-77543334D01*
X109398126Y-77559208D01*
X109654466Y-77710653D01*
X109939349Y-77742094D01*
X110233090Y-77652047D01*
X110418927Y-77490136D01*
X110556453Y-77240382D01*
X110636301Y-76935824D01*
X110649098Y-76609501D01*
X110602828Y-76348304D01*
X110466289Y-76070500D01*
X110261885Y-75884213D01*
X110014226Y-75795956D01*
X109747919Y-75812244D01*
X109487577Y-75939591D01*
X109387179Y-76026512D01*
X109294010Y-76125797D01*
X109236218Y-76218414D01*
X109205367Y-76337508D01*
X109193023Y-76516229D01*
X109190750Y-76787722D01*
X108651000Y-76787722D01*
X108651000Y-74125000D01*
X109159000Y-74125000D01*
X109159000Y-75718963D01*
X109159000Y-75718963D01*
G37*
X109159000Y-75718963D02*
X109383926Y-75547403D01*
X109668012Y-75400876D01*
X109989836Y-75346014D01*
X110316898Y-75377817D01*
X110616697Y-75491281D01*
X110856733Y-75681403D01*
X110933766Y-75785947D01*
X111082828Y-76139755D01*
X111151353Y-76550916D01*
X111140032Y-76979153D01*
X111049557Y-77384193D01*
X110901013Y-77695620D01*
X110666965Y-77944950D01*
X110362567Y-78110986D01*
X110019537Y-78186008D01*
X109669593Y-78162297D01*
X109396184Y-78061876D01*
X109245885Y-77988656D01*
X109175767Y-77980268D01*
X109159000Y-78030126D01*
X109117208Y-78096410D01*
X108978536Y-78123747D01*
X108905000Y-78125500D01*
X108651000Y-78125500D01*
X108651000Y-76787722D01*
X109190750Y-76787722D01*
X109190750Y-76798429D01*
X109192456Y-77071993D01*
X109203454Y-77250912D01*
X109232564Y-77367539D01*
X109288604Y-77454229D01*
X109380393Y-77543334D01*
X109398126Y-77559208D01*
X109654466Y-77710653D01*
X109939349Y-77742094D01*
X110233090Y-77652047D01*
X110418927Y-77490136D01*
X110556453Y-77240382D01*
X110636301Y-76935824D01*
X110649098Y-76609501D01*
X110602828Y-76348304D01*
X110466289Y-76070500D01*
X110261885Y-75884213D01*
X110014226Y-75795956D01*
X109747919Y-75812244D01*
X109487577Y-75939591D01*
X109387179Y-76026512D01*
X109294010Y-76125797D01*
X109236218Y-76218414D01*
X109205367Y-76337508D01*
X109193023Y-76516229D01*
X109190750Y-76787722D01*
X108651000Y-76787722D01*
X108651000Y-74125000D01*
X109159000Y-74125000D01*
X109159000Y-75718963D01*
G36*
X107214895Y-75368508D02*
X107411738Y-75430526D01*
X107570356Y-75515885D01*
X107689603Y-75613345D01*
X107775003Y-75741432D01*
X107832082Y-75918670D01*
X107866364Y-76163587D01*
X107883373Y-76494707D01*
X107888634Y-76930557D01*
X107888762Y-77030125D01*
X107889000Y-78125500D01*
X107635000Y-78125500D01*
X107468544Y-78114676D01*
X107395047Y-78071371D01*
X107381000Y-78000413D01*
X107373326Y-77928401D01*
X107331526Y-77920355D01*
X107227433Y-77980145D01*
X107149888Y-78032163D01*
X106863800Y-78157032D01*
X106537552Y-78191918D01*
X106220223Y-78135487D01*
X106061792Y-78061733D01*
X105863238Y-77885312D01*
X105756743Y-77644282D01*
X105730988Y-77375774D01*
X106238972Y-77375774D01*
X106291958Y-77555265D01*
X106433609Y-77678699D01*
X106634477Y-77736690D01*
X106865112Y-77719854D01*
X107064166Y-77638755D01*
X107267134Y-77450183D01*
X107368995Y-77186887D01*
X107381000Y-77036777D01*
X107381000Y-76843030D01*
X106984125Y-76888292D01*
X106654608Y-76939934D01*
X106433719Y-77013772D01*
X106303515Y-77121543D01*
X106246054Y-77274984D01*
X106238972Y-77375774D01*
X105730988Y-77375774D01*
X105730936Y-77375241D01*
X105772652Y-77082466D01*
X105901277Y-76852206D01*
X106125941Y-76677052D01*
X106455777Y-76549593D01*
X106846498Y-76470071D01*
X107392444Y-76388848D01*
X107354781Y-76193549D01*
X107258642Y-75964096D01*
X107084132Y-75826895D01*
X106843260Y-75784978D01*
X106548036Y-75841373D01*
X106328136Y-75934484D01*
X106153923Y-76021579D01*
X106033686Y-76079257D01*
X105999875Y-76093234D01*
X105989980Y-76036956D01*
X105984433Y-75895865D01*
X105984000Y-75836259D01*
X105995502Y-75665123D01*
X106053096Y-75567123D01*
X106191411Y-75489952D01*
X106222125Y-75476568D01*
X106545824Y-75378998D01*
X106892702Y-75342361D01*
X107214895Y-75368508D01*
X107214895Y-75368508D01*
G37*
X107214895Y-75368508D02*
X107411738Y-75430526D01*
X107570356Y-75515885D01*
X107689603Y-75613345D01*
X107775003Y-75741432D01*
X107832082Y-75918670D01*
X107866364Y-76163587D01*
X107883373Y-76494707D01*
X107888634Y-76930557D01*
X107888762Y-77030125D01*
X107889000Y-78125500D01*
X107635000Y-78125500D01*
X107468544Y-78114676D01*
X107395047Y-78071371D01*
X107381000Y-78000413D01*
X107373326Y-77928401D01*
X107331526Y-77920355D01*
X107227433Y-77980145D01*
X107149888Y-78032163D01*
X106863800Y-78157032D01*
X106537552Y-78191918D01*
X106220223Y-78135487D01*
X106061792Y-78061733D01*
X105863238Y-77885312D01*
X105756743Y-77644282D01*
X105730988Y-77375774D01*
X106238972Y-77375774D01*
X106291958Y-77555265D01*
X106433609Y-77678699D01*
X106634477Y-77736690D01*
X106865112Y-77719854D01*
X107064166Y-77638755D01*
X107267134Y-77450183D01*
X107368995Y-77186887D01*
X107381000Y-77036777D01*
X107381000Y-76843030D01*
X106984125Y-76888292D01*
X106654608Y-76939934D01*
X106433719Y-77013772D01*
X106303515Y-77121543D01*
X106246054Y-77274984D01*
X106238972Y-77375774D01*
X105730988Y-77375774D01*
X105730936Y-77375241D01*
X105772652Y-77082466D01*
X105901277Y-76852206D01*
X106125941Y-76677052D01*
X106455777Y-76549593D01*
X106846498Y-76470071D01*
X107392444Y-76388848D01*
X107354781Y-76193549D01*
X107258642Y-75964096D01*
X107084132Y-75826895D01*
X106843260Y-75784978D01*
X106548036Y-75841373D01*
X106328136Y-75934484D01*
X106153923Y-76021579D01*
X106033686Y-76079257D01*
X105999875Y-76093234D01*
X105989980Y-76036956D01*
X105984433Y-75895865D01*
X105984000Y-75836259D01*
X105995502Y-75665123D01*
X106053096Y-75567123D01*
X106191411Y-75489952D01*
X106222125Y-75476568D01*
X106545824Y-75378998D01*
X106892702Y-75342361D01*
X107214895Y-75368508D01*
G36*
X105031500Y-74125000D02*
X105031500Y-75826800D01*
X105032054Y-76359940D01*
X105035329Y-76779645D01*
X105043739Y-77099482D01*
X105059701Y-77333016D01*
X105085630Y-77493811D01*
X105123942Y-77595434D01*
X105177052Y-77651450D01*
X105247378Y-77675424D01*
X105337333Y-77680922D01*
X105361700Y-77681000D01*
X105482690Y-77695450D01*
X105531299Y-77764533D01*
X105539500Y-77896456D01*
X105514753Y-78062053D01*
X105424264Y-78152706D01*
X105243657Y-78186928D01*
X105154308Y-78189000D01*
X104957065Y-78136075D01*
X104762626Y-78003798D01*
X104555250Y-77818597D01*
X104535798Y-75971798D01*
X104516347Y-74124999D01*
X104773923Y-74124999D01*
X105031500Y-74125000D01*
X105031500Y-74125000D01*
G37*
X105031500Y-74125000D02*
X105031500Y-75826800D01*
X105032054Y-76359940D01*
X105035329Y-76779645D01*
X105043739Y-77099482D01*
X105059701Y-77333016D01*
X105085630Y-77493811D01*
X105123942Y-77595434D01*
X105177052Y-77651450D01*
X105247378Y-77675424D01*
X105337333Y-77680922D01*
X105361700Y-77681000D01*
X105482690Y-77695450D01*
X105531299Y-77764533D01*
X105539500Y-77896456D01*
X105514753Y-78062053D01*
X105424264Y-78152706D01*
X105243657Y-78186928D01*
X105154308Y-78189000D01*
X104957065Y-78136075D01*
X104762626Y-78003798D01*
X104555250Y-77818597D01*
X104535798Y-75971798D01*
X104516347Y-74124999D01*
X104773923Y-74124999D01*
X105031500Y-74125000D01*
G36*
X99874961Y-75355850D02*
X100185425Y-75454909D01*
X100469627Y-75641346D01*
X100668752Y-75908476D01*
X100788056Y-76265450D01*
X100826755Y-76571588D01*
X100857201Y-77046000D01*
X99122738Y-77046000D01*
X99218514Y-77231210D01*
X99376861Y-77408328D01*
X99612957Y-77509615D01*
X99900186Y-77531614D01*
X100211936Y-77470863D01*
X100412948Y-77386485D01*
X100593035Y-77293358D01*
X100573892Y-77656414D01*
X100558543Y-77863328D01*
X100526627Y-77981062D01*
X100457571Y-78047372D01*
X100332500Y-78099404D01*
X100109283Y-78148724D01*
X99814894Y-78173577D01*
X99499366Y-78173758D01*
X99212732Y-78149063D01*
X99019171Y-78104794D01*
X98711966Y-77927655D01*
X98474087Y-77660762D01*
X98313239Y-77325411D01*
X98237131Y-76942897D01*
X98253469Y-76534517D01*
X98285787Y-76406825D01*
X99189500Y-76406825D01*
X99249217Y-76444918D01*
X99414201Y-76468467D01*
X99602250Y-76474500D01*
X99812436Y-76466009D01*
X99961097Y-76443794D01*
X100015000Y-76413987D01*
X99973823Y-76256863D01*
X99875629Y-76103568D01*
X99758425Y-76011586D01*
X99746444Y-76007794D01*
X99546548Y-76011011D01*
X99360896Y-76103005D01*
X99229254Y-76255286D01*
X99189500Y-76406825D01*
X98285787Y-76406825D01*
X98334716Y-76213508D01*
X98518480Y-75869680D01*
X98787093Y-75602693D01*
X99117849Y-75421854D01*
X99488040Y-75336471D01*
X99874961Y-75355850D01*
X99874961Y-75355850D01*
G37*
X99874961Y-75355850D02*
X100185425Y-75454909D01*
X100469627Y-75641346D01*
X100668752Y-75908476D01*
X100788056Y-76265450D01*
X100826755Y-76571588D01*
X100857201Y-77046000D01*
X99122738Y-77046000D01*
X99218514Y-77231210D01*
X99376861Y-77408328D01*
X99612957Y-77509615D01*
X99900186Y-77531614D01*
X100211936Y-77470863D01*
X100412948Y-77386485D01*
X100593035Y-77293358D01*
X100573892Y-77656414D01*
X100558543Y-77863328D01*
X100526627Y-77981062D01*
X100457571Y-78047372D01*
X100332500Y-78099404D01*
X100109283Y-78148724D01*
X99814894Y-78173577D01*
X99499366Y-78173758D01*
X99212732Y-78149063D01*
X99019171Y-78104794D01*
X98711966Y-77927655D01*
X98474087Y-77660762D01*
X98313239Y-77325411D01*
X98237131Y-76942897D01*
X98253469Y-76534517D01*
X98285787Y-76406825D01*
X99189500Y-76406825D01*
X99249217Y-76444918D01*
X99414201Y-76468467D01*
X99602250Y-76474500D01*
X99812436Y-76466009D01*
X99961097Y-76443794D01*
X100015000Y-76413987D01*
X99973823Y-76256863D01*
X99875629Y-76103568D01*
X99758425Y-76011586D01*
X99746444Y-76007794D01*
X99546548Y-76011011D01*
X99360896Y-76103005D01*
X99229254Y-76255286D01*
X99189500Y-76406825D01*
X98285787Y-76406825D01*
X98334716Y-76213508D01*
X98518480Y-75869680D01*
X98787093Y-75602693D01*
X99117849Y-75421854D01*
X99488040Y-75336471D01*
X99874961Y-75355850D01*
G36*
X97792500Y-78125500D02*
X97316250Y-78125500D01*
X97065718Y-78120638D01*
X96918624Y-78102906D01*
X96851668Y-78067579D01*
X96840000Y-78028959D01*
X96822614Y-77977734D01*
X96752395Y-77984853D01*
X96602246Y-78053734D01*
X96588529Y-78060709D01*
X96246328Y-78170462D01*
X95883562Y-78176128D01*
X95543361Y-78078316D01*
X95479513Y-78045080D01*
X95223264Y-77841145D01*
X95050840Y-77562970D01*
X94957006Y-77198996D01*
X94942604Y-76966269D01*
X95827137Y-76966269D01*
X95850187Y-77101210D01*
X95922314Y-77213270D01*
X96001980Y-77297249D01*
X96194110Y-77446681D01*
X96370739Y-77478078D01*
X96559127Y-77392990D01*
X96636056Y-77333317D01*
X96788607Y-77136294D01*
X96866452Y-76889239D01*
X96871290Y-76627361D01*
X96804825Y-76385868D01*
X96668756Y-76199966D01*
X96578412Y-76140426D01*
X96340224Y-76079924D01*
X96135012Y-76135052D01*
X95974234Y-76296275D01*
X95869345Y-76554060D01*
X95837504Y-76757011D01*
X95827137Y-76966269D01*
X94942604Y-76966269D01*
X94935000Y-76843401D01*
X94977243Y-76386949D01*
X95099874Y-75999138D01*
X95296746Y-75697480D01*
X95359085Y-75635546D01*
X95611839Y-75471295D01*
X95913853Y-75370326D01*
X96223321Y-75339756D01*
X96498437Y-75386697D01*
X96586000Y-75426750D01*
X96716711Y-75493564D01*
X96792375Y-75519749D01*
X96811506Y-75461473D01*
X96826969Y-75301729D01*
X96837018Y-75066037D01*
X96840000Y-74823500D01*
X96840000Y-74125000D01*
X97792500Y-74125000D01*
X97792500Y-78125500D01*
X97792500Y-78125500D01*
G37*
X97792500Y-78125500D02*
X97316250Y-78125500D01*
X97065718Y-78120638D01*
X96918624Y-78102906D01*
X96851668Y-78067579D01*
X96840000Y-78028959D01*
X96822614Y-77977734D01*
X96752395Y-77984853D01*
X96602246Y-78053734D01*
X96588529Y-78060709D01*
X96246328Y-78170462D01*
X95883562Y-78176128D01*
X95543361Y-78078316D01*
X95479513Y-78045080D01*
X95223264Y-77841145D01*
X95050840Y-77562970D01*
X94957006Y-77198996D01*
X94942604Y-76966269D01*
X95827137Y-76966269D01*
X95850187Y-77101210D01*
X95922314Y-77213270D01*
X96001980Y-77297249D01*
X96194110Y-77446681D01*
X96370739Y-77478078D01*
X96559127Y-77392990D01*
X96636056Y-77333317D01*
X96788607Y-77136294D01*
X96866452Y-76889239D01*
X96871290Y-76627361D01*
X96804825Y-76385868D01*
X96668756Y-76199966D01*
X96578412Y-76140426D01*
X96340224Y-76079924D01*
X96135012Y-76135052D01*
X95974234Y-76296275D01*
X95869345Y-76554060D01*
X95837504Y-76757011D01*
X95827137Y-76966269D01*
X94942604Y-76966269D01*
X94935000Y-76843401D01*
X94977243Y-76386949D01*
X95099874Y-75999138D01*
X95296746Y-75697480D01*
X95359085Y-75635546D01*
X95611839Y-75471295D01*
X95913853Y-75370326D01*
X96223321Y-75339756D01*
X96498437Y-75386697D01*
X96586000Y-75426750D01*
X96716711Y-75493564D01*
X96792375Y-75519749D01*
X96811506Y-75461473D01*
X96826969Y-75301729D01*
X96837018Y-75066037D01*
X96840000Y-74823500D01*
X96840000Y-74125000D01*
X97792500Y-74125000D01*
X97792500Y-78125500D01*
G36*
X93599710Y-75362482D02*
X93942857Y-75475473D01*
X94207072Y-75687667D01*
X94347625Y-75900579D01*
X94403143Y-76021413D01*
X94442179Y-76143944D01*
X94467582Y-76293193D01*
X94482203Y-76494177D01*
X94488892Y-76771918D01*
X94490499Y-77151433D01*
X94490500Y-77154704D01*
X94490500Y-78125500D01*
X94046000Y-78125500D01*
X93803959Y-78119790D01*
X93665482Y-78099400D01*
X93607507Y-78059436D01*
X93601500Y-78031183D01*
X93582306Y-77980858D01*
X93507337Y-77999213D01*
X93395125Y-78062695D01*
X93124332Y-78163943D01*
X92808635Y-78187436D01*
X92503505Y-78133224D01*
X92345792Y-78061733D01*
X92154586Y-77895327D01*
X92049879Y-77671012D01*
X92023197Y-77367132D01*
X92029445Y-77253359D01*
X92037153Y-77212384D01*
X92839500Y-77212384D01*
X92889269Y-77361228D01*
X93007271Y-77491717D01*
X93146542Y-77553525D01*
X93158278Y-77554000D01*
X93281663Y-77516506D01*
X93429630Y-77425943D01*
X93434186Y-77422391D01*
X93574274Y-77247117D01*
X93601500Y-77104891D01*
X93583512Y-76971001D01*
X93507221Y-76922946D01*
X93440710Y-76919000D01*
X93244374Y-76946501D01*
X93052516Y-77016182D01*
X92904551Y-77108809D01*
X92839893Y-77205149D01*
X92839500Y-77212384D01*
X92037153Y-77212384D01*
X92081542Y-76976450D01*
X92197728Y-76765020D01*
X92393101Y-76607276D01*
X92682758Y-76491424D01*
X93081797Y-76405673D01*
X93123074Y-76399109D01*
X93374871Y-76350436D01*
X93541199Y-76298177D01*
X93601499Y-76248797D01*
X93601500Y-76248640D01*
X93545925Y-76130315D01*
X93398516Y-76053813D01*
X93188245Y-76021782D01*
X92944084Y-76036872D01*
X92695007Y-76101730D01*
X92575375Y-76154846D01*
X92418637Y-76233325D01*
X92315189Y-76279144D01*
X92297794Y-76284000D01*
X92281937Y-76226352D01*
X92271130Y-76076780D01*
X92268000Y-75910719D01*
X92268000Y-75537439D01*
X92677925Y-75434469D01*
X93177957Y-75348784D01*
X93599710Y-75362482D01*
X93599710Y-75362482D01*
G37*
X93599710Y-75362482D02*
X93942857Y-75475473D01*
X94207072Y-75687667D01*
X94347625Y-75900579D01*
X94403143Y-76021413D01*
X94442179Y-76143944D01*
X94467582Y-76293193D01*
X94482203Y-76494177D01*
X94488892Y-76771918D01*
X94490499Y-77151433D01*
X94490500Y-77154704D01*
X94490500Y-78125500D01*
X94046000Y-78125500D01*
X93803959Y-78119790D01*
X93665482Y-78099400D01*
X93607507Y-78059436D01*
X93601500Y-78031183D01*
X93582306Y-77980858D01*
X93507337Y-77999213D01*
X93395125Y-78062695D01*
X93124332Y-78163943D01*
X92808635Y-78187436D01*
X92503505Y-78133224D01*
X92345792Y-78061733D01*
X92154586Y-77895327D01*
X92049879Y-77671012D01*
X92023197Y-77367132D01*
X92029445Y-77253359D01*
X92037153Y-77212384D01*
X92839500Y-77212384D01*
X92889269Y-77361228D01*
X93007271Y-77491717D01*
X93146542Y-77553525D01*
X93158278Y-77554000D01*
X93281663Y-77516506D01*
X93429630Y-77425943D01*
X93434186Y-77422391D01*
X93574274Y-77247117D01*
X93601500Y-77104891D01*
X93583512Y-76971001D01*
X93507221Y-76922946D01*
X93440710Y-76919000D01*
X93244374Y-76946501D01*
X93052516Y-77016182D01*
X92904551Y-77108809D01*
X92839893Y-77205149D01*
X92839500Y-77212384D01*
X92037153Y-77212384D01*
X92081542Y-76976450D01*
X92197728Y-76765020D01*
X92393101Y-76607276D01*
X92682758Y-76491424D01*
X93081797Y-76405673D01*
X93123074Y-76399109D01*
X93374871Y-76350436D01*
X93541199Y-76298177D01*
X93601499Y-76248797D01*
X93601500Y-76248640D01*
X93545925Y-76130315D01*
X93398516Y-76053813D01*
X93188245Y-76021782D01*
X92944084Y-76036872D01*
X92695007Y-76101730D01*
X92575375Y-76154846D01*
X92418637Y-76233325D01*
X92315189Y-76279144D01*
X92297794Y-76284000D01*
X92281937Y-76226352D01*
X92271130Y-76076780D01*
X92268000Y-75910719D01*
X92268000Y-75537439D01*
X92677925Y-75434469D01*
X93177957Y-75348784D01*
X93599710Y-75362482D01*
G36*
X75811691Y-73761423D02*
X76285965Y-73838443D01*
X76697223Y-73972968D01*
X76710500Y-73978952D01*
X77062327Y-74178163D01*
X77416380Y-74445378D01*
X77734631Y-74747511D01*
X77979055Y-75051476D01*
X78021893Y-75119976D01*
X78272396Y-75664735D01*
X78405015Y-76227505D01*
X78424465Y-76793151D01*
X78335460Y-77346545D01*
X78142716Y-77872553D01*
X77850948Y-78356045D01*
X77464872Y-78781890D01*
X76989201Y-79134955D01*
X76726863Y-79275843D01*
X76512261Y-79371036D01*
X76322289Y-79432258D01*
X76113657Y-79468523D01*
X75843077Y-79488843D01*
X75670186Y-79495870D01*
X75367753Y-79499549D01*
X75086415Y-79490988D01*
X74867717Y-79471978D01*
X74789888Y-79457896D01*
X74251574Y-79258400D01*
X73769783Y-78955545D01*
X73356471Y-78564892D01*
X73023591Y-78102006D01*
X72783101Y-77582450D01*
X72646955Y-77021788D01*
X72620063Y-76633250D01*
X72658379Y-76255140D01*
X73438322Y-76255140D01*
X73443610Y-76637049D01*
X73502337Y-76991177D01*
X73590529Y-77227811D01*
X73815801Y-77558124D01*
X74116242Y-77860653D01*
X74450878Y-78097737D01*
X74632922Y-78185906D01*
X75003788Y-78280239D01*
X75415418Y-78299940D01*
X75817974Y-78246851D01*
X76148036Y-78129933D01*
X76554108Y-77856067D01*
X76871590Y-77508663D01*
X77094164Y-77106399D01*
X77215514Y-76667950D01*
X77229324Y-76211992D01*
X77129275Y-75757200D01*
X77029039Y-75525187D01*
X76765896Y-75143485D01*
X76421813Y-74843336D01*
X76018754Y-74632222D01*
X75578685Y-74517621D01*
X75123567Y-74507014D01*
X74675365Y-74607880D01*
X74522661Y-74671627D01*
X74120506Y-74930712D01*
X73780961Y-75291844D01*
X73588323Y-75598513D01*
X73486538Y-75893083D01*
X73438322Y-76255140D01*
X72658379Y-76255140D01*
X72679780Y-76043956D01*
X72851310Y-75491911D01*
X73123590Y-74991000D01*
X73485554Y-74555115D01*
X73926139Y-74198142D01*
X74434279Y-73933971D01*
X74877384Y-73799769D01*
X75325224Y-73746876D01*
X75811691Y-73761423D01*
X75811691Y-73761423D01*
G37*
X75811691Y-73761423D02*
X76285965Y-73838443D01*
X76697223Y-73972968D01*
X76710500Y-73978952D01*
X77062327Y-74178163D01*
X77416380Y-74445378D01*
X77734631Y-74747511D01*
X77979055Y-75051476D01*
X78021893Y-75119976D01*
X78272396Y-75664735D01*
X78405015Y-76227505D01*
X78424465Y-76793151D01*
X78335460Y-77346545D01*
X78142716Y-77872553D01*
X77850948Y-78356045D01*
X77464872Y-78781890D01*
X76989201Y-79134955D01*
X76726863Y-79275843D01*
X76512261Y-79371036D01*
X76322289Y-79432258D01*
X76113657Y-79468523D01*
X75843077Y-79488843D01*
X75670186Y-79495870D01*
X75367753Y-79499549D01*
X75086415Y-79490988D01*
X74867717Y-79471978D01*
X74789888Y-79457896D01*
X74251574Y-79258400D01*
X73769783Y-78955545D01*
X73356471Y-78564892D01*
X73023591Y-78102006D01*
X72783101Y-77582450D01*
X72646955Y-77021788D01*
X72620063Y-76633250D01*
X72658379Y-76255140D01*
X73438322Y-76255140D01*
X73443610Y-76637049D01*
X73502337Y-76991177D01*
X73590529Y-77227811D01*
X73815801Y-77558124D01*
X74116242Y-77860653D01*
X74450878Y-78097737D01*
X74632922Y-78185906D01*
X75003788Y-78280239D01*
X75415418Y-78299940D01*
X75817974Y-78246851D01*
X76148036Y-78129933D01*
X76554108Y-77856067D01*
X76871590Y-77508663D01*
X77094164Y-77106399D01*
X77215514Y-76667950D01*
X77229324Y-76211992D01*
X77129275Y-75757200D01*
X77029039Y-75525187D01*
X76765896Y-75143485D01*
X76421813Y-74843336D01*
X76018754Y-74632222D01*
X75578685Y-74517621D01*
X75123567Y-74507014D01*
X74675365Y-74607880D01*
X74522661Y-74671627D01*
X74120506Y-74930712D01*
X73780961Y-75291844D01*
X73588323Y-75598513D01*
X73486538Y-75893083D01*
X73438322Y-76255140D01*
X72658379Y-76255140D01*
X72679780Y-76043956D01*
X72851310Y-75491911D01*
X73123590Y-74991000D01*
X73485554Y-74555115D01*
X73926139Y-74198142D01*
X74434279Y-73933971D01*
X74877384Y-73799769D01*
X75325224Y-73746876D01*
X75811691Y-73761423D01*
G36*
X100057628Y-79884901D02*
X100078500Y-79967000D01*
X100033598Y-80073128D01*
X99951500Y-80094000D01*
X99845371Y-80049098D01*
X99824500Y-79967000D01*
X99869401Y-79860871D01*
X99951500Y-79840000D01*
X100057628Y-79884901D01*
X100057628Y-79884901D01*
G37*
X100057628Y-79884901D02*
X100078500Y-79967000D01*
X100033598Y-80073128D01*
X99951500Y-80094000D01*
X99845371Y-80049098D01*
X99824500Y-79967000D01*
X99869401Y-79860871D01*
X99951500Y-79840000D01*
X100057628Y-79884901D01*
G36*
X91548628Y-79884901D02*
X91569500Y-79967000D01*
X91524598Y-80073128D01*
X91442500Y-80094000D01*
X91336371Y-80049098D01*
X91315500Y-79967000D01*
X91360401Y-79860871D01*
X91442500Y-79840000D01*
X91548628Y-79884901D01*
X91548628Y-79884901D01*
G37*
X91548628Y-79884901D02*
X91569500Y-79967000D01*
X91524598Y-80073128D01*
X91442500Y-80094000D01*
X91336371Y-80049098D01*
X91315500Y-79967000D01*
X91360401Y-79860871D01*
X91442500Y-79840000D01*
X91548628Y-79884901D01*
G36*
X90215128Y-79884901D02*
X90236000Y-79967000D01*
X90191098Y-80073128D01*
X90109000Y-80094000D01*
X90002871Y-80049098D01*
X89982000Y-79967000D01*
X90026901Y-79860871D01*
X90109000Y-79840000D01*
X90215128Y-79884901D01*
X90215128Y-79884901D01*
G37*
X90215128Y-79884901D02*
X90236000Y-79967000D01*
X90191098Y-80073128D01*
X90109000Y-80094000D01*
X90002871Y-80049098D01*
X89982000Y-79967000D01*
X90026901Y-79860871D01*
X90109000Y-79840000D01*
X90215128Y-79884901D01*
G36*
X108678937Y-80279771D02*
X108867287Y-80412756D01*
X108987938Y-80629843D01*
X109004627Y-80698253D01*
X109001634Y-80908245D01*
X108933250Y-81116892D01*
X108819792Y-81275482D01*
X108743405Y-81324554D01*
X108520088Y-81365827D01*
X108287924Y-81341408D01*
X108104383Y-81258875D01*
X108079500Y-81237000D01*
X107968536Y-81044499D01*
X107946658Y-80824250D01*
X108206500Y-80824250D01*
X108248252Y-81026617D01*
X108357250Y-81148997D01*
X108509103Y-81173932D01*
X108626566Y-81124902D01*
X108726759Y-80991128D01*
X108747891Y-80806888D01*
X108686552Y-80630640D01*
X108549333Y-80499219D01*
X108406291Y-80478945D01*
X108285387Y-80558541D01*
X108214581Y-80726731D01*
X108206500Y-80824250D01*
X107946658Y-80824250D01*
X107945160Y-80809180D01*
X108003056Y-80573732D01*
X108135910Y-80380844D01*
X108214938Y-80321366D01*
X108451838Y-80244702D01*
X108678937Y-80279771D01*
X108678937Y-80279771D01*
G37*
X108678937Y-80279771D02*
X108867287Y-80412756D01*
X108987938Y-80629843D01*
X109004627Y-80698253D01*
X109001634Y-80908245D01*
X108933250Y-81116892D01*
X108819792Y-81275482D01*
X108743405Y-81324554D01*
X108520088Y-81365827D01*
X108287924Y-81341408D01*
X108104383Y-81258875D01*
X108079500Y-81237000D01*
X107968536Y-81044499D01*
X107946658Y-80824250D01*
X108206500Y-80824250D01*
X108248252Y-81026617D01*
X108357250Y-81148997D01*
X108509103Y-81173932D01*
X108626566Y-81124902D01*
X108726759Y-80991128D01*
X108747891Y-80806888D01*
X108686552Y-80630640D01*
X108549333Y-80499219D01*
X108406291Y-80478945D01*
X108285387Y-80558541D01*
X108214581Y-80726731D01*
X108206500Y-80824250D01*
X107946658Y-80824250D01*
X107945160Y-80809180D01*
X108003056Y-80573732D01*
X108135910Y-80380844D01*
X108214938Y-80321366D01*
X108451838Y-80244702D01*
X108678937Y-80279771D01*
G36*
X107688343Y-79785936D02*
X107725538Y-79828980D01*
X107749061Y-79927734D01*
X107763538Y-80104298D01*
X107773596Y-80380774D01*
X107775726Y-80459125D01*
X107788486Y-80780801D01*
X107807927Y-80989670D01*
X107836110Y-81099838D01*
X107873125Y-81125875D01*
X107936958Y-81164849D01*
X107952500Y-81237000D01*
X107902912Y-81332240D01*
X107785971Y-81367193D01*
X107649412Y-81335275D01*
X107584200Y-81287800D01*
X107544574Y-81178506D01*
X107519214Y-80945897D01*
X107508400Y-80592887D01*
X107508000Y-80494050D01*
X107509448Y-80183344D01*
X107516305Y-79977991D01*
X107532335Y-79856353D01*
X107561302Y-79796794D01*
X107606971Y-79777675D01*
X107632851Y-79776500D01*
X107688343Y-79785936D01*
X107688343Y-79785936D01*
G37*
X107688343Y-79785936D02*
X107725538Y-79828980D01*
X107749061Y-79927734D01*
X107763538Y-80104298D01*
X107773596Y-80380774D01*
X107775726Y-80459125D01*
X107788486Y-80780801D01*
X107807927Y-80989670D01*
X107836110Y-81099838D01*
X107873125Y-81125875D01*
X107936958Y-81164849D01*
X107952500Y-81237000D01*
X107902912Y-81332240D01*
X107785971Y-81367193D01*
X107649412Y-81335275D01*
X107584200Y-81287800D01*
X107544574Y-81178506D01*
X107519214Y-80945897D01*
X107508400Y-80592887D01*
X107508000Y-80494050D01*
X107509448Y-80183344D01*
X107516305Y-79977991D01*
X107532335Y-79856353D01*
X107561302Y-79796794D01*
X107606971Y-79777675D01*
X107632851Y-79776500D01*
X107688343Y-79785936D01*
G36*
X106985236Y-80276765D02*
X107192115Y-80413115D01*
X107290429Y-80590205D01*
X107320858Y-80821434D01*
X107283669Y-81053774D01*
X107188026Y-81225026D01*
X107019686Y-81328403D01*
X106799851Y-81368614D01*
X106580315Y-81344350D01*
X106412874Y-81254299D01*
X106403877Y-81244875D01*
X106318519Y-81097697D01*
X106264839Y-80911500D01*
X106273465Y-80746470D01*
X106505279Y-80746470D01*
X106518813Y-80933026D01*
X106597091Y-81057374D01*
X106747316Y-81158418D01*
X106894437Y-81151786D01*
X106997765Y-81050674D01*
X107064504Y-80843959D01*
X107048186Y-80665885D01*
X106967086Y-80538522D01*
X106839478Y-80483939D01*
X106683636Y-80524207D01*
X106608125Y-80580091D01*
X106505279Y-80746470D01*
X106273465Y-80746470D01*
X106278342Y-80653186D01*
X106383063Y-80446619D01*
X106553073Y-80305735D01*
X106762440Y-80244472D01*
X106985236Y-80276765D01*
X106985236Y-80276765D01*
G37*
X106985236Y-80276765D02*
X107192115Y-80413115D01*
X107290429Y-80590205D01*
X107320858Y-80821434D01*
X107283669Y-81053774D01*
X107188026Y-81225026D01*
X107019686Y-81328403D01*
X106799851Y-81368614D01*
X106580315Y-81344350D01*
X106412874Y-81254299D01*
X106403877Y-81244875D01*
X106318519Y-81097697D01*
X106264839Y-80911500D01*
X106273465Y-80746470D01*
X106505279Y-80746470D01*
X106518813Y-80933026D01*
X106597091Y-81057374D01*
X106747316Y-81158418D01*
X106894437Y-81151786D01*
X106997765Y-81050674D01*
X107064504Y-80843959D01*
X107048186Y-80665885D01*
X106967086Y-80538522D01*
X106839478Y-80483939D01*
X106683636Y-80524207D01*
X106608125Y-80580091D01*
X106505279Y-80746470D01*
X106273465Y-80746470D01*
X106278342Y-80653186D01*
X106383063Y-80446619D01*
X106553073Y-80305735D01*
X106762440Y-80244472D01*
X106985236Y-80276765D01*
G36*
X106060090Y-80275743D02*
X106160316Y-80359160D01*
X106174500Y-80416796D01*
X106151048Y-80497830D01*
X106057667Y-80509936D01*
X105994394Y-80499303D01*
X105798308Y-80514522D01*
X105657997Y-80629461D01*
X105603026Y-80819576D01*
X105603000Y-80824250D01*
X105655838Y-81015695D01*
X105794643Y-81132486D01*
X105989852Y-81150077D01*
X105994394Y-81149196D01*
X106124049Y-81138228D01*
X106170893Y-81190376D01*
X106174500Y-81238587D01*
X106121649Y-81327005D01*
X105988605Y-81370369D01*
X105813629Y-81369425D01*
X105634980Y-81324918D01*
X105490920Y-81237594D01*
X105478473Y-81225026D01*
X105367354Y-81021714D01*
X105351258Y-80784866D01*
X105420743Y-80553166D01*
X105566364Y-80365298D01*
X105709064Y-80280388D01*
X105896637Y-80245665D01*
X106060090Y-80275743D01*
X106060090Y-80275743D01*
G37*
X106060090Y-80275743D02*
X106160316Y-80359160D01*
X106174500Y-80416796D01*
X106151048Y-80497830D01*
X106057667Y-80509936D01*
X105994394Y-80499303D01*
X105798308Y-80514522D01*
X105657997Y-80629461D01*
X105603026Y-80819576D01*
X105603000Y-80824250D01*
X105655838Y-81015695D01*
X105794643Y-81132486D01*
X105989852Y-81150077D01*
X105994394Y-81149196D01*
X106124049Y-81138228D01*
X106170893Y-81190376D01*
X106174500Y-81238587D01*
X106121649Y-81327005D01*
X105988605Y-81370369D01*
X105813629Y-81369425D01*
X105634980Y-81324918D01*
X105490920Y-81237594D01*
X105478473Y-81225026D01*
X105367354Y-81021714D01*
X105351258Y-80784866D01*
X105420743Y-80553166D01*
X105566364Y-80365298D01*
X105709064Y-80280388D01*
X105896637Y-80245665D01*
X106060090Y-80275743D01*
G36*
X105062229Y-79910815D02*
X105181006Y-79936746D01*
X105221248Y-79987273D01*
X105222000Y-79998750D01*
X105184603Y-80061530D01*
X105057447Y-80090127D01*
X104936250Y-80094000D01*
X104760537Y-80099522D01*
X104677314Y-80131407D01*
X104652115Y-80212631D01*
X104650500Y-80284500D01*
X104660530Y-80406650D01*
X104714884Y-80460950D01*
X104849958Y-80474699D01*
X104904500Y-80475000D01*
X105070676Y-80485650D01*
X105144119Y-80528695D01*
X105158500Y-80602000D01*
X105137199Y-80685088D01*
X105051108Y-80721809D01*
X104904500Y-80729000D01*
X104741633Y-80736522D01*
X104669232Y-80777288D01*
X104650900Y-80878593D01*
X104650500Y-80919500D01*
X104658783Y-81036641D01*
X104706610Y-81092123D01*
X104828447Y-81108923D01*
X104936250Y-81110000D01*
X105114821Y-81118309D01*
X105199262Y-81152813D01*
X105221890Y-81227876D01*
X105222000Y-81237000D01*
X105208098Y-81307932D01*
X105147030Y-81346260D01*
X105009751Y-81361665D01*
X104841000Y-81364000D01*
X104460000Y-81364000D01*
X104460000Y-79903500D01*
X104841000Y-79903500D01*
X105062229Y-79910815D01*
X105062229Y-79910815D01*
G37*
X105062229Y-79910815D02*
X105181006Y-79936746D01*
X105221248Y-79987273D01*
X105222000Y-79998750D01*
X105184603Y-80061530D01*
X105057447Y-80090127D01*
X104936250Y-80094000D01*
X104760537Y-80099522D01*
X104677314Y-80131407D01*
X104652115Y-80212631D01*
X104650500Y-80284500D01*
X104660530Y-80406650D01*
X104714884Y-80460950D01*
X104849958Y-80474699D01*
X104904500Y-80475000D01*
X105070676Y-80485650D01*
X105144119Y-80528695D01*
X105158500Y-80602000D01*
X105137199Y-80685088D01*
X105051108Y-80721809D01*
X104904500Y-80729000D01*
X104741633Y-80736522D01*
X104669232Y-80777288D01*
X104650900Y-80878593D01*
X104650500Y-80919500D01*
X104658783Y-81036641D01*
X104706610Y-81092123D01*
X104828447Y-81108923D01*
X104936250Y-81110000D01*
X105114821Y-81118309D01*
X105199262Y-81152813D01*
X105221890Y-81227876D01*
X105222000Y-81237000D01*
X105208098Y-81307932D01*
X105147030Y-81346260D01*
X105009751Y-81361665D01*
X104841000Y-81364000D01*
X104460000Y-81364000D01*
X104460000Y-79903500D01*
X104841000Y-79903500D01*
X105062229Y-79910815D01*
G36*
X103497343Y-79785936D02*
X103534538Y-79828980D01*
X103558061Y-79927734D01*
X103572538Y-80104298D01*
X103582596Y-80380774D01*
X103584726Y-80459125D01*
X103597486Y-80780801D01*
X103616927Y-80989670D01*
X103645110Y-81099838D01*
X103682125Y-81125875D01*
X103745958Y-81164849D01*
X103761500Y-81237000D01*
X103717742Y-81341332D01*
X103614211Y-81373084D01*
X103492522Y-81336160D01*
X103394289Y-81234462D01*
X103378928Y-81201116D01*
X103352145Y-81068234D01*
X103331192Y-80845452D01*
X103318961Y-80569836D01*
X103317000Y-80407366D01*
X103318830Y-80119300D01*
X103327358Y-79935200D01*
X103347140Y-79832046D01*
X103382730Y-79786823D01*
X103438683Y-79776512D01*
X103441851Y-79776500D01*
X103497343Y-79785936D01*
X103497343Y-79785936D01*
G37*
X103497343Y-79785936D02*
X103534538Y-79828980D01*
X103558061Y-79927734D01*
X103572538Y-80104298D01*
X103582596Y-80380774D01*
X103584726Y-80459125D01*
X103597486Y-80780801D01*
X103616927Y-80989670D01*
X103645110Y-81099838D01*
X103682125Y-81125875D01*
X103745958Y-81164849D01*
X103761500Y-81237000D01*
X103717742Y-81341332D01*
X103614211Y-81373084D01*
X103492522Y-81336160D01*
X103394289Y-81234462D01*
X103378928Y-81201116D01*
X103352145Y-81068234D01*
X103331192Y-80845452D01*
X103318961Y-80569836D01*
X103317000Y-80407366D01*
X103318830Y-80119300D01*
X103327358Y-79935200D01*
X103347140Y-79832046D01*
X103382730Y-79786823D01*
X103438683Y-79776512D01*
X103441851Y-79776500D01*
X103497343Y-79785936D01*
G36*
X102896984Y-80280960D02*
X103033245Y-80369499D01*
X103064674Y-80414629D01*
X103097153Y-80536876D01*
X103119544Y-80738844D01*
X103126500Y-80940249D01*
X103126500Y-81350348D01*
X102756581Y-81355556D01*
X102540325Y-81346209D01*
X102374863Y-81316379D01*
X102312081Y-81286181D01*
X102248982Y-81149932D01*
X102247478Y-81062308D01*
X102503978Y-81062308D01*
X102519830Y-81104467D01*
X102621498Y-81169606D01*
X102752232Y-81133569D01*
X102796300Y-81097300D01*
X102872019Y-80979089D01*
X102853248Y-80897966D01*
X102750075Y-80885205D01*
X102729625Y-80890607D01*
X102554554Y-80969548D01*
X102503978Y-81062308D01*
X102247478Y-81062308D01*
X102245958Y-80973796D01*
X102300941Y-80825213D01*
X102327083Y-80797202D01*
X102448536Y-80736950D01*
X102625197Y-80689223D01*
X102644583Y-80685868D01*
X102793495Y-80647721D01*
X102869848Y-80600828D01*
X102872500Y-80591698D01*
X102820011Y-80516272D01*
X102692862Y-80490129D01*
X102536532Y-80521364D01*
X102519200Y-80528790D01*
X102406953Y-80567737D01*
X102367915Y-80529040D01*
X102364500Y-80472066D01*
X102417371Y-80348929D01*
X102549864Y-80273889D01*
X102722796Y-80250162D01*
X102896984Y-80280960D01*
X102896984Y-80280960D01*
G37*
X102896984Y-80280960D02*
X103033245Y-80369499D01*
X103064674Y-80414629D01*
X103097153Y-80536876D01*
X103119544Y-80738844D01*
X103126500Y-80940249D01*
X103126500Y-81350348D01*
X102756581Y-81355556D01*
X102540325Y-81346209D01*
X102374863Y-81316379D01*
X102312081Y-81286181D01*
X102248982Y-81149932D01*
X102247478Y-81062308D01*
X102503978Y-81062308D01*
X102519830Y-81104467D01*
X102621498Y-81169606D01*
X102752232Y-81133569D01*
X102796300Y-81097300D01*
X102872019Y-80979089D01*
X102853248Y-80897966D01*
X102750075Y-80885205D01*
X102729625Y-80890607D01*
X102554554Y-80969548D01*
X102503978Y-81062308D01*
X102247478Y-81062308D01*
X102245958Y-80973796D01*
X102300941Y-80825213D01*
X102327083Y-80797202D01*
X102448536Y-80736950D01*
X102625197Y-80689223D01*
X102644583Y-80685868D01*
X102793495Y-80647721D01*
X102869848Y-80600828D01*
X102872500Y-80591698D01*
X102820011Y-80516272D01*
X102692862Y-80490129D01*
X102536532Y-80521364D01*
X102519200Y-80528790D01*
X102406953Y-80567737D01*
X102367915Y-80529040D01*
X102364500Y-80472066D01*
X102417371Y-80348929D01*
X102549864Y-80273889D01*
X102722796Y-80250162D01*
X102896984Y-80280960D01*
G36*
X102045569Y-80294658D02*
X102083333Y-80341790D01*
X102102747Y-80450875D01*
X102109764Y-80646895D01*
X102110500Y-80817424D01*
X102110500Y-81350348D01*
X101745375Y-81355223D01*
X101528590Y-81348187D01*
X101355700Y-81324909D01*
X101286394Y-81301727D01*
X101227989Y-81211405D01*
X101188690Y-81017817D01*
X101168328Y-80763927D01*
X101158362Y-80520496D01*
X101163039Y-80377328D01*
X101188410Y-80307975D01*
X101240530Y-80285992D01*
X101278059Y-80284500D01*
X101350658Y-80295865D01*
X101390964Y-80348924D01*
X101408302Y-80472117D01*
X101412000Y-80692970D01*
X101416682Y-80917928D01*
X101437199Y-81047832D01*
X101483256Y-81114484D01*
X101550036Y-81145252D01*
X101696914Y-81140089D01*
X101797414Y-81019563D01*
X101849377Y-80787367D01*
X101856500Y-80621613D01*
X101862419Y-80424084D01*
X101887842Y-80322786D01*
X101944265Y-80287204D01*
X101983500Y-80284500D01*
X102045569Y-80294658D01*
X102045569Y-80294658D01*
G37*
X102045569Y-80294658D02*
X102083333Y-80341790D01*
X102102747Y-80450875D01*
X102109764Y-80646895D01*
X102110500Y-80817424D01*
X102110500Y-81350348D01*
X101745375Y-81355223D01*
X101528590Y-81348187D01*
X101355700Y-81324909D01*
X101286394Y-81301727D01*
X101227989Y-81211405D01*
X101188690Y-81017817D01*
X101168328Y-80763927D01*
X101158362Y-80520496D01*
X101163039Y-80377328D01*
X101188410Y-80307975D01*
X101240530Y-80285992D01*
X101278059Y-80284500D01*
X101350658Y-80295865D01*
X101390964Y-80348924D01*
X101408302Y-80472117D01*
X101412000Y-80692970D01*
X101416682Y-80917928D01*
X101437199Y-81047832D01*
X101483256Y-81114484D01*
X101550036Y-81145252D01*
X101696914Y-81140089D01*
X101797414Y-81019563D01*
X101849377Y-80787367D01*
X101856500Y-80621613D01*
X101862419Y-80424084D01*
X101887842Y-80322786D01*
X101944265Y-80287204D01*
X101983500Y-80284500D01*
X102045569Y-80294658D01*
G36*
X100813156Y-80259530D02*
X100940788Y-80329136D01*
X100972144Y-80421869D01*
X100910465Y-80496755D01*
X100792875Y-80516112D01*
X100643521Y-80534309D01*
X100594204Y-80594897D01*
X100656527Y-80675423D01*
X100697977Y-80699729D01*
X100922197Y-80850540D01*
X101024505Y-81008750D01*
X101002969Y-81169690D01*
X100931214Y-81264214D01*
X100812906Y-81322020D01*
X100620936Y-81357734D01*
X100393157Y-81371379D01*
X100167423Y-81362978D01*
X99981585Y-81332555D01*
X99873496Y-81280133D01*
X99863043Y-81263556D01*
X99843501Y-81151567D01*
X99829632Y-80955535D01*
X99824500Y-80723806D01*
X99828005Y-80491857D01*
X99843782Y-80359534D01*
X99879723Y-80299538D01*
X99943719Y-80284571D01*
X99951500Y-80284500D01*
X100019212Y-80296910D01*
X100057498Y-80352543D01*
X100074537Y-80478997D01*
X100078506Y-80703871D01*
X100078509Y-80713125D01*
X100078519Y-81141750D01*
X100390562Y-81141750D01*
X100624462Y-81130408D01*
X100734537Y-81095706D01*
X100721983Y-81036624D01*
X100603651Y-80960119D01*
X100390161Y-80818442D01*
X100292488Y-80667065D01*
X100295432Y-80505328D01*
X100393003Y-80351972D01*
X100568757Y-80261220D01*
X100781378Y-80252691D01*
X100813156Y-80259530D01*
X100813156Y-80259530D01*
G37*
X100813156Y-80259530D02*
X100940788Y-80329136D01*
X100972144Y-80421869D01*
X100910465Y-80496755D01*
X100792875Y-80516112D01*
X100643521Y-80534309D01*
X100594204Y-80594897D01*
X100656527Y-80675423D01*
X100697977Y-80699729D01*
X100922197Y-80850540D01*
X101024505Y-81008750D01*
X101002969Y-81169690D01*
X100931214Y-81264214D01*
X100812906Y-81322020D01*
X100620936Y-81357734D01*
X100393157Y-81371379D01*
X100167423Y-81362978D01*
X99981585Y-81332555D01*
X99873496Y-81280133D01*
X99863043Y-81263556D01*
X99843501Y-81151567D01*
X99829632Y-80955535D01*
X99824500Y-80723806D01*
X99828005Y-80491857D01*
X99843782Y-80359534D01*
X99879723Y-80299538D01*
X99943719Y-80284571D01*
X99951500Y-80284500D01*
X100019212Y-80296910D01*
X100057498Y-80352543D01*
X100074537Y-80478997D01*
X100078506Y-80703871D01*
X100078509Y-80713125D01*
X100078519Y-81141750D01*
X100390562Y-81141750D01*
X100624462Y-81130408D01*
X100734537Y-81095706D01*
X100721983Y-81036624D01*
X100603651Y-80960119D01*
X100390161Y-80818442D01*
X100292488Y-80667065D01*
X100295432Y-80505328D01*
X100393003Y-80351972D01*
X100568757Y-80261220D01*
X100781378Y-80252691D01*
X100813156Y-80259530D01*
G36*
X98651869Y-79918339D02*
X98715679Y-79977880D01*
X98781674Y-80104657D01*
X98863551Y-80321203D01*
X98906866Y-80446985D01*
X99091327Y-80990471D01*
X99283288Y-80447166D01*
X99380796Y-80183844D01*
X99455730Y-80020353D01*
X99521489Y-79934723D01*
X99591470Y-79904987D01*
X99614743Y-79903680D01*
X99754237Y-79903500D01*
X99595032Y-80332125D01*
X99496481Y-80601868D01*
X99399548Y-80874324D01*
X99334767Y-81062375D01*
X99260133Y-81249629D01*
X99184707Y-81340608D01*
X99087588Y-81364000D01*
X98970463Y-81328594D01*
X98896131Y-81202697D01*
X98881934Y-81157625D01*
X98831980Y-81002189D01*
X98751648Y-80770855D01*
X98655885Y-80506359D01*
X98626546Y-80427375D01*
X98430694Y-79903500D01*
X98576550Y-79903500D01*
X98651869Y-79918339D01*
X98651869Y-79918339D01*
G37*
X98651869Y-79918339D02*
X98715679Y-79977880D01*
X98781674Y-80104657D01*
X98863551Y-80321203D01*
X98906866Y-80446985D01*
X99091327Y-80990471D01*
X99283288Y-80447166D01*
X99380796Y-80183844D01*
X99455730Y-80020353D01*
X99521489Y-79934723D01*
X99591470Y-79904987D01*
X99614743Y-79903680D01*
X99754237Y-79903500D01*
X99595032Y-80332125D01*
X99496481Y-80601868D01*
X99399548Y-80874324D01*
X99334767Y-81062375D01*
X99260133Y-81249629D01*
X99184707Y-81340608D01*
X99087588Y-81364000D01*
X98970463Y-81328594D01*
X98896131Y-81202697D01*
X98881934Y-81157625D01*
X98831980Y-81002189D01*
X98751648Y-80770855D01*
X98655885Y-80506359D01*
X98626546Y-80427375D01*
X98430694Y-79903500D01*
X98576550Y-79903500D01*
X98651869Y-79918339D01*
G36*
X97718395Y-79783780D02*
X97754139Y-79819434D01*
X97776075Y-79904180D01*
X97787547Y-80058735D01*
X97791898Y-80303818D01*
X97792500Y-80563424D01*
X97792500Y-81350348D01*
X97421445Y-81355572D01*
X97177231Y-81343380D01*
X96992263Y-81304303D01*
X96934141Y-81275792D01*
X96856616Y-81174994D01*
X96819543Y-80998932D01*
X96813071Y-80859227D01*
X96814007Y-80829555D01*
X97030500Y-80829555D01*
X97073544Y-81002916D01*
X97180075Y-81119937D01*
X97316184Y-81161180D01*
X97447967Y-81107210D01*
X97471557Y-81082398D01*
X97524445Y-80939596D01*
X97519388Y-80754935D01*
X97464088Y-80588845D01*
X97399342Y-80515823D01*
X97274329Y-80501133D01*
X97147379Y-80576377D01*
X97055045Y-80710460D01*
X97030500Y-80829555D01*
X96814007Y-80829555D01*
X96819672Y-80650072D01*
X96859687Y-80515826D01*
X96951931Y-80405237D01*
X96993235Y-80368467D01*
X97163671Y-80256972D01*
X97327315Y-80240026D01*
X97358360Y-80245297D01*
X97473778Y-80259880D01*
X97525050Y-80220386D01*
X97538136Y-80095629D01*
X97538500Y-80028912D01*
X97549293Y-79863371D01*
X97592852Y-79790492D01*
X97665500Y-79776500D01*
X97718395Y-79783780D01*
X97718395Y-79783780D01*
G37*
X97718395Y-79783780D02*
X97754139Y-79819434D01*
X97776075Y-79904180D01*
X97787547Y-80058735D01*
X97791898Y-80303818D01*
X97792500Y-80563424D01*
X97792500Y-81350348D01*
X97421445Y-81355572D01*
X97177231Y-81343380D01*
X96992263Y-81304303D01*
X96934141Y-81275792D01*
X96856616Y-81174994D01*
X96819543Y-80998932D01*
X96813071Y-80859227D01*
X96814007Y-80829555D01*
X97030500Y-80829555D01*
X97073544Y-81002916D01*
X97180075Y-81119937D01*
X97316184Y-81161180D01*
X97447967Y-81107210D01*
X97471557Y-81082398D01*
X97524445Y-80939596D01*
X97519388Y-80754935D01*
X97464088Y-80588845D01*
X97399342Y-80515823D01*
X97274329Y-80501133D01*
X97147379Y-80576377D01*
X97055045Y-80710460D01*
X97030500Y-80829555D01*
X96814007Y-80829555D01*
X96819672Y-80650072D01*
X96859687Y-80515826D01*
X96951931Y-80405237D01*
X96993235Y-80368467D01*
X97163671Y-80256972D01*
X97327315Y-80240026D01*
X97358360Y-80245297D01*
X97473778Y-80259880D01*
X97525050Y-80220386D01*
X97538136Y-80095629D01*
X97538500Y-80028912D01*
X97549293Y-79863371D01*
X97592852Y-79790492D01*
X97665500Y-79776500D01*
X97718395Y-79783780D01*
G36*
X96481118Y-80309953D02*
X96581189Y-80428567D01*
X96635119Y-80644751D01*
X96649500Y-80931636D01*
X96645884Y-81161366D01*
X96629654Y-81291670D01*
X96592733Y-81350042D01*
X96527046Y-81363976D01*
X96522500Y-81364000D01*
X96450318Y-81349406D01*
X96411846Y-81285928D01*
X96396728Y-81144015D01*
X96394527Y-80998875D01*
X96380222Y-80722178D01*
X96334885Y-80555687D01*
X96252195Y-80485034D01*
X96168425Y-80484960D01*
X96058164Y-80565443D01*
X95988473Y-80759057D01*
X95957987Y-81069739D01*
X95957329Y-81094125D01*
X95938061Y-81278464D01*
X95886832Y-81357528D01*
X95855750Y-81364000D01*
X95807968Y-81340845D01*
X95778797Y-81256591D01*
X95764291Y-81089058D01*
X95760500Y-80828497D01*
X95760500Y-80292994D01*
X95966875Y-80286017D01*
X96167239Y-80279892D01*
X96328503Y-80275824D01*
X96481118Y-80309953D01*
X96481118Y-80309953D01*
G37*
X96481118Y-80309953D02*
X96581189Y-80428567D01*
X96635119Y-80644751D01*
X96649500Y-80931636D01*
X96645884Y-81161366D01*
X96629654Y-81291670D01*
X96592733Y-81350042D01*
X96527046Y-81363976D01*
X96522500Y-81364000D01*
X96450318Y-81349406D01*
X96411846Y-81285928D01*
X96396728Y-81144015D01*
X96394527Y-80998875D01*
X96380222Y-80722178D01*
X96334885Y-80555687D01*
X96252195Y-80485034D01*
X96168425Y-80484960D01*
X96058164Y-80565443D01*
X95988473Y-80759057D01*
X95957987Y-81069739D01*
X95957329Y-81094125D01*
X95938061Y-81278464D01*
X95886832Y-81357528D01*
X95855750Y-81364000D01*
X95807968Y-81340845D01*
X95778797Y-81256591D01*
X95764291Y-81089058D01*
X95760500Y-80828497D01*
X95760500Y-80292994D01*
X95966875Y-80286017D01*
X96167239Y-80279892D01*
X96328503Y-80275824D01*
X96481118Y-80309953D01*
G36*
X95276984Y-80280960D02*
X95413245Y-80369499D01*
X95444674Y-80414629D01*
X95477153Y-80536876D01*
X95499544Y-80738844D01*
X95506500Y-80940249D01*
X95506500Y-81350348D01*
X95136581Y-81355556D01*
X94920325Y-81346209D01*
X94754863Y-81316379D01*
X94692081Y-81286181D01*
X94628982Y-81149932D01*
X94627478Y-81062308D01*
X94883978Y-81062308D01*
X94899830Y-81104467D01*
X95001498Y-81169606D01*
X95132232Y-81133569D01*
X95176300Y-81097300D01*
X95252019Y-80979089D01*
X95233248Y-80897966D01*
X95130075Y-80885205D01*
X95109625Y-80890607D01*
X94934554Y-80969548D01*
X94883978Y-81062308D01*
X94627478Y-81062308D01*
X94625958Y-80973796D01*
X94680941Y-80825213D01*
X94707083Y-80797202D01*
X94828536Y-80736950D01*
X95005197Y-80689223D01*
X95024583Y-80685868D01*
X95173495Y-80647721D01*
X95249848Y-80600828D01*
X95252500Y-80591698D01*
X95200011Y-80516272D01*
X95072862Y-80490129D01*
X94916532Y-80521364D01*
X94899200Y-80528790D01*
X94786953Y-80567737D01*
X94747915Y-80529040D01*
X94744500Y-80472066D01*
X94797371Y-80348929D01*
X94929864Y-80273889D01*
X95102796Y-80250162D01*
X95276984Y-80280960D01*
X95276984Y-80280960D01*
G37*
X95276984Y-80280960D02*
X95413245Y-80369499D01*
X95444674Y-80414629D01*
X95477153Y-80536876D01*
X95499544Y-80738844D01*
X95506500Y-80940249D01*
X95506500Y-81350348D01*
X95136581Y-81355556D01*
X94920325Y-81346209D01*
X94754863Y-81316379D01*
X94692081Y-81286181D01*
X94628982Y-81149932D01*
X94627478Y-81062308D01*
X94883978Y-81062308D01*
X94899830Y-81104467D01*
X95001498Y-81169606D01*
X95132232Y-81133569D01*
X95176300Y-81097300D01*
X95252019Y-80979089D01*
X95233248Y-80897966D01*
X95130075Y-80885205D01*
X95109625Y-80890607D01*
X94934554Y-80969548D01*
X94883978Y-81062308D01*
X94627478Y-81062308D01*
X94625958Y-80973796D01*
X94680941Y-80825213D01*
X94707083Y-80797202D01*
X94828536Y-80736950D01*
X95005197Y-80689223D01*
X95024583Y-80685868D01*
X95173495Y-80647721D01*
X95249848Y-80600828D01*
X95252500Y-80591698D01*
X95200011Y-80516272D01*
X95072862Y-80490129D01*
X94916532Y-80521364D01*
X94899200Y-80528790D01*
X94786953Y-80567737D01*
X94747915Y-80529040D01*
X94744500Y-80472066D01*
X94797371Y-80348929D01*
X94929864Y-80273889D01*
X95102796Y-80250162D01*
X95276984Y-80280960D01*
G36*
X93750618Y-80309953D02*
X93850689Y-80428567D01*
X93904619Y-80644751D01*
X93919000Y-80931636D01*
X93915384Y-81161366D01*
X93899154Y-81291670D01*
X93862233Y-81350042D01*
X93796546Y-81363976D01*
X93792000Y-81364000D01*
X93719818Y-81349406D01*
X93681346Y-81285928D01*
X93666228Y-81144015D01*
X93664027Y-80998875D01*
X93650290Y-80723048D01*
X93606583Y-80558570D01*
X93526477Y-80491989D01*
X93426489Y-80501833D01*
X93314441Y-80602973D01*
X93245053Y-80817591D01*
X93220520Y-81138781D01*
X93220500Y-81149687D01*
X93198229Y-81310897D01*
X93128040Y-81363959D01*
X93125250Y-81364000D01*
X93077468Y-81340845D01*
X93048297Y-81256591D01*
X93033791Y-81089058D01*
X93030000Y-80828497D01*
X93030000Y-80292994D01*
X93236375Y-80286017D01*
X93436739Y-80279892D01*
X93598003Y-80275824D01*
X93750618Y-80309953D01*
X93750618Y-80309953D01*
G37*
X93750618Y-80309953D02*
X93850689Y-80428567D01*
X93904619Y-80644751D01*
X93919000Y-80931636D01*
X93915384Y-81161366D01*
X93899154Y-81291670D01*
X93862233Y-81350042D01*
X93796546Y-81363976D01*
X93792000Y-81364000D01*
X93719818Y-81349406D01*
X93681346Y-81285928D01*
X93666228Y-81144015D01*
X93664027Y-80998875D01*
X93650290Y-80723048D01*
X93606583Y-80558570D01*
X93526477Y-80491989D01*
X93426489Y-80501833D01*
X93314441Y-80602973D01*
X93245053Y-80817591D01*
X93220520Y-81138781D01*
X93220500Y-81149687D01*
X93198229Y-81310897D01*
X93128040Y-81363959D01*
X93125250Y-81364000D01*
X93077468Y-81340845D01*
X93048297Y-81256591D01*
X93033791Y-81089058D01*
X93030000Y-80828497D01*
X93030000Y-80292994D01*
X93236375Y-80286017D01*
X93436739Y-80279892D01*
X93598003Y-80275824D01*
X93750618Y-80309953D01*
G36*
X92569005Y-80324687D02*
X92622764Y-80368386D01*
X92745423Y-80499545D01*
X92798460Y-80648032D01*
X92807750Y-80812085D01*
X92770034Y-81086765D01*
X92652791Y-81264487D01*
X92449870Y-81351945D01*
X92300977Y-81364000D01*
X92076602Y-81335222D01*
X91917108Y-81236417D01*
X91898068Y-81217032D01*
X91780197Y-81009908D01*
X91766927Y-80824250D01*
X92014000Y-80824250D01*
X92059300Y-80990222D01*
X92169374Y-81122383D01*
X92299750Y-81173500D01*
X92411311Y-81131863D01*
X92485714Y-81073714D01*
X92567480Y-80921271D01*
X92567914Y-80745202D01*
X92499953Y-80587158D01*
X92376535Y-80488793D01*
X92299750Y-80475000D01*
X92163954Y-80530366D01*
X92055822Y-80664902D01*
X92014000Y-80824250D01*
X91766927Y-80824250D01*
X91763575Y-80777360D01*
X91836585Y-80552183D01*
X91987609Y-80367175D01*
X92205029Y-80255133D01*
X92241764Y-80246816D01*
X92412423Y-80244061D01*
X92569005Y-80324687D01*
X92569005Y-80324687D01*
G37*
X92569005Y-80324687D02*
X92622764Y-80368386D01*
X92745423Y-80499545D01*
X92798460Y-80648032D01*
X92807750Y-80812085D01*
X92770034Y-81086765D01*
X92652791Y-81264487D01*
X92449870Y-81351945D01*
X92300977Y-81364000D01*
X92076602Y-81335222D01*
X91917108Y-81236417D01*
X91898068Y-81217032D01*
X91780197Y-81009908D01*
X91766927Y-80824250D01*
X92014000Y-80824250D01*
X92059300Y-80990222D01*
X92169374Y-81122383D01*
X92299750Y-81173500D01*
X92411311Y-81131863D01*
X92485714Y-81073714D01*
X92567480Y-80921271D01*
X92567914Y-80745202D01*
X92499953Y-80587158D01*
X92376535Y-80488793D01*
X92299750Y-80475000D01*
X92163954Y-80530366D01*
X92055822Y-80664902D01*
X92014000Y-80824250D01*
X91766927Y-80824250D01*
X91763575Y-80777360D01*
X91836585Y-80552183D01*
X91987609Y-80367175D01*
X92205029Y-80255133D01*
X92241764Y-80246816D01*
X92412423Y-80244061D01*
X92569005Y-80324687D01*
G36*
X91511230Y-80297364D02*
X91549549Y-80354665D01*
X91566091Y-80484465D01*
X91569500Y-80697250D01*
X91575858Y-80928767D01*
X91598580Y-81057446D01*
X91643132Y-81106977D01*
X91664750Y-81110000D01*
X91742321Y-81162939D01*
X91760000Y-81237000D01*
X91710412Y-81332240D01*
X91593471Y-81367193D01*
X91456912Y-81335275D01*
X91391700Y-81287800D01*
X91350212Y-81181965D01*
X91323491Y-80979116D01*
X91315500Y-80748050D01*
X91318659Y-80508473D01*
X91333005Y-80369192D01*
X91365836Y-80303561D01*
X91424453Y-80284936D01*
X91442500Y-80284500D01*
X91511230Y-80297364D01*
X91511230Y-80297364D01*
G37*
X91511230Y-80297364D02*
X91549549Y-80354665D01*
X91566091Y-80484465D01*
X91569500Y-80697250D01*
X91575858Y-80928767D01*
X91598580Y-81057446D01*
X91643132Y-81106977D01*
X91664750Y-81110000D01*
X91742321Y-81162939D01*
X91760000Y-81237000D01*
X91710412Y-81332240D01*
X91593471Y-81367193D01*
X91456912Y-81335275D01*
X91391700Y-81287800D01*
X91350212Y-81181965D01*
X91323491Y-80979116D01*
X91315500Y-80748050D01*
X91318659Y-80508473D01*
X91333005Y-80369192D01*
X91365836Y-80303561D01*
X91424453Y-80284936D01*
X91442500Y-80284500D01*
X91511230Y-80297364D01*
G36*
X90970656Y-80259530D02*
X91098288Y-80329136D01*
X91129644Y-80421869D01*
X91067965Y-80496755D01*
X90950375Y-80516112D01*
X90801021Y-80534309D01*
X90751704Y-80594897D01*
X90814027Y-80675423D01*
X90855477Y-80699729D01*
X91079697Y-80850540D01*
X91182005Y-81008750D01*
X91160469Y-81169690D01*
X91088714Y-81264214D01*
X90970406Y-81322020D01*
X90778436Y-81357734D01*
X90550657Y-81371379D01*
X90324923Y-81362978D01*
X90139085Y-81332555D01*
X90030996Y-81280133D01*
X90020543Y-81263556D01*
X90001001Y-81151567D01*
X89987132Y-80955535D01*
X89982000Y-80723806D01*
X89985505Y-80491857D01*
X90001282Y-80359534D01*
X90037223Y-80299538D01*
X90101219Y-80284571D01*
X90109000Y-80284500D01*
X90176712Y-80296910D01*
X90214998Y-80352543D01*
X90232037Y-80478997D01*
X90236006Y-80703871D01*
X90236009Y-80713125D01*
X90236019Y-81141750D01*
X90548062Y-81141750D01*
X90781962Y-81130408D01*
X90892037Y-81095706D01*
X90879483Y-81036624D01*
X90761151Y-80960119D01*
X90547661Y-80818442D01*
X90449988Y-80667065D01*
X90452932Y-80505328D01*
X90550503Y-80351972D01*
X90726257Y-80261220D01*
X90938878Y-80252691D01*
X90970656Y-80259530D01*
X90970656Y-80259530D01*
G37*
X90970656Y-80259530D02*
X91098288Y-80329136D01*
X91129644Y-80421869D01*
X91067965Y-80496755D01*
X90950375Y-80516112D01*
X90801021Y-80534309D01*
X90751704Y-80594897D01*
X90814027Y-80675423D01*
X90855477Y-80699729D01*
X91079697Y-80850540D01*
X91182005Y-81008750D01*
X91160469Y-81169690D01*
X91088714Y-81264214D01*
X90970406Y-81322020D01*
X90778436Y-81357734D01*
X90550657Y-81371379D01*
X90324923Y-81362978D01*
X90139085Y-81332555D01*
X90030996Y-81280133D01*
X90020543Y-81263556D01*
X90001001Y-81151567D01*
X89987132Y-80955535D01*
X89982000Y-80723806D01*
X89985505Y-80491857D01*
X90001282Y-80359534D01*
X90037223Y-80299538D01*
X90101219Y-80284571D01*
X90109000Y-80284500D01*
X90176712Y-80296910D01*
X90214998Y-80352543D01*
X90232037Y-80478997D01*
X90236006Y-80703871D01*
X90236009Y-80713125D01*
X90236019Y-81141750D01*
X90548062Y-81141750D01*
X90781962Y-81130408D01*
X90892037Y-81095706D01*
X90879483Y-81036624D01*
X90761151Y-80960119D01*
X90547661Y-80818442D01*
X90449988Y-80667065D01*
X90452932Y-80505328D01*
X90550503Y-80351972D01*
X90726257Y-80261220D01*
X90938878Y-80252691D01*
X90970656Y-80259530D01*
G36*
X88813170Y-79919752D02*
X88877624Y-79983245D01*
X88946082Y-80116079D01*
X89031899Y-80340356D01*
X89071447Y-80453020D01*
X89261852Y-81002541D01*
X89444520Y-80453020D01*
X89535314Y-80190534D01*
X89604430Y-80027222D01*
X89665740Y-79940337D01*
X89733117Y-79907129D01*
X89779637Y-79903500D01*
X89887083Y-79922024D01*
X89893594Y-79993478D01*
X89885452Y-80014625D01*
X89832203Y-80148967D01*
X89752991Y-80357240D01*
X89660937Y-80603921D01*
X89569160Y-80853483D01*
X89490780Y-81070401D01*
X89438916Y-81219149D01*
X89428160Y-81252875D01*
X89345134Y-81342820D01*
X89254998Y-81364000D01*
X89136550Y-81322571D01*
X89055430Y-81181936D01*
X89047160Y-81157625D01*
X88994065Y-81001748D01*
X88912253Y-80769733D01*
X88816943Y-80504600D01*
X88788847Y-80427375D01*
X88597682Y-79903500D01*
X88739362Y-79903500D01*
X88813170Y-79919752D01*
X88813170Y-79919752D01*
G37*
X88813170Y-79919752D02*
X88877624Y-79983245D01*
X88946082Y-80116079D01*
X89031899Y-80340356D01*
X89071447Y-80453020D01*
X89261852Y-81002541D01*
X89444520Y-80453020D01*
X89535314Y-80190534D01*
X89604430Y-80027222D01*
X89665740Y-79940337D01*
X89733117Y-79907129D01*
X89779637Y-79903500D01*
X89887083Y-79922024D01*
X89893594Y-79993478D01*
X89885452Y-80014625D01*
X89832203Y-80148967D01*
X89752991Y-80357240D01*
X89660937Y-80603921D01*
X89569160Y-80853483D01*
X89490780Y-81070401D01*
X89438916Y-81219149D01*
X89428160Y-81252875D01*
X89345134Y-81342820D01*
X89254998Y-81364000D01*
X89136550Y-81322571D01*
X89055430Y-81181936D01*
X89047160Y-81157625D01*
X88994065Y-81001748D01*
X88912253Y-80769733D01*
X88816943Y-80504600D01*
X88788847Y-80427375D01*
X88597682Y-79903500D01*
X88739362Y-79903500D01*
X88813170Y-79919752D01*
G36*
X78692696Y-74745534D02*
X78874861Y-74814951D01*
X79131096Y-74936921D01*
X79445668Y-75102394D01*
X79802847Y-75302319D01*
X80186902Y-75527646D01*
X80582101Y-75769325D01*
X80972712Y-76018304D01*
X81343005Y-76265534D01*
X81677249Y-76501963D01*
X81714302Y-76529263D01*
X81976078Y-76721742D01*
X82212873Y-76893393D01*
X82399630Y-77026216D01*
X82511293Y-77102210D01*
X82515313Y-77104727D01*
X82564962Y-77128469D01*
X82625876Y-77135769D01*
X82711720Y-77121040D01*
X82836158Y-77078695D01*
X83012858Y-77003146D01*
X83255484Y-76888806D01*
X83577702Y-76730086D01*
X83993177Y-76521399D01*
X84210285Y-76411684D01*
X84634273Y-76196959D01*
X85035093Y-75993487D01*
X85394523Y-75810555D01*
X85694343Y-75657451D01*
X85916331Y-75543460D01*
X86038582Y-75479831D01*
X86203284Y-75394538D01*
X86314694Y-75340909D01*
X86340207Y-75331500D01*
X86363527Y-75378640D01*
X86352174Y-75470398D01*
X86315534Y-75532278D01*
X86314875Y-75532583D01*
X86259281Y-75585083D01*
X86134897Y-75717404D01*
X85956304Y-75913568D01*
X85738082Y-76157591D01*
X85542384Y-76379250D01*
X85292419Y-76663511D01*
X85060940Y-76926004D01*
X84865475Y-77146907D01*
X84723553Y-77306400D01*
X84664331Y-77372117D01*
X84511145Y-77539485D01*
X84778436Y-78310962D01*
X84876035Y-78602844D01*
X84951965Y-78849841D01*
X84999442Y-79028302D01*
X85011680Y-79114578D01*
X85010002Y-79118164D01*
X84948004Y-79097279D01*
X84809761Y-79012268D01*
X84618372Y-78878122D01*
X84477763Y-78772719D01*
X84222305Y-78576615D01*
X83908523Y-78335752D01*
X83578841Y-78082696D01*
X83314500Y-77879802D01*
X82647750Y-77368056D01*
X82012750Y-77992177D01*
X81364500Y-78603939D01*
X80751751Y-79125544D01*
X80147104Y-79577166D01*
X79523163Y-79978979D01*
X78852532Y-80351158D01*
X78710750Y-80423632D01*
X77782294Y-80831916D01*
X76855051Y-81120212D01*
X75935342Y-81287212D01*
X75029483Y-81331606D01*
X74488000Y-81298090D01*
X73772356Y-81164349D01*
X73110242Y-80917773D01*
X72495489Y-80555336D01*
X71921930Y-80074010D01*
X71852475Y-80004980D01*
X71593666Y-79721609D01*
X71357400Y-79423185D01*
X71159221Y-79133231D01*
X71014673Y-78875270D01*
X70939300Y-78672826D01*
X70932000Y-78611968D01*
X70979154Y-78515438D01*
X71097691Y-78390025D01*
X71156204Y-78341953D01*
X71380409Y-78170944D01*
X71185822Y-78052608D01*
X71006876Y-77910352D01*
X70945825Y-77762369D01*
X70994465Y-77587831D01*
X70999204Y-77578828D01*
X71078312Y-77477648D01*
X71220842Y-77332755D01*
X71398944Y-77168473D01*
X71584763Y-77009128D01*
X71750449Y-76879046D01*
X71868149Y-76802551D01*
X71900107Y-76792000D01*
X71937497Y-76845924D01*
X71948000Y-76935077D01*
X71965108Y-77067843D01*
X72009862Y-77275885D01*
X72069640Y-77503507D01*
X72315003Y-78145858D01*
X72658459Y-78717825D01*
X73089717Y-79210272D01*
X73598493Y-79614064D01*
X74174497Y-79920062D01*
X74807442Y-80119133D01*
X75067458Y-80165808D01*
X75376056Y-80203236D01*
X75621660Y-80211518D01*
X75865197Y-80189309D01*
X76132154Y-80142300D01*
X76800065Y-79950229D01*
X77398013Y-79653712D01*
X77919746Y-79258096D01*
X78359009Y-78768728D01*
X78709550Y-78190953D01*
X78878146Y-77794634D01*
X78968983Y-77527254D01*
X79025057Y-77299757D01*
X79054304Y-77062778D01*
X79064659Y-76766954D01*
X79065291Y-76630552D01*
X79058606Y-76282941D01*
X79033833Y-76013033D01*
X78983891Y-75772006D01*
X78903838Y-75517147D01*
X78812718Y-75272579D01*
X78723164Y-75059041D01*
X78653193Y-74919217D01*
X78647898Y-74910828D01*
X78593907Y-74796553D01*
X78600330Y-74737722D01*
X78692696Y-74745534D01*
X78692696Y-74745534D01*
G37*
X78692696Y-74745534D02*
X78874861Y-74814951D01*
X79131096Y-74936921D01*
X79445668Y-75102394D01*
X79802847Y-75302319D01*
X80186902Y-75527646D01*
X80582101Y-75769325D01*
X80972712Y-76018304D01*
X81343005Y-76265534D01*
X81677249Y-76501963D01*
X81714302Y-76529263D01*
X81976078Y-76721742D01*
X82212873Y-76893393D01*
X82399630Y-77026216D01*
X82511293Y-77102210D01*
X82515313Y-77104727D01*
X82564962Y-77128469D01*
X82625876Y-77135769D01*
X82711720Y-77121040D01*
X82836158Y-77078695D01*
X83012858Y-77003146D01*
X83255484Y-76888806D01*
X83577702Y-76730086D01*
X83993177Y-76521399D01*
X84210285Y-76411684D01*
X84634273Y-76196959D01*
X85035093Y-75993487D01*
X85394523Y-75810555D01*
X85694343Y-75657451D01*
X85916331Y-75543460D01*
X86038582Y-75479831D01*
X86203284Y-75394538D01*
X86314694Y-75340909D01*
X86340207Y-75331500D01*
X86363527Y-75378640D01*
X86352174Y-75470398D01*
X86315534Y-75532278D01*
X86314875Y-75532583D01*
X86259281Y-75585083D01*
X86134897Y-75717404D01*
X85956304Y-75913568D01*
X85738082Y-76157591D01*
X85542384Y-76379250D01*
X85292419Y-76663511D01*
X85060940Y-76926004D01*
X84865475Y-77146907D01*
X84723553Y-77306400D01*
X84664331Y-77372117D01*
X84511145Y-77539485D01*
X84778436Y-78310962D01*
X84876035Y-78602844D01*
X84951965Y-78849841D01*
X84999442Y-79028302D01*
X85011680Y-79114578D01*
X85010002Y-79118164D01*
X84948004Y-79097279D01*
X84809761Y-79012268D01*
X84618372Y-78878122D01*
X84477763Y-78772719D01*
X84222305Y-78576615D01*
X83908523Y-78335752D01*
X83578841Y-78082696D01*
X83314500Y-77879802D01*
X82647750Y-77368056D01*
X82012750Y-77992177D01*
X81364500Y-78603939D01*
X80751751Y-79125544D01*
X80147104Y-79577166D01*
X79523163Y-79978979D01*
X78852532Y-80351158D01*
X78710750Y-80423632D01*
X77782294Y-80831916D01*
X76855051Y-81120212D01*
X75935342Y-81287212D01*
X75029483Y-81331606D01*
X74488000Y-81298090D01*
X73772356Y-81164349D01*
X73110242Y-80917773D01*
X72495489Y-80555336D01*
X71921930Y-80074010D01*
X71852475Y-80004980D01*
X71593666Y-79721609D01*
X71357400Y-79423185D01*
X71159221Y-79133231D01*
X71014673Y-78875270D01*
X70939300Y-78672826D01*
X70932000Y-78611968D01*
X70979154Y-78515438D01*
X71097691Y-78390025D01*
X71156204Y-78341953D01*
X71380409Y-78170944D01*
X71185822Y-78052608D01*
X71006876Y-77910352D01*
X70945825Y-77762369D01*
X70994465Y-77587831D01*
X70999204Y-77578828D01*
X71078312Y-77477648D01*
X71220842Y-77332755D01*
X71398944Y-77168473D01*
X71584763Y-77009128D01*
X71750449Y-76879046D01*
X71868149Y-76802551D01*
X71900107Y-76792000D01*
X71937497Y-76845924D01*
X71948000Y-76935077D01*
X71965108Y-77067843D01*
X72009862Y-77275885D01*
X72069640Y-77503507D01*
X72315003Y-78145858D01*
X72658459Y-78717825D01*
X73089717Y-79210272D01*
X73598493Y-79614064D01*
X74174497Y-79920062D01*
X74807442Y-80119133D01*
X75067458Y-80165808D01*
X75376056Y-80203236D01*
X75621660Y-80211518D01*
X75865197Y-80189309D01*
X76132154Y-80142300D01*
X76800065Y-79950229D01*
X77398013Y-79653712D01*
X77919746Y-79258096D01*
X78359009Y-78768728D01*
X78709550Y-78190953D01*
X78878146Y-77794634D01*
X78968983Y-77527254D01*
X79025057Y-77299757D01*
X79054304Y-77062778D01*
X79064659Y-76766954D01*
X79065291Y-76630552D01*
X79058606Y-76282941D01*
X79033833Y-76013033D01*
X78983891Y-75772006D01*
X78903838Y-75517147D01*
X78812718Y-75272579D01*
X78723164Y-75059041D01*
X78653193Y-74919217D01*
X78647898Y-74910828D01*
X78593907Y-74796553D01*
X78600330Y-74737722D01*
X78692696Y-74745534D01*
G36*
X111233054Y-80307378D02*
X111254500Y-80337066D01*
X111230702Y-80430155D01*
X111167921Y-80607471D01*
X111079071Y-80837330D01*
X110977067Y-81088048D01*
X110874825Y-81327941D01*
X110785260Y-81525325D01*
X110721287Y-81648515D01*
X110717490Y-81654480D01*
X110608179Y-81753804D01*
X110465922Y-81807263D01*
X110332248Y-81809762D01*
X110248689Y-81756203D01*
X110238500Y-81713250D01*
X110291576Y-81635707D01*
X110366861Y-81618000D01*
X110512281Y-81569730D01*
X110577322Y-81430738D01*
X110560599Y-81209744D01*
X110473717Y-80946084D01*
X110355342Y-80656860D01*
X110284776Y-80465369D01*
X110258996Y-80352962D01*
X110274977Y-80300990D01*
X110329694Y-80290804D01*
X110368166Y-80295181D01*
X110472269Y-80345808D01*
X110555334Y-80479428D01*
X110605594Y-80617875D01*
X110669591Y-80790969D01*
X110727153Y-80900064D01*
X110750647Y-80919500D01*
X110796429Y-80864585D01*
X110861082Y-80723625D01*
X110905250Y-80602000D01*
X110987320Y-80399282D01*
X111069354Y-80301627D01*
X111132603Y-80284500D01*
X111233054Y-80307378D01*
X111233054Y-80307378D01*
G37*
X111233054Y-80307378D02*
X111254500Y-80337066D01*
X111230702Y-80430155D01*
X111167921Y-80607471D01*
X111079071Y-80837330D01*
X110977067Y-81088048D01*
X110874825Y-81327941D01*
X110785260Y-81525325D01*
X110721287Y-81648515D01*
X110717490Y-81654480D01*
X110608179Y-81753804D01*
X110465922Y-81807263D01*
X110332248Y-81809762D01*
X110248689Y-81756203D01*
X110238500Y-81713250D01*
X110291576Y-81635707D01*
X110366861Y-81618000D01*
X110512281Y-81569730D01*
X110577322Y-81430738D01*
X110560599Y-81209744D01*
X110473717Y-80946084D01*
X110355342Y-80656860D01*
X110284776Y-80465369D01*
X110258996Y-80352962D01*
X110274977Y-80300990D01*
X110329694Y-80290804D01*
X110368166Y-80295181D01*
X110472269Y-80345808D01*
X110555334Y-80479428D01*
X110605594Y-80617875D01*
X110669591Y-80790969D01*
X110727153Y-80900064D01*
X110750647Y-80919500D01*
X110796429Y-80864585D01*
X110861082Y-80723625D01*
X110905250Y-80602000D01*
X110987320Y-80399282D01*
X111069354Y-80301627D01*
X111132603Y-80284500D01*
X111233054Y-80307378D01*
G36*
X109820968Y-80276511D02*
X110006371Y-80279379D01*
X110186992Y-80281568D01*
X110165121Y-80911519D01*
X110144493Y-81267989D01*
X110103110Y-81516530D01*
X110028320Y-81675957D01*
X109907472Y-81765081D01*
X109727914Y-81802716D01*
X109561908Y-81808500D01*
X109363692Y-81802732D01*
X109261728Y-81777745D01*
X109225500Y-81722012D01*
X109222500Y-81680290D01*
X109244634Y-81590561D01*
X109334792Y-81581615D01*
X109381250Y-81591924D01*
X109590206Y-81608707D01*
X109765421Y-81560790D01*
X109866027Y-81460553D01*
X109871757Y-81443336D01*
X109872857Y-81372068D01*
X109805400Y-81346809D01*
X109653924Y-81354363D01*
X109410950Y-81340108D01*
X109253214Y-81237233D01*
X109173083Y-81038012D01*
X109159000Y-80853193D01*
X109162766Y-80824250D01*
X109413000Y-80824250D01*
X109450062Y-81029106D01*
X109546735Y-81146018D01*
X109681245Y-81161681D01*
X109821214Y-81073714D01*
X109901027Y-80927045D01*
X109909294Y-80753052D01*
X109856135Y-80593879D01*
X109751667Y-80491670D01*
X109677465Y-80475000D01*
X109518508Y-80528781D01*
X109429312Y-80682179D01*
X109413000Y-80824250D01*
X109162766Y-80824250D01*
X109197101Y-80560450D01*
X109311255Y-80369118D01*
X109501239Y-80279485D01*
X109607815Y-80272316D01*
X109820968Y-80276511D01*
X109820968Y-80276511D01*
G37*
X109820968Y-80276511D02*
X110006371Y-80279379D01*
X110186992Y-80281568D01*
X110165121Y-80911519D01*
X110144493Y-81267989D01*
X110103110Y-81516530D01*
X110028320Y-81675957D01*
X109907472Y-81765081D01*
X109727914Y-81802716D01*
X109561908Y-81808500D01*
X109363692Y-81802732D01*
X109261728Y-81777745D01*
X109225500Y-81722012D01*
X109222500Y-81680290D01*
X109244634Y-81590561D01*
X109334792Y-81581615D01*
X109381250Y-81591924D01*
X109590206Y-81608707D01*
X109765421Y-81560790D01*
X109866027Y-81460553D01*
X109871757Y-81443336D01*
X109872857Y-81372068D01*
X109805400Y-81346809D01*
X109653924Y-81354363D01*
X109410950Y-81340108D01*
X109253214Y-81237233D01*
X109173083Y-81038012D01*
X109159000Y-80853193D01*
X109162766Y-80824250D01*
X109413000Y-80824250D01*
X109450062Y-81029106D01*
X109546735Y-81146018D01*
X109681245Y-81161681D01*
X109821214Y-81073714D01*
X109901027Y-80927045D01*
X109909294Y-80753052D01*
X109856135Y-80593879D01*
X109751667Y-80491670D01*
X109677465Y-80475000D01*
X109518508Y-80528781D01*
X109429312Y-80682179D01*
X109413000Y-80824250D01*
X109162766Y-80824250D01*
X109197101Y-80560450D01*
X109311255Y-80369118D01*
X109501239Y-80279485D01*
X109607815Y-80272316D01*
X109820968Y-80276511D01*
G04 #@! TO.C,*
D14*
G04 #@! TO.C,LED 1*
X19800000Y-64852380D02*
X19323809Y-64852380D01*
X19323809Y-63852380D01*
X20133333Y-64328571D02*
X20466666Y-64328571D01*
X20609523Y-64852380D02*
X20133333Y-64852380D01*
X20133333Y-63852380D01*
X20609523Y-63852380D01*
X21038095Y-64852380D02*
X21038095Y-63852380D01*
X21276190Y-63852380D01*
X21419047Y-63900000D01*
X21514285Y-63995238D01*
X21561904Y-64090476D01*
X21609523Y-64280952D01*
X21609523Y-64423809D01*
X21561904Y-64614285D01*
X21514285Y-64709523D01*
X21419047Y-64804761D01*
X21276190Y-64852380D01*
X21038095Y-64852380D01*
X23323809Y-64852380D02*
X22752380Y-64852380D01*
X23038095Y-64852380D02*
X23038095Y-63852380D01*
X22942857Y-63995238D01*
X22847619Y-64090476D01*
X22752380Y-64138095D01*
G04 #@! TO.C,LED 2*
X25840000Y-64852380D02*
X25363809Y-64852380D01*
X25363809Y-63852380D01*
X26173333Y-64328571D02*
X26506666Y-64328571D01*
X26649523Y-64852380D02*
X26173333Y-64852380D01*
X26173333Y-63852380D01*
X26649523Y-63852380D01*
X27078095Y-64852380D02*
X27078095Y-63852380D01*
X27316190Y-63852380D01*
X27459047Y-63900000D01*
X27554285Y-63995238D01*
X27601904Y-64090476D01*
X27649523Y-64280952D01*
X27649523Y-64423809D01*
X27601904Y-64614285D01*
X27554285Y-64709523D01*
X27459047Y-64804761D01*
X27316190Y-64852380D01*
X27078095Y-64852380D01*
X28792380Y-63947619D02*
X28840000Y-63900000D01*
X28935238Y-63852380D01*
X29173333Y-63852380D01*
X29268571Y-63900000D01*
X29316190Y-63947619D01*
X29363809Y-64042857D01*
X29363809Y-64138095D01*
X29316190Y-64280952D01*
X28744761Y-64852380D01*
X29363809Y-64852380D01*
G04 #@! TO.C,LED 3*
X31880000Y-64852380D02*
X31403809Y-64852380D01*
X31403809Y-63852380D01*
X32213333Y-64328571D02*
X32546666Y-64328571D01*
X32689523Y-64852380D02*
X32213333Y-64852380D01*
X32213333Y-63852380D01*
X32689523Y-63852380D01*
X33118095Y-64852380D02*
X33118095Y-63852380D01*
X33356190Y-63852380D01*
X33499047Y-63900000D01*
X33594285Y-63995238D01*
X33641904Y-64090476D01*
X33689523Y-64280952D01*
X33689523Y-64423809D01*
X33641904Y-64614285D01*
X33594285Y-64709523D01*
X33499047Y-64804761D01*
X33356190Y-64852380D01*
X33118095Y-64852380D01*
X34784761Y-63852380D02*
X35403809Y-63852380D01*
X35070476Y-64233333D01*
X35213333Y-64233333D01*
X35308571Y-64280952D01*
X35356190Y-64328571D01*
X35403809Y-64423809D01*
X35403809Y-64661904D01*
X35356190Y-64757142D01*
X35308571Y-64804761D01*
X35213333Y-64852380D01*
X34927619Y-64852380D01*
X34832380Y-64804761D01*
X34784761Y-64757142D01*
G04 #@! TO.C,LED 4*
X37820000Y-64852380D02*
X37343809Y-64852380D01*
X37343809Y-63852380D01*
X38153333Y-64328571D02*
X38486666Y-64328571D01*
X38629523Y-64852380D02*
X38153333Y-64852380D01*
X38153333Y-63852380D01*
X38629523Y-63852380D01*
X39058095Y-64852380D02*
X39058095Y-63852380D01*
X39296190Y-63852380D01*
X39439047Y-63900000D01*
X39534285Y-63995238D01*
X39581904Y-64090476D01*
X39629523Y-64280952D01*
X39629523Y-64423809D01*
X39581904Y-64614285D01*
X39534285Y-64709523D01*
X39439047Y-64804761D01*
X39296190Y-64852380D01*
X39058095Y-64852380D01*
X41248571Y-64185714D02*
X41248571Y-64852380D01*
X41010476Y-63804761D02*
X40772380Y-64519047D01*
X41391428Y-64519047D01*
G04 #@! TO.C,From Stimulator*
X47152380Y-90928571D02*
X46819047Y-90928571D01*
X46819047Y-91452380D02*
X46819047Y-90452380D01*
X47295238Y-90452380D01*
X47676190Y-91452380D02*
X47676190Y-90785714D01*
X47676190Y-90976190D02*
X47723809Y-90880952D01*
X47771428Y-90833333D01*
X47866666Y-90785714D01*
X47961904Y-90785714D01*
X48438095Y-91452380D02*
X48342857Y-91404761D01*
X48295238Y-91357142D01*
X48247619Y-91261904D01*
X48247619Y-90976190D01*
X48295238Y-90880952D01*
X48342857Y-90833333D01*
X48438095Y-90785714D01*
X48580952Y-90785714D01*
X48676190Y-90833333D01*
X48723809Y-90880952D01*
X48771428Y-90976190D01*
X48771428Y-91261904D01*
X48723809Y-91357142D01*
X48676190Y-91404761D01*
X48580952Y-91452380D01*
X48438095Y-91452380D01*
X49200000Y-91452380D02*
X49200000Y-90785714D01*
X49200000Y-90880952D02*
X49247619Y-90833333D01*
X49342857Y-90785714D01*
X49485714Y-90785714D01*
X49580952Y-90833333D01*
X49628571Y-90928571D01*
X49628571Y-91452380D01*
X49628571Y-90928571D02*
X49676190Y-90833333D01*
X49771428Y-90785714D01*
X49914285Y-90785714D01*
X50009523Y-90833333D01*
X50057142Y-90928571D01*
X50057142Y-91452380D01*
X51247619Y-91404761D02*
X51390476Y-91452380D01*
X51628571Y-91452380D01*
X51723809Y-91404761D01*
X51771428Y-91357142D01*
X51819047Y-91261904D01*
X51819047Y-91166666D01*
X51771428Y-91071428D01*
X51723809Y-91023809D01*
X51628571Y-90976190D01*
X51438095Y-90928571D01*
X51342857Y-90880952D01*
X51295238Y-90833333D01*
X51247619Y-90738095D01*
X51247619Y-90642857D01*
X51295238Y-90547619D01*
X51342857Y-90500000D01*
X51438095Y-90452380D01*
X51676190Y-90452380D01*
X51819047Y-90500000D01*
X52104761Y-90785714D02*
X52485714Y-90785714D01*
X52247619Y-90452380D02*
X52247619Y-91309523D01*
X52295238Y-91404761D01*
X52390476Y-91452380D01*
X52485714Y-91452380D01*
X52819047Y-91452380D02*
X52819047Y-90785714D01*
X52819047Y-90452380D02*
X52771428Y-90500000D01*
X52819047Y-90547619D01*
X52866666Y-90500000D01*
X52819047Y-90452380D01*
X52819047Y-90547619D01*
X53295238Y-91452380D02*
X53295238Y-90785714D01*
X53295238Y-90880952D02*
X53342857Y-90833333D01*
X53438095Y-90785714D01*
X53580952Y-90785714D01*
X53676190Y-90833333D01*
X53723809Y-90928571D01*
X53723809Y-91452380D01*
X53723809Y-90928571D02*
X53771428Y-90833333D01*
X53866666Y-90785714D01*
X54009523Y-90785714D01*
X54104761Y-90833333D01*
X54152380Y-90928571D01*
X54152380Y-91452380D01*
X55057142Y-90785714D02*
X55057142Y-91452380D01*
X54628571Y-90785714D02*
X54628571Y-91309523D01*
X54676190Y-91404761D01*
X54771428Y-91452380D01*
X54914285Y-91452380D01*
X55009523Y-91404761D01*
X55057142Y-91357142D01*
X55676190Y-91452380D02*
X55580952Y-91404761D01*
X55533333Y-91309523D01*
X55533333Y-90452380D01*
X56485714Y-91452380D02*
X56485714Y-90928571D01*
X56438095Y-90833333D01*
X56342857Y-90785714D01*
X56152380Y-90785714D01*
X56057142Y-90833333D01*
X56485714Y-91404761D02*
X56390476Y-91452380D01*
X56152380Y-91452380D01*
X56057142Y-91404761D01*
X56009523Y-91309523D01*
X56009523Y-91214285D01*
X56057142Y-91119047D01*
X56152380Y-91071428D01*
X56390476Y-91071428D01*
X56485714Y-91023809D01*
X56819047Y-90785714D02*
X57200000Y-90785714D01*
X56961904Y-90452380D02*
X56961904Y-91309523D01*
X57009523Y-91404761D01*
X57104761Y-91452380D01*
X57200000Y-91452380D01*
X57676190Y-91452380D02*
X57580952Y-91404761D01*
X57533333Y-91357142D01*
X57485714Y-91261904D01*
X57485714Y-90976190D01*
X57533333Y-90880952D01*
X57580952Y-90833333D01*
X57676190Y-90785714D01*
X57819047Y-90785714D01*
X57914285Y-90833333D01*
X57961904Y-90880952D01*
X58009523Y-90976190D01*
X58009523Y-91261904D01*
X57961904Y-91357142D01*
X57914285Y-91404761D01*
X57819047Y-91452380D01*
X57676190Y-91452380D01*
X58438095Y-91452380D02*
X58438095Y-90785714D01*
X58438095Y-90976190D02*
X58485714Y-90880952D01*
X58533333Y-90833333D01*
X58628571Y-90785714D01*
X58723809Y-90785714D01*
G04 #@! TO.C,To LED*
X127123809Y-90452380D02*
X127695238Y-90452380D01*
X127409523Y-91452380D02*
X127409523Y-90452380D01*
X128171428Y-91452380D02*
X128076190Y-91404761D01*
X128028571Y-91357142D01*
X127980952Y-91261904D01*
X127980952Y-90976190D01*
X128028571Y-90880952D01*
X128076190Y-90833333D01*
X128171428Y-90785714D01*
X128314285Y-90785714D01*
X128409523Y-90833333D01*
X128457142Y-90880952D01*
X128504761Y-90976190D01*
X128504761Y-91261904D01*
X128457142Y-91357142D01*
X128409523Y-91404761D01*
X128314285Y-91452380D01*
X128171428Y-91452380D01*
X130171428Y-91452380D02*
X129695238Y-91452380D01*
X129695238Y-90452380D01*
X130504761Y-90928571D02*
X130838095Y-90928571D01*
X130980952Y-91452380D02*
X130504761Y-91452380D01*
X130504761Y-90452380D01*
X130980952Y-90452380D01*
X131409523Y-91452380D02*
X131409523Y-90452380D01*
X131647619Y-90452380D01*
X131790476Y-90500000D01*
X131885714Y-90595238D01*
X131933333Y-90690476D01*
X131980952Y-90880952D01*
X131980952Y-91023809D01*
X131933333Y-91214285D01*
X131885714Y-91309523D01*
X131790476Y-91404761D01*
X131647619Y-91452380D01*
X131409523Y-91452380D01*
G04 #@! TO.C,LED 5*
X43800000Y-64952380D02*
X43323809Y-64952380D01*
X43323809Y-63952380D01*
X44133333Y-64428571D02*
X44466666Y-64428571D01*
X44609523Y-64952380D02*
X44133333Y-64952380D01*
X44133333Y-63952380D01*
X44609523Y-63952380D01*
X45038095Y-64952380D02*
X45038095Y-63952380D01*
X45276190Y-63952380D01*
X45419047Y-64000000D01*
X45514285Y-64095238D01*
X45561904Y-64190476D01*
X45609523Y-64380952D01*
X45609523Y-64523809D01*
X45561904Y-64714285D01*
X45514285Y-64809523D01*
X45419047Y-64904761D01*
X45276190Y-64952380D01*
X45038095Y-64952380D01*
X47276190Y-63952380D02*
X46800000Y-63952380D01*
X46752380Y-64428571D01*
X46800000Y-64380952D01*
X46895238Y-64333333D01*
X47133333Y-64333333D01*
X47228571Y-64380952D01*
X47276190Y-64428571D01*
X47323809Y-64523809D01*
X47323809Y-64761904D01*
X47276190Y-64857142D01*
X47228571Y-64904761D01*
X47133333Y-64952380D01*
X46895238Y-64952380D01*
X46800000Y-64904761D01*
X46752380Y-64857142D01*
G04 #@! TO.C,LED 6*
X49800000Y-64952380D02*
X49323809Y-64952380D01*
X49323809Y-63952380D01*
X50133333Y-64428571D02*
X50466666Y-64428571D01*
X50609523Y-64952380D02*
X50133333Y-64952380D01*
X50133333Y-63952380D01*
X50609523Y-63952380D01*
X51038095Y-64952380D02*
X51038095Y-63952380D01*
X51276190Y-63952380D01*
X51419047Y-64000000D01*
X51514285Y-64095238D01*
X51561904Y-64190476D01*
X51609523Y-64380952D01*
X51609523Y-64523809D01*
X51561904Y-64714285D01*
X51514285Y-64809523D01*
X51419047Y-64904761D01*
X51276190Y-64952380D01*
X51038095Y-64952380D01*
X53228571Y-63952380D02*
X53038095Y-63952380D01*
X52942857Y-64000000D01*
X52895238Y-64047619D01*
X52800000Y-64190476D01*
X52752380Y-64380952D01*
X52752380Y-64761904D01*
X52800000Y-64857142D01*
X52847619Y-64904761D01*
X52942857Y-64952380D01*
X53133333Y-64952380D01*
X53228571Y-64904761D01*
X53276190Y-64857142D01*
X53323809Y-64761904D01*
X53323809Y-64523809D01*
X53276190Y-64428571D01*
X53228571Y-64380952D01*
X53133333Y-64333333D01*
X52942857Y-64333333D01*
X52847619Y-64380952D01*
X52800000Y-64428571D01*
X52752380Y-64523809D01*
G04 #@! TO.C,LED 7*
X55900000Y-65052380D02*
X55423809Y-65052380D01*
X55423809Y-64052380D01*
X56233333Y-64528571D02*
X56566666Y-64528571D01*
X56709523Y-65052380D02*
X56233333Y-65052380D01*
X56233333Y-64052380D01*
X56709523Y-64052380D01*
X57138095Y-65052380D02*
X57138095Y-64052380D01*
X57376190Y-64052380D01*
X57519047Y-64100000D01*
X57614285Y-64195238D01*
X57661904Y-64290476D01*
X57709523Y-64480952D01*
X57709523Y-64623809D01*
X57661904Y-64814285D01*
X57614285Y-64909523D01*
X57519047Y-65004761D01*
X57376190Y-65052380D01*
X57138095Y-65052380D01*
X58804761Y-64052380D02*
X59471428Y-64052380D01*
X59042857Y-65052380D01*
G04 #@! TO.C,LED 8*
X61800000Y-65052380D02*
X61323809Y-65052380D01*
X61323809Y-64052380D01*
X62133333Y-64528571D02*
X62466666Y-64528571D01*
X62609523Y-65052380D02*
X62133333Y-65052380D01*
X62133333Y-64052380D01*
X62609523Y-64052380D01*
X63038095Y-65052380D02*
X63038095Y-64052380D01*
X63276190Y-64052380D01*
X63419047Y-64100000D01*
X63514285Y-64195238D01*
X63561904Y-64290476D01*
X63609523Y-64480952D01*
X63609523Y-64623809D01*
X63561904Y-64814285D01*
X63514285Y-64909523D01*
X63419047Y-65004761D01*
X63276190Y-65052380D01*
X63038095Y-65052380D01*
X64942857Y-64480952D02*
X64847619Y-64433333D01*
X64800000Y-64385714D01*
X64752380Y-64290476D01*
X64752380Y-64242857D01*
X64800000Y-64147619D01*
X64847619Y-64100000D01*
X64942857Y-64052380D01*
X65133333Y-64052380D01*
X65228571Y-64100000D01*
X65276190Y-64147619D01*
X65323809Y-64242857D01*
X65323809Y-64290476D01*
X65276190Y-64385714D01*
X65228571Y-64433333D01*
X65133333Y-64480952D01*
X64942857Y-64480952D01*
X64847619Y-64528571D01*
X64800000Y-64576190D01*
X64752380Y-64671428D01*
X64752380Y-64861904D01*
X64800000Y-64957142D01*
X64847619Y-65004761D01*
X64942857Y-65052380D01*
X65133333Y-65052380D01*
X65228571Y-65004761D01*
X65276190Y-64957142D01*
X65323809Y-64861904D01*
X65323809Y-64671428D01*
X65276190Y-64576190D01*
X65228571Y-64528571D01*
X65133333Y-64480952D01*
G04 #@! TO.C,LED 9*
X67800000Y-65052380D02*
X67323809Y-65052380D01*
X67323809Y-64052380D01*
X68133333Y-64528571D02*
X68466666Y-64528571D01*
X68609523Y-65052380D02*
X68133333Y-65052380D01*
X68133333Y-64052380D01*
X68609523Y-64052380D01*
X69038095Y-65052380D02*
X69038095Y-64052380D01*
X69276190Y-64052380D01*
X69419047Y-64100000D01*
X69514285Y-64195238D01*
X69561904Y-64290476D01*
X69609523Y-64480952D01*
X69609523Y-64623809D01*
X69561904Y-64814285D01*
X69514285Y-64909523D01*
X69419047Y-65004761D01*
X69276190Y-65052380D01*
X69038095Y-65052380D01*
X70847619Y-65052380D02*
X71038095Y-65052380D01*
X71133333Y-65004761D01*
X71180952Y-64957142D01*
X71276190Y-64814285D01*
X71323809Y-64623809D01*
X71323809Y-64242857D01*
X71276190Y-64147619D01*
X71228571Y-64100000D01*
X71133333Y-64052380D01*
X70942857Y-64052380D01*
X70847619Y-64100000D01*
X70800000Y-64147619D01*
X70752380Y-64242857D01*
X70752380Y-64480952D01*
X70800000Y-64576190D01*
X70847619Y-64623809D01*
X70942857Y-64671428D01*
X71133333Y-64671428D01*
X71228571Y-64623809D01*
X71276190Y-64576190D01*
X71323809Y-64480952D01*
G04 #@! TO.C,LED 10*
X73423809Y-65052380D02*
X72947619Y-65052380D01*
X72947619Y-64052380D01*
X73757142Y-64528571D02*
X74090476Y-64528571D01*
X74233333Y-65052380D02*
X73757142Y-65052380D01*
X73757142Y-64052380D01*
X74233333Y-64052380D01*
X74661904Y-65052380D02*
X74661904Y-64052380D01*
X74900000Y-64052380D01*
X75042857Y-64100000D01*
X75138095Y-64195238D01*
X75185714Y-64290476D01*
X75233333Y-64480952D01*
X75233333Y-64623809D01*
X75185714Y-64814285D01*
X75138095Y-64909523D01*
X75042857Y-65004761D01*
X74900000Y-65052380D01*
X74661904Y-65052380D01*
X76947619Y-65052380D02*
X76376190Y-65052380D01*
X76661904Y-65052380D02*
X76661904Y-64052380D01*
X76566666Y-64195238D01*
X76471428Y-64290476D01*
X76376190Y-64338095D01*
X77566666Y-64052380D02*
X77661904Y-64052380D01*
X77757142Y-64100000D01*
X77804761Y-64147619D01*
X77852380Y-64242857D01*
X77900000Y-64433333D01*
X77900000Y-64671428D01*
X77852380Y-64861904D01*
X77804761Y-64957142D01*
X77757142Y-65004761D01*
X77661904Y-65052380D01*
X77566666Y-65052380D01*
X77471428Y-65004761D01*
X77423809Y-64957142D01*
X77376190Y-64861904D01*
X77328571Y-64671428D01*
X77328571Y-64433333D01*
X77376190Y-64242857D01*
X77423809Y-64147619D01*
X77471428Y-64100000D01*
X77566666Y-64052380D01*
G04 #@! TO.C, LED 11*
X79704761Y-65052380D02*
X79228571Y-65052380D01*
X79228571Y-64052380D01*
X80038095Y-64528571D02*
X80371428Y-64528571D01*
X80514285Y-65052380D02*
X80038095Y-65052380D01*
X80038095Y-64052380D01*
X80514285Y-64052380D01*
X80942857Y-65052380D02*
X80942857Y-64052380D01*
X81180952Y-64052380D01*
X81323809Y-64100000D01*
X81419047Y-64195238D01*
X81466666Y-64290476D01*
X81514285Y-64480952D01*
X81514285Y-64623809D01*
X81466666Y-64814285D01*
X81419047Y-64909523D01*
X81323809Y-65004761D01*
X81180952Y-65052380D01*
X80942857Y-65052380D01*
X83228571Y-65052380D02*
X82657142Y-65052380D01*
X82942857Y-65052380D02*
X82942857Y-64052380D01*
X82847619Y-64195238D01*
X82752380Y-64290476D01*
X82657142Y-64338095D01*
X84180952Y-65052380D02*
X83609523Y-65052380D01*
X83895238Y-65052380D02*
X83895238Y-64052380D01*
X83800000Y-64195238D01*
X83704761Y-64290476D01*
X83609523Y-64338095D01*
G04 #@! TO.C,LED 12*
X85423809Y-65052380D02*
X84947619Y-65052380D01*
X84947619Y-64052380D01*
X85757142Y-64528571D02*
X86090476Y-64528571D01*
X86233333Y-65052380D02*
X85757142Y-65052380D01*
X85757142Y-64052380D01*
X86233333Y-64052380D01*
X86661904Y-65052380D02*
X86661904Y-64052380D01*
X86900000Y-64052380D01*
X87042857Y-64100000D01*
X87138095Y-64195238D01*
X87185714Y-64290476D01*
X87233333Y-64480952D01*
X87233333Y-64623809D01*
X87185714Y-64814285D01*
X87138095Y-64909523D01*
X87042857Y-65004761D01*
X86900000Y-65052380D01*
X86661904Y-65052380D01*
X88947619Y-65052380D02*
X88376190Y-65052380D01*
X88661904Y-65052380D02*
X88661904Y-64052380D01*
X88566666Y-64195238D01*
X88471428Y-64290476D01*
X88376190Y-64338095D01*
X89328571Y-64147619D02*
X89376190Y-64100000D01*
X89471428Y-64052380D01*
X89709523Y-64052380D01*
X89804761Y-64100000D01*
X89852380Y-64147619D01*
X89900000Y-64242857D01*
X89900000Y-64338095D01*
X89852380Y-64480952D01*
X89280952Y-65052380D01*
X89900000Y-65052380D01*
G04 #@! TO.C,LED 13*
X91423809Y-65052380D02*
X90947619Y-65052380D01*
X90947619Y-64052380D01*
X91757142Y-64528571D02*
X92090476Y-64528571D01*
X92233333Y-65052380D02*
X91757142Y-65052380D01*
X91757142Y-64052380D01*
X92233333Y-64052380D01*
X92661904Y-65052380D02*
X92661904Y-64052380D01*
X92900000Y-64052380D01*
X93042857Y-64100000D01*
X93138095Y-64195238D01*
X93185714Y-64290476D01*
X93233333Y-64480952D01*
X93233333Y-64623809D01*
X93185714Y-64814285D01*
X93138095Y-64909523D01*
X93042857Y-65004761D01*
X92900000Y-65052380D01*
X92661904Y-65052380D01*
X94947619Y-65052380D02*
X94376190Y-65052380D01*
X94661904Y-65052380D02*
X94661904Y-64052380D01*
X94566666Y-64195238D01*
X94471428Y-64290476D01*
X94376190Y-64338095D01*
X95280952Y-64052380D02*
X95900000Y-64052380D01*
X95566666Y-64433333D01*
X95709523Y-64433333D01*
X95804761Y-64480952D01*
X95852380Y-64528571D01*
X95900000Y-64623809D01*
X95900000Y-64861904D01*
X95852380Y-64957142D01*
X95804761Y-65004761D01*
X95709523Y-65052380D01*
X95423809Y-65052380D01*
X95328571Y-65004761D01*
X95280952Y-64957142D01*
G04 #@! TO.C,LED 14*
X97323809Y-65052380D02*
X96847619Y-65052380D01*
X96847619Y-64052380D01*
X97657142Y-64528571D02*
X97990476Y-64528571D01*
X98133333Y-65052380D02*
X97657142Y-65052380D01*
X97657142Y-64052380D01*
X98133333Y-64052380D01*
X98561904Y-65052380D02*
X98561904Y-64052380D01*
X98800000Y-64052380D01*
X98942857Y-64100000D01*
X99038095Y-64195238D01*
X99085714Y-64290476D01*
X99133333Y-64480952D01*
X99133333Y-64623809D01*
X99085714Y-64814285D01*
X99038095Y-64909523D01*
X98942857Y-65004761D01*
X98800000Y-65052380D01*
X98561904Y-65052380D01*
X100847619Y-65052380D02*
X100276190Y-65052380D01*
X100561904Y-65052380D02*
X100561904Y-64052380D01*
X100466666Y-64195238D01*
X100371428Y-64290476D01*
X100276190Y-64338095D01*
X101704761Y-64385714D02*
X101704761Y-65052380D01*
X101466666Y-64004761D02*
X101228571Y-64719047D01*
X101847619Y-64719047D01*
G04 #@! TO.C,LED 15*
X103323809Y-65052380D02*
X102847619Y-65052380D01*
X102847619Y-64052380D01*
X103657142Y-64528571D02*
X103990476Y-64528571D01*
X104133333Y-65052380D02*
X103657142Y-65052380D01*
X103657142Y-64052380D01*
X104133333Y-64052380D01*
X104561904Y-65052380D02*
X104561904Y-64052380D01*
X104800000Y-64052380D01*
X104942857Y-64100000D01*
X105038095Y-64195238D01*
X105085714Y-64290476D01*
X105133333Y-64480952D01*
X105133333Y-64623809D01*
X105085714Y-64814285D01*
X105038095Y-64909523D01*
X104942857Y-65004761D01*
X104800000Y-65052380D01*
X104561904Y-65052380D01*
X106847619Y-65052380D02*
X106276190Y-65052380D01*
X106561904Y-65052380D02*
X106561904Y-64052380D01*
X106466666Y-64195238D01*
X106371428Y-64290476D01*
X106276190Y-64338095D01*
X107752380Y-64052380D02*
X107276190Y-64052380D01*
X107228571Y-64528571D01*
X107276190Y-64480952D01*
X107371428Y-64433333D01*
X107609523Y-64433333D01*
X107704761Y-64480952D01*
X107752380Y-64528571D01*
X107800000Y-64623809D01*
X107800000Y-64861904D01*
X107752380Y-64957142D01*
X107704761Y-65004761D01*
X107609523Y-65052380D01*
X107371428Y-65052380D01*
X107276190Y-65004761D01*
X107228571Y-64957142D01*
G04 #@! TO.C,LED 16*
X109423809Y-65052380D02*
X108947619Y-65052380D01*
X108947619Y-64052380D01*
X109757142Y-64528571D02*
X110090476Y-64528571D01*
X110233333Y-65052380D02*
X109757142Y-65052380D01*
X109757142Y-64052380D01*
X110233333Y-64052380D01*
X110661904Y-65052380D02*
X110661904Y-64052380D01*
X110900000Y-64052380D01*
X111042857Y-64100000D01*
X111138095Y-64195238D01*
X111185714Y-64290476D01*
X111233333Y-64480952D01*
X111233333Y-64623809D01*
X111185714Y-64814285D01*
X111138095Y-64909523D01*
X111042857Y-65004761D01*
X110900000Y-65052380D01*
X110661904Y-65052380D01*
X112947619Y-65052380D02*
X112376190Y-65052380D01*
X112661904Y-65052380D02*
X112661904Y-64052380D01*
X112566666Y-64195238D01*
X112471428Y-64290476D01*
X112376190Y-64338095D01*
X113804761Y-64052380D02*
X113614285Y-64052380D01*
X113519047Y-64100000D01*
X113471428Y-64147619D01*
X113376190Y-64290476D01*
X113328571Y-64480952D01*
X113328571Y-64861904D01*
X113376190Y-64957142D01*
X113423809Y-65004761D01*
X113519047Y-65052380D01*
X113709523Y-65052380D01*
X113804761Y-65004761D01*
X113852380Y-64957142D01*
X113900000Y-64861904D01*
X113900000Y-64623809D01*
X113852380Y-64528571D01*
X113804761Y-64480952D01*
X113709523Y-64433333D01*
X113519047Y-64433333D01*
X113423809Y-64480952D01*
X113376190Y-64528571D01*
X113328571Y-64623809D01*
G04 #@! TO.C,LED 17*
X115323809Y-65052380D02*
X114847619Y-65052380D01*
X114847619Y-64052380D01*
X115657142Y-64528571D02*
X115990476Y-64528571D01*
X116133333Y-65052380D02*
X115657142Y-65052380D01*
X115657142Y-64052380D01*
X116133333Y-64052380D01*
X116561904Y-65052380D02*
X116561904Y-64052380D01*
X116800000Y-64052380D01*
X116942857Y-64100000D01*
X117038095Y-64195238D01*
X117085714Y-64290476D01*
X117133333Y-64480952D01*
X117133333Y-64623809D01*
X117085714Y-64814285D01*
X117038095Y-64909523D01*
X116942857Y-65004761D01*
X116800000Y-65052380D01*
X116561904Y-65052380D01*
X118847619Y-65052380D02*
X118276190Y-65052380D01*
X118561904Y-65052380D02*
X118561904Y-64052380D01*
X118466666Y-64195238D01*
X118371428Y-64290476D01*
X118276190Y-64338095D01*
X119180952Y-64052380D02*
X119847619Y-64052380D01*
X119419047Y-65052380D01*
G04 #@! TO.C,LED 18*
X121323809Y-65052380D02*
X120847619Y-65052380D01*
X120847619Y-64052380D01*
X121657142Y-64528571D02*
X121990476Y-64528571D01*
X122133333Y-65052380D02*
X121657142Y-65052380D01*
X121657142Y-64052380D01*
X122133333Y-64052380D01*
X122561904Y-65052380D02*
X122561904Y-64052380D01*
X122800000Y-64052380D01*
X122942857Y-64100000D01*
X123038095Y-64195238D01*
X123085714Y-64290476D01*
X123133333Y-64480952D01*
X123133333Y-64623809D01*
X123085714Y-64814285D01*
X123038095Y-64909523D01*
X122942857Y-65004761D01*
X122800000Y-65052380D01*
X122561904Y-65052380D01*
X124847619Y-65052380D02*
X124276190Y-65052380D01*
X124561904Y-65052380D02*
X124561904Y-64052380D01*
X124466666Y-64195238D01*
X124371428Y-64290476D01*
X124276190Y-64338095D01*
X125419047Y-64480952D02*
X125323809Y-64433333D01*
X125276190Y-64385714D01*
X125228571Y-64290476D01*
X125228571Y-64242857D01*
X125276190Y-64147619D01*
X125323809Y-64100000D01*
X125419047Y-64052380D01*
X125609523Y-64052380D01*
X125704761Y-64100000D01*
X125752380Y-64147619D01*
X125800000Y-64242857D01*
X125800000Y-64290476D01*
X125752380Y-64385714D01*
X125704761Y-64433333D01*
X125609523Y-64480952D01*
X125419047Y-64480952D01*
X125323809Y-64528571D01*
X125276190Y-64576190D01*
X125228571Y-64671428D01*
X125228571Y-64861904D01*
X125276190Y-64957142D01*
X125323809Y-65004761D01*
X125419047Y-65052380D01*
X125609523Y-65052380D01*
X125704761Y-65004761D01*
X125752380Y-64957142D01*
X125800000Y-64861904D01*
X125800000Y-64671428D01*
X125752380Y-64576190D01*
X125704761Y-64528571D01*
X125609523Y-64480952D01*
G04 #@! TO.C,LED 19*
X127323809Y-65052380D02*
X126847619Y-65052380D01*
X126847619Y-64052380D01*
X127657142Y-64528571D02*
X127990476Y-64528571D01*
X128133333Y-65052380D02*
X127657142Y-65052380D01*
X127657142Y-64052380D01*
X128133333Y-64052380D01*
X128561904Y-65052380D02*
X128561904Y-64052380D01*
X128800000Y-64052380D01*
X128942857Y-64100000D01*
X129038095Y-64195238D01*
X129085714Y-64290476D01*
X129133333Y-64480952D01*
X129133333Y-64623809D01*
X129085714Y-64814285D01*
X129038095Y-64909523D01*
X128942857Y-65004761D01*
X128800000Y-65052380D01*
X128561904Y-65052380D01*
X130847619Y-65052380D02*
X130276190Y-65052380D01*
X130561904Y-65052380D02*
X130561904Y-64052380D01*
X130466666Y-64195238D01*
X130371428Y-64290476D01*
X130276190Y-64338095D01*
X131323809Y-65052380D02*
X131514285Y-65052380D01*
X131609523Y-65004761D01*
X131657142Y-64957142D01*
X131752380Y-64814285D01*
X131800000Y-64623809D01*
X131800000Y-64242857D01*
X131752380Y-64147619D01*
X131704761Y-64100000D01*
X131609523Y-64052380D01*
X131419047Y-64052380D01*
X131323809Y-64100000D01*
X131276190Y-64147619D01*
X131228571Y-64242857D01*
X131228571Y-64480952D01*
X131276190Y-64576190D01*
X131323809Y-64623809D01*
X131419047Y-64671428D01*
X131609523Y-64671428D01*
X131704761Y-64623809D01*
X131752380Y-64576190D01*
X131800000Y-64480952D01*
G04 #@! TO.C,LED 20*
X133423809Y-65052380D02*
X132947619Y-65052380D01*
X132947619Y-64052380D01*
X133757142Y-64528571D02*
X134090476Y-64528571D01*
X134233333Y-65052380D02*
X133757142Y-65052380D01*
X133757142Y-64052380D01*
X134233333Y-64052380D01*
X134661904Y-65052380D02*
X134661904Y-64052380D01*
X134900000Y-64052380D01*
X135042857Y-64100000D01*
X135138095Y-64195238D01*
X135185714Y-64290476D01*
X135233333Y-64480952D01*
X135233333Y-64623809D01*
X135185714Y-64814285D01*
X135138095Y-64909523D01*
X135042857Y-65004761D01*
X134900000Y-65052380D01*
X134661904Y-65052380D01*
X136376190Y-64147619D02*
X136423809Y-64100000D01*
X136519047Y-64052380D01*
X136757142Y-64052380D01*
X136852380Y-64100000D01*
X136900000Y-64147619D01*
X136947619Y-64242857D01*
X136947619Y-64338095D01*
X136900000Y-64480952D01*
X136328571Y-65052380D01*
X136947619Y-65052380D01*
X137566666Y-64052380D02*
X137661904Y-64052380D01*
X137757142Y-64100000D01*
X137804761Y-64147619D01*
X137852380Y-64242857D01*
X137900000Y-64433333D01*
X137900000Y-64671428D01*
X137852380Y-64861904D01*
X137804761Y-64957142D01*
X137757142Y-65004761D01*
X137661904Y-65052380D01*
X137566666Y-65052380D01*
X137471428Y-65004761D01*
X137423809Y-64957142D01*
X137376190Y-64861904D01*
X137328571Y-64671428D01*
X137328571Y-64433333D01*
X137376190Y-64242857D01*
X137423809Y-64147619D01*
X137471428Y-64100000D01*
X137566666Y-64052380D01*
G04 #@! TO.C,LED 21*
X139323809Y-65052380D02*
X138847619Y-65052380D01*
X138847619Y-64052380D01*
X139657142Y-64528571D02*
X139990476Y-64528571D01*
X140133333Y-65052380D02*
X139657142Y-65052380D01*
X139657142Y-64052380D01*
X140133333Y-64052380D01*
X140561904Y-65052380D02*
X140561904Y-64052380D01*
X140800000Y-64052380D01*
X140942857Y-64100000D01*
X141038095Y-64195238D01*
X141085714Y-64290476D01*
X141133333Y-64480952D01*
X141133333Y-64623809D01*
X141085714Y-64814285D01*
X141038095Y-64909523D01*
X140942857Y-65004761D01*
X140800000Y-65052380D01*
X140561904Y-65052380D01*
X142276190Y-64147619D02*
X142323809Y-64100000D01*
X142419047Y-64052380D01*
X142657142Y-64052380D01*
X142752380Y-64100000D01*
X142800000Y-64147619D01*
X142847619Y-64242857D01*
X142847619Y-64338095D01*
X142800000Y-64480952D01*
X142228571Y-65052380D01*
X142847619Y-65052380D01*
X143800000Y-65052380D02*
X143228571Y-65052380D01*
X143514285Y-65052380D02*
X143514285Y-64052380D01*
X143419047Y-64195238D01*
X143323809Y-64290476D01*
X143228571Y-64338095D01*
G04 #@! TO.C,LED 22*
X145323809Y-65052380D02*
X144847619Y-65052380D01*
X144847619Y-64052380D01*
X145657142Y-64528571D02*
X145990476Y-64528571D01*
X146133333Y-65052380D02*
X145657142Y-65052380D01*
X145657142Y-64052380D01*
X146133333Y-64052380D01*
X146561904Y-65052380D02*
X146561904Y-64052380D01*
X146800000Y-64052380D01*
X146942857Y-64100000D01*
X147038095Y-64195238D01*
X147085714Y-64290476D01*
X147133333Y-64480952D01*
X147133333Y-64623809D01*
X147085714Y-64814285D01*
X147038095Y-64909523D01*
X146942857Y-65004761D01*
X146800000Y-65052380D01*
X146561904Y-65052380D01*
X148276190Y-64147619D02*
X148323809Y-64100000D01*
X148419047Y-64052380D01*
X148657142Y-64052380D01*
X148752380Y-64100000D01*
X148800000Y-64147619D01*
X148847619Y-64242857D01*
X148847619Y-64338095D01*
X148800000Y-64480952D01*
X148228571Y-65052380D01*
X148847619Y-65052380D01*
X149228571Y-64147619D02*
X149276190Y-64100000D01*
X149371428Y-64052380D01*
X149609523Y-64052380D01*
X149704761Y-64100000D01*
X149752380Y-64147619D01*
X149800000Y-64242857D01*
X149800000Y-64338095D01*
X149752380Y-64480952D01*
X149180952Y-65052380D01*
X149800000Y-65052380D01*
G04 #@! TO.C,LED 23*
X151323809Y-65052380D02*
X150847619Y-65052380D01*
X150847619Y-64052380D01*
X151657142Y-64528571D02*
X151990476Y-64528571D01*
X152133333Y-65052380D02*
X151657142Y-65052380D01*
X151657142Y-64052380D01*
X152133333Y-64052380D01*
X152561904Y-65052380D02*
X152561904Y-64052380D01*
X152800000Y-64052380D01*
X152942857Y-64100000D01*
X153038095Y-64195238D01*
X153085714Y-64290476D01*
X153133333Y-64480952D01*
X153133333Y-64623809D01*
X153085714Y-64814285D01*
X153038095Y-64909523D01*
X152942857Y-65004761D01*
X152800000Y-65052380D01*
X152561904Y-65052380D01*
X154276190Y-64147619D02*
X154323809Y-64100000D01*
X154419047Y-64052380D01*
X154657142Y-64052380D01*
X154752380Y-64100000D01*
X154800000Y-64147619D01*
X154847619Y-64242857D01*
X154847619Y-64338095D01*
X154800000Y-64480952D01*
X154228571Y-65052380D01*
X154847619Y-65052380D01*
X155180952Y-64052380D02*
X155800000Y-64052380D01*
X155466666Y-64433333D01*
X155609523Y-64433333D01*
X155704761Y-64480952D01*
X155752380Y-64528571D01*
X155800000Y-64623809D01*
X155800000Y-64861904D01*
X155752380Y-64957142D01*
X155704761Y-65004761D01*
X155609523Y-65052380D01*
X155323809Y-65052380D01*
X155228571Y-65004761D01*
X155180952Y-64957142D01*
G04 #@! TO.C,LED 24*
X157323809Y-65052380D02*
X156847619Y-65052380D01*
X156847619Y-64052380D01*
X157657142Y-64528571D02*
X157990476Y-64528571D01*
X158133333Y-65052380D02*
X157657142Y-65052380D01*
X157657142Y-64052380D01*
X158133333Y-64052380D01*
X158561904Y-65052380D02*
X158561904Y-64052380D01*
X158800000Y-64052380D01*
X158942857Y-64100000D01*
X159038095Y-64195238D01*
X159085714Y-64290476D01*
X159133333Y-64480952D01*
X159133333Y-64623809D01*
X159085714Y-64814285D01*
X159038095Y-64909523D01*
X158942857Y-65004761D01*
X158800000Y-65052380D01*
X158561904Y-65052380D01*
X160276190Y-64147619D02*
X160323809Y-64100000D01*
X160419047Y-64052380D01*
X160657142Y-64052380D01*
X160752380Y-64100000D01*
X160800000Y-64147619D01*
X160847619Y-64242857D01*
X160847619Y-64338095D01*
X160800000Y-64480952D01*
X160228571Y-65052380D01*
X160847619Y-65052380D01*
X161704761Y-64385714D02*
X161704761Y-65052380D01*
X161466666Y-64004761D02*
X161228571Y-64719047D01*
X161847619Y-64719047D01*
G04 #@! TO.C,*
G04 #@! TD*
M02*
