G04 #@! TF.GenerationSoftware,KiCad,Pcbnew,(5.0.0)*
G04 #@! TF.CreationDate,2019-02-27T09:55:35+01:00*
G04 #@! TF.ProjectId,Potentiometer_mount_16LED,506F74656E74696F6D657465725F6D6F,rev?*
G04 #@! TF.SameCoordinates,Original*
G04 #@! TF.FileFunction,Legend,Top*
G04 #@! TF.FilePolarity,Positive*
%FSLAX46Y46*%
G04 Gerber Fmt 4.6, Leading zero omitted, Abs format (unit mm)*
G04 Created by KiCad (PCBNEW (5.0.0)) date 02/27/19 09:55:35*
%MOMM*%
%LPD*%
G01*
G04 APERTURE LIST*
%ADD10C,0.200000*%
%ADD11C,0.250000*%
%ADD12C,0.120000*%
%ADD13C,0.010000*%
%ADD14C,0.150000*%
G04 APERTURE END LIST*
D10*
X35933333Y-72102380D02*
X35361904Y-72102380D01*
X35647619Y-72102380D02*
X35647619Y-71102380D01*
X35552380Y-71245238D01*
X35457142Y-71340476D01*
X35361904Y-71388095D01*
X37790476Y-71102380D02*
X38409523Y-71102380D01*
X38076190Y-71483333D01*
X38219047Y-71483333D01*
X38314285Y-71530952D01*
X38361904Y-71578571D01*
X38409523Y-71673809D01*
X38409523Y-71911904D01*
X38361904Y-72007142D01*
X38314285Y-72054761D01*
X38219047Y-72102380D01*
X37933333Y-72102380D01*
X37838095Y-72054761D01*
X37790476Y-72007142D01*
X40838095Y-71102380D02*
X40361904Y-71102380D01*
X40314285Y-71578571D01*
X40361904Y-71530952D01*
X40457142Y-71483333D01*
X40695238Y-71483333D01*
X40790476Y-71530952D01*
X40838095Y-71578571D01*
X40885714Y-71673809D01*
X40885714Y-71911904D01*
X40838095Y-72007142D01*
X40790476Y-72054761D01*
X40695238Y-72102380D01*
X40457142Y-72102380D01*
X40361904Y-72054761D01*
X40314285Y-72007142D01*
X42742857Y-71102380D02*
X43409523Y-71102380D01*
X42980952Y-72102380D01*
X45361904Y-72102380D02*
X45552380Y-72102380D01*
X45647619Y-72054761D01*
X45695238Y-72007142D01*
X45790476Y-71864285D01*
X45838095Y-71673809D01*
X45838095Y-71292857D01*
X45790476Y-71197619D01*
X45742857Y-71150000D01*
X45647619Y-71102380D01*
X45457142Y-71102380D01*
X45361904Y-71150000D01*
X45314285Y-71197619D01*
X45266666Y-71292857D01*
X45266666Y-71530952D01*
X45314285Y-71626190D01*
X45361904Y-71673809D01*
X45457142Y-71721428D01*
X45647619Y-71721428D01*
X45742857Y-71673809D01*
X45790476Y-71626190D01*
X45838095Y-71530952D01*
X47552380Y-72102380D02*
X46980952Y-72102380D01*
X47266666Y-72102380D02*
X47266666Y-71102380D01*
X47171428Y-71245238D01*
X47076190Y-71340476D01*
X46980952Y-71388095D01*
X48504761Y-72102380D02*
X47933333Y-72102380D01*
X48219047Y-72102380D02*
X48219047Y-71102380D01*
X48123809Y-71245238D01*
X48028571Y-71340476D01*
X47933333Y-71388095D01*
X50219047Y-72102380D02*
X49647619Y-72102380D01*
X49933333Y-72102380D02*
X49933333Y-71102380D01*
X49838095Y-71245238D01*
X49742857Y-71340476D01*
X49647619Y-71388095D01*
X50552380Y-71102380D02*
X51171428Y-71102380D01*
X50838095Y-71483333D01*
X50980952Y-71483333D01*
X51076190Y-71530952D01*
X51123809Y-71578571D01*
X51171428Y-71673809D01*
X51171428Y-71911904D01*
X51123809Y-72007142D01*
X51076190Y-72054761D01*
X50980952Y-72102380D01*
X50695238Y-72102380D01*
X50599999Y-72054761D01*
X50552380Y-72007142D01*
X52885714Y-72102380D02*
X52314285Y-72102380D01*
X52599999Y-72102380D02*
X52599999Y-71102380D01*
X52504761Y-71245238D01*
X52409523Y-71340476D01*
X52314285Y-71388095D01*
X53790476Y-71102380D02*
X53314285Y-71102380D01*
X53266666Y-71578571D01*
X53314285Y-71530952D01*
X53409523Y-71483333D01*
X53647619Y-71483333D01*
X53742857Y-71530952D01*
X53790476Y-71578571D01*
X53838095Y-71673809D01*
X53838095Y-71911904D01*
X53790476Y-72007142D01*
X53742857Y-72054761D01*
X53647619Y-72102380D01*
X53409523Y-72102380D01*
X53314285Y-72054761D01*
X53266666Y-72007142D01*
X35266666Y-72897619D02*
X35314285Y-72850000D01*
X35409523Y-72802380D01*
X35647619Y-72802380D01*
X35742857Y-72850000D01*
X35790476Y-72897619D01*
X35838095Y-72992857D01*
X35838095Y-73088095D01*
X35790476Y-73230952D01*
X35219047Y-73802380D01*
X35838095Y-73802380D01*
X38219047Y-73135714D02*
X38219047Y-73802380D01*
X37980952Y-72754761D02*
X37742857Y-73469047D01*
X38361904Y-73469047D01*
X40695238Y-72802380D02*
X40504761Y-72802380D01*
X40409523Y-72850000D01*
X40361904Y-72897619D01*
X40266666Y-73040476D01*
X40219047Y-73230952D01*
X40219047Y-73611904D01*
X40266666Y-73707142D01*
X40314285Y-73754761D01*
X40409523Y-73802380D01*
X40600000Y-73802380D01*
X40695238Y-73754761D01*
X40742857Y-73707142D01*
X40790476Y-73611904D01*
X40790476Y-73373809D01*
X40742857Y-73278571D01*
X40695238Y-73230952D01*
X40600000Y-73183333D01*
X40409523Y-73183333D01*
X40314285Y-73230952D01*
X40266666Y-73278571D01*
X40219047Y-73373809D01*
X42885714Y-73230952D02*
X42790476Y-73183333D01*
X42742857Y-73135714D01*
X42695238Y-73040476D01*
X42695238Y-72992857D01*
X42742857Y-72897619D01*
X42790476Y-72850000D01*
X42885714Y-72802380D01*
X43076190Y-72802380D01*
X43171428Y-72850000D01*
X43219047Y-72897619D01*
X43266666Y-72992857D01*
X43266666Y-73040476D01*
X43219047Y-73135714D01*
X43171428Y-73183333D01*
X43076190Y-73230952D01*
X42885714Y-73230952D01*
X42790476Y-73278571D01*
X42742857Y-73326190D01*
X42695238Y-73421428D01*
X42695238Y-73611904D01*
X42742857Y-73707142D01*
X42790476Y-73754761D01*
X42885714Y-73802380D01*
X43076190Y-73802380D01*
X43171428Y-73754761D01*
X43219047Y-73707142D01*
X43266666Y-73611904D01*
X43266666Y-73421428D01*
X43219047Y-73326190D01*
X43171428Y-73278571D01*
X43076190Y-73230952D01*
X44980952Y-73802380D02*
X44409523Y-73802380D01*
X44695238Y-73802380D02*
X44695238Y-72802380D01*
X44600000Y-72945238D01*
X44504761Y-73040476D01*
X44409523Y-73088095D01*
X45600000Y-72802380D02*
X45695238Y-72802380D01*
X45790476Y-72850000D01*
X45838095Y-72897619D01*
X45885714Y-72992857D01*
X45933333Y-73183333D01*
X45933333Y-73421428D01*
X45885714Y-73611904D01*
X45838095Y-73707142D01*
X45790476Y-73754761D01*
X45695238Y-73802380D01*
X45600000Y-73802380D01*
X45504761Y-73754761D01*
X45457142Y-73707142D01*
X45409523Y-73611904D01*
X45361904Y-73421428D01*
X45361904Y-73183333D01*
X45409523Y-72992857D01*
X45457142Y-72897619D01*
X45504761Y-72850000D01*
X45600000Y-72802380D01*
X47647619Y-73802380D02*
X47076190Y-73802380D01*
X47361904Y-73802380D02*
X47361904Y-72802380D01*
X47266666Y-72945238D01*
X47171428Y-73040476D01*
X47076190Y-73088095D01*
X48028571Y-72897619D02*
X48076190Y-72850000D01*
X48171428Y-72802380D01*
X48409523Y-72802380D01*
X48504761Y-72850000D01*
X48552380Y-72897619D01*
X48600000Y-72992857D01*
X48600000Y-73088095D01*
X48552380Y-73230952D01*
X47980952Y-73802380D01*
X48600000Y-73802380D01*
X50314285Y-73802380D02*
X49742857Y-73802380D01*
X50028571Y-73802380D02*
X50028571Y-72802380D01*
X49933333Y-72945238D01*
X49838095Y-73040476D01*
X49742857Y-73088095D01*
X51171428Y-73135714D02*
X51171428Y-73802380D01*
X50933333Y-72754761D02*
X50695238Y-73469047D01*
X51314285Y-73469047D01*
X52980952Y-73802380D02*
X52409523Y-73802380D01*
X52695238Y-73802380D02*
X52695238Y-72802380D01*
X52600000Y-72945238D01*
X52504761Y-73040476D01*
X52409523Y-73088095D01*
X53838095Y-72802380D02*
X53647619Y-72802380D01*
X53552380Y-72850000D01*
X53504761Y-72897619D01*
X53409523Y-73040476D01*
X53361904Y-73230952D01*
X53361904Y-73611904D01*
X53409523Y-73707142D01*
X53457142Y-73754761D01*
X53552380Y-73802380D01*
X53742857Y-73802380D01*
X53838095Y-73754761D01*
X53885714Y-73707142D01*
X53933333Y-73611904D01*
X53933333Y-73373809D01*
X53885714Y-73278571D01*
X53838095Y-73230952D01*
X53742857Y-73183333D01*
X53552380Y-73183333D01*
X53457142Y-73230952D01*
X53409523Y-73278571D01*
X53361904Y-73373809D01*
X79133333Y-72102380D02*
X78561904Y-72102380D01*
X78847619Y-72102380D02*
X78847619Y-71102380D01*
X78752380Y-71245238D01*
X78657142Y-71340476D01*
X78561904Y-71388095D01*
X80990476Y-71102380D02*
X81609523Y-71102380D01*
X81276190Y-71483333D01*
X81419047Y-71483333D01*
X81514285Y-71530952D01*
X81561904Y-71578571D01*
X81609523Y-71673809D01*
X81609523Y-71911904D01*
X81561904Y-72007142D01*
X81514285Y-72054761D01*
X81419047Y-72102380D01*
X81133333Y-72102380D01*
X81038095Y-72054761D01*
X80990476Y-72007142D01*
X84038095Y-71102380D02*
X83561904Y-71102380D01*
X83514285Y-71578571D01*
X83561904Y-71530952D01*
X83657142Y-71483333D01*
X83895238Y-71483333D01*
X83990476Y-71530952D01*
X84038095Y-71578571D01*
X84085714Y-71673809D01*
X84085714Y-71911904D01*
X84038095Y-72007142D01*
X83990476Y-72054761D01*
X83895238Y-72102380D01*
X83657142Y-72102380D01*
X83561904Y-72054761D01*
X83514285Y-72007142D01*
X85942857Y-71102380D02*
X86609523Y-71102380D01*
X86180952Y-72102380D01*
X88561904Y-72102380D02*
X88752380Y-72102380D01*
X88847619Y-72054761D01*
X88895238Y-72007142D01*
X88990476Y-71864285D01*
X89038095Y-71673809D01*
X89038095Y-71292857D01*
X88990476Y-71197619D01*
X88942857Y-71150000D01*
X88847619Y-71102380D01*
X88657142Y-71102380D01*
X88561904Y-71150000D01*
X88514285Y-71197619D01*
X88466666Y-71292857D01*
X88466666Y-71530952D01*
X88514285Y-71626190D01*
X88561904Y-71673809D01*
X88657142Y-71721428D01*
X88847619Y-71721428D01*
X88942857Y-71673809D01*
X88990476Y-71626190D01*
X89038095Y-71530952D01*
X90752380Y-72102380D02*
X90180952Y-72102380D01*
X90466666Y-72102380D02*
X90466666Y-71102380D01*
X90371428Y-71245238D01*
X90276190Y-71340476D01*
X90180952Y-71388095D01*
X91704761Y-72102380D02*
X91133333Y-72102380D01*
X91419047Y-72102380D02*
X91419047Y-71102380D01*
X91323809Y-71245238D01*
X91228571Y-71340476D01*
X91133333Y-71388095D01*
X93419047Y-72102380D02*
X92847619Y-72102380D01*
X93133333Y-72102380D02*
X93133333Y-71102380D01*
X93038095Y-71245238D01*
X92942857Y-71340476D01*
X92847619Y-71388095D01*
X93752380Y-71102380D02*
X94371428Y-71102380D01*
X94038095Y-71483333D01*
X94180952Y-71483333D01*
X94276190Y-71530952D01*
X94323809Y-71578571D01*
X94371428Y-71673809D01*
X94371428Y-71911904D01*
X94323809Y-72007142D01*
X94276190Y-72054761D01*
X94180952Y-72102380D01*
X93895238Y-72102380D01*
X93799999Y-72054761D01*
X93752380Y-72007142D01*
X96085714Y-72102380D02*
X95514285Y-72102380D01*
X95800000Y-72102380D02*
X95800000Y-71102380D01*
X95704761Y-71245238D01*
X95609523Y-71340476D01*
X95514285Y-71388095D01*
X96990476Y-71102380D02*
X96514285Y-71102380D01*
X96466666Y-71578571D01*
X96514285Y-71530952D01*
X96609523Y-71483333D01*
X96847619Y-71483333D01*
X96942857Y-71530952D01*
X96990476Y-71578571D01*
X97038095Y-71673809D01*
X97038095Y-71911904D01*
X96990476Y-72007142D01*
X96942857Y-72054761D01*
X96847619Y-72102380D01*
X96609523Y-72102380D01*
X96514285Y-72054761D01*
X96466666Y-72007142D01*
X78466666Y-72897619D02*
X78514285Y-72850000D01*
X78609523Y-72802380D01*
X78847619Y-72802380D01*
X78942857Y-72850000D01*
X78990476Y-72897619D01*
X79038095Y-72992857D01*
X79038095Y-73088095D01*
X78990476Y-73230952D01*
X78419047Y-73802380D01*
X79038095Y-73802380D01*
X81419047Y-73135714D02*
X81419047Y-73802380D01*
X81180952Y-72754761D02*
X80942857Y-73469047D01*
X81561904Y-73469047D01*
X83895238Y-72802380D02*
X83704761Y-72802380D01*
X83609523Y-72850000D01*
X83561904Y-72897619D01*
X83466666Y-73040476D01*
X83419047Y-73230952D01*
X83419047Y-73611904D01*
X83466666Y-73707142D01*
X83514285Y-73754761D01*
X83609523Y-73802380D01*
X83800000Y-73802380D01*
X83895238Y-73754761D01*
X83942857Y-73707142D01*
X83990476Y-73611904D01*
X83990476Y-73373809D01*
X83942857Y-73278571D01*
X83895238Y-73230952D01*
X83800000Y-73183333D01*
X83609523Y-73183333D01*
X83514285Y-73230952D01*
X83466666Y-73278571D01*
X83419047Y-73373809D01*
X86085714Y-73230952D02*
X85990476Y-73183333D01*
X85942857Y-73135714D01*
X85895238Y-73040476D01*
X85895238Y-72992857D01*
X85942857Y-72897619D01*
X85990476Y-72850000D01*
X86085714Y-72802380D01*
X86276190Y-72802380D01*
X86371428Y-72850000D01*
X86419047Y-72897619D01*
X86466666Y-72992857D01*
X86466666Y-73040476D01*
X86419047Y-73135714D01*
X86371428Y-73183333D01*
X86276190Y-73230952D01*
X86085714Y-73230952D01*
X85990476Y-73278571D01*
X85942857Y-73326190D01*
X85895238Y-73421428D01*
X85895238Y-73611904D01*
X85942857Y-73707142D01*
X85990476Y-73754761D01*
X86085714Y-73802380D01*
X86276190Y-73802380D01*
X86371428Y-73754761D01*
X86419047Y-73707142D01*
X86466666Y-73611904D01*
X86466666Y-73421428D01*
X86419047Y-73326190D01*
X86371428Y-73278571D01*
X86276190Y-73230952D01*
X88180952Y-73802380D02*
X87609523Y-73802380D01*
X87895238Y-73802380D02*
X87895238Y-72802380D01*
X87800000Y-72945238D01*
X87704761Y-73040476D01*
X87609523Y-73088095D01*
X88800000Y-72802380D02*
X88895238Y-72802380D01*
X88990476Y-72850000D01*
X89038095Y-72897619D01*
X89085714Y-72992857D01*
X89133333Y-73183333D01*
X89133333Y-73421428D01*
X89085714Y-73611904D01*
X89038095Y-73707142D01*
X88990476Y-73754761D01*
X88895238Y-73802380D01*
X88800000Y-73802380D01*
X88704761Y-73754761D01*
X88657142Y-73707142D01*
X88609523Y-73611904D01*
X88561904Y-73421428D01*
X88561904Y-73183333D01*
X88609523Y-72992857D01*
X88657142Y-72897619D01*
X88704761Y-72850000D01*
X88800000Y-72802380D01*
X90847619Y-73802380D02*
X90276190Y-73802380D01*
X90561904Y-73802380D02*
X90561904Y-72802380D01*
X90466666Y-72945238D01*
X90371428Y-73040476D01*
X90276190Y-73088095D01*
X91228571Y-72897619D02*
X91276190Y-72850000D01*
X91371428Y-72802380D01*
X91609523Y-72802380D01*
X91704761Y-72850000D01*
X91752380Y-72897619D01*
X91800000Y-72992857D01*
X91800000Y-73088095D01*
X91752380Y-73230952D01*
X91180952Y-73802380D01*
X91800000Y-73802380D01*
X93514285Y-73802380D02*
X92942857Y-73802380D01*
X93228571Y-73802380D02*
X93228571Y-72802380D01*
X93133333Y-72945238D01*
X93038095Y-73040476D01*
X92942857Y-73088095D01*
X94371428Y-73135714D02*
X94371428Y-73802380D01*
X94133333Y-72754761D02*
X93895238Y-73469047D01*
X94514285Y-73469047D01*
X96180952Y-73802380D02*
X95609523Y-73802380D01*
X95895238Y-73802380D02*
X95895238Y-72802380D01*
X95800000Y-72945238D01*
X95704761Y-73040476D01*
X95609523Y-73088095D01*
X97038095Y-72802380D02*
X96847619Y-72802380D01*
X96752380Y-72850000D01*
X96704761Y-72897619D01*
X96609523Y-73040476D01*
X96561904Y-73230952D01*
X96561904Y-73611904D01*
X96609523Y-73707142D01*
X96657142Y-73754761D01*
X96752380Y-73802380D01*
X96942857Y-73802380D01*
X97038095Y-73754761D01*
X97085714Y-73707142D01*
X97133333Y-73611904D01*
X97133333Y-73373809D01*
X97085714Y-73278571D01*
X97038095Y-73230952D01*
X96942857Y-73183333D01*
X96752380Y-73183333D01*
X96657142Y-73230952D01*
X96609523Y-73278571D01*
X96561904Y-73373809D01*
D11*
X42585714Y-68878571D02*
X42585714Y-67378571D01*
X43157142Y-67378571D01*
X43299999Y-67450000D01*
X43371428Y-67521428D01*
X43442857Y-67664285D01*
X43442857Y-67878571D01*
X43371428Y-68021428D01*
X43299999Y-68092857D01*
X43157142Y-68164285D01*
X42585714Y-68164285D01*
X44299999Y-68878571D02*
X44157142Y-68807142D01*
X44085714Y-68735714D01*
X44014285Y-68592857D01*
X44014285Y-68164285D01*
X44085714Y-68021428D01*
X44157142Y-67950000D01*
X44299999Y-67878571D01*
X44514285Y-67878571D01*
X44657142Y-67950000D01*
X44728571Y-68021428D01*
X44799999Y-68164285D01*
X44799999Y-68592857D01*
X44728571Y-68735714D01*
X44657142Y-68807142D01*
X44514285Y-68878571D01*
X44299999Y-68878571D01*
X45228571Y-67878571D02*
X45799999Y-67878571D01*
X45442857Y-67378571D02*
X45442857Y-68664285D01*
X45514285Y-68807142D01*
X45657142Y-68878571D01*
X45799999Y-68878571D01*
X46871428Y-68807142D02*
X46728571Y-68878571D01*
X46442857Y-68878571D01*
X46299999Y-68807142D01*
X46228571Y-68664285D01*
X46228571Y-68092857D01*
X46299999Y-67950000D01*
X46442857Y-67878571D01*
X46728571Y-67878571D01*
X46871428Y-67950000D01*
X46942857Y-68092857D01*
X46942857Y-68235714D01*
X46228571Y-68378571D01*
X47585714Y-67878571D02*
X47585714Y-68878571D01*
X47585714Y-68021428D02*
X47657142Y-67950000D01*
X47799999Y-67878571D01*
X48014285Y-67878571D01*
X48157142Y-67950000D01*
X48228571Y-68092857D01*
X48228571Y-68878571D01*
X48728571Y-67878571D02*
X49299999Y-67878571D01*
X48942857Y-67378571D02*
X48942857Y-68664285D01*
X49014285Y-68807142D01*
X49157142Y-68878571D01*
X49299999Y-68878571D01*
X49799999Y-68878571D02*
X49799999Y-67878571D01*
X49799999Y-67378571D02*
X49728571Y-67450000D01*
X49799999Y-67521428D01*
X49871428Y-67450000D01*
X49799999Y-67378571D01*
X49799999Y-67521428D01*
X50728571Y-68878571D02*
X50585714Y-68807142D01*
X50514285Y-68735714D01*
X50442857Y-68592857D01*
X50442857Y-68164285D01*
X50514285Y-68021428D01*
X50585714Y-67950000D01*
X50728571Y-67878571D01*
X50942857Y-67878571D01*
X51085714Y-67950000D01*
X51157142Y-68021428D01*
X51228571Y-68164285D01*
X51228571Y-68592857D01*
X51157142Y-68735714D01*
X51085714Y-68807142D01*
X50942857Y-68878571D01*
X50728571Y-68878571D01*
X51871428Y-68878571D02*
X51871428Y-67878571D01*
X51871428Y-68021428D02*
X51942857Y-67950000D01*
X52085714Y-67878571D01*
X52299999Y-67878571D01*
X52442857Y-67950000D01*
X52514285Y-68092857D01*
X52514285Y-68878571D01*
X52514285Y-68092857D02*
X52585714Y-67950000D01*
X52728571Y-67878571D01*
X52942857Y-67878571D01*
X53085714Y-67950000D01*
X53157142Y-68092857D01*
X53157142Y-68878571D01*
X54442857Y-68807142D02*
X54299999Y-68878571D01*
X54014285Y-68878571D01*
X53871428Y-68807142D01*
X53799999Y-68664285D01*
X53799999Y-68092857D01*
X53871428Y-67950000D01*
X54014285Y-67878571D01*
X54299999Y-67878571D01*
X54442857Y-67950000D01*
X54514285Y-68092857D01*
X54514285Y-68235714D01*
X53799999Y-68378571D01*
X54942857Y-67878571D02*
X55514285Y-67878571D01*
X55157142Y-67378571D02*
X55157142Y-68664285D01*
X55228571Y-68807142D01*
X55371428Y-68878571D01*
X55514285Y-68878571D01*
X56585714Y-68807142D02*
X56442857Y-68878571D01*
X56157142Y-68878571D01*
X56014285Y-68807142D01*
X55942857Y-68664285D01*
X55942857Y-68092857D01*
X56014285Y-67950000D01*
X56157142Y-67878571D01*
X56442857Y-67878571D01*
X56585714Y-67950000D01*
X56657142Y-68092857D01*
X56657142Y-68235714D01*
X55942857Y-68378571D01*
X57299999Y-68878571D02*
X57299999Y-67878571D01*
X57299999Y-68164285D02*
X57371428Y-68021428D01*
X57442857Y-67950000D01*
X57585714Y-67878571D01*
X57728571Y-67878571D01*
X59871428Y-68092857D02*
X60085714Y-68164285D01*
X60157142Y-68235714D01*
X60228571Y-68378571D01*
X60228571Y-68592857D01*
X60157142Y-68735714D01*
X60085714Y-68807142D01*
X59942857Y-68878571D01*
X59371428Y-68878571D01*
X59371428Y-67378571D01*
X59871428Y-67378571D01*
X60014285Y-67450000D01*
X60085714Y-67521428D01*
X60157142Y-67664285D01*
X60157142Y-67807142D01*
X60085714Y-67950000D01*
X60014285Y-68021428D01*
X59871428Y-68092857D01*
X59371428Y-68092857D01*
X61085714Y-68878571D02*
X60942857Y-68807142D01*
X60871428Y-68735714D01*
X60799999Y-68592857D01*
X60799999Y-68164285D01*
X60871428Y-68021428D01*
X60942857Y-67950000D01*
X61085714Y-67878571D01*
X61299999Y-67878571D01*
X61442857Y-67950000D01*
X61514285Y-68021428D01*
X61585714Y-68164285D01*
X61585714Y-68592857D01*
X61514285Y-68735714D01*
X61442857Y-68807142D01*
X61299999Y-68878571D01*
X61085714Y-68878571D01*
X62871428Y-68878571D02*
X62871428Y-68092857D01*
X62799999Y-67950000D01*
X62657142Y-67878571D01*
X62371428Y-67878571D01*
X62228571Y-67950000D01*
X62871428Y-68807142D02*
X62728571Y-68878571D01*
X62371428Y-68878571D01*
X62228571Y-68807142D01*
X62157142Y-68664285D01*
X62157142Y-68521428D01*
X62228571Y-68378571D01*
X62371428Y-68307142D01*
X62728571Y-68307142D01*
X62871428Y-68235714D01*
X63585714Y-68878571D02*
X63585714Y-67878571D01*
X63585714Y-68164285D02*
X63657142Y-68021428D01*
X63728571Y-67950000D01*
X63871428Y-67878571D01*
X64014285Y-67878571D01*
X65157142Y-68878571D02*
X65157142Y-67378571D01*
X65157142Y-68807142D02*
X65014285Y-68878571D01*
X64728571Y-68878571D01*
X64585714Y-68807142D01*
X64514285Y-68735714D01*
X64442857Y-68592857D01*
X64442857Y-68164285D01*
X64514285Y-68021428D01*
X64585714Y-67950000D01*
X64728571Y-67878571D01*
X65014285Y-67878571D01*
X65157142Y-67950000D01*
X66799999Y-67878571D02*
X67371428Y-67878571D01*
X67014285Y-68878571D02*
X67014285Y-67592857D01*
X67085714Y-67450000D01*
X67228571Y-67378571D01*
X67371428Y-67378571D01*
X68085714Y-68878571D02*
X67942857Y-68807142D01*
X67871428Y-68735714D01*
X67800000Y-68592857D01*
X67800000Y-68164285D01*
X67871428Y-68021428D01*
X67942857Y-67950000D01*
X68085714Y-67878571D01*
X68300000Y-67878571D01*
X68442857Y-67950000D01*
X68514285Y-68021428D01*
X68585714Y-68164285D01*
X68585714Y-68592857D01*
X68514285Y-68735714D01*
X68442857Y-68807142D01*
X68300000Y-68878571D01*
X68085714Y-68878571D01*
X69228571Y-68878571D02*
X69228571Y-67878571D01*
X69228571Y-68164285D02*
X69300000Y-68021428D01*
X69371428Y-67950000D01*
X69514285Y-67878571D01*
X69657142Y-67878571D01*
X72085714Y-68878571D02*
X71228571Y-68878571D01*
X71657142Y-68878571D02*
X71657142Y-67378571D01*
X71514285Y-67592857D01*
X71371428Y-67735714D01*
X71228571Y-67807142D01*
X73371428Y-67378571D02*
X73085714Y-67378571D01*
X72942857Y-67450000D01*
X72871428Y-67521428D01*
X72728571Y-67735714D01*
X72657142Y-68021428D01*
X72657142Y-68592857D01*
X72728571Y-68735714D01*
X72800000Y-68807142D01*
X72942857Y-68878571D01*
X73228571Y-68878571D01*
X73371428Y-68807142D01*
X73442857Y-68735714D01*
X73514285Y-68592857D01*
X73514285Y-68235714D01*
X73442857Y-68092857D01*
X73371428Y-68021428D01*
X73228571Y-67950000D01*
X72942857Y-67950000D01*
X72800000Y-68021428D01*
X72728571Y-68092857D01*
X72657142Y-68235714D01*
X76014285Y-68878571D02*
X75300000Y-68878571D01*
X75300000Y-67378571D01*
X76514285Y-68092857D02*
X77014285Y-68092857D01*
X77228571Y-68878571D02*
X76514285Y-68878571D01*
X76514285Y-67378571D01*
X77228571Y-67378571D01*
X77871428Y-68878571D02*
X77871428Y-67378571D01*
X78228571Y-67378571D01*
X78442857Y-67450000D01*
X78585714Y-67592857D01*
X78657142Y-67735714D01*
X78728571Y-68021428D01*
X78728571Y-68235714D01*
X78657142Y-68521428D01*
X78585714Y-68664285D01*
X78442857Y-68807142D01*
X78228571Y-68878571D01*
X77871428Y-68878571D01*
X81371428Y-68735714D02*
X81300000Y-68807142D01*
X81085714Y-68878571D01*
X80942857Y-68878571D01*
X80728571Y-68807142D01*
X80585714Y-68664285D01*
X80514285Y-68521428D01*
X80442857Y-68235714D01*
X80442857Y-68021428D01*
X80514285Y-67735714D01*
X80585714Y-67592857D01*
X80728571Y-67450000D01*
X80942857Y-67378571D01*
X81085714Y-67378571D01*
X81300000Y-67450000D01*
X81371428Y-67521428D01*
X82014285Y-68878571D02*
X82014285Y-67378571D01*
X82657142Y-68878571D02*
X82657142Y-68092857D01*
X82585714Y-67950000D01*
X82442857Y-67878571D01*
X82228571Y-67878571D01*
X82085714Y-67950000D01*
X82014285Y-68021428D01*
X84014285Y-68878571D02*
X84014285Y-68092857D01*
X83942857Y-67950000D01*
X83800000Y-67878571D01*
X83514285Y-67878571D01*
X83371428Y-67950000D01*
X84014285Y-68807142D02*
X83871428Y-68878571D01*
X83514285Y-68878571D01*
X83371428Y-68807142D01*
X83300000Y-68664285D01*
X83300000Y-68521428D01*
X83371428Y-68378571D01*
X83514285Y-68307142D01*
X83871428Y-68307142D01*
X84014285Y-68235714D01*
X84728571Y-67878571D02*
X84728571Y-68878571D01*
X84728571Y-68021428D02*
X84800000Y-67950000D01*
X84942857Y-67878571D01*
X85157142Y-67878571D01*
X85300000Y-67950000D01*
X85371428Y-68092857D01*
X85371428Y-68878571D01*
X86085714Y-67878571D02*
X86085714Y-68878571D01*
X86085714Y-68021428D02*
X86157142Y-67950000D01*
X86300000Y-67878571D01*
X86514285Y-67878571D01*
X86657142Y-67950000D01*
X86728571Y-68092857D01*
X86728571Y-68878571D01*
X88014285Y-68807142D02*
X87871428Y-68878571D01*
X87585714Y-68878571D01*
X87442857Y-68807142D01*
X87371428Y-68664285D01*
X87371428Y-68092857D01*
X87442857Y-67950000D01*
X87585714Y-67878571D01*
X87871428Y-67878571D01*
X88014285Y-67950000D01*
X88085714Y-68092857D01*
X88085714Y-68235714D01*
X87371428Y-68378571D01*
X88942857Y-68878571D02*
X88800000Y-68807142D01*
X88728571Y-68664285D01*
X88728571Y-67378571D01*
X89442857Y-68807142D02*
X89585714Y-68878571D01*
X89871428Y-68878571D01*
X90014285Y-68807142D01*
X90085714Y-68664285D01*
X90085714Y-68592857D01*
X90014285Y-68450000D01*
X89871428Y-68378571D01*
X89657142Y-68378571D01*
X89514285Y-68307142D01*
X89442857Y-68164285D01*
X89442857Y-68092857D01*
X89514285Y-67950000D01*
X89657142Y-67878571D01*
X89871428Y-67878571D01*
X90014285Y-67950000D01*
D12*
G04 #@! TO.C, LED 11*
X83790000Y-43880000D02*
X83790000Y-63120000D01*
X78750000Y-43880000D02*
X78750000Y-63120000D01*
X83790000Y-43880000D02*
X78750000Y-43880000D01*
X83790000Y-63120000D02*
X78750000Y-63120000D01*
X82570000Y-42360000D02*
X82570000Y-43879000D01*
X79970000Y-42360000D02*
X79970000Y-43879000D01*
X82570000Y-42360000D02*
X79970000Y-42360000D01*
X82570000Y-43879000D02*
X79970000Y-43879000D01*
X81270000Y-42360000D02*
X81270000Y-43119000D01*
G04 #@! TO.C,LED 1*
X21270000Y-42360000D02*
X21270000Y-43119000D01*
X22570000Y-43879000D02*
X19970000Y-43879000D01*
X22570000Y-42360000D02*
X19970000Y-42360000D01*
X19970000Y-42360000D02*
X19970000Y-43879000D01*
X22570000Y-42360000D02*
X22570000Y-43879000D01*
X23790000Y-63120000D02*
X18750000Y-63120000D01*
X23790000Y-43880000D02*
X18750000Y-43880000D01*
X18750000Y-43880000D02*
X18750000Y-63120000D01*
X23790000Y-43880000D02*
X23790000Y-63120000D01*
G04 #@! TO.C,LED 2*
X29790000Y-43880000D02*
X29790000Y-63120000D01*
X24750000Y-43880000D02*
X24750000Y-63120000D01*
X29790000Y-43880000D02*
X24750000Y-43880000D01*
X29790000Y-63120000D02*
X24750000Y-63120000D01*
X28570000Y-42360000D02*
X28570000Y-43879000D01*
X25970000Y-42360000D02*
X25970000Y-43879000D01*
X28570000Y-42360000D02*
X25970000Y-42360000D01*
X28570000Y-43879000D02*
X25970000Y-43879000D01*
X27270000Y-42360000D02*
X27270000Y-43119000D01*
G04 #@! TO.C,LED 3*
X33270000Y-42360000D02*
X33270000Y-43119000D01*
X34570000Y-43879000D02*
X31970000Y-43879000D01*
X34570000Y-42360000D02*
X31970000Y-42360000D01*
X31970000Y-42360000D02*
X31970000Y-43879000D01*
X34570000Y-42360000D02*
X34570000Y-43879000D01*
X35790000Y-63120000D02*
X30750000Y-63120000D01*
X35790000Y-43880000D02*
X30750000Y-43880000D01*
X30750000Y-43880000D02*
X30750000Y-63120000D01*
X35790000Y-43880000D02*
X35790000Y-63120000D01*
G04 #@! TO.C,LED 4*
X41790000Y-43880000D02*
X41790000Y-63120000D01*
X36750000Y-43880000D02*
X36750000Y-63120000D01*
X41790000Y-43880000D02*
X36750000Y-43880000D01*
X41790000Y-63120000D02*
X36750000Y-63120000D01*
X40570000Y-42360000D02*
X40570000Y-43879000D01*
X37970000Y-42360000D02*
X37970000Y-43879000D01*
X40570000Y-42360000D02*
X37970000Y-42360000D01*
X40570000Y-43879000D02*
X37970000Y-43879000D01*
X39270000Y-42360000D02*
X39270000Y-43119000D01*
G04 #@! TO.C,LED 5*
X47790000Y-43880000D02*
X47790000Y-63120000D01*
X42750000Y-43880000D02*
X42750000Y-63120000D01*
X47790000Y-43880000D02*
X42750000Y-43880000D01*
X47790000Y-63120000D02*
X42750000Y-63120000D01*
X46570000Y-42360000D02*
X46570000Y-43879000D01*
X43970000Y-42360000D02*
X43970000Y-43879000D01*
X46570000Y-42360000D02*
X43970000Y-42360000D01*
X46570000Y-43879000D02*
X43970000Y-43879000D01*
X45270000Y-42360000D02*
X45270000Y-43119000D01*
G04 #@! TO.C,LED 6*
X51270000Y-42360000D02*
X51270000Y-43119000D01*
X52570000Y-43879000D02*
X49970000Y-43879000D01*
X52570000Y-42360000D02*
X49970000Y-42360000D01*
X49970000Y-42360000D02*
X49970000Y-43879000D01*
X52570000Y-42360000D02*
X52570000Y-43879000D01*
X53790000Y-63120000D02*
X48750000Y-63120000D01*
X53790000Y-43880000D02*
X48750000Y-43880000D01*
X48750000Y-43880000D02*
X48750000Y-63120000D01*
X53790000Y-43880000D02*
X53790000Y-63120000D01*
G04 #@! TO.C,LED 7*
X59790000Y-43880000D02*
X59790000Y-63120000D01*
X54750000Y-43880000D02*
X54750000Y-63120000D01*
X59790000Y-43880000D02*
X54750000Y-43880000D01*
X59790000Y-63120000D02*
X54750000Y-63120000D01*
X58570000Y-42360000D02*
X58570000Y-43879000D01*
X55970000Y-42360000D02*
X55970000Y-43879000D01*
X58570000Y-42360000D02*
X55970000Y-42360000D01*
X58570000Y-43879000D02*
X55970000Y-43879000D01*
X57270000Y-42360000D02*
X57270000Y-43119000D01*
G04 #@! TO.C,LED 8*
X63270000Y-42360000D02*
X63270000Y-43119000D01*
X64570000Y-43879000D02*
X61970000Y-43879000D01*
X64570000Y-42360000D02*
X61970000Y-42360000D01*
X61970000Y-42360000D02*
X61970000Y-43879000D01*
X64570000Y-42360000D02*
X64570000Y-43879000D01*
X65790000Y-63120000D02*
X60750000Y-63120000D01*
X65790000Y-43880000D02*
X60750000Y-43880000D01*
X60750000Y-43880000D02*
X60750000Y-63120000D01*
X65790000Y-43880000D02*
X65790000Y-63120000D01*
G04 #@! TO.C,LED 9*
X71790000Y-43880000D02*
X71790000Y-63120000D01*
X66750000Y-43880000D02*
X66750000Y-63120000D01*
X71790000Y-43880000D02*
X66750000Y-43880000D01*
X71790000Y-63120000D02*
X66750000Y-63120000D01*
X70570000Y-42360000D02*
X70570000Y-43879000D01*
X67970000Y-42360000D02*
X67970000Y-43879000D01*
X70570000Y-42360000D02*
X67970000Y-42360000D01*
X70570000Y-43879000D02*
X67970000Y-43879000D01*
X69270000Y-42360000D02*
X69270000Y-43119000D01*
G04 #@! TO.C,LED 10*
X75270000Y-42360000D02*
X75270000Y-43119000D01*
X76570000Y-43879000D02*
X73970000Y-43879000D01*
X76570000Y-42360000D02*
X73970000Y-42360000D01*
X73970000Y-42360000D02*
X73970000Y-43879000D01*
X76570000Y-42360000D02*
X76570000Y-43879000D01*
X77790000Y-63120000D02*
X72750000Y-63120000D01*
X77790000Y-43880000D02*
X72750000Y-43880000D01*
X72750000Y-43880000D02*
X72750000Y-63120000D01*
X77790000Y-43880000D02*
X77790000Y-63120000D01*
G04 #@! TO.C,LED 12*
X89790000Y-43880000D02*
X89790000Y-63120000D01*
X84750000Y-43880000D02*
X84750000Y-63120000D01*
X89790000Y-43880000D02*
X84750000Y-43880000D01*
X89790000Y-63120000D02*
X84750000Y-63120000D01*
X88570000Y-42360000D02*
X88570000Y-43879000D01*
X85970000Y-42360000D02*
X85970000Y-43879000D01*
X88570000Y-42360000D02*
X85970000Y-42360000D01*
X88570000Y-43879000D02*
X85970000Y-43879000D01*
X87270000Y-42360000D02*
X87270000Y-43119000D01*
G04 #@! TO.C,LED 13*
X95790000Y-43880000D02*
X95790000Y-63120000D01*
X90750000Y-43880000D02*
X90750000Y-63120000D01*
X95790000Y-43880000D02*
X90750000Y-43880000D01*
X95790000Y-63120000D02*
X90750000Y-63120000D01*
X94570000Y-42360000D02*
X94570000Y-43879000D01*
X91970000Y-42360000D02*
X91970000Y-43879000D01*
X94570000Y-42360000D02*
X91970000Y-42360000D01*
X94570000Y-43879000D02*
X91970000Y-43879000D01*
X93270000Y-42360000D02*
X93270000Y-43119000D01*
G04 #@! TO.C,LED 14*
X99270000Y-42360000D02*
X99270000Y-43119000D01*
X100570000Y-43879000D02*
X97970000Y-43879000D01*
X100570000Y-42360000D02*
X97970000Y-42360000D01*
X97970000Y-42360000D02*
X97970000Y-43879000D01*
X100570000Y-42360000D02*
X100570000Y-43879000D01*
X101790000Y-63120000D02*
X96750000Y-63120000D01*
X101790000Y-43880000D02*
X96750000Y-43880000D01*
X96750000Y-43880000D02*
X96750000Y-63120000D01*
X101790000Y-43880000D02*
X101790000Y-63120000D01*
G04 #@! TO.C,LED 15*
X107790000Y-43880000D02*
X107790000Y-63120000D01*
X102750000Y-43880000D02*
X102750000Y-63120000D01*
X107790000Y-43880000D02*
X102750000Y-43880000D01*
X107790000Y-63120000D02*
X102750000Y-63120000D01*
X106570000Y-42360000D02*
X106570000Y-43879000D01*
X103970000Y-42360000D02*
X103970000Y-43879000D01*
X106570000Y-42360000D02*
X103970000Y-42360000D01*
X106570000Y-43879000D02*
X103970000Y-43879000D01*
X105270000Y-42360000D02*
X105270000Y-43119000D01*
G04 #@! TO.C,LED 16*
X111270000Y-42360000D02*
X111270000Y-43119000D01*
X112570000Y-43879000D02*
X109970000Y-43879000D01*
X112570000Y-42360000D02*
X109970000Y-42360000D01*
X109970000Y-42360000D02*
X109970000Y-43879000D01*
X112570000Y-42360000D02*
X112570000Y-43879000D01*
X113790000Y-63120000D02*
X108750000Y-63120000D01*
X113790000Y-43880000D02*
X108750000Y-43880000D01*
X108750000Y-43880000D02*
X108750000Y-63120000D01*
X113790000Y-43880000D02*
X113790000Y-63120000D01*
G04 #@! TO.C,From Stimulator*
X40750000Y-76850000D02*
X40750000Y-77600000D01*
X40750000Y-77600000D02*
X48250000Y-77600000D01*
X48250000Y-77600000D02*
X48250000Y-76850000D01*
X48250000Y-76850000D02*
X40750000Y-76850000D01*
X40000000Y-75990000D02*
X40000000Y-77600000D01*
X40000000Y-77600000D02*
X39250000Y-77600000D01*
X39250000Y-77600000D02*
X39250000Y-76850000D01*
X39250000Y-76850000D02*
X36250000Y-76850000D01*
X36250000Y-76850000D02*
X36250000Y-83650000D01*
X36250000Y-83650000D02*
X44500000Y-83650000D01*
X49000000Y-75990000D02*
X49000000Y-77600000D01*
X49000000Y-77600000D02*
X49750000Y-77600000D01*
X49750000Y-77600000D02*
X49750000Y-76850000D01*
X49750000Y-76850000D02*
X52750000Y-76850000D01*
X52750000Y-76850000D02*
X52750000Y-83650000D01*
X52750000Y-83650000D02*
X44500000Y-83650000D01*
X35390000Y-75990000D02*
X35390000Y-84510000D01*
X35390000Y-84510000D02*
X53610000Y-84510000D01*
X53610000Y-84510000D02*
X53610000Y-75990000D01*
X53610000Y-75990000D02*
X35390000Y-75990000D01*
X35190000Y-80000000D02*
X34590000Y-80300000D01*
X34590000Y-80300000D02*
X34590000Y-79700000D01*
X34590000Y-79700000D02*
X35190000Y-80000000D01*
G04 #@! TO.C,To LED*
X77890000Y-79700000D02*
X78490000Y-80000000D01*
X77890000Y-80300000D02*
X77890000Y-79700000D01*
X78490000Y-80000000D02*
X77890000Y-80300000D01*
X96910000Y-75990000D02*
X78690000Y-75990000D01*
X96910000Y-84510000D02*
X96910000Y-75990000D01*
X78690000Y-84510000D02*
X96910000Y-84510000D01*
X78690000Y-75990000D02*
X78690000Y-84510000D01*
X96050000Y-83650000D02*
X87800000Y-83650000D01*
X96050000Y-76850000D02*
X96050000Y-83650000D01*
X93050000Y-76850000D02*
X96050000Y-76850000D01*
X93050000Y-77600000D02*
X93050000Y-76850000D01*
X92300000Y-77600000D02*
X93050000Y-77600000D01*
X92300000Y-75990000D02*
X92300000Y-77600000D01*
X79550000Y-83650000D02*
X87800000Y-83650000D01*
X79550000Y-76850000D02*
X79550000Y-83650000D01*
X82550000Y-76850000D02*
X79550000Y-76850000D01*
X82550000Y-77600000D02*
X82550000Y-76850000D01*
X83300000Y-77600000D02*
X82550000Y-77600000D01*
X83300000Y-75990000D02*
X83300000Y-77600000D01*
X91550000Y-76850000D02*
X84050000Y-76850000D01*
X91550000Y-77600000D02*
X91550000Y-76850000D01*
X84050000Y-77600000D02*
X91550000Y-77600000D01*
X84050000Y-76850000D02*
X84050000Y-77600000D01*
D13*
G04 #@! TO.C,G\002A\002A\002A*
G36*
X57614812Y-79209539D02*
X57753599Y-79286971D01*
X57856752Y-79401097D01*
X57921078Y-79539795D01*
X57943383Y-79690940D01*
X57920475Y-79842410D01*
X57849161Y-79982080D01*
X57726246Y-80097827D01*
X57690800Y-80119533D01*
X57531769Y-80183485D01*
X57379021Y-80186304D01*
X57215563Y-80129144D01*
X57074949Y-80028675D01*
X56988642Y-79891125D01*
X56953966Y-79711821D01*
X56952991Y-79670474D01*
X56981598Y-79485061D01*
X57063444Y-79338506D01*
X57192564Y-79236761D01*
X57362996Y-79185776D01*
X57443585Y-79180927D01*
X57614812Y-79209539D01*
X57614812Y-79209539D01*
G37*
X57614812Y-79209539D02*
X57753599Y-79286971D01*
X57856752Y-79401097D01*
X57921078Y-79539795D01*
X57943383Y-79690940D01*
X57920475Y-79842410D01*
X57849161Y-79982080D01*
X57726246Y-80097827D01*
X57690800Y-80119533D01*
X57531769Y-80183485D01*
X57379021Y-80186304D01*
X57215563Y-80129144D01*
X57074949Y-80028675D01*
X56988642Y-79891125D01*
X56953966Y-79711821D01*
X56952991Y-79670474D01*
X56981598Y-79485061D01*
X57063444Y-79338506D01*
X57192564Y-79236761D01*
X57362996Y-79185776D01*
X57443585Y-79180927D01*
X57614812Y-79209539D01*
G36*
X72572192Y-79366658D02*
X72726765Y-79432718D01*
X72852899Y-79551450D01*
X72869693Y-79575510D01*
X72892733Y-79619775D01*
X72909894Y-79679372D01*
X72922322Y-79765044D01*
X72931162Y-79887535D01*
X72937559Y-80057589D01*
X72942064Y-80254460D01*
X72953329Y-80840267D01*
X72473600Y-80840267D01*
X72473600Y-80421987D01*
X72470756Y-80250345D01*
X72463018Y-80094596D01*
X72451578Y-79972183D01*
X72438048Y-79901722D01*
X72375632Y-79800696D01*
X72285179Y-79751509D01*
X72181674Y-79761491D01*
X72165840Y-79768599D01*
X72102466Y-79810620D01*
X72057093Y-79870722D01*
X72026951Y-79959595D01*
X72009268Y-80087930D01*
X72001274Y-80266416D01*
X71999966Y-80408467D01*
X71999467Y-80840267D01*
X71525334Y-80840267D01*
X71525334Y-79384000D01*
X71762400Y-79384000D01*
X71886203Y-79385089D01*
X71957050Y-79392120D01*
X71989719Y-79410739D01*
X71998989Y-79446590D01*
X71999467Y-79474570D01*
X71999467Y-79565140D01*
X72075667Y-79497967D01*
X72232861Y-79397936D01*
X72402964Y-79354615D01*
X72572192Y-79366658D01*
X72572192Y-79366658D01*
G37*
X72572192Y-79366658D02*
X72726765Y-79432718D01*
X72852899Y-79551450D01*
X72869693Y-79575510D01*
X72892733Y-79619775D01*
X72909894Y-79679372D01*
X72922322Y-79765044D01*
X72931162Y-79887535D01*
X72937559Y-80057589D01*
X72942064Y-80254460D01*
X72953329Y-80840267D01*
X72473600Y-80840267D01*
X72473600Y-80421987D01*
X72470756Y-80250345D01*
X72463018Y-80094596D01*
X72451578Y-79972183D01*
X72438048Y-79901722D01*
X72375632Y-79800696D01*
X72285179Y-79751509D01*
X72181674Y-79761491D01*
X72165840Y-79768599D01*
X72102466Y-79810620D01*
X72057093Y-79870722D01*
X72026951Y-79959595D01*
X72009268Y-80087930D01*
X72001274Y-80266416D01*
X71999966Y-80408467D01*
X71999467Y-80840267D01*
X71525334Y-80840267D01*
X71525334Y-79384000D01*
X71762400Y-79384000D01*
X71886203Y-79385089D01*
X71957050Y-79392120D01*
X71989719Y-79410739D01*
X71998989Y-79446590D01*
X71999467Y-79474570D01*
X71999467Y-79565140D01*
X72075667Y-79497967D01*
X72232861Y-79397936D01*
X72402964Y-79354615D01*
X72572192Y-79366658D01*
G36*
X65420867Y-78813633D02*
X65625653Y-78819139D01*
X65775615Y-78825821D01*
X65883655Y-78835506D01*
X65962680Y-78850020D01*
X66025594Y-78871189D01*
X66085301Y-78900839D01*
X66101520Y-78909950D01*
X66240124Y-79015457D01*
X66318708Y-79144595D01*
X66343732Y-79308022D01*
X66343734Y-79309577D01*
X66316926Y-79449832D01*
X66246675Y-79584289D01*
X66148234Y-79686883D01*
X66108782Y-79711023D01*
X66028263Y-79751166D01*
X66143665Y-79799976D01*
X66285837Y-79892291D01*
X66380533Y-80020482D01*
X66427427Y-80171796D01*
X66426191Y-80333476D01*
X66376496Y-80492770D01*
X66278014Y-80636923D01*
X66167576Y-80730345D01*
X66113611Y-80764494D01*
X66062703Y-80789315D01*
X66002870Y-80806569D01*
X65922130Y-80818015D01*
X65808500Y-80825413D01*
X65650000Y-80830523D01*
X65457321Y-80834655D01*
X64887467Y-80845976D01*
X64887467Y-79993600D01*
X65395467Y-79993600D01*
X65395467Y-80467733D01*
X65581734Y-80467733D01*
X65709989Y-80459929D01*
X65793450Y-80432685D01*
X65835734Y-80400000D01*
X65899884Y-80299807D01*
X65904391Y-80198985D01*
X65856415Y-80108095D01*
X65763116Y-80037700D01*
X65631654Y-79998360D01*
X65560233Y-79993600D01*
X65395467Y-79993600D01*
X64887467Y-79993600D01*
X64887467Y-79180800D01*
X65395467Y-79180800D01*
X65395467Y-79621067D01*
X65545409Y-79621067D01*
X65652683Y-79612117D01*
X65723022Y-79577337D01*
X65765542Y-79531833D01*
X65823522Y-79438201D01*
X65824789Y-79361498D01*
X65768298Y-79280068D01*
X65752606Y-79263927D01*
X65659355Y-79200315D01*
X65538258Y-79180825D01*
X65532473Y-79180800D01*
X65395467Y-79180800D01*
X64887467Y-79180800D01*
X64887467Y-78801170D01*
X65420867Y-78813633D01*
X65420867Y-78813633D01*
G37*
X65420867Y-78813633D02*
X65625653Y-78819139D01*
X65775615Y-78825821D01*
X65883655Y-78835506D01*
X65962680Y-78850020D01*
X66025594Y-78871189D01*
X66085301Y-78900839D01*
X66101520Y-78909950D01*
X66240124Y-79015457D01*
X66318708Y-79144595D01*
X66343732Y-79308022D01*
X66343734Y-79309577D01*
X66316926Y-79449832D01*
X66246675Y-79584289D01*
X66148234Y-79686883D01*
X66108782Y-79711023D01*
X66028263Y-79751166D01*
X66143665Y-79799976D01*
X66285837Y-79892291D01*
X66380533Y-80020482D01*
X66427427Y-80171796D01*
X66426191Y-80333476D01*
X66376496Y-80492770D01*
X66278014Y-80636923D01*
X66167576Y-80730345D01*
X66113611Y-80764494D01*
X66062703Y-80789315D01*
X66002870Y-80806569D01*
X65922130Y-80818015D01*
X65808500Y-80825413D01*
X65650000Y-80830523D01*
X65457321Y-80834655D01*
X64887467Y-80845976D01*
X64887467Y-79993600D01*
X65395467Y-79993600D01*
X65395467Y-80467733D01*
X65581734Y-80467733D01*
X65709989Y-80459929D01*
X65793450Y-80432685D01*
X65835734Y-80400000D01*
X65899884Y-80299807D01*
X65904391Y-80198985D01*
X65856415Y-80108095D01*
X65763116Y-80037700D01*
X65631654Y-79998360D01*
X65560233Y-79993600D01*
X65395467Y-79993600D01*
X64887467Y-79993600D01*
X64887467Y-79180800D01*
X65395467Y-79180800D01*
X65395467Y-79621067D01*
X65545409Y-79621067D01*
X65652683Y-79612117D01*
X65723022Y-79577337D01*
X65765542Y-79531833D01*
X65823522Y-79438201D01*
X65824789Y-79361498D01*
X65768298Y-79280068D01*
X65752606Y-79263927D01*
X65659355Y-79200315D01*
X65538258Y-79180825D01*
X65532473Y-79180800D01*
X65395467Y-79180800D01*
X64887467Y-79180800D01*
X64887467Y-78801170D01*
X65420867Y-78813633D01*
G36*
X75724800Y-79556781D02*
X75844761Y-79465282D01*
X75996274Y-79387134D01*
X76167913Y-79357875D01*
X76342346Y-79374836D01*
X76502239Y-79435350D01*
X76630258Y-79536749D01*
X76671342Y-79592506D01*
X76750842Y-79781203D01*
X76787389Y-80000489D01*
X76781351Y-80228882D01*
X76733097Y-80444903D01*
X76653874Y-80610998D01*
X76529048Y-80743974D01*
X76366703Y-80832526D01*
X76183754Y-80872538D01*
X75997117Y-80859892D01*
X75851299Y-80806334D01*
X75771139Y-80767284D01*
X75733743Y-80762810D01*
X75724800Y-80789401D01*
X75702511Y-80824753D01*
X75628553Y-80839332D01*
X75589334Y-80840267D01*
X75453867Y-80840267D01*
X75453867Y-80126785D01*
X75741734Y-80126785D01*
X75741734Y-80132496D01*
X75742644Y-80278397D01*
X75748509Y-80373820D01*
X75764034Y-80436021D01*
X75793922Y-80482256D01*
X75842877Y-80529778D01*
X75852334Y-80538245D01*
X75989049Y-80619015D01*
X76140987Y-80635784D01*
X76297649Y-80587759D01*
X76396761Y-80501406D01*
X76470109Y-80368204D01*
X76512694Y-80205773D01*
X76519520Y-80031734D01*
X76494842Y-79892429D01*
X76422021Y-79744267D01*
X76313006Y-79644914D01*
X76180921Y-79597843D01*
X76038891Y-79606530D01*
X75900042Y-79674449D01*
X75846496Y-79720807D01*
X75796806Y-79773759D01*
X75765983Y-79823154D01*
X75749530Y-79886672D01*
X75742946Y-79981989D01*
X75741734Y-80126785D01*
X75453867Y-80126785D01*
X75453867Y-78706667D01*
X75724800Y-78706667D01*
X75724800Y-79556781D01*
X75724800Y-79556781D01*
G37*
X75724800Y-79556781D02*
X75844761Y-79465282D01*
X75996274Y-79387134D01*
X76167913Y-79357875D01*
X76342346Y-79374836D01*
X76502239Y-79435350D01*
X76630258Y-79536749D01*
X76671342Y-79592506D01*
X76750842Y-79781203D01*
X76787389Y-80000489D01*
X76781351Y-80228882D01*
X76733097Y-80444903D01*
X76653874Y-80610998D01*
X76529048Y-80743974D01*
X76366703Y-80832526D01*
X76183754Y-80872538D01*
X75997117Y-80859892D01*
X75851299Y-80806334D01*
X75771139Y-80767284D01*
X75733743Y-80762810D01*
X75724800Y-80789401D01*
X75702511Y-80824753D01*
X75628553Y-80839332D01*
X75589334Y-80840267D01*
X75453867Y-80840267D01*
X75453867Y-80126785D01*
X75741734Y-80126785D01*
X75741734Y-80132496D01*
X75742644Y-80278397D01*
X75748509Y-80373820D01*
X75764034Y-80436021D01*
X75793922Y-80482256D01*
X75842877Y-80529778D01*
X75852334Y-80538245D01*
X75989049Y-80619015D01*
X76140987Y-80635784D01*
X76297649Y-80587759D01*
X76396761Y-80501406D01*
X76470109Y-80368204D01*
X76512694Y-80205773D01*
X76519520Y-80031734D01*
X76494842Y-79892429D01*
X76422021Y-79744267D01*
X76313006Y-79644914D01*
X76180921Y-79597843D01*
X76038891Y-79606530D01*
X75900042Y-79674449D01*
X75846496Y-79720807D01*
X75796806Y-79773759D01*
X75765983Y-79823154D01*
X75749530Y-79886672D01*
X75742946Y-79981989D01*
X75741734Y-80126785D01*
X75453867Y-80126785D01*
X75453867Y-78706667D01*
X75724800Y-78706667D01*
X75724800Y-79556781D01*
G36*
X74687944Y-79369871D02*
X74792927Y-79402947D01*
X74877524Y-79448472D01*
X74941122Y-79500451D01*
X74986669Y-79568764D01*
X75017111Y-79663291D01*
X75035394Y-79793913D01*
X75044466Y-79970511D01*
X75047272Y-80202964D01*
X75047340Y-80256067D01*
X75047467Y-80840267D01*
X74912000Y-80840267D01*
X74823224Y-80834494D01*
X74784025Y-80811398D01*
X74776534Y-80773554D01*
X74772441Y-80735147D01*
X74750148Y-80730856D01*
X74694631Y-80762744D01*
X74653274Y-80790487D01*
X74500694Y-80857084D01*
X74326695Y-80875690D01*
X74157453Y-80845594D01*
X74072956Y-80806258D01*
X73967061Y-80712167D01*
X73910263Y-80583617D01*
X73896527Y-80440413D01*
X74167452Y-80440413D01*
X74195711Y-80536142D01*
X74271259Y-80601973D01*
X74378388Y-80632902D01*
X74501394Y-80623922D01*
X74607556Y-80580670D01*
X74715805Y-80480098D01*
X74770131Y-80339673D01*
X74776534Y-80259615D01*
X74776534Y-80156283D01*
X74564867Y-80180423D01*
X74389125Y-80207965D01*
X74271317Y-80247345D01*
X74201875Y-80304823D01*
X74171229Y-80386659D01*
X74167452Y-80440413D01*
X73896527Y-80440413D01*
X73896499Y-80440129D01*
X73918748Y-80283982D01*
X73987348Y-80161177D01*
X74107169Y-80067761D01*
X74283082Y-79999784D01*
X74491466Y-79957372D01*
X74782637Y-79914053D01*
X74762550Y-79809893D01*
X74711276Y-79687518D01*
X74618204Y-79614345D01*
X74489739Y-79591988D01*
X74332286Y-79622066D01*
X74215006Y-79671725D01*
X74122093Y-79718176D01*
X74057966Y-79748937D01*
X74039934Y-79756392D01*
X74034657Y-79726377D01*
X74031698Y-79651129D01*
X74031467Y-79619339D01*
X74037602Y-79528066D01*
X74068318Y-79475800D01*
X74142086Y-79434642D01*
X74158467Y-79427503D01*
X74331106Y-79375466D01*
X74516108Y-79355926D01*
X74687944Y-79369871D01*
X74687944Y-79369871D01*
G37*
X74687944Y-79369871D02*
X74792927Y-79402947D01*
X74877524Y-79448472D01*
X74941122Y-79500451D01*
X74986669Y-79568764D01*
X75017111Y-79663291D01*
X75035394Y-79793913D01*
X75044466Y-79970511D01*
X75047272Y-80202964D01*
X75047340Y-80256067D01*
X75047467Y-80840267D01*
X74912000Y-80840267D01*
X74823224Y-80834494D01*
X74784025Y-80811398D01*
X74776534Y-80773554D01*
X74772441Y-80735147D01*
X74750148Y-80730856D01*
X74694631Y-80762744D01*
X74653274Y-80790487D01*
X74500694Y-80857084D01*
X74326695Y-80875690D01*
X74157453Y-80845594D01*
X74072956Y-80806258D01*
X73967061Y-80712167D01*
X73910263Y-80583617D01*
X73896527Y-80440413D01*
X74167452Y-80440413D01*
X74195711Y-80536142D01*
X74271259Y-80601973D01*
X74378388Y-80632902D01*
X74501394Y-80623922D01*
X74607556Y-80580670D01*
X74715805Y-80480098D01*
X74770131Y-80339673D01*
X74776534Y-80259615D01*
X74776534Y-80156283D01*
X74564867Y-80180423D01*
X74389125Y-80207965D01*
X74271317Y-80247345D01*
X74201875Y-80304823D01*
X74171229Y-80386659D01*
X74167452Y-80440413D01*
X73896527Y-80440413D01*
X73896499Y-80440129D01*
X73918748Y-80283982D01*
X73987348Y-80161177D01*
X74107169Y-80067761D01*
X74283082Y-79999784D01*
X74491466Y-79957372D01*
X74782637Y-79914053D01*
X74762550Y-79809893D01*
X74711276Y-79687518D01*
X74618204Y-79614345D01*
X74489739Y-79591988D01*
X74332286Y-79622066D01*
X74215006Y-79671725D01*
X74122093Y-79718176D01*
X74057966Y-79748937D01*
X74039934Y-79756392D01*
X74034657Y-79726377D01*
X74031698Y-79651129D01*
X74031467Y-79619339D01*
X74037602Y-79528066D01*
X74068318Y-79475800D01*
X74142086Y-79434642D01*
X74158467Y-79427503D01*
X74331106Y-79375466D01*
X74516108Y-79355926D01*
X74687944Y-79369871D01*
G36*
X73523467Y-79614293D02*
X73523763Y-79898635D01*
X73525509Y-80122478D01*
X73529995Y-80293058D01*
X73538508Y-80417609D01*
X73552336Y-80503367D01*
X73572769Y-80557565D01*
X73601095Y-80587441D01*
X73638602Y-80600227D01*
X73686578Y-80603159D01*
X73699574Y-80603200D01*
X73764102Y-80610907D01*
X73790027Y-80647752D01*
X73794400Y-80718110D01*
X73781202Y-80806429D01*
X73732941Y-80854777D01*
X73636618Y-80873029D01*
X73588965Y-80874133D01*
X73483768Y-80845907D01*
X73380068Y-80775359D01*
X73269467Y-80676585D01*
X73248719Y-78706667D01*
X73523467Y-78706667D01*
X73523467Y-79614293D01*
X73523467Y-79614293D01*
G37*
X73523467Y-79614293D02*
X73523763Y-79898635D01*
X73525509Y-80122478D01*
X73529995Y-80293058D01*
X73538508Y-80417609D01*
X73552336Y-80503367D01*
X73572769Y-80557565D01*
X73601095Y-80587441D01*
X73638602Y-80600227D01*
X73686578Y-80603159D01*
X73699574Y-80603200D01*
X73764102Y-80610907D01*
X73790027Y-80647752D01*
X73794400Y-80718110D01*
X73781202Y-80806429D01*
X73732941Y-80854777D01*
X73636618Y-80873029D01*
X73588965Y-80874133D01*
X73483768Y-80845907D01*
X73380068Y-80775359D01*
X73269467Y-80676585D01*
X73248719Y-78706667D01*
X73523467Y-78706667D01*
X73523467Y-79614293D01*
G36*
X70773313Y-79363121D02*
X70938894Y-79415952D01*
X71090468Y-79515385D01*
X71196668Y-79657854D01*
X71260297Y-79848241D01*
X71280936Y-80011514D01*
X71297174Y-80264534D01*
X70372127Y-80264534D01*
X70423208Y-80363313D01*
X70507660Y-80457775D01*
X70633577Y-80511795D01*
X70786767Y-80523528D01*
X70953033Y-80491127D01*
X71060239Y-80446126D01*
X71156286Y-80396458D01*
X71146076Y-80590088D01*
X71137890Y-80700442D01*
X71120868Y-80763233D01*
X71084038Y-80798599D01*
X71017333Y-80826349D01*
X70898285Y-80852653D01*
X70741277Y-80865908D01*
X70572996Y-80866005D01*
X70420124Y-80852834D01*
X70316892Y-80829224D01*
X70153049Y-80734750D01*
X70026180Y-80592407D01*
X69940395Y-80413553D01*
X69899804Y-80209546D01*
X69908517Y-79991743D01*
X69925753Y-79923640D01*
X70407733Y-79923640D01*
X70439583Y-79943956D01*
X70527575Y-79956516D01*
X70627867Y-79959734D01*
X70739966Y-79955205D01*
X70819252Y-79943357D01*
X70848000Y-79927460D01*
X70826039Y-79843661D01*
X70773669Y-79761903D01*
X70711161Y-79712847D01*
X70704771Y-79710824D01*
X70598160Y-79712539D01*
X70499145Y-79761603D01*
X70428936Y-79842820D01*
X70407733Y-79923640D01*
X69925753Y-79923640D01*
X69951849Y-79820538D01*
X70049856Y-79637163D01*
X70193117Y-79494770D01*
X70369520Y-79398323D01*
X70566955Y-79352785D01*
X70773313Y-79363121D01*
X70773313Y-79363121D01*
G37*
X70773313Y-79363121D02*
X70938894Y-79415952D01*
X71090468Y-79515385D01*
X71196668Y-79657854D01*
X71260297Y-79848241D01*
X71280936Y-80011514D01*
X71297174Y-80264534D01*
X70372127Y-80264534D01*
X70423208Y-80363313D01*
X70507660Y-80457775D01*
X70633577Y-80511795D01*
X70786767Y-80523528D01*
X70953033Y-80491127D01*
X71060239Y-80446126D01*
X71156286Y-80396458D01*
X71146076Y-80590088D01*
X71137890Y-80700442D01*
X71120868Y-80763233D01*
X71084038Y-80798599D01*
X71017333Y-80826349D01*
X70898285Y-80852653D01*
X70741277Y-80865908D01*
X70572996Y-80866005D01*
X70420124Y-80852834D01*
X70316892Y-80829224D01*
X70153049Y-80734750D01*
X70026180Y-80592407D01*
X69940395Y-80413553D01*
X69899804Y-80209546D01*
X69908517Y-79991743D01*
X69925753Y-79923640D01*
X70407733Y-79923640D01*
X70439583Y-79943956D01*
X70527575Y-79956516D01*
X70627867Y-79959734D01*
X70739966Y-79955205D01*
X70819252Y-79943357D01*
X70848000Y-79927460D01*
X70826039Y-79843661D01*
X70773669Y-79761903D01*
X70711161Y-79712847D01*
X70704771Y-79710824D01*
X70598160Y-79712539D01*
X70499145Y-79761603D01*
X70428936Y-79842820D01*
X70407733Y-79923640D01*
X69925753Y-79923640D01*
X69951849Y-79820538D01*
X70049856Y-79637163D01*
X70193117Y-79494770D01*
X70369520Y-79398323D01*
X70566955Y-79352785D01*
X70773313Y-79363121D01*
G36*
X69662667Y-80840267D02*
X69408667Y-80840267D01*
X69275050Y-80837674D01*
X69196600Y-80828217D01*
X69160890Y-80809376D01*
X69154667Y-80788779D01*
X69145395Y-80761459D01*
X69107944Y-80765255D01*
X69027865Y-80801992D01*
X69020549Y-80805712D01*
X68838042Y-80864247D01*
X68644567Y-80867269D01*
X68463126Y-80815103D01*
X68429074Y-80797376D01*
X68292408Y-80688611D01*
X68200448Y-80540251D01*
X68150403Y-80346131D01*
X68142723Y-80222011D01*
X68614473Y-80222011D01*
X68626767Y-80293979D01*
X68665235Y-80353744D01*
X68707723Y-80398533D01*
X68810192Y-80478230D01*
X68904395Y-80494975D01*
X69004868Y-80449595D01*
X69045897Y-80417769D01*
X69127258Y-80312690D01*
X69168775Y-80180928D01*
X69171355Y-80041260D01*
X69135907Y-79912463D01*
X69063337Y-79813316D01*
X69015154Y-79781561D01*
X68888120Y-79749293D01*
X68778674Y-79778695D01*
X68692925Y-79864681D01*
X68636984Y-80002166D01*
X68620003Y-80110406D01*
X68614473Y-80222011D01*
X68142723Y-80222011D01*
X68138667Y-80156481D01*
X68161197Y-79913040D01*
X68226600Y-79706207D01*
X68331598Y-79545323D01*
X68364846Y-79512292D01*
X68499648Y-79424691D01*
X68660722Y-79370841D01*
X68825772Y-79354537D01*
X68972500Y-79379572D01*
X69019200Y-79400934D01*
X69088913Y-79436568D01*
X69129267Y-79450533D01*
X69139470Y-79419453D01*
X69147717Y-79334256D01*
X69153077Y-79208553D01*
X69154667Y-79079200D01*
X69154667Y-78706667D01*
X69662667Y-78706667D01*
X69662667Y-80840267D01*
X69662667Y-80840267D01*
G37*
X69662667Y-80840267D02*
X69408667Y-80840267D01*
X69275050Y-80837674D01*
X69196600Y-80828217D01*
X69160890Y-80809376D01*
X69154667Y-80788779D01*
X69145395Y-80761459D01*
X69107944Y-80765255D01*
X69027865Y-80801992D01*
X69020549Y-80805712D01*
X68838042Y-80864247D01*
X68644567Y-80867269D01*
X68463126Y-80815103D01*
X68429074Y-80797376D01*
X68292408Y-80688611D01*
X68200448Y-80540251D01*
X68150403Y-80346131D01*
X68142723Y-80222011D01*
X68614473Y-80222011D01*
X68626767Y-80293979D01*
X68665235Y-80353744D01*
X68707723Y-80398533D01*
X68810192Y-80478230D01*
X68904395Y-80494975D01*
X69004868Y-80449595D01*
X69045897Y-80417769D01*
X69127258Y-80312690D01*
X69168775Y-80180928D01*
X69171355Y-80041260D01*
X69135907Y-79912463D01*
X69063337Y-79813316D01*
X69015154Y-79781561D01*
X68888120Y-79749293D01*
X68778674Y-79778695D01*
X68692925Y-79864681D01*
X68636984Y-80002166D01*
X68620003Y-80110406D01*
X68614473Y-80222011D01*
X68142723Y-80222011D01*
X68138667Y-80156481D01*
X68161197Y-79913040D01*
X68226600Y-79706207D01*
X68331598Y-79545323D01*
X68364846Y-79512292D01*
X68499648Y-79424691D01*
X68660722Y-79370841D01*
X68825772Y-79354537D01*
X68972500Y-79379572D01*
X69019200Y-79400934D01*
X69088913Y-79436568D01*
X69129267Y-79450533D01*
X69139470Y-79419453D01*
X69147717Y-79334256D01*
X69153077Y-79208553D01*
X69154667Y-79079200D01*
X69154667Y-78706667D01*
X69662667Y-78706667D01*
X69662667Y-80840267D01*
G36*
X67426512Y-79366657D02*
X67609524Y-79426919D01*
X67750439Y-79540089D01*
X67825400Y-79653643D01*
X67855010Y-79718087D01*
X67875829Y-79783437D01*
X67889378Y-79863036D01*
X67897175Y-79970228D01*
X67900743Y-80118356D01*
X67901600Y-80320765D01*
X67901600Y-80840267D01*
X67664533Y-80840267D01*
X67535445Y-80837222D01*
X67461591Y-80826347D01*
X67430671Y-80805033D01*
X67427467Y-80789965D01*
X67417230Y-80763125D01*
X67377247Y-80772914D01*
X67317400Y-80806771D01*
X67172977Y-80860770D01*
X67004606Y-80873300D01*
X66841870Y-80844387D01*
X66757756Y-80806258D01*
X66655779Y-80717508D01*
X66599936Y-80597874D01*
X66585705Y-80435804D01*
X66589038Y-80375125D01*
X66593149Y-80353272D01*
X67021067Y-80353272D01*
X67047611Y-80432655D01*
X67110545Y-80502250D01*
X67184823Y-80535214D01*
X67191082Y-80535467D01*
X67256887Y-80515470D01*
X67335803Y-80467170D01*
X67338233Y-80465275D01*
X67412946Y-80371796D01*
X67427467Y-80295942D01*
X67417873Y-80224534D01*
X67377185Y-80198905D01*
X67341712Y-80196800D01*
X67237000Y-80211468D01*
X67134676Y-80248631D01*
X67055761Y-80298032D01*
X67021277Y-80349413D01*
X67021067Y-80353272D01*
X66593149Y-80353272D01*
X66616823Y-80227440D01*
X66678789Y-80114678D01*
X66782987Y-80030548D01*
X66937471Y-79968760D01*
X67150292Y-79923026D01*
X67172307Y-79919525D01*
X67306599Y-79893566D01*
X67395306Y-79865695D01*
X67427466Y-79839359D01*
X67427467Y-79839275D01*
X67397827Y-79776168D01*
X67319209Y-79735367D01*
X67207064Y-79718284D01*
X67076845Y-79726332D01*
X66944004Y-79760923D01*
X66880201Y-79789252D01*
X66796607Y-79831107D01*
X66741434Y-79855544D01*
X66732157Y-79858134D01*
X66723700Y-79827388D01*
X66717936Y-79747617D01*
X66716267Y-79659051D01*
X66716267Y-79459968D01*
X66934894Y-79405051D01*
X67201578Y-79359352D01*
X67426512Y-79366657D01*
X67426512Y-79366657D01*
G37*
X67426512Y-79366657D02*
X67609524Y-79426919D01*
X67750439Y-79540089D01*
X67825400Y-79653643D01*
X67855010Y-79718087D01*
X67875829Y-79783437D01*
X67889378Y-79863036D01*
X67897175Y-79970228D01*
X67900743Y-80118356D01*
X67901600Y-80320765D01*
X67901600Y-80840267D01*
X67664533Y-80840267D01*
X67535445Y-80837222D01*
X67461591Y-80826347D01*
X67430671Y-80805033D01*
X67427467Y-80789965D01*
X67417230Y-80763125D01*
X67377247Y-80772914D01*
X67317400Y-80806771D01*
X67172977Y-80860770D01*
X67004606Y-80873300D01*
X66841870Y-80844387D01*
X66757756Y-80806258D01*
X66655779Y-80717508D01*
X66599936Y-80597874D01*
X66585705Y-80435804D01*
X66589038Y-80375125D01*
X66593149Y-80353272D01*
X67021067Y-80353272D01*
X67047611Y-80432655D01*
X67110545Y-80502250D01*
X67184823Y-80535214D01*
X67191082Y-80535467D01*
X67256887Y-80515470D01*
X67335803Y-80467170D01*
X67338233Y-80465275D01*
X67412946Y-80371796D01*
X67427467Y-80295942D01*
X67417873Y-80224534D01*
X67377185Y-80198905D01*
X67341712Y-80196800D01*
X67237000Y-80211468D01*
X67134676Y-80248631D01*
X67055761Y-80298032D01*
X67021277Y-80349413D01*
X67021067Y-80353272D01*
X66593149Y-80353272D01*
X66616823Y-80227440D01*
X66678789Y-80114678D01*
X66782987Y-80030548D01*
X66937471Y-79968760D01*
X67150292Y-79923026D01*
X67172307Y-79919525D01*
X67306599Y-79893566D01*
X67395306Y-79865695D01*
X67427466Y-79839359D01*
X67427467Y-79839275D01*
X67397827Y-79776168D01*
X67319209Y-79735367D01*
X67207064Y-79718284D01*
X67076845Y-79726332D01*
X66944004Y-79760923D01*
X66880201Y-79789252D01*
X66796607Y-79831107D01*
X66741434Y-79855544D01*
X66732157Y-79858134D01*
X66723700Y-79827388D01*
X66717936Y-79747617D01*
X66716267Y-79659051D01*
X66716267Y-79459968D01*
X66934894Y-79405051D01*
X67201578Y-79359352D01*
X67426512Y-79366657D01*
G36*
X57939569Y-78512759D02*
X58192515Y-78553837D01*
X58411853Y-78625583D01*
X58418933Y-78628775D01*
X58606575Y-78735021D01*
X58795403Y-78877535D01*
X58965137Y-79038673D01*
X59095496Y-79200788D01*
X59118343Y-79237321D01*
X59251945Y-79527859D01*
X59322675Y-79828003D01*
X59333048Y-80129681D01*
X59285579Y-80424824D01*
X59182782Y-80705362D01*
X59027173Y-80963225D01*
X58821265Y-81190342D01*
X58567574Y-81378643D01*
X58427661Y-81453783D01*
X58313206Y-81504553D01*
X58211888Y-81537205D01*
X58100617Y-81556546D01*
X57956308Y-81567383D01*
X57864100Y-81571131D01*
X57702802Y-81573093D01*
X57552755Y-81568527D01*
X57436116Y-81558388D01*
X57394607Y-81550879D01*
X57107507Y-81444481D01*
X56850552Y-81282958D01*
X56630118Y-81074610D01*
X56452582Y-80827737D01*
X56324321Y-80550641D01*
X56251710Y-80251620D01*
X56237368Y-80044400D01*
X56257802Y-79842742D01*
X56673772Y-79842742D01*
X56676592Y-80046427D01*
X56707914Y-80235295D01*
X56754949Y-80361499D01*
X56875094Y-80537667D01*
X57035330Y-80699016D01*
X57213802Y-80825460D01*
X57310892Y-80872484D01*
X57508687Y-80922795D01*
X57728223Y-80933302D01*
X57942920Y-80904987D01*
X58118953Y-80842631D01*
X58335525Y-80696569D01*
X58504848Y-80511288D01*
X58623555Y-80296747D01*
X58688275Y-80062907D01*
X58695640Y-79819729D01*
X58642281Y-79577174D01*
X58588821Y-79453433D01*
X58448478Y-79249859D01*
X58264967Y-79089780D01*
X58050003Y-78977185D01*
X57815299Y-78916065D01*
X57572569Y-78910408D01*
X57333528Y-78964203D01*
X57252086Y-78998201D01*
X57037603Y-79136380D01*
X56856513Y-79328984D01*
X56753773Y-79492541D01*
X56699487Y-79649645D01*
X56673772Y-79842742D01*
X56257802Y-79842742D01*
X56269216Y-79730111D01*
X56360699Y-79435686D01*
X56505915Y-79168534D01*
X56698963Y-78936062D01*
X56933941Y-78745676D01*
X57204949Y-78604785D01*
X57441272Y-78533211D01*
X57680120Y-78505001D01*
X57939569Y-78512759D01*
X57939569Y-78512759D01*
G37*
X57939569Y-78512759D02*
X58192515Y-78553837D01*
X58411853Y-78625583D01*
X58418933Y-78628775D01*
X58606575Y-78735021D01*
X58795403Y-78877535D01*
X58965137Y-79038673D01*
X59095496Y-79200788D01*
X59118343Y-79237321D01*
X59251945Y-79527859D01*
X59322675Y-79828003D01*
X59333048Y-80129681D01*
X59285579Y-80424824D01*
X59182782Y-80705362D01*
X59027173Y-80963225D01*
X58821265Y-81190342D01*
X58567574Y-81378643D01*
X58427661Y-81453783D01*
X58313206Y-81504553D01*
X58211888Y-81537205D01*
X58100617Y-81556546D01*
X57956308Y-81567383D01*
X57864100Y-81571131D01*
X57702802Y-81573093D01*
X57552755Y-81568527D01*
X57436116Y-81558388D01*
X57394607Y-81550879D01*
X57107507Y-81444481D01*
X56850552Y-81282958D01*
X56630118Y-81074610D01*
X56452582Y-80827737D01*
X56324321Y-80550641D01*
X56251710Y-80251620D01*
X56237368Y-80044400D01*
X56257802Y-79842742D01*
X56673772Y-79842742D01*
X56676592Y-80046427D01*
X56707914Y-80235295D01*
X56754949Y-80361499D01*
X56875094Y-80537667D01*
X57035330Y-80699016D01*
X57213802Y-80825460D01*
X57310892Y-80872484D01*
X57508687Y-80922795D01*
X57728223Y-80933302D01*
X57942920Y-80904987D01*
X58118953Y-80842631D01*
X58335525Y-80696569D01*
X58504848Y-80511288D01*
X58623555Y-80296747D01*
X58688275Y-80062907D01*
X58695640Y-79819729D01*
X58642281Y-79577174D01*
X58588821Y-79453433D01*
X58448478Y-79249859D01*
X58264967Y-79089780D01*
X58050003Y-78977185D01*
X57815299Y-78916065D01*
X57572569Y-78910408D01*
X57333528Y-78964203D01*
X57252086Y-78998201D01*
X57037603Y-79136380D01*
X56856513Y-79328984D01*
X56753773Y-79492541D01*
X56699487Y-79649645D01*
X56673772Y-79842742D01*
X56257802Y-79842742D01*
X56269216Y-79730111D01*
X56360699Y-79435686D01*
X56505915Y-79168534D01*
X56698963Y-78936062D01*
X56933941Y-78745676D01*
X57204949Y-78604785D01*
X57441272Y-78533211D01*
X57680120Y-78505001D01*
X57939569Y-78512759D01*
G36*
X70870735Y-81778614D02*
X70881867Y-81822400D01*
X70857919Y-81879002D01*
X70814133Y-81890134D01*
X70757532Y-81866186D01*
X70746400Y-81822400D01*
X70770348Y-81765799D01*
X70814133Y-81754667D01*
X70870735Y-81778614D01*
X70870735Y-81778614D01*
G37*
X70870735Y-81778614D02*
X70881867Y-81822400D01*
X70857919Y-81879002D01*
X70814133Y-81890134D01*
X70757532Y-81866186D01*
X70746400Y-81822400D01*
X70770348Y-81765799D01*
X70814133Y-81754667D01*
X70870735Y-81778614D01*
G36*
X66332602Y-81778614D02*
X66343734Y-81822400D01*
X66319786Y-81879002D01*
X66276000Y-81890134D01*
X66219399Y-81866186D01*
X66208267Y-81822400D01*
X66232214Y-81765799D01*
X66276000Y-81754667D01*
X66332602Y-81778614D01*
X66332602Y-81778614D01*
G37*
X66332602Y-81778614D02*
X66343734Y-81822400D01*
X66319786Y-81879002D01*
X66276000Y-81890134D01*
X66219399Y-81866186D01*
X66208267Y-81822400D01*
X66232214Y-81765799D01*
X66276000Y-81754667D01*
X66332602Y-81778614D01*
G36*
X65621402Y-81778614D02*
X65632534Y-81822400D01*
X65608586Y-81879002D01*
X65564800Y-81890134D01*
X65508199Y-81866186D01*
X65497067Y-81822400D01*
X65521014Y-81765799D01*
X65564800Y-81754667D01*
X65621402Y-81778614D01*
X65621402Y-81778614D01*
G37*
X65621402Y-81778614D02*
X65632534Y-81822400D01*
X65608586Y-81879002D01*
X65564800Y-81890134D01*
X65508199Y-81866186D01*
X65497067Y-81822400D01*
X65521014Y-81765799D01*
X65564800Y-81754667D01*
X65621402Y-81778614D01*
G36*
X75468767Y-81989211D02*
X75569220Y-82060137D01*
X75633568Y-82175917D01*
X75642468Y-82212402D01*
X75640872Y-82324398D01*
X75604400Y-82435676D01*
X75543889Y-82520257D01*
X75503150Y-82546429D01*
X75384048Y-82568442D01*
X75260227Y-82555418D01*
X75162338Y-82511400D01*
X75149067Y-82499734D01*
X75089886Y-82397066D01*
X75078218Y-82279600D01*
X75216800Y-82279600D01*
X75239068Y-82387530D01*
X75297200Y-82452799D01*
X75378189Y-82466097D01*
X75440836Y-82439948D01*
X75494272Y-82368602D01*
X75505543Y-82270341D01*
X75472828Y-82176342D01*
X75399645Y-82106251D01*
X75323356Y-82095438D01*
X75258873Y-82137889D01*
X75221110Y-82227591D01*
X75216800Y-82279600D01*
X75078218Y-82279600D01*
X75077419Y-82271563D01*
X75108297Y-82145991D01*
X75179153Y-82043117D01*
X75221300Y-82011396D01*
X75347648Y-81970508D01*
X75468767Y-81989211D01*
X75468767Y-81989211D01*
G37*
X75468767Y-81989211D02*
X75569220Y-82060137D01*
X75633568Y-82175917D01*
X75642468Y-82212402D01*
X75640872Y-82324398D01*
X75604400Y-82435676D01*
X75543889Y-82520257D01*
X75503150Y-82546429D01*
X75384048Y-82568442D01*
X75260227Y-82555418D01*
X75162338Y-82511400D01*
X75149067Y-82499734D01*
X75089886Y-82397066D01*
X75078218Y-82279600D01*
X75216800Y-82279600D01*
X75239068Y-82387530D01*
X75297200Y-82452799D01*
X75378189Y-82466097D01*
X75440836Y-82439948D01*
X75494272Y-82368602D01*
X75505543Y-82270341D01*
X75472828Y-82176342D01*
X75399645Y-82106251D01*
X75323356Y-82095438D01*
X75258873Y-82137889D01*
X75221110Y-82227591D01*
X75216800Y-82279600D01*
X75078218Y-82279600D01*
X75077419Y-82271563D01*
X75108297Y-82145991D01*
X75179153Y-82043117D01*
X75221300Y-82011396D01*
X75347648Y-81970508D01*
X75468767Y-81989211D01*
G36*
X74940450Y-81725833D02*
X74960287Y-81748790D01*
X74972833Y-81801458D01*
X74980554Y-81895626D01*
X74985919Y-82043080D01*
X74987054Y-82084867D01*
X74993860Y-82256428D01*
X75004228Y-82367825D01*
X75019259Y-82426581D01*
X75039000Y-82440467D01*
X75073045Y-82461253D01*
X75081334Y-82499734D01*
X75054887Y-82550528D01*
X74992518Y-82569170D01*
X74919687Y-82552147D01*
X74884907Y-82526827D01*
X74863773Y-82468537D01*
X74850248Y-82344479D01*
X74844480Y-82156207D01*
X74844267Y-82103494D01*
X74845040Y-81937784D01*
X74848697Y-81828262D01*
X74857246Y-81763389D01*
X74872695Y-81731624D01*
X74897051Y-81721427D01*
X74910854Y-81720800D01*
X74940450Y-81725833D01*
X74940450Y-81725833D01*
G37*
X74940450Y-81725833D02*
X74960287Y-81748790D01*
X74972833Y-81801458D01*
X74980554Y-81895626D01*
X74985919Y-82043080D01*
X74987054Y-82084867D01*
X74993860Y-82256428D01*
X75004228Y-82367825D01*
X75019259Y-82426581D01*
X75039000Y-82440467D01*
X75073045Y-82461253D01*
X75081334Y-82499734D01*
X75054887Y-82550528D01*
X74992518Y-82569170D01*
X74919687Y-82552147D01*
X74884907Y-82526827D01*
X74863773Y-82468537D01*
X74850248Y-82344479D01*
X74844480Y-82156207D01*
X74844267Y-82103494D01*
X74845040Y-81937784D01*
X74848697Y-81828262D01*
X74857246Y-81763389D01*
X74872695Y-81731624D01*
X74897051Y-81721427D01*
X74910854Y-81720800D01*
X74940450Y-81725833D01*
G36*
X74565459Y-81987609D02*
X74675795Y-82060328D01*
X74728229Y-82154776D01*
X74744458Y-82278098D01*
X74724624Y-82402013D01*
X74673614Y-82493348D01*
X74583833Y-82548482D01*
X74466588Y-82569928D01*
X74349502Y-82556987D01*
X74260200Y-82508960D01*
X74255401Y-82503934D01*
X74209877Y-82425439D01*
X74181248Y-82326134D01*
X74185848Y-82238118D01*
X74309483Y-82238118D01*
X74316701Y-82337614D01*
X74358449Y-82403933D01*
X74438569Y-82457823D01*
X74517034Y-82454286D01*
X74572142Y-82400360D01*
X74607736Y-82290112D01*
X74599033Y-82195139D01*
X74555780Y-82127212D01*
X74487722Y-82098101D01*
X74404606Y-82119578D01*
X74364334Y-82149382D01*
X74309483Y-82238118D01*
X74185848Y-82238118D01*
X74188449Y-82188367D01*
X74244301Y-82078197D01*
X74334973Y-82003059D01*
X74446635Y-81970385D01*
X74565459Y-81987609D01*
X74565459Y-81987609D01*
G37*
X74565459Y-81987609D02*
X74675795Y-82060328D01*
X74728229Y-82154776D01*
X74744458Y-82278098D01*
X74724624Y-82402013D01*
X74673614Y-82493348D01*
X74583833Y-82548482D01*
X74466588Y-82569928D01*
X74349502Y-82556987D01*
X74260200Y-82508960D01*
X74255401Y-82503934D01*
X74209877Y-82425439D01*
X74181248Y-82326134D01*
X74185848Y-82238118D01*
X74309483Y-82238118D01*
X74316701Y-82337614D01*
X74358449Y-82403933D01*
X74438569Y-82457823D01*
X74517034Y-82454286D01*
X74572142Y-82400360D01*
X74607736Y-82290112D01*
X74599033Y-82195139D01*
X74555780Y-82127212D01*
X74487722Y-82098101D01*
X74404606Y-82119578D01*
X74364334Y-82149382D01*
X74309483Y-82238118D01*
X74185848Y-82238118D01*
X74188449Y-82188367D01*
X74244301Y-82078197D01*
X74334973Y-82003059D01*
X74446635Y-81970385D01*
X74565459Y-81987609D01*
G36*
X74072048Y-81987063D02*
X74125502Y-82031552D01*
X74133067Y-82062292D01*
X74120559Y-82105510D01*
X74070756Y-82111966D01*
X74037010Y-82106296D01*
X73932431Y-82114412D01*
X73857599Y-82175713D01*
X73828281Y-82277107D01*
X73828267Y-82279600D01*
X73856447Y-82381704D01*
X73930477Y-82443993D01*
X74034588Y-82453375D01*
X74037010Y-82452905D01*
X74106160Y-82447055D01*
X74131143Y-82474868D01*
X74133067Y-82500580D01*
X74104880Y-82547736D01*
X74033923Y-82570864D01*
X73940602Y-82570360D01*
X73845323Y-82546623D01*
X73768491Y-82500051D01*
X73761853Y-82493348D01*
X73702589Y-82384915D01*
X73694005Y-82258596D01*
X73731063Y-82135022D01*
X73808728Y-82034826D01*
X73884835Y-81989541D01*
X73984873Y-81971022D01*
X74072048Y-81987063D01*
X74072048Y-81987063D01*
G37*
X74072048Y-81987063D02*
X74125502Y-82031552D01*
X74133067Y-82062292D01*
X74120559Y-82105510D01*
X74070756Y-82111966D01*
X74037010Y-82106296D01*
X73932431Y-82114412D01*
X73857599Y-82175713D01*
X73828281Y-82277107D01*
X73828267Y-82279600D01*
X73856447Y-82381704D01*
X73930477Y-82443993D01*
X74034588Y-82453375D01*
X74037010Y-82452905D01*
X74106160Y-82447055D01*
X74131143Y-82474868D01*
X74133067Y-82500580D01*
X74104880Y-82547736D01*
X74033923Y-82570864D01*
X73940602Y-82570360D01*
X73845323Y-82546623D01*
X73768491Y-82500051D01*
X73761853Y-82493348D01*
X73702589Y-82384915D01*
X73694005Y-82258596D01*
X73731063Y-82135022D01*
X73808728Y-82034826D01*
X73884835Y-81989541D01*
X73984873Y-81971022D01*
X74072048Y-81987063D01*
G36*
X73539856Y-81792435D02*
X73603204Y-81806265D01*
X73624666Y-81833213D01*
X73625067Y-81839334D01*
X73605122Y-81872816D01*
X73537306Y-81888068D01*
X73472667Y-81890134D01*
X73378954Y-81893079D01*
X73334568Y-81910084D01*
X73321128Y-81953404D01*
X73320267Y-81991734D01*
X73325616Y-82056880D01*
X73354605Y-82085841D01*
X73426645Y-82093173D01*
X73455734Y-82093334D01*
X73544361Y-82099014D01*
X73583531Y-82121971D01*
X73591200Y-82161067D01*
X73579840Y-82205380D01*
X73533925Y-82224965D01*
X73455734Y-82228800D01*
X73368871Y-82232812D01*
X73330257Y-82254554D01*
X73320481Y-82308584D01*
X73320267Y-82330400D01*
X73324685Y-82392876D01*
X73350193Y-82422466D01*
X73415172Y-82431426D01*
X73472667Y-82432000D01*
X73567905Y-82436432D01*
X73612940Y-82454834D01*
X73625009Y-82494868D01*
X73625067Y-82499734D01*
X73617653Y-82537564D01*
X73585083Y-82558006D01*
X73511868Y-82566222D01*
X73421867Y-82567467D01*
X73218667Y-82567467D01*
X73218667Y-81788534D01*
X73421867Y-81788534D01*
X73539856Y-81792435D01*
X73539856Y-81792435D01*
G37*
X73539856Y-81792435D02*
X73603204Y-81806265D01*
X73624666Y-81833213D01*
X73625067Y-81839334D01*
X73605122Y-81872816D01*
X73537306Y-81888068D01*
X73472667Y-81890134D01*
X73378954Y-81893079D01*
X73334568Y-81910084D01*
X73321128Y-81953404D01*
X73320267Y-81991734D01*
X73325616Y-82056880D01*
X73354605Y-82085841D01*
X73426645Y-82093173D01*
X73455734Y-82093334D01*
X73544361Y-82099014D01*
X73583531Y-82121971D01*
X73591200Y-82161067D01*
X73579840Y-82205380D01*
X73533925Y-82224965D01*
X73455734Y-82228800D01*
X73368871Y-82232812D01*
X73330257Y-82254554D01*
X73320481Y-82308584D01*
X73320267Y-82330400D01*
X73324685Y-82392876D01*
X73350193Y-82422466D01*
X73415172Y-82431426D01*
X73472667Y-82432000D01*
X73567905Y-82436432D01*
X73612940Y-82454834D01*
X73625009Y-82494868D01*
X73625067Y-82499734D01*
X73617653Y-82537564D01*
X73585083Y-82558006D01*
X73511868Y-82566222D01*
X73421867Y-82567467D01*
X73218667Y-82567467D01*
X73218667Y-81788534D01*
X73421867Y-81788534D01*
X73539856Y-81792435D01*
G36*
X72705250Y-81725833D02*
X72725087Y-81748790D01*
X72737633Y-81801458D01*
X72745354Y-81895626D01*
X72750719Y-82043080D01*
X72751854Y-82084867D01*
X72758660Y-82256428D01*
X72769028Y-82367825D01*
X72784059Y-82426581D01*
X72803800Y-82440467D01*
X72837845Y-82461253D01*
X72846134Y-82499734D01*
X72822796Y-82555378D01*
X72767580Y-82572312D01*
X72702679Y-82552619D01*
X72650288Y-82498380D01*
X72642095Y-82480595D01*
X72627811Y-82409725D01*
X72616636Y-82290908D01*
X72610113Y-82143913D01*
X72609067Y-82057262D01*
X72610043Y-81903627D01*
X72614592Y-81805440D01*
X72625142Y-81750425D01*
X72644123Y-81726306D01*
X72673965Y-81720807D01*
X72675654Y-81720800D01*
X72705250Y-81725833D01*
X72705250Y-81725833D01*
G37*
X72705250Y-81725833D02*
X72725087Y-81748790D01*
X72737633Y-81801458D01*
X72745354Y-81895626D01*
X72750719Y-82043080D01*
X72751854Y-82084867D01*
X72758660Y-82256428D01*
X72769028Y-82367825D01*
X72784059Y-82426581D01*
X72803800Y-82440467D01*
X72837845Y-82461253D01*
X72846134Y-82499734D01*
X72822796Y-82555378D01*
X72767580Y-82572312D01*
X72702679Y-82552619D01*
X72650288Y-82498380D01*
X72642095Y-82480595D01*
X72627811Y-82409725D01*
X72616636Y-82290908D01*
X72610113Y-82143913D01*
X72609067Y-82057262D01*
X72610043Y-81903627D01*
X72614592Y-81805440D01*
X72625142Y-81750425D01*
X72644123Y-81726306D01*
X72673965Y-81720807D01*
X72675654Y-81720800D01*
X72705250Y-81725833D01*
G36*
X72385059Y-81989846D02*
X72457731Y-82037067D01*
X72474493Y-82061136D01*
X72491815Y-82126334D01*
X72503757Y-82234050D01*
X72507467Y-82341467D01*
X72507467Y-82560186D01*
X72310177Y-82562963D01*
X72194840Y-82557979D01*
X72106594Y-82542069D01*
X72073110Y-82525964D01*
X72039458Y-82453297D01*
X72038656Y-82406565D01*
X72175455Y-82406565D01*
X72183910Y-82429049D01*
X72238133Y-82463790D01*
X72307857Y-82444570D01*
X72331360Y-82425227D01*
X72371744Y-82362181D01*
X72361733Y-82318916D01*
X72306707Y-82312110D01*
X72295800Y-82314991D01*
X72202429Y-82357092D01*
X72175455Y-82406565D01*
X72038656Y-82406565D01*
X72037845Y-82359358D01*
X72067169Y-82280114D01*
X72081112Y-82265175D01*
X72145886Y-82233040D01*
X72240105Y-82207586D01*
X72250445Y-82205797D01*
X72329865Y-82185452D01*
X72370586Y-82160442D01*
X72372000Y-82155573D01*
X72344006Y-82115346D01*
X72276194Y-82101402D01*
X72192818Y-82118061D01*
X72183574Y-82122022D01*
X72123709Y-82142793D01*
X72102888Y-82122155D01*
X72101067Y-82091769D01*
X72129265Y-82026096D01*
X72199928Y-81986075D01*
X72292159Y-81973420D01*
X72385059Y-81989846D01*
X72385059Y-81989846D01*
G37*
X72385059Y-81989846D02*
X72457731Y-82037067D01*
X72474493Y-82061136D01*
X72491815Y-82126334D01*
X72503757Y-82234050D01*
X72507467Y-82341467D01*
X72507467Y-82560186D01*
X72310177Y-82562963D01*
X72194840Y-82557979D01*
X72106594Y-82542069D01*
X72073110Y-82525964D01*
X72039458Y-82453297D01*
X72038656Y-82406565D01*
X72175455Y-82406565D01*
X72183910Y-82429049D01*
X72238133Y-82463790D01*
X72307857Y-82444570D01*
X72331360Y-82425227D01*
X72371744Y-82362181D01*
X72361733Y-82318916D01*
X72306707Y-82312110D01*
X72295800Y-82314991D01*
X72202429Y-82357092D01*
X72175455Y-82406565D01*
X72038656Y-82406565D01*
X72037845Y-82359358D01*
X72067169Y-82280114D01*
X72081112Y-82265175D01*
X72145886Y-82233040D01*
X72240105Y-82207586D01*
X72250445Y-82205797D01*
X72329865Y-82185452D01*
X72370586Y-82160442D01*
X72372000Y-82155573D01*
X72344006Y-82115346D01*
X72276194Y-82101402D01*
X72192818Y-82118061D01*
X72183574Y-82122022D01*
X72123709Y-82142793D01*
X72102888Y-82122155D01*
X72101067Y-82091769D01*
X72129265Y-82026096D01*
X72199928Y-81986075D01*
X72292159Y-81973420D01*
X72385059Y-81989846D01*
G36*
X71930970Y-81997152D02*
X71951112Y-82022288D01*
X71961466Y-82080467D01*
X71965208Y-82185011D01*
X71965600Y-82275960D01*
X71965600Y-82560186D01*
X71770867Y-82562786D01*
X71655248Y-82559033D01*
X71563040Y-82546618D01*
X71526077Y-82534255D01*
X71494928Y-82486083D01*
X71473969Y-82382836D01*
X71463109Y-82247428D01*
X71457794Y-82117598D01*
X71460288Y-82041242D01*
X71473819Y-82004254D01*
X71501616Y-81992530D01*
X71521632Y-81991734D01*
X71560351Y-81997795D01*
X71581848Y-82026093D01*
X71591095Y-82091796D01*
X71593067Y-82209585D01*
X71595564Y-82329562D01*
X71606507Y-82398844D01*
X71631070Y-82434392D01*
X71666686Y-82450802D01*
X71745021Y-82448048D01*
X71798621Y-82383767D01*
X71826335Y-82259929D01*
X71830134Y-82171527D01*
X71833291Y-82066179D01*
X71846850Y-82012153D01*
X71876942Y-81993176D01*
X71897867Y-81991734D01*
X71930970Y-81997152D01*
X71930970Y-81997152D01*
G37*
X71930970Y-81997152D02*
X71951112Y-82022288D01*
X71961466Y-82080467D01*
X71965208Y-82185011D01*
X71965600Y-82275960D01*
X71965600Y-82560186D01*
X71770867Y-82562786D01*
X71655248Y-82559033D01*
X71563040Y-82546618D01*
X71526077Y-82534255D01*
X71494928Y-82486083D01*
X71473969Y-82382836D01*
X71463109Y-82247428D01*
X71457794Y-82117598D01*
X71460288Y-82041242D01*
X71473819Y-82004254D01*
X71501616Y-81992530D01*
X71521632Y-81991734D01*
X71560351Y-81997795D01*
X71581848Y-82026093D01*
X71591095Y-82091796D01*
X71593067Y-82209585D01*
X71595564Y-82329562D01*
X71606507Y-82398844D01*
X71631070Y-82434392D01*
X71666686Y-82450802D01*
X71745021Y-82448048D01*
X71798621Y-82383767D01*
X71826335Y-82259929D01*
X71830134Y-82171527D01*
X71833291Y-82066179D01*
X71846850Y-82012153D01*
X71876942Y-81993176D01*
X71897867Y-81991734D01*
X71930970Y-81997152D01*
G36*
X71273684Y-81978416D02*
X71341754Y-82015540D01*
X71358477Y-82064997D01*
X71325582Y-82104936D01*
X71262867Y-82115260D01*
X71183212Y-82124965D01*
X71156909Y-82157279D01*
X71190148Y-82200226D01*
X71212255Y-82213189D01*
X71331839Y-82293622D01*
X71386403Y-82378000D01*
X71374917Y-82463835D01*
X71336648Y-82514248D01*
X71273550Y-82545078D01*
X71171166Y-82564125D01*
X71049684Y-82571402D01*
X70929293Y-82566922D01*
X70830179Y-82550696D01*
X70772531Y-82522738D01*
X70766957Y-82513897D01*
X70756534Y-82454170D01*
X70749137Y-82349619D01*
X70746400Y-82226030D01*
X70748270Y-82102324D01*
X70756684Y-82031752D01*
X70775853Y-81999754D01*
X70809984Y-81991772D01*
X70814133Y-81991734D01*
X70850247Y-81998353D01*
X70870666Y-82028023D01*
X70879754Y-82095465D01*
X70881871Y-82215398D01*
X70881872Y-82220334D01*
X70881877Y-82448934D01*
X71048300Y-82448934D01*
X71173047Y-82442885D01*
X71231754Y-82424377D01*
X71225058Y-82392867D01*
X71161947Y-82352064D01*
X71048086Y-82276503D01*
X70995994Y-82195768D01*
X70997564Y-82109509D01*
X71049602Y-82027719D01*
X71143338Y-81979318D01*
X71256735Y-81974769D01*
X71273684Y-81978416D01*
X71273684Y-81978416D01*
G37*
X71273684Y-81978416D02*
X71341754Y-82015540D01*
X71358477Y-82064997D01*
X71325582Y-82104936D01*
X71262867Y-82115260D01*
X71183212Y-82124965D01*
X71156909Y-82157279D01*
X71190148Y-82200226D01*
X71212255Y-82213189D01*
X71331839Y-82293622D01*
X71386403Y-82378000D01*
X71374917Y-82463835D01*
X71336648Y-82514248D01*
X71273550Y-82545078D01*
X71171166Y-82564125D01*
X71049684Y-82571402D01*
X70929293Y-82566922D01*
X70830179Y-82550696D01*
X70772531Y-82522738D01*
X70766957Y-82513897D01*
X70756534Y-82454170D01*
X70749137Y-82349619D01*
X70746400Y-82226030D01*
X70748270Y-82102324D01*
X70756684Y-82031752D01*
X70775853Y-81999754D01*
X70809984Y-81991772D01*
X70814133Y-81991734D01*
X70850247Y-81998353D01*
X70870666Y-82028023D01*
X70879754Y-82095465D01*
X70881871Y-82215398D01*
X70881872Y-82220334D01*
X70881877Y-82448934D01*
X71048300Y-82448934D01*
X71173047Y-82442885D01*
X71231754Y-82424377D01*
X71225058Y-82392867D01*
X71161947Y-82352064D01*
X71048086Y-82276503D01*
X70995994Y-82195768D01*
X70997564Y-82109509D01*
X71049602Y-82027719D01*
X71143338Y-81979318D01*
X71256735Y-81974769D01*
X71273684Y-81978416D01*
G36*
X70120997Y-81796448D02*
X70155029Y-81828203D01*
X70190227Y-81895817D01*
X70233894Y-82011309D01*
X70256996Y-82078392D01*
X70355375Y-82368251D01*
X70457754Y-82078489D01*
X70509758Y-81938051D01*
X70549723Y-81850855D01*
X70584794Y-81805186D01*
X70622118Y-81789327D01*
X70634530Y-81788630D01*
X70708927Y-81788534D01*
X70624018Y-82017134D01*
X70571457Y-82160997D01*
X70519759Y-82306307D01*
X70485210Y-82406600D01*
X70445405Y-82506469D01*
X70405177Y-82554991D01*
X70353381Y-82567467D01*
X70290914Y-82548584D01*
X70251270Y-82481439D01*
X70243699Y-82457400D01*
X70217057Y-82374501D01*
X70174213Y-82251123D01*
X70123139Y-82110059D01*
X70107492Y-82067934D01*
X70003037Y-81788534D01*
X70080827Y-81788534D01*
X70120997Y-81796448D01*
X70120997Y-81796448D01*
G37*
X70120997Y-81796448D02*
X70155029Y-81828203D01*
X70190227Y-81895817D01*
X70233894Y-82011309D01*
X70256996Y-82078392D01*
X70355375Y-82368251D01*
X70457754Y-82078489D01*
X70509758Y-81938051D01*
X70549723Y-81850855D01*
X70584794Y-81805186D01*
X70622118Y-81789327D01*
X70634530Y-81788630D01*
X70708927Y-81788534D01*
X70624018Y-82017134D01*
X70571457Y-82160997D01*
X70519759Y-82306307D01*
X70485210Y-82406600D01*
X70445405Y-82506469D01*
X70405177Y-82554991D01*
X70353381Y-82567467D01*
X70290914Y-82548584D01*
X70251270Y-82481439D01*
X70243699Y-82457400D01*
X70217057Y-82374501D01*
X70174213Y-82251123D01*
X70123139Y-82110059D01*
X70107492Y-82067934D01*
X70003037Y-81788534D01*
X70080827Y-81788534D01*
X70120997Y-81796448D01*
G36*
X69623145Y-81724683D02*
X69642208Y-81743699D01*
X69653907Y-81788896D01*
X69660025Y-81871326D01*
X69662346Y-82002037D01*
X69662667Y-82140493D01*
X69662667Y-82560186D01*
X69464771Y-82562972D01*
X69334523Y-82556470D01*
X69235874Y-82535629D01*
X69204876Y-82520423D01*
X69163529Y-82466664D01*
X69143757Y-82372764D01*
X69140305Y-82298255D01*
X69140804Y-82282430D01*
X69256267Y-82282430D01*
X69279224Y-82374889D01*
X69336040Y-82437300D01*
X69408632Y-82459297D01*
X69478916Y-82430513D01*
X69491497Y-82417279D01*
X69519704Y-82341118D01*
X69517007Y-82242633D01*
X69487514Y-82154051D01*
X69452983Y-82115106D01*
X69386309Y-82107272D01*
X69318602Y-82147401D01*
X69269358Y-82218912D01*
X69256267Y-82282430D01*
X69140804Y-82282430D01*
X69143826Y-82186706D01*
X69165167Y-82115107D01*
X69214364Y-82056127D01*
X69236392Y-82036516D01*
X69327292Y-81977052D01*
X69414569Y-81968014D01*
X69431126Y-81970825D01*
X69492682Y-81978603D01*
X69520027Y-81957539D01*
X69527007Y-81891003D01*
X69527200Y-81855420D01*
X69532957Y-81767132D01*
X69556188Y-81728263D01*
X69594933Y-81720800D01*
X69623145Y-81724683D01*
X69623145Y-81724683D01*
G37*
X69623145Y-81724683D02*
X69642208Y-81743699D01*
X69653907Y-81788896D01*
X69660025Y-81871326D01*
X69662346Y-82002037D01*
X69662667Y-82140493D01*
X69662667Y-82560186D01*
X69464771Y-82562972D01*
X69334523Y-82556470D01*
X69235874Y-82535629D01*
X69204876Y-82520423D01*
X69163529Y-82466664D01*
X69143757Y-82372764D01*
X69140305Y-82298255D01*
X69140804Y-82282430D01*
X69256267Y-82282430D01*
X69279224Y-82374889D01*
X69336040Y-82437300D01*
X69408632Y-82459297D01*
X69478916Y-82430513D01*
X69491497Y-82417279D01*
X69519704Y-82341118D01*
X69517007Y-82242633D01*
X69487514Y-82154051D01*
X69452983Y-82115106D01*
X69386309Y-82107272D01*
X69318602Y-82147401D01*
X69269358Y-82218912D01*
X69256267Y-82282430D01*
X69140804Y-82282430D01*
X69143826Y-82186706D01*
X69165167Y-82115107D01*
X69214364Y-82056127D01*
X69236392Y-82036516D01*
X69327292Y-81977052D01*
X69414569Y-81968014D01*
X69431126Y-81970825D01*
X69492682Y-81978603D01*
X69520027Y-81957539D01*
X69527007Y-81891003D01*
X69527200Y-81855420D01*
X69532957Y-81767132D01*
X69556188Y-81728263D01*
X69594933Y-81720800D01*
X69623145Y-81724683D01*
G36*
X68963264Y-82005309D02*
X69016635Y-82068570D01*
X69045397Y-82183868D01*
X69053067Y-82336873D01*
X69051139Y-82459396D01*
X69042482Y-82528891D01*
X69022791Y-82560023D01*
X68987758Y-82567454D01*
X68985333Y-82567467D01*
X68946837Y-82559684D01*
X68926318Y-82525829D01*
X68918256Y-82450142D01*
X68917082Y-82372734D01*
X68909452Y-82225162D01*
X68885272Y-82136367D01*
X68841171Y-82098685D01*
X68796494Y-82098646D01*
X68737688Y-82141570D01*
X68700519Y-82244831D01*
X68684260Y-82410528D01*
X68683909Y-82423534D01*
X68673633Y-82521848D01*
X68646311Y-82564015D01*
X68629733Y-82567467D01*
X68604250Y-82555118D01*
X68588692Y-82510183D01*
X68580956Y-82420831D01*
X68578933Y-82281865D01*
X68578933Y-81996264D01*
X68689000Y-81992543D01*
X68795861Y-81989276D01*
X68881869Y-81987106D01*
X68963264Y-82005309D01*
X68963264Y-82005309D01*
G37*
X68963264Y-82005309D02*
X69016635Y-82068570D01*
X69045397Y-82183868D01*
X69053067Y-82336873D01*
X69051139Y-82459396D01*
X69042482Y-82528891D01*
X69022791Y-82560023D01*
X68987758Y-82567454D01*
X68985333Y-82567467D01*
X68946837Y-82559684D01*
X68926318Y-82525829D01*
X68918256Y-82450142D01*
X68917082Y-82372734D01*
X68909452Y-82225162D01*
X68885272Y-82136367D01*
X68841171Y-82098685D01*
X68796494Y-82098646D01*
X68737688Y-82141570D01*
X68700519Y-82244831D01*
X68684260Y-82410528D01*
X68683909Y-82423534D01*
X68673633Y-82521848D01*
X68646311Y-82564015D01*
X68629733Y-82567467D01*
X68604250Y-82555118D01*
X68588692Y-82510183D01*
X68580956Y-82420831D01*
X68578933Y-82281865D01*
X68578933Y-81996264D01*
X68689000Y-81992543D01*
X68795861Y-81989276D01*
X68881869Y-81987106D01*
X68963264Y-82005309D01*
G36*
X68321059Y-81989846D02*
X68393731Y-82037067D01*
X68410493Y-82061136D01*
X68427815Y-82126334D01*
X68439757Y-82234050D01*
X68443467Y-82341467D01*
X68443467Y-82560186D01*
X68246177Y-82562963D01*
X68130840Y-82557979D01*
X68042594Y-82542069D01*
X68009110Y-82525964D01*
X67975458Y-82453297D01*
X67974656Y-82406565D01*
X68111455Y-82406565D01*
X68119910Y-82429049D01*
X68174133Y-82463790D01*
X68243857Y-82444570D01*
X68267360Y-82425227D01*
X68307744Y-82362181D01*
X68297733Y-82318916D01*
X68242707Y-82312110D01*
X68231800Y-82314991D01*
X68138429Y-82357092D01*
X68111455Y-82406565D01*
X67974656Y-82406565D01*
X67973845Y-82359358D01*
X68003169Y-82280114D01*
X68017112Y-82265175D01*
X68081886Y-82233040D01*
X68176105Y-82207586D01*
X68186445Y-82205797D01*
X68265865Y-82185452D01*
X68306586Y-82160442D01*
X68308000Y-82155573D01*
X68280006Y-82115346D01*
X68212194Y-82101402D01*
X68128818Y-82118061D01*
X68119574Y-82122022D01*
X68059709Y-82142793D01*
X68038888Y-82122155D01*
X68037067Y-82091769D01*
X68065265Y-82026096D01*
X68135928Y-81986075D01*
X68228159Y-81973420D01*
X68321059Y-81989846D01*
X68321059Y-81989846D01*
G37*
X68321059Y-81989846D02*
X68393731Y-82037067D01*
X68410493Y-82061136D01*
X68427815Y-82126334D01*
X68439757Y-82234050D01*
X68443467Y-82341467D01*
X68443467Y-82560186D01*
X68246177Y-82562963D01*
X68130840Y-82557979D01*
X68042594Y-82542069D01*
X68009110Y-82525964D01*
X67975458Y-82453297D01*
X67974656Y-82406565D01*
X68111455Y-82406565D01*
X68119910Y-82429049D01*
X68174133Y-82463790D01*
X68243857Y-82444570D01*
X68267360Y-82425227D01*
X68307744Y-82362181D01*
X68297733Y-82318916D01*
X68242707Y-82312110D01*
X68231800Y-82314991D01*
X68138429Y-82357092D01*
X68111455Y-82406565D01*
X67974656Y-82406565D01*
X67973845Y-82359358D01*
X68003169Y-82280114D01*
X68017112Y-82265175D01*
X68081886Y-82233040D01*
X68176105Y-82207586D01*
X68186445Y-82205797D01*
X68265865Y-82185452D01*
X68306586Y-82160442D01*
X68308000Y-82155573D01*
X68280006Y-82115346D01*
X68212194Y-82101402D01*
X68128818Y-82118061D01*
X68119574Y-82122022D01*
X68059709Y-82142793D01*
X68038888Y-82122155D01*
X68037067Y-82091769D01*
X68065265Y-82026096D01*
X68135928Y-81986075D01*
X68228159Y-81973420D01*
X68321059Y-81989846D01*
G36*
X67506997Y-82005309D02*
X67560368Y-82068570D01*
X67589131Y-82183868D01*
X67596800Y-82336873D01*
X67594872Y-82459396D01*
X67586216Y-82528891D01*
X67566525Y-82560023D01*
X67531491Y-82567454D01*
X67529067Y-82567467D01*
X67490570Y-82559684D01*
X67470052Y-82525829D01*
X67461989Y-82450142D01*
X67460815Y-82372734D01*
X67453488Y-82225626D01*
X67430178Y-82137904D01*
X67387455Y-82102394D01*
X67334128Y-82107645D01*
X67274369Y-82161586D01*
X67237362Y-82276049D01*
X67224278Y-82447350D01*
X67224267Y-82453167D01*
X67212389Y-82539146D01*
X67174955Y-82567445D01*
X67173467Y-82567467D01*
X67147984Y-82555118D01*
X67132426Y-82510183D01*
X67124689Y-82420831D01*
X67122667Y-82281865D01*
X67122667Y-81996264D01*
X67232734Y-81992543D01*
X67339595Y-81989276D01*
X67425602Y-81987106D01*
X67506997Y-82005309D01*
X67506997Y-82005309D01*
G37*
X67506997Y-82005309D02*
X67560368Y-82068570D01*
X67589131Y-82183868D01*
X67596800Y-82336873D01*
X67594872Y-82459396D01*
X67586216Y-82528891D01*
X67566525Y-82560023D01*
X67531491Y-82567454D01*
X67529067Y-82567467D01*
X67490570Y-82559684D01*
X67470052Y-82525829D01*
X67461989Y-82450142D01*
X67460815Y-82372734D01*
X67453488Y-82225626D01*
X67430178Y-82137904D01*
X67387455Y-82102394D01*
X67334128Y-82107645D01*
X67274369Y-82161586D01*
X67237362Y-82276049D01*
X67224278Y-82447350D01*
X67224267Y-82453167D01*
X67212389Y-82539146D01*
X67174955Y-82567445D01*
X67173467Y-82567467D01*
X67147984Y-82555118D01*
X67132426Y-82510183D01*
X67124689Y-82420831D01*
X67122667Y-82281865D01*
X67122667Y-81996264D01*
X67232734Y-81992543D01*
X67339595Y-81989276D01*
X67425602Y-81987106D01*
X67506997Y-82005309D01*
G36*
X66876803Y-82013167D02*
X66905475Y-82036473D01*
X66970893Y-82106424D01*
X66999179Y-82185617D01*
X67004134Y-82273112D01*
X66984019Y-82419608D01*
X66921489Y-82514393D01*
X66813264Y-82561038D01*
X66733855Y-82567467D01*
X66614188Y-82552119D01*
X66529125Y-82499423D01*
X66518970Y-82489084D01*
X66456105Y-82378618D01*
X66449028Y-82279600D01*
X66580800Y-82279600D01*
X66604960Y-82368119D01*
X66663667Y-82438605D01*
X66733200Y-82465867D01*
X66792699Y-82443661D01*
X66832381Y-82412648D01*
X66875990Y-82331345D01*
X66876221Y-82237441D01*
X66839975Y-82153151D01*
X66774152Y-82100690D01*
X66733200Y-82093334D01*
X66660776Y-82122862D01*
X66603105Y-82194615D01*
X66580800Y-82279600D01*
X66449028Y-82279600D01*
X66447240Y-82254592D01*
X66486179Y-82134498D01*
X66566725Y-82035827D01*
X66682682Y-81976071D01*
X66702275Y-81971636D01*
X66793293Y-81970166D01*
X66876803Y-82013167D01*
X66876803Y-82013167D01*
G37*
X66876803Y-82013167D02*
X66905475Y-82036473D01*
X66970893Y-82106424D01*
X66999179Y-82185617D01*
X67004134Y-82273112D01*
X66984019Y-82419608D01*
X66921489Y-82514393D01*
X66813264Y-82561038D01*
X66733855Y-82567467D01*
X66614188Y-82552119D01*
X66529125Y-82499423D01*
X66518970Y-82489084D01*
X66456105Y-82378618D01*
X66449028Y-82279600D01*
X66580800Y-82279600D01*
X66604960Y-82368119D01*
X66663667Y-82438605D01*
X66733200Y-82465867D01*
X66792699Y-82443661D01*
X66832381Y-82412648D01*
X66875990Y-82331345D01*
X66876221Y-82237441D01*
X66839975Y-82153151D01*
X66774152Y-82100690D01*
X66733200Y-82093334D01*
X66660776Y-82122862D01*
X66603105Y-82194615D01*
X66580800Y-82279600D01*
X66449028Y-82279600D01*
X66447240Y-82254592D01*
X66486179Y-82134498D01*
X66566725Y-82035827D01*
X66682682Y-81976071D01*
X66702275Y-81971636D01*
X66793293Y-81970166D01*
X66876803Y-82013167D01*
G36*
X66312656Y-81998594D02*
X66333093Y-82029155D01*
X66341915Y-82098382D01*
X66343734Y-82211867D01*
X66347125Y-82335343D01*
X66359243Y-82403971D01*
X66383004Y-82430388D01*
X66394534Y-82432000D01*
X66435905Y-82460235D01*
X66445334Y-82499734D01*
X66418887Y-82550528D01*
X66356518Y-82569170D01*
X66283687Y-82552147D01*
X66248907Y-82526827D01*
X66226780Y-82470382D01*
X66212529Y-82362196D01*
X66208267Y-82238960D01*
X66209952Y-82111186D01*
X66217603Y-82036903D01*
X66235113Y-82001900D01*
X66266375Y-81991966D01*
X66276000Y-81991734D01*
X66312656Y-81998594D01*
X66312656Y-81998594D01*
G37*
X66312656Y-81998594D02*
X66333093Y-82029155D01*
X66341915Y-82098382D01*
X66343734Y-82211867D01*
X66347125Y-82335343D01*
X66359243Y-82403971D01*
X66383004Y-82430388D01*
X66394534Y-82432000D01*
X66435905Y-82460235D01*
X66445334Y-82499734D01*
X66418887Y-82550528D01*
X66356518Y-82569170D01*
X66283687Y-82552147D01*
X66248907Y-82526827D01*
X66226780Y-82470382D01*
X66212529Y-82362196D01*
X66208267Y-82238960D01*
X66209952Y-82111186D01*
X66217603Y-82036903D01*
X66235113Y-82001900D01*
X66266375Y-81991966D01*
X66276000Y-81991734D01*
X66312656Y-81998594D01*
G36*
X66024350Y-81978416D02*
X66092421Y-82015540D01*
X66109144Y-82064997D01*
X66076248Y-82104936D01*
X66013534Y-82115260D01*
X65933878Y-82124965D01*
X65907576Y-82157279D01*
X65940815Y-82200226D01*
X65962921Y-82213189D01*
X66082506Y-82293622D01*
X66137070Y-82378000D01*
X66125584Y-82463835D01*
X66087314Y-82514248D01*
X66024217Y-82545078D01*
X65921833Y-82564125D01*
X65800351Y-82571402D01*
X65679959Y-82566922D01*
X65580846Y-82550696D01*
X65523198Y-82522738D01*
X65517624Y-82513897D01*
X65507201Y-82454170D01*
X65499804Y-82349619D01*
X65497067Y-82226030D01*
X65498936Y-82102324D01*
X65507351Y-82031752D01*
X65526519Y-81999754D01*
X65560651Y-81991772D01*
X65564800Y-81991734D01*
X65600913Y-81998353D01*
X65621333Y-82028023D01*
X65630420Y-82095465D01*
X65632537Y-82215398D01*
X65632539Y-82220334D01*
X65632544Y-82448934D01*
X65798967Y-82448934D01*
X65923713Y-82442885D01*
X65982420Y-82424377D01*
X65975725Y-82392867D01*
X65912614Y-82352064D01*
X65798753Y-82276503D01*
X65746661Y-82195768D01*
X65748231Y-82109509D01*
X65800268Y-82027719D01*
X65894004Y-81979318D01*
X66007402Y-81974769D01*
X66024350Y-81978416D01*
X66024350Y-81978416D01*
G37*
X66024350Y-81978416D02*
X66092421Y-82015540D01*
X66109144Y-82064997D01*
X66076248Y-82104936D01*
X66013534Y-82115260D01*
X65933878Y-82124965D01*
X65907576Y-82157279D01*
X65940815Y-82200226D01*
X65962921Y-82213189D01*
X66082506Y-82293622D01*
X66137070Y-82378000D01*
X66125584Y-82463835D01*
X66087314Y-82514248D01*
X66024217Y-82545078D01*
X65921833Y-82564125D01*
X65800351Y-82571402D01*
X65679959Y-82566922D01*
X65580846Y-82550696D01*
X65523198Y-82522738D01*
X65517624Y-82513897D01*
X65507201Y-82454170D01*
X65499804Y-82349619D01*
X65497067Y-82226030D01*
X65498936Y-82102324D01*
X65507351Y-82031752D01*
X65526519Y-81999754D01*
X65560651Y-81991772D01*
X65564800Y-81991734D01*
X65600913Y-81998353D01*
X65621333Y-82028023D01*
X65630420Y-82095465D01*
X65632537Y-82215398D01*
X65632539Y-82220334D01*
X65632544Y-82448934D01*
X65798967Y-82448934D01*
X65923713Y-82442885D01*
X65982420Y-82424377D01*
X65975725Y-82392867D01*
X65912614Y-82352064D01*
X65798753Y-82276503D01*
X65746661Y-82195768D01*
X65748231Y-82109509D01*
X65800268Y-82027719D01*
X65894004Y-81979318D01*
X66007402Y-81974769D01*
X66024350Y-81978416D01*
G36*
X64873691Y-81797202D02*
X64908067Y-81831064D01*
X64944577Y-81901909D01*
X64990347Y-82021524D01*
X65011439Y-82081611D01*
X65112988Y-82374689D01*
X65210411Y-82081611D01*
X65258834Y-81941619D01*
X65295696Y-81854519D01*
X65328395Y-81808180D01*
X65364330Y-81790469D01*
X65389140Y-81788534D01*
X65446444Y-81798413D01*
X65449917Y-81836522D01*
X65445575Y-81847800D01*
X65417175Y-81919449D01*
X65374929Y-82030529D01*
X65325833Y-82162092D01*
X65276886Y-82295191D01*
X65235083Y-82410881D01*
X65207422Y-82490213D01*
X65201686Y-82508200D01*
X65157405Y-82556171D01*
X65109332Y-82567467D01*
X65046160Y-82545372D01*
X65002896Y-82470366D01*
X64998486Y-82457400D01*
X64970168Y-82374266D01*
X64926535Y-82250525D01*
X64875703Y-82109121D01*
X64860719Y-82067934D01*
X64758764Y-81788534D01*
X64834327Y-81788534D01*
X64873691Y-81797202D01*
X64873691Y-81797202D01*
G37*
X64873691Y-81797202D02*
X64908067Y-81831064D01*
X64944577Y-81901909D01*
X64990347Y-82021524D01*
X65011439Y-82081611D01*
X65112988Y-82374689D01*
X65210411Y-82081611D01*
X65258834Y-81941619D01*
X65295696Y-81854519D01*
X65328395Y-81808180D01*
X65364330Y-81790469D01*
X65389140Y-81788534D01*
X65446444Y-81798413D01*
X65449917Y-81836522D01*
X65445575Y-81847800D01*
X65417175Y-81919449D01*
X65374929Y-82030529D01*
X65325833Y-82162092D01*
X65276886Y-82295191D01*
X65235083Y-82410881D01*
X65207422Y-82490213D01*
X65201686Y-82508200D01*
X65157405Y-82556171D01*
X65109332Y-82567467D01*
X65046160Y-82545372D01*
X65002896Y-82470366D01*
X64998486Y-82457400D01*
X64970168Y-82374266D01*
X64926535Y-82250525D01*
X64875703Y-82109121D01*
X64860719Y-82067934D01*
X64758764Y-81788534D01*
X64834327Y-81788534D01*
X64873691Y-81797202D01*
G36*
X59476105Y-79037619D02*
X59573260Y-79074641D01*
X59709918Y-79139692D01*
X59877690Y-79227944D01*
X60068186Y-79334571D01*
X60273015Y-79454745D01*
X60483787Y-79583640D01*
X60692114Y-79716429D01*
X60889603Y-79848285D01*
X61067867Y-79974381D01*
X61087628Y-79988941D01*
X61227242Y-80091596D01*
X61353532Y-80183143D01*
X61453136Y-80253982D01*
X61512690Y-80294512D01*
X61514834Y-80295855D01*
X61541314Y-80308517D01*
X61573801Y-80312411D01*
X61619584Y-80304555D01*
X61685952Y-80281971D01*
X61780191Y-80241678D01*
X61909592Y-80180697D01*
X62081441Y-80096046D01*
X62303028Y-79984746D01*
X62418819Y-79926232D01*
X62644946Y-79811712D01*
X62858717Y-79703194D01*
X63050413Y-79605630D01*
X63210317Y-79523974D01*
X63328710Y-79463179D01*
X63393911Y-79429244D01*
X63481752Y-79383754D01*
X63541171Y-79355152D01*
X63554778Y-79350134D01*
X63567215Y-79375275D01*
X63561160Y-79424213D01*
X63541619Y-79457216D01*
X63541267Y-79457378D01*
X63511617Y-79485378D01*
X63445279Y-79555949D01*
X63350029Y-79660570D01*
X63233644Y-79790716D01*
X63129272Y-79908934D01*
X62995957Y-80060540D01*
X62872502Y-80200536D01*
X62768254Y-80318351D01*
X62692562Y-80403414D01*
X62660977Y-80438463D01*
X62579278Y-80527726D01*
X62721833Y-80939180D01*
X62773886Y-81094851D01*
X62814382Y-81226582D01*
X62839703Y-81321761D01*
X62846230Y-81367776D01*
X62845335Y-81369688D01*
X62812269Y-81358549D01*
X62738539Y-81313210D01*
X62636465Y-81241666D01*
X62561474Y-81185450D01*
X62425230Y-81080862D01*
X62257879Y-80952402D01*
X62082049Y-80817438D01*
X61941067Y-80709228D01*
X61585467Y-80436297D01*
X61246800Y-80769161D01*
X60901067Y-81095434D01*
X60574267Y-81373624D01*
X60251789Y-81614489D01*
X59919021Y-81828789D01*
X59561351Y-82027284D01*
X59485734Y-82065937D01*
X58990557Y-82283689D01*
X58496028Y-82437447D01*
X58005516Y-82526513D01*
X57522392Y-82550191D01*
X57233600Y-82532315D01*
X56851923Y-82460987D01*
X56498796Y-82329479D01*
X56170928Y-82136179D01*
X55865030Y-81879473D01*
X55827987Y-81842657D01*
X55689955Y-81691525D01*
X55563947Y-81532366D01*
X55458252Y-81377724D01*
X55381160Y-81240144D01*
X55340960Y-81132174D01*
X55337067Y-81099716D01*
X55362216Y-81048234D01*
X55425436Y-80981347D01*
X55456643Y-80955709D01*
X55576219Y-80864504D01*
X55472439Y-80801391D01*
X55377001Y-80725522D01*
X55344440Y-80646597D01*
X55370382Y-80553511D01*
X55372909Y-80548709D01*
X55415100Y-80494746D01*
X55491116Y-80417470D01*
X55586104Y-80329853D01*
X55685207Y-80244869D01*
X55773573Y-80175491D01*
X55836347Y-80134694D01*
X55853391Y-80129067D01*
X55873332Y-80157827D01*
X55878934Y-80205375D01*
X55888058Y-80276183D01*
X55911927Y-80387139D01*
X55943808Y-80508537D01*
X56074669Y-80851125D01*
X56257845Y-81156174D01*
X56487850Y-81418812D01*
X56759197Y-81634168D01*
X57066399Y-81797367D01*
X57403969Y-81903538D01*
X57542645Y-81928431D01*
X57707230Y-81948393D01*
X57838219Y-81952810D01*
X57968105Y-81940965D01*
X58110483Y-81915894D01*
X58466702Y-81813456D01*
X58785608Y-81655314D01*
X59063865Y-81444319D01*
X59298139Y-81183322D01*
X59485094Y-80875176D01*
X59575012Y-80663805D01*
X59623458Y-80521203D01*
X59653364Y-80399871D01*
X59668962Y-80273482D01*
X59674485Y-80115709D01*
X59674822Y-80042961D01*
X59671257Y-79857569D01*
X59658045Y-79713618D01*
X59631409Y-79585070D01*
X59588714Y-79449146D01*
X59540117Y-79318709D01*
X59492355Y-79204822D01*
X59455037Y-79130250D01*
X59452213Y-79125775D01*
X59423418Y-79064829D01*
X59426843Y-79033452D01*
X59476105Y-79037619D01*
X59476105Y-79037619D01*
G37*
X59476105Y-79037619D02*
X59573260Y-79074641D01*
X59709918Y-79139692D01*
X59877690Y-79227944D01*
X60068186Y-79334571D01*
X60273015Y-79454745D01*
X60483787Y-79583640D01*
X60692114Y-79716429D01*
X60889603Y-79848285D01*
X61067867Y-79974381D01*
X61087628Y-79988941D01*
X61227242Y-80091596D01*
X61353532Y-80183143D01*
X61453136Y-80253982D01*
X61512690Y-80294512D01*
X61514834Y-80295855D01*
X61541314Y-80308517D01*
X61573801Y-80312411D01*
X61619584Y-80304555D01*
X61685952Y-80281971D01*
X61780191Y-80241678D01*
X61909592Y-80180697D01*
X62081441Y-80096046D01*
X62303028Y-79984746D01*
X62418819Y-79926232D01*
X62644946Y-79811712D01*
X62858717Y-79703194D01*
X63050413Y-79605630D01*
X63210317Y-79523974D01*
X63328710Y-79463179D01*
X63393911Y-79429244D01*
X63481752Y-79383754D01*
X63541171Y-79355152D01*
X63554778Y-79350134D01*
X63567215Y-79375275D01*
X63561160Y-79424213D01*
X63541619Y-79457216D01*
X63541267Y-79457378D01*
X63511617Y-79485378D01*
X63445279Y-79555949D01*
X63350029Y-79660570D01*
X63233644Y-79790716D01*
X63129272Y-79908934D01*
X62995957Y-80060540D01*
X62872502Y-80200536D01*
X62768254Y-80318351D01*
X62692562Y-80403414D01*
X62660977Y-80438463D01*
X62579278Y-80527726D01*
X62721833Y-80939180D01*
X62773886Y-81094851D01*
X62814382Y-81226582D01*
X62839703Y-81321761D01*
X62846230Y-81367776D01*
X62845335Y-81369688D01*
X62812269Y-81358549D01*
X62738539Y-81313210D01*
X62636465Y-81241666D01*
X62561474Y-81185450D01*
X62425230Y-81080862D01*
X62257879Y-80952402D01*
X62082049Y-80817438D01*
X61941067Y-80709228D01*
X61585467Y-80436297D01*
X61246800Y-80769161D01*
X60901067Y-81095434D01*
X60574267Y-81373624D01*
X60251789Y-81614489D01*
X59919021Y-81828789D01*
X59561351Y-82027284D01*
X59485734Y-82065937D01*
X58990557Y-82283689D01*
X58496028Y-82437447D01*
X58005516Y-82526513D01*
X57522392Y-82550191D01*
X57233600Y-82532315D01*
X56851923Y-82460987D01*
X56498796Y-82329479D01*
X56170928Y-82136179D01*
X55865030Y-81879473D01*
X55827987Y-81842657D01*
X55689955Y-81691525D01*
X55563947Y-81532366D01*
X55458252Y-81377724D01*
X55381160Y-81240144D01*
X55340960Y-81132174D01*
X55337067Y-81099716D01*
X55362216Y-81048234D01*
X55425436Y-80981347D01*
X55456643Y-80955709D01*
X55576219Y-80864504D01*
X55472439Y-80801391D01*
X55377001Y-80725522D01*
X55344440Y-80646597D01*
X55370382Y-80553511D01*
X55372909Y-80548709D01*
X55415100Y-80494746D01*
X55491116Y-80417470D01*
X55586104Y-80329853D01*
X55685207Y-80244869D01*
X55773573Y-80175491D01*
X55836347Y-80134694D01*
X55853391Y-80129067D01*
X55873332Y-80157827D01*
X55878934Y-80205375D01*
X55888058Y-80276183D01*
X55911927Y-80387139D01*
X55943808Y-80508537D01*
X56074669Y-80851125D01*
X56257845Y-81156174D01*
X56487850Y-81418812D01*
X56759197Y-81634168D01*
X57066399Y-81797367D01*
X57403969Y-81903538D01*
X57542645Y-81928431D01*
X57707230Y-81948393D01*
X57838219Y-81952810D01*
X57968105Y-81940965D01*
X58110483Y-81915894D01*
X58466702Y-81813456D01*
X58785608Y-81655314D01*
X59063865Y-81444319D01*
X59298139Y-81183322D01*
X59485094Y-80875176D01*
X59575012Y-80663805D01*
X59623458Y-80521203D01*
X59653364Y-80399871D01*
X59668962Y-80273482D01*
X59674485Y-80115709D01*
X59674822Y-80042961D01*
X59671257Y-79857569D01*
X59658045Y-79713618D01*
X59631409Y-79585070D01*
X59588714Y-79449146D01*
X59540117Y-79318709D01*
X59492355Y-79204822D01*
X59455037Y-79130250D01*
X59452213Y-79125775D01*
X59423418Y-79064829D01*
X59426843Y-79033452D01*
X59476105Y-79037619D01*
G36*
X76830962Y-82003936D02*
X76842400Y-82019769D01*
X76829708Y-82069416D01*
X76796225Y-82163985D01*
X76748838Y-82286577D01*
X76694436Y-82420293D01*
X76639907Y-82548236D01*
X76592139Y-82653507D01*
X76558020Y-82719209D01*
X76555995Y-82722390D01*
X76497696Y-82775363D01*
X76421825Y-82803874D01*
X76350533Y-82805207D01*
X76305968Y-82776642D01*
X76300534Y-82753734D01*
X76328841Y-82712378D01*
X76368993Y-82702934D01*
X76446550Y-82677190D01*
X76481239Y-82603061D01*
X76472320Y-82485197D01*
X76425983Y-82344579D01*
X76362850Y-82190326D01*
X76325215Y-82088197D01*
X76311465Y-82028247D01*
X76319988Y-82000529D01*
X76349171Y-81995096D01*
X76369689Y-81997430D01*
X76425211Y-82024431D01*
X76469512Y-82095695D01*
X76496317Y-82169534D01*
X76530449Y-82261851D01*
X76561149Y-82320035D01*
X76573679Y-82330400D01*
X76598096Y-82301113D01*
X76632577Y-82225934D01*
X76656134Y-82161067D01*
X76699904Y-82052951D01*
X76743656Y-82000868D01*
X76777389Y-81991734D01*
X76830962Y-82003936D01*
X76830962Y-82003936D01*
G37*
X76830962Y-82003936D02*
X76842400Y-82019769D01*
X76829708Y-82069416D01*
X76796225Y-82163985D01*
X76748838Y-82286577D01*
X76694436Y-82420293D01*
X76639907Y-82548236D01*
X76592139Y-82653507D01*
X76558020Y-82719209D01*
X76555995Y-82722390D01*
X76497696Y-82775363D01*
X76421825Y-82803874D01*
X76350533Y-82805207D01*
X76305968Y-82776642D01*
X76300534Y-82753734D01*
X76328841Y-82712378D01*
X76368993Y-82702934D01*
X76446550Y-82677190D01*
X76481239Y-82603061D01*
X76472320Y-82485197D01*
X76425983Y-82344579D01*
X76362850Y-82190326D01*
X76325215Y-82088197D01*
X76311465Y-82028247D01*
X76319988Y-82000529D01*
X76349171Y-81995096D01*
X76369689Y-81997430D01*
X76425211Y-82024431D01*
X76469512Y-82095695D01*
X76496317Y-82169534D01*
X76530449Y-82261851D01*
X76561149Y-82320035D01*
X76573679Y-82330400D01*
X76598096Y-82301113D01*
X76632577Y-82225934D01*
X76656134Y-82161067D01*
X76699904Y-82052951D01*
X76743656Y-82000868D01*
X76777389Y-81991734D01*
X76830962Y-82003936D01*
G36*
X76077850Y-81987473D02*
X76176731Y-81989003D01*
X76273063Y-81990170D01*
X76261398Y-82326144D01*
X76250397Y-82516261D01*
X76228326Y-82648817D01*
X76188438Y-82733844D01*
X76123985Y-82781377D01*
X76028221Y-82801449D01*
X75939685Y-82804534D01*
X75833970Y-82801458D01*
X75779589Y-82788131D01*
X75760267Y-82758407D01*
X75758667Y-82736155D01*
X75770472Y-82688299D01*
X75818556Y-82683528D01*
X75843334Y-82689026D01*
X75954777Y-82697977D01*
X76048225Y-82672422D01*
X76101882Y-82618962D01*
X76104938Y-82609779D01*
X76105524Y-82571770D01*
X76069547Y-82558298D01*
X75988760Y-82562327D01*
X75859174Y-82554725D01*
X75775048Y-82499858D01*
X75732311Y-82393607D01*
X75724800Y-82295036D01*
X75726809Y-82279600D01*
X75860267Y-82279600D01*
X75880034Y-82388857D01*
X75931593Y-82451210D01*
X76003331Y-82459564D01*
X76077981Y-82412648D01*
X76120548Y-82334424D01*
X76124957Y-82241628D01*
X76096606Y-82156736D01*
X76040890Y-82102224D01*
X76001315Y-82093334D01*
X75916538Y-82122017D01*
X75868967Y-82203829D01*
X75860267Y-82279600D01*
X75726809Y-82279600D01*
X75745121Y-82138907D01*
X75806003Y-82036863D01*
X75907328Y-81989059D01*
X75964169Y-81985236D01*
X76077850Y-81987473D01*
X76077850Y-81987473D01*
G37*
X76077850Y-81987473D02*
X76176731Y-81989003D01*
X76273063Y-81990170D01*
X76261398Y-82326144D01*
X76250397Y-82516261D01*
X76228326Y-82648817D01*
X76188438Y-82733844D01*
X76123985Y-82781377D01*
X76028221Y-82801449D01*
X75939685Y-82804534D01*
X75833970Y-82801458D01*
X75779589Y-82788131D01*
X75760267Y-82758407D01*
X75758667Y-82736155D01*
X75770472Y-82688299D01*
X75818556Y-82683528D01*
X75843334Y-82689026D01*
X75954777Y-82697977D01*
X76048225Y-82672422D01*
X76101882Y-82618962D01*
X76104938Y-82609779D01*
X76105524Y-82571770D01*
X76069547Y-82558298D01*
X75988760Y-82562327D01*
X75859174Y-82554725D01*
X75775048Y-82499858D01*
X75732311Y-82393607D01*
X75724800Y-82295036D01*
X75726809Y-82279600D01*
X75860267Y-82279600D01*
X75880034Y-82388857D01*
X75931593Y-82451210D01*
X76003331Y-82459564D01*
X76077981Y-82412648D01*
X76120548Y-82334424D01*
X76124957Y-82241628D01*
X76096606Y-82156736D01*
X76040890Y-82102224D01*
X76001315Y-82093334D01*
X75916538Y-82122017D01*
X75868967Y-82203829D01*
X75860267Y-82279600D01*
X75726809Y-82279600D01*
X75745121Y-82138907D01*
X75806003Y-82036863D01*
X75907328Y-81989059D01*
X75964169Y-81985236D01*
X76077850Y-81987473D01*
G04 #@! TO.C, LED 11*
D14*
X79704761Y-65052380D02*
X79228571Y-65052380D01*
X79228571Y-64052380D01*
X80038095Y-64528571D02*
X80371428Y-64528571D01*
X80514285Y-65052380D02*
X80038095Y-65052380D01*
X80038095Y-64052380D01*
X80514285Y-64052380D01*
X80942857Y-65052380D02*
X80942857Y-64052380D01*
X81180952Y-64052380D01*
X81323809Y-64100000D01*
X81419047Y-64195238D01*
X81466666Y-64290476D01*
X81514285Y-64480952D01*
X81514285Y-64623809D01*
X81466666Y-64814285D01*
X81419047Y-64909523D01*
X81323809Y-65004761D01*
X81180952Y-65052380D01*
X80942857Y-65052380D01*
X83228571Y-65052380D02*
X82657142Y-65052380D01*
X82942857Y-65052380D02*
X82942857Y-64052380D01*
X82847619Y-64195238D01*
X82752380Y-64290476D01*
X82657142Y-64338095D01*
X84180952Y-65052380D02*
X83609523Y-65052380D01*
X83895238Y-65052380D02*
X83895238Y-64052380D01*
X83800000Y-64195238D01*
X83704761Y-64290476D01*
X83609523Y-64338095D01*
G04 #@! TO.C,*
G04 #@! TO.C,LED 1*
X19800000Y-64852380D02*
X19323809Y-64852380D01*
X19323809Y-63852380D01*
X20133333Y-64328571D02*
X20466666Y-64328571D01*
X20609523Y-64852380D02*
X20133333Y-64852380D01*
X20133333Y-63852380D01*
X20609523Y-63852380D01*
X21038095Y-64852380D02*
X21038095Y-63852380D01*
X21276190Y-63852380D01*
X21419047Y-63900000D01*
X21514285Y-63995238D01*
X21561904Y-64090476D01*
X21609523Y-64280952D01*
X21609523Y-64423809D01*
X21561904Y-64614285D01*
X21514285Y-64709523D01*
X21419047Y-64804761D01*
X21276190Y-64852380D01*
X21038095Y-64852380D01*
X23323809Y-64852380D02*
X22752380Y-64852380D01*
X23038095Y-64852380D02*
X23038095Y-63852380D01*
X22942857Y-63995238D01*
X22847619Y-64090476D01*
X22752380Y-64138095D01*
G04 #@! TO.C,LED 2*
X25840000Y-64852380D02*
X25363809Y-64852380D01*
X25363809Y-63852380D01*
X26173333Y-64328571D02*
X26506666Y-64328571D01*
X26649523Y-64852380D02*
X26173333Y-64852380D01*
X26173333Y-63852380D01*
X26649523Y-63852380D01*
X27078095Y-64852380D02*
X27078095Y-63852380D01*
X27316190Y-63852380D01*
X27459047Y-63900000D01*
X27554285Y-63995238D01*
X27601904Y-64090476D01*
X27649523Y-64280952D01*
X27649523Y-64423809D01*
X27601904Y-64614285D01*
X27554285Y-64709523D01*
X27459047Y-64804761D01*
X27316190Y-64852380D01*
X27078095Y-64852380D01*
X28792380Y-63947619D02*
X28840000Y-63900000D01*
X28935238Y-63852380D01*
X29173333Y-63852380D01*
X29268571Y-63900000D01*
X29316190Y-63947619D01*
X29363809Y-64042857D01*
X29363809Y-64138095D01*
X29316190Y-64280952D01*
X28744761Y-64852380D01*
X29363809Y-64852380D01*
G04 #@! TO.C,LED 3*
X31880000Y-64852380D02*
X31403809Y-64852380D01*
X31403809Y-63852380D01*
X32213333Y-64328571D02*
X32546666Y-64328571D01*
X32689523Y-64852380D02*
X32213333Y-64852380D01*
X32213333Y-63852380D01*
X32689523Y-63852380D01*
X33118095Y-64852380D02*
X33118095Y-63852380D01*
X33356190Y-63852380D01*
X33499047Y-63900000D01*
X33594285Y-63995238D01*
X33641904Y-64090476D01*
X33689523Y-64280952D01*
X33689523Y-64423809D01*
X33641904Y-64614285D01*
X33594285Y-64709523D01*
X33499047Y-64804761D01*
X33356190Y-64852380D01*
X33118095Y-64852380D01*
X34784761Y-63852380D02*
X35403809Y-63852380D01*
X35070476Y-64233333D01*
X35213333Y-64233333D01*
X35308571Y-64280952D01*
X35356190Y-64328571D01*
X35403809Y-64423809D01*
X35403809Y-64661904D01*
X35356190Y-64757142D01*
X35308571Y-64804761D01*
X35213333Y-64852380D01*
X34927619Y-64852380D01*
X34832380Y-64804761D01*
X34784761Y-64757142D01*
G04 #@! TO.C,LED 4*
X37820000Y-64852380D02*
X37343809Y-64852380D01*
X37343809Y-63852380D01*
X38153333Y-64328571D02*
X38486666Y-64328571D01*
X38629523Y-64852380D02*
X38153333Y-64852380D01*
X38153333Y-63852380D01*
X38629523Y-63852380D01*
X39058095Y-64852380D02*
X39058095Y-63852380D01*
X39296190Y-63852380D01*
X39439047Y-63900000D01*
X39534285Y-63995238D01*
X39581904Y-64090476D01*
X39629523Y-64280952D01*
X39629523Y-64423809D01*
X39581904Y-64614285D01*
X39534285Y-64709523D01*
X39439047Y-64804761D01*
X39296190Y-64852380D01*
X39058095Y-64852380D01*
X41248571Y-64185714D02*
X41248571Y-64852380D01*
X41010476Y-63804761D02*
X40772380Y-64519047D01*
X41391428Y-64519047D01*
G04 #@! TO.C,LED 5*
X43800000Y-64952380D02*
X43323809Y-64952380D01*
X43323809Y-63952380D01*
X44133333Y-64428571D02*
X44466666Y-64428571D01*
X44609523Y-64952380D02*
X44133333Y-64952380D01*
X44133333Y-63952380D01*
X44609523Y-63952380D01*
X45038095Y-64952380D02*
X45038095Y-63952380D01*
X45276190Y-63952380D01*
X45419047Y-64000000D01*
X45514285Y-64095238D01*
X45561904Y-64190476D01*
X45609523Y-64380952D01*
X45609523Y-64523809D01*
X45561904Y-64714285D01*
X45514285Y-64809523D01*
X45419047Y-64904761D01*
X45276190Y-64952380D01*
X45038095Y-64952380D01*
X47276190Y-63952380D02*
X46800000Y-63952380D01*
X46752380Y-64428571D01*
X46800000Y-64380952D01*
X46895238Y-64333333D01*
X47133333Y-64333333D01*
X47228571Y-64380952D01*
X47276190Y-64428571D01*
X47323809Y-64523809D01*
X47323809Y-64761904D01*
X47276190Y-64857142D01*
X47228571Y-64904761D01*
X47133333Y-64952380D01*
X46895238Y-64952380D01*
X46800000Y-64904761D01*
X46752380Y-64857142D01*
G04 #@! TO.C,LED 6*
X49800000Y-64952380D02*
X49323809Y-64952380D01*
X49323809Y-63952380D01*
X50133333Y-64428571D02*
X50466666Y-64428571D01*
X50609523Y-64952380D02*
X50133333Y-64952380D01*
X50133333Y-63952380D01*
X50609523Y-63952380D01*
X51038095Y-64952380D02*
X51038095Y-63952380D01*
X51276190Y-63952380D01*
X51419047Y-64000000D01*
X51514285Y-64095238D01*
X51561904Y-64190476D01*
X51609523Y-64380952D01*
X51609523Y-64523809D01*
X51561904Y-64714285D01*
X51514285Y-64809523D01*
X51419047Y-64904761D01*
X51276190Y-64952380D01*
X51038095Y-64952380D01*
X53228571Y-63952380D02*
X53038095Y-63952380D01*
X52942857Y-64000000D01*
X52895238Y-64047619D01*
X52800000Y-64190476D01*
X52752380Y-64380952D01*
X52752380Y-64761904D01*
X52800000Y-64857142D01*
X52847619Y-64904761D01*
X52942857Y-64952380D01*
X53133333Y-64952380D01*
X53228571Y-64904761D01*
X53276190Y-64857142D01*
X53323809Y-64761904D01*
X53323809Y-64523809D01*
X53276190Y-64428571D01*
X53228571Y-64380952D01*
X53133333Y-64333333D01*
X52942857Y-64333333D01*
X52847619Y-64380952D01*
X52800000Y-64428571D01*
X52752380Y-64523809D01*
G04 #@! TO.C,LED 7*
X55900000Y-65052380D02*
X55423809Y-65052380D01*
X55423809Y-64052380D01*
X56233333Y-64528571D02*
X56566666Y-64528571D01*
X56709523Y-65052380D02*
X56233333Y-65052380D01*
X56233333Y-64052380D01*
X56709523Y-64052380D01*
X57138095Y-65052380D02*
X57138095Y-64052380D01*
X57376190Y-64052380D01*
X57519047Y-64100000D01*
X57614285Y-64195238D01*
X57661904Y-64290476D01*
X57709523Y-64480952D01*
X57709523Y-64623809D01*
X57661904Y-64814285D01*
X57614285Y-64909523D01*
X57519047Y-65004761D01*
X57376190Y-65052380D01*
X57138095Y-65052380D01*
X58804761Y-64052380D02*
X59471428Y-64052380D01*
X59042857Y-65052380D01*
G04 #@! TO.C,LED 8*
X61800000Y-65052380D02*
X61323809Y-65052380D01*
X61323809Y-64052380D01*
X62133333Y-64528571D02*
X62466666Y-64528571D01*
X62609523Y-65052380D02*
X62133333Y-65052380D01*
X62133333Y-64052380D01*
X62609523Y-64052380D01*
X63038095Y-65052380D02*
X63038095Y-64052380D01*
X63276190Y-64052380D01*
X63419047Y-64100000D01*
X63514285Y-64195238D01*
X63561904Y-64290476D01*
X63609523Y-64480952D01*
X63609523Y-64623809D01*
X63561904Y-64814285D01*
X63514285Y-64909523D01*
X63419047Y-65004761D01*
X63276190Y-65052380D01*
X63038095Y-65052380D01*
X64942857Y-64480952D02*
X64847619Y-64433333D01*
X64800000Y-64385714D01*
X64752380Y-64290476D01*
X64752380Y-64242857D01*
X64800000Y-64147619D01*
X64847619Y-64100000D01*
X64942857Y-64052380D01*
X65133333Y-64052380D01*
X65228571Y-64100000D01*
X65276190Y-64147619D01*
X65323809Y-64242857D01*
X65323809Y-64290476D01*
X65276190Y-64385714D01*
X65228571Y-64433333D01*
X65133333Y-64480952D01*
X64942857Y-64480952D01*
X64847619Y-64528571D01*
X64800000Y-64576190D01*
X64752380Y-64671428D01*
X64752380Y-64861904D01*
X64800000Y-64957142D01*
X64847619Y-65004761D01*
X64942857Y-65052380D01*
X65133333Y-65052380D01*
X65228571Y-65004761D01*
X65276190Y-64957142D01*
X65323809Y-64861904D01*
X65323809Y-64671428D01*
X65276190Y-64576190D01*
X65228571Y-64528571D01*
X65133333Y-64480952D01*
G04 #@! TO.C,LED 9*
X67800000Y-65052380D02*
X67323809Y-65052380D01*
X67323809Y-64052380D01*
X68133333Y-64528571D02*
X68466666Y-64528571D01*
X68609523Y-65052380D02*
X68133333Y-65052380D01*
X68133333Y-64052380D01*
X68609523Y-64052380D01*
X69038095Y-65052380D02*
X69038095Y-64052380D01*
X69276190Y-64052380D01*
X69419047Y-64100000D01*
X69514285Y-64195238D01*
X69561904Y-64290476D01*
X69609523Y-64480952D01*
X69609523Y-64623809D01*
X69561904Y-64814285D01*
X69514285Y-64909523D01*
X69419047Y-65004761D01*
X69276190Y-65052380D01*
X69038095Y-65052380D01*
X70847619Y-65052380D02*
X71038095Y-65052380D01*
X71133333Y-65004761D01*
X71180952Y-64957142D01*
X71276190Y-64814285D01*
X71323809Y-64623809D01*
X71323809Y-64242857D01*
X71276190Y-64147619D01*
X71228571Y-64100000D01*
X71133333Y-64052380D01*
X70942857Y-64052380D01*
X70847619Y-64100000D01*
X70800000Y-64147619D01*
X70752380Y-64242857D01*
X70752380Y-64480952D01*
X70800000Y-64576190D01*
X70847619Y-64623809D01*
X70942857Y-64671428D01*
X71133333Y-64671428D01*
X71228571Y-64623809D01*
X71276190Y-64576190D01*
X71323809Y-64480952D01*
G04 #@! TO.C,LED 10*
X73423809Y-65052380D02*
X72947619Y-65052380D01*
X72947619Y-64052380D01*
X73757142Y-64528571D02*
X74090476Y-64528571D01*
X74233333Y-65052380D02*
X73757142Y-65052380D01*
X73757142Y-64052380D01*
X74233333Y-64052380D01*
X74661904Y-65052380D02*
X74661904Y-64052380D01*
X74900000Y-64052380D01*
X75042857Y-64100000D01*
X75138095Y-64195238D01*
X75185714Y-64290476D01*
X75233333Y-64480952D01*
X75233333Y-64623809D01*
X75185714Y-64814285D01*
X75138095Y-64909523D01*
X75042857Y-65004761D01*
X74900000Y-65052380D01*
X74661904Y-65052380D01*
X76947619Y-65052380D02*
X76376190Y-65052380D01*
X76661904Y-65052380D02*
X76661904Y-64052380D01*
X76566666Y-64195238D01*
X76471428Y-64290476D01*
X76376190Y-64338095D01*
X77566666Y-64052380D02*
X77661904Y-64052380D01*
X77757142Y-64100000D01*
X77804761Y-64147619D01*
X77852380Y-64242857D01*
X77900000Y-64433333D01*
X77900000Y-64671428D01*
X77852380Y-64861904D01*
X77804761Y-64957142D01*
X77757142Y-65004761D01*
X77661904Y-65052380D01*
X77566666Y-65052380D01*
X77471428Y-65004761D01*
X77423809Y-64957142D01*
X77376190Y-64861904D01*
X77328571Y-64671428D01*
X77328571Y-64433333D01*
X77376190Y-64242857D01*
X77423809Y-64147619D01*
X77471428Y-64100000D01*
X77566666Y-64052380D01*
G04 #@! TO.C,LED 12*
X85423809Y-65052380D02*
X84947619Y-65052380D01*
X84947619Y-64052380D01*
X85757142Y-64528571D02*
X86090476Y-64528571D01*
X86233333Y-65052380D02*
X85757142Y-65052380D01*
X85757142Y-64052380D01*
X86233333Y-64052380D01*
X86661904Y-65052380D02*
X86661904Y-64052380D01*
X86900000Y-64052380D01*
X87042857Y-64100000D01*
X87138095Y-64195238D01*
X87185714Y-64290476D01*
X87233333Y-64480952D01*
X87233333Y-64623809D01*
X87185714Y-64814285D01*
X87138095Y-64909523D01*
X87042857Y-65004761D01*
X86900000Y-65052380D01*
X86661904Y-65052380D01*
X88947619Y-65052380D02*
X88376190Y-65052380D01*
X88661904Y-65052380D02*
X88661904Y-64052380D01*
X88566666Y-64195238D01*
X88471428Y-64290476D01*
X88376190Y-64338095D01*
X89328571Y-64147619D02*
X89376190Y-64100000D01*
X89471428Y-64052380D01*
X89709523Y-64052380D01*
X89804761Y-64100000D01*
X89852380Y-64147619D01*
X89900000Y-64242857D01*
X89900000Y-64338095D01*
X89852380Y-64480952D01*
X89280952Y-65052380D01*
X89900000Y-65052380D01*
G04 #@! TO.C,LED 13*
X91423809Y-65052380D02*
X90947619Y-65052380D01*
X90947619Y-64052380D01*
X91757142Y-64528571D02*
X92090476Y-64528571D01*
X92233333Y-65052380D02*
X91757142Y-65052380D01*
X91757142Y-64052380D01*
X92233333Y-64052380D01*
X92661904Y-65052380D02*
X92661904Y-64052380D01*
X92900000Y-64052380D01*
X93042857Y-64100000D01*
X93138095Y-64195238D01*
X93185714Y-64290476D01*
X93233333Y-64480952D01*
X93233333Y-64623809D01*
X93185714Y-64814285D01*
X93138095Y-64909523D01*
X93042857Y-65004761D01*
X92900000Y-65052380D01*
X92661904Y-65052380D01*
X94947619Y-65052380D02*
X94376190Y-65052380D01*
X94661904Y-65052380D02*
X94661904Y-64052380D01*
X94566666Y-64195238D01*
X94471428Y-64290476D01*
X94376190Y-64338095D01*
X95280952Y-64052380D02*
X95900000Y-64052380D01*
X95566666Y-64433333D01*
X95709523Y-64433333D01*
X95804761Y-64480952D01*
X95852380Y-64528571D01*
X95900000Y-64623809D01*
X95900000Y-64861904D01*
X95852380Y-64957142D01*
X95804761Y-65004761D01*
X95709523Y-65052380D01*
X95423809Y-65052380D01*
X95328571Y-65004761D01*
X95280952Y-64957142D01*
G04 #@! TO.C,LED 14*
X97323809Y-65052380D02*
X96847619Y-65052380D01*
X96847619Y-64052380D01*
X97657142Y-64528571D02*
X97990476Y-64528571D01*
X98133333Y-65052380D02*
X97657142Y-65052380D01*
X97657142Y-64052380D01*
X98133333Y-64052380D01*
X98561904Y-65052380D02*
X98561904Y-64052380D01*
X98800000Y-64052380D01*
X98942857Y-64100000D01*
X99038095Y-64195238D01*
X99085714Y-64290476D01*
X99133333Y-64480952D01*
X99133333Y-64623809D01*
X99085714Y-64814285D01*
X99038095Y-64909523D01*
X98942857Y-65004761D01*
X98800000Y-65052380D01*
X98561904Y-65052380D01*
X100847619Y-65052380D02*
X100276190Y-65052380D01*
X100561904Y-65052380D02*
X100561904Y-64052380D01*
X100466666Y-64195238D01*
X100371428Y-64290476D01*
X100276190Y-64338095D01*
X101704761Y-64385714D02*
X101704761Y-65052380D01*
X101466666Y-64004761D02*
X101228571Y-64719047D01*
X101847619Y-64719047D01*
G04 #@! TO.C,LED 15*
X103323809Y-65052380D02*
X102847619Y-65052380D01*
X102847619Y-64052380D01*
X103657142Y-64528571D02*
X103990476Y-64528571D01*
X104133333Y-65052380D02*
X103657142Y-65052380D01*
X103657142Y-64052380D01*
X104133333Y-64052380D01*
X104561904Y-65052380D02*
X104561904Y-64052380D01*
X104800000Y-64052380D01*
X104942857Y-64100000D01*
X105038095Y-64195238D01*
X105085714Y-64290476D01*
X105133333Y-64480952D01*
X105133333Y-64623809D01*
X105085714Y-64814285D01*
X105038095Y-64909523D01*
X104942857Y-65004761D01*
X104800000Y-65052380D01*
X104561904Y-65052380D01*
X106847619Y-65052380D02*
X106276190Y-65052380D01*
X106561904Y-65052380D02*
X106561904Y-64052380D01*
X106466666Y-64195238D01*
X106371428Y-64290476D01*
X106276190Y-64338095D01*
X107752380Y-64052380D02*
X107276190Y-64052380D01*
X107228571Y-64528571D01*
X107276190Y-64480952D01*
X107371428Y-64433333D01*
X107609523Y-64433333D01*
X107704761Y-64480952D01*
X107752380Y-64528571D01*
X107800000Y-64623809D01*
X107800000Y-64861904D01*
X107752380Y-64957142D01*
X107704761Y-65004761D01*
X107609523Y-65052380D01*
X107371428Y-65052380D01*
X107276190Y-65004761D01*
X107228571Y-64957142D01*
G04 #@! TO.C,LED 16*
X109423809Y-65052380D02*
X108947619Y-65052380D01*
X108947619Y-64052380D01*
X109757142Y-64528571D02*
X110090476Y-64528571D01*
X110233333Y-65052380D02*
X109757142Y-65052380D01*
X109757142Y-64052380D01*
X110233333Y-64052380D01*
X110661904Y-65052380D02*
X110661904Y-64052380D01*
X110900000Y-64052380D01*
X111042857Y-64100000D01*
X111138095Y-64195238D01*
X111185714Y-64290476D01*
X111233333Y-64480952D01*
X111233333Y-64623809D01*
X111185714Y-64814285D01*
X111138095Y-64909523D01*
X111042857Y-65004761D01*
X110900000Y-65052380D01*
X110661904Y-65052380D01*
X112947619Y-65052380D02*
X112376190Y-65052380D01*
X112661904Y-65052380D02*
X112661904Y-64052380D01*
X112566666Y-64195238D01*
X112471428Y-64290476D01*
X112376190Y-64338095D01*
X113804761Y-64052380D02*
X113614285Y-64052380D01*
X113519047Y-64100000D01*
X113471428Y-64147619D01*
X113376190Y-64290476D01*
X113328571Y-64480952D01*
X113328571Y-64861904D01*
X113376190Y-64957142D01*
X113423809Y-65004761D01*
X113519047Y-65052380D01*
X113709523Y-65052380D01*
X113804761Y-65004761D01*
X113852380Y-64957142D01*
X113900000Y-64861904D01*
X113900000Y-64623809D01*
X113852380Y-64528571D01*
X113804761Y-64480952D01*
X113709523Y-64433333D01*
X113519047Y-64433333D01*
X113423809Y-64480952D01*
X113376190Y-64528571D01*
X113328571Y-64623809D01*
G04 #@! TO.C,*
G04 #@! TO.C,From Stimulator*
X22752380Y-80928571D02*
X22419047Y-80928571D01*
X22419047Y-81452380D02*
X22419047Y-80452380D01*
X22895238Y-80452380D01*
X23276190Y-81452380D02*
X23276190Y-80785714D01*
X23276190Y-80976190D02*
X23323809Y-80880952D01*
X23371428Y-80833333D01*
X23466666Y-80785714D01*
X23561904Y-80785714D01*
X24038095Y-81452380D02*
X23942857Y-81404761D01*
X23895238Y-81357142D01*
X23847619Y-81261904D01*
X23847619Y-80976190D01*
X23895238Y-80880952D01*
X23942857Y-80833333D01*
X24038095Y-80785714D01*
X24180952Y-80785714D01*
X24276190Y-80833333D01*
X24323809Y-80880952D01*
X24371428Y-80976190D01*
X24371428Y-81261904D01*
X24323809Y-81357142D01*
X24276190Y-81404761D01*
X24180952Y-81452380D01*
X24038095Y-81452380D01*
X24800000Y-81452380D02*
X24800000Y-80785714D01*
X24800000Y-80880952D02*
X24847619Y-80833333D01*
X24942857Y-80785714D01*
X25085714Y-80785714D01*
X25180952Y-80833333D01*
X25228571Y-80928571D01*
X25228571Y-81452380D01*
X25228571Y-80928571D02*
X25276190Y-80833333D01*
X25371428Y-80785714D01*
X25514285Y-80785714D01*
X25609523Y-80833333D01*
X25657142Y-80928571D01*
X25657142Y-81452380D01*
X26847619Y-81404761D02*
X26990476Y-81452380D01*
X27228571Y-81452380D01*
X27323809Y-81404761D01*
X27371428Y-81357142D01*
X27419047Y-81261904D01*
X27419047Y-81166666D01*
X27371428Y-81071428D01*
X27323809Y-81023809D01*
X27228571Y-80976190D01*
X27038095Y-80928571D01*
X26942857Y-80880952D01*
X26895238Y-80833333D01*
X26847619Y-80738095D01*
X26847619Y-80642857D01*
X26895238Y-80547619D01*
X26942857Y-80500000D01*
X27038095Y-80452380D01*
X27276190Y-80452380D01*
X27419047Y-80500000D01*
X27704761Y-80785714D02*
X28085714Y-80785714D01*
X27847619Y-80452380D02*
X27847619Y-81309523D01*
X27895238Y-81404761D01*
X27990476Y-81452380D01*
X28085714Y-81452380D01*
X28419047Y-81452380D02*
X28419047Y-80785714D01*
X28419047Y-80452380D02*
X28371428Y-80500000D01*
X28419047Y-80547619D01*
X28466666Y-80500000D01*
X28419047Y-80452380D01*
X28419047Y-80547619D01*
X28895238Y-81452380D02*
X28895238Y-80785714D01*
X28895238Y-80880952D02*
X28942857Y-80833333D01*
X29038095Y-80785714D01*
X29180952Y-80785714D01*
X29276190Y-80833333D01*
X29323809Y-80928571D01*
X29323809Y-81452380D01*
X29323809Y-80928571D02*
X29371428Y-80833333D01*
X29466666Y-80785714D01*
X29609523Y-80785714D01*
X29704761Y-80833333D01*
X29752380Y-80928571D01*
X29752380Y-81452380D01*
X30657142Y-80785714D02*
X30657142Y-81452380D01*
X30228571Y-80785714D02*
X30228571Y-81309523D01*
X30276190Y-81404761D01*
X30371428Y-81452380D01*
X30514285Y-81452380D01*
X30609523Y-81404761D01*
X30657142Y-81357142D01*
X31276190Y-81452380D02*
X31180952Y-81404761D01*
X31133333Y-81309523D01*
X31133333Y-80452380D01*
X32085714Y-81452380D02*
X32085714Y-80928571D01*
X32038095Y-80833333D01*
X31942857Y-80785714D01*
X31752380Y-80785714D01*
X31657142Y-80833333D01*
X32085714Y-81404761D02*
X31990476Y-81452380D01*
X31752380Y-81452380D01*
X31657142Y-81404761D01*
X31609523Y-81309523D01*
X31609523Y-81214285D01*
X31657142Y-81119047D01*
X31752380Y-81071428D01*
X31990476Y-81071428D01*
X32085714Y-81023809D01*
X32419047Y-80785714D02*
X32800000Y-80785714D01*
X32561904Y-80452380D02*
X32561904Y-81309523D01*
X32609523Y-81404761D01*
X32704761Y-81452380D01*
X32800000Y-81452380D01*
X33276190Y-81452380D02*
X33180952Y-81404761D01*
X33133333Y-81357142D01*
X33085714Y-81261904D01*
X33085714Y-80976190D01*
X33133333Y-80880952D01*
X33180952Y-80833333D01*
X33276190Y-80785714D01*
X33419047Y-80785714D01*
X33514285Y-80833333D01*
X33561904Y-80880952D01*
X33609523Y-80976190D01*
X33609523Y-81261904D01*
X33561904Y-81357142D01*
X33514285Y-81404761D01*
X33419047Y-81452380D01*
X33276190Y-81452380D01*
X34038095Y-81452380D02*
X34038095Y-80785714D01*
X34038095Y-80976190D02*
X34085714Y-80880952D01*
X34133333Y-80833333D01*
X34228571Y-80785714D01*
X34323809Y-80785714D01*
G04 #@! TO.C,To LED*
X97923809Y-80352380D02*
X98495238Y-80352380D01*
X98209523Y-81352380D02*
X98209523Y-80352380D01*
X98971428Y-81352380D02*
X98876190Y-81304761D01*
X98828571Y-81257142D01*
X98780952Y-81161904D01*
X98780952Y-80876190D01*
X98828571Y-80780952D01*
X98876190Y-80733333D01*
X98971428Y-80685714D01*
X99114285Y-80685714D01*
X99209523Y-80733333D01*
X99257142Y-80780952D01*
X99304761Y-80876190D01*
X99304761Y-81161904D01*
X99257142Y-81257142D01*
X99209523Y-81304761D01*
X99114285Y-81352380D01*
X98971428Y-81352380D01*
X100971428Y-81352380D02*
X100495238Y-81352380D01*
X100495238Y-80352380D01*
X101304761Y-80828571D02*
X101638095Y-80828571D01*
X101780952Y-81352380D02*
X101304761Y-81352380D01*
X101304761Y-80352380D01*
X101780952Y-80352380D01*
X102209523Y-81352380D02*
X102209523Y-80352380D01*
X102447619Y-80352380D01*
X102590476Y-80400000D01*
X102685714Y-80495238D01*
X102733333Y-80590476D01*
X102780952Y-80780952D01*
X102780952Y-80923809D01*
X102733333Y-81114285D01*
X102685714Y-81209523D01*
X102590476Y-81304761D01*
X102447619Y-81352380D01*
X102209523Y-81352380D01*
G04 #@! TD*
M02*
