G04 #@! TF.GenerationSoftware,KiCad,Pcbnew,(5.0.0)*
G04 #@! TF.CreationDate,2019-02-26T18:07:47+01:00*
G04 #@! TF.ProjectId,Potentiometer_mount_4LED,506F74656E74696F6D657465725F6D6F,rev?*
G04 #@! TF.SameCoordinates,Original*
G04 #@! TF.FileFunction,Other,User*
%FSLAX46Y46*%
G04 Gerber Fmt 4.6, Leading zero omitted, Abs format (unit mm)*
G04 Created by KiCad (PCBNEW (5.0.0)) date 02/26/19 18:07:47*
%MOMM*%
%LPD*%
G01*
G04 APERTURE LIST*
%ADD10C,0.050000*%
G04 APERTURE END LIST*
D10*
G04 #@! TO.C,From Stimlator*
X121600000Y-77400000D02*
X121600000Y-82200000D01*
X121600000Y-82200000D02*
X135100000Y-82200000D01*
X135100000Y-82200000D02*
X135100000Y-77400000D01*
X135100000Y-77400000D02*
X121600000Y-77400000D01*
G04 #@! TO.C,To LED*
X153400000Y-77400000D02*
X139900000Y-77400000D01*
X153400000Y-82200000D02*
X153400000Y-77400000D01*
X139900000Y-82200000D02*
X153400000Y-82200000D01*
X139900000Y-77400000D02*
X139900000Y-82200000D01*
G04 #@! TO.C,LED 1*
X124950000Y-73250000D02*
X124950000Y-52200000D01*
X119600000Y-73250000D02*
X124950000Y-73250000D01*
X119600000Y-52200000D02*
X119600000Y-73250000D01*
X124950000Y-52200000D02*
X119600000Y-52200000D01*
G04 #@! TO.C,LED 2*
X135110000Y-52200000D02*
X129760000Y-52200000D01*
X129760000Y-52200000D02*
X129760000Y-73250000D01*
X129760000Y-73250000D02*
X135110000Y-73250000D01*
X135110000Y-73250000D02*
X135110000Y-52200000D01*
G04 #@! TO.C,LED 3*
X145270000Y-73250000D02*
X145270000Y-52200000D01*
X139920000Y-73250000D02*
X145270000Y-73250000D01*
X139920000Y-52200000D02*
X139920000Y-73250000D01*
X145270000Y-52200000D02*
X139920000Y-52200000D01*
G04 #@! TO.C,LED 4*
X155430000Y-52200000D02*
X150080000Y-52200000D01*
X150080000Y-52200000D02*
X150080000Y-73250000D01*
X150080000Y-73250000D02*
X155430000Y-73250000D01*
X155430000Y-73250000D02*
X155430000Y-52200000D01*
G04 #@! TD*
M02*
