G04 #@! TF.GenerationSoftware,KiCad,Pcbnew,(5.0.0)*
G04 #@! TF.CreationDate,2019-02-27T09:15:49+01:00*
G04 #@! TF.ProjectId,Potentiometer_mount_24LED,506F74656E74696F6D657465725F6D6F,rev?*
G04 #@! TF.SameCoordinates,Original*
G04 #@! TF.FileFunction,Other,Fab,Top*
%FSLAX46Y46*%
G04 Gerber Fmt 4.6, Leading zero omitted, Abs format (unit mm)*
G04 Created by KiCad (PCBNEW (5.0.0)) date 02/27/19 09:15:49*
%MOMM*%
%LPD*%
G01*
G04 APERTURE LIST*
%ADD10C,0.100000*%
%ADD11C,0.150000*%
G04 APERTURE END LIST*
D10*
G04 #@! TO.C,LED 1*
X21270000Y-42480000D02*
X21270000Y-43240000D01*
X22450000Y-44000000D02*
X22450000Y-42480000D01*
X20090000Y-44000000D02*
X22450000Y-44000000D01*
X20090000Y-42480000D02*
X20090000Y-44000000D01*
X22450000Y-42480000D02*
X20090000Y-42480000D01*
X23670000Y-63000000D02*
X23670000Y-44000000D01*
X18870000Y-63000000D02*
X23670000Y-63000000D01*
X18870000Y-44000000D02*
X18870000Y-63000000D01*
X23670000Y-44000000D02*
X18870000Y-44000000D01*
G04 #@! TO.C,LED 2*
X29670000Y-44000000D02*
X24870000Y-44000000D01*
X24870000Y-44000000D02*
X24870000Y-63000000D01*
X24870000Y-63000000D02*
X29670000Y-63000000D01*
X29670000Y-63000000D02*
X29670000Y-44000000D01*
X28450000Y-42480000D02*
X26090000Y-42480000D01*
X26090000Y-42480000D02*
X26090000Y-44000000D01*
X26090000Y-44000000D02*
X28450000Y-44000000D01*
X28450000Y-44000000D02*
X28450000Y-42480000D01*
X27270000Y-42480000D02*
X27270000Y-43240000D01*
G04 #@! TO.C,LED 3*
X33270000Y-42480000D02*
X33270000Y-43240000D01*
X34450000Y-44000000D02*
X34450000Y-42480000D01*
X32090000Y-44000000D02*
X34450000Y-44000000D01*
X32090000Y-42480000D02*
X32090000Y-44000000D01*
X34450000Y-42480000D02*
X32090000Y-42480000D01*
X35670000Y-63000000D02*
X35670000Y-44000000D01*
X30870000Y-63000000D02*
X35670000Y-63000000D01*
X30870000Y-44000000D02*
X30870000Y-63000000D01*
X35670000Y-44000000D02*
X30870000Y-44000000D01*
G04 #@! TO.C,LED 4*
X41670000Y-44000000D02*
X36870000Y-44000000D01*
X36870000Y-44000000D02*
X36870000Y-63000000D01*
X36870000Y-63000000D02*
X41670000Y-63000000D01*
X41670000Y-63000000D02*
X41670000Y-44000000D01*
X40450000Y-42480000D02*
X38090000Y-42480000D01*
X38090000Y-42480000D02*
X38090000Y-44000000D01*
X38090000Y-44000000D02*
X40450000Y-44000000D01*
X40450000Y-44000000D02*
X40450000Y-42480000D01*
X39270000Y-42480000D02*
X39270000Y-43240000D01*
G04 #@! TO.C,From Stimulator*
X40407107Y-85000000D02*
X39700000Y-84500000D01*
X39700000Y-85500000D02*
X40407107Y-85000000D01*
X65700000Y-81100000D02*
X39700000Y-81100000D01*
X65700000Y-89400000D02*
X65700000Y-81100000D01*
X39700000Y-89400000D02*
X65700000Y-89400000D01*
X39700000Y-81100000D02*
X39700000Y-89400000D01*
G04 #@! TO.C,To LED*
X116600000Y-81100000D02*
X116600000Y-89400000D01*
X116600000Y-89400000D02*
X142600000Y-89400000D01*
X142600000Y-89400000D02*
X142600000Y-81100000D01*
X142600000Y-81100000D02*
X116600000Y-81100000D01*
X116600000Y-85500000D02*
X117307107Y-85000000D01*
X117307107Y-85000000D02*
X116600000Y-84500000D01*
G04 #@! TO.C,LED 5*
X47670000Y-44000000D02*
X42870000Y-44000000D01*
X42870000Y-44000000D02*
X42870000Y-63000000D01*
X42870000Y-63000000D02*
X47670000Y-63000000D01*
X47670000Y-63000000D02*
X47670000Y-44000000D01*
X46450000Y-42480000D02*
X44090000Y-42480000D01*
X44090000Y-42480000D02*
X44090000Y-44000000D01*
X44090000Y-44000000D02*
X46450000Y-44000000D01*
X46450000Y-44000000D02*
X46450000Y-42480000D01*
X45270000Y-42480000D02*
X45270000Y-43240000D01*
G04 #@! TO.C,LED 6*
X51270000Y-42480000D02*
X51270000Y-43240000D01*
X52450000Y-44000000D02*
X52450000Y-42480000D01*
X50090000Y-44000000D02*
X52450000Y-44000000D01*
X50090000Y-42480000D02*
X50090000Y-44000000D01*
X52450000Y-42480000D02*
X50090000Y-42480000D01*
X53670000Y-63000000D02*
X53670000Y-44000000D01*
X48870000Y-63000000D02*
X53670000Y-63000000D01*
X48870000Y-44000000D02*
X48870000Y-63000000D01*
X53670000Y-44000000D02*
X48870000Y-44000000D01*
G04 #@! TO.C,LED 7*
X59670000Y-44000000D02*
X54870000Y-44000000D01*
X54870000Y-44000000D02*
X54870000Y-63000000D01*
X54870000Y-63000000D02*
X59670000Y-63000000D01*
X59670000Y-63000000D02*
X59670000Y-44000000D01*
X58450000Y-42480000D02*
X56090000Y-42480000D01*
X56090000Y-42480000D02*
X56090000Y-44000000D01*
X56090000Y-44000000D02*
X58450000Y-44000000D01*
X58450000Y-44000000D02*
X58450000Y-42480000D01*
X57270000Y-42480000D02*
X57270000Y-43240000D01*
G04 #@! TO.C,LED 8*
X63270000Y-42480000D02*
X63270000Y-43240000D01*
X64450000Y-44000000D02*
X64450000Y-42480000D01*
X62090000Y-44000000D02*
X64450000Y-44000000D01*
X62090000Y-42480000D02*
X62090000Y-44000000D01*
X64450000Y-42480000D02*
X62090000Y-42480000D01*
X65670000Y-63000000D02*
X65670000Y-44000000D01*
X60870000Y-63000000D02*
X65670000Y-63000000D01*
X60870000Y-44000000D02*
X60870000Y-63000000D01*
X65670000Y-44000000D02*
X60870000Y-44000000D01*
G04 #@! TO.C,LED 9*
X71670000Y-44000000D02*
X66870000Y-44000000D01*
X66870000Y-44000000D02*
X66870000Y-63000000D01*
X66870000Y-63000000D02*
X71670000Y-63000000D01*
X71670000Y-63000000D02*
X71670000Y-44000000D01*
X70450000Y-42480000D02*
X68090000Y-42480000D01*
X68090000Y-42480000D02*
X68090000Y-44000000D01*
X68090000Y-44000000D02*
X70450000Y-44000000D01*
X70450000Y-44000000D02*
X70450000Y-42480000D01*
X69270000Y-42480000D02*
X69270000Y-43240000D01*
G04 #@! TO.C,LED 10*
X75270000Y-42480000D02*
X75270000Y-43240000D01*
X76450000Y-44000000D02*
X76450000Y-42480000D01*
X74090000Y-44000000D02*
X76450000Y-44000000D01*
X74090000Y-42480000D02*
X74090000Y-44000000D01*
X76450000Y-42480000D02*
X74090000Y-42480000D01*
X77670000Y-63000000D02*
X77670000Y-44000000D01*
X72870000Y-63000000D02*
X77670000Y-63000000D01*
X72870000Y-44000000D02*
X72870000Y-63000000D01*
X77670000Y-44000000D02*
X72870000Y-44000000D01*
G04 #@! TO.C, LED 11*
X83670000Y-44000000D02*
X78870000Y-44000000D01*
X78870000Y-44000000D02*
X78870000Y-63000000D01*
X78870000Y-63000000D02*
X83670000Y-63000000D01*
X83670000Y-63000000D02*
X83670000Y-44000000D01*
X82450000Y-42480000D02*
X80090000Y-42480000D01*
X80090000Y-42480000D02*
X80090000Y-44000000D01*
X80090000Y-44000000D02*
X82450000Y-44000000D01*
X82450000Y-44000000D02*
X82450000Y-42480000D01*
X81270000Y-42480000D02*
X81270000Y-43240000D01*
G04 #@! TO.C,LED 12*
X89670000Y-44000000D02*
X84870000Y-44000000D01*
X84870000Y-44000000D02*
X84870000Y-63000000D01*
X84870000Y-63000000D02*
X89670000Y-63000000D01*
X89670000Y-63000000D02*
X89670000Y-44000000D01*
X88450000Y-42480000D02*
X86090000Y-42480000D01*
X86090000Y-42480000D02*
X86090000Y-44000000D01*
X86090000Y-44000000D02*
X88450000Y-44000000D01*
X88450000Y-44000000D02*
X88450000Y-42480000D01*
X87270000Y-42480000D02*
X87270000Y-43240000D01*
G04 #@! TO.C,LED 13*
X95670000Y-44000000D02*
X90870000Y-44000000D01*
X90870000Y-44000000D02*
X90870000Y-63000000D01*
X90870000Y-63000000D02*
X95670000Y-63000000D01*
X95670000Y-63000000D02*
X95670000Y-44000000D01*
X94450000Y-42480000D02*
X92090000Y-42480000D01*
X92090000Y-42480000D02*
X92090000Y-44000000D01*
X92090000Y-44000000D02*
X94450000Y-44000000D01*
X94450000Y-44000000D02*
X94450000Y-42480000D01*
X93270000Y-42480000D02*
X93270000Y-43240000D01*
G04 #@! TO.C,LED 14*
X99270000Y-42480000D02*
X99270000Y-43240000D01*
X100450000Y-44000000D02*
X100450000Y-42480000D01*
X98090000Y-44000000D02*
X100450000Y-44000000D01*
X98090000Y-42480000D02*
X98090000Y-44000000D01*
X100450000Y-42480000D02*
X98090000Y-42480000D01*
X101670000Y-63000000D02*
X101670000Y-44000000D01*
X96870000Y-63000000D02*
X101670000Y-63000000D01*
X96870000Y-44000000D02*
X96870000Y-63000000D01*
X101670000Y-44000000D02*
X96870000Y-44000000D01*
G04 #@! TO.C,LED 15*
X107670000Y-44000000D02*
X102870000Y-44000000D01*
X102870000Y-44000000D02*
X102870000Y-63000000D01*
X102870000Y-63000000D02*
X107670000Y-63000000D01*
X107670000Y-63000000D02*
X107670000Y-44000000D01*
X106450000Y-42480000D02*
X104090000Y-42480000D01*
X104090000Y-42480000D02*
X104090000Y-44000000D01*
X104090000Y-44000000D02*
X106450000Y-44000000D01*
X106450000Y-44000000D02*
X106450000Y-42480000D01*
X105270000Y-42480000D02*
X105270000Y-43240000D01*
G04 #@! TO.C,LED 16*
X111270000Y-42480000D02*
X111270000Y-43240000D01*
X112450000Y-44000000D02*
X112450000Y-42480000D01*
X110090000Y-44000000D02*
X112450000Y-44000000D01*
X110090000Y-42480000D02*
X110090000Y-44000000D01*
X112450000Y-42480000D02*
X110090000Y-42480000D01*
X113670000Y-63000000D02*
X113670000Y-44000000D01*
X108870000Y-63000000D02*
X113670000Y-63000000D01*
X108870000Y-44000000D02*
X108870000Y-63000000D01*
X113670000Y-44000000D02*
X108870000Y-44000000D01*
G04 #@! TO.C,LED 17*
X119670000Y-44000000D02*
X114870000Y-44000000D01*
X114870000Y-44000000D02*
X114870000Y-63000000D01*
X114870000Y-63000000D02*
X119670000Y-63000000D01*
X119670000Y-63000000D02*
X119670000Y-44000000D01*
X118450000Y-42480000D02*
X116090000Y-42480000D01*
X116090000Y-42480000D02*
X116090000Y-44000000D01*
X116090000Y-44000000D02*
X118450000Y-44000000D01*
X118450000Y-44000000D02*
X118450000Y-42480000D01*
X117270000Y-42480000D02*
X117270000Y-43240000D01*
G04 #@! TO.C,LED 18*
X123270000Y-42480000D02*
X123270000Y-43240000D01*
X124450000Y-44000000D02*
X124450000Y-42480000D01*
X122090000Y-44000000D02*
X124450000Y-44000000D01*
X122090000Y-42480000D02*
X122090000Y-44000000D01*
X124450000Y-42480000D02*
X122090000Y-42480000D01*
X125670000Y-63000000D02*
X125670000Y-44000000D01*
X120870000Y-63000000D02*
X125670000Y-63000000D01*
X120870000Y-44000000D02*
X120870000Y-63000000D01*
X125670000Y-44000000D02*
X120870000Y-44000000D01*
G04 #@! TO.C,LED 19*
X131670000Y-44000000D02*
X126870000Y-44000000D01*
X126870000Y-44000000D02*
X126870000Y-63000000D01*
X126870000Y-63000000D02*
X131670000Y-63000000D01*
X131670000Y-63000000D02*
X131670000Y-44000000D01*
X130450000Y-42480000D02*
X128090000Y-42480000D01*
X128090000Y-42480000D02*
X128090000Y-44000000D01*
X128090000Y-44000000D02*
X130450000Y-44000000D01*
X130450000Y-44000000D02*
X130450000Y-42480000D01*
X129270000Y-42480000D02*
X129270000Y-43240000D01*
G04 #@! TO.C,LED 20*
X135270000Y-42480000D02*
X135270000Y-43240000D01*
X136450000Y-44000000D02*
X136450000Y-42480000D01*
X134090000Y-44000000D02*
X136450000Y-44000000D01*
X134090000Y-42480000D02*
X134090000Y-44000000D01*
X136450000Y-42480000D02*
X134090000Y-42480000D01*
X137670000Y-63000000D02*
X137670000Y-44000000D01*
X132870000Y-63000000D02*
X137670000Y-63000000D01*
X132870000Y-44000000D02*
X132870000Y-63000000D01*
X137670000Y-44000000D02*
X132870000Y-44000000D01*
G04 #@! TO.C,LED 21*
X143670000Y-44000000D02*
X138870000Y-44000000D01*
X138870000Y-44000000D02*
X138870000Y-63000000D01*
X138870000Y-63000000D02*
X143670000Y-63000000D01*
X143670000Y-63000000D02*
X143670000Y-44000000D01*
X142450000Y-42480000D02*
X140090000Y-42480000D01*
X140090000Y-42480000D02*
X140090000Y-44000000D01*
X140090000Y-44000000D02*
X142450000Y-44000000D01*
X142450000Y-44000000D02*
X142450000Y-42480000D01*
X141270000Y-42480000D02*
X141270000Y-43240000D01*
G04 #@! TO.C,LED 22*
X147270000Y-42480000D02*
X147270000Y-43240000D01*
X148450000Y-44000000D02*
X148450000Y-42480000D01*
X146090000Y-44000000D02*
X148450000Y-44000000D01*
X146090000Y-42480000D02*
X146090000Y-44000000D01*
X148450000Y-42480000D02*
X146090000Y-42480000D01*
X149670000Y-63000000D02*
X149670000Y-44000000D01*
X144870000Y-63000000D02*
X149670000Y-63000000D01*
X144870000Y-44000000D02*
X144870000Y-63000000D01*
X149670000Y-44000000D02*
X144870000Y-44000000D01*
G04 #@! TO.C,LED 23*
X155670000Y-44000000D02*
X150870000Y-44000000D01*
X150870000Y-44000000D02*
X150870000Y-63000000D01*
X150870000Y-63000000D02*
X155670000Y-63000000D01*
X155670000Y-63000000D02*
X155670000Y-44000000D01*
X154450000Y-42480000D02*
X152090000Y-42480000D01*
X152090000Y-42480000D02*
X152090000Y-44000000D01*
X152090000Y-44000000D02*
X154450000Y-44000000D01*
X154450000Y-44000000D02*
X154450000Y-42480000D01*
X153270000Y-42480000D02*
X153270000Y-43240000D01*
G04 #@! TO.C,LED 24*
X159270000Y-42480000D02*
X159270000Y-43240000D01*
X160450000Y-44000000D02*
X160450000Y-42480000D01*
X158090000Y-44000000D02*
X160450000Y-44000000D01*
X158090000Y-42480000D02*
X158090000Y-44000000D01*
X160450000Y-42480000D02*
X158090000Y-42480000D01*
X161670000Y-63000000D02*
X161670000Y-44000000D01*
X156870000Y-63000000D02*
X161670000Y-63000000D01*
X156870000Y-44000000D02*
X156870000Y-63000000D01*
X161670000Y-44000000D02*
X156870000Y-44000000D01*
G04 #@! TD*
G04 #@! TO.C,*
D11*
X148380952Y-89652380D02*
X148380952Y-88652380D01*
X148714285Y-89366666D01*
X149047619Y-88652380D01*
X149047619Y-89652380D01*
X149666666Y-89652380D02*
X149571428Y-89604761D01*
X149523809Y-89557142D01*
X149476190Y-89461904D01*
X149476190Y-89176190D01*
X149523809Y-89080952D01*
X149571428Y-89033333D01*
X149666666Y-88985714D01*
X149809523Y-88985714D01*
X149904761Y-89033333D01*
X149952380Y-89080952D01*
X150000000Y-89176190D01*
X150000000Y-89461904D01*
X149952380Y-89557142D01*
X149904761Y-89604761D01*
X149809523Y-89652380D01*
X149666666Y-89652380D01*
X150857142Y-88985714D02*
X150857142Y-89652380D01*
X150428571Y-88985714D02*
X150428571Y-89509523D01*
X150476190Y-89604761D01*
X150571428Y-89652380D01*
X150714285Y-89652380D01*
X150809523Y-89604761D01*
X150857142Y-89557142D01*
X151333333Y-88985714D02*
X151333333Y-89652380D01*
X151333333Y-89080952D02*
X151380952Y-89033333D01*
X151476190Y-88985714D01*
X151619047Y-88985714D01*
X151714285Y-89033333D01*
X151761904Y-89128571D01*
X151761904Y-89652380D01*
X152095238Y-88985714D02*
X152476190Y-88985714D01*
X152238095Y-88652380D02*
X152238095Y-89509523D01*
X152285714Y-89604761D01*
X152380952Y-89652380D01*
X152476190Y-89652380D01*
X152809523Y-89652380D02*
X152809523Y-88985714D01*
X152809523Y-88652380D02*
X152761904Y-88700000D01*
X152809523Y-88747619D01*
X152857142Y-88700000D01*
X152809523Y-88652380D01*
X152809523Y-88747619D01*
X153285714Y-88985714D02*
X153285714Y-89652380D01*
X153285714Y-89080952D02*
X153333333Y-89033333D01*
X153428571Y-88985714D01*
X153571428Y-88985714D01*
X153666666Y-89033333D01*
X153714285Y-89128571D01*
X153714285Y-89652380D01*
X154619047Y-88985714D02*
X154619047Y-89795238D01*
X154571428Y-89890476D01*
X154523809Y-89938095D01*
X154428571Y-89985714D01*
X154285714Y-89985714D01*
X154190476Y-89938095D01*
X154619047Y-89604761D02*
X154523809Y-89652380D01*
X154333333Y-89652380D01*
X154238095Y-89604761D01*
X154190476Y-89557142D01*
X154142857Y-89461904D01*
X154142857Y-89176190D01*
X154190476Y-89080952D01*
X154238095Y-89033333D01*
X154333333Y-88985714D01*
X154523809Y-88985714D01*
X154619047Y-89033333D01*
X155095238Y-89652380D02*
X155095238Y-88652380D01*
X155095238Y-89128571D02*
X155666666Y-89128571D01*
X155666666Y-89652380D02*
X155666666Y-88652380D01*
X156285714Y-89652380D02*
X156190476Y-89604761D01*
X156142857Y-89557142D01*
X156095238Y-89461904D01*
X156095238Y-89176190D01*
X156142857Y-89080952D01*
X156190476Y-89033333D01*
X156285714Y-88985714D01*
X156428571Y-88985714D01*
X156523809Y-89033333D01*
X156571428Y-89080952D01*
X156619047Y-89176190D01*
X156619047Y-89461904D01*
X156571428Y-89557142D01*
X156523809Y-89604761D01*
X156428571Y-89652380D01*
X156285714Y-89652380D01*
X157190476Y-89652380D02*
X157095238Y-89604761D01*
X157047619Y-89509523D01*
X157047619Y-88652380D01*
X157952380Y-89604761D02*
X157857142Y-89652380D01*
X157666666Y-89652380D01*
X157571428Y-89604761D01*
X157523809Y-89509523D01*
X157523809Y-89128571D01*
X157571428Y-89033333D01*
X157666666Y-88985714D01*
X157857142Y-88985714D01*
X157952380Y-89033333D01*
X158000000Y-89128571D01*
X158000000Y-89223809D01*
X157523809Y-89319047D01*
X158190476Y-89747619D02*
X158952380Y-89747619D01*
X159095238Y-88652380D02*
X159714285Y-88652380D01*
X159380952Y-89033333D01*
X159523809Y-89033333D01*
X159619047Y-89080952D01*
X159666666Y-89128571D01*
X159714285Y-89223809D01*
X159714285Y-89461904D01*
X159666666Y-89557142D01*
X159619047Y-89604761D01*
X159523809Y-89652380D01*
X159238095Y-89652380D01*
X159142857Y-89604761D01*
X159095238Y-89557142D01*
X160142857Y-89557142D02*
X160190476Y-89604761D01*
X160142857Y-89652380D01*
X160095238Y-89604761D01*
X160142857Y-89557142D01*
X160142857Y-89652380D01*
X160571428Y-88747619D02*
X160619047Y-88700000D01*
X160714285Y-88652380D01*
X160952380Y-88652380D01*
X161047619Y-88700000D01*
X161095238Y-88747619D01*
X161142857Y-88842857D01*
X161142857Y-88938095D01*
X161095238Y-89080952D01*
X160523809Y-89652380D01*
X161142857Y-89652380D01*
X161571428Y-89652380D02*
X161571428Y-88985714D01*
X161571428Y-89080952D02*
X161619047Y-89033333D01*
X161714285Y-88985714D01*
X161857142Y-88985714D01*
X161952380Y-89033333D01*
X162000000Y-89128571D01*
X162000000Y-89652380D01*
X162000000Y-89128571D02*
X162047619Y-89033333D01*
X162142857Y-88985714D01*
X162285714Y-88985714D01*
X162380952Y-89033333D01*
X162428571Y-89128571D01*
X162428571Y-89652380D01*
X162904761Y-89652380D02*
X162904761Y-88985714D01*
X162904761Y-89080952D02*
X162952380Y-89033333D01*
X163047619Y-88985714D01*
X163190476Y-88985714D01*
X163285714Y-89033333D01*
X163333333Y-89128571D01*
X163333333Y-89652380D01*
X163333333Y-89128571D02*
X163380952Y-89033333D01*
X163476190Y-88985714D01*
X163619047Y-88985714D01*
X163714285Y-89033333D01*
X163761904Y-89128571D01*
X163761904Y-89652380D01*
X164000000Y-89747619D02*
X164761904Y-89747619D01*
X165000000Y-89652380D02*
X165000000Y-88652380D01*
X165333333Y-89366666D01*
X165666666Y-88652380D01*
X165666666Y-89652380D01*
X166047619Y-88652380D02*
X166666666Y-88652380D01*
X166333333Y-89033333D01*
X166476190Y-89033333D01*
X166571428Y-89080952D01*
X166619047Y-89128571D01*
X166666666Y-89223809D01*
X166666666Y-89461904D01*
X166619047Y-89557142D01*
X166571428Y-89604761D01*
X166476190Y-89652380D01*
X166190476Y-89652380D01*
X166095238Y-89604761D01*
X166047619Y-89557142D01*
X81180952Y-89652380D02*
X81180952Y-88652380D01*
X81514285Y-89366666D01*
X81847619Y-88652380D01*
X81847619Y-89652380D01*
X82466666Y-89652380D02*
X82371428Y-89604761D01*
X82323809Y-89557142D01*
X82276190Y-89461904D01*
X82276190Y-89176190D01*
X82323809Y-89080952D01*
X82371428Y-89033333D01*
X82466666Y-88985714D01*
X82609523Y-88985714D01*
X82704761Y-89033333D01*
X82752380Y-89080952D01*
X82799999Y-89176190D01*
X82799999Y-89461904D01*
X82752380Y-89557142D01*
X82704761Y-89604761D01*
X82609523Y-89652380D01*
X82466666Y-89652380D01*
X83657142Y-88985714D02*
X83657142Y-89652380D01*
X83228571Y-88985714D02*
X83228571Y-89509523D01*
X83276190Y-89604761D01*
X83371428Y-89652380D01*
X83514285Y-89652380D01*
X83609523Y-89604761D01*
X83657142Y-89557142D01*
X84133333Y-88985714D02*
X84133333Y-89652380D01*
X84133333Y-89080952D02*
X84180952Y-89033333D01*
X84276190Y-88985714D01*
X84419047Y-88985714D01*
X84514285Y-89033333D01*
X84561904Y-89128571D01*
X84561904Y-89652380D01*
X84895238Y-88985714D02*
X85276190Y-88985714D01*
X85038095Y-88652380D02*
X85038095Y-89509523D01*
X85085714Y-89604761D01*
X85180952Y-89652380D01*
X85276190Y-89652380D01*
X85609523Y-89652380D02*
X85609523Y-88985714D01*
X85609523Y-88652380D02*
X85561904Y-88700000D01*
X85609523Y-88747619D01*
X85657142Y-88700000D01*
X85609523Y-88652380D01*
X85609523Y-88747619D01*
X86085714Y-88985714D02*
X86085714Y-89652380D01*
X86085714Y-89080952D02*
X86133333Y-89033333D01*
X86228571Y-88985714D01*
X86371428Y-88985714D01*
X86466666Y-89033333D01*
X86514285Y-89128571D01*
X86514285Y-89652380D01*
X87419047Y-88985714D02*
X87419047Y-89795238D01*
X87371428Y-89890476D01*
X87323809Y-89938095D01*
X87228571Y-89985714D01*
X87085714Y-89985714D01*
X86990476Y-89938095D01*
X87419047Y-89604761D02*
X87323809Y-89652380D01*
X87133333Y-89652380D01*
X87038095Y-89604761D01*
X86990476Y-89557142D01*
X86942857Y-89461904D01*
X86942857Y-89176190D01*
X86990476Y-89080952D01*
X87038095Y-89033333D01*
X87133333Y-88985714D01*
X87323809Y-88985714D01*
X87419047Y-89033333D01*
X87895238Y-89652380D02*
X87895238Y-88652380D01*
X87895238Y-89128571D02*
X88466666Y-89128571D01*
X88466666Y-89652380D02*
X88466666Y-88652380D01*
X89085714Y-89652380D02*
X88990476Y-89604761D01*
X88942857Y-89557142D01*
X88895238Y-89461904D01*
X88895238Y-89176190D01*
X88942857Y-89080952D01*
X88990476Y-89033333D01*
X89085714Y-88985714D01*
X89228571Y-88985714D01*
X89323809Y-89033333D01*
X89371428Y-89080952D01*
X89419047Y-89176190D01*
X89419047Y-89461904D01*
X89371428Y-89557142D01*
X89323809Y-89604761D01*
X89228571Y-89652380D01*
X89085714Y-89652380D01*
X89990476Y-89652380D02*
X89895238Y-89604761D01*
X89847619Y-89509523D01*
X89847619Y-88652380D01*
X90752380Y-89604761D02*
X90657142Y-89652380D01*
X90466666Y-89652380D01*
X90371428Y-89604761D01*
X90323809Y-89509523D01*
X90323809Y-89128571D01*
X90371428Y-89033333D01*
X90466666Y-88985714D01*
X90657142Y-88985714D01*
X90752380Y-89033333D01*
X90799999Y-89128571D01*
X90799999Y-89223809D01*
X90323809Y-89319047D01*
X90990476Y-89747619D02*
X91752380Y-89747619D01*
X91895238Y-88652380D02*
X92514285Y-88652380D01*
X92180952Y-89033333D01*
X92323809Y-89033333D01*
X92419047Y-89080952D01*
X92466666Y-89128571D01*
X92514285Y-89223809D01*
X92514285Y-89461904D01*
X92466666Y-89557142D01*
X92419047Y-89604761D01*
X92323809Y-89652380D01*
X92038095Y-89652380D01*
X91942857Y-89604761D01*
X91895238Y-89557142D01*
X92942857Y-89557142D02*
X92990476Y-89604761D01*
X92942857Y-89652380D01*
X92895238Y-89604761D01*
X92942857Y-89557142D01*
X92942857Y-89652380D01*
X93371428Y-88747619D02*
X93419047Y-88700000D01*
X93514285Y-88652380D01*
X93752380Y-88652380D01*
X93847619Y-88700000D01*
X93895238Y-88747619D01*
X93942857Y-88842857D01*
X93942857Y-88938095D01*
X93895238Y-89080952D01*
X93323809Y-89652380D01*
X93942857Y-89652380D01*
X94371428Y-89652380D02*
X94371428Y-88985714D01*
X94371428Y-89080952D02*
X94419047Y-89033333D01*
X94514285Y-88985714D01*
X94657142Y-88985714D01*
X94752380Y-89033333D01*
X94799999Y-89128571D01*
X94799999Y-89652380D01*
X94799999Y-89128571D02*
X94847619Y-89033333D01*
X94942857Y-88985714D01*
X95085714Y-88985714D01*
X95180952Y-89033333D01*
X95228571Y-89128571D01*
X95228571Y-89652380D01*
X95704761Y-89652380D02*
X95704761Y-88985714D01*
X95704761Y-89080952D02*
X95752380Y-89033333D01*
X95847619Y-88985714D01*
X95990476Y-88985714D01*
X96085714Y-89033333D01*
X96133333Y-89128571D01*
X96133333Y-89652380D01*
X96133333Y-89128571D02*
X96180952Y-89033333D01*
X96276190Y-88985714D01*
X96419047Y-88985714D01*
X96514285Y-89033333D01*
X96561904Y-89128571D01*
X96561904Y-89652380D01*
X96799999Y-89747619D02*
X97561904Y-89747619D01*
X97799999Y-89652380D02*
X97799999Y-88652380D01*
X98133333Y-89366666D01*
X98466666Y-88652380D01*
X98466666Y-89652380D01*
X98847619Y-88652380D02*
X99466666Y-88652380D01*
X99133333Y-89033333D01*
X99276190Y-89033333D01*
X99371428Y-89080952D01*
X99419047Y-89128571D01*
X99466666Y-89223809D01*
X99466666Y-89461904D01*
X99419047Y-89557142D01*
X99371428Y-89604761D01*
X99276190Y-89652380D01*
X98990476Y-89652380D01*
X98895238Y-89604761D01*
X98847619Y-89557142D01*
G04 #@! TO.C,LED 1*
X21722380Y-55000000D02*
X21722380Y-55476190D01*
X20722380Y-55476190D01*
X21198571Y-54666666D02*
X21198571Y-54333333D01*
X21722380Y-54190476D02*
X21722380Y-54666666D01*
X20722380Y-54666666D01*
X20722380Y-54190476D01*
X21722380Y-53761904D02*
X20722380Y-53761904D01*
X20722380Y-53523809D01*
X20770000Y-53380952D01*
X20865238Y-53285714D01*
X20960476Y-53238095D01*
X21150952Y-53190476D01*
X21293809Y-53190476D01*
X21484285Y-53238095D01*
X21579523Y-53285714D01*
X21674761Y-53380952D01*
X21722380Y-53523809D01*
X21722380Y-53761904D01*
X21722380Y-51476190D02*
X21722380Y-52047619D01*
X21722380Y-51761904D02*
X20722380Y-51761904D01*
X20865238Y-51857142D01*
X20960476Y-51952380D01*
X21008095Y-52047619D01*
G04 #@! TO.C,LED 2*
X27722380Y-55000000D02*
X27722380Y-55476190D01*
X26722380Y-55476190D01*
X27198571Y-54666666D02*
X27198571Y-54333333D01*
X27722380Y-54190476D02*
X27722380Y-54666666D01*
X26722380Y-54666666D01*
X26722380Y-54190476D01*
X27722380Y-53761904D02*
X26722380Y-53761904D01*
X26722380Y-53523809D01*
X26770000Y-53380952D01*
X26865238Y-53285714D01*
X26960476Y-53238095D01*
X27150952Y-53190476D01*
X27293809Y-53190476D01*
X27484285Y-53238095D01*
X27579523Y-53285714D01*
X27674761Y-53380952D01*
X27722380Y-53523809D01*
X27722380Y-53761904D01*
X26817619Y-52047619D02*
X26770000Y-52000000D01*
X26722380Y-51904761D01*
X26722380Y-51666666D01*
X26770000Y-51571428D01*
X26817619Y-51523809D01*
X26912857Y-51476190D01*
X27008095Y-51476190D01*
X27150952Y-51523809D01*
X27722380Y-52095238D01*
X27722380Y-51476190D01*
G04 #@! TO.C,LED 3*
X33722380Y-55000000D02*
X33722380Y-55476190D01*
X32722380Y-55476190D01*
X33198571Y-54666666D02*
X33198571Y-54333333D01*
X33722380Y-54190476D02*
X33722380Y-54666666D01*
X32722380Y-54666666D01*
X32722380Y-54190476D01*
X33722380Y-53761904D02*
X32722380Y-53761904D01*
X32722380Y-53523809D01*
X32770000Y-53380952D01*
X32865238Y-53285714D01*
X32960476Y-53238095D01*
X33150952Y-53190476D01*
X33293809Y-53190476D01*
X33484285Y-53238095D01*
X33579523Y-53285714D01*
X33674761Y-53380952D01*
X33722380Y-53523809D01*
X33722380Y-53761904D01*
X32722380Y-52095238D02*
X32722380Y-51476190D01*
X33103333Y-51809523D01*
X33103333Y-51666666D01*
X33150952Y-51571428D01*
X33198571Y-51523809D01*
X33293809Y-51476190D01*
X33531904Y-51476190D01*
X33627142Y-51523809D01*
X33674761Y-51571428D01*
X33722380Y-51666666D01*
X33722380Y-51952380D01*
X33674761Y-52047619D01*
X33627142Y-52095238D01*
G04 #@! TO.C,LED 4*
X39722380Y-55000000D02*
X39722380Y-55476190D01*
X38722380Y-55476190D01*
X39198571Y-54666666D02*
X39198571Y-54333333D01*
X39722380Y-54190476D02*
X39722380Y-54666666D01*
X38722380Y-54666666D01*
X38722380Y-54190476D01*
X39722380Y-53761904D02*
X38722380Y-53761904D01*
X38722380Y-53523809D01*
X38770000Y-53380952D01*
X38865238Y-53285714D01*
X38960476Y-53238095D01*
X39150952Y-53190476D01*
X39293809Y-53190476D01*
X39484285Y-53238095D01*
X39579523Y-53285714D01*
X39674761Y-53380952D01*
X39722380Y-53523809D01*
X39722380Y-53761904D01*
X39055714Y-51571428D02*
X39722380Y-51571428D01*
X38674761Y-51809523D02*
X39389047Y-52047619D01*
X39389047Y-51428571D01*
G04 #@! TO.C,From Stimulator*
X47152380Y-81728571D02*
X46819047Y-81728571D01*
X46819047Y-82252380D02*
X46819047Y-81252380D01*
X47295238Y-81252380D01*
X47676190Y-82252380D02*
X47676190Y-81585714D01*
X47676190Y-81776190D02*
X47723809Y-81680952D01*
X47771428Y-81633333D01*
X47866666Y-81585714D01*
X47961904Y-81585714D01*
X48438095Y-82252380D02*
X48342857Y-82204761D01*
X48295238Y-82157142D01*
X48247619Y-82061904D01*
X48247619Y-81776190D01*
X48295238Y-81680952D01*
X48342857Y-81633333D01*
X48438095Y-81585714D01*
X48580952Y-81585714D01*
X48676190Y-81633333D01*
X48723809Y-81680952D01*
X48771428Y-81776190D01*
X48771428Y-82061904D01*
X48723809Y-82157142D01*
X48676190Y-82204761D01*
X48580952Y-82252380D01*
X48438095Y-82252380D01*
X49200000Y-82252380D02*
X49200000Y-81585714D01*
X49200000Y-81680952D02*
X49247619Y-81633333D01*
X49342857Y-81585714D01*
X49485714Y-81585714D01*
X49580952Y-81633333D01*
X49628571Y-81728571D01*
X49628571Y-82252380D01*
X49628571Y-81728571D02*
X49676190Y-81633333D01*
X49771428Y-81585714D01*
X49914285Y-81585714D01*
X50009523Y-81633333D01*
X50057142Y-81728571D01*
X50057142Y-82252380D01*
X51247619Y-82204761D02*
X51390476Y-82252380D01*
X51628571Y-82252380D01*
X51723809Y-82204761D01*
X51771428Y-82157142D01*
X51819047Y-82061904D01*
X51819047Y-81966666D01*
X51771428Y-81871428D01*
X51723809Y-81823809D01*
X51628571Y-81776190D01*
X51438095Y-81728571D01*
X51342857Y-81680952D01*
X51295238Y-81633333D01*
X51247619Y-81538095D01*
X51247619Y-81442857D01*
X51295238Y-81347619D01*
X51342857Y-81300000D01*
X51438095Y-81252380D01*
X51676190Y-81252380D01*
X51819047Y-81300000D01*
X52104761Y-81585714D02*
X52485714Y-81585714D01*
X52247619Y-81252380D02*
X52247619Y-82109523D01*
X52295238Y-82204761D01*
X52390476Y-82252380D01*
X52485714Y-82252380D01*
X52819047Y-82252380D02*
X52819047Y-81585714D01*
X52819047Y-81252380D02*
X52771428Y-81300000D01*
X52819047Y-81347619D01*
X52866666Y-81300000D01*
X52819047Y-81252380D01*
X52819047Y-81347619D01*
X53295238Y-82252380D02*
X53295238Y-81585714D01*
X53295238Y-81680952D02*
X53342857Y-81633333D01*
X53438095Y-81585714D01*
X53580952Y-81585714D01*
X53676190Y-81633333D01*
X53723809Y-81728571D01*
X53723809Y-82252380D01*
X53723809Y-81728571D02*
X53771428Y-81633333D01*
X53866666Y-81585714D01*
X54009523Y-81585714D01*
X54104761Y-81633333D01*
X54152380Y-81728571D01*
X54152380Y-82252380D01*
X55057142Y-81585714D02*
X55057142Y-82252380D01*
X54628571Y-81585714D02*
X54628571Y-82109523D01*
X54676190Y-82204761D01*
X54771428Y-82252380D01*
X54914285Y-82252380D01*
X55009523Y-82204761D01*
X55057142Y-82157142D01*
X55676190Y-82252380D02*
X55580952Y-82204761D01*
X55533333Y-82109523D01*
X55533333Y-81252380D01*
X56485714Y-82252380D02*
X56485714Y-81728571D01*
X56438095Y-81633333D01*
X56342857Y-81585714D01*
X56152380Y-81585714D01*
X56057142Y-81633333D01*
X56485714Y-82204761D02*
X56390476Y-82252380D01*
X56152380Y-82252380D01*
X56057142Y-82204761D01*
X56009523Y-82109523D01*
X56009523Y-82014285D01*
X56057142Y-81919047D01*
X56152380Y-81871428D01*
X56390476Y-81871428D01*
X56485714Y-81823809D01*
X56819047Y-81585714D02*
X57200000Y-81585714D01*
X56961904Y-81252380D02*
X56961904Y-82109523D01*
X57009523Y-82204761D01*
X57104761Y-82252380D01*
X57200000Y-82252380D01*
X57676190Y-82252380D02*
X57580952Y-82204761D01*
X57533333Y-82157142D01*
X57485714Y-82061904D01*
X57485714Y-81776190D01*
X57533333Y-81680952D01*
X57580952Y-81633333D01*
X57676190Y-81585714D01*
X57819047Y-81585714D01*
X57914285Y-81633333D01*
X57961904Y-81680952D01*
X58009523Y-81776190D01*
X58009523Y-82061904D01*
X57961904Y-82157142D01*
X57914285Y-82204761D01*
X57819047Y-82252380D01*
X57676190Y-82252380D01*
X58438095Y-82252380D02*
X58438095Y-81585714D01*
X58438095Y-81776190D02*
X58485714Y-81680952D01*
X58533333Y-81633333D01*
X58628571Y-81585714D01*
X58723809Y-81585714D01*
G04 #@! TO.C,To LED*
X127123809Y-81252380D02*
X127695238Y-81252380D01*
X127409523Y-82252380D02*
X127409523Y-81252380D01*
X128171428Y-82252380D02*
X128076190Y-82204761D01*
X128028571Y-82157142D01*
X127980952Y-82061904D01*
X127980952Y-81776190D01*
X128028571Y-81680952D01*
X128076190Y-81633333D01*
X128171428Y-81585714D01*
X128314285Y-81585714D01*
X128409523Y-81633333D01*
X128457142Y-81680952D01*
X128504761Y-81776190D01*
X128504761Y-82061904D01*
X128457142Y-82157142D01*
X128409523Y-82204761D01*
X128314285Y-82252380D01*
X128171428Y-82252380D01*
X130171428Y-82252380D02*
X129695238Y-82252380D01*
X129695238Y-81252380D01*
X130504761Y-81728571D02*
X130838095Y-81728571D01*
X130980952Y-82252380D02*
X130504761Y-82252380D01*
X130504761Y-81252380D01*
X130980952Y-81252380D01*
X131409523Y-82252380D02*
X131409523Y-81252380D01*
X131647619Y-81252380D01*
X131790476Y-81300000D01*
X131885714Y-81395238D01*
X131933333Y-81490476D01*
X131980952Y-81680952D01*
X131980952Y-81823809D01*
X131933333Y-82014285D01*
X131885714Y-82109523D01*
X131790476Y-82204761D01*
X131647619Y-82252380D01*
X131409523Y-82252380D01*
G04 #@! TO.C,LED 5*
X42072380Y-56287619D02*
X41596190Y-56620952D01*
X42072380Y-56859047D02*
X41072380Y-56859047D01*
X41072380Y-56478095D01*
X41120000Y-56382857D01*
X41167619Y-56335238D01*
X41262857Y-56287619D01*
X41405714Y-56287619D01*
X41500952Y-56335238D01*
X41548571Y-56382857D01*
X41596190Y-56478095D01*
X41596190Y-56859047D01*
X42167619Y-56097142D02*
X42167619Y-55335238D01*
X42072380Y-55097142D02*
X41072380Y-55097142D01*
X41072380Y-54716190D01*
X41120000Y-54620952D01*
X41167619Y-54573333D01*
X41262857Y-54525714D01*
X41405714Y-54525714D01*
X41500952Y-54573333D01*
X41548571Y-54620952D01*
X41596190Y-54716190D01*
X41596190Y-55097142D01*
X41072380Y-53906666D02*
X41072380Y-53716190D01*
X41120000Y-53620952D01*
X41215238Y-53525714D01*
X41405714Y-53478095D01*
X41739047Y-53478095D01*
X41929523Y-53525714D01*
X42024761Y-53620952D01*
X42072380Y-53716190D01*
X42072380Y-53906666D01*
X42024761Y-54001904D01*
X41929523Y-54097142D01*
X41739047Y-54144761D01*
X41405714Y-54144761D01*
X41215238Y-54097142D01*
X41120000Y-54001904D01*
X41072380Y-53906666D01*
X41072380Y-53192380D02*
X41072380Y-52620952D01*
X42072380Y-52906666D02*
X41072380Y-52906666D01*
X42167619Y-52525714D02*
X42167619Y-51763809D01*
X41072380Y-51668571D02*
X41072380Y-51097142D01*
X42072380Y-51382857D02*
X41072380Y-51382857D01*
X42072380Y-50192380D02*
X41596190Y-50525714D01*
X42072380Y-50763809D02*
X41072380Y-50763809D01*
X41072380Y-50382857D01*
X41120000Y-50287619D01*
X41167619Y-50240000D01*
X41262857Y-50192380D01*
X41405714Y-50192380D01*
X41500952Y-50240000D01*
X41548571Y-50287619D01*
X41596190Y-50382857D01*
X41596190Y-50763809D01*
X42072380Y-49763809D02*
X41072380Y-49763809D01*
X42072380Y-49287619D02*
X41072380Y-49287619D01*
X41786666Y-48954285D01*
X41072380Y-48620952D01*
X42072380Y-48620952D01*
X45722380Y-55000000D02*
X45722380Y-55476190D01*
X44722380Y-55476190D01*
X45198571Y-54666666D02*
X45198571Y-54333333D01*
X45722380Y-54190476D02*
X45722380Y-54666666D01*
X44722380Y-54666666D01*
X44722380Y-54190476D01*
X45722380Y-53761904D02*
X44722380Y-53761904D01*
X44722380Y-53523809D01*
X44770000Y-53380952D01*
X44865238Y-53285714D01*
X44960476Y-53238095D01*
X45150952Y-53190476D01*
X45293809Y-53190476D01*
X45484285Y-53238095D01*
X45579523Y-53285714D01*
X45674761Y-53380952D01*
X45722380Y-53523809D01*
X45722380Y-53761904D01*
X44722380Y-51523809D02*
X44722380Y-52000000D01*
X45198571Y-52047619D01*
X45150952Y-52000000D01*
X45103333Y-51904761D01*
X45103333Y-51666666D01*
X45150952Y-51571428D01*
X45198571Y-51523809D01*
X45293809Y-51476190D01*
X45531904Y-51476190D01*
X45627142Y-51523809D01*
X45674761Y-51571428D01*
X45722380Y-51666666D01*
X45722380Y-51904761D01*
X45674761Y-52000000D01*
X45627142Y-52047619D01*
G04 #@! TO.C,LED 6*
X48072380Y-56287619D02*
X47596190Y-56620952D01*
X48072380Y-56859047D02*
X47072380Y-56859047D01*
X47072380Y-56478095D01*
X47120000Y-56382857D01*
X47167619Y-56335238D01*
X47262857Y-56287619D01*
X47405714Y-56287619D01*
X47500952Y-56335238D01*
X47548571Y-56382857D01*
X47596190Y-56478095D01*
X47596190Y-56859047D01*
X48167619Y-56097142D02*
X48167619Y-55335238D01*
X48072380Y-55097142D02*
X47072380Y-55097142D01*
X47072380Y-54716190D01*
X47120000Y-54620952D01*
X47167619Y-54573333D01*
X47262857Y-54525714D01*
X47405714Y-54525714D01*
X47500952Y-54573333D01*
X47548571Y-54620952D01*
X47596190Y-54716190D01*
X47596190Y-55097142D01*
X47072380Y-53906666D02*
X47072380Y-53716190D01*
X47120000Y-53620952D01*
X47215238Y-53525714D01*
X47405714Y-53478095D01*
X47739047Y-53478095D01*
X47929523Y-53525714D01*
X48024761Y-53620952D01*
X48072380Y-53716190D01*
X48072380Y-53906666D01*
X48024761Y-54001904D01*
X47929523Y-54097142D01*
X47739047Y-54144761D01*
X47405714Y-54144761D01*
X47215238Y-54097142D01*
X47120000Y-54001904D01*
X47072380Y-53906666D01*
X47072380Y-53192380D02*
X47072380Y-52620952D01*
X48072380Y-52906666D02*
X47072380Y-52906666D01*
X48167619Y-52525714D02*
X48167619Y-51763809D01*
X47072380Y-51668571D02*
X47072380Y-51097142D01*
X48072380Y-51382857D02*
X47072380Y-51382857D01*
X48072380Y-50192380D02*
X47596190Y-50525714D01*
X48072380Y-50763809D02*
X47072380Y-50763809D01*
X47072380Y-50382857D01*
X47120000Y-50287619D01*
X47167619Y-50240000D01*
X47262857Y-50192380D01*
X47405714Y-50192380D01*
X47500952Y-50240000D01*
X47548571Y-50287619D01*
X47596190Y-50382857D01*
X47596190Y-50763809D01*
X48072380Y-49763809D02*
X47072380Y-49763809D01*
X48072380Y-49287619D02*
X47072380Y-49287619D01*
X47786666Y-48954285D01*
X47072380Y-48620952D01*
X48072380Y-48620952D01*
X51722380Y-55000000D02*
X51722380Y-55476190D01*
X50722380Y-55476190D01*
X51198571Y-54666666D02*
X51198571Y-54333333D01*
X51722380Y-54190476D02*
X51722380Y-54666666D01*
X50722380Y-54666666D01*
X50722380Y-54190476D01*
X51722380Y-53761904D02*
X50722380Y-53761904D01*
X50722380Y-53523809D01*
X50770000Y-53380952D01*
X50865238Y-53285714D01*
X50960476Y-53238095D01*
X51150952Y-53190476D01*
X51293809Y-53190476D01*
X51484285Y-53238095D01*
X51579523Y-53285714D01*
X51674761Y-53380952D01*
X51722380Y-53523809D01*
X51722380Y-53761904D01*
X50722380Y-51571428D02*
X50722380Y-51761904D01*
X50770000Y-51857142D01*
X50817619Y-51904761D01*
X50960476Y-52000000D01*
X51150952Y-52047619D01*
X51531904Y-52047619D01*
X51627142Y-52000000D01*
X51674761Y-51952380D01*
X51722380Y-51857142D01*
X51722380Y-51666666D01*
X51674761Y-51571428D01*
X51627142Y-51523809D01*
X51531904Y-51476190D01*
X51293809Y-51476190D01*
X51198571Y-51523809D01*
X51150952Y-51571428D01*
X51103333Y-51666666D01*
X51103333Y-51857142D01*
X51150952Y-51952380D01*
X51198571Y-52000000D01*
X51293809Y-52047619D01*
G04 #@! TO.C,LED 7*
X54072380Y-56287619D02*
X53596190Y-56620952D01*
X54072380Y-56859047D02*
X53072380Y-56859047D01*
X53072380Y-56478095D01*
X53120000Y-56382857D01*
X53167619Y-56335238D01*
X53262857Y-56287619D01*
X53405714Y-56287619D01*
X53500952Y-56335238D01*
X53548571Y-56382857D01*
X53596190Y-56478095D01*
X53596190Y-56859047D01*
X54167619Y-56097142D02*
X54167619Y-55335238D01*
X54072380Y-55097142D02*
X53072380Y-55097142D01*
X53072380Y-54716190D01*
X53120000Y-54620952D01*
X53167619Y-54573333D01*
X53262857Y-54525714D01*
X53405714Y-54525714D01*
X53500952Y-54573333D01*
X53548571Y-54620952D01*
X53596190Y-54716190D01*
X53596190Y-55097142D01*
X53072380Y-53906666D02*
X53072380Y-53716190D01*
X53120000Y-53620952D01*
X53215238Y-53525714D01*
X53405714Y-53478095D01*
X53739047Y-53478095D01*
X53929523Y-53525714D01*
X54024761Y-53620952D01*
X54072380Y-53716190D01*
X54072380Y-53906666D01*
X54024761Y-54001904D01*
X53929523Y-54097142D01*
X53739047Y-54144761D01*
X53405714Y-54144761D01*
X53215238Y-54097142D01*
X53120000Y-54001904D01*
X53072380Y-53906666D01*
X53072380Y-53192380D02*
X53072380Y-52620952D01*
X54072380Y-52906666D02*
X53072380Y-52906666D01*
X54167619Y-52525714D02*
X54167619Y-51763809D01*
X53072380Y-51668571D02*
X53072380Y-51097142D01*
X54072380Y-51382857D02*
X53072380Y-51382857D01*
X54072380Y-50192380D02*
X53596190Y-50525714D01*
X54072380Y-50763809D02*
X53072380Y-50763809D01*
X53072380Y-50382857D01*
X53120000Y-50287619D01*
X53167619Y-50240000D01*
X53262857Y-50192380D01*
X53405714Y-50192380D01*
X53500952Y-50240000D01*
X53548571Y-50287619D01*
X53596190Y-50382857D01*
X53596190Y-50763809D01*
X54072380Y-49763809D02*
X53072380Y-49763809D01*
X54072380Y-49287619D02*
X53072380Y-49287619D01*
X53786666Y-48954285D01*
X53072380Y-48620952D01*
X54072380Y-48620952D01*
X57722380Y-55000000D02*
X57722380Y-55476190D01*
X56722380Y-55476190D01*
X57198571Y-54666666D02*
X57198571Y-54333333D01*
X57722380Y-54190476D02*
X57722380Y-54666666D01*
X56722380Y-54666666D01*
X56722380Y-54190476D01*
X57722380Y-53761904D02*
X56722380Y-53761904D01*
X56722380Y-53523809D01*
X56770000Y-53380952D01*
X56865238Y-53285714D01*
X56960476Y-53238095D01*
X57150952Y-53190476D01*
X57293809Y-53190476D01*
X57484285Y-53238095D01*
X57579523Y-53285714D01*
X57674761Y-53380952D01*
X57722380Y-53523809D01*
X57722380Y-53761904D01*
X56722380Y-52095238D02*
X56722380Y-51428571D01*
X57722380Y-51857142D01*
G04 #@! TO.C,LED 8*
X60072380Y-56287619D02*
X59596190Y-56620952D01*
X60072380Y-56859047D02*
X59072380Y-56859047D01*
X59072380Y-56478095D01*
X59120000Y-56382857D01*
X59167619Y-56335238D01*
X59262857Y-56287619D01*
X59405714Y-56287619D01*
X59500952Y-56335238D01*
X59548571Y-56382857D01*
X59596190Y-56478095D01*
X59596190Y-56859047D01*
X60167619Y-56097142D02*
X60167619Y-55335238D01*
X60072380Y-55097142D02*
X59072380Y-55097142D01*
X59072380Y-54716190D01*
X59120000Y-54620952D01*
X59167619Y-54573333D01*
X59262857Y-54525714D01*
X59405714Y-54525714D01*
X59500952Y-54573333D01*
X59548571Y-54620952D01*
X59596190Y-54716190D01*
X59596190Y-55097142D01*
X59072380Y-53906666D02*
X59072380Y-53716190D01*
X59120000Y-53620952D01*
X59215238Y-53525714D01*
X59405714Y-53478095D01*
X59739047Y-53478095D01*
X59929523Y-53525714D01*
X60024761Y-53620952D01*
X60072380Y-53716190D01*
X60072380Y-53906666D01*
X60024761Y-54001904D01*
X59929523Y-54097142D01*
X59739047Y-54144761D01*
X59405714Y-54144761D01*
X59215238Y-54097142D01*
X59120000Y-54001904D01*
X59072380Y-53906666D01*
X59072380Y-53192380D02*
X59072380Y-52620952D01*
X60072380Y-52906666D02*
X59072380Y-52906666D01*
X60167619Y-52525714D02*
X60167619Y-51763809D01*
X59072380Y-51668571D02*
X59072380Y-51097142D01*
X60072380Y-51382857D02*
X59072380Y-51382857D01*
X60072380Y-50192380D02*
X59596190Y-50525714D01*
X60072380Y-50763809D02*
X59072380Y-50763809D01*
X59072380Y-50382857D01*
X59120000Y-50287619D01*
X59167619Y-50240000D01*
X59262857Y-50192380D01*
X59405714Y-50192380D01*
X59500952Y-50240000D01*
X59548571Y-50287619D01*
X59596190Y-50382857D01*
X59596190Y-50763809D01*
X60072380Y-49763809D02*
X59072380Y-49763809D01*
X60072380Y-49287619D02*
X59072380Y-49287619D01*
X59786666Y-48954285D01*
X59072380Y-48620952D01*
X60072380Y-48620952D01*
X63722380Y-55000000D02*
X63722380Y-55476190D01*
X62722380Y-55476190D01*
X63198571Y-54666666D02*
X63198571Y-54333333D01*
X63722380Y-54190476D02*
X63722380Y-54666666D01*
X62722380Y-54666666D01*
X62722380Y-54190476D01*
X63722380Y-53761904D02*
X62722380Y-53761904D01*
X62722380Y-53523809D01*
X62770000Y-53380952D01*
X62865238Y-53285714D01*
X62960476Y-53238095D01*
X63150952Y-53190476D01*
X63293809Y-53190476D01*
X63484285Y-53238095D01*
X63579523Y-53285714D01*
X63674761Y-53380952D01*
X63722380Y-53523809D01*
X63722380Y-53761904D01*
X63150952Y-51857142D02*
X63103333Y-51952380D01*
X63055714Y-52000000D01*
X62960476Y-52047619D01*
X62912857Y-52047619D01*
X62817619Y-52000000D01*
X62770000Y-51952380D01*
X62722380Y-51857142D01*
X62722380Y-51666666D01*
X62770000Y-51571428D01*
X62817619Y-51523809D01*
X62912857Y-51476190D01*
X62960476Y-51476190D01*
X63055714Y-51523809D01*
X63103333Y-51571428D01*
X63150952Y-51666666D01*
X63150952Y-51857142D01*
X63198571Y-51952380D01*
X63246190Y-52000000D01*
X63341428Y-52047619D01*
X63531904Y-52047619D01*
X63627142Y-52000000D01*
X63674761Y-51952380D01*
X63722380Y-51857142D01*
X63722380Y-51666666D01*
X63674761Y-51571428D01*
X63627142Y-51523809D01*
X63531904Y-51476190D01*
X63341428Y-51476190D01*
X63246190Y-51523809D01*
X63198571Y-51571428D01*
X63150952Y-51666666D01*
G04 #@! TO.C,LED 9*
X66072380Y-56287619D02*
X65596190Y-56620952D01*
X66072380Y-56859047D02*
X65072380Y-56859047D01*
X65072380Y-56478095D01*
X65120000Y-56382857D01*
X65167619Y-56335238D01*
X65262857Y-56287619D01*
X65405714Y-56287619D01*
X65500952Y-56335238D01*
X65548571Y-56382857D01*
X65596190Y-56478095D01*
X65596190Y-56859047D01*
X66167619Y-56097142D02*
X66167619Y-55335238D01*
X66072380Y-55097142D02*
X65072380Y-55097142D01*
X65072380Y-54716190D01*
X65120000Y-54620952D01*
X65167619Y-54573333D01*
X65262857Y-54525714D01*
X65405714Y-54525714D01*
X65500952Y-54573333D01*
X65548571Y-54620952D01*
X65596190Y-54716190D01*
X65596190Y-55097142D01*
X65072380Y-53906666D02*
X65072380Y-53716190D01*
X65120000Y-53620952D01*
X65215238Y-53525714D01*
X65405714Y-53478095D01*
X65739047Y-53478095D01*
X65929523Y-53525714D01*
X66024761Y-53620952D01*
X66072380Y-53716190D01*
X66072380Y-53906666D01*
X66024761Y-54001904D01*
X65929523Y-54097142D01*
X65739047Y-54144761D01*
X65405714Y-54144761D01*
X65215238Y-54097142D01*
X65120000Y-54001904D01*
X65072380Y-53906666D01*
X65072380Y-53192380D02*
X65072380Y-52620952D01*
X66072380Y-52906666D02*
X65072380Y-52906666D01*
X66167619Y-52525714D02*
X66167619Y-51763809D01*
X65072380Y-51668571D02*
X65072380Y-51097142D01*
X66072380Y-51382857D02*
X65072380Y-51382857D01*
X66072380Y-50192380D02*
X65596190Y-50525714D01*
X66072380Y-50763809D02*
X65072380Y-50763809D01*
X65072380Y-50382857D01*
X65120000Y-50287619D01*
X65167619Y-50240000D01*
X65262857Y-50192380D01*
X65405714Y-50192380D01*
X65500952Y-50240000D01*
X65548571Y-50287619D01*
X65596190Y-50382857D01*
X65596190Y-50763809D01*
X66072380Y-49763809D02*
X65072380Y-49763809D01*
X66072380Y-49287619D02*
X65072380Y-49287619D01*
X65786666Y-48954285D01*
X65072380Y-48620952D01*
X66072380Y-48620952D01*
X69722380Y-55000000D02*
X69722380Y-55476190D01*
X68722380Y-55476190D01*
X69198571Y-54666666D02*
X69198571Y-54333333D01*
X69722380Y-54190476D02*
X69722380Y-54666666D01*
X68722380Y-54666666D01*
X68722380Y-54190476D01*
X69722380Y-53761904D02*
X68722380Y-53761904D01*
X68722380Y-53523809D01*
X68770000Y-53380952D01*
X68865238Y-53285714D01*
X68960476Y-53238095D01*
X69150952Y-53190476D01*
X69293809Y-53190476D01*
X69484285Y-53238095D01*
X69579523Y-53285714D01*
X69674761Y-53380952D01*
X69722380Y-53523809D01*
X69722380Y-53761904D01*
X69722380Y-51952380D02*
X69722380Y-51761904D01*
X69674761Y-51666666D01*
X69627142Y-51619047D01*
X69484285Y-51523809D01*
X69293809Y-51476190D01*
X68912857Y-51476190D01*
X68817619Y-51523809D01*
X68770000Y-51571428D01*
X68722380Y-51666666D01*
X68722380Y-51857142D01*
X68770000Y-51952380D01*
X68817619Y-52000000D01*
X68912857Y-52047619D01*
X69150952Y-52047619D01*
X69246190Y-52000000D01*
X69293809Y-51952380D01*
X69341428Y-51857142D01*
X69341428Y-51666666D01*
X69293809Y-51571428D01*
X69246190Y-51523809D01*
X69150952Y-51476190D01*
G04 #@! TO.C,LED 10*
X72072380Y-56287619D02*
X71596190Y-56620952D01*
X72072380Y-56859047D02*
X71072380Y-56859047D01*
X71072380Y-56478095D01*
X71120000Y-56382857D01*
X71167619Y-56335238D01*
X71262857Y-56287619D01*
X71405714Y-56287619D01*
X71500952Y-56335238D01*
X71548571Y-56382857D01*
X71596190Y-56478095D01*
X71596190Y-56859047D01*
X72167619Y-56097142D02*
X72167619Y-55335238D01*
X72072380Y-55097142D02*
X71072380Y-55097142D01*
X71072380Y-54716190D01*
X71120000Y-54620952D01*
X71167619Y-54573333D01*
X71262857Y-54525714D01*
X71405714Y-54525714D01*
X71500952Y-54573333D01*
X71548571Y-54620952D01*
X71596190Y-54716190D01*
X71596190Y-55097142D01*
X71072380Y-53906666D02*
X71072380Y-53716190D01*
X71120000Y-53620952D01*
X71215238Y-53525714D01*
X71405714Y-53478095D01*
X71739047Y-53478095D01*
X71929523Y-53525714D01*
X72024761Y-53620952D01*
X72072380Y-53716190D01*
X72072380Y-53906666D01*
X72024761Y-54001904D01*
X71929523Y-54097142D01*
X71739047Y-54144761D01*
X71405714Y-54144761D01*
X71215238Y-54097142D01*
X71120000Y-54001904D01*
X71072380Y-53906666D01*
X71072380Y-53192380D02*
X71072380Y-52620952D01*
X72072380Y-52906666D02*
X71072380Y-52906666D01*
X72167619Y-52525714D02*
X72167619Y-51763809D01*
X71072380Y-51668571D02*
X71072380Y-51097142D01*
X72072380Y-51382857D02*
X71072380Y-51382857D01*
X72072380Y-50192380D02*
X71596190Y-50525714D01*
X72072380Y-50763809D02*
X71072380Y-50763809D01*
X71072380Y-50382857D01*
X71120000Y-50287619D01*
X71167619Y-50240000D01*
X71262857Y-50192380D01*
X71405714Y-50192380D01*
X71500952Y-50240000D01*
X71548571Y-50287619D01*
X71596190Y-50382857D01*
X71596190Y-50763809D01*
X72072380Y-49763809D02*
X71072380Y-49763809D01*
X72072380Y-49287619D02*
X71072380Y-49287619D01*
X71786666Y-48954285D01*
X71072380Y-48620952D01*
X72072380Y-48620952D01*
X75722380Y-55476190D02*
X75722380Y-55952380D01*
X74722380Y-55952380D01*
X75198571Y-55142857D02*
X75198571Y-54809523D01*
X75722380Y-54666666D02*
X75722380Y-55142857D01*
X74722380Y-55142857D01*
X74722380Y-54666666D01*
X75722380Y-54238095D02*
X74722380Y-54238095D01*
X74722380Y-54000000D01*
X74770000Y-53857142D01*
X74865238Y-53761904D01*
X74960476Y-53714285D01*
X75150952Y-53666666D01*
X75293809Y-53666666D01*
X75484285Y-53714285D01*
X75579523Y-53761904D01*
X75674761Y-53857142D01*
X75722380Y-54000000D01*
X75722380Y-54238095D01*
X75722380Y-51952380D02*
X75722380Y-52523809D01*
X75722380Y-52238095D02*
X74722380Y-52238095D01*
X74865238Y-52333333D01*
X74960476Y-52428571D01*
X75008095Y-52523809D01*
X74722380Y-51333333D02*
X74722380Y-51238095D01*
X74770000Y-51142857D01*
X74817619Y-51095238D01*
X74912857Y-51047619D01*
X75103333Y-51000000D01*
X75341428Y-51000000D01*
X75531904Y-51047619D01*
X75627142Y-51095238D01*
X75674761Y-51142857D01*
X75722380Y-51238095D01*
X75722380Y-51333333D01*
X75674761Y-51428571D01*
X75627142Y-51476190D01*
X75531904Y-51523809D01*
X75341428Y-51571428D01*
X75103333Y-51571428D01*
X74912857Y-51523809D01*
X74817619Y-51476190D01*
X74770000Y-51428571D01*
X74722380Y-51333333D01*
G04 #@! TO.C, LED 11*
X78072380Y-56287619D02*
X77596190Y-56620952D01*
X78072380Y-56859047D02*
X77072380Y-56859047D01*
X77072380Y-56478095D01*
X77120000Y-56382857D01*
X77167619Y-56335238D01*
X77262857Y-56287619D01*
X77405714Y-56287619D01*
X77500952Y-56335238D01*
X77548571Y-56382857D01*
X77596190Y-56478095D01*
X77596190Y-56859047D01*
X78167619Y-56097142D02*
X78167619Y-55335238D01*
X78072380Y-55097142D02*
X77072380Y-55097142D01*
X77072380Y-54716190D01*
X77120000Y-54620952D01*
X77167619Y-54573333D01*
X77262857Y-54525714D01*
X77405714Y-54525714D01*
X77500952Y-54573333D01*
X77548571Y-54620952D01*
X77596190Y-54716190D01*
X77596190Y-55097142D01*
X77072380Y-53906666D02*
X77072380Y-53716190D01*
X77120000Y-53620952D01*
X77215238Y-53525714D01*
X77405714Y-53478095D01*
X77739047Y-53478095D01*
X77929523Y-53525714D01*
X78024761Y-53620952D01*
X78072380Y-53716190D01*
X78072380Y-53906666D01*
X78024761Y-54001904D01*
X77929523Y-54097142D01*
X77739047Y-54144761D01*
X77405714Y-54144761D01*
X77215238Y-54097142D01*
X77120000Y-54001904D01*
X77072380Y-53906666D01*
X77072380Y-53192380D02*
X77072380Y-52620952D01*
X78072380Y-52906666D02*
X77072380Y-52906666D01*
X78167619Y-52525714D02*
X78167619Y-51763809D01*
X77072380Y-51668571D02*
X77072380Y-51097142D01*
X78072380Y-51382857D02*
X77072380Y-51382857D01*
X78072380Y-50192380D02*
X77596190Y-50525714D01*
X78072380Y-50763809D02*
X77072380Y-50763809D01*
X77072380Y-50382857D01*
X77120000Y-50287619D01*
X77167619Y-50240000D01*
X77262857Y-50192380D01*
X77405714Y-50192380D01*
X77500952Y-50240000D01*
X77548571Y-50287619D01*
X77596190Y-50382857D01*
X77596190Y-50763809D01*
X78072380Y-49763809D02*
X77072380Y-49763809D01*
X78072380Y-49287619D02*
X77072380Y-49287619D01*
X77786666Y-48954285D01*
X77072380Y-48620952D01*
X78072380Y-48620952D01*
X81722380Y-55095238D02*
X81722380Y-55571428D01*
X80722380Y-55571428D01*
X81198571Y-54761904D02*
X81198571Y-54428571D01*
X81722380Y-54285714D02*
X81722380Y-54761904D01*
X80722380Y-54761904D01*
X80722380Y-54285714D01*
X81722380Y-53857142D02*
X80722380Y-53857142D01*
X80722380Y-53619047D01*
X80770000Y-53476190D01*
X80865238Y-53380952D01*
X80960476Y-53333333D01*
X81150952Y-53285714D01*
X81293809Y-53285714D01*
X81484285Y-53333333D01*
X81579523Y-53380952D01*
X81674761Y-53476190D01*
X81722380Y-53619047D01*
X81722380Y-53857142D01*
X81722380Y-51571428D02*
X81722380Y-52142857D01*
X81722380Y-51857142D02*
X80722380Y-51857142D01*
X80865238Y-51952380D01*
X80960476Y-52047619D01*
X81008095Y-52142857D01*
X81722380Y-50619047D02*
X81722380Y-51190476D01*
X81722380Y-50904761D02*
X80722380Y-50904761D01*
X80865238Y-51000000D01*
X80960476Y-51095238D01*
X81008095Y-51190476D01*
G04 #@! TO.C,LED 12*
X84072380Y-56287619D02*
X83596190Y-56620952D01*
X84072380Y-56859047D02*
X83072380Y-56859047D01*
X83072380Y-56478095D01*
X83120000Y-56382857D01*
X83167619Y-56335238D01*
X83262857Y-56287619D01*
X83405714Y-56287619D01*
X83500952Y-56335238D01*
X83548571Y-56382857D01*
X83596190Y-56478095D01*
X83596190Y-56859047D01*
X84167619Y-56097142D02*
X84167619Y-55335238D01*
X84072380Y-55097142D02*
X83072380Y-55097142D01*
X83072380Y-54716190D01*
X83120000Y-54620952D01*
X83167619Y-54573333D01*
X83262857Y-54525714D01*
X83405714Y-54525714D01*
X83500952Y-54573333D01*
X83548571Y-54620952D01*
X83596190Y-54716190D01*
X83596190Y-55097142D01*
X83072380Y-53906666D02*
X83072380Y-53716190D01*
X83120000Y-53620952D01*
X83215238Y-53525714D01*
X83405714Y-53478095D01*
X83739047Y-53478095D01*
X83929523Y-53525714D01*
X84024761Y-53620952D01*
X84072380Y-53716190D01*
X84072380Y-53906666D01*
X84024761Y-54001904D01*
X83929523Y-54097142D01*
X83739047Y-54144761D01*
X83405714Y-54144761D01*
X83215238Y-54097142D01*
X83120000Y-54001904D01*
X83072380Y-53906666D01*
X83072380Y-53192380D02*
X83072380Y-52620952D01*
X84072380Y-52906666D02*
X83072380Y-52906666D01*
X84167619Y-52525714D02*
X84167619Y-51763809D01*
X83072380Y-51668571D02*
X83072380Y-51097142D01*
X84072380Y-51382857D02*
X83072380Y-51382857D01*
X84072380Y-50192380D02*
X83596190Y-50525714D01*
X84072380Y-50763809D02*
X83072380Y-50763809D01*
X83072380Y-50382857D01*
X83120000Y-50287619D01*
X83167619Y-50240000D01*
X83262857Y-50192380D01*
X83405714Y-50192380D01*
X83500952Y-50240000D01*
X83548571Y-50287619D01*
X83596190Y-50382857D01*
X83596190Y-50763809D01*
X84072380Y-49763809D02*
X83072380Y-49763809D01*
X84072380Y-49287619D02*
X83072380Y-49287619D01*
X83786666Y-48954285D01*
X83072380Y-48620952D01*
X84072380Y-48620952D01*
X87722380Y-55476190D02*
X87722380Y-55952380D01*
X86722380Y-55952380D01*
X87198571Y-55142857D02*
X87198571Y-54809523D01*
X87722380Y-54666666D02*
X87722380Y-55142857D01*
X86722380Y-55142857D01*
X86722380Y-54666666D01*
X87722380Y-54238095D02*
X86722380Y-54238095D01*
X86722380Y-54000000D01*
X86770000Y-53857142D01*
X86865238Y-53761904D01*
X86960476Y-53714285D01*
X87150952Y-53666666D01*
X87293809Y-53666666D01*
X87484285Y-53714285D01*
X87579523Y-53761904D01*
X87674761Y-53857142D01*
X87722380Y-54000000D01*
X87722380Y-54238095D01*
X87722380Y-51952380D02*
X87722380Y-52523809D01*
X87722380Y-52238095D02*
X86722380Y-52238095D01*
X86865238Y-52333333D01*
X86960476Y-52428571D01*
X87008095Y-52523809D01*
X86817619Y-51571428D02*
X86770000Y-51523809D01*
X86722380Y-51428571D01*
X86722380Y-51190476D01*
X86770000Y-51095238D01*
X86817619Y-51047619D01*
X86912857Y-51000000D01*
X87008095Y-51000000D01*
X87150952Y-51047619D01*
X87722380Y-51619047D01*
X87722380Y-51000000D01*
G04 #@! TO.C,LED 13*
X90072380Y-56287619D02*
X89596190Y-56620952D01*
X90072380Y-56859047D02*
X89072380Y-56859047D01*
X89072380Y-56478095D01*
X89120000Y-56382857D01*
X89167619Y-56335238D01*
X89262857Y-56287619D01*
X89405714Y-56287619D01*
X89500952Y-56335238D01*
X89548571Y-56382857D01*
X89596190Y-56478095D01*
X89596190Y-56859047D01*
X90167619Y-56097142D02*
X90167619Y-55335238D01*
X90072380Y-55097142D02*
X89072380Y-55097142D01*
X89072380Y-54716190D01*
X89120000Y-54620952D01*
X89167619Y-54573333D01*
X89262857Y-54525714D01*
X89405714Y-54525714D01*
X89500952Y-54573333D01*
X89548571Y-54620952D01*
X89596190Y-54716190D01*
X89596190Y-55097142D01*
X89072380Y-53906666D02*
X89072380Y-53716190D01*
X89120000Y-53620952D01*
X89215238Y-53525714D01*
X89405714Y-53478095D01*
X89739047Y-53478095D01*
X89929523Y-53525714D01*
X90024761Y-53620952D01*
X90072380Y-53716190D01*
X90072380Y-53906666D01*
X90024761Y-54001904D01*
X89929523Y-54097142D01*
X89739047Y-54144761D01*
X89405714Y-54144761D01*
X89215238Y-54097142D01*
X89120000Y-54001904D01*
X89072380Y-53906666D01*
X89072380Y-53192380D02*
X89072380Y-52620952D01*
X90072380Y-52906666D02*
X89072380Y-52906666D01*
X90167619Y-52525714D02*
X90167619Y-51763809D01*
X89072380Y-51668571D02*
X89072380Y-51097142D01*
X90072380Y-51382857D02*
X89072380Y-51382857D01*
X90072380Y-50192380D02*
X89596190Y-50525714D01*
X90072380Y-50763809D02*
X89072380Y-50763809D01*
X89072380Y-50382857D01*
X89120000Y-50287619D01*
X89167619Y-50240000D01*
X89262857Y-50192380D01*
X89405714Y-50192380D01*
X89500952Y-50240000D01*
X89548571Y-50287619D01*
X89596190Y-50382857D01*
X89596190Y-50763809D01*
X90072380Y-49763809D02*
X89072380Y-49763809D01*
X90072380Y-49287619D02*
X89072380Y-49287619D01*
X89786666Y-48954285D01*
X89072380Y-48620952D01*
X90072380Y-48620952D01*
X93722380Y-55476190D02*
X93722380Y-55952380D01*
X92722380Y-55952380D01*
X93198571Y-55142857D02*
X93198571Y-54809523D01*
X93722380Y-54666666D02*
X93722380Y-55142857D01*
X92722380Y-55142857D01*
X92722380Y-54666666D01*
X93722380Y-54238095D02*
X92722380Y-54238095D01*
X92722380Y-54000000D01*
X92770000Y-53857142D01*
X92865238Y-53761904D01*
X92960476Y-53714285D01*
X93150952Y-53666666D01*
X93293809Y-53666666D01*
X93484285Y-53714285D01*
X93579523Y-53761904D01*
X93674761Y-53857142D01*
X93722380Y-54000000D01*
X93722380Y-54238095D01*
X93722380Y-51952380D02*
X93722380Y-52523809D01*
X93722380Y-52238095D02*
X92722380Y-52238095D01*
X92865238Y-52333333D01*
X92960476Y-52428571D01*
X93008095Y-52523809D01*
X92722380Y-51619047D02*
X92722380Y-51000000D01*
X93103333Y-51333333D01*
X93103333Y-51190476D01*
X93150952Y-51095238D01*
X93198571Y-51047619D01*
X93293809Y-51000000D01*
X93531904Y-51000000D01*
X93627142Y-51047619D01*
X93674761Y-51095238D01*
X93722380Y-51190476D01*
X93722380Y-51476190D01*
X93674761Y-51571428D01*
X93627142Y-51619047D01*
G04 #@! TO.C,LED 14*
X96072380Y-56287619D02*
X95596190Y-56620952D01*
X96072380Y-56859047D02*
X95072380Y-56859047D01*
X95072380Y-56478095D01*
X95120000Y-56382857D01*
X95167619Y-56335238D01*
X95262857Y-56287619D01*
X95405714Y-56287619D01*
X95500952Y-56335238D01*
X95548571Y-56382857D01*
X95596190Y-56478095D01*
X95596190Y-56859047D01*
X96167619Y-56097142D02*
X96167619Y-55335238D01*
X96072380Y-55097142D02*
X95072380Y-55097142D01*
X95072380Y-54716190D01*
X95120000Y-54620952D01*
X95167619Y-54573333D01*
X95262857Y-54525714D01*
X95405714Y-54525714D01*
X95500952Y-54573333D01*
X95548571Y-54620952D01*
X95596190Y-54716190D01*
X95596190Y-55097142D01*
X95072380Y-53906666D02*
X95072380Y-53716190D01*
X95120000Y-53620952D01*
X95215238Y-53525714D01*
X95405714Y-53478095D01*
X95739047Y-53478095D01*
X95929523Y-53525714D01*
X96024761Y-53620952D01*
X96072380Y-53716190D01*
X96072380Y-53906666D01*
X96024761Y-54001904D01*
X95929523Y-54097142D01*
X95739047Y-54144761D01*
X95405714Y-54144761D01*
X95215238Y-54097142D01*
X95120000Y-54001904D01*
X95072380Y-53906666D01*
X95072380Y-53192380D02*
X95072380Y-52620952D01*
X96072380Y-52906666D02*
X95072380Y-52906666D01*
X96167619Y-52525714D02*
X96167619Y-51763809D01*
X95072380Y-51668571D02*
X95072380Y-51097142D01*
X96072380Y-51382857D02*
X95072380Y-51382857D01*
X96072380Y-50192380D02*
X95596190Y-50525714D01*
X96072380Y-50763809D02*
X95072380Y-50763809D01*
X95072380Y-50382857D01*
X95120000Y-50287619D01*
X95167619Y-50240000D01*
X95262857Y-50192380D01*
X95405714Y-50192380D01*
X95500952Y-50240000D01*
X95548571Y-50287619D01*
X95596190Y-50382857D01*
X95596190Y-50763809D01*
X96072380Y-49763809D02*
X95072380Y-49763809D01*
X96072380Y-49287619D02*
X95072380Y-49287619D01*
X95786666Y-48954285D01*
X95072380Y-48620952D01*
X96072380Y-48620952D01*
X99722380Y-55476190D02*
X99722380Y-55952380D01*
X98722380Y-55952380D01*
X99198571Y-55142857D02*
X99198571Y-54809523D01*
X99722380Y-54666666D02*
X99722380Y-55142857D01*
X98722380Y-55142857D01*
X98722380Y-54666666D01*
X99722380Y-54238095D02*
X98722380Y-54238095D01*
X98722380Y-54000000D01*
X98770000Y-53857142D01*
X98865238Y-53761904D01*
X98960476Y-53714285D01*
X99150952Y-53666666D01*
X99293809Y-53666666D01*
X99484285Y-53714285D01*
X99579523Y-53761904D01*
X99674761Y-53857142D01*
X99722380Y-54000000D01*
X99722380Y-54238095D01*
X99722380Y-51952380D02*
X99722380Y-52523809D01*
X99722380Y-52238095D02*
X98722380Y-52238095D01*
X98865238Y-52333333D01*
X98960476Y-52428571D01*
X99008095Y-52523809D01*
X99055714Y-51095238D02*
X99722380Y-51095238D01*
X98674761Y-51333333D02*
X99389047Y-51571428D01*
X99389047Y-50952380D01*
G04 #@! TO.C,LED 15*
X102072380Y-56287619D02*
X101596190Y-56620952D01*
X102072380Y-56859047D02*
X101072380Y-56859047D01*
X101072380Y-56478095D01*
X101120000Y-56382857D01*
X101167619Y-56335238D01*
X101262857Y-56287619D01*
X101405714Y-56287619D01*
X101500952Y-56335238D01*
X101548571Y-56382857D01*
X101596190Y-56478095D01*
X101596190Y-56859047D01*
X102167619Y-56097142D02*
X102167619Y-55335238D01*
X102072380Y-55097142D02*
X101072380Y-55097142D01*
X101072380Y-54716190D01*
X101120000Y-54620952D01*
X101167619Y-54573333D01*
X101262857Y-54525714D01*
X101405714Y-54525714D01*
X101500952Y-54573333D01*
X101548571Y-54620952D01*
X101596190Y-54716190D01*
X101596190Y-55097142D01*
X101072380Y-53906666D02*
X101072380Y-53716190D01*
X101120000Y-53620952D01*
X101215238Y-53525714D01*
X101405714Y-53478095D01*
X101739047Y-53478095D01*
X101929523Y-53525714D01*
X102024761Y-53620952D01*
X102072380Y-53716190D01*
X102072380Y-53906666D01*
X102024761Y-54001904D01*
X101929523Y-54097142D01*
X101739047Y-54144761D01*
X101405714Y-54144761D01*
X101215238Y-54097142D01*
X101120000Y-54001904D01*
X101072380Y-53906666D01*
X101072380Y-53192380D02*
X101072380Y-52620952D01*
X102072380Y-52906666D02*
X101072380Y-52906666D01*
X102167619Y-52525714D02*
X102167619Y-51763809D01*
X101072380Y-51668571D02*
X101072380Y-51097142D01*
X102072380Y-51382857D02*
X101072380Y-51382857D01*
X102072380Y-50192380D02*
X101596190Y-50525714D01*
X102072380Y-50763809D02*
X101072380Y-50763809D01*
X101072380Y-50382857D01*
X101120000Y-50287619D01*
X101167619Y-50240000D01*
X101262857Y-50192380D01*
X101405714Y-50192380D01*
X101500952Y-50240000D01*
X101548571Y-50287619D01*
X101596190Y-50382857D01*
X101596190Y-50763809D01*
X102072380Y-49763809D02*
X101072380Y-49763809D01*
X102072380Y-49287619D02*
X101072380Y-49287619D01*
X101786666Y-48954285D01*
X101072380Y-48620952D01*
X102072380Y-48620952D01*
X105722380Y-55476190D02*
X105722380Y-55952380D01*
X104722380Y-55952380D01*
X105198571Y-55142857D02*
X105198571Y-54809523D01*
X105722380Y-54666666D02*
X105722380Y-55142857D01*
X104722380Y-55142857D01*
X104722380Y-54666666D01*
X105722380Y-54238095D02*
X104722380Y-54238095D01*
X104722380Y-54000000D01*
X104770000Y-53857142D01*
X104865238Y-53761904D01*
X104960476Y-53714285D01*
X105150952Y-53666666D01*
X105293809Y-53666666D01*
X105484285Y-53714285D01*
X105579523Y-53761904D01*
X105674761Y-53857142D01*
X105722380Y-54000000D01*
X105722380Y-54238095D01*
X105722380Y-51952380D02*
X105722380Y-52523809D01*
X105722380Y-52238095D02*
X104722380Y-52238095D01*
X104865238Y-52333333D01*
X104960476Y-52428571D01*
X105008095Y-52523809D01*
X104722380Y-51047619D02*
X104722380Y-51523809D01*
X105198571Y-51571428D01*
X105150952Y-51523809D01*
X105103333Y-51428571D01*
X105103333Y-51190476D01*
X105150952Y-51095238D01*
X105198571Y-51047619D01*
X105293809Y-51000000D01*
X105531904Y-51000000D01*
X105627142Y-51047619D01*
X105674761Y-51095238D01*
X105722380Y-51190476D01*
X105722380Y-51428571D01*
X105674761Y-51523809D01*
X105627142Y-51571428D01*
G04 #@! TO.C,LED 16*
X108072380Y-56287619D02*
X107596190Y-56620952D01*
X108072380Y-56859047D02*
X107072380Y-56859047D01*
X107072380Y-56478095D01*
X107120000Y-56382857D01*
X107167619Y-56335238D01*
X107262857Y-56287619D01*
X107405714Y-56287619D01*
X107500952Y-56335238D01*
X107548571Y-56382857D01*
X107596190Y-56478095D01*
X107596190Y-56859047D01*
X108167619Y-56097142D02*
X108167619Y-55335238D01*
X108072380Y-55097142D02*
X107072380Y-55097142D01*
X107072380Y-54716190D01*
X107120000Y-54620952D01*
X107167619Y-54573333D01*
X107262857Y-54525714D01*
X107405714Y-54525714D01*
X107500952Y-54573333D01*
X107548571Y-54620952D01*
X107596190Y-54716190D01*
X107596190Y-55097142D01*
X107072380Y-53906666D02*
X107072380Y-53716190D01*
X107120000Y-53620952D01*
X107215238Y-53525714D01*
X107405714Y-53478095D01*
X107739047Y-53478095D01*
X107929523Y-53525714D01*
X108024761Y-53620952D01*
X108072380Y-53716190D01*
X108072380Y-53906666D01*
X108024761Y-54001904D01*
X107929523Y-54097142D01*
X107739047Y-54144761D01*
X107405714Y-54144761D01*
X107215238Y-54097142D01*
X107120000Y-54001904D01*
X107072380Y-53906666D01*
X107072380Y-53192380D02*
X107072380Y-52620952D01*
X108072380Y-52906666D02*
X107072380Y-52906666D01*
X108167619Y-52525714D02*
X108167619Y-51763809D01*
X107072380Y-51668571D02*
X107072380Y-51097142D01*
X108072380Y-51382857D02*
X107072380Y-51382857D01*
X108072380Y-50192380D02*
X107596190Y-50525714D01*
X108072380Y-50763809D02*
X107072380Y-50763809D01*
X107072380Y-50382857D01*
X107120000Y-50287619D01*
X107167619Y-50240000D01*
X107262857Y-50192380D01*
X107405714Y-50192380D01*
X107500952Y-50240000D01*
X107548571Y-50287619D01*
X107596190Y-50382857D01*
X107596190Y-50763809D01*
X108072380Y-49763809D02*
X107072380Y-49763809D01*
X108072380Y-49287619D02*
X107072380Y-49287619D01*
X107786666Y-48954285D01*
X107072380Y-48620952D01*
X108072380Y-48620952D01*
X111722380Y-55476190D02*
X111722380Y-55952380D01*
X110722380Y-55952380D01*
X111198571Y-55142857D02*
X111198571Y-54809523D01*
X111722380Y-54666666D02*
X111722380Y-55142857D01*
X110722380Y-55142857D01*
X110722380Y-54666666D01*
X111722380Y-54238095D02*
X110722380Y-54238095D01*
X110722380Y-54000000D01*
X110770000Y-53857142D01*
X110865238Y-53761904D01*
X110960476Y-53714285D01*
X111150952Y-53666666D01*
X111293809Y-53666666D01*
X111484285Y-53714285D01*
X111579523Y-53761904D01*
X111674761Y-53857142D01*
X111722380Y-54000000D01*
X111722380Y-54238095D01*
X111722380Y-51952380D02*
X111722380Y-52523809D01*
X111722380Y-52238095D02*
X110722380Y-52238095D01*
X110865238Y-52333333D01*
X110960476Y-52428571D01*
X111008095Y-52523809D01*
X110722380Y-51095238D02*
X110722380Y-51285714D01*
X110770000Y-51380952D01*
X110817619Y-51428571D01*
X110960476Y-51523809D01*
X111150952Y-51571428D01*
X111531904Y-51571428D01*
X111627142Y-51523809D01*
X111674761Y-51476190D01*
X111722380Y-51380952D01*
X111722380Y-51190476D01*
X111674761Y-51095238D01*
X111627142Y-51047619D01*
X111531904Y-51000000D01*
X111293809Y-51000000D01*
X111198571Y-51047619D01*
X111150952Y-51095238D01*
X111103333Y-51190476D01*
X111103333Y-51380952D01*
X111150952Y-51476190D01*
X111198571Y-51523809D01*
X111293809Y-51571428D01*
G04 #@! TO.C,LED 17*
X114072380Y-56287619D02*
X113596190Y-56620952D01*
X114072380Y-56859047D02*
X113072380Y-56859047D01*
X113072380Y-56478095D01*
X113120000Y-56382857D01*
X113167619Y-56335238D01*
X113262857Y-56287619D01*
X113405714Y-56287619D01*
X113500952Y-56335238D01*
X113548571Y-56382857D01*
X113596190Y-56478095D01*
X113596190Y-56859047D01*
X114167619Y-56097142D02*
X114167619Y-55335238D01*
X114072380Y-55097142D02*
X113072380Y-55097142D01*
X113072380Y-54716190D01*
X113120000Y-54620952D01*
X113167619Y-54573333D01*
X113262857Y-54525714D01*
X113405714Y-54525714D01*
X113500952Y-54573333D01*
X113548571Y-54620952D01*
X113596190Y-54716190D01*
X113596190Y-55097142D01*
X113072380Y-53906666D02*
X113072380Y-53716190D01*
X113120000Y-53620952D01*
X113215238Y-53525714D01*
X113405714Y-53478095D01*
X113739047Y-53478095D01*
X113929523Y-53525714D01*
X114024761Y-53620952D01*
X114072380Y-53716190D01*
X114072380Y-53906666D01*
X114024761Y-54001904D01*
X113929523Y-54097142D01*
X113739047Y-54144761D01*
X113405714Y-54144761D01*
X113215238Y-54097142D01*
X113120000Y-54001904D01*
X113072380Y-53906666D01*
X113072380Y-53192380D02*
X113072380Y-52620952D01*
X114072380Y-52906666D02*
X113072380Y-52906666D01*
X114167619Y-52525714D02*
X114167619Y-51763809D01*
X113072380Y-51668571D02*
X113072380Y-51097142D01*
X114072380Y-51382857D02*
X113072380Y-51382857D01*
X114072380Y-50192380D02*
X113596190Y-50525714D01*
X114072380Y-50763809D02*
X113072380Y-50763809D01*
X113072380Y-50382857D01*
X113120000Y-50287619D01*
X113167619Y-50240000D01*
X113262857Y-50192380D01*
X113405714Y-50192380D01*
X113500952Y-50240000D01*
X113548571Y-50287619D01*
X113596190Y-50382857D01*
X113596190Y-50763809D01*
X114072380Y-49763809D02*
X113072380Y-49763809D01*
X114072380Y-49287619D02*
X113072380Y-49287619D01*
X113786666Y-48954285D01*
X113072380Y-48620952D01*
X114072380Y-48620952D01*
X117722380Y-55476190D02*
X117722380Y-55952380D01*
X116722380Y-55952380D01*
X117198571Y-55142857D02*
X117198571Y-54809523D01*
X117722380Y-54666666D02*
X117722380Y-55142857D01*
X116722380Y-55142857D01*
X116722380Y-54666666D01*
X117722380Y-54238095D02*
X116722380Y-54238095D01*
X116722380Y-54000000D01*
X116770000Y-53857142D01*
X116865238Y-53761904D01*
X116960476Y-53714285D01*
X117150952Y-53666666D01*
X117293809Y-53666666D01*
X117484285Y-53714285D01*
X117579523Y-53761904D01*
X117674761Y-53857142D01*
X117722380Y-54000000D01*
X117722380Y-54238095D01*
X117722380Y-51952380D02*
X117722380Y-52523809D01*
X117722380Y-52238095D02*
X116722380Y-52238095D01*
X116865238Y-52333333D01*
X116960476Y-52428571D01*
X117008095Y-52523809D01*
X116722380Y-51619047D02*
X116722380Y-50952380D01*
X117722380Y-51380952D01*
G04 #@! TO.C,LED 18*
X120072380Y-56287619D02*
X119596190Y-56620952D01*
X120072380Y-56859047D02*
X119072380Y-56859047D01*
X119072380Y-56478095D01*
X119120000Y-56382857D01*
X119167619Y-56335238D01*
X119262857Y-56287619D01*
X119405714Y-56287619D01*
X119500952Y-56335238D01*
X119548571Y-56382857D01*
X119596190Y-56478095D01*
X119596190Y-56859047D01*
X120167619Y-56097142D02*
X120167619Y-55335238D01*
X120072380Y-55097142D02*
X119072380Y-55097142D01*
X119072380Y-54716190D01*
X119120000Y-54620952D01*
X119167619Y-54573333D01*
X119262857Y-54525714D01*
X119405714Y-54525714D01*
X119500952Y-54573333D01*
X119548571Y-54620952D01*
X119596190Y-54716190D01*
X119596190Y-55097142D01*
X119072380Y-53906666D02*
X119072380Y-53716190D01*
X119120000Y-53620952D01*
X119215238Y-53525714D01*
X119405714Y-53478095D01*
X119739047Y-53478095D01*
X119929523Y-53525714D01*
X120024761Y-53620952D01*
X120072380Y-53716190D01*
X120072380Y-53906666D01*
X120024761Y-54001904D01*
X119929523Y-54097142D01*
X119739047Y-54144761D01*
X119405714Y-54144761D01*
X119215238Y-54097142D01*
X119120000Y-54001904D01*
X119072380Y-53906666D01*
X119072380Y-53192380D02*
X119072380Y-52620952D01*
X120072380Y-52906666D02*
X119072380Y-52906666D01*
X120167619Y-52525714D02*
X120167619Y-51763809D01*
X119072380Y-51668571D02*
X119072380Y-51097142D01*
X120072380Y-51382857D02*
X119072380Y-51382857D01*
X120072380Y-50192380D02*
X119596190Y-50525714D01*
X120072380Y-50763809D02*
X119072380Y-50763809D01*
X119072380Y-50382857D01*
X119120000Y-50287619D01*
X119167619Y-50240000D01*
X119262857Y-50192380D01*
X119405714Y-50192380D01*
X119500952Y-50240000D01*
X119548571Y-50287619D01*
X119596190Y-50382857D01*
X119596190Y-50763809D01*
X120072380Y-49763809D02*
X119072380Y-49763809D01*
X120072380Y-49287619D02*
X119072380Y-49287619D01*
X119786666Y-48954285D01*
X119072380Y-48620952D01*
X120072380Y-48620952D01*
X123722380Y-55476190D02*
X123722380Y-55952380D01*
X122722380Y-55952380D01*
X123198571Y-55142857D02*
X123198571Y-54809523D01*
X123722380Y-54666666D02*
X123722380Y-55142857D01*
X122722380Y-55142857D01*
X122722380Y-54666666D01*
X123722380Y-54238095D02*
X122722380Y-54238095D01*
X122722380Y-54000000D01*
X122770000Y-53857142D01*
X122865238Y-53761904D01*
X122960476Y-53714285D01*
X123150952Y-53666666D01*
X123293809Y-53666666D01*
X123484285Y-53714285D01*
X123579523Y-53761904D01*
X123674761Y-53857142D01*
X123722380Y-54000000D01*
X123722380Y-54238095D01*
X123722380Y-51952380D02*
X123722380Y-52523809D01*
X123722380Y-52238095D02*
X122722380Y-52238095D01*
X122865238Y-52333333D01*
X122960476Y-52428571D01*
X123008095Y-52523809D01*
X123150952Y-51380952D02*
X123103333Y-51476190D01*
X123055714Y-51523809D01*
X122960476Y-51571428D01*
X122912857Y-51571428D01*
X122817619Y-51523809D01*
X122770000Y-51476190D01*
X122722380Y-51380952D01*
X122722380Y-51190476D01*
X122770000Y-51095238D01*
X122817619Y-51047619D01*
X122912857Y-51000000D01*
X122960476Y-51000000D01*
X123055714Y-51047619D01*
X123103333Y-51095238D01*
X123150952Y-51190476D01*
X123150952Y-51380952D01*
X123198571Y-51476190D01*
X123246190Y-51523809D01*
X123341428Y-51571428D01*
X123531904Y-51571428D01*
X123627142Y-51523809D01*
X123674761Y-51476190D01*
X123722380Y-51380952D01*
X123722380Y-51190476D01*
X123674761Y-51095238D01*
X123627142Y-51047619D01*
X123531904Y-51000000D01*
X123341428Y-51000000D01*
X123246190Y-51047619D01*
X123198571Y-51095238D01*
X123150952Y-51190476D01*
G04 #@! TO.C,LED 19*
X126072380Y-56287619D02*
X125596190Y-56620952D01*
X126072380Y-56859047D02*
X125072380Y-56859047D01*
X125072380Y-56478095D01*
X125120000Y-56382857D01*
X125167619Y-56335238D01*
X125262857Y-56287619D01*
X125405714Y-56287619D01*
X125500952Y-56335238D01*
X125548571Y-56382857D01*
X125596190Y-56478095D01*
X125596190Y-56859047D01*
X126167619Y-56097142D02*
X126167619Y-55335238D01*
X126072380Y-55097142D02*
X125072380Y-55097142D01*
X125072380Y-54716190D01*
X125120000Y-54620952D01*
X125167619Y-54573333D01*
X125262857Y-54525714D01*
X125405714Y-54525714D01*
X125500952Y-54573333D01*
X125548571Y-54620952D01*
X125596190Y-54716190D01*
X125596190Y-55097142D01*
X125072380Y-53906666D02*
X125072380Y-53716190D01*
X125120000Y-53620952D01*
X125215238Y-53525714D01*
X125405714Y-53478095D01*
X125739047Y-53478095D01*
X125929523Y-53525714D01*
X126024761Y-53620952D01*
X126072380Y-53716190D01*
X126072380Y-53906666D01*
X126024761Y-54001904D01*
X125929523Y-54097142D01*
X125739047Y-54144761D01*
X125405714Y-54144761D01*
X125215238Y-54097142D01*
X125120000Y-54001904D01*
X125072380Y-53906666D01*
X125072380Y-53192380D02*
X125072380Y-52620952D01*
X126072380Y-52906666D02*
X125072380Y-52906666D01*
X126167619Y-52525714D02*
X126167619Y-51763809D01*
X125072380Y-51668571D02*
X125072380Y-51097142D01*
X126072380Y-51382857D02*
X125072380Y-51382857D01*
X126072380Y-50192380D02*
X125596190Y-50525714D01*
X126072380Y-50763809D02*
X125072380Y-50763809D01*
X125072380Y-50382857D01*
X125120000Y-50287619D01*
X125167619Y-50240000D01*
X125262857Y-50192380D01*
X125405714Y-50192380D01*
X125500952Y-50240000D01*
X125548571Y-50287619D01*
X125596190Y-50382857D01*
X125596190Y-50763809D01*
X126072380Y-49763809D02*
X125072380Y-49763809D01*
X126072380Y-49287619D02*
X125072380Y-49287619D01*
X125786666Y-48954285D01*
X125072380Y-48620952D01*
X126072380Y-48620952D01*
X129722380Y-55476190D02*
X129722380Y-55952380D01*
X128722380Y-55952380D01*
X129198571Y-55142857D02*
X129198571Y-54809523D01*
X129722380Y-54666666D02*
X129722380Y-55142857D01*
X128722380Y-55142857D01*
X128722380Y-54666666D01*
X129722380Y-54238095D02*
X128722380Y-54238095D01*
X128722380Y-54000000D01*
X128770000Y-53857142D01*
X128865238Y-53761904D01*
X128960476Y-53714285D01*
X129150952Y-53666666D01*
X129293809Y-53666666D01*
X129484285Y-53714285D01*
X129579523Y-53761904D01*
X129674761Y-53857142D01*
X129722380Y-54000000D01*
X129722380Y-54238095D01*
X129722380Y-51952380D02*
X129722380Y-52523809D01*
X129722380Y-52238095D02*
X128722380Y-52238095D01*
X128865238Y-52333333D01*
X128960476Y-52428571D01*
X129008095Y-52523809D01*
X129722380Y-51476190D02*
X129722380Y-51285714D01*
X129674761Y-51190476D01*
X129627142Y-51142857D01*
X129484285Y-51047619D01*
X129293809Y-51000000D01*
X128912857Y-51000000D01*
X128817619Y-51047619D01*
X128770000Y-51095238D01*
X128722380Y-51190476D01*
X128722380Y-51380952D01*
X128770000Y-51476190D01*
X128817619Y-51523809D01*
X128912857Y-51571428D01*
X129150952Y-51571428D01*
X129246190Y-51523809D01*
X129293809Y-51476190D01*
X129341428Y-51380952D01*
X129341428Y-51190476D01*
X129293809Y-51095238D01*
X129246190Y-51047619D01*
X129150952Y-51000000D01*
G04 #@! TO.C,LED 20*
X132072380Y-56287619D02*
X131596190Y-56620952D01*
X132072380Y-56859047D02*
X131072380Y-56859047D01*
X131072380Y-56478095D01*
X131120000Y-56382857D01*
X131167619Y-56335238D01*
X131262857Y-56287619D01*
X131405714Y-56287619D01*
X131500952Y-56335238D01*
X131548571Y-56382857D01*
X131596190Y-56478095D01*
X131596190Y-56859047D01*
X132167619Y-56097142D02*
X132167619Y-55335238D01*
X132072380Y-55097142D02*
X131072380Y-55097142D01*
X131072380Y-54716190D01*
X131120000Y-54620952D01*
X131167619Y-54573333D01*
X131262857Y-54525714D01*
X131405714Y-54525714D01*
X131500952Y-54573333D01*
X131548571Y-54620952D01*
X131596190Y-54716190D01*
X131596190Y-55097142D01*
X131072380Y-53906666D02*
X131072380Y-53716190D01*
X131120000Y-53620952D01*
X131215238Y-53525714D01*
X131405714Y-53478095D01*
X131739047Y-53478095D01*
X131929523Y-53525714D01*
X132024761Y-53620952D01*
X132072380Y-53716190D01*
X132072380Y-53906666D01*
X132024761Y-54001904D01*
X131929523Y-54097142D01*
X131739047Y-54144761D01*
X131405714Y-54144761D01*
X131215238Y-54097142D01*
X131120000Y-54001904D01*
X131072380Y-53906666D01*
X131072380Y-53192380D02*
X131072380Y-52620952D01*
X132072380Y-52906666D02*
X131072380Y-52906666D01*
X132167619Y-52525714D02*
X132167619Y-51763809D01*
X131072380Y-51668571D02*
X131072380Y-51097142D01*
X132072380Y-51382857D02*
X131072380Y-51382857D01*
X132072380Y-50192380D02*
X131596190Y-50525714D01*
X132072380Y-50763809D02*
X131072380Y-50763809D01*
X131072380Y-50382857D01*
X131120000Y-50287619D01*
X131167619Y-50240000D01*
X131262857Y-50192380D01*
X131405714Y-50192380D01*
X131500952Y-50240000D01*
X131548571Y-50287619D01*
X131596190Y-50382857D01*
X131596190Y-50763809D01*
X132072380Y-49763809D02*
X131072380Y-49763809D01*
X132072380Y-49287619D02*
X131072380Y-49287619D01*
X131786666Y-48954285D01*
X131072380Y-48620952D01*
X132072380Y-48620952D01*
X135722380Y-55476190D02*
X135722380Y-55952380D01*
X134722380Y-55952380D01*
X135198571Y-55142857D02*
X135198571Y-54809523D01*
X135722380Y-54666666D02*
X135722380Y-55142857D01*
X134722380Y-55142857D01*
X134722380Y-54666666D01*
X135722380Y-54238095D02*
X134722380Y-54238095D01*
X134722380Y-54000000D01*
X134770000Y-53857142D01*
X134865238Y-53761904D01*
X134960476Y-53714285D01*
X135150952Y-53666666D01*
X135293809Y-53666666D01*
X135484285Y-53714285D01*
X135579523Y-53761904D01*
X135674761Y-53857142D01*
X135722380Y-54000000D01*
X135722380Y-54238095D01*
X134817619Y-52523809D02*
X134770000Y-52476190D01*
X134722380Y-52380952D01*
X134722380Y-52142857D01*
X134770000Y-52047619D01*
X134817619Y-52000000D01*
X134912857Y-51952380D01*
X135008095Y-51952380D01*
X135150952Y-52000000D01*
X135722380Y-52571428D01*
X135722380Y-51952380D01*
X134722380Y-51333333D02*
X134722380Y-51238095D01*
X134770000Y-51142857D01*
X134817619Y-51095238D01*
X134912857Y-51047619D01*
X135103333Y-51000000D01*
X135341428Y-51000000D01*
X135531904Y-51047619D01*
X135627142Y-51095238D01*
X135674761Y-51142857D01*
X135722380Y-51238095D01*
X135722380Y-51333333D01*
X135674761Y-51428571D01*
X135627142Y-51476190D01*
X135531904Y-51523809D01*
X135341428Y-51571428D01*
X135103333Y-51571428D01*
X134912857Y-51523809D01*
X134817619Y-51476190D01*
X134770000Y-51428571D01*
X134722380Y-51333333D01*
G04 #@! TO.C,LED 21*
X138072380Y-56287619D02*
X137596190Y-56620952D01*
X138072380Y-56859047D02*
X137072380Y-56859047D01*
X137072380Y-56478095D01*
X137120000Y-56382857D01*
X137167619Y-56335238D01*
X137262857Y-56287619D01*
X137405714Y-56287619D01*
X137500952Y-56335238D01*
X137548571Y-56382857D01*
X137596190Y-56478095D01*
X137596190Y-56859047D01*
X138167619Y-56097142D02*
X138167619Y-55335238D01*
X138072380Y-55097142D02*
X137072380Y-55097142D01*
X137072380Y-54716190D01*
X137120000Y-54620952D01*
X137167619Y-54573333D01*
X137262857Y-54525714D01*
X137405714Y-54525714D01*
X137500952Y-54573333D01*
X137548571Y-54620952D01*
X137596190Y-54716190D01*
X137596190Y-55097142D01*
X137072380Y-53906666D02*
X137072380Y-53716190D01*
X137120000Y-53620952D01*
X137215238Y-53525714D01*
X137405714Y-53478095D01*
X137739047Y-53478095D01*
X137929523Y-53525714D01*
X138024761Y-53620952D01*
X138072380Y-53716190D01*
X138072380Y-53906666D01*
X138024761Y-54001904D01*
X137929523Y-54097142D01*
X137739047Y-54144761D01*
X137405714Y-54144761D01*
X137215238Y-54097142D01*
X137120000Y-54001904D01*
X137072380Y-53906666D01*
X137072380Y-53192380D02*
X137072380Y-52620952D01*
X138072380Y-52906666D02*
X137072380Y-52906666D01*
X138167619Y-52525714D02*
X138167619Y-51763809D01*
X137072380Y-51668571D02*
X137072380Y-51097142D01*
X138072380Y-51382857D02*
X137072380Y-51382857D01*
X138072380Y-50192380D02*
X137596190Y-50525714D01*
X138072380Y-50763809D02*
X137072380Y-50763809D01*
X137072380Y-50382857D01*
X137120000Y-50287619D01*
X137167619Y-50240000D01*
X137262857Y-50192380D01*
X137405714Y-50192380D01*
X137500952Y-50240000D01*
X137548571Y-50287619D01*
X137596190Y-50382857D01*
X137596190Y-50763809D01*
X138072380Y-49763809D02*
X137072380Y-49763809D01*
X138072380Y-49287619D02*
X137072380Y-49287619D01*
X137786666Y-48954285D01*
X137072380Y-48620952D01*
X138072380Y-48620952D01*
X141722380Y-55476190D02*
X141722380Y-55952380D01*
X140722380Y-55952380D01*
X141198571Y-55142857D02*
X141198571Y-54809523D01*
X141722380Y-54666666D02*
X141722380Y-55142857D01*
X140722380Y-55142857D01*
X140722380Y-54666666D01*
X141722380Y-54238095D02*
X140722380Y-54238095D01*
X140722380Y-54000000D01*
X140770000Y-53857142D01*
X140865238Y-53761904D01*
X140960476Y-53714285D01*
X141150952Y-53666666D01*
X141293809Y-53666666D01*
X141484285Y-53714285D01*
X141579523Y-53761904D01*
X141674761Y-53857142D01*
X141722380Y-54000000D01*
X141722380Y-54238095D01*
X140817619Y-52523809D02*
X140770000Y-52476190D01*
X140722380Y-52380952D01*
X140722380Y-52142857D01*
X140770000Y-52047619D01*
X140817619Y-52000000D01*
X140912857Y-51952380D01*
X141008095Y-51952380D01*
X141150952Y-52000000D01*
X141722380Y-52571428D01*
X141722380Y-51952380D01*
X141722380Y-51000000D02*
X141722380Y-51571428D01*
X141722380Y-51285714D02*
X140722380Y-51285714D01*
X140865238Y-51380952D01*
X140960476Y-51476190D01*
X141008095Y-51571428D01*
G04 #@! TO.C,LED 22*
X144072380Y-56287619D02*
X143596190Y-56620952D01*
X144072380Y-56859047D02*
X143072380Y-56859047D01*
X143072380Y-56478095D01*
X143120000Y-56382857D01*
X143167619Y-56335238D01*
X143262857Y-56287619D01*
X143405714Y-56287619D01*
X143500952Y-56335238D01*
X143548571Y-56382857D01*
X143596190Y-56478095D01*
X143596190Y-56859047D01*
X144167619Y-56097142D02*
X144167619Y-55335238D01*
X144072380Y-55097142D02*
X143072380Y-55097142D01*
X143072380Y-54716190D01*
X143120000Y-54620952D01*
X143167619Y-54573333D01*
X143262857Y-54525714D01*
X143405714Y-54525714D01*
X143500952Y-54573333D01*
X143548571Y-54620952D01*
X143596190Y-54716190D01*
X143596190Y-55097142D01*
X143072380Y-53906666D02*
X143072380Y-53716190D01*
X143120000Y-53620952D01*
X143215238Y-53525714D01*
X143405714Y-53478095D01*
X143739047Y-53478095D01*
X143929523Y-53525714D01*
X144024761Y-53620952D01*
X144072380Y-53716190D01*
X144072380Y-53906666D01*
X144024761Y-54001904D01*
X143929523Y-54097142D01*
X143739047Y-54144761D01*
X143405714Y-54144761D01*
X143215238Y-54097142D01*
X143120000Y-54001904D01*
X143072380Y-53906666D01*
X143072380Y-53192380D02*
X143072380Y-52620952D01*
X144072380Y-52906666D02*
X143072380Y-52906666D01*
X144167619Y-52525714D02*
X144167619Y-51763809D01*
X143072380Y-51668571D02*
X143072380Y-51097142D01*
X144072380Y-51382857D02*
X143072380Y-51382857D01*
X144072380Y-50192380D02*
X143596190Y-50525714D01*
X144072380Y-50763809D02*
X143072380Y-50763809D01*
X143072380Y-50382857D01*
X143120000Y-50287619D01*
X143167619Y-50240000D01*
X143262857Y-50192380D01*
X143405714Y-50192380D01*
X143500952Y-50240000D01*
X143548571Y-50287619D01*
X143596190Y-50382857D01*
X143596190Y-50763809D01*
X144072380Y-49763809D02*
X143072380Y-49763809D01*
X144072380Y-49287619D02*
X143072380Y-49287619D01*
X143786666Y-48954285D01*
X143072380Y-48620952D01*
X144072380Y-48620952D01*
X147722380Y-55476190D02*
X147722380Y-55952380D01*
X146722380Y-55952380D01*
X147198571Y-55142857D02*
X147198571Y-54809523D01*
X147722380Y-54666666D02*
X147722380Y-55142857D01*
X146722380Y-55142857D01*
X146722380Y-54666666D01*
X147722380Y-54238095D02*
X146722380Y-54238095D01*
X146722380Y-54000000D01*
X146770000Y-53857142D01*
X146865238Y-53761904D01*
X146960476Y-53714285D01*
X147150952Y-53666666D01*
X147293809Y-53666666D01*
X147484285Y-53714285D01*
X147579523Y-53761904D01*
X147674761Y-53857142D01*
X147722380Y-54000000D01*
X147722380Y-54238095D01*
X146817619Y-52523809D02*
X146770000Y-52476190D01*
X146722380Y-52380952D01*
X146722380Y-52142857D01*
X146770000Y-52047619D01*
X146817619Y-52000000D01*
X146912857Y-51952380D01*
X147008095Y-51952380D01*
X147150952Y-52000000D01*
X147722380Y-52571428D01*
X147722380Y-51952380D01*
X146817619Y-51571428D02*
X146770000Y-51523809D01*
X146722380Y-51428571D01*
X146722380Y-51190476D01*
X146770000Y-51095238D01*
X146817619Y-51047619D01*
X146912857Y-51000000D01*
X147008095Y-51000000D01*
X147150952Y-51047619D01*
X147722380Y-51619047D01*
X147722380Y-51000000D01*
G04 #@! TO.C,LED 23*
X150072380Y-56287619D02*
X149596190Y-56620952D01*
X150072380Y-56859047D02*
X149072380Y-56859047D01*
X149072380Y-56478095D01*
X149120000Y-56382857D01*
X149167619Y-56335238D01*
X149262857Y-56287619D01*
X149405714Y-56287619D01*
X149500952Y-56335238D01*
X149548571Y-56382857D01*
X149596190Y-56478095D01*
X149596190Y-56859047D01*
X150167619Y-56097142D02*
X150167619Y-55335238D01*
X150072380Y-55097142D02*
X149072380Y-55097142D01*
X149072380Y-54716190D01*
X149120000Y-54620952D01*
X149167619Y-54573333D01*
X149262857Y-54525714D01*
X149405714Y-54525714D01*
X149500952Y-54573333D01*
X149548571Y-54620952D01*
X149596190Y-54716190D01*
X149596190Y-55097142D01*
X149072380Y-53906666D02*
X149072380Y-53716190D01*
X149120000Y-53620952D01*
X149215238Y-53525714D01*
X149405714Y-53478095D01*
X149739047Y-53478095D01*
X149929523Y-53525714D01*
X150024761Y-53620952D01*
X150072380Y-53716190D01*
X150072380Y-53906666D01*
X150024761Y-54001904D01*
X149929523Y-54097142D01*
X149739047Y-54144761D01*
X149405714Y-54144761D01*
X149215238Y-54097142D01*
X149120000Y-54001904D01*
X149072380Y-53906666D01*
X149072380Y-53192380D02*
X149072380Y-52620952D01*
X150072380Y-52906666D02*
X149072380Y-52906666D01*
X150167619Y-52525714D02*
X150167619Y-51763809D01*
X149072380Y-51668571D02*
X149072380Y-51097142D01*
X150072380Y-51382857D02*
X149072380Y-51382857D01*
X150072380Y-50192380D02*
X149596190Y-50525714D01*
X150072380Y-50763809D02*
X149072380Y-50763809D01*
X149072380Y-50382857D01*
X149120000Y-50287619D01*
X149167619Y-50240000D01*
X149262857Y-50192380D01*
X149405714Y-50192380D01*
X149500952Y-50240000D01*
X149548571Y-50287619D01*
X149596190Y-50382857D01*
X149596190Y-50763809D01*
X150072380Y-49763809D02*
X149072380Y-49763809D01*
X150072380Y-49287619D02*
X149072380Y-49287619D01*
X149786666Y-48954285D01*
X149072380Y-48620952D01*
X150072380Y-48620952D01*
X153722380Y-55476190D02*
X153722380Y-55952380D01*
X152722380Y-55952380D01*
X153198571Y-55142857D02*
X153198571Y-54809523D01*
X153722380Y-54666666D02*
X153722380Y-55142857D01*
X152722380Y-55142857D01*
X152722380Y-54666666D01*
X153722380Y-54238095D02*
X152722380Y-54238095D01*
X152722380Y-54000000D01*
X152770000Y-53857142D01*
X152865238Y-53761904D01*
X152960476Y-53714285D01*
X153150952Y-53666666D01*
X153293809Y-53666666D01*
X153484285Y-53714285D01*
X153579523Y-53761904D01*
X153674761Y-53857142D01*
X153722380Y-54000000D01*
X153722380Y-54238095D01*
X152817619Y-52523809D02*
X152770000Y-52476190D01*
X152722380Y-52380952D01*
X152722380Y-52142857D01*
X152770000Y-52047619D01*
X152817619Y-52000000D01*
X152912857Y-51952380D01*
X153008095Y-51952380D01*
X153150952Y-52000000D01*
X153722380Y-52571428D01*
X153722380Y-51952380D01*
X152722380Y-51619047D02*
X152722380Y-51000000D01*
X153103333Y-51333333D01*
X153103333Y-51190476D01*
X153150952Y-51095238D01*
X153198571Y-51047619D01*
X153293809Y-51000000D01*
X153531904Y-51000000D01*
X153627142Y-51047619D01*
X153674761Y-51095238D01*
X153722380Y-51190476D01*
X153722380Y-51476190D01*
X153674761Y-51571428D01*
X153627142Y-51619047D01*
G04 #@! TO.C,LED 24*
X156072380Y-56287619D02*
X155596190Y-56620952D01*
X156072380Y-56859047D02*
X155072380Y-56859047D01*
X155072380Y-56478095D01*
X155120000Y-56382857D01*
X155167619Y-56335238D01*
X155262857Y-56287619D01*
X155405714Y-56287619D01*
X155500952Y-56335238D01*
X155548571Y-56382857D01*
X155596190Y-56478095D01*
X155596190Y-56859047D01*
X156167619Y-56097142D02*
X156167619Y-55335238D01*
X156072380Y-55097142D02*
X155072380Y-55097142D01*
X155072380Y-54716190D01*
X155120000Y-54620952D01*
X155167619Y-54573333D01*
X155262857Y-54525714D01*
X155405714Y-54525714D01*
X155500952Y-54573333D01*
X155548571Y-54620952D01*
X155596190Y-54716190D01*
X155596190Y-55097142D01*
X155072380Y-53906666D02*
X155072380Y-53716190D01*
X155120000Y-53620952D01*
X155215238Y-53525714D01*
X155405714Y-53478095D01*
X155739047Y-53478095D01*
X155929523Y-53525714D01*
X156024761Y-53620952D01*
X156072380Y-53716190D01*
X156072380Y-53906666D01*
X156024761Y-54001904D01*
X155929523Y-54097142D01*
X155739047Y-54144761D01*
X155405714Y-54144761D01*
X155215238Y-54097142D01*
X155120000Y-54001904D01*
X155072380Y-53906666D01*
X155072380Y-53192380D02*
X155072380Y-52620952D01*
X156072380Y-52906666D02*
X155072380Y-52906666D01*
X156167619Y-52525714D02*
X156167619Y-51763809D01*
X155072380Y-51668571D02*
X155072380Y-51097142D01*
X156072380Y-51382857D02*
X155072380Y-51382857D01*
X156072380Y-50192380D02*
X155596190Y-50525714D01*
X156072380Y-50763809D02*
X155072380Y-50763809D01*
X155072380Y-50382857D01*
X155120000Y-50287619D01*
X155167619Y-50240000D01*
X155262857Y-50192380D01*
X155405714Y-50192380D01*
X155500952Y-50240000D01*
X155548571Y-50287619D01*
X155596190Y-50382857D01*
X155596190Y-50763809D01*
X156072380Y-49763809D02*
X155072380Y-49763809D01*
X156072380Y-49287619D02*
X155072380Y-49287619D01*
X155786666Y-48954285D01*
X155072380Y-48620952D01*
X156072380Y-48620952D01*
X159722380Y-55476190D02*
X159722380Y-55952380D01*
X158722380Y-55952380D01*
X159198571Y-55142857D02*
X159198571Y-54809523D01*
X159722380Y-54666666D02*
X159722380Y-55142857D01*
X158722380Y-55142857D01*
X158722380Y-54666666D01*
X159722380Y-54238095D02*
X158722380Y-54238095D01*
X158722380Y-54000000D01*
X158770000Y-53857142D01*
X158865238Y-53761904D01*
X158960476Y-53714285D01*
X159150952Y-53666666D01*
X159293809Y-53666666D01*
X159484285Y-53714285D01*
X159579523Y-53761904D01*
X159674761Y-53857142D01*
X159722380Y-54000000D01*
X159722380Y-54238095D01*
X158817619Y-52523809D02*
X158770000Y-52476190D01*
X158722380Y-52380952D01*
X158722380Y-52142857D01*
X158770000Y-52047619D01*
X158817619Y-52000000D01*
X158912857Y-51952380D01*
X159008095Y-51952380D01*
X159150952Y-52000000D01*
X159722380Y-52571428D01*
X159722380Y-51952380D01*
X159055714Y-51095238D02*
X159722380Y-51095238D01*
X158674761Y-51333333D02*
X159389047Y-51571428D01*
X159389047Y-50952380D01*
G04 #@! TO.C,*
X13380952Y-89652380D02*
X13380952Y-88652380D01*
X13714285Y-89366666D01*
X14047619Y-88652380D01*
X14047619Y-89652380D01*
X14666666Y-89652380D02*
X14571428Y-89604761D01*
X14523809Y-89557142D01*
X14476190Y-89461904D01*
X14476190Y-89176190D01*
X14523809Y-89080952D01*
X14571428Y-89033333D01*
X14666666Y-88985714D01*
X14809523Y-88985714D01*
X14904761Y-89033333D01*
X14952380Y-89080952D01*
X14999999Y-89176190D01*
X14999999Y-89461904D01*
X14952380Y-89557142D01*
X14904761Y-89604761D01*
X14809523Y-89652380D01*
X14666666Y-89652380D01*
X15857142Y-88985714D02*
X15857142Y-89652380D01*
X15428571Y-88985714D02*
X15428571Y-89509523D01*
X15476190Y-89604761D01*
X15571428Y-89652380D01*
X15714285Y-89652380D01*
X15809523Y-89604761D01*
X15857142Y-89557142D01*
X16333333Y-88985714D02*
X16333333Y-89652380D01*
X16333333Y-89080952D02*
X16380952Y-89033333D01*
X16476190Y-88985714D01*
X16619047Y-88985714D01*
X16714285Y-89033333D01*
X16761904Y-89128571D01*
X16761904Y-89652380D01*
X17095238Y-88985714D02*
X17476190Y-88985714D01*
X17238095Y-88652380D02*
X17238095Y-89509523D01*
X17285714Y-89604761D01*
X17380952Y-89652380D01*
X17476190Y-89652380D01*
X17809523Y-89652380D02*
X17809523Y-88985714D01*
X17809523Y-88652380D02*
X17761904Y-88700000D01*
X17809523Y-88747619D01*
X17857142Y-88700000D01*
X17809523Y-88652380D01*
X17809523Y-88747619D01*
X18285714Y-88985714D02*
X18285714Y-89652380D01*
X18285714Y-89080952D02*
X18333333Y-89033333D01*
X18428571Y-88985714D01*
X18571428Y-88985714D01*
X18666666Y-89033333D01*
X18714285Y-89128571D01*
X18714285Y-89652380D01*
X19619047Y-88985714D02*
X19619047Y-89795238D01*
X19571428Y-89890476D01*
X19523809Y-89938095D01*
X19428571Y-89985714D01*
X19285714Y-89985714D01*
X19190476Y-89938095D01*
X19619047Y-89604761D02*
X19523809Y-89652380D01*
X19333333Y-89652380D01*
X19238095Y-89604761D01*
X19190476Y-89557142D01*
X19142857Y-89461904D01*
X19142857Y-89176190D01*
X19190476Y-89080952D01*
X19238095Y-89033333D01*
X19333333Y-88985714D01*
X19523809Y-88985714D01*
X19619047Y-89033333D01*
X20095238Y-89652380D02*
X20095238Y-88652380D01*
X20095238Y-89128571D02*
X20666666Y-89128571D01*
X20666666Y-89652380D02*
X20666666Y-88652380D01*
X21285714Y-89652380D02*
X21190476Y-89604761D01*
X21142857Y-89557142D01*
X21095238Y-89461904D01*
X21095238Y-89176190D01*
X21142857Y-89080952D01*
X21190476Y-89033333D01*
X21285714Y-88985714D01*
X21428571Y-88985714D01*
X21523809Y-89033333D01*
X21571428Y-89080952D01*
X21619047Y-89176190D01*
X21619047Y-89461904D01*
X21571428Y-89557142D01*
X21523809Y-89604761D01*
X21428571Y-89652380D01*
X21285714Y-89652380D01*
X22190476Y-89652380D02*
X22095238Y-89604761D01*
X22047619Y-89509523D01*
X22047619Y-88652380D01*
X22952380Y-89604761D02*
X22857142Y-89652380D01*
X22666666Y-89652380D01*
X22571428Y-89604761D01*
X22523809Y-89509523D01*
X22523809Y-89128571D01*
X22571428Y-89033333D01*
X22666666Y-88985714D01*
X22857142Y-88985714D01*
X22952380Y-89033333D01*
X22999999Y-89128571D01*
X22999999Y-89223809D01*
X22523809Y-89319047D01*
X23190476Y-89747619D02*
X23952380Y-89747619D01*
X24095238Y-88652380D02*
X24714285Y-88652380D01*
X24380952Y-89033333D01*
X24523809Y-89033333D01*
X24619047Y-89080952D01*
X24666666Y-89128571D01*
X24714285Y-89223809D01*
X24714285Y-89461904D01*
X24666666Y-89557142D01*
X24619047Y-89604761D01*
X24523809Y-89652380D01*
X24238095Y-89652380D01*
X24142857Y-89604761D01*
X24095238Y-89557142D01*
X25142857Y-89557142D02*
X25190476Y-89604761D01*
X25142857Y-89652380D01*
X25095238Y-89604761D01*
X25142857Y-89557142D01*
X25142857Y-89652380D01*
X25571428Y-88747619D02*
X25619047Y-88700000D01*
X25714285Y-88652380D01*
X25952380Y-88652380D01*
X26047619Y-88700000D01*
X26095238Y-88747619D01*
X26142857Y-88842857D01*
X26142857Y-88938095D01*
X26095238Y-89080952D01*
X25523809Y-89652380D01*
X26142857Y-89652380D01*
X26571428Y-89652380D02*
X26571428Y-88985714D01*
X26571428Y-89080952D02*
X26619047Y-89033333D01*
X26714285Y-88985714D01*
X26857142Y-88985714D01*
X26952380Y-89033333D01*
X26999999Y-89128571D01*
X26999999Y-89652380D01*
X26999999Y-89128571D02*
X27047619Y-89033333D01*
X27142857Y-88985714D01*
X27285714Y-88985714D01*
X27380952Y-89033333D01*
X27428571Y-89128571D01*
X27428571Y-89652380D01*
X27904761Y-89652380D02*
X27904761Y-88985714D01*
X27904761Y-89080952D02*
X27952380Y-89033333D01*
X28047619Y-88985714D01*
X28190476Y-88985714D01*
X28285714Y-89033333D01*
X28333333Y-89128571D01*
X28333333Y-89652380D01*
X28333333Y-89128571D02*
X28380952Y-89033333D01*
X28476190Y-88985714D01*
X28619047Y-88985714D01*
X28714285Y-89033333D01*
X28761904Y-89128571D01*
X28761904Y-89652380D01*
X28999999Y-89747619D02*
X29761904Y-89747619D01*
X29999999Y-89652380D02*
X29999999Y-88652380D01*
X30333333Y-89366666D01*
X30666666Y-88652380D01*
X30666666Y-89652380D01*
X31047619Y-88652380D02*
X31666666Y-88652380D01*
X31333333Y-89033333D01*
X31476190Y-89033333D01*
X31571428Y-89080952D01*
X31619047Y-89128571D01*
X31666666Y-89223809D01*
X31666666Y-89461904D01*
X31619047Y-89557142D01*
X31571428Y-89604761D01*
X31476190Y-89652380D01*
X31190476Y-89652380D01*
X31095238Y-89604761D01*
X31047619Y-89557142D01*
G04 #@! TD*
M02*
