G04 #@! TF.GenerationSoftware,KiCad,Pcbnew,(5.0.0)*
G04 #@! TF.CreationDate,2019-02-27T09:15:48+01:00*
G04 #@! TF.ProjectId,Potentiometer_mount_24LED,506F74656E74696F6D657465725F6D6F,rev?*
G04 #@! TF.SameCoordinates,Original*
G04 #@! TF.FileFunction,Other,User*
%FSLAX46Y46*%
G04 Gerber Fmt 4.6, Leading zero omitted, Abs format (unit mm)*
G04 Created by KiCad (PCBNEW (5.0.0)) date 02/27/19 09:15:48*
%MOMM*%
%LPD*%
G01*
G04 APERTURE LIST*
%ADD10C,0.050000*%
G04 APERTURE END LIST*
D10*
G04 #@! TO.C,*
X160950000Y-85000000D02*
G75*
G03X160950000Y-85000000I-3450000J0D01*
G01*
X93750000Y-85000000D02*
G75*
G03X93750000Y-85000000I-3450000J0D01*
G01*
G04 #@! TO.C,LED 1*
X23950000Y-63250000D02*
X23950000Y-42200000D01*
X18600000Y-63250000D02*
X23950000Y-63250000D01*
X18600000Y-42200000D02*
X18600000Y-63250000D01*
X23950000Y-42200000D02*
X18600000Y-42200000D01*
G04 #@! TO.C,LED 2*
X29950000Y-42200000D02*
X24600000Y-42200000D01*
X24600000Y-42200000D02*
X24600000Y-63250000D01*
X24600000Y-63250000D02*
X29950000Y-63250000D01*
X29950000Y-63250000D02*
X29950000Y-42200000D01*
G04 #@! TO.C,LED 3*
X35950000Y-63250000D02*
X35950000Y-42200000D01*
X30600000Y-63250000D02*
X35950000Y-63250000D01*
X30600000Y-42200000D02*
X30600000Y-63250000D01*
X35950000Y-42200000D02*
X30600000Y-42200000D01*
G04 #@! TO.C,LED 4*
X41950000Y-42200000D02*
X36600000Y-42200000D01*
X36600000Y-42200000D02*
X36600000Y-63250000D01*
X36600000Y-63250000D02*
X41950000Y-63250000D01*
X41950000Y-63250000D02*
X41950000Y-42200000D01*
G04 #@! TO.C,From Stimulator*
X66200000Y-80600000D02*
X39200000Y-80600000D01*
X66200000Y-89900000D02*
X66200000Y-80600000D01*
X39200000Y-89900000D02*
X66200000Y-89900000D01*
X39200000Y-80600000D02*
X39200000Y-89900000D01*
G04 #@! TO.C,To LED*
X116100000Y-80600000D02*
X116100000Y-89900000D01*
X116100000Y-89900000D02*
X143100000Y-89900000D01*
X143100000Y-89900000D02*
X143100000Y-80600000D01*
X143100000Y-80600000D02*
X116100000Y-80600000D01*
G04 #@! TO.C,LED 5*
X47950000Y-42200000D02*
X42600000Y-42200000D01*
X42600000Y-42200000D02*
X42600000Y-63250000D01*
X42600000Y-63250000D02*
X47950000Y-63250000D01*
X47950000Y-63250000D02*
X47950000Y-42200000D01*
G04 #@! TO.C,LED 6*
X53950000Y-63250000D02*
X53950000Y-42200000D01*
X48600000Y-63250000D02*
X53950000Y-63250000D01*
X48600000Y-42200000D02*
X48600000Y-63250000D01*
X53950000Y-42200000D02*
X48600000Y-42200000D01*
G04 #@! TO.C,LED 7*
X59950000Y-42200000D02*
X54600000Y-42200000D01*
X54600000Y-42200000D02*
X54600000Y-63250000D01*
X54600000Y-63250000D02*
X59950000Y-63250000D01*
X59950000Y-63250000D02*
X59950000Y-42200000D01*
G04 #@! TO.C,LED 8*
X65950000Y-63250000D02*
X65950000Y-42200000D01*
X60600000Y-63250000D02*
X65950000Y-63250000D01*
X60600000Y-42200000D02*
X60600000Y-63250000D01*
X65950000Y-42200000D02*
X60600000Y-42200000D01*
G04 #@! TO.C,LED 9*
X71950000Y-42200000D02*
X66600000Y-42200000D01*
X66600000Y-42200000D02*
X66600000Y-63250000D01*
X66600000Y-63250000D02*
X71950000Y-63250000D01*
X71950000Y-63250000D02*
X71950000Y-42200000D01*
G04 #@! TO.C,LED 10*
X77950000Y-63250000D02*
X77950000Y-42200000D01*
X72600000Y-63250000D02*
X77950000Y-63250000D01*
X72600000Y-42200000D02*
X72600000Y-63250000D01*
X77950000Y-42200000D02*
X72600000Y-42200000D01*
G04 #@! TO.C, LED 11*
X83950000Y-42200000D02*
X78600000Y-42200000D01*
X78600000Y-42200000D02*
X78600000Y-63250000D01*
X78600000Y-63250000D02*
X83950000Y-63250000D01*
X83950000Y-63250000D02*
X83950000Y-42200000D01*
G04 #@! TO.C,LED 12*
X89950000Y-42200000D02*
X84600000Y-42200000D01*
X84600000Y-42200000D02*
X84600000Y-63250000D01*
X84600000Y-63250000D02*
X89950000Y-63250000D01*
X89950000Y-63250000D02*
X89950000Y-42200000D01*
G04 #@! TO.C,LED 13*
X95950000Y-42200000D02*
X90600000Y-42200000D01*
X90600000Y-42200000D02*
X90600000Y-63250000D01*
X90600000Y-63250000D02*
X95950000Y-63250000D01*
X95950000Y-63250000D02*
X95950000Y-42200000D01*
G04 #@! TO.C,LED 14*
X101950000Y-63250000D02*
X101950000Y-42200000D01*
X96600000Y-63250000D02*
X101950000Y-63250000D01*
X96600000Y-42200000D02*
X96600000Y-63250000D01*
X101950000Y-42200000D02*
X96600000Y-42200000D01*
G04 #@! TO.C,LED 15*
X107950000Y-42200000D02*
X102600000Y-42200000D01*
X102600000Y-42200000D02*
X102600000Y-63250000D01*
X102600000Y-63250000D02*
X107950000Y-63250000D01*
X107950000Y-63250000D02*
X107950000Y-42200000D01*
G04 #@! TO.C,LED 16*
X113950000Y-63250000D02*
X113950000Y-42200000D01*
X108600000Y-63250000D02*
X113950000Y-63250000D01*
X108600000Y-42200000D02*
X108600000Y-63250000D01*
X113950000Y-42200000D02*
X108600000Y-42200000D01*
G04 #@! TO.C,LED 17*
X119950000Y-42200000D02*
X114600000Y-42200000D01*
X114600000Y-42200000D02*
X114600000Y-63250000D01*
X114600000Y-63250000D02*
X119950000Y-63250000D01*
X119950000Y-63250000D02*
X119950000Y-42200000D01*
G04 #@! TO.C,LED 18*
X125950000Y-63250000D02*
X125950000Y-42200000D01*
X120600000Y-63250000D02*
X125950000Y-63250000D01*
X120600000Y-42200000D02*
X120600000Y-63250000D01*
X125950000Y-42200000D02*
X120600000Y-42200000D01*
G04 #@! TO.C,LED 19*
X131950000Y-42200000D02*
X126600000Y-42200000D01*
X126600000Y-42200000D02*
X126600000Y-63250000D01*
X126600000Y-63250000D02*
X131950000Y-63250000D01*
X131950000Y-63250000D02*
X131950000Y-42200000D01*
G04 #@! TO.C,LED 20*
X137950000Y-63250000D02*
X137950000Y-42200000D01*
X132600000Y-63250000D02*
X137950000Y-63250000D01*
X132600000Y-42200000D02*
X132600000Y-63250000D01*
X137950000Y-42200000D02*
X132600000Y-42200000D01*
G04 #@! TO.C,LED 21*
X143950000Y-42200000D02*
X138600000Y-42200000D01*
X138600000Y-42200000D02*
X138600000Y-63250000D01*
X138600000Y-63250000D02*
X143950000Y-63250000D01*
X143950000Y-63250000D02*
X143950000Y-42200000D01*
G04 #@! TO.C,LED 22*
X149950000Y-63250000D02*
X149950000Y-42200000D01*
X144600000Y-63250000D02*
X149950000Y-63250000D01*
X144600000Y-42200000D02*
X144600000Y-63250000D01*
X149950000Y-42200000D02*
X144600000Y-42200000D01*
G04 #@! TO.C,LED 23*
X155950000Y-42200000D02*
X150600000Y-42200000D01*
X150600000Y-42200000D02*
X150600000Y-63250000D01*
X150600000Y-63250000D02*
X155950000Y-63250000D01*
X155950000Y-63250000D02*
X155950000Y-42200000D01*
G04 #@! TO.C,LED 24*
X161950000Y-63250000D02*
X161950000Y-42200000D01*
X156600000Y-63250000D02*
X161950000Y-63250000D01*
X156600000Y-42200000D02*
X156600000Y-63250000D01*
X161950000Y-42200000D02*
X156600000Y-42200000D01*
G04 #@! TO.C,*
X25950000Y-85000000D02*
G75*
G03X25950000Y-85000000I-3450000J0D01*
G01*
G04 #@! TD*
M02*
