G04 #@! TF.GenerationSoftware,KiCad,Pcbnew,(5.0.0)*
G04 #@! TF.CreationDate,2019-02-27T09:15:48+01:00*
G04 #@! TF.ProjectId,Potentiometer_mount_24LED,506F74656E74696F6D657465725F6D6F,rev?*
G04 #@! TF.SameCoordinates,Original*
G04 #@! TF.FileFunction,Copper,L1,Top,Signal*
G04 #@! TF.FilePolarity,Positive*
%FSLAX46Y46*%
G04 Gerber Fmt 4.6, Leading zero omitted, Abs format (unit mm)*
G04 Created by KiCad (PCBNEW (5.0.0)) date 02/27/19 09:15:48*
%MOMM*%
%LPD*%
G01*
G04 APERTURE LIST*
G04 #@! TA.AperFunction,ComponentPad*
%ADD10C,1.800000*%
G04 #@! TD*
G04 #@! TA.AperFunction,ComponentPad*
%ADD11C,1.200000*%
G04 #@! TD*
G04 #@! TA.AperFunction,ComponentPad*
%ADD12R,1.200000X1.200000*%
G04 #@! TD*
G04 #@! TA.AperFunction,Conductor*
%ADD13C,0.250000*%
G04 #@! TD*
G04 APERTURE END LIST*
D10*
G04 #@! TO.P,LED 1,3*
G04 #@! TO.N,Net-(J1-Pad1)*
X20000000Y-47300000D03*
G04 #@! TO.P,LED 1,2*
G04 #@! TO.N,Net-(J2-Pad1)*
X22540000Y-52380000D03*
G04 #@! TO.P,LED 1,1*
G04 #@! TO.N,Net-(RV1-Pad1)*
X20000000Y-60000000D03*
G04 #@! TD*
G04 #@! TO.P,LED 2,1*
G04 #@! TO.N,Net-(RV2-Pad1)*
X26000000Y-60000000D03*
G04 #@! TO.P,LED 2,2*
G04 #@! TO.N,Net-(J2-Pad2)*
X28540000Y-52380000D03*
G04 #@! TO.P,LED 2,3*
G04 #@! TO.N,Net-(J1-Pad2)*
X26000000Y-47300000D03*
G04 #@! TD*
G04 #@! TO.P,LED 3,3*
G04 #@! TO.N,Net-(J1-Pad3)*
X32000000Y-47300000D03*
G04 #@! TO.P,LED 3,2*
G04 #@! TO.N,Net-(J2-Pad3)*
X34540000Y-52380000D03*
G04 #@! TO.P,LED 3,1*
G04 #@! TO.N,Net-(RV3-Pad1)*
X32000000Y-60000000D03*
G04 #@! TD*
G04 #@! TO.P,LED 4,1*
G04 #@! TO.N,Net-(RV4-Pad1)*
X38000000Y-60000000D03*
G04 #@! TO.P,LED 4,2*
G04 #@! TO.N,Net-(J2-Pad4)*
X40540000Y-52380000D03*
G04 #@! TO.P,LED 4,3*
G04 #@! TO.N,Net-(J1-Pad4)*
X38000000Y-47300000D03*
G04 #@! TD*
D11*
G04 #@! TO.P,From Stimulator,24*
G04 #@! TO.N,Net-(J1-Pad24)*
X63700000Y-87000000D03*
G04 #@! TO.P,From Stimulator,22*
G04 #@! TO.N,Net-(J1-Pad22)*
X61700000Y-87000000D03*
G04 #@! TO.P,From Stimulator,20*
G04 #@! TO.N,Net-(J1-Pad20)*
X59700000Y-87000000D03*
G04 #@! TO.P,From Stimulator,18*
G04 #@! TO.N,Net-(J1-Pad18)*
X57700000Y-87000000D03*
G04 #@! TO.P,From Stimulator,16*
G04 #@! TO.N,Net-(J1-Pad16)*
X55700000Y-87000000D03*
G04 #@! TO.P,From Stimulator,14*
G04 #@! TO.N,Net-(J1-Pad14)*
X53700000Y-87000000D03*
G04 #@! TO.P,From Stimulator,12*
G04 #@! TO.N,Net-(J1-Pad12)*
X51700000Y-87000000D03*
G04 #@! TO.P,From Stimulator,10*
G04 #@! TO.N,Net-(J1-Pad10)*
X49700000Y-87000000D03*
G04 #@! TO.P,From Stimulator,8*
G04 #@! TO.N,Net-(J1-Pad8)*
X47700000Y-87000000D03*
G04 #@! TO.P,From Stimulator,6*
G04 #@! TO.N,Net-(J1-Pad6)*
X45700000Y-87000000D03*
G04 #@! TO.P,From Stimulator,4*
G04 #@! TO.N,Net-(J1-Pad4)*
X43700000Y-87000000D03*
G04 #@! TO.P,From Stimulator,2*
G04 #@! TO.N,Net-(J1-Pad2)*
X41700000Y-87000000D03*
G04 #@! TO.P,From Stimulator,23*
G04 #@! TO.N,Net-(J1-Pad23)*
X63700000Y-85000000D03*
G04 #@! TO.P,From Stimulator,21*
G04 #@! TO.N,Net-(J1-Pad21)*
X61700000Y-85000000D03*
G04 #@! TO.P,From Stimulator,19*
G04 #@! TO.N,Net-(J1-Pad19)*
X59700000Y-85000000D03*
G04 #@! TO.P,From Stimulator,17*
G04 #@! TO.N,Net-(J1-Pad17)*
X57700000Y-85000000D03*
G04 #@! TO.P,From Stimulator,15*
G04 #@! TO.N,Net-(J1-Pad15)*
X55700000Y-85000000D03*
G04 #@! TO.P,From Stimulator,13*
G04 #@! TO.N,Net-(J1-Pad13)*
X53700000Y-85000000D03*
G04 #@! TO.P,From Stimulator,11*
G04 #@! TO.N,Net-(J1-Pad11)*
X51700000Y-85000000D03*
G04 #@! TO.P,From Stimulator,9*
G04 #@! TO.N,Net-(J1-Pad9)*
X49700000Y-85000000D03*
G04 #@! TO.P,From Stimulator,7*
G04 #@! TO.N,Net-(J1-Pad7)*
X47700000Y-85000000D03*
G04 #@! TO.P,From Stimulator,5*
G04 #@! TO.N,Net-(J1-Pad5)*
X45700000Y-85000000D03*
G04 #@! TO.P,From Stimulator,3*
G04 #@! TO.N,Net-(J1-Pad3)*
X43700000Y-85000000D03*
D12*
G04 #@! TO.P,From Stimulator,1*
G04 #@! TO.N,Net-(J1-Pad1)*
X41700000Y-85000000D03*
G04 #@! TD*
G04 #@! TO.P,To LED,1*
G04 #@! TO.N,Net-(J2-Pad1)*
X118600000Y-85000000D03*
D11*
G04 #@! TO.P,To LED,3*
G04 #@! TO.N,Net-(J2-Pad3)*
X120600000Y-85000000D03*
G04 #@! TO.P,To LED,5*
G04 #@! TO.N,Net-(J2-Pad5)*
X122600000Y-85000000D03*
G04 #@! TO.P,To LED,7*
G04 #@! TO.N,Net-(J2-Pad7)*
X124600000Y-85000000D03*
G04 #@! TO.P,To LED,9*
G04 #@! TO.N,Net-(J2-Pad9)*
X126600000Y-85000000D03*
G04 #@! TO.P,To LED,11*
G04 #@! TO.N,Net-(J2-Pad11)*
X128600000Y-85000000D03*
G04 #@! TO.P,To LED,13*
G04 #@! TO.N,Net-(J2-Pad13)*
X130600000Y-85000000D03*
G04 #@! TO.P,To LED,15*
G04 #@! TO.N,Net-(J2-Pad15)*
X132600000Y-85000000D03*
G04 #@! TO.P,To LED,17*
G04 #@! TO.N,Net-(J2-Pad17)*
X134600000Y-85000000D03*
G04 #@! TO.P,To LED,19*
G04 #@! TO.N,Net-(J2-Pad19)*
X136600000Y-85000000D03*
G04 #@! TO.P,To LED,21*
G04 #@! TO.N,Net-(J2-Pad21)*
X138600000Y-85000000D03*
G04 #@! TO.P,To LED,23*
G04 #@! TO.N,Net-(J2-Pad23)*
X140600000Y-85000000D03*
G04 #@! TO.P,To LED,2*
G04 #@! TO.N,Net-(J2-Pad2)*
X118600000Y-87000000D03*
G04 #@! TO.P,To LED,4*
G04 #@! TO.N,Net-(J2-Pad4)*
X120600000Y-87000000D03*
G04 #@! TO.P,To LED,6*
G04 #@! TO.N,Net-(J2-Pad6)*
X122600000Y-87000000D03*
G04 #@! TO.P,To LED,8*
G04 #@! TO.N,Net-(J2-Pad8)*
X124600000Y-87000000D03*
G04 #@! TO.P,To LED,10*
G04 #@! TO.N,Net-(J2-Pad10)*
X126600000Y-87000000D03*
G04 #@! TO.P,To LED,12*
G04 #@! TO.N,Net-(J2-Pad12)*
X128600000Y-87000000D03*
G04 #@! TO.P,To LED,14*
G04 #@! TO.N,Net-(J2-Pad14)*
X130600000Y-87000000D03*
G04 #@! TO.P,To LED,16*
G04 #@! TO.N,Net-(J2-Pad16)*
X132600000Y-87000000D03*
G04 #@! TO.P,To LED,18*
G04 #@! TO.N,Net-(J2-Pad18)*
X134600000Y-87000000D03*
G04 #@! TO.P,To LED,20*
G04 #@! TO.N,Net-(J2-Pad20)*
X136600000Y-87000000D03*
G04 #@! TO.P,To LED,22*
G04 #@! TO.N,Net-(J2-Pad22)*
X138600000Y-87000000D03*
G04 #@! TO.P,To LED,24*
G04 #@! TO.N,Net-(J2-Pad24)*
X140600000Y-87000000D03*
G04 #@! TD*
D10*
G04 #@! TO.P,LED 5,1*
G04 #@! TO.N,Net-(RV5-Pad1)*
X44000000Y-60000000D03*
G04 #@! TO.P,LED 5,2*
G04 #@! TO.N,Net-(J2-Pad5)*
X46540000Y-52380000D03*
G04 #@! TO.P,LED 5,3*
G04 #@! TO.N,Net-(J1-Pad5)*
X44000000Y-47300000D03*
G04 #@! TD*
G04 #@! TO.P,LED 6,3*
G04 #@! TO.N,Net-(J1-Pad6)*
X50000000Y-47300000D03*
G04 #@! TO.P,LED 6,2*
G04 #@! TO.N,Net-(J2-Pad6)*
X52540000Y-52380000D03*
G04 #@! TO.P,LED 6,1*
G04 #@! TO.N,Net-(RV6-Pad1)*
X50000000Y-60000000D03*
G04 #@! TD*
G04 #@! TO.P,LED 7,1*
G04 #@! TO.N,Net-(RV7-Pad1)*
X56000000Y-60000000D03*
G04 #@! TO.P,LED 7,2*
G04 #@! TO.N,Net-(J2-Pad7)*
X58540000Y-52380000D03*
G04 #@! TO.P,LED 7,3*
G04 #@! TO.N,Net-(J1-Pad7)*
X56000000Y-47300000D03*
G04 #@! TD*
G04 #@! TO.P,LED 8,3*
G04 #@! TO.N,Net-(J1-Pad8)*
X62000000Y-47300000D03*
G04 #@! TO.P,LED 8,2*
G04 #@! TO.N,Net-(J2-Pad8)*
X64540000Y-52380000D03*
G04 #@! TO.P,LED 8,1*
G04 #@! TO.N,Net-(RV8-Pad1)*
X62000000Y-60000000D03*
G04 #@! TD*
G04 #@! TO.P,LED 9,1*
G04 #@! TO.N,Net-(RV9-Pad1)*
X68000000Y-60000000D03*
G04 #@! TO.P,LED 9,2*
G04 #@! TO.N,Net-(J2-Pad9)*
X70540000Y-52380000D03*
G04 #@! TO.P,LED 9,3*
G04 #@! TO.N,Net-(J1-Pad9)*
X68000000Y-47300000D03*
G04 #@! TD*
G04 #@! TO.P,LED 10,3*
G04 #@! TO.N,Net-(J1-Pad10)*
X74000000Y-47300000D03*
G04 #@! TO.P,LED 10,2*
G04 #@! TO.N,Net-(J2-Pad10)*
X76540000Y-52380000D03*
G04 #@! TO.P,LED 10,1*
G04 #@! TO.N,Net-(RV10-Pad1)*
X74000000Y-60000000D03*
G04 #@! TD*
G04 #@! TO.P, LED 11,1*
G04 #@! TO.N,Net-(RV11-Pad1)*
X80000000Y-60000000D03*
G04 #@! TO.P, LED 11,2*
G04 #@! TO.N,Net-(J2-Pad11)*
X82540000Y-52380000D03*
G04 #@! TO.P, LED 11,3*
G04 #@! TO.N,Net-(J1-Pad11)*
X80000000Y-47300000D03*
G04 #@! TD*
G04 #@! TO.P,LED 12,1*
G04 #@! TO.N,Net-(RV12-Pad1)*
X86000000Y-60000000D03*
G04 #@! TO.P,LED 12,2*
G04 #@! TO.N,Net-(J2-Pad12)*
X88540000Y-52380000D03*
G04 #@! TO.P,LED 12,3*
G04 #@! TO.N,Net-(J1-Pad12)*
X86000000Y-47300000D03*
G04 #@! TD*
G04 #@! TO.P,LED 13,1*
G04 #@! TO.N,Net-(RV13-Pad1)*
X92000000Y-60000000D03*
G04 #@! TO.P,LED 13,2*
G04 #@! TO.N,Net-(J2-Pad13)*
X94540000Y-52380000D03*
G04 #@! TO.P,LED 13,3*
G04 #@! TO.N,Net-(J1-Pad13)*
X92000000Y-47300000D03*
G04 #@! TD*
G04 #@! TO.P,LED 14,3*
G04 #@! TO.N,Net-(J1-Pad14)*
X98000000Y-47300000D03*
G04 #@! TO.P,LED 14,2*
G04 #@! TO.N,Net-(J2-Pad14)*
X100540000Y-52380000D03*
G04 #@! TO.P,LED 14,1*
G04 #@! TO.N,Net-(RV14-Pad1)*
X98000000Y-60000000D03*
G04 #@! TD*
G04 #@! TO.P,LED 15,1*
G04 #@! TO.N,Net-(RV15-Pad1)*
X104000000Y-60000000D03*
G04 #@! TO.P,LED 15,2*
G04 #@! TO.N,Net-(J2-Pad15)*
X106540000Y-52380000D03*
G04 #@! TO.P,LED 15,3*
G04 #@! TO.N,Net-(J1-Pad15)*
X104000000Y-47300000D03*
G04 #@! TD*
G04 #@! TO.P,LED 16,3*
G04 #@! TO.N,Net-(J1-Pad16)*
X110000000Y-47300000D03*
G04 #@! TO.P,LED 16,2*
G04 #@! TO.N,Net-(J2-Pad16)*
X112540000Y-52380000D03*
G04 #@! TO.P,LED 16,1*
G04 #@! TO.N,Net-(RV16-Pad1)*
X110000000Y-60000000D03*
G04 #@! TD*
G04 #@! TO.P,LED 17,1*
G04 #@! TO.N,Net-(RV17-Pad1)*
X116000000Y-60000000D03*
G04 #@! TO.P,LED 17,2*
G04 #@! TO.N,Net-(J2-Pad17)*
X118540000Y-52380000D03*
G04 #@! TO.P,LED 17,3*
G04 #@! TO.N,Net-(J1-Pad17)*
X116000000Y-47300000D03*
G04 #@! TD*
G04 #@! TO.P,LED 18,3*
G04 #@! TO.N,Net-(J1-Pad18)*
X122000000Y-47300000D03*
G04 #@! TO.P,LED 18,2*
G04 #@! TO.N,Net-(J2-Pad18)*
X124540000Y-52380000D03*
G04 #@! TO.P,LED 18,1*
G04 #@! TO.N,Net-(RV18-Pad1)*
X122000000Y-60000000D03*
G04 #@! TD*
G04 #@! TO.P,LED 19,1*
G04 #@! TO.N,Net-(RV19-Pad1)*
X128000000Y-60000000D03*
G04 #@! TO.P,LED 19,2*
G04 #@! TO.N,Net-(J2-Pad19)*
X130540000Y-52380000D03*
G04 #@! TO.P,LED 19,3*
G04 #@! TO.N,Net-(J1-Pad19)*
X128000000Y-47300000D03*
G04 #@! TD*
G04 #@! TO.P,LED 20,3*
G04 #@! TO.N,Net-(J1-Pad20)*
X134000000Y-47300000D03*
G04 #@! TO.P,LED 20,2*
G04 #@! TO.N,Net-(J2-Pad20)*
X136540000Y-52380000D03*
G04 #@! TO.P,LED 20,1*
G04 #@! TO.N,Net-(RV20-Pad1)*
X134000000Y-60000000D03*
G04 #@! TD*
G04 #@! TO.P,LED 21,1*
G04 #@! TO.N,Net-(RV21-Pad1)*
X140000000Y-60000000D03*
G04 #@! TO.P,LED 21,2*
G04 #@! TO.N,Net-(J2-Pad21)*
X142540000Y-52380000D03*
G04 #@! TO.P,LED 21,3*
G04 #@! TO.N,Net-(J1-Pad21)*
X140000000Y-47300000D03*
G04 #@! TD*
G04 #@! TO.P,LED 22,3*
G04 #@! TO.N,Net-(J1-Pad22)*
X146000000Y-47300000D03*
G04 #@! TO.P,LED 22,2*
G04 #@! TO.N,Net-(J2-Pad22)*
X148540000Y-52380000D03*
G04 #@! TO.P,LED 22,1*
G04 #@! TO.N,Net-(RV22-Pad1)*
X146000000Y-60000000D03*
G04 #@! TD*
G04 #@! TO.P,LED 23,1*
G04 #@! TO.N,Net-(RV23-Pad1)*
X152000000Y-60000000D03*
G04 #@! TO.P,LED 23,2*
G04 #@! TO.N,Net-(J2-Pad23)*
X154540000Y-52380000D03*
G04 #@! TO.P,LED 23,3*
G04 #@! TO.N,Net-(J1-Pad23)*
X152000000Y-47300000D03*
G04 #@! TD*
G04 #@! TO.P,LED 24,3*
G04 #@! TO.N,Net-(J1-Pad24)*
X158000000Y-47300000D03*
G04 #@! TO.P,LED 24,2*
G04 #@! TO.N,Net-(J2-Pad24)*
X160540000Y-52380000D03*
G04 #@! TO.P,LED 24,1*
G04 #@! TO.N,Net-(RV24-Pad1)*
X158000000Y-60000000D03*
G04 #@! TD*
D13*
G04 #@! TO.N,Net-(J1-Pad1)*
X20000000Y-47300000D02*
X24300000Y-51600000D01*
X24300000Y-51600000D02*
X24300000Y-66200000D01*
X41700000Y-83600000D02*
X41700000Y-85000000D01*
X24300000Y-66200000D02*
X41700000Y-83600000D01*
G04 #@! TO.N,Net-(J1-Pad2)*
X22200000Y-67500000D02*
X41700000Y-87000000D01*
X23800000Y-45100000D02*
X19200000Y-45100000D01*
X26000000Y-47300000D02*
X23800000Y-45100000D01*
X19200000Y-45100000D02*
X18200000Y-46100000D01*
X18200000Y-46100000D02*
X18200000Y-52800000D01*
X18200000Y-52800000D02*
X22200000Y-56800000D01*
X22200000Y-56800000D02*
X22200000Y-67500000D01*
G04 #@! TO.N,Net-(J1-Pad3)*
X32000000Y-47300000D02*
X32000000Y-55200000D01*
X32000000Y-55200000D02*
X34200000Y-57400000D01*
X34200000Y-57400000D02*
X34200000Y-72600000D01*
X43700000Y-82100000D02*
X43700000Y-85000000D01*
X34200000Y-72600000D02*
X43700000Y-82100000D01*
G04 #@! TO.N,Net-(J1-Pad4)*
X44299999Y-86400001D02*
X43700000Y-87000000D01*
X44625001Y-86074999D02*
X44299999Y-86400001D01*
X44625001Y-82388591D02*
X44625001Y-86074999D01*
X41500000Y-79263590D02*
X44625001Y-82388591D01*
X41500000Y-55153002D02*
X41500000Y-79263590D01*
X38000000Y-51653002D02*
X41500000Y-55153002D01*
X38000000Y-47300000D02*
X38000000Y-51653002D01*
G04 #@! TO.N,Net-(J1-Pad24)*
X156727208Y-47300000D02*
X130927208Y-73100000D01*
X158000000Y-47300000D02*
X156727208Y-47300000D01*
X77600000Y-73100000D02*
X63700000Y-87000000D01*
X130927208Y-73100000D02*
X77600000Y-73100000D01*
G04 #@! TO.N,Net-(J1-Pad22)*
X62299999Y-86400001D02*
X61700000Y-87000000D01*
X62625001Y-86074999D02*
X62299999Y-86400001D01*
X62625001Y-84711409D02*
X62625001Y-86074999D01*
X76536410Y-70800000D02*
X75900000Y-71436410D01*
X121227208Y-70800000D02*
X76536410Y-70800000D01*
X144727208Y-47300000D02*
X121227208Y-70800000D01*
X146000000Y-47300000D02*
X144727208Y-47300000D01*
X75900000Y-71436410D02*
X62625001Y-84711409D01*
G04 #@! TO.N,Net-(J1-Pad20)*
X60299999Y-86400001D02*
X59700000Y-87000000D01*
X132727208Y-47300000D02*
X110427208Y-69600000D01*
X75736410Y-69600000D02*
X60625001Y-84711409D01*
X134000000Y-47300000D02*
X132727208Y-47300000D01*
X110427208Y-69600000D02*
X75736410Y-69600000D01*
X60625001Y-84711409D02*
X60625001Y-86074999D01*
X60625001Y-86074999D02*
X60299999Y-86400001D01*
G04 #@! TO.N,Net-(J1-Pad18)*
X120727208Y-47300000D02*
X122000000Y-47300000D01*
X100227208Y-67800000D02*
X120727208Y-47300000D01*
X75536410Y-67800000D02*
X100227208Y-67800000D01*
X58625001Y-84711409D02*
X75536410Y-67800000D01*
X57700000Y-87000000D02*
X58625001Y-86074999D01*
X58625001Y-86074999D02*
X58625001Y-84711409D01*
G04 #@! TO.N,Net-(J1-Pad16)*
X106533003Y-48199999D02*
X88933002Y-65800000D01*
X110000000Y-47300000D02*
X109100001Y-48199999D01*
X109100001Y-48199999D02*
X106533003Y-48199999D01*
X88933002Y-65800000D02*
X76200000Y-65800000D01*
X56299999Y-86400001D02*
X55700000Y-87000000D01*
X56625001Y-86074999D02*
X56299999Y-86400001D01*
X56625001Y-84711409D02*
X56625001Y-86074999D01*
X58336410Y-83000000D02*
X56625001Y-84711409D01*
X59000000Y-83000000D02*
X58336410Y-83000000D01*
X76200000Y-65800000D02*
X59000000Y-83000000D01*
G04 #@! TO.N,Net-(J1-Pad14)*
X96727208Y-47300000D02*
X79927208Y-64100000D01*
X98000000Y-47300000D02*
X96727208Y-47300000D01*
X54299999Y-86400001D02*
X53700000Y-87000000D01*
X54625001Y-86074999D02*
X54299999Y-86400001D01*
X54625001Y-84711409D02*
X54625001Y-86074999D01*
X75236410Y-64100000D02*
X54625001Y-84711409D01*
X79927208Y-64100000D02*
X75236410Y-64100000D01*
G04 #@! TO.N,Net-(J1-Pad12)*
X52299999Y-86400001D02*
X51700000Y-87000000D01*
X52625001Y-86074999D02*
X52299999Y-86400001D01*
X52625001Y-84711409D02*
X52625001Y-86074999D01*
X84774999Y-52561411D02*
X52625001Y-84711409D01*
X84774999Y-48525001D02*
X84774999Y-52561411D01*
X86000000Y-47300000D02*
X84774999Y-48525001D01*
G04 #@! TO.N,Net-(J1-Pad10)*
X50299999Y-86400001D02*
X49700000Y-87000000D01*
X50625001Y-86074999D02*
X50299999Y-86400001D01*
X50625001Y-84711409D02*
X50625001Y-86074999D01*
X72774999Y-62561411D02*
X50625001Y-84711409D01*
X72774999Y-48525001D02*
X72774999Y-62561411D01*
X74000000Y-47300000D02*
X72774999Y-48525001D01*
G04 #@! TO.N,Net-(J1-Pad8)*
X48100000Y-86600000D02*
X47700000Y-87000000D01*
X48625001Y-85444001D02*
X48100000Y-85969002D01*
X48100000Y-85969002D02*
X48100000Y-86600000D01*
X60774999Y-69825001D02*
X48625001Y-81974999D01*
X48625001Y-81974999D02*
X48625001Y-85444001D01*
X60774999Y-48525001D02*
X60774999Y-69825001D01*
X62000000Y-47300000D02*
X60774999Y-48525001D01*
G04 #@! TO.N,Net-(J1-Pad6)*
X46299999Y-86400001D02*
X45700000Y-87000000D01*
X46625001Y-86074999D02*
X46299999Y-86400001D01*
X46625001Y-64551591D02*
X46625001Y-86074999D01*
X48774999Y-62401593D02*
X46625001Y-64551591D01*
X48774999Y-48525001D02*
X48774999Y-62401593D01*
X50000000Y-47300000D02*
X48774999Y-48525001D01*
G04 #@! TO.N,Net-(J1-Pad23)*
X152000000Y-47300000D02*
X150727208Y-47300000D01*
X126227208Y-71800000D02*
X126427208Y-71600000D01*
X76900000Y-71800000D02*
X126227208Y-71800000D01*
X63700000Y-85000000D02*
X76900000Y-71800000D01*
X150727208Y-47300000D02*
X126427208Y-71600000D01*
X126427208Y-71600000D02*
X126327208Y-71700000D01*
G04 #@! TO.N,Net-(J1-Pad21)*
X138727208Y-47300000D02*
X115927208Y-70100000D01*
X140000000Y-47300000D02*
X138727208Y-47300000D01*
X76600000Y-70100000D02*
X61700000Y-85000000D01*
X115927208Y-70100000D02*
X76600000Y-70100000D01*
G04 #@! TO.N,Net-(J1-Pad19)*
X126727208Y-47300000D02*
X128000000Y-47300000D01*
X105127208Y-68900000D02*
X126727208Y-47300000D01*
X59700000Y-85000000D02*
X75800000Y-68900000D01*
X75800000Y-68900000D02*
X105127208Y-68900000D01*
G04 #@! TO.N,Net-(J1-Pad17)*
X76200000Y-66500000D02*
X57700000Y-85000000D01*
X95527208Y-66500000D02*
X76200000Y-66500000D01*
X116000000Y-47300000D02*
X114727208Y-47300000D01*
X114727208Y-47300000D02*
X95527208Y-66500000D01*
G04 #@! TO.N,Net-(J1-Pad15)*
X102727208Y-47300000D02*
X85127208Y-64900000D01*
X104000000Y-47300000D02*
X102727208Y-47300000D01*
X75800000Y-64900000D02*
X55700000Y-85000000D01*
X85127208Y-64900000D02*
X75800000Y-64900000D01*
G04 #@! TO.N,Net-(J1-Pad13)*
X54299999Y-84400001D02*
X53700000Y-85000000D01*
X54299999Y-83727209D02*
X54299999Y-84400001D01*
X90727208Y-47300000D02*
X54299999Y-83727209D01*
X92000000Y-47300000D02*
X90727208Y-47300000D01*
G04 #@! TO.N,Net-(J1-Pad11)*
X52299999Y-84400001D02*
X51700000Y-85000000D01*
X78774999Y-57925001D02*
X52299999Y-84400001D01*
X78774999Y-48525001D02*
X78774999Y-57925001D01*
X80000000Y-47300000D02*
X78774999Y-48525001D01*
G04 #@! TO.N,Net-(J1-Pad9)*
X50299999Y-84400001D02*
X49700000Y-85000000D01*
X61225009Y-73474991D02*
X50299999Y-84400001D01*
X61225009Y-62587993D02*
X61225009Y-73474991D01*
X68000000Y-55813002D02*
X61225009Y-62587993D01*
X68000000Y-47300000D02*
X68000000Y-55813002D01*
G04 #@! TO.N,Net-(J1-Pad7)*
X47700000Y-84151472D02*
X47700000Y-85000000D01*
X47700000Y-64113002D02*
X47700000Y-84151472D01*
X56000000Y-55813002D02*
X47700000Y-64113002D01*
X56000000Y-47300000D02*
X56000000Y-55813002D01*
G04 #@! TO.N,Net-(J1-Pad5)*
X45700000Y-58000000D02*
X45700000Y-85000000D01*
X44000000Y-47300000D02*
X44000000Y-56300000D01*
X44000000Y-56300000D02*
X45700000Y-58000000D01*
G04 #@! TD*
M02*
