M48
;DRILL file {KiCad (5.0.0)} date 02/26/19 18:07:50
;FORMAT={-:-/ absolute / metric / decimal}
FMAT,2
METRIC,TZ
T1C0.950
T2C1.000
%
G90
G05
M71
T1
X124.6Y-79.5
X127.1Y-79.5
X129.6Y-79.5
X132.1Y-79.5
X142.9Y-79.5
X145.4Y-79.5
X147.9Y-79.5
X150.4Y-79.5
T2
X131.16Y-57.3
X131.16Y-70.
X133.7Y-62.38
X151.48Y-57.3
X151.48Y-70.
X154.02Y-62.38
X141.32Y-57.3
X141.32Y-70.
X143.86Y-62.38
X121.Y-57.3
X121.Y-70.
X123.54Y-62.38
T0
M30
