G04 #@! TF.GenerationSoftware,KiCad,Pcbnew,(5.0.0)*
G04 #@! TF.CreationDate,2019-02-26T18:07:47+01:00*
G04 #@! TF.ProjectId,Potentiometer_mount_4LED,506F74656E74696F6D657465725F6D6F,rev?*
G04 #@! TF.SameCoordinates,Original*
G04 #@! TF.FileFunction,Copper,L1,Top,Signal*
G04 #@! TF.FilePolarity,Positive*
%FSLAX46Y46*%
G04 Gerber Fmt 4.6, Leading zero omitted, Abs format (unit mm)*
G04 Created by KiCad (PCBNEW (5.0.0)) date 02/26/19 18:07:47*
%MOMM*%
%LPD*%
G01*
G04 APERTURE LIST*
G04 #@! TA.AperFunction,ComponentPad*
%ADD10R,1.700000X1.950000*%
G04 #@! TD*
G04 #@! TA.AperFunction,ComponentPad*
%ADD11O,1.700000X1.950000*%
G04 #@! TD*
G04 #@! TA.AperFunction,ComponentPad*
%ADD12C,1.800000*%
G04 #@! TD*
G04 #@! TA.AperFunction,Conductor*
%ADD13C,0.250000*%
G04 #@! TD*
G04 APERTURE END LIST*
D10*
G04 #@! TO.P,From Stimlator,1*
G04 #@! TO.N,Net-(J1-Pad1)*
X124600000Y-79500000D03*
D11*
G04 #@! TO.P,From Stimlator,2*
G04 #@! TO.N,Net-(J1-Pad2)*
X127100000Y-79500000D03*
G04 #@! TO.P,From Stimlator,3*
G04 #@! TO.N,Net-(J1-Pad3)*
X129600000Y-79500000D03*
G04 #@! TO.P,From Stimlator,4*
G04 #@! TO.N,Net-(J1-Pad4)*
X132100000Y-79500000D03*
G04 #@! TD*
G04 #@! TO.P,To LED,4*
G04 #@! TO.N,Net-(J2-Pad4)*
X150400000Y-79500000D03*
G04 #@! TO.P,To LED,3*
G04 #@! TO.N,Net-(J2-Pad3)*
X147900000Y-79500000D03*
G04 #@! TO.P,To LED,2*
G04 #@! TO.N,Net-(J2-Pad2)*
X145400000Y-79500000D03*
D10*
G04 #@! TO.P,To LED,1*
G04 #@! TO.N,Net-(J2-Pad1)*
X142900000Y-79500000D03*
G04 #@! TD*
D12*
G04 #@! TO.P,LED 1,3*
G04 #@! TO.N,Net-(J1-Pad1)*
X121000000Y-57300000D03*
G04 #@! TO.P,LED 1,2*
G04 #@! TO.N,Net-(J2-Pad1)*
X123540000Y-62380000D03*
G04 #@! TO.P,LED 1,1*
G04 #@! TO.N,Net-(RV1-Pad1)*
X121000000Y-70000000D03*
G04 #@! TD*
G04 #@! TO.P,LED 2,1*
G04 #@! TO.N,Net-(RV2-Pad1)*
X131160000Y-70000000D03*
G04 #@! TO.P,LED 2,2*
G04 #@! TO.N,Net-(J2-Pad2)*
X133700000Y-62380000D03*
G04 #@! TO.P,LED 2,3*
G04 #@! TO.N,Net-(J1-Pad2)*
X131160000Y-57300000D03*
G04 #@! TD*
G04 #@! TO.P,LED 3,3*
G04 #@! TO.N,Net-(J1-Pad3)*
X141320000Y-57300000D03*
G04 #@! TO.P,LED 3,2*
G04 #@! TO.N,Net-(J2-Pad3)*
X143860000Y-62380000D03*
G04 #@! TO.P,LED 3,1*
G04 #@! TO.N,Net-(RV3-Pad1)*
X141320000Y-70000000D03*
G04 #@! TD*
G04 #@! TO.P,LED 4,1*
G04 #@! TO.N,Net-(RV4-Pad1)*
X151480000Y-70000000D03*
G04 #@! TO.P,LED 4,2*
G04 #@! TO.N,Net-(J2-Pad4)*
X154020000Y-62380000D03*
G04 #@! TO.P,LED 4,3*
G04 #@! TO.N,Net-(J1-Pad4)*
X151480000Y-57300000D03*
G04 #@! TD*
D13*
G04 #@! TO.N,Net-(J1-Pad1)*
X124600000Y-77700000D02*
X124600000Y-79500000D01*
X118700000Y-71800000D02*
X124600000Y-77700000D01*
X121000000Y-57300000D02*
X118700000Y-59600000D01*
X118700000Y-59600000D02*
X118700000Y-71800000D01*
G04 #@! TO.N,Net-(J1-Pad2)*
X127100000Y-61360000D02*
X127100000Y-79500000D01*
X131160000Y-57300000D02*
X127100000Y-61360000D01*
G04 #@! TO.N,Net-(J1-Pad3)*
X140420001Y-58199999D02*
X140400001Y-58199999D01*
X141320000Y-57300000D02*
X140420001Y-58199999D01*
X140400001Y-58199999D02*
X138100000Y-60500000D01*
X138100000Y-60500000D02*
X138100000Y-72000000D01*
X138100000Y-72000000D02*
X135300000Y-74800000D01*
X135300000Y-74800000D02*
X130700000Y-74800000D01*
X129600000Y-75900000D02*
X129600000Y-79500000D01*
X130700000Y-74800000D02*
X129600000Y-75900000D01*
G04 #@! TO.N,Net-(J1-Pad4)*
X132100000Y-79375000D02*
X132100000Y-79500000D01*
X135275000Y-76200000D02*
X132100000Y-79375000D01*
X143100000Y-76200000D02*
X135275000Y-76200000D01*
X148500000Y-70800000D02*
X143100000Y-76200000D01*
X148500000Y-60280000D02*
X148500000Y-70800000D01*
X151480000Y-57300000D02*
X148500000Y-60280000D01*
G04 #@! TD*
M02*
