G04 #@! TF.GenerationSoftware,KiCad,Pcbnew,(5.0.0)*
G04 #@! TF.CreationDate,2020-01-07T20:32:05+00:00*
G04 #@! TF.ProjectId,Potentiometer_mount_8LED,506F74656E74696F6D657465725F6D6F,rev?*
G04 #@! TF.SameCoordinates,Original*
G04 #@! TF.FileFunction,Copper,L2,Bot,Signal*
G04 #@! TF.FilePolarity,Positive*
%FSLAX46Y46*%
G04 Gerber Fmt 4.6, Leading zero omitted, Abs format (unit mm)*
G04 Created by KiCad (PCBNEW (5.0.0)) date 01/07/20 20:32:05*
%MOMM*%
%LPD*%
G01*
G04 APERTURE LIST*
G04 #@! TA.AperFunction,ComponentPad*
%ADD10C,1.800000*%
G04 #@! TD*
G04 #@! TA.AperFunction,ComponentPad*
%ADD11C,1.200000*%
G04 #@! TD*
G04 #@! TA.AperFunction,ComponentPad*
%ADD12R,1.200000X1.200000*%
G04 #@! TD*
G04 #@! TA.AperFunction,Conductor*
%ADD13C,0.250000*%
G04 #@! TD*
G04 #@! TA.AperFunction,NonConductor*
%ADD14C,0.254000*%
G04 #@! TD*
G04 APERTURE END LIST*
D10*
G04 #@! TO.P,LED 8,3*
G04 #@! TO.N,N/C*
X192120000Y-57300000D03*
G04 #@! TO.P,LED 8,2*
X194660000Y-62380000D03*
G04 #@! TO.P,LED 8,1*
X192120000Y-70000000D03*
G04 #@! TD*
G04 #@! TO.P,LED 7,3*
G04 #@! TO.N,N/C*
X181960000Y-57300000D03*
G04 #@! TO.P,LED 7,2*
X184500000Y-62380000D03*
G04 #@! TO.P,LED 7,1*
X181960000Y-70000000D03*
G04 #@! TD*
G04 #@! TO.P,LED 5,3*
G04 #@! TO.N,N/C*
X161800000Y-57300000D03*
G04 #@! TO.P,LED 5,2*
X164340000Y-62380000D03*
G04 #@! TO.P,LED 5,1*
X161800000Y-70000000D03*
G04 #@! TD*
G04 #@! TO.P,LED 6,3*
G04 #@! TO.N,N/C*
X171800000Y-57300000D03*
G04 #@! TO.P,LED 6,2*
X174340000Y-62380000D03*
G04 #@! TO.P,LED 6,1*
X171800000Y-70000000D03*
G04 #@! TD*
D11*
G04 #@! TO.P,To LED,8*
G04 #@! TO.N,N/C*
X174300000Y-89500000D03*
G04 #@! TO.P,To LED,6*
X172300000Y-89500000D03*
G04 #@! TO.P,To LED,4*
X170300000Y-89500000D03*
G04 #@! TO.P,To LED,2*
X168300000Y-89500000D03*
G04 #@! TO.P,To LED,7*
G04 #@! TO.N,Net-(J2-Pad4)*
X174300000Y-87500000D03*
G04 #@! TO.P,To LED,5*
G04 #@! TO.N,Net-(J2-Pad3)*
X172300000Y-87500000D03*
G04 #@! TO.P,To LED,3*
G04 #@! TO.N,Net-(J2-Pad2)*
X170300000Y-87500000D03*
D12*
G04 #@! TO.P,To LED,1*
G04 #@! TO.N,Net-(J2-Pad1)*
X168300000Y-87500000D03*
G04 #@! TD*
D11*
G04 #@! TO.P,From Stimlator,8*
G04 #@! TO.N,N/C*
X148600000Y-89500000D03*
G04 #@! TO.P,From Stimlator,6*
X146600000Y-89500000D03*
G04 #@! TO.P,From Stimlator,4*
X144600000Y-89500000D03*
G04 #@! TO.P,From Stimlator,2*
X142600000Y-89500000D03*
G04 #@! TO.P,From Stimlator,7*
G04 #@! TO.N,Net-(J1-Pad4)*
X148600000Y-87500000D03*
G04 #@! TO.P,From Stimlator,5*
G04 #@! TO.N,Net-(J1-Pad3)*
X146600000Y-87500000D03*
G04 #@! TO.P,From Stimlator,3*
G04 #@! TO.N,Net-(J1-Pad2)*
X144600000Y-87500000D03*
D12*
G04 #@! TO.P,From Stimlator,1*
G04 #@! TO.N,Net-(J1-Pad1)*
X142600000Y-87500000D03*
G04 #@! TD*
D10*
G04 #@! TO.P,LED 1,3*
G04 #@! TO.N,Net-(J1-Pad1)*
X121000000Y-57300000D03*
G04 #@! TO.P,LED 1,2*
G04 #@! TO.N,Net-(J2-Pad1)*
X123540000Y-62380000D03*
G04 #@! TO.P,LED 1,1*
G04 #@! TO.N,Net-(RV1-Pad1)*
X121000000Y-70000000D03*
G04 #@! TD*
G04 #@! TO.P,LED 2,1*
G04 #@! TO.N,Net-(RV2-Pad1)*
X131160000Y-70000000D03*
G04 #@! TO.P,LED 2,2*
G04 #@! TO.N,Net-(J2-Pad2)*
X133700000Y-62380000D03*
G04 #@! TO.P,LED 2,3*
G04 #@! TO.N,Net-(J1-Pad2)*
X131160000Y-57300000D03*
G04 #@! TD*
G04 #@! TO.P,LED 3,3*
G04 #@! TO.N,Net-(J1-Pad3)*
X141320000Y-57300000D03*
G04 #@! TO.P,LED 3,2*
G04 #@! TO.N,Net-(J2-Pad3)*
X143860000Y-62380000D03*
G04 #@! TO.P,LED 3,1*
G04 #@! TO.N,Net-(RV3-Pad1)*
X141320000Y-70000000D03*
G04 #@! TD*
G04 #@! TO.P,LED 4,1*
G04 #@! TO.N,Net-(RV4-Pad1)*
X151480000Y-70000000D03*
G04 #@! TO.P,LED 4,2*
G04 #@! TO.N,Net-(J2-Pad4)*
X154020000Y-62380000D03*
G04 #@! TO.P,LED 4,3*
G04 #@! TO.N,Net-(J1-Pad4)*
X151480000Y-57300000D03*
G04 #@! TD*
D13*
G04 #@! TO.N,*
X194660000Y-63652792D02*
X194700000Y-63692792D01*
X194660000Y-62380000D02*
X194660000Y-63652792D01*
X194700000Y-63692792D02*
X194700000Y-80300000D01*
X185500000Y-89500000D02*
X174300000Y-89500000D01*
X194700000Y-80300000D02*
X185500000Y-89500000D01*
X185772792Y-62380000D02*
X187852792Y-60300000D01*
X184500000Y-62380000D02*
X185772792Y-62380000D01*
X187852792Y-60300000D02*
X195650000Y-60300000D01*
X195650000Y-60300000D02*
X196750000Y-61400000D01*
X196750000Y-61400000D02*
X196750000Y-81450000D01*
X196750000Y-81450000D02*
X186850000Y-91350000D01*
X174150000Y-91350000D02*
X172300000Y-89500000D01*
X186850000Y-91350000D02*
X174150000Y-91350000D01*
X163067208Y-62380000D02*
X164340000Y-62380000D01*
X160737208Y-60050000D02*
X163067208Y-62380000D01*
X121900000Y-60850000D02*
X122700000Y-60050000D01*
X121900000Y-64200000D02*
X121900000Y-60850000D01*
X164600000Y-89500000D02*
X160800000Y-85700000D01*
X168300000Y-89500000D02*
X164600000Y-89500000D01*
X160800000Y-85700000D02*
X139350000Y-85700000D01*
X139350000Y-85700000D02*
X126050000Y-72400000D01*
X126050000Y-72400000D02*
X126050000Y-68350000D01*
X122700000Y-60050000D02*
X160737208Y-60050000D01*
X126050000Y-68350000D02*
X121900000Y-64200000D01*
X167160000Y-55200000D02*
X174340000Y-62380000D01*
X125750000Y-55200000D02*
X167160000Y-55200000D01*
X119800000Y-61150000D02*
X125750000Y-55200000D01*
X170300000Y-90348528D02*
X168548528Y-92100000D01*
X119800000Y-65800000D02*
X119800000Y-61150000D01*
X170300000Y-89500000D02*
X170300000Y-90348528D01*
X168548528Y-92100000D02*
X138250000Y-92100000D01*
X138250000Y-92100000D02*
X123650000Y-77500000D01*
X123650000Y-77500000D02*
X123650000Y-69650000D01*
X123650000Y-69650000D02*
X119800000Y-65800000D01*
G04 #@! TO.N,Net-(J2-Pad4)*
X154020000Y-62380000D02*
X154020000Y-70670000D01*
X154020000Y-70670000D02*
X158800000Y-75450000D01*
X158800000Y-75450000D02*
X165800000Y-75450000D01*
X174300000Y-83950000D02*
X174300000Y-87500000D01*
X165800000Y-75450000D02*
X174300000Y-83950000D01*
G04 #@! TO.N,Net-(J2-Pad3)*
X143860000Y-62380000D02*
X143860000Y-74110000D01*
X143860000Y-74110000D02*
X147450000Y-77700000D01*
X147450000Y-77700000D02*
X164350000Y-77700000D01*
X172300000Y-85650000D02*
X172300000Y-87500000D01*
X164350000Y-77700000D02*
X172300000Y-85650000D01*
G04 #@! TO.N,Net-(J2-Pad2)*
X169700001Y-86900001D02*
X170300000Y-87500000D01*
X163100000Y-80300000D02*
X169700001Y-86900001D01*
X139550000Y-80300000D02*
X163100000Y-80300000D01*
X133700000Y-74450000D02*
X139550000Y-80300000D01*
X133700000Y-62380000D02*
X133700000Y-74450000D01*
G04 #@! TO.N,Net-(J2-Pad1)*
X167450000Y-87500000D02*
X168300000Y-87500000D01*
X123540000Y-62380000D02*
X128210000Y-67050000D01*
X128210000Y-67050000D02*
X128210000Y-70660000D01*
X128210000Y-70660000D02*
X141050000Y-83500000D01*
X163450000Y-83500000D02*
X163700000Y-83750000D01*
X141050000Y-83500000D02*
X163450000Y-83500000D01*
X163550000Y-83600000D02*
X163700000Y-83750000D01*
X163700000Y-83750000D02*
X167450000Y-87500000D01*
G04 #@! TD*
D14*
G36*
X122535000Y-57340198D02*
X122535000Y-56994670D01*
X122301310Y-56430493D01*
X121869507Y-55998690D01*
X121305330Y-55765000D01*
X120694670Y-55765000D01*
X120130493Y-55998690D01*
X119698690Y-56430493D01*
X119465000Y-56994670D01*
X119465000Y-57605330D01*
X119698690Y-58169507D01*
X120130493Y-58601310D01*
X120694670Y-58835000D01*
X121040199Y-58835000D01*
X119315528Y-60559671D01*
X119252072Y-60602071D01*
X119209672Y-60665527D01*
X119209671Y-60665528D01*
X119084097Y-60853463D01*
X119025112Y-61150000D01*
X119040001Y-61224852D01*
X119040000Y-65725153D01*
X119025112Y-65800000D01*
X119040000Y-65874847D01*
X119040000Y-65874851D01*
X119084096Y-66096536D01*
X119252071Y-66347929D01*
X119315530Y-66390331D01*
X121450210Y-68525011D01*
X121305330Y-68465000D01*
X120694670Y-68465000D01*
X120130493Y-68698690D01*
X119698690Y-69130493D01*
X119465000Y-69694670D01*
X119465000Y-70305330D01*
X119698690Y-70869507D01*
X120130493Y-71301310D01*
X120694670Y-71535000D01*
X121305330Y-71535000D01*
X121869507Y-71301310D01*
X122301310Y-70869507D01*
X122535000Y-70305330D01*
X122535000Y-69694670D01*
X122474989Y-69549791D01*
X122890001Y-69964803D01*
X122890000Y-77425153D01*
X122875112Y-77500000D01*
X122890000Y-77574847D01*
X122890000Y-77574851D01*
X122934096Y-77796536D01*
X123102071Y-78047929D01*
X123165530Y-78090331D01*
X137659671Y-92584473D01*
X137702071Y-92647929D01*
X137953463Y-92815904D01*
X138175148Y-92860000D01*
X138175152Y-92860000D01*
X138249999Y-92874888D01*
X138324846Y-92860000D01*
X168473681Y-92860000D01*
X168548528Y-92874888D01*
X168623375Y-92860000D01*
X168623380Y-92860000D01*
X168845065Y-92815904D01*
X169096457Y-92647929D01*
X169138859Y-92584470D01*
X170784476Y-90938855D01*
X170847929Y-90896457D01*
X170890327Y-90833004D01*
X170890329Y-90833002D01*
X171015903Y-90645066D01*
X171015904Y-90645065D01*
X171044314Y-90502239D01*
X171300000Y-90246553D01*
X171600429Y-90546982D01*
X171663033Y-90572914D01*
X171666383Y-90588164D01*
X171862629Y-90655589D01*
X172054343Y-90735000D01*
X172093760Y-90735000D01*
X172131036Y-90747807D01*
X172338134Y-90735000D01*
X172460199Y-90735000D01*
X173559671Y-91834473D01*
X173602071Y-91897929D01*
X173853463Y-92065904D01*
X174075148Y-92110000D01*
X174075152Y-92110000D01*
X174149999Y-92124888D01*
X174224846Y-92110000D01*
X186775153Y-92110000D01*
X186850000Y-92124888D01*
X186924847Y-92110000D01*
X186924852Y-92110000D01*
X187146537Y-92065904D01*
X187397929Y-91897929D01*
X187440331Y-91834470D01*
X197234473Y-82040329D01*
X197265001Y-82019931D01*
X197265001Y-93265000D01*
X118735000Y-93265000D01*
X118735000Y-54735000D01*
X125140198Y-54735000D01*
X122535000Y-57340198D01*
X122535000Y-57340198D01*
G37*
X122535000Y-57340198D02*
X122535000Y-56994670D01*
X122301310Y-56430493D01*
X121869507Y-55998690D01*
X121305330Y-55765000D01*
X120694670Y-55765000D01*
X120130493Y-55998690D01*
X119698690Y-56430493D01*
X119465000Y-56994670D01*
X119465000Y-57605330D01*
X119698690Y-58169507D01*
X120130493Y-58601310D01*
X120694670Y-58835000D01*
X121040199Y-58835000D01*
X119315528Y-60559671D01*
X119252072Y-60602071D01*
X119209672Y-60665527D01*
X119209671Y-60665528D01*
X119084097Y-60853463D01*
X119025112Y-61150000D01*
X119040001Y-61224852D01*
X119040000Y-65725153D01*
X119025112Y-65800000D01*
X119040000Y-65874847D01*
X119040000Y-65874851D01*
X119084096Y-66096536D01*
X119252071Y-66347929D01*
X119315530Y-66390331D01*
X121450210Y-68525011D01*
X121305330Y-68465000D01*
X120694670Y-68465000D01*
X120130493Y-68698690D01*
X119698690Y-69130493D01*
X119465000Y-69694670D01*
X119465000Y-70305330D01*
X119698690Y-70869507D01*
X120130493Y-71301310D01*
X120694670Y-71535000D01*
X121305330Y-71535000D01*
X121869507Y-71301310D01*
X122301310Y-70869507D01*
X122535000Y-70305330D01*
X122535000Y-69694670D01*
X122474989Y-69549791D01*
X122890001Y-69964803D01*
X122890000Y-77425153D01*
X122875112Y-77500000D01*
X122890000Y-77574847D01*
X122890000Y-77574851D01*
X122934096Y-77796536D01*
X123102071Y-78047929D01*
X123165530Y-78090331D01*
X137659671Y-92584473D01*
X137702071Y-92647929D01*
X137953463Y-92815904D01*
X138175148Y-92860000D01*
X138175152Y-92860000D01*
X138249999Y-92874888D01*
X138324846Y-92860000D01*
X168473681Y-92860000D01*
X168548528Y-92874888D01*
X168623375Y-92860000D01*
X168623380Y-92860000D01*
X168845065Y-92815904D01*
X169096457Y-92647929D01*
X169138859Y-92584470D01*
X170784476Y-90938855D01*
X170847929Y-90896457D01*
X170890327Y-90833004D01*
X170890329Y-90833002D01*
X171015903Y-90645066D01*
X171015904Y-90645065D01*
X171044314Y-90502239D01*
X171300000Y-90246553D01*
X171600429Y-90546982D01*
X171663033Y-90572914D01*
X171666383Y-90588164D01*
X171862629Y-90655589D01*
X172054343Y-90735000D01*
X172093760Y-90735000D01*
X172131036Y-90747807D01*
X172338134Y-90735000D01*
X172460199Y-90735000D01*
X173559671Y-91834473D01*
X173602071Y-91897929D01*
X173853463Y-92065904D01*
X174075148Y-92110000D01*
X174075152Y-92110000D01*
X174149999Y-92124888D01*
X174224846Y-92110000D01*
X186775153Y-92110000D01*
X186850000Y-92124888D01*
X186924847Y-92110000D01*
X186924852Y-92110000D01*
X187146537Y-92065904D01*
X187397929Y-91897929D01*
X187440331Y-91834470D01*
X197234473Y-82040329D01*
X197265001Y-82019931D01*
X197265001Y-93265000D01*
X118735000Y-93265000D01*
X118735000Y-54735000D01*
X125140198Y-54735000D01*
X122535000Y-57340198D01*
G36*
X121140001Y-60924852D02*
X121140000Y-64125153D01*
X121125112Y-64200000D01*
X121140000Y-64274847D01*
X121140000Y-64274851D01*
X121184096Y-64496536D01*
X121352071Y-64747929D01*
X121415530Y-64790331D01*
X125290001Y-68664803D01*
X125290000Y-72325153D01*
X125275112Y-72400000D01*
X125290000Y-72474847D01*
X125290000Y-72474851D01*
X125334096Y-72696536D01*
X125502071Y-72947929D01*
X125565530Y-72990331D01*
X138759673Y-86184476D01*
X138802071Y-86247929D01*
X138865524Y-86290327D01*
X138865526Y-86290329D01*
X138957932Y-86352072D01*
X139053463Y-86415904D01*
X139275148Y-86460000D01*
X139275152Y-86460000D01*
X139349999Y-86474888D01*
X139424846Y-86460000D01*
X141530291Y-86460000D01*
X141401843Y-86652235D01*
X141352560Y-86900000D01*
X141352560Y-88100000D01*
X141401843Y-88347765D01*
X141542191Y-88557809D01*
X141694121Y-88659326D01*
X141553018Y-88800429D01*
X141527086Y-88863033D01*
X141511836Y-88866383D01*
X141444411Y-89062629D01*
X141365000Y-89254343D01*
X141365000Y-89293760D01*
X141352193Y-89331036D01*
X141365000Y-89538134D01*
X141365000Y-89745657D01*
X141380085Y-89782076D01*
X141382518Y-89821413D01*
X141511836Y-90133617D01*
X141527086Y-90136967D01*
X141553018Y-90199571D01*
X141900429Y-90546982D01*
X141963033Y-90572914D01*
X141966383Y-90588164D01*
X142162629Y-90655589D01*
X142354343Y-90735000D01*
X142393760Y-90735000D01*
X142431036Y-90747807D01*
X142638134Y-90735000D01*
X142845657Y-90735000D01*
X142882076Y-90719915D01*
X142921413Y-90717482D01*
X143233617Y-90588164D01*
X143236967Y-90572914D01*
X143299571Y-90546982D01*
X143600000Y-90246553D01*
X143900429Y-90546982D01*
X143963033Y-90572914D01*
X143966383Y-90588164D01*
X144162629Y-90655589D01*
X144354343Y-90735000D01*
X144393760Y-90735000D01*
X144431036Y-90747807D01*
X144638134Y-90735000D01*
X144845657Y-90735000D01*
X144882076Y-90719915D01*
X144921413Y-90717482D01*
X145233617Y-90588164D01*
X145236967Y-90572914D01*
X145299571Y-90546982D01*
X145600000Y-90246553D01*
X145900429Y-90546982D01*
X145963033Y-90572914D01*
X145966383Y-90588164D01*
X146162629Y-90655589D01*
X146354343Y-90735000D01*
X146393760Y-90735000D01*
X146431036Y-90747807D01*
X146638134Y-90735000D01*
X146845657Y-90735000D01*
X146882076Y-90719915D01*
X146921413Y-90717482D01*
X147233617Y-90588164D01*
X147236967Y-90572914D01*
X147299571Y-90546982D01*
X147600000Y-90246553D01*
X147900429Y-90546982D01*
X147963033Y-90572914D01*
X147966383Y-90588164D01*
X148162629Y-90655589D01*
X148354343Y-90735000D01*
X148393760Y-90735000D01*
X148431036Y-90747807D01*
X148638134Y-90735000D01*
X148845657Y-90735000D01*
X148882076Y-90719915D01*
X148921413Y-90717482D01*
X149233617Y-90588164D01*
X149236967Y-90572914D01*
X149299571Y-90546982D01*
X149646982Y-90199571D01*
X149672914Y-90136967D01*
X149688164Y-90133617D01*
X149755589Y-89937371D01*
X149835000Y-89745657D01*
X149835000Y-89706240D01*
X149847807Y-89668964D01*
X149835000Y-89461866D01*
X149835000Y-89254343D01*
X149819915Y-89217924D01*
X149817482Y-89178587D01*
X149688164Y-88866383D01*
X149672914Y-88863033D01*
X149646982Y-88800429D01*
X149346553Y-88500000D01*
X149646982Y-88199571D01*
X149835000Y-87745657D01*
X149835000Y-87254343D01*
X149646982Y-86800429D01*
X149306553Y-86460000D01*
X160485199Y-86460000D01*
X164009670Y-89984472D01*
X164052071Y-90047929D01*
X164303463Y-90215904D01*
X164525148Y-90260000D01*
X164525152Y-90260000D01*
X164600000Y-90274888D01*
X164674848Y-90260000D01*
X167313447Y-90260000D01*
X167600429Y-90546982D01*
X167663033Y-90572914D01*
X167666383Y-90588164D01*
X167862629Y-90655589D01*
X168054343Y-90735000D01*
X168093760Y-90735000D01*
X168131036Y-90747807D01*
X168338134Y-90735000D01*
X168545657Y-90735000D01*
X168582076Y-90719915D01*
X168621413Y-90717482D01*
X168933617Y-90588164D01*
X168936967Y-90572914D01*
X168999571Y-90546982D01*
X169300000Y-90246553D01*
X169313586Y-90260139D01*
X168233727Y-91340000D01*
X138564802Y-91340000D01*
X124410000Y-77185199D01*
X124410000Y-69724846D01*
X124424888Y-69649999D01*
X124410000Y-69575152D01*
X124410000Y-69575148D01*
X124365904Y-69353463D01*
X124197929Y-69102071D01*
X124134473Y-69059671D01*
X120560000Y-65485199D01*
X120560000Y-61464801D01*
X121133356Y-60891445D01*
X121140001Y-60924852D01*
X121140001Y-60924852D01*
G37*
X121140001Y-60924852D02*
X121140000Y-64125153D01*
X121125112Y-64200000D01*
X121140000Y-64274847D01*
X121140000Y-64274851D01*
X121184096Y-64496536D01*
X121352071Y-64747929D01*
X121415530Y-64790331D01*
X125290001Y-68664803D01*
X125290000Y-72325153D01*
X125275112Y-72400000D01*
X125290000Y-72474847D01*
X125290000Y-72474851D01*
X125334096Y-72696536D01*
X125502071Y-72947929D01*
X125565530Y-72990331D01*
X138759673Y-86184476D01*
X138802071Y-86247929D01*
X138865524Y-86290327D01*
X138865526Y-86290329D01*
X138957932Y-86352072D01*
X139053463Y-86415904D01*
X139275148Y-86460000D01*
X139275152Y-86460000D01*
X139349999Y-86474888D01*
X139424846Y-86460000D01*
X141530291Y-86460000D01*
X141401843Y-86652235D01*
X141352560Y-86900000D01*
X141352560Y-88100000D01*
X141401843Y-88347765D01*
X141542191Y-88557809D01*
X141694121Y-88659326D01*
X141553018Y-88800429D01*
X141527086Y-88863033D01*
X141511836Y-88866383D01*
X141444411Y-89062629D01*
X141365000Y-89254343D01*
X141365000Y-89293760D01*
X141352193Y-89331036D01*
X141365000Y-89538134D01*
X141365000Y-89745657D01*
X141380085Y-89782076D01*
X141382518Y-89821413D01*
X141511836Y-90133617D01*
X141527086Y-90136967D01*
X141553018Y-90199571D01*
X141900429Y-90546982D01*
X141963033Y-90572914D01*
X141966383Y-90588164D01*
X142162629Y-90655589D01*
X142354343Y-90735000D01*
X142393760Y-90735000D01*
X142431036Y-90747807D01*
X142638134Y-90735000D01*
X142845657Y-90735000D01*
X142882076Y-90719915D01*
X142921413Y-90717482D01*
X143233617Y-90588164D01*
X143236967Y-90572914D01*
X143299571Y-90546982D01*
X143600000Y-90246553D01*
X143900429Y-90546982D01*
X143963033Y-90572914D01*
X143966383Y-90588164D01*
X144162629Y-90655589D01*
X144354343Y-90735000D01*
X144393760Y-90735000D01*
X144431036Y-90747807D01*
X144638134Y-90735000D01*
X144845657Y-90735000D01*
X144882076Y-90719915D01*
X144921413Y-90717482D01*
X145233617Y-90588164D01*
X145236967Y-90572914D01*
X145299571Y-90546982D01*
X145600000Y-90246553D01*
X145900429Y-90546982D01*
X145963033Y-90572914D01*
X145966383Y-90588164D01*
X146162629Y-90655589D01*
X146354343Y-90735000D01*
X146393760Y-90735000D01*
X146431036Y-90747807D01*
X146638134Y-90735000D01*
X146845657Y-90735000D01*
X146882076Y-90719915D01*
X146921413Y-90717482D01*
X147233617Y-90588164D01*
X147236967Y-90572914D01*
X147299571Y-90546982D01*
X147600000Y-90246553D01*
X147900429Y-90546982D01*
X147963033Y-90572914D01*
X147966383Y-90588164D01*
X148162629Y-90655589D01*
X148354343Y-90735000D01*
X148393760Y-90735000D01*
X148431036Y-90747807D01*
X148638134Y-90735000D01*
X148845657Y-90735000D01*
X148882076Y-90719915D01*
X148921413Y-90717482D01*
X149233617Y-90588164D01*
X149236967Y-90572914D01*
X149299571Y-90546982D01*
X149646982Y-90199571D01*
X149672914Y-90136967D01*
X149688164Y-90133617D01*
X149755589Y-89937371D01*
X149835000Y-89745657D01*
X149835000Y-89706240D01*
X149847807Y-89668964D01*
X149835000Y-89461866D01*
X149835000Y-89254343D01*
X149819915Y-89217924D01*
X149817482Y-89178587D01*
X149688164Y-88866383D01*
X149672914Y-88863033D01*
X149646982Y-88800429D01*
X149346553Y-88500000D01*
X149646982Y-88199571D01*
X149835000Y-87745657D01*
X149835000Y-87254343D01*
X149646982Y-86800429D01*
X149306553Y-86460000D01*
X160485199Y-86460000D01*
X164009670Y-89984472D01*
X164052071Y-90047929D01*
X164303463Y-90215904D01*
X164525148Y-90260000D01*
X164525152Y-90260000D01*
X164600000Y-90274888D01*
X164674848Y-90260000D01*
X167313447Y-90260000D01*
X167600429Y-90546982D01*
X167663033Y-90572914D01*
X167666383Y-90588164D01*
X167862629Y-90655589D01*
X168054343Y-90735000D01*
X168093760Y-90735000D01*
X168131036Y-90747807D01*
X168338134Y-90735000D01*
X168545657Y-90735000D01*
X168582076Y-90719915D01*
X168621413Y-90717482D01*
X168933617Y-90588164D01*
X168936967Y-90572914D01*
X168999571Y-90546982D01*
X169300000Y-90246553D01*
X169313586Y-90260139D01*
X168233727Y-91340000D01*
X138564802Y-91340000D01*
X124410000Y-77185199D01*
X124410000Y-69724846D01*
X124424888Y-69649999D01*
X124410000Y-69575152D01*
X124410000Y-69575148D01*
X124365904Y-69353463D01*
X124197929Y-69102071D01*
X124134473Y-69059671D01*
X120560000Y-65485199D01*
X120560000Y-61464801D01*
X121133356Y-60891445D01*
X121140001Y-60924852D01*
G36*
X195990001Y-81135197D02*
X186535199Y-90590000D01*
X174929184Y-90590000D01*
X174933617Y-90588164D01*
X174936967Y-90572914D01*
X174999571Y-90546982D01*
X175286553Y-90260000D01*
X185425153Y-90260000D01*
X185500000Y-90274888D01*
X185574847Y-90260000D01*
X185574852Y-90260000D01*
X185796537Y-90215904D01*
X186047929Y-90047929D01*
X186090331Y-89984470D01*
X195184473Y-80890329D01*
X195247929Y-80847929D01*
X195363402Y-80675112D01*
X195415904Y-80596538D01*
X195425480Y-80548395D01*
X195460000Y-80374852D01*
X195460000Y-80374848D01*
X195474888Y-80300000D01*
X195460000Y-80225152D01*
X195460000Y-63767640D01*
X195469784Y-63718451D01*
X195474148Y-63716643D01*
X195479004Y-63702229D01*
X195529507Y-63681310D01*
X195961310Y-63249507D01*
X195982229Y-63199004D01*
X195990000Y-63196386D01*
X195990001Y-81135197D01*
X195990001Y-81135197D01*
G37*
X195990001Y-81135197D02*
X186535199Y-90590000D01*
X174929184Y-90590000D01*
X174933617Y-90588164D01*
X174936967Y-90572914D01*
X174999571Y-90546982D01*
X175286553Y-90260000D01*
X185425153Y-90260000D01*
X185500000Y-90274888D01*
X185574847Y-90260000D01*
X185574852Y-90260000D01*
X185796537Y-90215904D01*
X186047929Y-90047929D01*
X186090331Y-89984470D01*
X195184473Y-80890329D01*
X195247929Y-80847929D01*
X195363402Y-80675112D01*
X195415904Y-80596538D01*
X195425480Y-80548395D01*
X195460000Y-80374852D01*
X195460000Y-80374848D01*
X195474888Y-80300000D01*
X195460000Y-80225152D01*
X195460000Y-63767640D01*
X195469784Y-63718451D01*
X195474148Y-63716643D01*
X195479004Y-63702229D01*
X195529507Y-63681310D01*
X195961310Y-63249507D01*
X195982229Y-63199004D01*
X195990000Y-63196386D01*
X195990001Y-81135197D01*
G36*
X169553447Y-88500000D02*
X169300000Y-88753447D01*
X169205879Y-88659326D01*
X169357809Y-88557809D01*
X169459326Y-88405879D01*
X169553447Y-88500000D01*
X169553447Y-88500000D01*
G37*
X169553447Y-88500000D02*
X169300000Y-88753447D01*
X169205879Y-88659326D01*
X169357809Y-88557809D01*
X169459326Y-88405879D01*
X169553447Y-88500000D01*
G36*
X147853447Y-88500000D02*
X147600000Y-88753447D01*
X147346553Y-88500000D01*
X147600000Y-88246553D01*
X147853447Y-88500000D01*
X147853447Y-88500000D01*
G37*
X147853447Y-88500000D02*
X147600000Y-88753447D01*
X147346553Y-88500000D01*
X147600000Y-88246553D01*
X147853447Y-88500000D01*
G36*
X173553447Y-88500000D02*
X173300000Y-88753447D01*
X173046553Y-88500000D01*
X173300000Y-88246553D01*
X173553447Y-88500000D01*
X173553447Y-88500000D01*
G37*
X173553447Y-88500000D02*
X173300000Y-88753447D01*
X173046553Y-88500000D01*
X173300000Y-88246553D01*
X173553447Y-88500000D01*
G36*
X171553447Y-88500000D02*
X171300000Y-88753447D01*
X171046553Y-88500000D01*
X171300000Y-88246553D01*
X171553447Y-88500000D01*
X171553447Y-88500000D01*
G37*
X171553447Y-88500000D02*
X171300000Y-88753447D01*
X171046553Y-88500000D01*
X171300000Y-88246553D01*
X171553447Y-88500000D01*
G36*
X145853447Y-88500000D02*
X145600000Y-88753447D01*
X145346553Y-88500000D01*
X145600000Y-88246553D01*
X145853447Y-88500000D01*
X145853447Y-88500000D01*
G37*
X145853447Y-88500000D02*
X145600000Y-88753447D01*
X145346553Y-88500000D01*
X145600000Y-88246553D01*
X145853447Y-88500000D01*
G36*
X143853447Y-88500000D02*
X143600000Y-88753447D01*
X143505879Y-88659326D01*
X143657809Y-88557809D01*
X143759326Y-88405879D01*
X143853447Y-88500000D01*
X143853447Y-88500000D01*
G37*
X143853447Y-88500000D02*
X143600000Y-88753447D01*
X143505879Y-88659326D01*
X143657809Y-88557809D01*
X143759326Y-88405879D01*
X143853447Y-88500000D01*
G36*
X122670493Y-63681310D02*
X123234670Y-63915000D01*
X123845330Y-63915000D01*
X123954839Y-63869640D01*
X127450000Y-67364803D01*
X127450001Y-70585148D01*
X127435112Y-70660000D01*
X127494097Y-70956537D01*
X127576699Y-71080159D01*
X127662072Y-71207929D01*
X127725528Y-71250329D01*
X140459670Y-83984472D01*
X140502071Y-84047929D01*
X140753463Y-84215904D01*
X140975148Y-84260000D01*
X140975152Y-84260000D01*
X141049999Y-84274888D01*
X141124846Y-84260000D01*
X163135198Y-84260000D01*
X163215527Y-84340329D01*
X163215530Y-84340331D01*
X166859671Y-87984473D01*
X166902071Y-88047929D01*
X167063682Y-88155914D01*
X167101843Y-88347765D01*
X167242191Y-88557809D01*
X167394121Y-88659326D01*
X167313447Y-88740000D01*
X164914802Y-88740000D01*
X161390331Y-85215530D01*
X161347929Y-85152071D01*
X161096537Y-84984096D01*
X160874852Y-84940000D01*
X160874847Y-84940000D01*
X160800000Y-84925112D01*
X160725153Y-84940000D01*
X139664803Y-84940000D01*
X126810000Y-72085199D01*
X126810000Y-68424846D01*
X126824888Y-68349999D01*
X126810000Y-68275152D01*
X126810000Y-68275148D01*
X126765904Y-68053463D01*
X126597929Y-67802071D01*
X126534473Y-67759671D01*
X122660000Y-63885199D01*
X122660000Y-63670817D01*
X122670493Y-63681310D01*
X122670493Y-63681310D01*
G37*
X122670493Y-63681310D02*
X123234670Y-63915000D01*
X123845330Y-63915000D01*
X123954839Y-63869640D01*
X127450000Y-67364803D01*
X127450001Y-70585148D01*
X127435112Y-70660000D01*
X127494097Y-70956537D01*
X127576699Y-71080159D01*
X127662072Y-71207929D01*
X127725528Y-71250329D01*
X140459670Y-83984472D01*
X140502071Y-84047929D01*
X140753463Y-84215904D01*
X140975148Y-84260000D01*
X140975152Y-84260000D01*
X141049999Y-84274888D01*
X141124846Y-84260000D01*
X163135198Y-84260000D01*
X163215527Y-84340329D01*
X163215530Y-84340331D01*
X166859671Y-87984473D01*
X166902071Y-88047929D01*
X167063682Y-88155914D01*
X167101843Y-88347765D01*
X167242191Y-88557809D01*
X167394121Y-88659326D01*
X167313447Y-88740000D01*
X164914802Y-88740000D01*
X161390331Y-85215530D01*
X161347929Y-85152071D01*
X161096537Y-84984096D01*
X160874852Y-84940000D01*
X160874847Y-84940000D01*
X160800000Y-84925112D01*
X160725153Y-84940000D01*
X139664803Y-84940000D01*
X126810000Y-72085199D01*
X126810000Y-68424846D01*
X126824888Y-68349999D01*
X126810000Y-68275152D01*
X126810000Y-68275148D01*
X126765904Y-68053463D01*
X126597929Y-67802071D01*
X126534473Y-67759671D01*
X122660000Y-63885199D01*
X122660000Y-63670817D01*
X122670493Y-63681310D01*
G36*
X197265000Y-60830069D02*
X197234473Y-60809671D01*
X196240331Y-59815530D01*
X196197929Y-59752071D01*
X195946537Y-59584096D01*
X195724852Y-59540000D01*
X195724847Y-59540000D01*
X195650000Y-59525112D01*
X195575153Y-59540000D01*
X187927638Y-59540000D01*
X187852791Y-59525112D01*
X187777944Y-59540000D01*
X187777940Y-59540000D01*
X187556255Y-59584096D01*
X187304863Y-59752071D01*
X187262463Y-59815527D01*
X185684404Y-61393587D01*
X185369507Y-61078690D01*
X185319004Y-61057771D01*
X185314148Y-61043357D01*
X185057652Y-60949515D01*
X184805330Y-60845000D01*
X184771982Y-60845000D01*
X184740664Y-60833542D01*
X184467788Y-60845000D01*
X184194670Y-60845000D01*
X184163860Y-60857762D01*
X184130540Y-60859161D01*
X183685852Y-61043357D01*
X183680996Y-61057771D01*
X183630493Y-61078690D01*
X183198690Y-61510493D01*
X183177771Y-61560996D01*
X183163357Y-61565852D01*
X183069515Y-61822348D01*
X182965000Y-62074670D01*
X182965000Y-62108018D01*
X182953542Y-62139336D01*
X182965000Y-62412212D01*
X182965000Y-62685330D01*
X182977762Y-62716140D01*
X182979161Y-62749460D01*
X183163357Y-63194148D01*
X183177771Y-63199004D01*
X183198690Y-63249507D01*
X183630493Y-63681310D01*
X183680996Y-63702229D01*
X183685852Y-63716643D01*
X183942348Y-63810485D01*
X184194670Y-63915000D01*
X184228018Y-63915000D01*
X184259336Y-63926458D01*
X184532212Y-63915000D01*
X184805330Y-63915000D01*
X184836140Y-63902238D01*
X184869460Y-63900839D01*
X185314148Y-63716643D01*
X185319004Y-63702229D01*
X185369507Y-63681310D01*
X185801310Y-63249507D01*
X185822229Y-63199004D01*
X185836643Y-63194148D01*
X185857145Y-63138110D01*
X186069329Y-63095904D01*
X186320721Y-62927929D01*
X186363123Y-62864470D01*
X188167594Y-61060000D01*
X193835615Y-61060000D01*
X193790493Y-61078690D01*
X193358690Y-61510493D01*
X193337771Y-61560996D01*
X193323357Y-61565852D01*
X193229515Y-61822348D01*
X193125000Y-62074670D01*
X193125000Y-62108018D01*
X193113542Y-62139336D01*
X193125000Y-62412212D01*
X193125000Y-62685330D01*
X193137762Y-62716140D01*
X193139161Y-62749460D01*
X193323357Y-63194148D01*
X193337771Y-63199004D01*
X193358690Y-63249507D01*
X193790493Y-63681310D01*
X193840996Y-63702229D01*
X193845852Y-63716643D01*
X193901891Y-63737145D01*
X193940000Y-63928732D01*
X193940001Y-79985197D01*
X185185199Y-88740000D01*
X175286553Y-88740000D01*
X175046553Y-88500000D01*
X175346982Y-88199571D01*
X175535000Y-87745657D01*
X175535000Y-87254343D01*
X175346982Y-86800429D01*
X175060000Y-86513447D01*
X175060000Y-84024846D01*
X175074888Y-83949999D01*
X175060000Y-83875152D01*
X175060000Y-83875148D01*
X175015904Y-83653463D01*
X174847929Y-83402071D01*
X174784473Y-83359671D01*
X166390331Y-74965530D01*
X166347929Y-74902071D01*
X166096537Y-74734096D01*
X165874852Y-74690000D01*
X165874847Y-74690000D01*
X165800000Y-74675112D01*
X165725153Y-74690000D01*
X159114802Y-74690000D01*
X154780000Y-70355199D01*
X154780000Y-69759336D01*
X160253542Y-69759336D01*
X160265000Y-70032212D01*
X160265000Y-70305330D01*
X160277762Y-70336140D01*
X160279161Y-70369460D01*
X160463357Y-70814148D01*
X160477771Y-70819004D01*
X160498690Y-70869507D01*
X160930493Y-71301310D01*
X160980996Y-71322229D01*
X160985852Y-71336643D01*
X161242348Y-71430485D01*
X161494670Y-71535000D01*
X161528018Y-71535000D01*
X161559336Y-71546458D01*
X161832212Y-71535000D01*
X162105330Y-71535000D01*
X162136140Y-71522238D01*
X162169460Y-71520839D01*
X162614148Y-71336643D01*
X162619004Y-71322229D01*
X162669507Y-71301310D01*
X163101310Y-70869507D01*
X163122229Y-70819004D01*
X163136643Y-70814148D01*
X163230485Y-70557652D01*
X163335000Y-70305330D01*
X163335000Y-70271982D01*
X163346458Y-70240664D01*
X163335000Y-69967788D01*
X163335000Y-69759336D01*
X170253542Y-69759336D01*
X170265000Y-70032212D01*
X170265000Y-70305330D01*
X170277762Y-70336140D01*
X170279161Y-70369460D01*
X170463357Y-70814148D01*
X170477771Y-70819004D01*
X170498690Y-70869507D01*
X170930493Y-71301310D01*
X170980996Y-71322229D01*
X170985852Y-71336643D01*
X171242348Y-71430485D01*
X171494670Y-71535000D01*
X171528018Y-71535000D01*
X171559336Y-71546458D01*
X171832212Y-71535000D01*
X172105330Y-71535000D01*
X172136140Y-71522238D01*
X172169460Y-71520839D01*
X172614148Y-71336643D01*
X172619004Y-71322229D01*
X172669507Y-71301310D01*
X173101310Y-70869507D01*
X173122229Y-70819004D01*
X173136643Y-70814148D01*
X173230485Y-70557652D01*
X173335000Y-70305330D01*
X173335000Y-70271982D01*
X173346458Y-70240664D01*
X173335000Y-69967788D01*
X173335000Y-69759336D01*
X180413542Y-69759336D01*
X180425000Y-70032212D01*
X180425000Y-70305330D01*
X180437762Y-70336140D01*
X180439161Y-70369460D01*
X180623357Y-70814148D01*
X180637771Y-70819004D01*
X180658690Y-70869507D01*
X181090493Y-71301310D01*
X181140996Y-71322229D01*
X181145852Y-71336643D01*
X181402348Y-71430485D01*
X181654670Y-71535000D01*
X181688018Y-71535000D01*
X181719336Y-71546458D01*
X181992212Y-71535000D01*
X182265330Y-71535000D01*
X182296140Y-71522238D01*
X182329460Y-71520839D01*
X182774148Y-71336643D01*
X182779004Y-71322229D01*
X182829507Y-71301310D01*
X183261310Y-70869507D01*
X183282229Y-70819004D01*
X183296643Y-70814148D01*
X183390485Y-70557652D01*
X183495000Y-70305330D01*
X183495000Y-70271982D01*
X183506458Y-70240664D01*
X183495000Y-69967788D01*
X183495000Y-69759336D01*
X190573542Y-69759336D01*
X190585000Y-70032212D01*
X190585000Y-70305330D01*
X190597762Y-70336140D01*
X190599161Y-70369460D01*
X190783357Y-70814148D01*
X190797771Y-70819004D01*
X190818690Y-70869507D01*
X191250493Y-71301310D01*
X191300996Y-71322229D01*
X191305852Y-71336643D01*
X191562348Y-71430485D01*
X191814670Y-71535000D01*
X191848018Y-71535000D01*
X191879336Y-71546458D01*
X192152212Y-71535000D01*
X192425330Y-71535000D01*
X192456140Y-71522238D01*
X192489460Y-71520839D01*
X192934148Y-71336643D01*
X192939004Y-71322229D01*
X192989507Y-71301310D01*
X193421310Y-70869507D01*
X193442229Y-70819004D01*
X193456643Y-70814148D01*
X193550485Y-70557652D01*
X193655000Y-70305330D01*
X193655000Y-70271982D01*
X193666458Y-70240664D01*
X193655000Y-69967788D01*
X193655000Y-69694670D01*
X193642238Y-69663860D01*
X193640839Y-69630540D01*
X193456643Y-69185852D01*
X193442229Y-69180996D01*
X193421310Y-69130493D01*
X192989507Y-68698690D01*
X192939004Y-68677771D01*
X192934148Y-68663357D01*
X192677652Y-68569515D01*
X192425330Y-68465000D01*
X192391982Y-68465000D01*
X192360664Y-68453542D01*
X192087788Y-68465000D01*
X191814670Y-68465000D01*
X191783860Y-68477762D01*
X191750540Y-68479161D01*
X191305852Y-68663357D01*
X191300996Y-68677771D01*
X191250493Y-68698690D01*
X190818690Y-69130493D01*
X190797771Y-69180996D01*
X190783357Y-69185852D01*
X190689515Y-69442348D01*
X190585000Y-69694670D01*
X190585000Y-69728018D01*
X190573542Y-69759336D01*
X183495000Y-69759336D01*
X183495000Y-69694670D01*
X183482238Y-69663860D01*
X183480839Y-69630540D01*
X183296643Y-69185852D01*
X183282229Y-69180996D01*
X183261310Y-69130493D01*
X182829507Y-68698690D01*
X182779004Y-68677771D01*
X182774148Y-68663357D01*
X182517652Y-68569515D01*
X182265330Y-68465000D01*
X182231982Y-68465000D01*
X182200664Y-68453542D01*
X181927788Y-68465000D01*
X181654670Y-68465000D01*
X181623860Y-68477762D01*
X181590540Y-68479161D01*
X181145852Y-68663357D01*
X181140996Y-68677771D01*
X181090493Y-68698690D01*
X180658690Y-69130493D01*
X180637771Y-69180996D01*
X180623357Y-69185852D01*
X180529515Y-69442348D01*
X180425000Y-69694670D01*
X180425000Y-69728018D01*
X180413542Y-69759336D01*
X173335000Y-69759336D01*
X173335000Y-69694670D01*
X173322238Y-69663860D01*
X173320839Y-69630540D01*
X173136643Y-69185852D01*
X173122229Y-69180996D01*
X173101310Y-69130493D01*
X172669507Y-68698690D01*
X172619004Y-68677771D01*
X172614148Y-68663357D01*
X172357652Y-68569515D01*
X172105330Y-68465000D01*
X172071982Y-68465000D01*
X172040664Y-68453542D01*
X171767788Y-68465000D01*
X171494670Y-68465000D01*
X171463860Y-68477762D01*
X171430540Y-68479161D01*
X170985852Y-68663357D01*
X170980996Y-68677771D01*
X170930493Y-68698690D01*
X170498690Y-69130493D01*
X170477771Y-69180996D01*
X170463357Y-69185852D01*
X170369515Y-69442348D01*
X170265000Y-69694670D01*
X170265000Y-69728018D01*
X170253542Y-69759336D01*
X163335000Y-69759336D01*
X163335000Y-69694670D01*
X163322238Y-69663860D01*
X163320839Y-69630540D01*
X163136643Y-69185852D01*
X163122229Y-69180996D01*
X163101310Y-69130493D01*
X162669507Y-68698690D01*
X162619004Y-68677771D01*
X162614148Y-68663357D01*
X162357652Y-68569515D01*
X162105330Y-68465000D01*
X162071982Y-68465000D01*
X162040664Y-68453542D01*
X161767788Y-68465000D01*
X161494670Y-68465000D01*
X161463860Y-68477762D01*
X161430540Y-68479161D01*
X160985852Y-68663357D01*
X160980996Y-68677771D01*
X160930493Y-68698690D01*
X160498690Y-69130493D01*
X160477771Y-69180996D01*
X160463357Y-69185852D01*
X160369515Y-69442348D01*
X160265000Y-69694670D01*
X160265000Y-69728018D01*
X160253542Y-69759336D01*
X154780000Y-69759336D01*
X154780000Y-63726669D01*
X154889507Y-63681310D01*
X155321310Y-63249507D01*
X155555000Y-62685330D01*
X155555000Y-62074670D01*
X155321310Y-61510493D01*
X154889507Y-61078690D01*
X154325330Y-60845000D01*
X153714670Y-60845000D01*
X153150493Y-61078690D01*
X152718690Y-61510493D01*
X152485000Y-62074670D01*
X152485000Y-62685330D01*
X152718690Y-63249507D01*
X153150493Y-63681310D01*
X153260000Y-63726669D01*
X153260001Y-70595148D01*
X153245112Y-70670000D01*
X153304097Y-70966537D01*
X153422990Y-71144472D01*
X153472072Y-71217929D01*
X153535528Y-71260329D01*
X158209670Y-75934472D01*
X158252071Y-75997929D01*
X158315527Y-76040329D01*
X158503462Y-76165904D01*
X158551605Y-76175480D01*
X158725148Y-76210000D01*
X158725152Y-76210000D01*
X158800000Y-76224888D01*
X158874848Y-76210000D01*
X165485199Y-76210000D01*
X173540000Y-84264802D01*
X173540001Y-86513446D01*
X173300000Y-86753447D01*
X173060000Y-86513447D01*
X173060000Y-85724848D01*
X173074888Y-85650000D01*
X173060000Y-85575152D01*
X173060000Y-85575148D01*
X173015904Y-85353463D01*
X173015904Y-85353462D01*
X172890329Y-85165527D01*
X172847929Y-85102071D01*
X172784473Y-85059671D01*
X164940331Y-77215530D01*
X164897929Y-77152071D01*
X164646537Y-76984096D01*
X164424852Y-76940000D01*
X164424847Y-76940000D01*
X164350000Y-76925112D01*
X164275153Y-76940000D01*
X147764802Y-76940000D01*
X144620000Y-73795199D01*
X144620000Y-69694670D01*
X149945000Y-69694670D01*
X149945000Y-70305330D01*
X150178690Y-70869507D01*
X150610493Y-71301310D01*
X151174670Y-71535000D01*
X151785330Y-71535000D01*
X152349507Y-71301310D01*
X152781310Y-70869507D01*
X153015000Y-70305330D01*
X153015000Y-69694670D01*
X152781310Y-69130493D01*
X152349507Y-68698690D01*
X151785330Y-68465000D01*
X151174670Y-68465000D01*
X150610493Y-68698690D01*
X150178690Y-69130493D01*
X149945000Y-69694670D01*
X144620000Y-69694670D01*
X144620000Y-63726669D01*
X144729507Y-63681310D01*
X145161310Y-63249507D01*
X145395000Y-62685330D01*
X145395000Y-62074670D01*
X145161310Y-61510493D01*
X144729507Y-61078690D01*
X144165330Y-60845000D01*
X143554670Y-60845000D01*
X142990493Y-61078690D01*
X142558690Y-61510493D01*
X142325000Y-62074670D01*
X142325000Y-62685330D01*
X142558690Y-63249507D01*
X142990493Y-63681310D01*
X143100000Y-63726669D01*
X143100001Y-74035148D01*
X143085112Y-74110000D01*
X143144097Y-74406537D01*
X143223153Y-74524852D01*
X143312072Y-74657929D01*
X143375528Y-74700329D01*
X146859670Y-78184472D01*
X146902071Y-78247929D01*
X146965527Y-78290329D01*
X147153462Y-78415904D01*
X147201605Y-78425480D01*
X147375148Y-78460000D01*
X147375152Y-78460000D01*
X147450000Y-78474888D01*
X147524848Y-78460000D01*
X164035199Y-78460000D01*
X171540000Y-85964802D01*
X171540000Y-86513447D01*
X171300000Y-86753447D01*
X170999571Y-86453018D01*
X170545657Y-86265000D01*
X170139802Y-86265000D01*
X163690331Y-79815530D01*
X163647929Y-79752071D01*
X163396537Y-79584096D01*
X163174852Y-79540000D01*
X163174847Y-79540000D01*
X163100000Y-79525112D01*
X163025153Y-79540000D01*
X139864803Y-79540000D01*
X134460000Y-74135199D01*
X134460000Y-69694670D01*
X139785000Y-69694670D01*
X139785000Y-70305330D01*
X140018690Y-70869507D01*
X140450493Y-71301310D01*
X141014670Y-71535000D01*
X141625330Y-71535000D01*
X142189507Y-71301310D01*
X142621310Y-70869507D01*
X142855000Y-70305330D01*
X142855000Y-69694670D01*
X142621310Y-69130493D01*
X142189507Y-68698690D01*
X141625330Y-68465000D01*
X141014670Y-68465000D01*
X140450493Y-68698690D01*
X140018690Y-69130493D01*
X139785000Y-69694670D01*
X134460000Y-69694670D01*
X134460000Y-63726669D01*
X134569507Y-63681310D01*
X135001310Y-63249507D01*
X135235000Y-62685330D01*
X135235000Y-62074670D01*
X135001310Y-61510493D01*
X134569507Y-61078690D01*
X134005330Y-60845000D01*
X133394670Y-60845000D01*
X132830493Y-61078690D01*
X132398690Y-61510493D01*
X132165000Y-62074670D01*
X132165000Y-62685330D01*
X132398690Y-63249507D01*
X132830493Y-63681310D01*
X132940000Y-63726669D01*
X132940001Y-74315200D01*
X128970000Y-70345199D01*
X128970000Y-69694670D01*
X129625000Y-69694670D01*
X129625000Y-70305330D01*
X129858690Y-70869507D01*
X130290493Y-71301310D01*
X130854670Y-71535000D01*
X131465330Y-71535000D01*
X132029507Y-71301310D01*
X132461310Y-70869507D01*
X132695000Y-70305330D01*
X132695000Y-69694670D01*
X132461310Y-69130493D01*
X132029507Y-68698690D01*
X131465330Y-68465000D01*
X130854670Y-68465000D01*
X130290493Y-68698690D01*
X129858690Y-69130493D01*
X129625000Y-69694670D01*
X128970000Y-69694670D01*
X128970000Y-67124846D01*
X128984888Y-67049999D01*
X128970000Y-66975152D01*
X128970000Y-66975148D01*
X128925904Y-66753463D01*
X128806585Y-66574889D01*
X128800329Y-66565526D01*
X128800327Y-66565524D01*
X128757929Y-66502071D01*
X128694476Y-66459673D01*
X125029640Y-62794839D01*
X125075000Y-62685330D01*
X125075000Y-62074670D01*
X124841310Y-61510493D01*
X124409507Y-61078690D01*
X123845330Y-60845000D01*
X123234670Y-60845000D01*
X122799582Y-61025220D01*
X123014802Y-60810000D01*
X160422407Y-60810000D01*
X162476878Y-62864472D01*
X162519279Y-62927929D01*
X162770671Y-63095904D01*
X162979902Y-63137523D01*
X163003357Y-63194148D01*
X163017771Y-63199004D01*
X163038690Y-63249507D01*
X163470493Y-63681310D01*
X163520996Y-63702229D01*
X163525852Y-63716643D01*
X163782348Y-63810485D01*
X164034670Y-63915000D01*
X164068018Y-63915000D01*
X164099336Y-63926458D01*
X164372212Y-63915000D01*
X164645330Y-63915000D01*
X164676140Y-63902238D01*
X164709460Y-63900839D01*
X165154148Y-63716643D01*
X165159004Y-63702229D01*
X165209507Y-63681310D01*
X165641310Y-63249507D01*
X165662229Y-63199004D01*
X165676643Y-63194148D01*
X165770485Y-62937652D01*
X165875000Y-62685330D01*
X165875000Y-62651982D01*
X165886458Y-62620664D01*
X165875000Y-62347788D01*
X165875000Y-62074670D01*
X165862238Y-62043860D01*
X165860839Y-62010540D01*
X165676643Y-61565852D01*
X165662229Y-61560996D01*
X165641310Y-61510493D01*
X165209507Y-61078690D01*
X165159004Y-61057771D01*
X165154148Y-61043357D01*
X164897652Y-60949515D01*
X164645330Y-60845000D01*
X164611982Y-60845000D01*
X164580664Y-60833542D01*
X164307788Y-60845000D01*
X164034670Y-60845000D01*
X164003860Y-60857762D01*
X163970540Y-60859161D01*
X163525852Y-61043357D01*
X163520996Y-61057771D01*
X163470493Y-61078690D01*
X163155596Y-61393587D01*
X161327539Y-59565530D01*
X161285137Y-59502071D01*
X161033745Y-59334096D01*
X160812060Y-59290000D01*
X160812055Y-59290000D01*
X160737208Y-59275112D01*
X160662361Y-59290000D01*
X122774848Y-59290000D01*
X122741446Y-59283356D01*
X126064802Y-55960000D01*
X130383899Y-55960000D01*
X130290493Y-55998690D01*
X129858690Y-56430493D01*
X129625000Y-56994670D01*
X129625000Y-57605330D01*
X129858690Y-58169507D01*
X130290493Y-58601310D01*
X130854670Y-58835000D01*
X131465330Y-58835000D01*
X132029507Y-58601310D01*
X132461310Y-58169507D01*
X132695000Y-57605330D01*
X132695000Y-56994670D01*
X132461310Y-56430493D01*
X132029507Y-55998690D01*
X131936101Y-55960000D01*
X140543899Y-55960000D01*
X140450493Y-55998690D01*
X140018690Y-56430493D01*
X139785000Y-56994670D01*
X139785000Y-57605330D01*
X140018690Y-58169507D01*
X140450493Y-58601310D01*
X141014670Y-58835000D01*
X141625330Y-58835000D01*
X142189507Y-58601310D01*
X142621310Y-58169507D01*
X142855000Y-57605330D01*
X142855000Y-56994670D01*
X142621310Y-56430493D01*
X142189507Y-55998690D01*
X142096101Y-55960000D01*
X150703899Y-55960000D01*
X150610493Y-55998690D01*
X150178690Y-56430493D01*
X149945000Y-56994670D01*
X149945000Y-57605330D01*
X150178690Y-58169507D01*
X150610493Y-58601310D01*
X151174670Y-58835000D01*
X151785330Y-58835000D01*
X152349507Y-58601310D01*
X152781310Y-58169507D01*
X153015000Y-57605330D01*
X153015000Y-56994670D01*
X152781310Y-56430493D01*
X152349507Y-55998690D01*
X152256101Y-55960000D01*
X160993957Y-55960000D01*
X160985852Y-55963357D01*
X160980996Y-55977771D01*
X160930493Y-55998690D01*
X160498690Y-56430493D01*
X160477771Y-56480996D01*
X160463357Y-56485852D01*
X160369515Y-56742348D01*
X160265000Y-56994670D01*
X160265000Y-57028018D01*
X160253542Y-57059336D01*
X160265000Y-57332212D01*
X160265000Y-57605330D01*
X160277762Y-57636140D01*
X160279161Y-57669460D01*
X160463357Y-58114148D01*
X160477771Y-58119004D01*
X160498690Y-58169507D01*
X160930493Y-58601310D01*
X160980996Y-58622229D01*
X160985852Y-58636643D01*
X161242348Y-58730485D01*
X161494670Y-58835000D01*
X161528018Y-58835000D01*
X161559336Y-58846458D01*
X161832212Y-58835000D01*
X162105330Y-58835000D01*
X162136140Y-58822238D01*
X162169460Y-58820839D01*
X162614148Y-58636643D01*
X162619004Y-58622229D01*
X162669507Y-58601310D01*
X163101310Y-58169507D01*
X163122229Y-58119004D01*
X163136643Y-58114148D01*
X163230485Y-57857652D01*
X163335000Y-57605330D01*
X163335000Y-57571982D01*
X163346458Y-57540664D01*
X163335000Y-57267788D01*
X163335000Y-56994670D01*
X163322238Y-56963860D01*
X163320839Y-56930540D01*
X163136643Y-56485852D01*
X163122229Y-56480996D01*
X163101310Y-56430493D01*
X162669507Y-55998690D01*
X162619004Y-55977771D01*
X162614148Y-55963357D01*
X162604972Y-55960000D01*
X166845199Y-55960000D01*
X172850360Y-61965162D01*
X172805000Y-62074670D01*
X172805000Y-62108018D01*
X172793542Y-62139336D01*
X172805000Y-62412212D01*
X172805000Y-62685330D01*
X172817762Y-62716140D01*
X172819161Y-62749460D01*
X173003357Y-63194148D01*
X173017771Y-63199004D01*
X173038690Y-63249507D01*
X173470493Y-63681310D01*
X173520996Y-63702229D01*
X173525852Y-63716643D01*
X173782348Y-63810485D01*
X174034670Y-63915000D01*
X174068018Y-63915000D01*
X174099336Y-63926458D01*
X174372212Y-63915000D01*
X174645330Y-63915000D01*
X174676140Y-63902238D01*
X174709460Y-63900839D01*
X175154148Y-63716643D01*
X175159004Y-63702229D01*
X175209507Y-63681310D01*
X175641310Y-63249507D01*
X175662229Y-63199004D01*
X175676643Y-63194148D01*
X175770485Y-62937652D01*
X175875000Y-62685330D01*
X175875000Y-62651982D01*
X175886458Y-62620664D01*
X175875000Y-62347788D01*
X175875000Y-62074670D01*
X175862238Y-62043860D01*
X175860839Y-62010540D01*
X175676643Y-61565852D01*
X175662229Y-61560996D01*
X175641310Y-61510493D01*
X175209507Y-61078690D01*
X175159004Y-61057771D01*
X175154148Y-61043357D01*
X174897652Y-60949515D01*
X174645330Y-60845000D01*
X174611982Y-60845000D01*
X174580664Y-60833542D01*
X174307788Y-60845000D01*
X174034670Y-60845000D01*
X174003860Y-60857762D01*
X173970540Y-60859161D01*
X173916392Y-60881590D01*
X171869802Y-58835000D01*
X172105330Y-58835000D01*
X172136140Y-58822238D01*
X172169460Y-58820839D01*
X172614148Y-58636643D01*
X172619004Y-58622229D01*
X172669507Y-58601310D01*
X173101310Y-58169507D01*
X173122229Y-58119004D01*
X173136643Y-58114148D01*
X173230485Y-57857652D01*
X173335000Y-57605330D01*
X173335000Y-57571982D01*
X173346458Y-57540664D01*
X173335000Y-57267788D01*
X173335000Y-57059336D01*
X180413542Y-57059336D01*
X180425000Y-57332212D01*
X180425000Y-57605330D01*
X180437762Y-57636140D01*
X180439161Y-57669460D01*
X180623357Y-58114148D01*
X180637771Y-58119004D01*
X180658690Y-58169507D01*
X181090493Y-58601310D01*
X181140996Y-58622229D01*
X181145852Y-58636643D01*
X181402348Y-58730485D01*
X181654670Y-58835000D01*
X181688018Y-58835000D01*
X181719336Y-58846458D01*
X181992212Y-58835000D01*
X182265330Y-58835000D01*
X182296140Y-58822238D01*
X182329460Y-58820839D01*
X182774148Y-58636643D01*
X182779004Y-58622229D01*
X182829507Y-58601310D01*
X183261310Y-58169507D01*
X183282229Y-58119004D01*
X183296643Y-58114148D01*
X183390485Y-57857652D01*
X183495000Y-57605330D01*
X183495000Y-57571982D01*
X183506458Y-57540664D01*
X183495000Y-57267788D01*
X183495000Y-57059336D01*
X190573542Y-57059336D01*
X190585000Y-57332212D01*
X190585000Y-57605330D01*
X190597762Y-57636140D01*
X190599161Y-57669460D01*
X190783357Y-58114148D01*
X190797771Y-58119004D01*
X190818690Y-58169507D01*
X191250493Y-58601310D01*
X191300996Y-58622229D01*
X191305852Y-58636643D01*
X191562348Y-58730485D01*
X191814670Y-58835000D01*
X191848018Y-58835000D01*
X191879336Y-58846458D01*
X192152212Y-58835000D01*
X192425330Y-58835000D01*
X192456140Y-58822238D01*
X192489460Y-58820839D01*
X192934148Y-58636643D01*
X192939004Y-58622229D01*
X192989507Y-58601310D01*
X193421310Y-58169507D01*
X193442229Y-58119004D01*
X193456643Y-58114148D01*
X193550485Y-57857652D01*
X193655000Y-57605330D01*
X193655000Y-57571982D01*
X193666458Y-57540664D01*
X193655000Y-57267788D01*
X193655000Y-56994670D01*
X193642238Y-56963860D01*
X193640839Y-56930540D01*
X193456643Y-56485852D01*
X193442229Y-56480996D01*
X193421310Y-56430493D01*
X192989507Y-55998690D01*
X192939004Y-55977771D01*
X192934148Y-55963357D01*
X192677652Y-55869515D01*
X192425330Y-55765000D01*
X192391982Y-55765000D01*
X192360664Y-55753542D01*
X192087788Y-55765000D01*
X191814670Y-55765000D01*
X191783860Y-55777762D01*
X191750540Y-55779161D01*
X191305852Y-55963357D01*
X191300996Y-55977771D01*
X191250493Y-55998690D01*
X190818690Y-56430493D01*
X190797771Y-56480996D01*
X190783357Y-56485852D01*
X190689515Y-56742348D01*
X190585000Y-56994670D01*
X190585000Y-57028018D01*
X190573542Y-57059336D01*
X183495000Y-57059336D01*
X183495000Y-56994670D01*
X183482238Y-56963860D01*
X183480839Y-56930540D01*
X183296643Y-56485852D01*
X183282229Y-56480996D01*
X183261310Y-56430493D01*
X182829507Y-55998690D01*
X182779004Y-55977771D01*
X182774148Y-55963357D01*
X182517652Y-55869515D01*
X182265330Y-55765000D01*
X182231982Y-55765000D01*
X182200664Y-55753542D01*
X181927788Y-55765000D01*
X181654670Y-55765000D01*
X181623860Y-55777762D01*
X181590540Y-55779161D01*
X181145852Y-55963357D01*
X181140996Y-55977771D01*
X181090493Y-55998690D01*
X180658690Y-56430493D01*
X180637771Y-56480996D01*
X180623357Y-56485852D01*
X180529515Y-56742348D01*
X180425000Y-56994670D01*
X180425000Y-57028018D01*
X180413542Y-57059336D01*
X173335000Y-57059336D01*
X173335000Y-56994670D01*
X173322238Y-56963860D01*
X173320839Y-56930540D01*
X173136643Y-56485852D01*
X173122229Y-56480996D01*
X173101310Y-56430493D01*
X172669507Y-55998690D01*
X172619004Y-55977771D01*
X172614148Y-55963357D01*
X172357652Y-55869515D01*
X172105330Y-55765000D01*
X172071982Y-55765000D01*
X172040664Y-55753542D01*
X171767788Y-55765000D01*
X171494670Y-55765000D01*
X171463860Y-55777762D01*
X171430540Y-55779161D01*
X170985852Y-55963357D01*
X170980996Y-55977771D01*
X170930493Y-55998690D01*
X170498690Y-56430493D01*
X170477771Y-56480996D01*
X170463357Y-56485852D01*
X170369515Y-56742348D01*
X170265000Y-56994670D01*
X170265000Y-57028018D01*
X170253542Y-57059336D01*
X170260529Y-57225727D01*
X167769801Y-54735000D01*
X197265000Y-54735000D01*
X197265000Y-60830069D01*
X197265000Y-60830069D01*
G37*
X197265000Y-60830069D02*
X197234473Y-60809671D01*
X196240331Y-59815530D01*
X196197929Y-59752071D01*
X195946537Y-59584096D01*
X195724852Y-59540000D01*
X195724847Y-59540000D01*
X195650000Y-59525112D01*
X195575153Y-59540000D01*
X187927638Y-59540000D01*
X187852791Y-59525112D01*
X187777944Y-59540000D01*
X187777940Y-59540000D01*
X187556255Y-59584096D01*
X187304863Y-59752071D01*
X187262463Y-59815527D01*
X185684404Y-61393587D01*
X185369507Y-61078690D01*
X185319004Y-61057771D01*
X185314148Y-61043357D01*
X185057652Y-60949515D01*
X184805330Y-60845000D01*
X184771982Y-60845000D01*
X184740664Y-60833542D01*
X184467788Y-60845000D01*
X184194670Y-60845000D01*
X184163860Y-60857762D01*
X184130540Y-60859161D01*
X183685852Y-61043357D01*
X183680996Y-61057771D01*
X183630493Y-61078690D01*
X183198690Y-61510493D01*
X183177771Y-61560996D01*
X183163357Y-61565852D01*
X183069515Y-61822348D01*
X182965000Y-62074670D01*
X182965000Y-62108018D01*
X182953542Y-62139336D01*
X182965000Y-62412212D01*
X182965000Y-62685330D01*
X182977762Y-62716140D01*
X182979161Y-62749460D01*
X183163357Y-63194148D01*
X183177771Y-63199004D01*
X183198690Y-63249507D01*
X183630493Y-63681310D01*
X183680996Y-63702229D01*
X183685852Y-63716643D01*
X183942348Y-63810485D01*
X184194670Y-63915000D01*
X184228018Y-63915000D01*
X184259336Y-63926458D01*
X184532212Y-63915000D01*
X184805330Y-63915000D01*
X184836140Y-63902238D01*
X184869460Y-63900839D01*
X185314148Y-63716643D01*
X185319004Y-63702229D01*
X185369507Y-63681310D01*
X185801310Y-63249507D01*
X185822229Y-63199004D01*
X185836643Y-63194148D01*
X185857145Y-63138110D01*
X186069329Y-63095904D01*
X186320721Y-62927929D01*
X186363123Y-62864470D01*
X188167594Y-61060000D01*
X193835615Y-61060000D01*
X193790493Y-61078690D01*
X193358690Y-61510493D01*
X193337771Y-61560996D01*
X193323357Y-61565852D01*
X193229515Y-61822348D01*
X193125000Y-62074670D01*
X193125000Y-62108018D01*
X193113542Y-62139336D01*
X193125000Y-62412212D01*
X193125000Y-62685330D01*
X193137762Y-62716140D01*
X193139161Y-62749460D01*
X193323357Y-63194148D01*
X193337771Y-63199004D01*
X193358690Y-63249507D01*
X193790493Y-63681310D01*
X193840996Y-63702229D01*
X193845852Y-63716643D01*
X193901891Y-63737145D01*
X193940000Y-63928732D01*
X193940001Y-79985197D01*
X185185199Y-88740000D01*
X175286553Y-88740000D01*
X175046553Y-88500000D01*
X175346982Y-88199571D01*
X175535000Y-87745657D01*
X175535000Y-87254343D01*
X175346982Y-86800429D01*
X175060000Y-86513447D01*
X175060000Y-84024846D01*
X175074888Y-83949999D01*
X175060000Y-83875152D01*
X175060000Y-83875148D01*
X175015904Y-83653463D01*
X174847929Y-83402071D01*
X174784473Y-83359671D01*
X166390331Y-74965530D01*
X166347929Y-74902071D01*
X166096537Y-74734096D01*
X165874852Y-74690000D01*
X165874847Y-74690000D01*
X165800000Y-74675112D01*
X165725153Y-74690000D01*
X159114802Y-74690000D01*
X154780000Y-70355199D01*
X154780000Y-69759336D01*
X160253542Y-69759336D01*
X160265000Y-70032212D01*
X160265000Y-70305330D01*
X160277762Y-70336140D01*
X160279161Y-70369460D01*
X160463357Y-70814148D01*
X160477771Y-70819004D01*
X160498690Y-70869507D01*
X160930493Y-71301310D01*
X160980996Y-71322229D01*
X160985852Y-71336643D01*
X161242348Y-71430485D01*
X161494670Y-71535000D01*
X161528018Y-71535000D01*
X161559336Y-71546458D01*
X161832212Y-71535000D01*
X162105330Y-71535000D01*
X162136140Y-71522238D01*
X162169460Y-71520839D01*
X162614148Y-71336643D01*
X162619004Y-71322229D01*
X162669507Y-71301310D01*
X163101310Y-70869507D01*
X163122229Y-70819004D01*
X163136643Y-70814148D01*
X163230485Y-70557652D01*
X163335000Y-70305330D01*
X163335000Y-70271982D01*
X163346458Y-70240664D01*
X163335000Y-69967788D01*
X163335000Y-69759336D01*
X170253542Y-69759336D01*
X170265000Y-70032212D01*
X170265000Y-70305330D01*
X170277762Y-70336140D01*
X170279161Y-70369460D01*
X170463357Y-70814148D01*
X170477771Y-70819004D01*
X170498690Y-70869507D01*
X170930493Y-71301310D01*
X170980996Y-71322229D01*
X170985852Y-71336643D01*
X171242348Y-71430485D01*
X171494670Y-71535000D01*
X171528018Y-71535000D01*
X171559336Y-71546458D01*
X171832212Y-71535000D01*
X172105330Y-71535000D01*
X172136140Y-71522238D01*
X172169460Y-71520839D01*
X172614148Y-71336643D01*
X172619004Y-71322229D01*
X172669507Y-71301310D01*
X173101310Y-70869507D01*
X173122229Y-70819004D01*
X173136643Y-70814148D01*
X173230485Y-70557652D01*
X173335000Y-70305330D01*
X173335000Y-70271982D01*
X173346458Y-70240664D01*
X173335000Y-69967788D01*
X173335000Y-69759336D01*
X180413542Y-69759336D01*
X180425000Y-70032212D01*
X180425000Y-70305330D01*
X180437762Y-70336140D01*
X180439161Y-70369460D01*
X180623357Y-70814148D01*
X180637771Y-70819004D01*
X180658690Y-70869507D01*
X181090493Y-71301310D01*
X181140996Y-71322229D01*
X181145852Y-71336643D01*
X181402348Y-71430485D01*
X181654670Y-71535000D01*
X181688018Y-71535000D01*
X181719336Y-71546458D01*
X181992212Y-71535000D01*
X182265330Y-71535000D01*
X182296140Y-71522238D01*
X182329460Y-71520839D01*
X182774148Y-71336643D01*
X182779004Y-71322229D01*
X182829507Y-71301310D01*
X183261310Y-70869507D01*
X183282229Y-70819004D01*
X183296643Y-70814148D01*
X183390485Y-70557652D01*
X183495000Y-70305330D01*
X183495000Y-70271982D01*
X183506458Y-70240664D01*
X183495000Y-69967788D01*
X183495000Y-69759336D01*
X190573542Y-69759336D01*
X190585000Y-70032212D01*
X190585000Y-70305330D01*
X190597762Y-70336140D01*
X190599161Y-70369460D01*
X190783357Y-70814148D01*
X190797771Y-70819004D01*
X190818690Y-70869507D01*
X191250493Y-71301310D01*
X191300996Y-71322229D01*
X191305852Y-71336643D01*
X191562348Y-71430485D01*
X191814670Y-71535000D01*
X191848018Y-71535000D01*
X191879336Y-71546458D01*
X192152212Y-71535000D01*
X192425330Y-71535000D01*
X192456140Y-71522238D01*
X192489460Y-71520839D01*
X192934148Y-71336643D01*
X192939004Y-71322229D01*
X192989507Y-71301310D01*
X193421310Y-70869507D01*
X193442229Y-70819004D01*
X193456643Y-70814148D01*
X193550485Y-70557652D01*
X193655000Y-70305330D01*
X193655000Y-70271982D01*
X193666458Y-70240664D01*
X193655000Y-69967788D01*
X193655000Y-69694670D01*
X193642238Y-69663860D01*
X193640839Y-69630540D01*
X193456643Y-69185852D01*
X193442229Y-69180996D01*
X193421310Y-69130493D01*
X192989507Y-68698690D01*
X192939004Y-68677771D01*
X192934148Y-68663357D01*
X192677652Y-68569515D01*
X192425330Y-68465000D01*
X192391982Y-68465000D01*
X192360664Y-68453542D01*
X192087788Y-68465000D01*
X191814670Y-68465000D01*
X191783860Y-68477762D01*
X191750540Y-68479161D01*
X191305852Y-68663357D01*
X191300996Y-68677771D01*
X191250493Y-68698690D01*
X190818690Y-69130493D01*
X190797771Y-69180996D01*
X190783357Y-69185852D01*
X190689515Y-69442348D01*
X190585000Y-69694670D01*
X190585000Y-69728018D01*
X190573542Y-69759336D01*
X183495000Y-69759336D01*
X183495000Y-69694670D01*
X183482238Y-69663860D01*
X183480839Y-69630540D01*
X183296643Y-69185852D01*
X183282229Y-69180996D01*
X183261310Y-69130493D01*
X182829507Y-68698690D01*
X182779004Y-68677771D01*
X182774148Y-68663357D01*
X182517652Y-68569515D01*
X182265330Y-68465000D01*
X182231982Y-68465000D01*
X182200664Y-68453542D01*
X181927788Y-68465000D01*
X181654670Y-68465000D01*
X181623860Y-68477762D01*
X181590540Y-68479161D01*
X181145852Y-68663357D01*
X181140996Y-68677771D01*
X181090493Y-68698690D01*
X180658690Y-69130493D01*
X180637771Y-69180996D01*
X180623357Y-69185852D01*
X180529515Y-69442348D01*
X180425000Y-69694670D01*
X180425000Y-69728018D01*
X180413542Y-69759336D01*
X173335000Y-69759336D01*
X173335000Y-69694670D01*
X173322238Y-69663860D01*
X173320839Y-69630540D01*
X173136643Y-69185852D01*
X173122229Y-69180996D01*
X173101310Y-69130493D01*
X172669507Y-68698690D01*
X172619004Y-68677771D01*
X172614148Y-68663357D01*
X172357652Y-68569515D01*
X172105330Y-68465000D01*
X172071982Y-68465000D01*
X172040664Y-68453542D01*
X171767788Y-68465000D01*
X171494670Y-68465000D01*
X171463860Y-68477762D01*
X171430540Y-68479161D01*
X170985852Y-68663357D01*
X170980996Y-68677771D01*
X170930493Y-68698690D01*
X170498690Y-69130493D01*
X170477771Y-69180996D01*
X170463357Y-69185852D01*
X170369515Y-69442348D01*
X170265000Y-69694670D01*
X170265000Y-69728018D01*
X170253542Y-69759336D01*
X163335000Y-69759336D01*
X163335000Y-69694670D01*
X163322238Y-69663860D01*
X163320839Y-69630540D01*
X163136643Y-69185852D01*
X163122229Y-69180996D01*
X163101310Y-69130493D01*
X162669507Y-68698690D01*
X162619004Y-68677771D01*
X162614148Y-68663357D01*
X162357652Y-68569515D01*
X162105330Y-68465000D01*
X162071982Y-68465000D01*
X162040664Y-68453542D01*
X161767788Y-68465000D01*
X161494670Y-68465000D01*
X161463860Y-68477762D01*
X161430540Y-68479161D01*
X160985852Y-68663357D01*
X160980996Y-68677771D01*
X160930493Y-68698690D01*
X160498690Y-69130493D01*
X160477771Y-69180996D01*
X160463357Y-69185852D01*
X160369515Y-69442348D01*
X160265000Y-69694670D01*
X160265000Y-69728018D01*
X160253542Y-69759336D01*
X154780000Y-69759336D01*
X154780000Y-63726669D01*
X154889507Y-63681310D01*
X155321310Y-63249507D01*
X155555000Y-62685330D01*
X155555000Y-62074670D01*
X155321310Y-61510493D01*
X154889507Y-61078690D01*
X154325330Y-60845000D01*
X153714670Y-60845000D01*
X153150493Y-61078690D01*
X152718690Y-61510493D01*
X152485000Y-62074670D01*
X152485000Y-62685330D01*
X152718690Y-63249507D01*
X153150493Y-63681310D01*
X153260000Y-63726669D01*
X153260001Y-70595148D01*
X153245112Y-70670000D01*
X153304097Y-70966537D01*
X153422990Y-71144472D01*
X153472072Y-71217929D01*
X153535528Y-71260329D01*
X158209670Y-75934472D01*
X158252071Y-75997929D01*
X158315527Y-76040329D01*
X158503462Y-76165904D01*
X158551605Y-76175480D01*
X158725148Y-76210000D01*
X158725152Y-76210000D01*
X158800000Y-76224888D01*
X158874848Y-76210000D01*
X165485199Y-76210000D01*
X173540000Y-84264802D01*
X173540001Y-86513446D01*
X173300000Y-86753447D01*
X173060000Y-86513447D01*
X173060000Y-85724848D01*
X173074888Y-85650000D01*
X173060000Y-85575152D01*
X173060000Y-85575148D01*
X173015904Y-85353463D01*
X173015904Y-85353462D01*
X172890329Y-85165527D01*
X172847929Y-85102071D01*
X172784473Y-85059671D01*
X164940331Y-77215530D01*
X164897929Y-77152071D01*
X164646537Y-76984096D01*
X164424852Y-76940000D01*
X164424847Y-76940000D01*
X164350000Y-76925112D01*
X164275153Y-76940000D01*
X147764802Y-76940000D01*
X144620000Y-73795199D01*
X144620000Y-69694670D01*
X149945000Y-69694670D01*
X149945000Y-70305330D01*
X150178690Y-70869507D01*
X150610493Y-71301310D01*
X151174670Y-71535000D01*
X151785330Y-71535000D01*
X152349507Y-71301310D01*
X152781310Y-70869507D01*
X153015000Y-70305330D01*
X153015000Y-69694670D01*
X152781310Y-69130493D01*
X152349507Y-68698690D01*
X151785330Y-68465000D01*
X151174670Y-68465000D01*
X150610493Y-68698690D01*
X150178690Y-69130493D01*
X149945000Y-69694670D01*
X144620000Y-69694670D01*
X144620000Y-63726669D01*
X144729507Y-63681310D01*
X145161310Y-63249507D01*
X145395000Y-62685330D01*
X145395000Y-62074670D01*
X145161310Y-61510493D01*
X144729507Y-61078690D01*
X144165330Y-60845000D01*
X143554670Y-60845000D01*
X142990493Y-61078690D01*
X142558690Y-61510493D01*
X142325000Y-62074670D01*
X142325000Y-62685330D01*
X142558690Y-63249507D01*
X142990493Y-63681310D01*
X143100000Y-63726669D01*
X143100001Y-74035148D01*
X143085112Y-74110000D01*
X143144097Y-74406537D01*
X143223153Y-74524852D01*
X143312072Y-74657929D01*
X143375528Y-74700329D01*
X146859670Y-78184472D01*
X146902071Y-78247929D01*
X146965527Y-78290329D01*
X147153462Y-78415904D01*
X147201605Y-78425480D01*
X147375148Y-78460000D01*
X147375152Y-78460000D01*
X147450000Y-78474888D01*
X147524848Y-78460000D01*
X164035199Y-78460000D01*
X171540000Y-85964802D01*
X171540000Y-86513447D01*
X171300000Y-86753447D01*
X170999571Y-86453018D01*
X170545657Y-86265000D01*
X170139802Y-86265000D01*
X163690331Y-79815530D01*
X163647929Y-79752071D01*
X163396537Y-79584096D01*
X163174852Y-79540000D01*
X163174847Y-79540000D01*
X163100000Y-79525112D01*
X163025153Y-79540000D01*
X139864803Y-79540000D01*
X134460000Y-74135199D01*
X134460000Y-69694670D01*
X139785000Y-69694670D01*
X139785000Y-70305330D01*
X140018690Y-70869507D01*
X140450493Y-71301310D01*
X141014670Y-71535000D01*
X141625330Y-71535000D01*
X142189507Y-71301310D01*
X142621310Y-70869507D01*
X142855000Y-70305330D01*
X142855000Y-69694670D01*
X142621310Y-69130493D01*
X142189507Y-68698690D01*
X141625330Y-68465000D01*
X141014670Y-68465000D01*
X140450493Y-68698690D01*
X140018690Y-69130493D01*
X139785000Y-69694670D01*
X134460000Y-69694670D01*
X134460000Y-63726669D01*
X134569507Y-63681310D01*
X135001310Y-63249507D01*
X135235000Y-62685330D01*
X135235000Y-62074670D01*
X135001310Y-61510493D01*
X134569507Y-61078690D01*
X134005330Y-60845000D01*
X133394670Y-60845000D01*
X132830493Y-61078690D01*
X132398690Y-61510493D01*
X132165000Y-62074670D01*
X132165000Y-62685330D01*
X132398690Y-63249507D01*
X132830493Y-63681310D01*
X132940000Y-63726669D01*
X132940001Y-74315200D01*
X128970000Y-70345199D01*
X128970000Y-69694670D01*
X129625000Y-69694670D01*
X129625000Y-70305330D01*
X129858690Y-70869507D01*
X130290493Y-71301310D01*
X130854670Y-71535000D01*
X131465330Y-71535000D01*
X132029507Y-71301310D01*
X132461310Y-70869507D01*
X132695000Y-70305330D01*
X132695000Y-69694670D01*
X132461310Y-69130493D01*
X132029507Y-68698690D01*
X131465330Y-68465000D01*
X130854670Y-68465000D01*
X130290493Y-68698690D01*
X129858690Y-69130493D01*
X129625000Y-69694670D01*
X128970000Y-69694670D01*
X128970000Y-67124846D01*
X128984888Y-67049999D01*
X128970000Y-66975152D01*
X128970000Y-66975148D01*
X128925904Y-66753463D01*
X128806585Y-66574889D01*
X128800329Y-66565526D01*
X128800327Y-66565524D01*
X128757929Y-66502071D01*
X128694476Y-66459673D01*
X125029640Y-62794839D01*
X125075000Y-62685330D01*
X125075000Y-62074670D01*
X124841310Y-61510493D01*
X124409507Y-61078690D01*
X123845330Y-60845000D01*
X123234670Y-60845000D01*
X122799582Y-61025220D01*
X123014802Y-60810000D01*
X160422407Y-60810000D01*
X162476878Y-62864472D01*
X162519279Y-62927929D01*
X162770671Y-63095904D01*
X162979902Y-63137523D01*
X163003357Y-63194148D01*
X163017771Y-63199004D01*
X163038690Y-63249507D01*
X163470493Y-63681310D01*
X163520996Y-63702229D01*
X163525852Y-63716643D01*
X163782348Y-63810485D01*
X164034670Y-63915000D01*
X164068018Y-63915000D01*
X164099336Y-63926458D01*
X164372212Y-63915000D01*
X164645330Y-63915000D01*
X164676140Y-63902238D01*
X164709460Y-63900839D01*
X165154148Y-63716643D01*
X165159004Y-63702229D01*
X165209507Y-63681310D01*
X165641310Y-63249507D01*
X165662229Y-63199004D01*
X165676643Y-63194148D01*
X165770485Y-62937652D01*
X165875000Y-62685330D01*
X165875000Y-62651982D01*
X165886458Y-62620664D01*
X165875000Y-62347788D01*
X165875000Y-62074670D01*
X165862238Y-62043860D01*
X165860839Y-62010540D01*
X165676643Y-61565852D01*
X165662229Y-61560996D01*
X165641310Y-61510493D01*
X165209507Y-61078690D01*
X165159004Y-61057771D01*
X165154148Y-61043357D01*
X164897652Y-60949515D01*
X164645330Y-60845000D01*
X164611982Y-60845000D01*
X164580664Y-60833542D01*
X164307788Y-60845000D01*
X164034670Y-60845000D01*
X164003860Y-60857762D01*
X163970540Y-60859161D01*
X163525852Y-61043357D01*
X163520996Y-61057771D01*
X163470493Y-61078690D01*
X163155596Y-61393587D01*
X161327539Y-59565530D01*
X161285137Y-59502071D01*
X161033745Y-59334096D01*
X160812060Y-59290000D01*
X160812055Y-59290000D01*
X160737208Y-59275112D01*
X160662361Y-59290000D01*
X122774848Y-59290000D01*
X122741446Y-59283356D01*
X126064802Y-55960000D01*
X130383899Y-55960000D01*
X130290493Y-55998690D01*
X129858690Y-56430493D01*
X129625000Y-56994670D01*
X129625000Y-57605330D01*
X129858690Y-58169507D01*
X130290493Y-58601310D01*
X130854670Y-58835000D01*
X131465330Y-58835000D01*
X132029507Y-58601310D01*
X132461310Y-58169507D01*
X132695000Y-57605330D01*
X132695000Y-56994670D01*
X132461310Y-56430493D01*
X132029507Y-55998690D01*
X131936101Y-55960000D01*
X140543899Y-55960000D01*
X140450493Y-55998690D01*
X140018690Y-56430493D01*
X139785000Y-56994670D01*
X139785000Y-57605330D01*
X140018690Y-58169507D01*
X140450493Y-58601310D01*
X141014670Y-58835000D01*
X141625330Y-58835000D01*
X142189507Y-58601310D01*
X142621310Y-58169507D01*
X142855000Y-57605330D01*
X142855000Y-56994670D01*
X142621310Y-56430493D01*
X142189507Y-55998690D01*
X142096101Y-55960000D01*
X150703899Y-55960000D01*
X150610493Y-55998690D01*
X150178690Y-56430493D01*
X149945000Y-56994670D01*
X149945000Y-57605330D01*
X150178690Y-58169507D01*
X150610493Y-58601310D01*
X151174670Y-58835000D01*
X151785330Y-58835000D01*
X152349507Y-58601310D01*
X152781310Y-58169507D01*
X153015000Y-57605330D01*
X153015000Y-56994670D01*
X152781310Y-56430493D01*
X152349507Y-55998690D01*
X152256101Y-55960000D01*
X160993957Y-55960000D01*
X160985852Y-55963357D01*
X160980996Y-55977771D01*
X160930493Y-55998690D01*
X160498690Y-56430493D01*
X160477771Y-56480996D01*
X160463357Y-56485852D01*
X160369515Y-56742348D01*
X160265000Y-56994670D01*
X160265000Y-57028018D01*
X160253542Y-57059336D01*
X160265000Y-57332212D01*
X160265000Y-57605330D01*
X160277762Y-57636140D01*
X160279161Y-57669460D01*
X160463357Y-58114148D01*
X160477771Y-58119004D01*
X160498690Y-58169507D01*
X160930493Y-58601310D01*
X160980996Y-58622229D01*
X160985852Y-58636643D01*
X161242348Y-58730485D01*
X161494670Y-58835000D01*
X161528018Y-58835000D01*
X161559336Y-58846458D01*
X161832212Y-58835000D01*
X162105330Y-58835000D01*
X162136140Y-58822238D01*
X162169460Y-58820839D01*
X162614148Y-58636643D01*
X162619004Y-58622229D01*
X162669507Y-58601310D01*
X163101310Y-58169507D01*
X163122229Y-58119004D01*
X163136643Y-58114148D01*
X163230485Y-57857652D01*
X163335000Y-57605330D01*
X163335000Y-57571982D01*
X163346458Y-57540664D01*
X163335000Y-57267788D01*
X163335000Y-56994670D01*
X163322238Y-56963860D01*
X163320839Y-56930540D01*
X163136643Y-56485852D01*
X163122229Y-56480996D01*
X163101310Y-56430493D01*
X162669507Y-55998690D01*
X162619004Y-55977771D01*
X162614148Y-55963357D01*
X162604972Y-55960000D01*
X166845199Y-55960000D01*
X172850360Y-61965162D01*
X172805000Y-62074670D01*
X172805000Y-62108018D01*
X172793542Y-62139336D01*
X172805000Y-62412212D01*
X172805000Y-62685330D01*
X172817762Y-62716140D01*
X172819161Y-62749460D01*
X173003357Y-63194148D01*
X173017771Y-63199004D01*
X173038690Y-63249507D01*
X173470493Y-63681310D01*
X173520996Y-63702229D01*
X173525852Y-63716643D01*
X173782348Y-63810485D01*
X174034670Y-63915000D01*
X174068018Y-63915000D01*
X174099336Y-63926458D01*
X174372212Y-63915000D01*
X174645330Y-63915000D01*
X174676140Y-63902238D01*
X174709460Y-63900839D01*
X175154148Y-63716643D01*
X175159004Y-63702229D01*
X175209507Y-63681310D01*
X175641310Y-63249507D01*
X175662229Y-63199004D01*
X175676643Y-63194148D01*
X175770485Y-62937652D01*
X175875000Y-62685330D01*
X175875000Y-62651982D01*
X175886458Y-62620664D01*
X175875000Y-62347788D01*
X175875000Y-62074670D01*
X175862238Y-62043860D01*
X175860839Y-62010540D01*
X175676643Y-61565852D01*
X175662229Y-61560996D01*
X175641310Y-61510493D01*
X175209507Y-61078690D01*
X175159004Y-61057771D01*
X175154148Y-61043357D01*
X174897652Y-60949515D01*
X174645330Y-60845000D01*
X174611982Y-60845000D01*
X174580664Y-60833542D01*
X174307788Y-60845000D01*
X174034670Y-60845000D01*
X174003860Y-60857762D01*
X173970540Y-60859161D01*
X173916392Y-60881590D01*
X171869802Y-58835000D01*
X172105330Y-58835000D01*
X172136140Y-58822238D01*
X172169460Y-58820839D01*
X172614148Y-58636643D01*
X172619004Y-58622229D01*
X172669507Y-58601310D01*
X173101310Y-58169507D01*
X173122229Y-58119004D01*
X173136643Y-58114148D01*
X173230485Y-57857652D01*
X173335000Y-57605330D01*
X173335000Y-57571982D01*
X173346458Y-57540664D01*
X173335000Y-57267788D01*
X173335000Y-57059336D01*
X180413542Y-57059336D01*
X180425000Y-57332212D01*
X180425000Y-57605330D01*
X180437762Y-57636140D01*
X180439161Y-57669460D01*
X180623357Y-58114148D01*
X180637771Y-58119004D01*
X180658690Y-58169507D01*
X181090493Y-58601310D01*
X181140996Y-58622229D01*
X181145852Y-58636643D01*
X181402348Y-58730485D01*
X181654670Y-58835000D01*
X181688018Y-58835000D01*
X181719336Y-58846458D01*
X181992212Y-58835000D01*
X182265330Y-58835000D01*
X182296140Y-58822238D01*
X182329460Y-58820839D01*
X182774148Y-58636643D01*
X182779004Y-58622229D01*
X182829507Y-58601310D01*
X183261310Y-58169507D01*
X183282229Y-58119004D01*
X183296643Y-58114148D01*
X183390485Y-57857652D01*
X183495000Y-57605330D01*
X183495000Y-57571982D01*
X183506458Y-57540664D01*
X183495000Y-57267788D01*
X183495000Y-57059336D01*
X190573542Y-57059336D01*
X190585000Y-57332212D01*
X190585000Y-57605330D01*
X190597762Y-57636140D01*
X190599161Y-57669460D01*
X190783357Y-58114148D01*
X190797771Y-58119004D01*
X190818690Y-58169507D01*
X191250493Y-58601310D01*
X191300996Y-58622229D01*
X191305852Y-58636643D01*
X191562348Y-58730485D01*
X191814670Y-58835000D01*
X191848018Y-58835000D01*
X191879336Y-58846458D01*
X192152212Y-58835000D01*
X192425330Y-58835000D01*
X192456140Y-58822238D01*
X192489460Y-58820839D01*
X192934148Y-58636643D01*
X192939004Y-58622229D01*
X192989507Y-58601310D01*
X193421310Y-58169507D01*
X193442229Y-58119004D01*
X193456643Y-58114148D01*
X193550485Y-57857652D01*
X193655000Y-57605330D01*
X193655000Y-57571982D01*
X193666458Y-57540664D01*
X193655000Y-57267788D01*
X193655000Y-56994670D01*
X193642238Y-56963860D01*
X193640839Y-56930540D01*
X193456643Y-56485852D01*
X193442229Y-56480996D01*
X193421310Y-56430493D01*
X192989507Y-55998690D01*
X192939004Y-55977771D01*
X192934148Y-55963357D01*
X192677652Y-55869515D01*
X192425330Y-55765000D01*
X192391982Y-55765000D01*
X192360664Y-55753542D01*
X192087788Y-55765000D01*
X191814670Y-55765000D01*
X191783860Y-55777762D01*
X191750540Y-55779161D01*
X191305852Y-55963357D01*
X191300996Y-55977771D01*
X191250493Y-55998690D01*
X190818690Y-56430493D01*
X190797771Y-56480996D01*
X190783357Y-56485852D01*
X190689515Y-56742348D01*
X190585000Y-56994670D01*
X190585000Y-57028018D01*
X190573542Y-57059336D01*
X183495000Y-57059336D01*
X183495000Y-56994670D01*
X183482238Y-56963860D01*
X183480839Y-56930540D01*
X183296643Y-56485852D01*
X183282229Y-56480996D01*
X183261310Y-56430493D01*
X182829507Y-55998690D01*
X182779004Y-55977771D01*
X182774148Y-55963357D01*
X182517652Y-55869515D01*
X182265330Y-55765000D01*
X182231982Y-55765000D01*
X182200664Y-55753542D01*
X181927788Y-55765000D01*
X181654670Y-55765000D01*
X181623860Y-55777762D01*
X181590540Y-55779161D01*
X181145852Y-55963357D01*
X181140996Y-55977771D01*
X181090493Y-55998690D01*
X180658690Y-56430493D01*
X180637771Y-56480996D01*
X180623357Y-56485852D01*
X180529515Y-56742348D01*
X180425000Y-56994670D01*
X180425000Y-57028018D01*
X180413542Y-57059336D01*
X173335000Y-57059336D01*
X173335000Y-56994670D01*
X173322238Y-56963860D01*
X173320839Y-56930540D01*
X173136643Y-56485852D01*
X173122229Y-56480996D01*
X173101310Y-56430493D01*
X172669507Y-55998690D01*
X172619004Y-55977771D01*
X172614148Y-55963357D01*
X172357652Y-55869515D01*
X172105330Y-55765000D01*
X172071982Y-55765000D01*
X172040664Y-55753542D01*
X171767788Y-55765000D01*
X171494670Y-55765000D01*
X171463860Y-55777762D01*
X171430540Y-55779161D01*
X170985852Y-55963357D01*
X170980996Y-55977771D01*
X170930493Y-55998690D01*
X170498690Y-56430493D01*
X170477771Y-56480996D01*
X170463357Y-56485852D01*
X170369515Y-56742348D01*
X170265000Y-56994670D01*
X170265000Y-57028018D01*
X170253542Y-57059336D01*
X170260529Y-57225727D01*
X167769801Y-54735000D01*
X197265000Y-54735000D01*
X197265000Y-60830069D01*
G36*
X145600000Y-86753447D02*
X145306553Y-86460000D01*
X145893447Y-86460000D01*
X145600000Y-86753447D01*
X145600000Y-86753447D01*
G37*
X145600000Y-86753447D02*
X145306553Y-86460000D01*
X145893447Y-86460000D01*
X145600000Y-86753447D01*
G36*
X147600000Y-86753447D02*
X147306553Y-86460000D01*
X147893447Y-86460000D01*
X147600000Y-86753447D01*
X147600000Y-86753447D01*
G37*
X147600000Y-86753447D02*
X147306553Y-86460000D01*
X147893447Y-86460000D01*
X147600000Y-86753447D01*
G36*
X143759326Y-86594121D02*
X143669709Y-86460000D01*
X143893447Y-86460000D01*
X143759326Y-86594121D01*
X143759326Y-86594121D01*
G37*
X143759326Y-86594121D02*
X143669709Y-86460000D01*
X143893447Y-86460000D01*
X143759326Y-86594121D01*
G36*
X167977758Y-86252560D02*
X167700000Y-86252560D01*
X167452235Y-86301843D01*
X167376949Y-86352148D01*
X164290331Y-83265530D01*
X164290329Y-83265527D01*
X164040330Y-83015529D01*
X163997929Y-82952071D01*
X163746537Y-82784096D01*
X163524852Y-82740000D01*
X163524847Y-82740000D01*
X163450000Y-82725112D01*
X163375153Y-82740000D01*
X141364802Y-82740000D01*
X139684802Y-81060000D01*
X162785199Y-81060000D01*
X167977758Y-86252560D01*
X167977758Y-86252560D01*
G37*
X167977758Y-86252560D02*
X167700000Y-86252560D01*
X167452235Y-86301843D01*
X167376949Y-86352148D01*
X164290331Y-83265530D01*
X164290329Y-83265527D01*
X164040330Y-83015529D01*
X163997929Y-82952071D01*
X163746537Y-82784096D01*
X163524852Y-82740000D01*
X163524847Y-82740000D01*
X163450000Y-82725112D01*
X163375153Y-82740000D01*
X141364802Y-82740000D01*
X139684802Y-81060000D01*
X162785199Y-81060000D01*
X167977758Y-86252560D01*
M02*
