G04 #@! TF.GenerationSoftware,KiCad,Pcbnew,(5.0.0)*
G04 #@! TF.CreationDate,2020-01-07T20:32:05+00:00*
G04 #@! TF.ProjectId,Potentiometer_mount_8LED,506F74656E74696F6D657465725F6D6F,rev?*
G04 #@! TF.SameCoordinates,Original*
G04 #@! TF.FileFunction,Soldermask,Bot*
G04 #@! TF.FilePolarity,Negative*
%FSLAX46Y46*%
G04 Gerber Fmt 4.6, Leading zero omitted, Abs format (unit mm)*
G04 Created by KiCad (PCBNEW (5.0.0)) date 01/07/20 20:32:05*
%MOMM*%
%LPD*%
G01*
G04 APERTURE LIST*
%ADD10C,2.200000*%
%ADD11C,1.600000*%
%ADD12R,1.600000X1.600000*%
G04 APERTURE END LIST*
D10*
G04 #@! TO.C,LED 8*
X192120000Y-57300000D03*
X194660000Y-62380000D03*
X192120000Y-70000000D03*
G04 #@! TD*
G04 #@! TO.C,LED 7*
X181960000Y-57300000D03*
X184500000Y-62380000D03*
X181960000Y-70000000D03*
G04 #@! TD*
G04 #@! TO.C,LED 5*
X161800000Y-57300000D03*
X164340000Y-62380000D03*
X161800000Y-70000000D03*
G04 #@! TD*
G04 #@! TO.C,LED 6*
X171800000Y-57300000D03*
X174340000Y-62380000D03*
X171800000Y-70000000D03*
G04 #@! TD*
D11*
G04 #@! TO.C,To LED*
X174300000Y-89500000D03*
X172300000Y-89500000D03*
X170300000Y-89500000D03*
X168300000Y-89500000D03*
X174300000Y-87500000D03*
X172300000Y-87500000D03*
X170300000Y-87500000D03*
D12*
X168300000Y-87500000D03*
G04 #@! TD*
D11*
G04 #@! TO.C,From Stimlator*
X148600000Y-89500000D03*
X146600000Y-89500000D03*
X144600000Y-89500000D03*
X142600000Y-89500000D03*
X148600000Y-87500000D03*
X146600000Y-87500000D03*
X144600000Y-87500000D03*
D12*
X142600000Y-87500000D03*
G04 #@! TD*
D10*
G04 #@! TO.C,LED 1*
X121000000Y-57300000D03*
X123540000Y-62380000D03*
X121000000Y-70000000D03*
G04 #@! TD*
G04 #@! TO.C,LED 2*
X131160000Y-70000000D03*
X133700000Y-62380000D03*
X131160000Y-57300000D03*
G04 #@! TD*
G04 #@! TO.C,LED 3*
X141320000Y-57300000D03*
X143860000Y-62380000D03*
X141320000Y-70000000D03*
G04 #@! TD*
G04 #@! TO.C,LED 4*
X151480000Y-70000000D03*
X154020000Y-62380000D03*
X151480000Y-57300000D03*
G04 #@! TD*
M02*
