G04 #@! TF.GenerationSoftware,KiCad,Pcbnew,(5.0.0)*
G04 #@! TF.CreationDate,2020-01-07T20:32:05+00:00*
G04 #@! TF.ProjectId,Potentiometer_mount_8LED,506F74656E74696F6D657465725F6D6F,rev?*
G04 #@! TF.SameCoordinates,Original*
G04 #@! TF.FileFunction,Other,User*
%FSLAX46Y46*%
G04 Gerber Fmt 4.6, Leading zero omitted, Abs format (unit mm)*
G04 Created by KiCad (PCBNEW (5.0.0)) date 01/07/20 20:32:05*
%MOMM*%
%LPD*%
G01*
G04 APERTURE LIST*
%ADD10C,0.050000*%
G04 APERTURE END LIST*
D10*
G04 #@! TO.C,LED 8*
X196070000Y-73250000D02*
X196070000Y-52200000D01*
X190720000Y-73250000D02*
X196070000Y-73250000D01*
X190720000Y-52200000D02*
X190720000Y-73250000D01*
X196070000Y-52200000D02*
X190720000Y-52200000D01*
G04 #@! TO.C,LED 7*
X185910000Y-73250000D02*
X185910000Y-52200000D01*
X180560000Y-73250000D02*
X185910000Y-73250000D01*
X180560000Y-52200000D02*
X180560000Y-73250000D01*
X185910000Y-52200000D02*
X180560000Y-52200000D01*
G04 #@! TO.C,LED 5*
X165750000Y-73250000D02*
X165750000Y-52200000D01*
X160400000Y-73250000D02*
X165750000Y-73250000D01*
X160400000Y-52200000D02*
X160400000Y-73250000D01*
X165750000Y-52200000D02*
X160400000Y-52200000D01*
G04 #@! TO.C,LED 6*
X175750000Y-73250000D02*
X175750000Y-52200000D01*
X170400000Y-73250000D02*
X175750000Y-73250000D01*
X170400000Y-52200000D02*
X170400000Y-73250000D01*
X175750000Y-52200000D02*
X170400000Y-52200000D01*
G04 #@! TO.C,To LED*
X176800000Y-83100000D02*
X165800000Y-83100000D01*
X176800000Y-92400000D02*
X176800000Y-83100000D01*
X165800000Y-92400000D02*
X176800000Y-92400000D01*
X165800000Y-83100000D02*
X165800000Y-92400000D01*
G04 #@! TO.C,From Stimlator*
X151100000Y-83100000D02*
X140100000Y-83100000D01*
X151100000Y-92400000D02*
X151100000Y-83100000D01*
X140100000Y-92400000D02*
X151100000Y-92400000D01*
X140100000Y-83100000D02*
X140100000Y-92400000D01*
G04 #@! TO.C,LED 1*
X124950000Y-73250000D02*
X124950000Y-52200000D01*
X119600000Y-73250000D02*
X124950000Y-73250000D01*
X119600000Y-52200000D02*
X119600000Y-73250000D01*
X124950000Y-52200000D02*
X119600000Y-52200000D01*
G04 #@! TO.C,LED 2*
X135110000Y-52200000D02*
X129760000Y-52200000D01*
X129760000Y-52200000D02*
X129760000Y-73250000D01*
X129760000Y-73250000D02*
X135110000Y-73250000D01*
X135110000Y-73250000D02*
X135110000Y-52200000D01*
G04 #@! TO.C,LED 3*
X145270000Y-73250000D02*
X145270000Y-52200000D01*
X139920000Y-73250000D02*
X145270000Y-73250000D01*
X139920000Y-52200000D02*
X139920000Y-73250000D01*
X145270000Y-52200000D02*
X139920000Y-52200000D01*
G04 #@! TO.C,LED 4*
X155430000Y-52200000D02*
X150080000Y-52200000D01*
X150080000Y-52200000D02*
X150080000Y-73250000D01*
X150080000Y-73250000D02*
X155430000Y-73250000D01*
X155430000Y-73250000D02*
X155430000Y-52200000D01*
G04 #@! TD*
M02*
