M48
;DRILL file {KiCad (5.0.0)} date 01/07/20 20:31:58
;FORMAT={-:-/ absolute / metric / decimal}
FMAT,2
METRIC,TZ
T1C0.750
T2C1.000
%
G90
G05
M71
T1
X168.3Y-87.5
X168.3Y-89.5
X170.3Y-87.5
X170.3Y-89.5
X172.3Y-87.5
X172.3Y-89.5
X174.3Y-87.5
X174.3Y-89.5
X142.6Y-87.5
X142.6Y-89.5
X144.6Y-87.5
X144.6Y-89.5
X146.6Y-87.5
X146.6Y-89.5
X148.6Y-87.5
X148.6Y-89.5
T2
X141.32Y-57.3
X141.32Y-70.
X143.86Y-62.38
X121.Y-57.3
X121.Y-70.
X123.54Y-62.38
X192.12Y-57.3
X192.12Y-70.
X194.66Y-62.38
X161.8Y-57.3
X161.8Y-70.
X164.34Y-62.38
X151.48Y-57.3
X151.48Y-70.
X154.02Y-62.38
X181.96Y-57.3
X181.96Y-70.
X184.5Y-62.38
X171.8Y-57.3
X171.8Y-70.
X174.34Y-62.38
X131.16Y-57.3
X131.16Y-70.
X133.7Y-62.38
T0
M30
