G04 #@! TF.GenerationSoftware,KiCad,Pcbnew,(5.0.0)*
G04 #@! TF.CreationDate,2020-01-07T20:32:05+00:00*
G04 #@! TF.ProjectId,Potentiometer_mount_8LED,506F74656E74696F6D657465725F6D6F,rev?*
G04 #@! TF.SameCoordinates,Original*
G04 #@! TF.FileFunction,Legend,Top*
G04 #@! TF.FilePolarity,Positive*
%FSLAX46Y46*%
G04 Gerber Fmt 4.6, Leading zero omitted, Abs format (unit mm)*
G04 Created by KiCad (PCBNEW (5.0.0)) date 01/07/20 20:32:05*
%MOMM*%
%LPD*%
G01*
G04 APERTURE LIST*
%ADD10C,0.200000*%
%ADD11C,0.120000*%
%ADD12C,0.150000*%
G04 APERTURE END LIST*
D10*
X170640476Y-81752380D02*
X170450000Y-81752380D01*
X170354761Y-81800000D01*
X170307142Y-81847619D01*
X170211904Y-81990476D01*
X170164285Y-82180952D01*
X170164285Y-82561904D01*
X170211904Y-82657142D01*
X170259523Y-82704761D01*
X170354761Y-82752380D01*
X170545238Y-82752380D01*
X170640476Y-82704761D01*
X170688095Y-82657142D01*
X170735714Y-82561904D01*
X170735714Y-82323809D01*
X170688095Y-82228571D01*
X170640476Y-82180952D01*
X170545238Y-82133333D01*
X170354761Y-82133333D01*
X170259523Y-82180952D01*
X170211904Y-82228571D01*
X170164285Y-82323809D01*
X168638095Y-81802380D02*
X168161904Y-81802380D01*
X168114285Y-82278571D01*
X168161904Y-82230952D01*
X168257142Y-82183333D01*
X168495238Y-82183333D01*
X168590476Y-82230952D01*
X168638095Y-82278571D01*
X168685714Y-82373809D01*
X168685714Y-82611904D01*
X168638095Y-82707142D01*
X168590476Y-82754761D01*
X168495238Y-82802380D01*
X168257142Y-82802380D01*
X168161904Y-82754761D01*
X168114285Y-82707142D01*
X170114285Y-80347619D02*
X170161904Y-80300000D01*
X170257142Y-80252380D01*
X170495238Y-80252380D01*
X170590476Y-80300000D01*
X170638095Y-80347619D01*
X170685714Y-80442857D01*
X170685714Y-80538095D01*
X170638095Y-80680952D01*
X170066666Y-81252380D01*
X170685714Y-81252380D01*
X172116666Y-80302380D02*
X172735714Y-80302380D01*
X172402380Y-80683333D01*
X172545238Y-80683333D01*
X172640476Y-80730952D01*
X172688095Y-80778571D01*
X172735714Y-80873809D01*
X172735714Y-81111904D01*
X172688095Y-81207142D01*
X172640476Y-81254761D01*
X172545238Y-81302380D01*
X172259523Y-81302380D01*
X172164285Y-81254761D01*
X172116666Y-81207142D01*
X174590476Y-80585714D02*
X174590476Y-81252380D01*
X174352380Y-80204761D02*
X174114285Y-80919047D01*
X174733333Y-80919047D01*
X174304761Y-82180952D02*
X174209523Y-82133333D01*
X174161904Y-82085714D01*
X174114285Y-81990476D01*
X174114285Y-81942857D01*
X174161904Y-81847619D01*
X174209523Y-81800000D01*
X174304761Y-81752380D01*
X174495238Y-81752380D01*
X174590476Y-81800000D01*
X174638095Y-81847619D01*
X174685714Y-81942857D01*
X174685714Y-81990476D01*
X174638095Y-82085714D01*
X174590476Y-82133333D01*
X174495238Y-82180952D01*
X174304761Y-82180952D01*
X174209523Y-82228571D01*
X174161904Y-82276190D01*
X174114285Y-82371428D01*
X174114285Y-82561904D01*
X174161904Y-82657142D01*
X174209523Y-82704761D01*
X174304761Y-82752380D01*
X174495238Y-82752380D01*
X174590476Y-82704761D01*
X174638095Y-82657142D01*
X174685714Y-82561904D01*
X174685714Y-82371428D01*
X174638095Y-82276190D01*
X174590476Y-82228571D01*
X174495238Y-82180952D01*
X168685714Y-81202380D02*
X168114285Y-81202380D01*
X168400000Y-81202380D02*
X168400000Y-80202380D01*
X168304761Y-80345238D01*
X168209523Y-80440476D01*
X168114285Y-80488095D01*
X172116666Y-81752380D02*
X172783333Y-81752380D01*
X172354761Y-82752380D01*
X148790476Y-80835714D02*
X148790476Y-81502380D01*
X148552380Y-80454761D02*
X148314285Y-81169047D01*
X148933333Y-81169047D01*
X146316666Y-80552380D02*
X146935714Y-80552380D01*
X146602380Y-80933333D01*
X146745238Y-80933333D01*
X146840476Y-80980952D01*
X146888095Y-81028571D01*
X146935714Y-81123809D01*
X146935714Y-81361904D01*
X146888095Y-81457142D01*
X146840476Y-81504761D01*
X146745238Y-81552380D01*
X146459523Y-81552380D01*
X146364285Y-81504761D01*
X146316666Y-81457142D01*
X144314285Y-80597619D02*
X144361904Y-80550000D01*
X144457142Y-80502380D01*
X144695238Y-80502380D01*
X144790476Y-80550000D01*
X144838095Y-80597619D01*
X144885714Y-80692857D01*
X144885714Y-80788095D01*
X144838095Y-80930952D01*
X144266666Y-81502380D01*
X144885714Y-81502380D01*
X142885714Y-81452380D02*
X142314285Y-81452380D01*
X142600000Y-81452380D02*
X142600000Y-80452380D01*
X142504761Y-80595238D01*
X142409523Y-80690476D01*
X142314285Y-80738095D01*
X148504761Y-82430952D02*
X148409523Y-82383333D01*
X148361904Y-82335714D01*
X148314285Y-82240476D01*
X148314285Y-82192857D01*
X148361904Y-82097619D01*
X148409523Y-82050000D01*
X148504761Y-82002380D01*
X148695238Y-82002380D01*
X148790476Y-82050000D01*
X148838095Y-82097619D01*
X148885714Y-82192857D01*
X148885714Y-82240476D01*
X148838095Y-82335714D01*
X148790476Y-82383333D01*
X148695238Y-82430952D01*
X148504761Y-82430952D01*
X148409523Y-82478571D01*
X148361904Y-82526190D01*
X148314285Y-82621428D01*
X148314285Y-82811904D01*
X148361904Y-82907142D01*
X148409523Y-82954761D01*
X148504761Y-83002380D01*
X148695238Y-83002380D01*
X148790476Y-82954761D01*
X148838095Y-82907142D01*
X148885714Y-82811904D01*
X148885714Y-82621428D01*
X148838095Y-82526190D01*
X148790476Y-82478571D01*
X148695238Y-82430952D01*
X146316666Y-82002380D02*
X146983333Y-82002380D01*
X146554761Y-83002380D01*
X144840476Y-82002380D02*
X144650000Y-82002380D01*
X144554761Y-82050000D01*
X144507142Y-82097619D01*
X144411904Y-82240476D01*
X144364285Y-82430952D01*
X144364285Y-82811904D01*
X144411904Y-82907142D01*
X144459523Y-82954761D01*
X144554761Y-83002380D01*
X144745238Y-83002380D01*
X144840476Y-82954761D01*
X144888095Y-82907142D01*
X144935714Y-82811904D01*
X144935714Y-82573809D01*
X144888095Y-82478571D01*
X144840476Y-82430952D01*
X144745238Y-82383333D01*
X144554761Y-82383333D01*
X144459523Y-82430952D01*
X144411904Y-82478571D01*
X144364285Y-82573809D01*
X142838095Y-82052380D02*
X142361904Y-82052380D01*
X142314285Y-82528571D01*
X142361904Y-82480952D01*
X142457142Y-82433333D01*
X142695238Y-82433333D01*
X142790476Y-82480952D01*
X142838095Y-82528571D01*
X142885714Y-82623809D01*
X142885714Y-82861904D01*
X142838095Y-82957142D01*
X142790476Y-83004761D01*
X142695238Y-83052380D01*
X142457142Y-83052380D01*
X142361904Y-83004761D01*
X142314285Y-82957142D01*
D11*
G04 #@! TO.C,LED 8*
X193390000Y-52360000D02*
X193390000Y-53119000D01*
X194690000Y-53879000D02*
X192090000Y-53879000D01*
X194690000Y-52360000D02*
X192090000Y-52360000D01*
X192090000Y-52360000D02*
X192090000Y-53879000D01*
X194690000Y-52360000D02*
X194690000Y-53879000D01*
X195910000Y-73120000D02*
X190870000Y-73120000D01*
X195910000Y-53880000D02*
X190870000Y-53880000D01*
X190870000Y-53880000D02*
X190870000Y-73120000D01*
X195910000Y-53880000D02*
X195910000Y-73120000D01*
G04 #@! TO.C,LED 7*
X183230000Y-52360000D02*
X183230000Y-53119000D01*
X184530000Y-53879000D02*
X181930000Y-53879000D01*
X184530000Y-52360000D02*
X181930000Y-52360000D01*
X181930000Y-52360000D02*
X181930000Y-53879000D01*
X184530000Y-52360000D02*
X184530000Y-53879000D01*
X185750000Y-73120000D02*
X180710000Y-73120000D01*
X185750000Y-53880000D02*
X180710000Y-53880000D01*
X180710000Y-53880000D02*
X180710000Y-73120000D01*
X185750000Y-53880000D02*
X185750000Y-73120000D01*
G04 #@! TO.C,LED 5*
X163070000Y-52360000D02*
X163070000Y-53119000D01*
X164370000Y-53879000D02*
X161770000Y-53879000D01*
X164370000Y-52360000D02*
X161770000Y-52360000D01*
X161770000Y-52360000D02*
X161770000Y-53879000D01*
X164370000Y-52360000D02*
X164370000Y-53879000D01*
X165590000Y-73120000D02*
X160550000Y-73120000D01*
X165590000Y-53880000D02*
X160550000Y-53880000D01*
X160550000Y-53880000D02*
X160550000Y-73120000D01*
X165590000Y-53880000D02*
X165590000Y-73120000D01*
G04 #@! TO.C,LED 6*
X173070000Y-52360000D02*
X173070000Y-53119000D01*
X174370000Y-53879000D02*
X171770000Y-53879000D01*
X174370000Y-52360000D02*
X171770000Y-52360000D01*
X171770000Y-52360000D02*
X171770000Y-53879000D01*
X174370000Y-52360000D02*
X174370000Y-53879000D01*
X175590000Y-73120000D02*
X170550000Y-73120000D01*
X175590000Y-53880000D02*
X170550000Y-53880000D01*
X170550000Y-53880000D02*
X170550000Y-73120000D01*
X175590000Y-53880000D02*
X175590000Y-73120000D01*
G04 #@! TO.C,To LED*
X165390000Y-87200000D02*
X165990000Y-87500000D01*
X165390000Y-87800000D02*
X165390000Y-87200000D01*
X165990000Y-87500000D02*
X165390000Y-87800000D01*
X176410000Y-83490000D02*
X166190000Y-83490000D01*
X176410000Y-92010000D02*
X176410000Y-83490000D01*
X166190000Y-92010000D02*
X176410000Y-92010000D01*
X166190000Y-83490000D02*
X166190000Y-92010000D01*
X175550000Y-91150000D02*
X171300000Y-91150000D01*
X175550000Y-84350000D02*
X175550000Y-91150000D01*
X174550000Y-84350000D02*
X175550000Y-84350000D01*
X174550000Y-85100000D02*
X174550000Y-84350000D01*
X173800000Y-85100000D02*
X174550000Y-85100000D01*
X173800000Y-83490000D02*
X173800000Y-85100000D01*
X167050000Y-91150000D02*
X171300000Y-91150000D01*
X167050000Y-84350000D02*
X167050000Y-91150000D01*
X168050000Y-84350000D02*
X167050000Y-84350000D01*
X168050000Y-85100000D02*
X168050000Y-84350000D01*
X168800000Y-85100000D02*
X168050000Y-85100000D01*
X168800000Y-83490000D02*
X168800000Y-85100000D01*
X173050000Y-84350000D02*
X169550000Y-84350000D01*
X173050000Y-85100000D02*
X173050000Y-84350000D01*
X169550000Y-85100000D02*
X173050000Y-85100000D01*
X169550000Y-84350000D02*
X169550000Y-85100000D01*
G04 #@! TO.C,From Stimlator*
X139690000Y-87200000D02*
X140290000Y-87500000D01*
X139690000Y-87800000D02*
X139690000Y-87200000D01*
X140290000Y-87500000D02*
X139690000Y-87800000D01*
X150710000Y-83490000D02*
X140490000Y-83490000D01*
X150710000Y-92010000D02*
X150710000Y-83490000D01*
X140490000Y-92010000D02*
X150710000Y-92010000D01*
X140490000Y-83490000D02*
X140490000Y-92010000D01*
X149850000Y-91150000D02*
X145600000Y-91150000D01*
X149850000Y-84350000D02*
X149850000Y-91150000D01*
X148850000Y-84350000D02*
X149850000Y-84350000D01*
X148850000Y-85100000D02*
X148850000Y-84350000D01*
X148100000Y-85100000D02*
X148850000Y-85100000D01*
X148100000Y-83490000D02*
X148100000Y-85100000D01*
X141350000Y-91150000D02*
X145600000Y-91150000D01*
X141350000Y-84350000D02*
X141350000Y-91150000D01*
X142350000Y-84350000D02*
X141350000Y-84350000D01*
X142350000Y-85100000D02*
X142350000Y-84350000D01*
X143100000Y-85100000D02*
X142350000Y-85100000D01*
X143100000Y-83490000D02*
X143100000Y-85100000D01*
X147350000Y-84350000D02*
X143850000Y-84350000D01*
X147350000Y-85100000D02*
X147350000Y-84350000D01*
X143850000Y-85100000D02*
X147350000Y-85100000D01*
X143850000Y-84350000D02*
X143850000Y-85100000D01*
G04 #@! TO.C,LED 1*
X122270000Y-52360000D02*
X122270000Y-53119000D01*
X123570000Y-53879000D02*
X120970000Y-53879000D01*
X123570000Y-52360000D02*
X120970000Y-52360000D01*
X120970000Y-52360000D02*
X120970000Y-53879000D01*
X123570000Y-52360000D02*
X123570000Y-53879000D01*
X124790000Y-73120000D02*
X119750000Y-73120000D01*
X124790000Y-53880000D02*
X119750000Y-53880000D01*
X119750000Y-53880000D02*
X119750000Y-73120000D01*
X124790000Y-53880000D02*
X124790000Y-73120000D01*
G04 #@! TO.C,LED 2*
X134950000Y-53880000D02*
X134950000Y-73120000D01*
X129910000Y-53880000D02*
X129910000Y-73120000D01*
X134950000Y-53880000D02*
X129910000Y-53880000D01*
X134950000Y-73120000D02*
X129910000Y-73120000D01*
X133730000Y-52360000D02*
X133730000Y-53879000D01*
X131130000Y-52360000D02*
X131130000Y-53879000D01*
X133730000Y-52360000D02*
X131130000Y-52360000D01*
X133730000Y-53879000D02*
X131130000Y-53879000D01*
X132430000Y-52360000D02*
X132430000Y-53119000D01*
G04 #@! TO.C,LED 3*
X142590000Y-52360000D02*
X142590000Y-53119000D01*
X143890000Y-53879000D02*
X141290000Y-53879000D01*
X143890000Y-52360000D02*
X141290000Y-52360000D01*
X141290000Y-52360000D02*
X141290000Y-53879000D01*
X143890000Y-52360000D02*
X143890000Y-53879000D01*
X145110000Y-73120000D02*
X140070000Y-73120000D01*
X145110000Y-53880000D02*
X140070000Y-53880000D01*
X140070000Y-53880000D02*
X140070000Y-73120000D01*
X145110000Y-53880000D02*
X145110000Y-73120000D01*
G04 #@! TO.C,LED 4*
X155270000Y-53880000D02*
X155270000Y-73120000D01*
X150230000Y-53880000D02*
X150230000Y-73120000D01*
X155270000Y-53880000D02*
X150230000Y-53880000D01*
X155270000Y-73120000D02*
X150230000Y-73120000D01*
X154050000Y-52360000D02*
X154050000Y-53879000D01*
X151450000Y-52360000D02*
X151450000Y-53879000D01*
X154050000Y-52360000D02*
X151450000Y-52360000D01*
X154050000Y-53879000D02*
X151450000Y-53879000D01*
X152750000Y-52360000D02*
X152750000Y-53119000D01*
G04 #@! TO.C,LED 8*
D12*
X191940000Y-74852380D02*
X191463809Y-74852380D01*
X191463809Y-73852380D01*
X192273333Y-74328571D02*
X192606666Y-74328571D01*
X192749523Y-74852380D02*
X192273333Y-74852380D01*
X192273333Y-73852380D01*
X192749523Y-73852380D01*
X193178095Y-74852380D02*
X193178095Y-73852380D01*
X193416190Y-73852380D01*
X193559047Y-73900000D01*
X193654285Y-73995238D01*
X193701904Y-74090476D01*
X193749523Y-74280952D01*
X193749523Y-74423809D01*
X193701904Y-74614285D01*
X193654285Y-74709523D01*
X193559047Y-74804761D01*
X193416190Y-74852380D01*
X193178095Y-74852380D01*
X195082857Y-74280952D02*
X194987619Y-74233333D01*
X194940000Y-74185714D01*
X194892380Y-74090476D01*
X194892380Y-74042857D01*
X194940000Y-73947619D01*
X194987619Y-73900000D01*
X195082857Y-73852380D01*
X195273333Y-73852380D01*
X195368571Y-73900000D01*
X195416190Y-73947619D01*
X195463809Y-74042857D01*
X195463809Y-74090476D01*
X195416190Y-74185714D01*
X195368571Y-74233333D01*
X195273333Y-74280952D01*
X195082857Y-74280952D01*
X194987619Y-74328571D01*
X194940000Y-74376190D01*
X194892380Y-74471428D01*
X194892380Y-74661904D01*
X194940000Y-74757142D01*
X194987619Y-74804761D01*
X195082857Y-74852380D01*
X195273333Y-74852380D01*
X195368571Y-74804761D01*
X195416190Y-74757142D01*
X195463809Y-74661904D01*
X195463809Y-74471428D01*
X195416190Y-74376190D01*
X195368571Y-74328571D01*
X195273333Y-74280952D01*
G04 #@! TO.C,LED 7*
X181780000Y-74852380D02*
X181303809Y-74852380D01*
X181303809Y-73852380D01*
X182113333Y-74328571D02*
X182446666Y-74328571D01*
X182589523Y-74852380D02*
X182113333Y-74852380D01*
X182113333Y-73852380D01*
X182589523Y-73852380D01*
X183018095Y-74852380D02*
X183018095Y-73852380D01*
X183256190Y-73852380D01*
X183399047Y-73900000D01*
X183494285Y-73995238D01*
X183541904Y-74090476D01*
X183589523Y-74280952D01*
X183589523Y-74423809D01*
X183541904Y-74614285D01*
X183494285Y-74709523D01*
X183399047Y-74804761D01*
X183256190Y-74852380D01*
X183018095Y-74852380D01*
X184684761Y-73852380D02*
X185351428Y-73852380D01*
X184922857Y-74852380D01*
G04 #@! TO.C,LED 5*
X161620000Y-74852380D02*
X161143809Y-74852380D01*
X161143809Y-73852380D01*
X161953333Y-74328571D02*
X162286666Y-74328571D01*
X162429523Y-74852380D02*
X161953333Y-74852380D01*
X161953333Y-73852380D01*
X162429523Y-73852380D01*
X162858095Y-74852380D02*
X162858095Y-73852380D01*
X163096190Y-73852380D01*
X163239047Y-73900000D01*
X163334285Y-73995238D01*
X163381904Y-74090476D01*
X163429523Y-74280952D01*
X163429523Y-74423809D01*
X163381904Y-74614285D01*
X163334285Y-74709523D01*
X163239047Y-74804761D01*
X163096190Y-74852380D01*
X162858095Y-74852380D01*
X165096190Y-73852380D02*
X164620000Y-73852380D01*
X164572380Y-74328571D01*
X164620000Y-74280952D01*
X164715238Y-74233333D01*
X164953333Y-74233333D01*
X165048571Y-74280952D01*
X165096190Y-74328571D01*
X165143809Y-74423809D01*
X165143809Y-74661904D01*
X165096190Y-74757142D01*
X165048571Y-74804761D01*
X164953333Y-74852380D01*
X164715238Y-74852380D01*
X164620000Y-74804761D01*
X164572380Y-74757142D01*
G04 #@! TO.C,LED 6*
X171620000Y-74852380D02*
X171143809Y-74852380D01*
X171143809Y-73852380D01*
X171953333Y-74328571D02*
X172286666Y-74328571D01*
X172429523Y-74852380D02*
X171953333Y-74852380D01*
X171953333Y-73852380D01*
X172429523Y-73852380D01*
X172858095Y-74852380D02*
X172858095Y-73852380D01*
X173096190Y-73852380D01*
X173239047Y-73900000D01*
X173334285Y-73995238D01*
X173381904Y-74090476D01*
X173429523Y-74280952D01*
X173429523Y-74423809D01*
X173381904Y-74614285D01*
X173334285Y-74709523D01*
X173239047Y-74804761D01*
X173096190Y-74852380D01*
X172858095Y-74852380D01*
X175048571Y-73852380D02*
X174858095Y-73852380D01*
X174762857Y-73900000D01*
X174715238Y-73947619D01*
X174620000Y-74090476D01*
X174572380Y-74280952D01*
X174572380Y-74661904D01*
X174620000Y-74757142D01*
X174667619Y-74804761D01*
X174762857Y-74852380D01*
X174953333Y-74852380D01*
X175048571Y-74804761D01*
X175096190Y-74757142D01*
X175143809Y-74661904D01*
X175143809Y-74423809D01*
X175096190Y-74328571D01*
X175048571Y-74280952D01*
X174953333Y-74233333D01*
X174762857Y-74233333D01*
X174667619Y-74280952D01*
X174620000Y-74328571D01*
X174572380Y-74423809D01*
G04 #@! TO.C,To LED*
X168823809Y-92602380D02*
X169395238Y-92602380D01*
X169109523Y-93602380D02*
X169109523Y-92602380D01*
X169871428Y-93602380D02*
X169776190Y-93554761D01*
X169728571Y-93507142D01*
X169680952Y-93411904D01*
X169680952Y-93126190D01*
X169728571Y-93030952D01*
X169776190Y-92983333D01*
X169871428Y-92935714D01*
X170014285Y-92935714D01*
X170109523Y-92983333D01*
X170157142Y-93030952D01*
X170204761Y-93126190D01*
X170204761Y-93411904D01*
X170157142Y-93507142D01*
X170109523Y-93554761D01*
X170014285Y-93602380D01*
X169871428Y-93602380D01*
X171871428Y-93602380D02*
X171395238Y-93602380D01*
X171395238Y-92602380D01*
X172204761Y-93078571D02*
X172538095Y-93078571D01*
X172680952Y-93602380D02*
X172204761Y-93602380D01*
X172204761Y-92602380D01*
X172680952Y-92602380D01*
X173109523Y-93602380D02*
X173109523Y-92602380D01*
X173347619Y-92602380D01*
X173490476Y-92650000D01*
X173585714Y-92745238D01*
X173633333Y-92840476D01*
X173680952Y-93030952D01*
X173680952Y-93173809D01*
X173633333Y-93364285D01*
X173585714Y-93459523D01*
X173490476Y-93554761D01*
X173347619Y-93602380D01*
X173109523Y-93602380D01*
G04 #@! TO.C,From Stimlator*
X140554761Y-93028571D02*
X140221428Y-93028571D01*
X140221428Y-93552380D02*
X140221428Y-92552380D01*
X140697619Y-92552380D01*
X141078571Y-93552380D02*
X141078571Y-92885714D01*
X141078571Y-93076190D02*
X141126190Y-92980952D01*
X141173809Y-92933333D01*
X141269047Y-92885714D01*
X141364285Y-92885714D01*
X141840476Y-93552380D02*
X141745238Y-93504761D01*
X141697619Y-93457142D01*
X141650000Y-93361904D01*
X141650000Y-93076190D01*
X141697619Y-92980952D01*
X141745238Y-92933333D01*
X141840476Y-92885714D01*
X141983333Y-92885714D01*
X142078571Y-92933333D01*
X142126190Y-92980952D01*
X142173809Y-93076190D01*
X142173809Y-93361904D01*
X142126190Y-93457142D01*
X142078571Y-93504761D01*
X141983333Y-93552380D01*
X141840476Y-93552380D01*
X142602380Y-93552380D02*
X142602380Y-92885714D01*
X142602380Y-92980952D02*
X142650000Y-92933333D01*
X142745238Y-92885714D01*
X142888095Y-92885714D01*
X142983333Y-92933333D01*
X143030952Y-93028571D01*
X143030952Y-93552380D01*
X143030952Y-93028571D02*
X143078571Y-92933333D01*
X143173809Y-92885714D01*
X143316666Y-92885714D01*
X143411904Y-92933333D01*
X143459523Y-93028571D01*
X143459523Y-93552380D01*
X144650000Y-93504761D02*
X144792857Y-93552380D01*
X145030952Y-93552380D01*
X145126190Y-93504761D01*
X145173809Y-93457142D01*
X145221428Y-93361904D01*
X145221428Y-93266666D01*
X145173809Y-93171428D01*
X145126190Y-93123809D01*
X145030952Y-93076190D01*
X144840476Y-93028571D01*
X144745238Y-92980952D01*
X144697619Y-92933333D01*
X144650000Y-92838095D01*
X144650000Y-92742857D01*
X144697619Y-92647619D01*
X144745238Y-92600000D01*
X144840476Y-92552380D01*
X145078571Y-92552380D01*
X145221428Y-92600000D01*
X145507142Y-92885714D02*
X145888095Y-92885714D01*
X145650000Y-92552380D02*
X145650000Y-93409523D01*
X145697619Y-93504761D01*
X145792857Y-93552380D01*
X145888095Y-93552380D01*
X146221428Y-93552380D02*
X146221428Y-92885714D01*
X146221428Y-92552380D02*
X146173809Y-92600000D01*
X146221428Y-92647619D01*
X146269047Y-92600000D01*
X146221428Y-92552380D01*
X146221428Y-92647619D01*
X146697619Y-93552380D02*
X146697619Y-92885714D01*
X146697619Y-92980952D02*
X146745238Y-92933333D01*
X146840476Y-92885714D01*
X146983333Y-92885714D01*
X147078571Y-92933333D01*
X147126190Y-93028571D01*
X147126190Y-93552380D01*
X147126190Y-93028571D02*
X147173809Y-92933333D01*
X147269047Y-92885714D01*
X147411904Y-92885714D01*
X147507142Y-92933333D01*
X147554761Y-93028571D01*
X147554761Y-93552380D01*
X148173809Y-93552380D02*
X148078571Y-93504761D01*
X148030952Y-93409523D01*
X148030952Y-92552380D01*
X148983333Y-93552380D02*
X148983333Y-93028571D01*
X148935714Y-92933333D01*
X148840476Y-92885714D01*
X148650000Y-92885714D01*
X148554761Y-92933333D01*
X148983333Y-93504761D02*
X148888095Y-93552380D01*
X148650000Y-93552380D01*
X148554761Y-93504761D01*
X148507142Y-93409523D01*
X148507142Y-93314285D01*
X148554761Y-93219047D01*
X148650000Y-93171428D01*
X148888095Y-93171428D01*
X148983333Y-93123809D01*
X149316666Y-92885714D02*
X149697619Y-92885714D01*
X149459523Y-92552380D02*
X149459523Y-93409523D01*
X149507142Y-93504761D01*
X149602380Y-93552380D01*
X149697619Y-93552380D01*
X150173809Y-93552380D02*
X150078571Y-93504761D01*
X150030952Y-93457142D01*
X149983333Y-93361904D01*
X149983333Y-93076190D01*
X150030952Y-92980952D01*
X150078571Y-92933333D01*
X150173809Y-92885714D01*
X150316666Y-92885714D01*
X150411904Y-92933333D01*
X150459523Y-92980952D01*
X150507142Y-93076190D01*
X150507142Y-93361904D01*
X150459523Y-93457142D01*
X150411904Y-93504761D01*
X150316666Y-93552380D01*
X150173809Y-93552380D01*
X150935714Y-93552380D02*
X150935714Y-92885714D01*
X150935714Y-93076190D02*
X150983333Y-92980952D01*
X151030952Y-92933333D01*
X151126190Y-92885714D01*
X151221428Y-92885714D01*
G04 #@! TO.C,LED 1*
X120800000Y-74852380D02*
X120323809Y-74852380D01*
X120323809Y-73852380D01*
X121133333Y-74328571D02*
X121466666Y-74328571D01*
X121609523Y-74852380D02*
X121133333Y-74852380D01*
X121133333Y-73852380D01*
X121609523Y-73852380D01*
X122038095Y-74852380D02*
X122038095Y-73852380D01*
X122276190Y-73852380D01*
X122419047Y-73900000D01*
X122514285Y-73995238D01*
X122561904Y-74090476D01*
X122609523Y-74280952D01*
X122609523Y-74423809D01*
X122561904Y-74614285D01*
X122514285Y-74709523D01*
X122419047Y-74804761D01*
X122276190Y-74852380D01*
X122038095Y-74852380D01*
X124323809Y-74852380D02*
X123752380Y-74852380D01*
X124038095Y-74852380D02*
X124038095Y-73852380D01*
X123942857Y-73995238D01*
X123847619Y-74090476D01*
X123752380Y-74138095D01*
G04 #@! TO.C,LED 2*
X131000000Y-74852380D02*
X130523809Y-74852380D01*
X130523809Y-73852380D01*
X131333333Y-74328571D02*
X131666666Y-74328571D01*
X131809523Y-74852380D02*
X131333333Y-74852380D01*
X131333333Y-73852380D01*
X131809523Y-73852380D01*
X132238095Y-74852380D02*
X132238095Y-73852380D01*
X132476190Y-73852380D01*
X132619047Y-73900000D01*
X132714285Y-73995238D01*
X132761904Y-74090476D01*
X132809523Y-74280952D01*
X132809523Y-74423809D01*
X132761904Y-74614285D01*
X132714285Y-74709523D01*
X132619047Y-74804761D01*
X132476190Y-74852380D01*
X132238095Y-74852380D01*
X133952380Y-73947619D02*
X134000000Y-73900000D01*
X134095238Y-73852380D01*
X134333333Y-73852380D01*
X134428571Y-73900000D01*
X134476190Y-73947619D01*
X134523809Y-74042857D01*
X134523809Y-74138095D01*
X134476190Y-74280952D01*
X133904761Y-74852380D01*
X134523809Y-74852380D01*
G04 #@! TO.C,LED 3*
X141200000Y-74852380D02*
X140723809Y-74852380D01*
X140723809Y-73852380D01*
X141533333Y-74328571D02*
X141866666Y-74328571D01*
X142009523Y-74852380D02*
X141533333Y-74852380D01*
X141533333Y-73852380D01*
X142009523Y-73852380D01*
X142438095Y-74852380D02*
X142438095Y-73852380D01*
X142676190Y-73852380D01*
X142819047Y-73900000D01*
X142914285Y-73995238D01*
X142961904Y-74090476D01*
X143009523Y-74280952D01*
X143009523Y-74423809D01*
X142961904Y-74614285D01*
X142914285Y-74709523D01*
X142819047Y-74804761D01*
X142676190Y-74852380D01*
X142438095Y-74852380D01*
X144104761Y-73852380D02*
X144723809Y-73852380D01*
X144390476Y-74233333D01*
X144533333Y-74233333D01*
X144628571Y-74280952D01*
X144676190Y-74328571D01*
X144723809Y-74423809D01*
X144723809Y-74661904D01*
X144676190Y-74757142D01*
X144628571Y-74804761D01*
X144533333Y-74852380D01*
X144247619Y-74852380D01*
X144152380Y-74804761D01*
X144104761Y-74757142D01*
G04 #@! TO.C,LED 4*
X151300000Y-74852380D02*
X150823809Y-74852380D01*
X150823809Y-73852380D01*
X151633333Y-74328571D02*
X151966666Y-74328571D01*
X152109523Y-74852380D02*
X151633333Y-74852380D01*
X151633333Y-73852380D01*
X152109523Y-73852380D01*
X152538095Y-74852380D02*
X152538095Y-73852380D01*
X152776190Y-73852380D01*
X152919047Y-73900000D01*
X153014285Y-73995238D01*
X153061904Y-74090476D01*
X153109523Y-74280952D01*
X153109523Y-74423809D01*
X153061904Y-74614285D01*
X153014285Y-74709523D01*
X152919047Y-74804761D01*
X152776190Y-74852380D01*
X152538095Y-74852380D01*
X154728571Y-74185714D02*
X154728571Y-74852380D01*
X154490476Y-73804761D02*
X154252380Y-74519047D01*
X154871428Y-74519047D01*
G04 #@! TD*
M02*
