solid OpenSCAD_Model
  facet normal -0.707107 -0.707107 0
    outer loop
      vertex -15.3342 -12.7986 36.7
      vertex -11.7986 -16.3342 65.85
      vertex -15.3342 -12.7986 65.85
    endloop
  endfacet
  facet normal -0.707107 -0.707107 -0
    outer loop
      vertex -11.7986 -16.3342 65.85
      vertex -15.3342 -12.7986 36.7
      vertex -11.7986 -16.3342 36.7
    endloop
  endfacet
  facet normal 0 0 1
    outer loop
      vertex 2.41421 0.707107 65.85
      vertex 17.3342 12.7986 65.85
      vertex 13.7986 16.3342 65.85
    endloop
  endfacet
  facet normal 0 0 1
    outer loop
      vertex 17.3342 12.7986 65.85
      vertex 2.41421 0.707107 65.85
      vertex 3.82843 -0.707107 65.85
    endloop
  endfacet
  facet normal 0 0 1
    outer loop
      vertex 13.7986 16.3342 65.85
      vertex -0.414214 -2.12132 65.85
      vertex 2.41421 0.707107 65.85
    endloop
  endfacet
  facet normal 0 0 1
    outer loop
      vertex -15.3342 -12.7986 65.85
      vertex -0.414214 -2.12132 65.85
      vertex 13.7986 16.3342 65.85
    endloop
  endfacet
  facet normal 0 0 1
    outer loop
      vertex -0.414214 -2.12132 65.85
      vertex -15.3342 -12.7986 65.85
      vertex -11.7986 -16.3342 65.85
    endloop
  endfacet
  facet normal 0 0 1
    outer loop
      vertex 1 -3.53553 65.85
      vertex -0.414214 -2.12132 65.85
      vertex -11.7986 -16.3342 65.85
    endloop
  endfacet
  facet normal 0.707107 0.707107 0
    outer loop
      vertex 17.3342 12.7986 65.85
      vertex 13.7986 16.3342 36.7
      vertex 13.7986 16.3342 65.85
    endloop
  endfacet
  facet normal 0.707107 0.707107 0
    outer loop
      vertex 13.7986 16.3342 36.7
      vertex 17.3342 12.7986 65.85
      vertex 17.3342 12.7986 36.7
    endloop
  endfacet
  facet normal 0 0 -1
    outer loop
      vertex -11.7986 -16.3342 36.7
      vertex 13.7986 16.3342 36.7
      vertex 17.3342 12.7986 36.7
    endloop
  endfacet
  facet normal 0 0 -1
    outer loop
      vertex 13.7986 16.3342 36.7
      vertex -11.7986 -16.3342 36.7
      vertex -15.3342 -12.7986 36.7
    endloop
  endfacet
  facet normal 0.707107 -0.707107 0
    outer loop
      vertex 1 -3.53553 65.85
      vertex -10.1016 -14.6371 64.7
      vertex 1 -3.53553 64.7
    endloop
  endfacet
  facet normal 0.707107 -0.707107 0
    outer loop
      vertex -10.1016 -14.6371 64.7
      vertex -11.7986 -16.3342 65.85
      vertex -10.1016 -14.6371 39.1
    endloop
  endfacet
  facet normal 0.707107 -0.707107 5.08637e-007
    outer loop
      vertex -11.7986 -16.3342 65.85
      vertex -10.1016 -14.6371 64.7
      vertex 1 -3.53553 65.85
    endloop
  endfacet
  facet normal 0.707107 -0.707107 0
    outer loop
      vertex 15.6371 11.1016 39.1
      vertex 17.3342 12.7986 65.85
      vertex 15.6371 11.1016 64.7
    endloop
  endfacet
  facet normal 0.707107 -0.707107 5.17313e-007
    outer loop
      vertex 3.82843 -0.707107 65.85
      vertex 15.6371 11.1016 64.7
      vertex 17.3342 12.7986 65.85
    endloop
  endfacet
  facet normal 0.707107 -0.707107 0
    outer loop
      vertex 15.6371 11.1016 64.7
      vertex 3.82843 -0.707107 65.85
      vertex 3.82843 -0.707107 64.7
    endloop
  endfacet
  facet normal 0.707107 -0.707107 0
    outer loop
      vertex 17.3342 12.7986 65.85
      vertex 15.6371 11.1016 39.1
      vertex 17.3342 12.7986 36.7
    endloop
  endfacet
  facet normal 0.707107 -0.707107 -2.80979e-007
    outer loop
      vertex -10.1016 -14.6371 39.1
      vertex 17.3342 12.7986 36.7
      vertex 15.6371 11.1016 39.1
    endloop
  endfacet
  facet normal 0.707107 -0.707107 -2.80979e-007
    outer loop
      vertex -10.1016 -14.6371 39.1
      vertex -11.7986 -16.3342 36.7
      vertex 17.3342 12.7986 36.7
    endloop
  endfacet
  facet normal 0.707107 -0.707107 0
    outer loop
      vertex -11.7986 -16.3342 36.7
      vertex -10.1016 -14.6371 39.1
      vertex -11.7986 -16.3342 65.85
    endloop
  endfacet
  facet normal -0.707107 0.707107 2.6258e-007
    outer loop
      vertex 13.7986 16.3342 65.85
      vertex 11.3238 13.8593 63.5
      vertex -15.3342 -12.7986 65.85
    endloop
  endfacet
  facet normal -0.707107 0.707107 0
    outer loop
      vertex 13.7986 16.3342 65.85
      vertex 11.3238 13.8593 40.1
      vertex 11.3238 13.8593 63.5
    endloop
  endfacet
  facet normal -0.707107 0.707107 -1.98338e-007
    outer loop
      vertex 11.3238 13.8593 40.1
      vertex 13.7986 16.3342 36.7
      vertex -12.8593 -10.3238 40.1
    endloop
  endfacet
  facet normal -0.707107 0.707107 0
    outer loop
      vertex 13.7986 16.3342 36.7
      vertex 11.3238 13.8593 40.1
      vertex 13.7986 16.3342 65.85
    endloop
  endfacet
  facet normal -0.707107 0.707107 0
    outer loop
      vertex -12.8593 -10.3238 63.5
      vertex -15.3342 -12.7986 65.85
      vertex 11.3238 13.8593 63.5
    endloop
  endfacet
  facet normal -0.707107 0.707107 0
    outer loop
      vertex -12.8593 -10.3238 40.1
      vertex -15.3342 -12.7986 65.85
      vertex -12.8593 -10.3238 63.5
    endloop
  endfacet
  facet normal -0.707107 0.707107 0
    outer loop
      vertex -12.8593 -10.3238 40.1
      vertex -15.3342 -12.7986 36.7
      vertex -15.3342 -12.7986 65.85
    endloop
  endfacet
  facet normal -0.707107 0.707107 -1.68491e-008
    outer loop
      vertex -15.3342 -12.7986 36.7
      vertex -12.8593 -10.3238 40.1
      vertex 13.7986 16.3342 36.7
    endloop
  endfacet
  facet normal 0.707107 0.707107 0
    outer loop
      vertex -10.1016 -14.6371 64.7
      vertex -11.5158 -13.2229 39.1
      vertex -11.5158 -13.2229 64.7
    endloop
  endfacet
  facet normal 0.707107 0.707107 0
    outer loop
      vertex -11.5158 -13.2229 39.1
      vertex -10.1016 -14.6371 64.7
      vertex -10.1016 -14.6371 39.1
    endloop
  endfacet
  facet normal 0 0 -1
    outer loop
      vertex -10.1016 -14.6371 64.7
      vertex -0.414214 -2.12132 64.7
      vertex 1 -3.53553 64.7
    endloop
  endfacet
  facet normal 0 0 -1
    outer loop
      vertex -0.414214 -2.12132 64.7
      vertex -10.1016 -14.6371 64.7
      vertex -11.5158 -13.2229 64.7
    endloop
  endfacet
  facet normal 0 0 -1
    outer loop
      vertex 3.82843 -0.707107 64.7
      vertex 14.2229 12.5158 64.7
      vertex 15.6371 11.1016 64.7
    endloop
  endfacet
  facet normal 0 0 -1
    outer loop
      vertex 14.2229 12.5158 64.7
      vertex 3.82843 -0.707107 64.7
      vertex 2.41421 0.707107 64.7
    endloop
  endfacet
  facet normal -0.707107 -0.707107 0
    outer loop
      vertex 14.2229 12.5158 39.1
      vertex 15.6371 11.1016 64.7
      vertex 14.2229 12.5158 64.7
    endloop
  endfacet
  facet normal -0.707107 -0.707107 -0
    outer loop
      vertex 15.6371 11.1016 64.7
      vertex 14.2229 12.5158 39.1
      vertex 15.6371 11.1016 39.1
    endloop
  endfacet
  facet normal 0.707107 -0.707107 0
    outer loop
      vertex 2.41421 0.707107 65.85
      vertex -0.414214 -2.12132 65.85
      vertex 2.41421 0.707107 64.7
    endloop
  endfacet
  facet normal 0.707107 -0.707107 0
    outer loop
      vertex 14.2229 12.5158 64.7
      vertex 13.4451 11.738 63.5
      vertex 14.2229 12.5158 39.1
    endloop
  endfacet
  facet normal 0.707107 -0.707107 -1.15673e-008
    outer loop
      vertex 2.41421 0.707107 64.7
      vertex 13.4451 11.738 63.5
      vertex 14.2229 12.5158 64.7
    endloop
  endfacet
  facet normal 0.707107 -0.707107 0
    outer loop
      vertex -0.414214 -2.12132 64.7
      vertex 2.41421 0.707107 64.7
      vertex -0.414214 -2.12132 65.85
    endloop
  endfacet
  facet normal 0.707107 -0.707107 -6.55034e-007
    outer loop
      vertex -0.414214 -2.12132 64.7
      vertex 13.4451 11.738 63.5
      vertex 2.41421 0.707107 64.7
    endloop
  endfacet
  facet normal 0.707107 -0.707107 -5.26837e-008
    outer loop
      vertex -0.414214 -2.12132 64.7
      vertex -10.738 -12.4451 63.5
      vertex 13.4451 11.738 63.5
    endloop
  endfacet
  facet normal 0.707107 -0.707107 0
    outer loop
      vertex -11.5158 -13.2229 39.1
      vertex -10.738 -12.4451 63.5
      vertex -11.5158 -13.2229 64.7
    endloop
  endfacet
  facet normal 0.707107 -0.707107 -3.69122e-009
    outer loop
      vertex -11.5158 -13.2229 64.7
      vertex -10.738 -12.4451 63.5
      vertex -0.414214 -2.12132 64.7
    endloop
  endfacet
  facet normal 0.707107 -0.707107 0
    outer loop
      vertex 13.4451 11.738 40.1
      vertex 14.2229 12.5158 39.1
      vertex 13.4451 11.738 63.5
    endloop
  endfacet
  facet normal 0.707107 -0.707107 0
    outer loop
      vertex -10.738 -12.4451 40.1
      vertex 14.2229 12.5158 39.1
      vertex 13.4451 11.738 40.1
    endloop
  endfacet
  facet normal 0.707107 -0.707107 0
    outer loop
      vertex -10.738 -12.4451 40.1
      vertex -11.5158 -13.2229 39.1
      vertex 14.2229 12.5158 39.1
    endloop
  endfacet
  facet normal 0.707107 -0.707107 0
    outer loop
      vertex -10.738 -12.4451 63.5
      vertex -11.5158 -13.2229 39.1
      vertex -10.738 -12.4451 40.1
    endloop
  endfacet
  facet normal 0 0 1
    outer loop
      vertex 14.2229 12.5158 39.1
      vertex -10.1016 -14.6371 39.1
      vertex 15.6371 11.1016 39.1
    endloop
  endfacet
  facet normal 0 -0 1
    outer loop
      vertex -10.1016 -14.6371 39.1
      vertex 14.2229 12.5158 39.1
      vertex -11.5158 -13.2229 39.1
    endloop
  endfacet
  facet normal 0.707107 0.707107 0
    outer loop
      vertex -10.738 -12.4451 63.5
      vertex -12.8593 -10.3238 40.1
      vertex -12.8593 -10.3238 63.5
    endloop
  endfacet
  facet normal 0.707107 0.707107 0
    outer loop
      vertex -12.8593 -10.3238 40.1
      vertex -10.738 -12.4451 63.5
      vertex -10.738 -12.4451 40.1
    endloop
  endfacet
  facet normal 0 0 -1
    outer loop
      vertex -10.738 -12.4451 63.5
      vertex 11.3238 13.8593 63.5
      vertex 13.4451 11.738 63.5
    endloop
  endfacet
  facet normal 0 0 -1
    outer loop
      vertex 11.3238 13.8593 63.5
      vertex -10.738 -12.4451 63.5
      vertex -12.8593 -10.3238 63.5
    endloop
  endfacet
  facet normal -0.707107 -0.707107 0
    outer loop
      vertex 11.3238 13.8593 40.1
      vertex 13.4451 11.738 63.5
      vertex 11.3238 13.8593 63.5
    endloop
  endfacet
  facet normal -0.707107 -0.707107 -0
    outer loop
      vertex 13.4451 11.738 63.5
      vertex 11.3238 13.8593 40.1
      vertex 13.4451 11.738 40.1
    endloop
  endfacet
  facet normal 0 0 1
    outer loop
      vertex 11.3238 13.8593 40.1
      vertex -10.738 -12.4451 40.1
      vertex 13.4451 11.738 40.1
    endloop
  endfacet
  facet normal 0 -0 1
    outer loop
      vertex -10.738 -12.4451 40.1
      vertex 11.3238 13.8593 40.1
      vertex -12.8593 -10.3238 40.1
    endloop
  endfacet
  facet normal 0.707107 0.707107 0
    outer loop
      vertex 1 -3.53553 65.85
      vertex -0.414214 -2.12132 64.7
      vertex -0.414214 -2.12132 65.85
    endloop
  endfacet
  facet normal 0.707107 0.707107 0
    outer loop
      vertex -0.414214 -2.12132 64.7
      vertex 1 -3.53553 65.85
      vertex 1 -3.53553 64.7
    endloop
  endfacet
  facet normal -0.707107 -0.707107 0
    outer loop
      vertex 3.82843 -0.707107 64.7
      vertex 2.41421 0.707107 65.85
      vertex 2.41421 0.707107 64.7
    endloop
  endfacet
  facet normal -0.707107 -0.707107 0
    outer loop
      vertex 2.41421 0.707107 65.85
      vertex 3.82843 -0.707107 64.7
      vertex 3.82843 -0.707107 65.85
    endloop
  endfacet
endsolid OpenSCAD_Model
