G04 #@! TF.GenerationSoftware,KiCad,Pcbnew,(5.0.0)*
G04 #@! TF.CreationDate,2019-02-27T09:55:35+01:00*
G04 #@! TF.ProjectId,Potentiometer_mount_16LED,506F74656E74696F6D657465725F6D6F,rev?*
G04 #@! TF.SameCoordinates,Original*
G04 #@! TF.FileFunction,Copper,L2,Bot,Signal*
G04 #@! TF.FilePolarity,Positive*
%FSLAX46Y46*%
G04 Gerber Fmt 4.6, Leading zero omitted, Abs format (unit mm)*
G04 Created by KiCad (PCBNEW (5.0.0)) date 02/27/19 09:55:35*
%MOMM*%
%LPD*%
G01*
G04 APERTURE LIST*
G04 #@! TA.AperFunction,ComponentPad*
%ADD10C,1.800000*%
G04 #@! TD*
G04 #@! TA.AperFunction,ComponentPad*
%ADD11R,1.200000X1.200000*%
G04 #@! TD*
G04 #@! TA.AperFunction,ComponentPad*
%ADD12C,1.200000*%
G04 #@! TD*
G04 #@! TA.AperFunction,Conductor*
%ADD13C,0.250000*%
G04 #@! TD*
G04 #@! TA.AperFunction,NonConductor*
%ADD14C,0.254000*%
G04 #@! TD*
G04 APERTURE END LIST*
D10*
G04 #@! TO.P, LED 11,1*
G04 #@! TO.N,Net-(RV11-Pad1)*
X80000000Y-60000000D03*
G04 #@! TO.P, LED 11,2*
G04 #@! TO.N,Net-(J2-Pad11)*
X82540000Y-52380000D03*
G04 #@! TO.P, LED 11,3*
G04 #@! TO.N,Net-(J1-Pad11)*
X80000000Y-47300000D03*
G04 #@! TD*
G04 #@! TO.P,LED 1,3*
G04 #@! TO.N,Net-(J1-Pad1)*
X20000000Y-47300000D03*
G04 #@! TO.P,LED 1,2*
G04 #@! TO.N,Net-(J2-Pad1)*
X22540000Y-52380000D03*
G04 #@! TO.P,LED 1,1*
G04 #@! TO.N,Net-(RV1-Pad1)*
X20000000Y-60000000D03*
G04 #@! TD*
G04 #@! TO.P,LED 2,1*
G04 #@! TO.N,Net-(RV2-Pad1)*
X26000000Y-60000000D03*
G04 #@! TO.P,LED 2,2*
G04 #@! TO.N,Net-(J2-Pad2)*
X28540000Y-52380000D03*
G04 #@! TO.P,LED 2,3*
G04 #@! TO.N,Net-(J1-Pad2)*
X26000000Y-47300000D03*
G04 #@! TD*
G04 #@! TO.P,LED 3,3*
G04 #@! TO.N,Net-(J1-Pad3)*
X32000000Y-47300000D03*
G04 #@! TO.P,LED 3,2*
G04 #@! TO.N,Net-(J2-Pad3)*
X34540000Y-52380000D03*
G04 #@! TO.P,LED 3,1*
G04 #@! TO.N,Net-(RV3-Pad1)*
X32000000Y-60000000D03*
G04 #@! TD*
G04 #@! TO.P,LED 4,1*
G04 #@! TO.N,Net-(RV4-Pad1)*
X38000000Y-60000000D03*
G04 #@! TO.P,LED 4,2*
G04 #@! TO.N,Net-(J2-Pad4)*
X40540000Y-52380000D03*
G04 #@! TO.P,LED 4,3*
G04 #@! TO.N,Net-(J1-Pad4)*
X38000000Y-47300000D03*
G04 #@! TD*
G04 #@! TO.P,LED 5,1*
G04 #@! TO.N,Net-(RV5-Pad1)*
X44000000Y-60000000D03*
G04 #@! TO.P,LED 5,2*
G04 #@! TO.N,Net-(J2-Pad5)*
X46540000Y-52380000D03*
G04 #@! TO.P,LED 5,3*
G04 #@! TO.N,Net-(J1-Pad5)*
X44000000Y-47300000D03*
G04 #@! TD*
G04 #@! TO.P,LED 6,3*
G04 #@! TO.N,Net-(J1-Pad6)*
X50000000Y-47300000D03*
G04 #@! TO.P,LED 6,2*
G04 #@! TO.N,Net-(J2-Pad6)*
X52540000Y-52380000D03*
G04 #@! TO.P,LED 6,1*
G04 #@! TO.N,Net-(RV6-Pad1)*
X50000000Y-60000000D03*
G04 #@! TD*
G04 #@! TO.P,LED 7,1*
G04 #@! TO.N,Net-(RV7-Pad1)*
X56000000Y-60000000D03*
G04 #@! TO.P,LED 7,2*
G04 #@! TO.N,Net-(J2-Pad7)*
X58540000Y-52380000D03*
G04 #@! TO.P,LED 7,3*
G04 #@! TO.N,Net-(J1-Pad7)*
X56000000Y-47300000D03*
G04 #@! TD*
G04 #@! TO.P,LED 8,3*
G04 #@! TO.N,Net-(J1-Pad8)*
X62000000Y-47300000D03*
G04 #@! TO.P,LED 8,2*
G04 #@! TO.N,Net-(J2-Pad8)*
X64540000Y-52380000D03*
G04 #@! TO.P,LED 8,1*
G04 #@! TO.N,Net-(RV8-Pad1)*
X62000000Y-60000000D03*
G04 #@! TD*
G04 #@! TO.P,LED 9,1*
G04 #@! TO.N,Net-(RV9-Pad1)*
X68000000Y-60000000D03*
G04 #@! TO.P,LED 9,2*
G04 #@! TO.N,Net-(J2-Pad9)*
X70540000Y-52380000D03*
G04 #@! TO.P,LED 9,3*
G04 #@! TO.N,Net-(J1-Pad9)*
X68000000Y-47300000D03*
G04 #@! TD*
G04 #@! TO.P,LED 10,3*
G04 #@! TO.N,Net-(J1-Pad10)*
X74000000Y-47300000D03*
G04 #@! TO.P,LED 10,2*
G04 #@! TO.N,Net-(J2-Pad10)*
X76540000Y-52380000D03*
G04 #@! TO.P,LED 10,1*
G04 #@! TO.N,Net-(RV10-Pad1)*
X74000000Y-60000000D03*
G04 #@! TD*
G04 #@! TO.P,LED 12,1*
G04 #@! TO.N,Net-(RV12-Pad1)*
X86000000Y-60000000D03*
G04 #@! TO.P,LED 12,2*
G04 #@! TO.N,Net-(J2-Pad12)*
X88540000Y-52380000D03*
G04 #@! TO.P,LED 12,3*
G04 #@! TO.N,Net-(J1-Pad12)*
X86000000Y-47300000D03*
G04 #@! TD*
G04 #@! TO.P,LED 13,1*
G04 #@! TO.N,Net-(RV13-Pad1)*
X92000000Y-60000000D03*
G04 #@! TO.P,LED 13,2*
G04 #@! TO.N,Net-(J2-Pad13)*
X94540000Y-52380000D03*
G04 #@! TO.P,LED 13,3*
G04 #@! TO.N,Net-(J1-Pad13)*
X92000000Y-47300000D03*
G04 #@! TD*
G04 #@! TO.P,LED 14,3*
G04 #@! TO.N,Net-(J1-Pad14)*
X98000000Y-47300000D03*
G04 #@! TO.P,LED 14,2*
G04 #@! TO.N,Net-(J2-Pad14)*
X100540000Y-52380000D03*
G04 #@! TO.P,LED 14,1*
G04 #@! TO.N,Net-(RV14-Pad1)*
X98000000Y-60000000D03*
G04 #@! TD*
G04 #@! TO.P,LED 15,1*
G04 #@! TO.N,Net-(RV15-Pad1)*
X104000000Y-60000000D03*
G04 #@! TO.P,LED 15,2*
G04 #@! TO.N,Net-(J2-Pad15)*
X106540000Y-52380000D03*
G04 #@! TO.P,LED 15,3*
G04 #@! TO.N,Net-(J1-Pad15)*
X104000000Y-47300000D03*
G04 #@! TD*
G04 #@! TO.P,LED 16,3*
G04 #@! TO.N,Net-(J1-Pad16)*
X110000000Y-47300000D03*
G04 #@! TO.P,LED 16,2*
G04 #@! TO.N,Net-(J2-Pad16)*
X112540000Y-52380000D03*
G04 #@! TO.P,LED 16,1*
G04 #@! TO.N,Net-(RV16-Pad1)*
X110000000Y-60000000D03*
G04 #@! TD*
D11*
G04 #@! TO.P,From Stimulator,1*
G04 #@! TO.N,Net-(J1-Pad1)*
X37500000Y-80000000D03*
D12*
G04 #@! TO.P,From Stimulator,3*
G04 #@! TO.N,Net-(J1-Pad3)*
X39500000Y-80000000D03*
G04 #@! TO.P,From Stimulator,5*
G04 #@! TO.N,Net-(J1-Pad5)*
X41500000Y-80000000D03*
G04 #@! TO.P,From Stimulator,7*
G04 #@! TO.N,Net-(J1-Pad7)*
X43500000Y-80000000D03*
G04 #@! TO.P,From Stimulator,9*
G04 #@! TO.N,Net-(J1-Pad9)*
X45500000Y-80000000D03*
G04 #@! TO.P,From Stimulator,11*
G04 #@! TO.N,Net-(J1-Pad11)*
X47500000Y-80000000D03*
G04 #@! TO.P,From Stimulator,13*
G04 #@! TO.N,Net-(J1-Pad13)*
X49500000Y-80000000D03*
G04 #@! TO.P,From Stimulator,15*
G04 #@! TO.N,Net-(J1-Pad15)*
X51500000Y-80000000D03*
G04 #@! TO.P,From Stimulator,2*
G04 #@! TO.N,Net-(J1-Pad2)*
X37500000Y-82000000D03*
G04 #@! TO.P,From Stimulator,4*
G04 #@! TO.N,Net-(J1-Pad4)*
X39500000Y-82000000D03*
G04 #@! TO.P,From Stimulator,6*
G04 #@! TO.N,Net-(J1-Pad6)*
X41500000Y-82000000D03*
G04 #@! TO.P,From Stimulator,8*
G04 #@! TO.N,Net-(J1-Pad8)*
X43500000Y-82000000D03*
G04 #@! TO.P,From Stimulator,10*
G04 #@! TO.N,Net-(J1-Pad10)*
X45500000Y-82000000D03*
G04 #@! TO.P,From Stimulator,12*
G04 #@! TO.N,Net-(J1-Pad12)*
X47500000Y-82000000D03*
G04 #@! TO.P,From Stimulator,14*
G04 #@! TO.N,Net-(J1-Pad14)*
X49500000Y-82000000D03*
G04 #@! TO.P,From Stimulator,16*
G04 #@! TO.N,Net-(J1-Pad16)*
X51500000Y-82000000D03*
G04 #@! TD*
G04 #@! TO.P,To LED,16*
G04 #@! TO.N,Net-(J2-Pad16)*
X94800000Y-82000000D03*
G04 #@! TO.P,To LED,14*
G04 #@! TO.N,Net-(J2-Pad14)*
X92800000Y-82000000D03*
G04 #@! TO.P,To LED,12*
G04 #@! TO.N,Net-(J2-Pad12)*
X90800000Y-82000000D03*
G04 #@! TO.P,To LED,10*
G04 #@! TO.N,Net-(J2-Pad10)*
X88800000Y-82000000D03*
G04 #@! TO.P,To LED,8*
G04 #@! TO.N,Net-(J2-Pad8)*
X86800000Y-82000000D03*
G04 #@! TO.P,To LED,6*
G04 #@! TO.N,Net-(J2-Pad6)*
X84800000Y-82000000D03*
G04 #@! TO.P,To LED,4*
G04 #@! TO.N,Net-(J2-Pad4)*
X82800000Y-82000000D03*
G04 #@! TO.P,To LED,2*
G04 #@! TO.N,Net-(J2-Pad2)*
X80800000Y-82000000D03*
G04 #@! TO.P,To LED,15*
G04 #@! TO.N,Net-(J2-Pad15)*
X94800000Y-80000000D03*
G04 #@! TO.P,To LED,13*
G04 #@! TO.N,Net-(J2-Pad13)*
X92800000Y-80000000D03*
G04 #@! TO.P,To LED,11*
G04 #@! TO.N,Net-(J2-Pad11)*
X90800000Y-80000000D03*
G04 #@! TO.P,To LED,9*
G04 #@! TO.N,Net-(J2-Pad9)*
X88800000Y-80000000D03*
G04 #@! TO.P,To LED,7*
G04 #@! TO.N,Net-(J2-Pad7)*
X86800000Y-80000000D03*
G04 #@! TO.P,To LED,5*
G04 #@! TO.N,Net-(J2-Pad5)*
X84800000Y-80000000D03*
G04 #@! TO.P,To LED,3*
G04 #@! TO.N,Net-(J2-Pad3)*
X82800000Y-80000000D03*
D11*
G04 #@! TO.P,To LED,1*
G04 #@! TO.N,Net-(J2-Pad1)*
X80800000Y-80000000D03*
G04 #@! TD*
D13*
G04 #@! TO.N,Net-(J2-Pad4)*
X40540000Y-53652792D02*
X56400000Y-69512792D01*
X40540000Y-52380000D02*
X40540000Y-53652792D01*
X56400000Y-69512792D02*
X75212792Y-69512792D01*
X83399999Y-81400001D02*
X82800000Y-82000000D01*
X83725001Y-81074999D02*
X83399999Y-81400001D01*
X83725001Y-78025001D02*
X83725001Y-81074999D01*
X75212792Y-69512792D02*
X83725001Y-78025001D01*
G04 #@! TO.N,Net-(J2-Pad3)*
X82200001Y-79400001D02*
X82800000Y-80000000D01*
X75000000Y-72200000D02*
X82200001Y-79400001D01*
X54360000Y-72200000D02*
X75000000Y-72200000D01*
X34540000Y-52380000D02*
X54360000Y-72200000D01*
G04 #@! TO.N,Net-(J2-Pad2)*
X77900000Y-84900000D02*
X80800000Y-82000000D01*
X33300000Y-84900000D02*
X77900000Y-84900000D01*
X23300000Y-74900000D02*
X33300000Y-84900000D01*
X23300000Y-59113002D02*
X23300000Y-74900000D01*
X28540000Y-52380000D02*
X27267208Y-52380000D01*
X25087208Y-50200000D02*
X20400000Y-50200000D01*
X20400000Y-50200000D02*
X19400000Y-51200000D01*
X19400000Y-51200000D02*
X19400000Y-55213002D01*
X27267208Y-52380000D02*
X25087208Y-50200000D01*
X19400000Y-55213002D02*
X23300000Y-59113002D01*
G04 #@! TO.N,Net-(J2-Pad1)*
X79950000Y-80000000D02*
X80800000Y-80000000D01*
X77350000Y-77400000D02*
X79950000Y-80000000D01*
X47560000Y-77400000D02*
X77350000Y-77400000D01*
X22540000Y-52380000D02*
X47560000Y-77400000D01*
G04 #@! TO.N,Net-(J2-Pad5)*
X46540000Y-52380000D02*
X46540000Y-54040000D01*
X46540000Y-54040000D02*
X60500000Y-68000000D01*
X84800000Y-79151472D02*
X84800000Y-80000000D01*
X84800000Y-78463590D02*
X84800000Y-79151472D01*
X74336410Y-68000000D02*
X84800000Y-78463590D01*
X60500000Y-68000000D02*
X74336410Y-68000000D01*
G04 #@! TO.N,Net-(J2-Pad7)*
X58540000Y-52380000D02*
X71560000Y-65400000D01*
X86800000Y-79151472D02*
X86800000Y-80000000D01*
X86800000Y-77963590D02*
X86800000Y-79151472D01*
X74236410Y-65400000D02*
X86800000Y-77963590D01*
X71560000Y-65400000D02*
X74236410Y-65400000D01*
G04 #@! TO.N,Net-(J2-Pad9)*
X88800000Y-79151472D02*
X88800000Y-80000000D01*
X88800000Y-76003590D02*
X88800000Y-79151472D01*
X75225001Y-62428591D02*
X88800000Y-76003590D01*
X75225001Y-57065001D02*
X75225001Y-62428591D01*
X70540000Y-52380000D02*
X75225001Y-57065001D01*
G04 #@! TO.N,Net-(J2-Pad11)*
X82540000Y-52380000D02*
X82540000Y-66240000D01*
X90800000Y-74500000D02*
X90800000Y-80000000D01*
X82540000Y-66240000D02*
X90800000Y-74500000D01*
G04 #@! TO.N,Net-(J2-Pad13)*
X94540000Y-71860000D02*
X94540000Y-52380000D01*
X92800000Y-73600000D02*
X94540000Y-71860000D01*
X92800000Y-80000000D02*
X92800000Y-73600000D01*
G04 #@! TO.N,Net-(J2-Pad15)*
X106540000Y-68260000D02*
X94800000Y-80000000D01*
X106540000Y-52380000D02*
X106540000Y-68260000D01*
G04 #@! TO.N,Net-(J2-Pad6)*
X52540000Y-53652792D02*
X65587208Y-66700000D01*
X52540000Y-52380000D02*
X52540000Y-53652792D01*
X65587208Y-66700000D02*
X74900000Y-66700000D01*
X85399999Y-81400001D02*
X84800000Y-82000000D01*
X85725001Y-81074999D02*
X85399999Y-81400001D01*
X85725001Y-77525001D02*
X85725001Y-81074999D01*
X74900000Y-66700000D02*
X85725001Y-77525001D01*
G04 #@! TO.N,Net-(J2-Pad8)*
X87399999Y-81400001D02*
X86800000Y-82000000D01*
X87725001Y-81074999D02*
X87399999Y-81400001D01*
X87725001Y-75565001D02*
X87725001Y-81074999D01*
X64540000Y-52380000D02*
X87725001Y-75565001D01*
G04 #@! TO.N,Net-(J2-Pad10)*
X76540000Y-52380000D02*
X76540000Y-61840000D01*
X89399999Y-81400001D02*
X88800000Y-82000000D01*
X89725001Y-81074999D02*
X89399999Y-81400001D01*
X89725001Y-75025001D02*
X89725001Y-81074999D01*
X76540000Y-61840000D02*
X89725001Y-75025001D01*
G04 #@! TO.N,Net-(J2-Pad12)*
X88540000Y-52380000D02*
X88540000Y-70740000D01*
X91399999Y-81400001D02*
X90800000Y-82000000D01*
X91725001Y-81074999D02*
X91399999Y-81400001D01*
X91725001Y-73925001D02*
X91725001Y-81074999D01*
X88540000Y-70740000D02*
X91725001Y-73925001D01*
G04 #@! TO.N,Net-(J2-Pad14)*
X100540000Y-52380000D02*
X100540000Y-67560000D01*
X93399999Y-81400001D02*
X92800000Y-82000000D01*
X93725001Y-81074999D02*
X93399999Y-81400001D01*
X93725001Y-74374999D02*
X93725001Y-81074999D01*
X100540000Y-67560000D02*
X93725001Y-74374999D01*
G04 #@! TO.N,Net-(J2-Pad16)*
X112540000Y-64260000D02*
X94800000Y-82000000D01*
X112540000Y-52380000D02*
X112540000Y-64260000D01*
G04 #@! TD*
D14*
G36*
X17427612Y-86235000D02*
X17500000Y-86249399D01*
X17572388Y-86235000D01*
X114873000Y-86235000D01*
X114873000Y-91873110D01*
X17405519Y-91957755D01*
X17405519Y-86230605D01*
X17427612Y-86235000D01*
X17427612Y-86235000D01*
G37*
X17427612Y-86235000D02*
X17500000Y-86249399D01*
X17572388Y-86235000D01*
X114873000Y-86235000D01*
X114873000Y-91873110D01*
X17405519Y-91957755D01*
X17405519Y-86230605D01*
X17427612Y-86235000D01*
G36*
X114265001Y-84765000D02*
X79109801Y-84765000D01*
X80639803Y-83235000D01*
X81045657Y-83235000D01*
X81499571Y-83046982D01*
X81800000Y-82746553D01*
X82100429Y-83046982D01*
X82554343Y-83235000D01*
X83045657Y-83235000D01*
X83499571Y-83046982D01*
X83800000Y-82746553D01*
X84100429Y-83046982D01*
X84554343Y-83235000D01*
X85045657Y-83235000D01*
X85499571Y-83046982D01*
X85800000Y-82746553D01*
X86100429Y-83046982D01*
X86554343Y-83235000D01*
X87045657Y-83235000D01*
X87499571Y-83046982D01*
X87800000Y-82746553D01*
X88100429Y-83046982D01*
X88554343Y-83235000D01*
X89045657Y-83235000D01*
X89499571Y-83046982D01*
X89800000Y-82746553D01*
X90100429Y-83046982D01*
X90554343Y-83235000D01*
X91045657Y-83235000D01*
X91499571Y-83046982D01*
X91800000Y-82746553D01*
X92100429Y-83046982D01*
X92554343Y-83235000D01*
X93045657Y-83235000D01*
X93499571Y-83046982D01*
X93800000Y-82746553D01*
X94100429Y-83046982D01*
X94554343Y-83235000D01*
X95045657Y-83235000D01*
X95499571Y-83046982D01*
X95846982Y-82699571D01*
X96035000Y-82245657D01*
X96035000Y-81839801D01*
X102782455Y-75092346D01*
X106057974Y-75092346D01*
X106065000Y-75518390D01*
X106065000Y-75944569D01*
X106072320Y-75962240D01*
X106072635Y-75981363D01*
X106384640Y-76734610D01*
X106394347Y-76739682D01*
X106405259Y-76766026D01*
X107033974Y-77394741D01*
X107060318Y-77405653D01*
X107065390Y-77415360D01*
X107461708Y-77571914D01*
X107855431Y-77735000D01*
X107874560Y-77735000D01*
X107892346Y-77742026D01*
X108318390Y-77735000D01*
X108744569Y-77735000D01*
X108762240Y-77727680D01*
X108781363Y-77727365D01*
X109534610Y-77415360D01*
X109539682Y-77405653D01*
X109566026Y-77394741D01*
X110194741Y-76766026D01*
X110205653Y-76739682D01*
X110215360Y-76734610D01*
X110371914Y-76338292D01*
X110535000Y-75944569D01*
X110535000Y-75925440D01*
X110542026Y-75907654D01*
X110535000Y-75481610D01*
X110535000Y-75055431D01*
X110527680Y-75037760D01*
X110527365Y-75018637D01*
X110215360Y-74265390D01*
X110205653Y-74260318D01*
X110194741Y-74233974D01*
X109566026Y-73605259D01*
X109539682Y-73594347D01*
X109534610Y-73584640D01*
X109138292Y-73428086D01*
X108744569Y-73265000D01*
X108725440Y-73265000D01*
X108707654Y-73257974D01*
X108281610Y-73265000D01*
X107855431Y-73265000D01*
X107837760Y-73272320D01*
X107818637Y-73272635D01*
X107065390Y-73584640D01*
X107060318Y-73594347D01*
X107033974Y-73605259D01*
X106405259Y-74233974D01*
X106394347Y-74260318D01*
X106384640Y-74265390D01*
X106228086Y-74661708D01*
X106065000Y-75055431D01*
X106065000Y-75074560D01*
X106057974Y-75092346D01*
X102782455Y-75092346D01*
X113024473Y-64850329D01*
X113087929Y-64807929D01*
X113255904Y-64556537D01*
X113300000Y-64334852D01*
X113300000Y-64334848D01*
X113314888Y-64260000D01*
X113300000Y-64185152D01*
X113300000Y-53726669D01*
X113409507Y-53681310D01*
X113841310Y-53249507D01*
X114075000Y-52685330D01*
X114075000Y-52074670D01*
X113841310Y-51510493D01*
X113409507Y-51078690D01*
X112845330Y-50845000D01*
X112234670Y-50845000D01*
X111670493Y-51078690D01*
X111238690Y-51510493D01*
X111005000Y-52074670D01*
X111005000Y-52685330D01*
X111238690Y-53249507D01*
X111670493Y-53681310D01*
X111780000Y-53726669D01*
X111780001Y-63945197D01*
X107277567Y-68447632D01*
X107300000Y-68334852D01*
X107300000Y-68334848D01*
X107314888Y-68260001D01*
X107300000Y-68185154D01*
X107300000Y-59694670D01*
X108465000Y-59694670D01*
X108465000Y-60305330D01*
X108698690Y-60869507D01*
X109130493Y-61301310D01*
X109694670Y-61535000D01*
X110305330Y-61535000D01*
X110869507Y-61301310D01*
X111301310Y-60869507D01*
X111535000Y-60305330D01*
X111535000Y-59694670D01*
X111301310Y-59130493D01*
X110869507Y-58698690D01*
X110305330Y-58465000D01*
X109694670Y-58465000D01*
X109130493Y-58698690D01*
X108698690Y-59130493D01*
X108465000Y-59694670D01*
X107300000Y-59694670D01*
X107300000Y-53726669D01*
X107409507Y-53681310D01*
X107841310Y-53249507D01*
X108075000Y-52685330D01*
X108075000Y-52074670D01*
X107841310Y-51510493D01*
X107409507Y-51078690D01*
X106845330Y-50845000D01*
X106234670Y-50845000D01*
X105670493Y-51078690D01*
X105238690Y-51510493D01*
X105005000Y-52074670D01*
X105005000Y-52685330D01*
X105238690Y-53249507D01*
X105670493Y-53681310D01*
X105780000Y-53726669D01*
X105780001Y-67945197D01*
X94960199Y-78765000D01*
X94554343Y-78765000D01*
X94485001Y-78793722D01*
X94485001Y-74689800D01*
X101024473Y-68150329D01*
X101087929Y-68107929D01*
X101255904Y-67856537D01*
X101300000Y-67634852D01*
X101300000Y-67634848D01*
X101314888Y-67560001D01*
X101300000Y-67485154D01*
X101300000Y-59694670D01*
X102465000Y-59694670D01*
X102465000Y-60305330D01*
X102698690Y-60869507D01*
X103130493Y-61301310D01*
X103694670Y-61535000D01*
X104305330Y-61535000D01*
X104869507Y-61301310D01*
X105301310Y-60869507D01*
X105535000Y-60305330D01*
X105535000Y-59694670D01*
X105301310Y-59130493D01*
X104869507Y-58698690D01*
X104305330Y-58465000D01*
X103694670Y-58465000D01*
X103130493Y-58698690D01*
X102698690Y-59130493D01*
X102465000Y-59694670D01*
X101300000Y-59694670D01*
X101300000Y-53726669D01*
X101409507Y-53681310D01*
X101841310Y-53249507D01*
X102075000Y-52685330D01*
X102075000Y-52074670D01*
X101841310Y-51510493D01*
X101409507Y-51078690D01*
X100845330Y-50845000D01*
X100234670Y-50845000D01*
X99670493Y-51078690D01*
X99238690Y-51510493D01*
X99005000Y-52074670D01*
X99005000Y-52685330D01*
X99238690Y-53249507D01*
X99670493Y-53681310D01*
X99780000Y-53726669D01*
X99780001Y-67245197D01*
X95300000Y-71725199D01*
X95300000Y-59694670D01*
X96465000Y-59694670D01*
X96465000Y-60305330D01*
X96698690Y-60869507D01*
X97130493Y-61301310D01*
X97694670Y-61535000D01*
X98305330Y-61535000D01*
X98869507Y-61301310D01*
X99301310Y-60869507D01*
X99535000Y-60305330D01*
X99535000Y-59694670D01*
X99301310Y-59130493D01*
X98869507Y-58698690D01*
X98305330Y-58465000D01*
X97694670Y-58465000D01*
X97130493Y-58698690D01*
X96698690Y-59130493D01*
X96465000Y-59694670D01*
X95300000Y-59694670D01*
X95300000Y-53726669D01*
X95409507Y-53681310D01*
X95841310Y-53249507D01*
X96075000Y-52685330D01*
X96075000Y-52074670D01*
X95841310Y-51510493D01*
X95409507Y-51078690D01*
X94845330Y-50845000D01*
X94234670Y-50845000D01*
X93670493Y-51078690D01*
X93238690Y-51510493D01*
X93005000Y-52074670D01*
X93005000Y-52685330D01*
X93238690Y-53249507D01*
X93670493Y-53681310D01*
X93780001Y-53726670D01*
X93780000Y-71545198D01*
X92315528Y-73009671D01*
X92252072Y-73052071D01*
X92209672Y-73115527D01*
X92209671Y-73115528D01*
X92121815Y-73247013D01*
X89300000Y-70425199D01*
X89300000Y-59694670D01*
X90465000Y-59694670D01*
X90465000Y-60305330D01*
X90698690Y-60869507D01*
X91130493Y-61301310D01*
X91694670Y-61535000D01*
X92305330Y-61535000D01*
X92869507Y-61301310D01*
X93301310Y-60869507D01*
X93535000Y-60305330D01*
X93535000Y-59694670D01*
X93301310Y-59130493D01*
X92869507Y-58698690D01*
X92305330Y-58465000D01*
X91694670Y-58465000D01*
X91130493Y-58698690D01*
X90698690Y-59130493D01*
X90465000Y-59694670D01*
X89300000Y-59694670D01*
X89300000Y-53726669D01*
X89409507Y-53681310D01*
X89841310Y-53249507D01*
X90075000Y-52685330D01*
X90075000Y-52074670D01*
X89841310Y-51510493D01*
X89409507Y-51078690D01*
X88845330Y-50845000D01*
X88234670Y-50845000D01*
X87670493Y-51078690D01*
X87238690Y-51510493D01*
X87005000Y-52074670D01*
X87005000Y-52685330D01*
X87238690Y-53249507D01*
X87670493Y-53681310D01*
X87780000Y-53726669D01*
X87780001Y-70405199D01*
X83300000Y-65925199D01*
X83300000Y-59694670D01*
X84465000Y-59694670D01*
X84465000Y-60305330D01*
X84698690Y-60869507D01*
X85130493Y-61301310D01*
X85694670Y-61535000D01*
X86305330Y-61535000D01*
X86869507Y-61301310D01*
X87301310Y-60869507D01*
X87535000Y-60305330D01*
X87535000Y-59694670D01*
X87301310Y-59130493D01*
X86869507Y-58698690D01*
X86305330Y-58465000D01*
X85694670Y-58465000D01*
X85130493Y-58698690D01*
X84698690Y-59130493D01*
X84465000Y-59694670D01*
X83300000Y-59694670D01*
X83300000Y-53726669D01*
X83409507Y-53681310D01*
X83841310Y-53249507D01*
X84075000Y-52685330D01*
X84075000Y-52074670D01*
X83841310Y-51510493D01*
X83409507Y-51078690D01*
X82845330Y-50845000D01*
X82234670Y-50845000D01*
X81670493Y-51078690D01*
X81238690Y-51510493D01*
X81005000Y-52074670D01*
X81005000Y-52685330D01*
X81238690Y-53249507D01*
X81670493Y-53681310D01*
X81780000Y-53726669D01*
X81780001Y-66005200D01*
X77300000Y-61525199D01*
X77300000Y-59694670D01*
X78465000Y-59694670D01*
X78465000Y-60305330D01*
X78698690Y-60869507D01*
X79130493Y-61301310D01*
X79694670Y-61535000D01*
X80305330Y-61535000D01*
X80869507Y-61301310D01*
X81301310Y-60869507D01*
X81535000Y-60305330D01*
X81535000Y-59694670D01*
X81301310Y-59130493D01*
X80869507Y-58698690D01*
X80305330Y-58465000D01*
X79694670Y-58465000D01*
X79130493Y-58698690D01*
X78698690Y-59130493D01*
X78465000Y-59694670D01*
X77300000Y-59694670D01*
X77300000Y-53726669D01*
X77409507Y-53681310D01*
X77841310Y-53249507D01*
X78075000Y-52685330D01*
X78075000Y-52074670D01*
X77841310Y-51510493D01*
X77409507Y-51078690D01*
X76845330Y-50845000D01*
X76234670Y-50845000D01*
X75670493Y-51078690D01*
X75238690Y-51510493D01*
X75005000Y-52074670D01*
X75005000Y-52685330D01*
X75238690Y-53249507D01*
X75670493Y-53681310D01*
X75780000Y-53726669D01*
X75780000Y-56527654D01*
X75772930Y-56517072D01*
X75709474Y-56474672D01*
X72029640Y-52794839D01*
X72075000Y-52685330D01*
X72075000Y-52074670D01*
X71841310Y-51510493D01*
X71409507Y-51078690D01*
X70845330Y-50845000D01*
X70234670Y-50845000D01*
X69670493Y-51078690D01*
X69238690Y-51510493D01*
X69005000Y-52074670D01*
X69005000Y-52685330D01*
X69238690Y-53249507D01*
X69670493Y-53681310D01*
X70234670Y-53915000D01*
X70845330Y-53915000D01*
X70954839Y-53869640D01*
X74465001Y-57379803D01*
X74465001Y-58531138D01*
X74305330Y-58465000D01*
X73694670Y-58465000D01*
X73130493Y-58698690D01*
X72698690Y-59130493D01*
X72601041Y-59366239D01*
X66029640Y-52794839D01*
X66075000Y-52685330D01*
X66075000Y-52074670D01*
X65841310Y-51510493D01*
X65409507Y-51078690D01*
X64845330Y-50845000D01*
X64234670Y-50845000D01*
X63670493Y-51078690D01*
X63238690Y-51510493D01*
X63005000Y-52074670D01*
X63005000Y-52685330D01*
X63238690Y-53249507D01*
X63670493Y-53681310D01*
X64234670Y-53915000D01*
X64845330Y-53915000D01*
X64954839Y-53869640D01*
X86965001Y-75879803D01*
X86965001Y-77053788D01*
X74826741Y-64915530D01*
X74784339Y-64852071D01*
X74532947Y-64684096D01*
X74311262Y-64640000D01*
X74311257Y-64640000D01*
X74236410Y-64625112D01*
X74161563Y-64640000D01*
X71874802Y-64640000D01*
X68633761Y-61398959D01*
X68869507Y-61301310D01*
X69301310Y-60869507D01*
X69535000Y-60305330D01*
X69535000Y-59694670D01*
X69301310Y-59130493D01*
X68869507Y-58698690D01*
X68305330Y-58465000D01*
X67694670Y-58465000D01*
X67130493Y-58698690D01*
X66698690Y-59130493D01*
X66601041Y-59366239D01*
X60029640Y-52794839D01*
X60075000Y-52685330D01*
X60075000Y-52074670D01*
X59841310Y-51510493D01*
X59409507Y-51078690D01*
X58845330Y-50845000D01*
X58234670Y-50845000D01*
X57670493Y-51078690D01*
X57238690Y-51510493D01*
X57005000Y-52074670D01*
X57005000Y-52685330D01*
X57238690Y-53249507D01*
X57670493Y-53681310D01*
X58234670Y-53915000D01*
X58845330Y-53915000D01*
X58954839Y-53869640D01*
X70969670Y-65884472D01*
X71006773Y-65940000D01*
X65902010Y-65940000D01*
X61357242Y-61395233D01*
X61694670Y-61535000D01*
X62305330Y-61535000D01*
X62869507Y-61301310D01*
X63301310Y-60869507D01*
X63535000Y-60305330D01*
X63535000Y-59694670D01*
X63301310Y-59130493D01*
X62869507Y-58698690D01*
X62305330Y-58465000D01*
X61694670Y-58465000D01*
X61130493Y-58698690D01*
X60698690Y-59130493D01*
X60465000Y-59694670D01*
X60465000Y-60305330D01*
X60604767Y-60642758D01*
X53526413Y-53564404D01*
X53841310Y-53249507D01*
X54075000Y-52685330D01*
X54075000Y-52074670D01*
X53841310Y-51510493D01*
X53409507Y-51078690D01*
X52845330Y-50845000D01*
X52234670Y-50845000D01*
X51670493Y-51078690D01*
X51238690Y-51510493D01*
X51005000Y-52074670D01*
X51005000Y-52685330D01*
X51238690Y-53249507D01*
X51670493Y-53681310D01*
X51779790Y-53726582D01*
X51824097Y-53949329D01*
X51884682Y-54040000D01*
X51992072Y-54200721D01*
X52055528Y-54243121D01*
X56277407Y-58465000D01*
X55694670Y-58465000D01*
X55130493Y-58698690D01*
X54698690Y-59130493D01*
X54465000Y-59694670D01*
X54465000Y-60305330D01*
X54698690Y-60869507D01*
X55130493Y-61301310D01*
X55694670Y-61535000D01*
X56305330Y-61535000D01*
X56869507Y-61301310D01*
X57301310Y-60869507D01*
X57535000Y-60305330D01*
X57535000Y-59722593D01*
X64996878Y-67184472D01*
X65033981Y-67240000D01*
X60814803Y-67240000D01*
X47301040Y-53726239D01*
X47409507Y-53681310D01*
X47841310Y-53249507D01*
X48075000Y-52685330D01*
X48075000Y-52074670D01*
X47841310Y-51510493D01*
X47409507Y-51078690D01*
X46845330Y-50845000D01*
X46234670Y-50845000D01*
X45670493Y-51078690D01*
X45238690Y-51510493D01*
X45005000Y-52074670D01*
X45005000Y-52685330D01*
X45238690Y-53249507D01*
X45670493Y-53681310D01*
X45780001Y-53726670D01*
X45780001Y-53965149D01*
X45765112Y-54040000D01*
X45824097Y-54336537D01*
X45891969Y-54438114D01*
X45992072Y-54587929D01*
X46055528Y-54630329D01*
X49890198Y-58465000D01*
X49694670Y-58465000D01*
X49130493Y-58698690D01*
X48698690Y-59130493D01*
X48465000Y-59694670D01*
X48465000Y-60305330D01*
X48604767Y-60642758D01*
X41526413Y-53564404D01*
X41841310Y-53249507D01*
X42075000Y-52685330D01*
X42075000Y-52074670D01*
X41841310Y-51510493D01*
X41409507Y-51078690D01*
X40845330Y-50845000D01*
X40234670Y-50845000D01*
X39670493Y-51078690D01*
X39238690Y-51510493D01*
X39005000Y-52074670D01*
X39005000Y-52685330D01*
X39238690Y-53249507D01*
X39670493Y-53681310D01*
X39779790Y-53726582D01*
X39824097Y-53949329D01*
X39884682Y-54040000D01*
X39992072Y-54200721D01*
X40055528Y-54243121D01*
X44277407Y-58465000D01*
X43694670Y-58465000D01*
X43130493Y-58698690D01*
X42698690Y-59130493D01*
X42601041Y-59366239D01*
X36029640Y-52794839D01*
X36075000Y-52685330D01*
X36075000Y-52074670D01*
X35841310Y-51510493D01*
X35409507Y-51078690D01*
X34845330Y-50845000D01*
X34234670Y-50845000D01*
X33670493Y-51078690D01*
X33238690Y-51510493D01*
X33005000Y-52074670D01*
X33005000Y-52685330D01*
X33238690Y-53249507D01*
X33670493Y-53681310D01*
X34234670Y-53915000D01*
X34845330Y-53915000D01*
X34954839Y-53869640D01*
X53769670Y-72684472D01*
X53812071Y-72747929D01*
X53875527Y-72790329D01*
X54063462Y-72915904D01*
X54111605Y-72925480D01*
X54285148Y-72960000D01*
X54285152Y-72960000D01*
X54360000Y-72974888D01*
X54434848Y-72960000D01*
X74685199Y-72960000D01*
X80477758Y-78752560D01*
X80200000Y-78752560D01*
X79952235Y-78801843D01*
X79876949Y-78852148D01*
X77940331Y-76915530D01*
X77897929Y-76852071D01*
X77646537Y-76684096D01*
X77424852Y-76640000D01*
X77424847Y-76640000D01*
X77350000Y-76625112D01*
X77275153Y-76640000D01*
X47874803Y-76640000D01*
X32633761Y-61398959D01*
X32869507Y-61301310D01*
X33301310Y-60869507D01*
X33535000Y-60305330D01*
X33535000Y-59694670D01*
X36465000Y-59694670D01*
X36465000Y-60305330D01*
X36698690Y-60869507D01*
X37130493Y-61301310D01*
X37694670Y-61535000D01*
X38305330Y-61535000D01*
X38869507Y-61301310D01*
X39301310Y-60869507D01*
X39535000Y-60305330D01*
X39535000Y-59694670D01*
X39301310Y-59130493D01*
X38869507Y-58698690D01*
X38305330Y-58465000D01*
X37694670Y-58465000D01*
X37130493Y-58698690D01*
X36698690Y-59130493D01*
X36465000Y-59694670D01*
X33535000Y-59694670D01*
X33301310Y-59130493D01*
X32869507Y-58698690D01*
X32305330Y-58465000D01*
X31694670Y-58465000D01*
X31130493Y-58698690D01*
X30698690Y-59130493D01*
X30601041Y-59366239D01*
X24029640Y-52794839D01*
X24075000Y-52685330D01*
X24075000Y-52074670D01*
X23841310Y-51510493D01*
X23409507Y-51078690D01*
X23122964Y-50960000D01*
X24772407Y-50960000D01*
X26676878Y-52864472D01*
X26719279Y-52927929D01*
X26970671Y-53095904D01*
X27192356Y-53140000D01*
X27192360Y-53140000D01*
X27193418Y-53140210D01*
X27238690Y-53249507D01*
X27670493Y-53681310D01*
X28234670Y-53915000D01*
X28845330Y-53915000D01*
X29409507Y-53681310D01*
X29841310Y-53249507D01*
X30075000Y-52685330D01*
X30075000Y-52074670D01*
X29841310Y-51510493D01*
X29409507Y-51078690D01*
X28845330Y-50845000D01*
X28234670Y-50845000D01*
X27670493Y-51078690D01*
X27355596Y-51393587D01*
X25677539Y-49715530D01*
X25635137Y-49652071D01*
X25383745Y-49484096D01*
X25162060Y-49440000D01*
X25162055Y-49440000D01*
X25087208Y-49425112D01*
X25012361Y-49440000D01*
X20474848Y-49440000D01*
X20400000Y-49425112D01*
X20325152Y-49440000D01*
X20325148Y-49440000D01*
X20103463Y-49484096D01*
X19852071Y-49652071D01*
X19809671Y-49715527D01*
X18915530Y-50609669D01*
X18852071Y-50652071D01*
X18684096Y-50903464D01*
X18640000Y-51125149D01*
X18640000Y-51125153D01*
X18625112Y-51200000D01*
X18640000Y-51274847D01*
X18640001Y-55138150D01*
X18625112Y-55213002D01*
X18640001Y-55287854D01*
X18684097Y-55509539D01*
X18852072Y-55760931D01*
X18915528Y-55803331D01*
X22540000Y-59427804D01*
X22540001Y-74099232D01*
X22405259Y-74233974D01*
X22394347Y-74260318D01*
X22384640Y-74265390D01*
X22228086Y-74661708D01*
X22065000Y-75055431D01*
X22065000Y-75074560D01*
X22057974Y-75092346D01*
X22065000Y-75518390D01*
X22065000Y-75944569D01*
X22072320Y-75962240D01*
X22072635Y-75981363D01*
X22384640Y-76734610D01*
X22394347Y-76739682D01*
X22405259Y-76766026D01*
X23033974Y-77394741D01*
X23060318Y-77405653D01*
X23065390Y-77415360D01*
X23461708Y-77571914D01*
X23855431Y-77735000D01*
X23874560Y-77735000D01*
X23892346Y-77742026D01*
X24318390Y-77735000D01*
X24744569Y-77735000D01*
X24762240Y-77727680D01*
X24781363Y-77727365D01*
X24973131Y-77647932D01*
X32090198Y-84765000D01*
X18235000Y-84765000D01*
X18235000Y-59694670D01*
X18465000Y-59694670D01*
X18465000Y-60305330D01*
X18698690Y-60869507D01*
X19130493Y-61301310D01*
X19694670Y-61535000D01*
X20305330Y-61535000D01*
X20869507Y-61301310D01*
X21301310Y-60869507D01*
X21535000Y-60305330D01*
X21535000Y-59694670D01*
X21301310Y-59130493D01*
X20869507Y-58698690D01*
X20305330Y-58465000D01*
X19694670Y-58465000D01*
X19130493Y-58698690D01*
X18698690Y-59130493D01*
X18465000Y-59694670D01*
X18235000Y-59694670D01*
X18235000Y-46994670D01*
X18465000Y-46994670D01*
X18465000Y-47605330D01*
X18698690Y-48169507D01*
X19130493Y-48601310D01*
X19694670Y-48835000D01*
X20305330Y-48835000D01*
X20869507Y-48601310D01*
X21301310Y-48169507D01*
X21535000Y-47605330D01*
X21535000Y-46994670D01*
X24465000Y-46994670D01*
X24465000Y-47605330D01*
X24698690Y-48169507D01*
X25130493Y-48601310D01*
X25694670Y-48835000D01*
X26305330Y-48835000D01*
X26869507Y-48601310D01*
X27301310Y-48169507D01*
X27535000Y-47605330D01*
X27535000Y-46994670D01*
X30465000Y-46994670D01*
X30465000Y-47605330D01*
X30698690Y-48169507D01*
X31130493Y-48601310D01*
X31694670Y-48835000D01*
X32305330Y-48835000D01*
X32869507Y-48601310D01*
X33301310Y-48169507D01*
X33535000Y-47605330D01*
X33535000Y-46994670D01*
X36465000Y-46994670D01*
X36465000Y-47605330D01*
X36698690Y-48169507D01*
X37130493Y-48601310D01*
X37694670Y-48835000D01*
X38305330Y-48835000D01*
X38869507Y-48601310D01*
X39301310Y-48169507D01*
X39535000Y-47605330D01*
X39535000Y-46994670D01*
X42465000Y-46994670D01*
X42465000Y-47605330D01*
X42698690Y-48169507D01*
X43130493Y-48601310D01*
X43694670Y-48835000D01*
X44305330Y-48835000D01*
X44869507Y-48601310D01*
X45301310Y-48169507D01*
X45535000Y-47605330D01*
X45535000Y-46994670D01*
X48465000Y-46994670D01*
X48465000Y-47605330D01*
X48698690Y-48169507D01*
X49130493Y-48601310D01*
X49694670Y-48835000D01*
X50305330Y-48835000D01*
X50869507Y-48601310D01*
X51301310Y-48169507D01*
X51535000Y-47605330D01*
X51535000Y-46994670D01*
X54465000Y-46994670D01*
X54465000Y-47605330D01*
X54698690Y-48169507D01*
X55130493Y-48601310D01*
X55694670Y-48835000D01*
X56305330Y-48835000D01*
X56869507Y-48601310D01*
X57301310Y-48169507D01*
X57535000Y-47605330D01*
X57535000Y-46994670D01*
X60465000Y-46994670D01*
X60465000Y-47605330D01*
X60698690Y-48169507D01*
X61130493Y-48601310D01*
X61694670Y-48835000D01*
X62305330Y-48835000D01*
X62869507Y-48601310D01*
X63301310Y-48169507D01*
X63535000Y-47605330D01*
X63535000Y-46994670D01*
X66465000Y-46994670D01*
X66465000Y-47605330D01*
X66698690Y-48169507D01*
X67130493Y-48601310D01*
X67694670Y-48835000D01*
X68305330Y-48835000D01*
X68869507Y-48601310D01*
X69301310Y-48169507D01*
X69535000Y-47605330D01*
X69535000Y-46994670D01*
X72465000Y-46994670D01*
X72465000Y-47605330D01*
X72698690Y-48169507D01*
X73130493Y-48601310D01*
X73694670Y-48835000D01*
X74305330Y-48835000D01*
X74869507Y-48601310D01*
X75301310Y-48169507D01*
X75535000Y-47605330D01*
X75535000Y-46994670D01*
X78465000Y-46994670D01*
X78465000Y-47605330D01*
X78698690Y-48169507D01*
X79130493Y-48601310D01*
X79694670Y-48835000D01*
X80305330Y-48835000D01*
X80869507Y-48601310D01*
X81301310Y-48169507D01*
X81535000Y-47605330D01*
X81535000Y-46994670D01*
X84465000Y-46994670D01*
X84465000Y-47605330D01*
X84698690Y-48169507D01*
X85130493Y-48601310D01*
X85694670Y-48835000D01*
X86305330Y-48835000D01*
X86869507Y-48601310D01*
X87301310Y-48169507D01*
X87535000Y-47605330D01*
X87535000Y-46994670D01*
X90465000Y-46994670D01*
X90465000Y-47605330D01*
X90698690Y-48169507D01*
X91130493Y-48601310D01*
X91694670Y-48835000D01*
X92305330Y-48835000D01*
X92869507Y-48601310D01*
X93301310Y-48169507D01*
X93535000Y-47605330D01*
X93535000Y-46994670D01*
X96465000Y-46994670D01*
X96465000Y-47605330D01*
X96698690Y-48169507D01*
X97130493Y-48601310D01*
X97694670Y-48835000D01*
X98305330Y-48835000D01*
X98869507Y-48601310D01*
X99301310Y-48169507D01*
X99535000Y-47605330D01*
X99535000Y-46994670D01*
X102465000Y-46994670D01*
X102465000Y-47605330D01*
X102698690Y-48169507D01*
X103130493Y-48601310D01*
X103694670Y-48835000D01*
X104305330Y-48835000D01*
X104869507Y-48601310D01*
X105301310Y-48169507D01*
X105535000Y-47605330D01*
X105535000Y-46994670D01*
X108465000Y-46994670D01*
X108465000Y-47605330D01*
X108698690Y-48169507D01*
X109130493Y-48601310D01*
X109694670Y-48835000D01*
X110305330Y-48835000D01*
X110869507Y-48601310D01*
X111301310Y-48169507D01*
X111535000Y-47605330D01*
X111535000Y-46994670D01*
X111301310Y-46430493D01*
X110869507Y-45998690D01*
X110305330Y-45765000D01*
X109694670Y-45765000D01*
X109130493Y-45998690D01*
X108698690Y-46430493D01*
X108465000Y-46994670D01*
X105535000Y-46994670D01*
X105301310Y-46430493D01*
X104869507Y-45998690D01*
X104305330Y-45765000D01*
X103694670Y-45765000D01*
X103130493Y-45998690D01*
X102698690Y-46430493D01*
X102465000Y-46994670D01*
X99535000Y-46994670D01*
X99301310Y-46430493D01*
X98869507Y-45998690D01*
X98305330Y-45765000D01*
X97694670Y-45765000D01*
X97130493Y-45998690D01*
X96698690Y-46430493D01*
X96465000Y-46994670D01*
X93535000Y-46994670D01*
X93301310Y-46430493D01*
X92869507Y-45998690D01*
X92305330Y-45765000D01*
X91694670Y-45765000D01*
X91130493Y-45998690D01*
X90698690Y-46430493D01*
X90465000Y-46994670D01*
X87535000Y-46994670D01*
X87301310Y-46430493D01*
X86869507Y-45998690D01*
X86305330Y-45765000D01*
X85694670Y-45765000D01*
X85130493Y-45998690D01*
X84698690Y-46430493D01*
X84465000Y-46994670D01*
X81535000Y-46994670D01*
X81301310Y-46430493D01*
X80869507Y-45998690D01*
X80305330Y-45765000D01*
X79694670Y-45765000D01*
X79130493Y-45998690D01*
X78698690Y-46430493D01*
X78465000Y-46994670D01*
X75535000Y-46994670D01*
X75301310Y-46430493D01*
X74869507Y-45998690D01*
X74305330Y-45765000D01*
X73694670Y-45765000D01*
X73130493Y-45998690D01*
X72698690Y-46430493D01*
X72465000Y-46994670D01*
X69535000Y-46994670D01*
X69301310Y-46430493D01*
X68869507Y-45998690D01*
X68305330Y-45765000D01*
X67694670Y-45765000D01*
X67130493Y-45998690D01*
X66698690Y-46430493D01*
X66465000Y-46994670D01*
X63535000Y-46994670D01*
X63301310Y-46430493D01*
X62869507Y-45998690D01*
X62305330Y-45765000D01*
X61694670Y-45765000D01*
X61130493Y-45998690D01*
X60698690Y-46430493D01*
X60465000Y-46994670D01*
X57535000Y-46994670D01*
X57301310Y-46430493D01*
X56869507Y-45998690D01*
X56305330Y-45765000D01*
X55694670Y-45765000D01*
X55130493Y-45998690D01*
X54698690Y-46430493D01*
X54465000Y-46994670D01*
X51535000Y-46994670D01*
X51301310Y-46430493D01*
X50869507Y-45998690D01*
X50305330Y-45765000D01*
X49694670Y-45765000D01*
X49130493Y-45998690D01*
X48698690Y-46430493D01*
X48465000Y-46994670D01*
X45535000Y-46994670D01*
X45301310Y-46430493D01*
X44869507Y-45998690D01*
X44305330Y-45765000D01*
X43694670Y-45765000D01*
X43130493Y-45998690D01*
X42698690Y-46430493D01*
X42465000Y-46994670D01*
X39535000Y-46994670D01*
X39301310Y-46430493D01*
X38869507Y-45998690D01*
X38305330Y-45765000D01*
X37694670Y-45765000D01*
X37130493Y-45998690D01*
X36698690Y-46430493D01*
X36465000Y-46994670D01*
X33535000Y-46994670D01*
X33301310Y-46430493D01*
X32869507Y-45998690D01*
X32305330Y-45765000D01*
X31694670Y-45765000D01*
X31130493Y-45998690D01*
X30698690Y-46430493D01*
X30465000Y-46994670D01*
X27535000Y-46994670D01*
X27301310Y-46430493D01*
X26869507Y-45998690D01*
X26305330Y-45765000D01*
X25694670Y-45765000D01*
X25130493Y-45998690D01*
X24698690Y-46430493D01*
X24465000Y-46994670D01*
X21535000Y-46994670D01*
X21301310Y-46430493D01*
X20869507Y-45998690D01*
X20305330Y-45765000D01*
X19694670Y-45765000D01*
X19130493Y-45998690D01*
X18698690Y-46430493D01*
X18465000Y-46994670D01*
X18235000Y-46994670D01*
X18235000Y-44735000D01*
X114265000Y-44735000D01*
X114265001Y-84765000D01*
X114265001Y-84765000D01*
G37*
X114265001Y-84765000D02*
X79109801Y-84765000D01*
X80639803Y-83235000D01*
X81045657Y-83235000D01*
X81499571Y-83046982D01*
X81800000Y-82746553D01*
X82100429Y-83046982D01*
X82554343Y-83235000D01*
X83045657Y-83235000D01*
X83499571Y-83046982D01*
X83800000Y-82746553D01*
X84100429Y-83046982D01*
X84554343Y-83235000D01*
X85045657Y-83235000D01*
X85499571Y-83046982D01*
X85800000Y-82746553D01*
X86100429Y-83046982D01*
X86554343Y-83235000D01*
X87045657Y-83235000D01*
X87499571Y-83046982D01*
X87800000Y-82746553D01*
X88100429Y-83046982D01*
X88554343Y-83235000D01*
X89045657Y-83235000D01*
X89499571Y-83046982D01*
X89800000Y-82746553D01*
X90100429Y-83046982D01*
X90554343Y-83235000D01*
X91045657Y-83235000D01*
X91499571Y-83046982D01*
X91800000Y-82746553D01*
X92100429Y-83046982D01*
X92554343Y-83235000D01*
X93045657Y-83235000D01*
X93499571Y-83046982D01*
X93800000Y-82746553D01*
X94100429Y-83046982D01*
X94554343Y-83235000D01*
X95045657Y-83235000D01*
X95499571Y-83046982D01*
X95846982Y-82699571D01*
X96035000Y-82245657D01*
X96035000Y-81839801D01*
X102782455Y-75092346D01*
X106057974Y-75092346D01*
X106065000Y-75518390D01*
X106065000Y-75944569D01*
X106072320Y-75962240D01*
X106072635Y-75981363D01*
X106384640Y-76734610D01*
X106394347Y-76739682D01*
X106405259Y-76766026D01*
X107033974Y-77394741D01*
X107060318Y-77405653D01*
X107065390Y-77415360D01*
X107461708Y-77571914D01*
X107855431Y-77735000D01*
X107874560Y-77735000D01*
X107892346Y-77742026D01*
X108318390Y-77735000D01*
X108744569Y-77735000D01*
X108762240Y-77727680D01*
X108781363Y-77727365D01*
X109534610Y-77415360D01*
X109539682Y-77405653D01*
X109566026Y-77394741D01*
X110194741Y-76766026D01*
X110205653Y-76739682D01*
X110215360Y-76734610D01*
X110371914Y-76338292D01*
X110535000Y-75944569D01*
X110535000Y-75925440D01*
X110542026Y-75907654D01*
X110535000Y-75481610D01*
X110535000Y-75055431D01*
X110527680Y-75037760D01*
X110527365Y-75018637D01*
X110215360Y-74265390D01*
X110205653Y-74260318D01*
X110194741Y-74233974D01*
X109566026Y-73605259D01*
X109539682Y-73594347D01*
X109534610Y-73584640D01*
X109138292Y-73428086D01*
X108744569Y-73265000D01*
X108725440Y-73265000D01*
X108707654Y-73257974D01*
X108281610Y-73265000D01*
X107855431Y-73265000D01*
X107837760Y-73272320D01*
X107818637Y-73272635D01*
X107065390Y-73584640D01*
X107060318Y-73594347D01*
X107033974Y-73605259D01*
X106405259Y-74233974D01*
X106394347Y-74260318D01*
X106384640Y-74265390D01*
X106228086Y-74661708D01*
X106065000Y-75055431D01*
X106065000Y-75074560D01*
X106057974Y-75092346D01*
X102782455Y-75092346D01*
X113024473Y-64850329D01*
X113087929Y-64807929D01*
X113255904Y-64556537D01*
X113300000Y-64334852D01*
X113300000Y-64334848D01*
X113314888Y-64260000D01*
X113300000Y-64185152D01*
X113300000Y-53726669D01*
X113409507Y-53681310D01*
X113841310Y-53249507D01*
X114075000Y-52685330D01*
X114075000Y-52074670D01*
X113841310Y-51510493D01*
X113409507Y-51078690D01*
X112845330Y-50845000D01*
X112234670Y-50845000D01*
X111670493Y-51078690D01*
X111238690Y-51510493D01*
X111005000Y-52074670D01*
X111005000Y-52685330D01*
X111238690Y-53249507D01*
X111670493Y-53681310D01*
X111780000Y-53726669D01*
X111780001Y-63945197D01*
X107277567Y-68447632D01*
X107300000Y-68334852D01*
X107300000Y-68334848D01*
X107314888Y-68260001D01*
X107300000Y-68185154D01*
X107300000Y-59694670D01*
X108465000Y-59694670D01*
X108465000Y-60305330D01*
X108698690Y-60869507D01*
X109130493Y-61301310D01*
X109694670Y-61535000D01*
X110305330Y-61535000D01*
X110869507Y-61301310D01*
X111301310Y-60869507D01*
X111535000Y-60305330D01*
X111535000Y-59694670D01*
X111301310Y-59130493D01*
X110869507Y-58698690D01*
X110305330Y-58465000D01*
X109694670Y-58465000D01*
X109130493Y-58698690D01*
X108698690Y-59130493D01*
X108465000Y-59694670D01*
X107300000Y-59694670D01*
X107300000Y-53726669D01*
X107409507Y-53681310D01*
X107841310Y-53249507D01*
X108075000Y-52685330D01*
X108075000Y-52074670D01*
X107841310Y-51510493D01*
X107409507Y-51078690D01*
X106845330Y-50845000D01*
X106234670Y-50845000D01*
X105670493Y-51078690D01*
X105238690Y-51510493D01*
X105005000Y-52074670D01*
X105005000Y-52685330D01*
X105238690Y-53249507D01*
X105670493Y-53681310D01*
X105780000Y-53726669D01*
X105780001Y-67945197D01*
X94960199Y-78765000D01*
X94554343Y-78765000D01*
X94485001Y-78793722D01*
X94485001Y-74689800D01*
X101024473Y-68150329D01*
X101087929Y-68107929D01*
X101255904Y-67856537D01*
X101300000Y-67634852D01*
X101300000Y-67634848D01*
X101314888Y-67560001D01*
X101300000Y-67485154D01*
X101300000Y-59694670D01*
X102465000Y-59694670D01*
X102465000Y-60305330D01*
X102698690Y-60869507D01*
X103130493Y-61301310D01*
X103694670Y-61535000D01*
X104305330Y-61535000D01*
X104869507Y-61301310D01*
X105301310Y-60869507D01*
X105535000Y-60305330D01*
X105535000Y-59694670D01*
X105301310Y-59130493D01*
X104869507Y-58698690D01*
X104305330Y-58465000D01*
X103694670Y-58465000D01*
X103130493Y-58698690D01*
X102698690Y-59130493D01*
X102465000Y-59694670D01*
X101300000Y-59694670D01*
X101300000Y-53726669D01*
X101409507Y-53681310D01*
X101841310Y-53249507D01*
X102075000Y-52685330D01*
X102075000Y-52074670D01*
X101841310Y-51510493D01*
X101409507Y-51078690D01*
X100845330Y-50845000D01*
X100234670Y-50845000D01*
X99670493Y-51078690D01*
X99238690Y-51510493D01*
X99005000Y-52074670D01*
X99005000Y-52685330D01*
X99238690Y-53249507D01*
X99670493Y-53681310D01*
X99780000Y-53726669D01*
X99780001Y-67245197D01*
X95300000Y-71725199D01*
X95300000Y-59694670D01*
X96465000Y-59694670D01*
X96465000Y-60305330D01*
X96698690Y-60869507D01*
X97130493Y-61301310D01*
X97694670Y-61535000D01*
X98305330Y-61535000D01*
X98869507Y-61301310D01*
X99301310Y-60869507D01*
X99535000Y-60305330D01*
X99535000Y-59694670D01*
X99301310Y-59130493D01*
X98869507Y-58698690D01*
X98305330Y-58465000D01*
X97694670Y-58465000D01*
X97130493Y-58698690D01*
X96698690Y-59130493D01*
X96465000Y-59694670D01*
X95300000Y-59694670D01*
X95300000Y-53726669D01*
X95409507Y-53681310D01*
X95841310Y-53249507D01*
X96075000Y-52685330D01*
X96075000Y-52074670D01*
X95841310Y-51510493D01*
X95409507Y-51078690D01*
X94845330Y-50845000D01*
X94234670Y-50845000D01*
X93670493Y-51078690D01*
X93238690Y-51510493D01*
X93005000Y-52074670D01*
X93005000Y-52685330D01*
X93238690Y-53249507D01*
X93670493Y-53681310D01*
X93780001Y-53726670D01*
X93780000Y-71545198D01*
X92315528Y-73009671D01*
X92252072Y-73052071D01*
X92209672Y-73115527D01*
X92209671Y-73115528D01*
X92121815Y-73247013D01*
X89300000Y-70425199D01*
X89300000Y-59694670D01*
X90465000Y-59694670D01*
X90465000Y-60305330D01*
X90698690Y-60869507D01*
X91130493Y-61301310D01*
X91694670Y-61535000D01*
X92305330Y-61535000D01*
X92869507Y-61301310D01*
X93301310Y-60869507D01*
X93535000Y-60305330D01*
X93535000Y-59694670D01*
X93301310Y-59130493D01*
X92869507Y-58698690D01*
X92305330Y-58465000D01*
X91694670Y-58465000D01*
X91130493Y-58698690D01*
X90698690Y-59130493D01*
X90465000Y-59694670D01*
X89300000Y-59694670D01*
X89300000Y-53726669D01*
X89409507Y-53681310D01*
X89841310Y-53249507D01*
X90075000Y-52685330D01*
X90075000Y-52074670D01*
X89841310Y-51510493D01*
X89409507Y-51078690D01*
X88845330Y-50845000D01*
X88234670Y-50845000D01*
X87670493Y-51078690D01*
X87238690Y-51510493D01*
X87005000Y-52074670D01*
X87005000Y-52685330D01*
X87238690Y-53249507D01*
X87670493Y-53681310D01*
X87780000Y-53726669D01*
X87780001Y-70405199D01*
X83300000Y-65925199D01*
X83300000Y-59694670D01*
X84465000Y-59694670D01*
X84465000Y-60305330D01*
X84698690Y-60869507D01*
X85130493Y-61301310D01*
X85694670Y-61535000D01*
X86305330Y-61535000D01*
X86869507Y-61301310D01*
X87301310Y-60869507D01*
X87535000Y-60305330D01*
X87535000Y-59694670D01*
X87301310Y-59130493D01*
X86869507Y-58698690D01*
X86305330Y-58465000D01*
X85694670Y-58465000D01*
X85130493Y-58698690D01*
X84698690Y-59130493D01*
X84465000Y-59694670D01*
X83300000Y-59694670D01*
X83300000Y-53726669D01*
X83409507Y-53681310D01*
X83841310Y-53249507D01*
X84075000Y-52685330D01*
X84075000Y-52074670D01*
X83841310Y-51510493D01*
X83409507Y-51078690D01*
X82845330Y-50845000D01*
X82234670Y-50845000D01*
X81670493Y-51078690D01*
X81238690Y-51510493D01*
X81005000Y-52074670D01*
X81005000Y-52685330D01*
X81238690Y-53249507D01*
X81670493Y-53681310D01*
X81780000Y-53726669D01*
X81780001Y-66005200D01*
X77300000Y-61525199D01*
X77300000Y-59694670D01*
X78465000Y-59694670D01*
X78465000Y-60305330D01*
X78698690Y-60869507D01*
X79130493Y-61301310D01*
X79694670Y-61535000D01*
X80305330Y-61535000D01*
X80869507Y-61301310D01*
X81301310Y-60869507D01*
X81535000Y-60305330D01*
X81535000Y-59694670D01*
X81301310Y-59130493D01*
X80869507Y-58698690D01*
X80305330Y-58465000D01*
X79694670Y-58465000D01*
X79130493Y-58698690D01*
X78698690Y-59130493D01*
X78465000Y-59694670D01*
X77300000Y-59694670D01*
X77300000Y-53726669D01*
X77409507Y-53681310D01*
X77841310Y-53249507D01*
X78075000Y-52685330D01*
X78075000Y-52074670D01*
X77841310Y-51510493D01*
X77409507Y-51078690D01*
X76845330Y-50845000D01*
X76234670Y-50845000D01*
X75670493Y-51078690D01*
X75238690Y-51510493D01*
X75005000Y-52074670D01*
X75005000Y-52685330D01*
X75238690Y-53249507D01*
X75670493Y-53681310D01*
X75780000Y-53726669D01*
X75780000Y-56527654D01*
X75772930Y-56517072D01*
X75709474Y-56474672D01*
X72029640Y-52794839D01*
X72075000Y-52685330D01*
X72075000Y-52074670D01*
X71841310Y-51510493D01*
X71409507Y-51078690D01*
X70845330Y-50845000D01*
X70234670Y-50845000D01*
X69670493Y-51078690D01*
X69238690Y-51510493D01*
X69005000Y-52074670D01*
X69005000Y-52685330D01*
X69238690Y-53249507D01*
X69670493Y-53681310D01*
X70234670Y-53915000D01*
X70845330Y-53915000D01*
X70954839Y-53869640D01*
X74465001Y-57379803D01*
X74465001Y-58531138D01*
X74305330Y-58465000D01*
X73694670Y-58465000D01*
X73130493Y-58698690D01*
X72698690Y-59130493D01*
X72601041Y-59366239D01*
X66029640Y-52794839D01*
X66075000Y-52685330D01*
X66075000Y-52074670D01*
X65841310Y-51510493D01*
X65409507Y-51078690D01*
X64845330Y-50845000D01*
X64234670Y-50845000D01*
X63670493Y-51078690D01*
X63238690Y-51510493D01*
X63005000Y-52074670D01*
X63005000Y-52685330D01*
X63238690Y-53249507D01*
X63670493Y-53681310D01*
X64234670Y-53915000D01*
X64845330Y-53915000D01*
X64954839Y-53869640D01*
X86965001Y-75879803D01*
X86965001Y-77053788D01*
X74826741Y-64915530D01*
X74784339Y-64852071D01*
X74532947Y-64684096D01*
X74311262Y-64640000D01*
X74311257Y-64640000D01*
X74236410Y-64625112D01*
X74161563Y-64640000D01*
X71874802Y-64640000D01*
X68633761Y-61398959D01*
X68869507Y-61301310D01*
X69301310Y-60869507D01*
X69535000Y-60305330D01*
X69535000Y-59694670D01*
X69301310Y-59130493D01*
X68869507Y-58698690D01*
X68305330Y-58465000D01*
X67694670Y-58465000D01*
X67130493Y-58698690D01*
X66698690Y-59130493D01*
X66601041Y-59366239D01*
X60029640Y-52794839D01*
X60075000Y-52685330D01*
X60075000Y-52074670D01*
X59841310Y-51510493D01*
X59409507Y-51078690D01*
X58845330Y-50845000D01*
X58234670Y-50845000D01*
X57670493Y-51078690D01*
X57238690Y-51510493D01*
X57005000Y-52074670D01*
X57005000Y-52685330D01*
X57238690Y-53249507D01*
X57670493Y-53681310D01*
X58234670Y-53915000D01*
X58845330Y-53915000D01*
X58954839Y-53869640D01*
X70969670Y-65884472D01*
X71006773Y-65940000D01*
X65902010Y-65940000D01*
X61357242Y-61395233D01*
X61694670Y-61535000D01*
X62305330Y-61535000D01*
X62869507Y-61301310D01*
X63301310Y-60869507D01*
X63535000Y-60305330D01*
X63535000Y-59694670D01*
X63301310Y-59130493D01*
X62869507Y-58698690D01*
X62305330Y-58465000D01*
X61694670Y-58465000D01*
X61130493Y-58698690D01*
X60698690Y-59130493D01*
X60465000Y-59694670D01*
X60465000Y-60305330D01*
X60604767Y-60642758D01*
X53526413Y-53564404D01*
X53841310Y-53249507D01*
X54075000Y-52685330D01*
X54075000Y-52074670D01*
X53841310Y-51510493D01*
X53409507Y-51078690D01*
X52845330Y-50845000D01*
X52234670Y-50845000D01*
X51670493Y-51078690D01*
X51238690Y-51510493D01*
X51005000Y-52074670D01*
X51005000Y-52685330D01*
X51238690Y-53249507D01*
X51670493Y-53681310D01*
X51779790Y-53726582D01*
X51824097Y-53949329D01*
X51884682Y-54040000D01*
X51992072Y-54200721D01*
X52055528Y-54243121D01*
X56277407Y-58465000D01*
X55694670Y-58465000D01*
X55130493Y-58698690D01*
X54698690Y-59130493D01*
X54465000Y-59694670D01*
X54465000Y-60305330D01*
X54698690Y-60869507D01*
X55130493Y-61301310D01*
X55694670Y-61535000D01*
X56305330Y-61535000D01*
X56869507Y-61301310D01*
X57301310Y-60869507D01*
X57535000Y-60305330D01*
X57535000Y-59722593D01*
X64996878Y-67184472D01*
X65033981Y-67240000D01*
X60814803Y-67240000D01*
X47301040Y-53726239D01*
X47409507Y-53681310D01*
X47841310Y-53249507D01*
X48075000Y-52685330D01*
X48075000Y-52074670D01*
X47841310Y-51510493D01*
X47409507Y-51078690D01*
X46845330Y-50845000D01*
X46234670Y-50845000D01*
X45670493Y-51078690D01*
X45238690Y-51510493D01*
X45005000Y-52074670D01*
X45005000Y-52685330D01*
X45238690Y-53249507D01*
X45670493Y-53681310D01*
X45780001Y-53726670D01*
X45780001Y-53965149D01*
X45765112Y-54040000D01*
X45824097Y-54336537D01*
X45891969Y-54438114D01*
X45992072Y-54587929D01*
X46055528Y-54630329D01*
X49890198Y-58465000D01*
X49694670Y-58465000D01*
X49130493Y-58698690D01*
X48698690Y-59130493D01*
X48465000Y-59694670D01*
X48465000Y-60305330D01*
X48604767Y-60642758D01*
X41526413Y-53564404D01*
X41841310Y-53249507D01*
X42075000Y-52685330D01*
X42075000Y-52074670D01*
X41841310Y-51510493D01*
X41409507Y-51078690D01*
X40845330Y-50845000D01*
X40234670Y-50845000D01*
X39670493Y-51078690D01*
X39238690Y-51510493D01*
X39005000Y-52074670D01*
X39005000Y-52685330D01*
X39238690Y-53249507D01*
X39670493Y-53681310D01*
X39779790Y-53726582D01*
X39824097Y-53949329D01*
X39884682Y-54040000D01*
X39992072Y-54200721D01*
X40055528Y-54243121D01*
X44277407Y-58465000D01*
X43694670Y-58465000D01*
X43130493Y-58698690D01*
X42698690Y-59130493D01*
X42601041Y-59366239D01*
X36029640Y-52794839D01*
X36075000Y-52685330D01*
X36075000Y-52074670D01*
X35841310Y-51510493D01*
X35409507Y-51078690D01*
X34845330Y-50845000D01*
X34234670Y-50845000D01*
X33670493Y-51078690D01*
X33238690Y-51510493D01*
X33005000Y-52074670D01*
X33005000Y-52685330D01*
X33238690Y-53249507D01*
X33670493Y-53681310D01*
X34234670Y-53915000D01*
X34845330Y-53915000D01*
X34954839Y-53869640D01*
X53769670Y-72684472D01*
X53812071Y-72747929D01*
X53875527Y-72790329D01*
X54063462Y-72915904D01*
X54111605Y-72925480D01*
X54285148Y-72960000D01*
X54285152Y-72960000D01*
X54360000Y-72974888D01*
X54434848Y-72960000D01*
X74685199Y-72960000D01*
X80477758Y-78752560D01*
X80200000Y-78752560D01*
X79952235Y-78801843D01*
X79876949Y-78852148D01*
X77940331Y-76915530D01*
X77897929Y-76852071D01*
X77646537Y-76684096D01*
X77424852Y-76640000D01*
X77424847Y-76640000D01*
X77350000Y-76625112D01*
X77275153Y-76640000D01*
X47874803Y-76640000D01*
X32633761Y-61398959D01*
X32869507Y-61301310D01*
X33301310Y-60869507D01*
X33535000Y-60305330D01*
X33535000Y-59694670D01*
X36465000Y-59694670D01*
X36465000Y-60305330D01*
X36698690Y-60869507D01*
X37130493Y-61301310D01*
X37694670Y-61535000D01*
X38305330Y-61535000D01*
X38869507Y-61301310D01*
X39301310Y-60869507D01*
X39535000Y-60305330D01*
X39535000Y-59694670D01*
X39301310Y-59130493D01*
X38869507Y-58698690D01*
X38305330Y-58465000D01*
X37694670Y-58465000D01*
X37130493Y-58698690D01*
X36698690Y-59130493D01*
X36465000Y-59694670D01*
X33535000Y-59694670D01*
X33301310Y-59130493D01*
X32869507Y-58698690D01*
X32305330Y-58465000D01*
X31694670Y-58465000D01*
X31130493Y-58698690D01*
X30698690Y-59130493D01*
X30601041Y-59366239D01*
X24029640Y-52794839D01*
X24075000Y-52685330D01*
X24075000Y-52074670D01*
X23841310Y-51510493D01*
X23409507Y-51078690D01*
X23122964Y-50960000D01*
X24772407Y-50960000D01*
X26676878Y-52864472D01*
X26719279Y-52927929D01*
X26970671Y-53095904D01*
X27192356Y-53140000D01*
X27192360Y-53140000D01*
X27193418Y-53140210D01*
X27238690Y-53249507D01*
X27670493Y-53681310D01*
X28234670Y-53915000D01*
X28845330Y-53915000D01*
X29409507Y-53681310D01*
X29841310Y-53249507D01*
X30075000Y-52685330D01*
X30075000Y-52074670D01*
X29841310Y-51510493D01*
X29409507Y-51078690D01*
X28845330Y-50845000D01*
X28234670Y-50845000D01*
X27670493Y-51078690D01*
X27355596Y-51393587D01*
X25677539Y-49715530D01*
X25635137Y-49652071D01*
X25383745Y-49484096D01*
X25162060Y-49440000D01*
X25162055Y-49440000D01*
X25087208Y-49425112D01*
X25012361Y-49440000D01*
X20474848Y-49440000D01*
X20400000Y-49425112D01*
X20325152Y-49440000D01*
X20325148Y-49440000D01*
X20103463Y-49484096D01*
X19852071Y-49652071D01*
X19809671Y-49715527D01*
X18915530Y-50609669D01*
X18852071Y-50652071D01*
X18684096Y-50903464D01*
X18640000Y-51125149D01*
X18640000Y-51125153D01*
X18625112Y-51200000D01*
X18640000Y-51274847D01*
X18640001Y-55138150D01*
X18625112Y-55213002D01*
X18640001Y-55287854D01*
X18684097Y-55509539D01*
X18852072Y-55760931D01*
X18915528Y-55803331D01*
X22540000Y-59427804D01*
X22540001Y-74099232D01*
X22405259Y-74233974D01*
X22394347Y-74260318D01*
X22384640Y-74265390D01*
X22228086Y-74661708D01*
X22065000Y-75055431D01*
X22065000Y-75074560D01*
X22057974Y-75092346D01*
X22065000Y-75518390D01*
X22065000Y-75944569D01*
X22072320Y-75962240D01*
X22072635Y-75981363D01*
X22384640Y-76734610D01*
X22394347Y-76739682D01*
X22405259Y-76766026D01*
X23033974Y-77394741D01*
X23060318Y-77405653D01*
X23065390Y-77415360D01*
X23461708Y-77571914D01*
X23855431Y-77735000D01*
X23874560Y-77735000D01*
X23892346Y-77742026D01*
X24318390Y-77735000D01*
X24744569Y-77735000D01*
X24762240Y-77727680D01*
X24781363Y-77727365D01*
X24973131Y-77647932D01*
X32090198Y-84765000D01*
X18235000Y-84765000D01*
X18235000Y-59694670D01*
X18465000Y-59694670D01*
X18465000Y-60305330D01*
X18698690Y-60869507D01*
X19130493Y-61301310D01*
X19694670Y-61535000D01*
X20305330Y-61535000D01*
X20869507Y-61301310D01*
X21301310Y-60869507D01*
X21535000Y-60305330D01*
X21535000Y-59694670D01*
X21301310Y-59130493D01*
X20869507Y-58698690D01*
X20305330Y-58465000D01*
X19694670Y-58465000D01*
X19130493Y-58698690D01*
X18698690Y-59130493D01*
X18465000Y-59694670D01*
X18235000Y-59694670D01*
X18235000Y-46994670D01*
X18465000Y-46994670D01*
X18465000Y-47605330D01*
X18698690Y-48169507D01*
X19130493Y-48601310D01*
X19694670Y-48835000D01*
X20305330Y-48835000D01*
X20869507Y-48601310D01*
X21301310Y-48169507D01*
X21535000Y-47605330D01*
X21535000Y-46994670D01*
X24465000Y-46994670D01*
X24465000Y-47605330D01*
X24698690Y-48169507D01*
X25130493Y-48601310D01*
X25694670Y-48835000D01*
X26305330Y-48835000D01*
X26869507Y-48601310D01*
X27301310Y-48169507D01*
X27535000Y-47605330D01*
X27535000Y-46994670D01*
X30465000Y-46994670D01*
X30465000Y-47605330D01*
X30698690Y-48169507D01*
X31130493Y-48601310D01*
X31694670Y-48835000D01*
X32305330Y-48835000D01*
X32869507Y-48601310D01*
X33301310Y-48169507D01*
X33535000Y-47605330D01*
X33535000Y-46994670D01*
X36465000Y-46994670D01*
X36465000Y-47605330D01*
X36698690Y-48169507D01*
X37130493Y-48601310D01*
X37694670Y-48835000D01*
X38305330Y-48835000D01*
X38869507Y-48601310D01*
X39301310Y-48169507D01*
X39535000Y-47605330D01*
X39535000Y-46994670D01*
X42465000Y-46994670D01*
X42465000Y-47605330D01*
X42698690Y-48169507D01*
X43130493Y-48601310D01*
X43694670Y-48835000D01*
X44305330Y-48835000D01*
X44869507Y-48601310D01*
X45301310Y-48169507D01*
X45535000Y-47605330D01*
X45535000Y-46994670D01*
X48465000Y-46994670D01*
X48465000Y-47605330D01*
X48698690Y-48169507D01*
X49130493Y-48601310D01*
X49694670Y-48835000D01*
X50305330Y-48835000D01*
X50869507Y-48601310D01*
X51301310Y-48169507D01*
X51535000Y-47605330D01*
X51535000Y-46994670D01*
X54465000Y-46994670D01*
X54465000Y-47605330D01*
X54698690Y-48169507D01*
X55130493Y-48601310D01*
X55694670Y-48835000D01*
X56305330Y-48835000D01*
X56869507Y-48601310D01*
X57301310Y-48169507D01*
X57535000Y-47605330D01*
X57535000Y-46994670D01*
X60465000Y-46994670D01*
X60465000Y-47605330D01*
X60698690Y-48169507D01*
X61130493Y-48601310D01*
X61694670Y-48835000D01*
X62305330Y-48835000D01*
X62869507Y-48601310D01*
X63301310Y-48169507D01*
X63535000Y-47605330D01*
X63535000Y-46994670D01*
X66465000Y-46994670D01*
X66465000Y-47605330D01*
X66698690Y-48169507D01*
X67130493Y-48601310D01*
X67694670Y-48835000D01*
X68305330Y-48835000D01*
X68869507Y-48601310D01*
X69301310Y-48169507D01*
X69535000Y-47605330D01*
X69535000Y-46994670D01*
X72465000Y-46994670D01*
X72465000Y-47605330D01*
X72698690Y-48169507D01*
X73130493Y-48601310D01*
X73694670Y-48835000D01*
X74305330Y-48835000D01*
X74869507Y-48601310D01*
X75301310Y-48169507D01*
X75535000Y-47605330D01*
X75535000Y-46994670D01*
X78465000Y-46994670D01*
X78465000Y-47605330D01*
X78698690Y-48169507D01*
X79130493Y-48601310D01*
X79694670Y-48835000D01*
X80305330Y-48835000D01*
X80869507Y-48601310D01*
X81301310Y-48169507D01*
X81535000Y-47605330D01*
X81535000Y-46994670D01*
X84465000Y-46994670D01*
X84465000Y-47605330D01*
X84698690Y-48169507D01*
X85130493Y-48601310D01*
X85694670Y-48835000D01*
X86305330Y-48835000D01*
X86869507Y-48601310D01*
X87301310Y-48169507D01*
X87535000Y-47605330D01*
X87535000Y-46994670D01*
X90465000Y-46994670D01*
X90465000Y-47605330D01*
X90698690Y-48169507D01*
X91130493Y-48601310D01*
X91694670Y-48835000D01*
X92305330Y-48835000D01*
X92869507Y-48601310D01*
X93301310Y-48169507D01*
X93535000Y-47605330D01*
X93535000Y-46994670D01*
X96465000Y-46994670D01*
X96465000Y-47605330D01*
X96698690Y-48169507D01*
X97130493Y-48601310D01*
X97694670Y-48835000D01*
X98305330Y-48835000D01*
X98869507Y-48601310D01*
X99301310Y-48169507D01*
X99535000Y-47605330D01*
X99535000Y-46994670D01*
X102465000Y-46994670D01*
X102465000Y-47605330D01*
X102698690Y-48169507D01*
X103130493Y-48601310D01*
X103694670Y-48835000D01*
X104305330Y-48835000D01*
X104869507Y-48601310D01*
X105301310Y-48169507D01*
X105535000Y-47605330D01*
X105535000Y-46994670D01*
X108465000Y-46994670D01*
X108465000Y-47605330D01*
X108698690Y-48169507D01*
X109130493Y-48601310D01*
X109694670Y-48835000D01*
X110305330Y-48835000D01*
X110869507Y-48601310D01*
X111301310Y-48169507D01*
X111535000Y-47605330D01*
X111535000Y-46994670D01*
X111301310Y-46430493D01*
X110869507Y-45998690D01*
X110305330Y-45765000D01*
X109694670Y-45765000D01*
X109130493Y-45998690D01*
X108698690Y-46430493D01*
X108465000Y-46994670D01*
X105535000Y-46994670D01*
X105301310Y-46430493D01*
X104869507Y-45998690D01*
X104305330Y-45765000D01*
X103694670Y-45765000D01*
X103130493Y-45998690D01*
X102698690Y-46430493D01*
X102465000Y-46994670D01*
X99535000Y-46994670D01*
X99301310Y-46430493D01*
X98869507Y-45998690D01*
X98305330Y-45765000D01*
X97694670Y-45765000D01*
X97130493Y-45998690D01*
X96698690Y-46430493D01*
X96465000Y-46994670D01*
X93535000Y-46994670D01*
X93301310Y-46430493D01*
X92869507Y-45998690D01*
X92305330Y-45765000D01*
X91694670Y-45765000D01*
X91130493Y-45998690D01*
X90698690Y-46430493D01*
X90465000Y-46994670D01*
X87535000Y-46994670D01*
X87301310Y-46430493D01*
X86869507Y-45998690D01*
X86305330Y-45765000D01*
X85694670Y-45765000D01*
X85130493Y-45998690D01*
X84698690Y-46430493D01*
X84465000Y-46994670D01*
X81535000Y-46994670D01*
X81301310Y-46430493D01*
X80869507Y-45998690D01*
X80305330Y-45765000D01*
X79694670Y-45765000D01*
X79130493Y-45998690D01*
X78698690Y-46430493D01*
X78465000Y-46994670D01*
X75535000Y-46994670D01*
X75301310Y-46430493D01*
X74869507Y-45998690D01*
X74305330Y-45765000D01*
X73694670Y-45765000D01*
X73130493Y-45998690D01*
X72698690Y-46430493D01*
X72465000Y-46994670D01*
X69535000Y-46994670D01*
X69301310Y-46430493D01*
X68869507Y-45998690D01*
X68305330Y-45765000D01*
X67694670Y-45765000D01*
X67130493Y-45998690D01*
X66698690Y-46430493D01*
X66465000Y-46994670D01*
X63535000Y-46994670D01*
X63301310Y-46430493D01*
X62869507Y-45998690D01*
X62305330Y-45765000D01*
X61694670Y-45765000D01*
X61130493Y-45998690D01*
X60698690Y-46430493D01*
X60465000Y-46994670D01*
X57535000Y-46994670D01*
X57301310Y-46430493D01*
X56869507Y-45998690D01*
X56305330Y-45765000D01*
X55694670Y-45765000D01*
X55130493Y-45998690D01*
X54698690Y-46430493D01*
X54465000Y-46994670D01*
X51535000Y-46994670D01*
X51301310Y-46430493D01*
X50869507Y-45998690D01*
X50305330Y-45765000D01*
X49694670Y-45765000D01*
X49130493Y-45998690D01*
X48698690Y-46430493D01*
X48465000Y-46994670D01*
X45535000Y-46994670D01*
X45301310Y-46430493D01*
X44869507Y-45998690D01*
X44305330Y-45765000D01*
X43694670Y-45765000D01*
X43130493Y-45998690D01*
X42698690Y-46430493D01*
X42465000Y-46994670D01*
X39535000Y-46994670D01*
X39301310Y-46430493D01*
X38869507Y-45998690D01*
X38305330Y-45765000D01*
X37694670Y-45765000D01*
X37130493Y-45998690D01*
X36698690Y-46430493D01*
X36465000Y-46994670D01*
X33535000Y-46994670D01*
X33301310Y-46430493D01*
X32869507Y-45998690D01*
X32305330Y-45765000D01*
X31694670Y-45765000D01*
X31130493Y-45998690D01*
X30698690Y-46430493D01*
X30465000Y-46994670D01*
X27535000Y-46994670D01*
X27301310Y-46430493D01*
X26869507Y-45998690D01*
X26305330Y-45765000D01*
X25694670Y-45765000D01*
X25130493Y-45998690D01*
X24698690Y-46430493D01*
X24465000Y-46994670D01*
X21535000Y-46994670D01*
X21301310Y-46430493D01*
X20869507Y-45998690D01*
X20305330Y-45765000D01*
X19694670Y-45765000D01*
X19130493Y-45998690D01*
X18698690Y-46430493D01*
X18465000Y-46994670D01*
X18235000Y-46994670D01*
X18235000Y-44735000D01*
X114265000Y-44735000D01*
X114265001Y-84765000D01*
G36*
X21670493Y-51078690D02*
X21238690Y-51510493D01*
X21005000Y-52074670D01*
X21005000Y-52685330D01*
X21238690Y-53249507D01*
X21670493Y-53681310D01*
X22234670Y-53915000D01*
X22845330Y-53915000D01*
X22954839Y-53869640D01*
X46969673Y-77884476D01*
X47012071Y-77947929D01*
X47075524Y-77990327D01*
X47075526Y-77990329D01*
X47199148Y-78072930D01*
X47263463Y-78115904D01*
X47485148Y-78160000D01*
X47485152Y-78160000D01*
X47559999Y-78174888D01*
X47634846Y-78160000D01*
X77035199Y-78160000D01*
X79359671Y-80484473D01*
X79402071Y-80547929D01*
X79563682Y-80655914D01*
X79601843Y-80847765D01*
X79742191Y-81057809D01*
X79894121Y-81159326D01*
X79753018Y-81300429D01*
X79565000Y-81754343D01*
X79565000Y-82160197D01*
X77585199Y-84140000D01*
X33614802Y-84140000D01*
X28874802Y-79400000D01*
X36252560Y-79400000D01*
X36252560Y-80600000D01*
X36301843Y-80847765D01*
X36442191Y-81057809D01*
X36594121Y-81159326D01*
X36453018Y-81300429D01*
X36265000Y-81754343D01*
X36265000Y-82245657D01*
X36453018Y-82699571D01*
X36800429Y-83046982D01*
X37254343Y-83235000D01*
X37745657Y-83235000D01*
X38199571Y-83046982D01*
X38500000Y-82746553D01*
X38800429Y-83046982D01*
X39254343Y-83235000D01*
X39745657Y-83235000D01*
X40199571Y-83046982D01*
X40500000Y-82746553D01*
X40800429Y-83046982D01*
X41254343Y-83235000D01*
X41745657Y-83235000D01*
X42199571Y-83046982D01*
X42500000Y-82746553D01*
X42800429Y-83046982D01*
X43254343Y-83235000D01*
X43745657Y-83235000D01*
X44199571Y-83046982D01*
X44500000Y-82746553D01*
X44800429Y-83046982D01*
X45254343Y-83235000D01*
X45745657Y-83235000D01*
X46199571Y-83046982D01*
X46500000Y-82746553D01*
X46800429Y-83046982D01*
X47254343Y-83235000D01*
X47745657Y-83235000D01*
X48199571Y-83046982D01*
X48500000Y-82746553D01*
X48800429Y-83046982D01*
X49254343Y-83235000D01*
X49745657Y-83235000D01*
X50199571Y-83046982D01*
X50500000Y-82746553D01*
X50800429Y-83046982D01*
X51254343Y-83235000D01*
X51745657Y-83235000D01*
X52199571Y-83046982D01*
X52546982Y-82699571D01*
X52735000Y-82245657D01*
X52735000Y-81754343D01*
X52546982Y-81300429D01*
X52246553Y-81000000D01*
X52546982Y-80699571D01*
X52735000Y-80245657D01*
X52735000Y-79754343D01*
X52546982Y-79300429D01*
X52199571Y-78953018D01*
X51745657Y-78765000D01*
X51254343Y-78765000D01*
X50800429Y-78953018D01*
X50500000Y-79253447D01*
X50199571Y-78953018D01*
X49745657Y-78765000D01*
X49254343Y-78765000D01*
X48800429Y-78953018D01*
X48500000Y-79253447D01*
X48199571Y-78953018D01*
X47745657Y-78765000D01*
X47254343Y-78765000D01*
X46800429Y-78953018D01*
X46500000Y-79253447D01*
X46199571Y-78953018D01*
X45745657Y-78765000D01*
X45254343Y-78765000D01*
X44800429Y-78953018D01*
X44500000Y-79253447D01*
X44199571Y-78953018D01*
X43745657Y-78765000D01*
X43254343Y-78765000D01*
X42800429Y-78953018D01*
X42500000Y-79253447D01*
X42199571Y-78953018D01*
X41745657Y-78765000D01*
X41254343Y-78765000D01*
X40800429Y-78953018D01*
X40500000Y-79253447D01*
X40199571Y-78953018D01*
X39745657Y-78765000D01*
X39254343Y-78765000D01*
X38800429Y-78953018D01*
X38659326Y-79094121D01*
X38557809Y-78942191D01*
X38347765Y-78801843D01*
X38100000Y-78752560D01*
X36900000Y-78752560D01*
X36652235Y-78801843D01*
X36442191Y-78942191D01*
X36301843Y-79152235D01*
X36252560Y-79400000D01*
X28874802Y-79400000D01*
X26211453Y-76736652D01*
X26215360Y-76734610D01*
X26371914Y-76338292D01*
X26535000Y-75944569D01*
X26535000Y-75925440D01*
X26542026Y-75907654D01*
X26535000Y-75481610D01*
X26535000Y-75055431D01*
X26527680Y-75037760D01*
X26527365Y-75018637D01*
X26215360Y-74265390D01*
X26205653Y-74260318D01*
X26194741Y-74233974D01*
X25566026Y-73605259D01*
X25539682Y-73594347D01*
X25534610Y-73584640D01*
X25138292Y-73428086D01*
X24744569Y-73265000D01*
X24725440Y-73265000D01*
X24707654Y-73257974D01*
X24281610Y-73265000D01*
X24060000Y-73265000D01*
X24060000Y-59694670D01*
X24465000Y-59694670D01*
X24465000Y-60305330D01*
X24698690Y-60869507D01*
X25130493Y-61301310D01*
X25694670Y-61535000D01*
X26305330Y-61535000D01*
X26869507Y-61301310D01*
X27301310Y-60869507D01*
X27535000Y-60305330D01*
X27535000Y-59694670D01*
X27301310Y-59130493D01*
X26869507Y-58698690D01*
X26305330Y-58465000D01*
X25694670Y-58465000D01*
X25130493Y-58698690D01*
X24698690Y-59130493D01*
X24465000Y-59694670D01*
X24060000Y-59694670D01*
X24060000Y-59187849D01*
X24074888Y-59113002D01*
X24060000Y-59038155D01*
X24060000Y-59038150D01*
X24015904Y-58816465D01*
X23847929Y-58565073D01*
X23784473Y-58522673D01*
X20160000Y-54898201D01*
X20160000Y-51514801D01*
X20714802Y-50960000D01*
X21957036Y-50960000D01*
X21670493Y-51078690D01*
X21670493Y-51078690D01*
G37*
X21670493Y-51078690D02*
X21238690Y-51510493D01*
X21005000Y-52074670D01*
X21005000Y-52685330D01*
X21238690Y-53249507D01*
X21670493Y-53681310D01*
X22234670Y-53915000D01*
X22845330Y-53915000D01*
X22954839Y-53869640D01*
X46969673Y-77884476D01*
X47012071Y-77947929D01*
X47075524Y-77990327D01*
X47075526Y-77990329D01*
X47199148Y-78072930D01*
X47263463Y-78115904D01*
X47485148Y-78160000D01*
X47485152Y-78160000D01*
X47559999Y-78174888D01*
X47634846Y-78160000D01*
X77035199Y-78160000D01*
X79359671Y-80484473D01*
X79402071Y-80547929D01*
X79563682Y-80655914D01*
X79601843Y-80847765D01*
X79742191Y-81057809D01*
X79894121Y-81159326D01*
X79753018Y-81300429D01*
X79565000Y-81754343D01*
X79565000Y-82160197D01*
X77585199Y-84140000D01*
X33614802Y-84140000D01*
X28874802Y-79400000D01*
X36252560Y-79400000D01*
X36252560Y-80600000D01*
X36301843Y-80847765D01*
X36442191Y-81057809D01*
X36594121Y-81159326D01*
X36453018Y-81300429D01*
X36265000Y-81754343D01*
X36265000Y-82245657D01*
X36453018Y-82699571D01*
X36800429Y-83046982D01*
X37254343Y-83235000D01*
X37745657Y-83235000D01*
X38199571Y-83046982D01*
X38500000Y-82746553D01*
X38800429Y-83046982D01*
X39254343Y-83235000D01*
X39745657Y-83235000D01*
X40199571Y-83046982D01*
X40500000Y-82746553D01*
X40800429Y-83046982D01*
X41254343Y-83235000D01*
X41745657Y-83235000D01*
X42199571Y-83046982D01*
X42500000Y-82746553D01*
X42800429Y-83046982D01*
X43254343Y-83235000D01*
X43745657Y-83235000D01*
X44199571Y-83046982D01*
X44500000Y-82746553D01*
X44800429Y-83046982D01*
X45254343Y-83235000D01*
X45745657Y-83235000D01*
X46199571Y-83046982D01*
X46500000Y-82746553D01*
X46800429Y-83046982D01*
X47254343Y-83235000D01*
X47745657Y-83235000D01*
X48199571Y-83046982D01*
X48500000Y-82746553D01*
X48800429Y-83046982D01*
X49254343Y-83235000D01*
X49745657Y-83235000D01*
X50199571Y-83046982D01*
X50500000Y-82746553D01*
X50800429Y-83046982D01*
X51254343Y-83235000D01*
X51745657Y-83235000D01*
X52199571Y-83046982D01*
X52546982Y-82699571D01*
X52735000Y-82245657D01*
X52735000Y-81754343D01*
X52546982Y-81300429D01*
X52246553Y-81000000D01*
X52546982Y-80699571D01*
X52735000Y-80245657D01*
X52735000Y-79754343D01*
X52546982Y-79300429D01*
X52199571Y-78953018D01*
X51745657Y-78765000D01*
X51254343Y-78765000D01*
X50800429Y-78953018D01*
X50500000Y-79253447D01*
X50199571Y-78953018D01*
X49745657Y-78765000D01*
X49254343Y-78765000D01*
X48800429Y-78953018D01*
X48500000Y-79253447D01*
X48199571Y-78953018D01*
X47745657Y-78765000D01*
X47254343Y-78765000D01*
X46800429Y-78953018D01*
X46500000Y-79253447D01*
X46199571Y-78953018D01*
X45745657Y-78765000D01*
X45254343Y-78765000D01*
X44800429Y-78953018D01*
X44500000Y-79253447D01*
X44199571Y-78953018D01*
X43745657Y-78765000D01*
X43254343Y-78765000D01*
X42800429Y-78953018D01*
X42500000Y-79253447D01*
X42199571Y-78953018D01*
X41745657Y-78765000D01*
X41254343Y-78765000D01*
X40800429Y-78953018D01*
X40500000Y-79253447D01*
X40199571Y-78953018D01*
X39745657Y-78765000D01*
X39254343Y-78765000D01*
X38800429Y-78953018D01*
X38659326Y-79094121D01*
X38557809Y-78942191D01*
X38347765Y-78801843D01*
X38100000Y-78752560D01*
X36900000Y-78752560D01*
X36652235Y-78801843D01*
X36442191Y-78942191D01*
X36301843Y-79152235D01*
X36252560Y-79400000D01*
X28874802Y-79400000D01*
X26211453Y-76736652D01*
X26215360Y-76734610D01*
X26371914Y-76338292D01*
X26535000Y-75944569D01*
X26535000Y-75925440D01*
X26542026Y-75907654D01*
X26535000Y-75481610D01*
X26535000Y-75055431D01*
X26527680Y-75037760D01*
X26527365Y-75018637D01*
X26215360Y-74265390D01*
X26205653Y-74260318D01*
X26194741Y-74233974D01*
X25566026Y-73605259D01*
X25539682Y-73594347D01*
X25534610Y-73584640D01*
X25138292Y-73428086D01*
X24744569Y-73265000D01*
X24725440Y-73265000D01*
X24707654Y-73257974D01*
X24281610Y-73265000D01*
X24060000Y-73265000D01*
X24060000Y-59694670D01*
X24465000Y-59694670D01*
X24465000Y-60305330D01*
X24698690Y-60869507D01*
X25130493Y-61301310D01*
X25694670Y-61535000D01*
X26305330Y-61535000D01*
X26869507Y-61301310D01*
X27301310Y-60869507D01*
X27535000Y-60305330D01*
X27535000Y-59694670D01*
X27301310Y-59130493D01*
X26869507Y-58698690D01*
X26305330Y-58465000D01*
X25694670Y-58465000D01*
X25130493Y-58698690D01*
X24698690Y-59130493D01*
X24465000Y-59694670D01*
X24060000Y-59694670D01*
X24060000Y-59187849D01*
X24074888Y-59113002D01*
X24060000Y-59038155D01*
X24060000Y-59038150D01*
X24015904Y-58816465D01*
X23847929Y-58565073D01*
X23784473Y-58522673D01*
X20160000Y-54898201D01*
X20160000Y-51514801D01*
X20714802Y-50960000D01*
X21957036Y-50960000D01*
X21670493Y-51078690D01*
G36*
X48753447Y-81000000D02*
X48500000Y-81253447D01*
X48246553Y-81000000D01*
X48500000Y-80746553D01*
X48753447Y-81000000D01*
X48753447Y-81000000D01*
G37*
X48753447Y-81000000D02*
X48500000Y-81253447D01*
X48246553Y-81000000D01*
X48500000Y-80746553D01*
X48753447Y-81000000D01*
G36*
X50753447Y-81000000D02*
X50500000Y-81253447D01*
X50246553Y-81000000D01*
X50500000Y-80746553D01*
X50753447Y-81000000D01*
X50753447Y-81000000D01*
G37*
X50753447Y-81000000D02*
X50500000Y-81253447D01*
X50246553Y-81000000D01*
X50500000Y-80746553D01*
X50753447Y-81000000D01*
G36*
X46753447Y-81000000D02*
X46500000Y-81253447D01*
X46246553Y-81000000D01*
X46500000Y-80746553D01*
X46753447Y-81000000D01*
X46753447Y-81000000D01*
G37*
X46753447Y-81000000D02*
X46500000Y-81253447D01*
X46246553Y-81000000D01*
X46500000Y-80746553D01*
X46753447Y-81000000D01*
G36*
X44753447Y-81000000D02*
X44500000Y-81253447D01*
X44246553Y-81000000D01*
X44500000Y-80746553D01*
X44753447Y-81000000D01*
X44753447Y-81000000D01*
G37*
X44753447Y-81000000D02*
X44500000Y-81253447D01*
X44246553Y-81000000D01*
X44500000Y-80746553D01*
X44753447Y-81000000D01*
G36*
X42753447Y-81000000D02*
X42500000Y-81253447D01*
X42246553Y-81000000D01*
X42500000Y-80746553D01*
X42753447Y-81000000D01*
X42753447Y-81000000D01*
G37*
X42753447Y-81000000D02*
X42500000Y-81253447D01*
X42246553Y-81000000D01*
X42500000Y-80746553D01*
X42753447Y-81000000D01*
G36*
X38753447Y-81000000D02*
X38500000Y-81253447D01*
X38405879Y-81159326D01*
X38557809Y-81057809D01*
X38659326Y-80905879D01*
X38753447Y-81000000D01*
X38753447Y-81000000D01*
G37*
X38753447Y-81000000D02*
X38500000Y-81253447D01*
X38405879Y-81159326D01*
X38557809Y-81057809D01*
X38659326Y-80905879D01*
X38753447Y-81000000D01*
G36*
X40753447Y-81000000D02*
X40500000Y-81253447D01*
X40246553Y-81000000D01*
X40500000Y-80746553D01*
X40753447Y-81000000D01*
X40753447Y-81000000D01*
G37*
X40753447Y-81000000D02*
X40500000Y-81253447D01*
X40246553Y-81000000D01*
X40500000Y-80746553D01*
X40753447Y-81000000D01*
G36*
X82053447Y-81000000D02*
X81800000Y-81253447D01*
X81705879Y-81159326D01*
X81857809Y-81057809D01*
X81959326Y-80905879D01*
X82053447Y-81000000D01*
X82053447Y-81000000D01*
G37*
X82053447Y-81000000D02*
X81800000Y-81253447D01*
X81705879Y-81159326D01*
X81857809Y-81057809D01*
X81959326Y-80905879D01*
X82053447Y-81000000D01*
G36*
X55809670Y-69997264D02*
X55852071Y-70060721D01*
X56103463Y-70228696D01*
X56325148Y-70272792D01*
X56325152Y-70272792D01*
X56399999Y-70287680D01*
X56474846Y-70272792D01*
X74897991Y-70272792D01*
X82965001Y-78339804D01*
X82965001Y-78765000D01*
X82639802Y-78765000D01*
X75590331Y-71715530D01*
X75547929Y-71652071D01*
X75296537Y-71484096D01*
X75074852Y-71440000D01*
X75074847Y-71440000D01*
X75000000Y-71425112D01*
X74925153Y-71440000D01*
X54674802Y-71440000D01*
X44633761Y-61398959D01*
X44869507Y-61301310D01*
X45301310Y-60869507D01*
X45535000Y-60305330D01*
X45535000Y-59722593D01*
X55809670Y-69997264D01*
X55809670Y-69997264D01*
G37*
X55809670Y-69997264D02*
X55852071Y-70060721D01*
X56103463Y-70228696D01*
X56325148Y-70272792D01*
X56325152Y-70272792D01*
X56399999Y-70287680D01*
X56474846Y-70272792D01*
X74897991Y-70272792D01*
X82965001Y-78339804D01*
X82965001Y-78765000D01*
X82639802Y-78765000D01*
X75590331Y-71715530D01*
X75547929Y-71652071D01*
X75296537Y-71484096D01*
X75074852Y-71440000D01*
X75074847Y-71440000D01*
X75000000Y-71425112D01*
X74925153Y-71440000D01*
X54674802Y-71440000D01*
X44633761Y-61398959D01*
X44869507Y-61301310D01*
X45301310Y-60869507D01*
X45535000Y-60305330D01*
X45535000Y-59722593D01*
X55809670Y-69997264D01*
G36*
X59909673Y-68484476D02*
X59952071Y-68547929D01*
X60015524Y-68590327D01*
X60015526Y-68590329D01*
X60140902Y-68674102D01*
X60203463Y-68715904D01*
X60388911Y-68752792D01*
X56714802Y-68752792D01*
X49357242Y-61395233D01*
X49694670Y-61535000D01*
X50305330Y-61535000D01*
X50869507Y-61301310D01*
X51301310Y-60869507D01*
X51535000Y-60305330D01*
X51535000Y-60109802D01*
X59909673Y-68484476D01*
X59909673Y-68484476D01*
G37*
X59909673Y-68484476D02*
X59952071Y-68547929D01*
X60015524Y-68590327D01*
X60015526Y-68590329D01*
X60140902Y-68674102D01*
X60203463Y-68715904D01*
X60388911Y-68752792D01*
X56714802Y-68752792D01*
X49357242Y-61395233D01*
X49694670Y-61535000D01*
X50305330Y-61535000D01*
X50869507Y-61301310D01*
X51301310Y-60869507D01*
X51535000Y-60305330D01*
X51535000Y-60109802D01*
X59909673Y-68484476D01*
M02*
