G04 #@! TF.GenerationSoftware,KiCad,Pcbnew,(5.0.0)*
G04 #@! TF.CreationDate,2019-02-27T09:55:35+01:00*
G04 #@! TF.ProjectId,Potentiometer_mount_16LED,506F74656E74696F6D657465725F6D6F,rev?*
G04 #@! TF.SameCoordinates,Original*
G04 #@! TF.FileFunction,Copper,L1,Top,Signal*
G04 #@! TF.FilePolarity,Positive*
%FSLAX46Y46*%
G04 Gerber Fmt 4.6, Leading zero omitted, Abs format (unit mm)*
G04 Created by KiCad (PCBNEW (5.0.0)) date 02/27/19 09:55:35*
%MOMM*%
%LPD*%
G01*
G04 APERTURE LIST*
G04 #@! TA.AperFunction,ComponentPad*
%ADD10C,1.800000*%
G04 #@! TD*
G04 #@! TA.AperFunction,ComponentPad*
%ADD11R,1.200000X1.200000*%
G04 #@! TD*
G04 #@! TA.AperFunction,ComponentPad*
%ADD12C,1.200000*%
G04 #@! TD*
G04 #@! TA.AperFunction,Conductor*
%ADD13C,0.250000*%
G04 #@! TD*
G04 APERTURE END LIST*
D10*
G04 #@! TO.P, LED 11,1*
G04 #@! TO.N,Net-(RV11-Pad1)*
X80000000Y-60000000D03*
G04 #@! TO.P, LED 11,2*
G04 #@! TO.N,Net-(J2-Pad11)*
X82540000Y-52380000D03*
G04 #@! TO.P, LED 11,3*
G04 #@! TO.N,Net-(J1-Pad11)*
X80000000Y-47300000D03*
G04 #@! TD*
G04 #@! TO.P,LED 1,3*
G04 #@! TO.N,Net-(J1-Pad1)*
X20000000Y-47300000D03*
G04 #@! TO.P,LED 1,2*
G04 #@! TO.N,Net-(J2-Pad1)*
X22540000Y-52380000D03*
G04 #@! TO.P,LED 1,1*
G04 #@! TO.N,Net-(RV1-Pad1)*
X20000000Y-60000000D03*
G04 #@! TD*
G04 #@! TO.P,LED 2,1*
G04 #@! TO.N,Net-(RV2-Pad1)*
X26000000Y-60000000D03*
G04 #@! TO.P,LED 2,2*
G04 #@! TO.N,Net-(J2-Pad2)*
X28540000Y-52380000D03*
G04 #@! TO.P,LED 2,3*
G04 #@! TO.N,Net-(J1-Pad2)*
X26000000Y-47300000D03*
G04 #@! TD*
G04 #@! TO.P,LED 3,3*
G04 #@! TO.N,Net-(J1-Pad3)*
X32000000Y-47300000D03*
G04 #@! TO.P,LED 3,2*
G04 #@! TO.N,Net-(J2-Pad3)*
X34540000Y-52380000D03*
G04 #@! TO.P,LED 3,1*
G04 #@! TO.N,Net-(RV3-Pad1)*
X32000000Y-60000000D03*
G04 #@! TD*
G04 #@! TO.P,LED 4,1*
G04 #@! TO.N,Net-(RV4-Pad1)*
X38000000Y-60000000D03*
G04 #@! TO.P,LED 4,2*
G04 #@! TO.N,Net-(J2-Pad4)*
X40540000Y-52380000D03*
G04 #@! TO.P,LED 4,3*
G04 #@! TO.N,Net-(J1-Pad4)*
X38000000Y-47300000D03*
G04 #@! TD*
G04 #@! TO.P,LED 5,1*
G04 #@! TO.N,Net-(RV5-Pad1)*
X44000000Y-60000000D03*
G04 #@! TO.P,LED 5,2*
G04 #@! TO.N,Net-(J2-Pad5)*
X46540000Y-52380000D03*
G04 #@! TO.P,LED 5,3*
G04 #@! TO.N,Net-(J1-Pad5)*
X44000000Y-47300000D03*
G04 #@! TD*
G04 #@! TO.P,LED 6,3*
G04 #@! TO.N,Net-(J1-Pad6)*
X50000000Y-47300000D03*
G04 #@! TO.P,LED 6,2*
G04 #@! TO.N,Net-(J2-Pad6)*
X52540000Y-52380000D03*
G04 #@! TO.P,LED 6,1*
G04 #@! TO.N,Net-(RV6-Pad1)*
X50000000Y-60000000D03*
G04 #@! TD*
G04 #@! TO.P,LED 7,1*
G04 #@! TO.N,Net-(RV7-Pad1)*
X56000000Y-60000000D03*
G04 #@! TO.P,LED 7,2*
G04 #@! TO.N,Net-(J2-Pad7)*
X58540000Y-52380000D03*
G04 #@! TO.P,LED 7,3*
G04 #@! TO.N,Net-(J1-Pad7)*
X56000000Y-47300000D03*
G04 #@! TD*
G04 #@! TO.P,LED 8,3*
G04 #@! TO.N,Net-(J1-Pad8)*
X62000000Y-47300000D03*
G04 #@! TO.P,LED 8,2*
G04 #@! TO.N,Net-(J2-Pad8)*
X64540000Y-52380000D03*
G04 #@! TO.P,LED 8,1*
G04 #@! TO.N,Net-(RV8-Pad1)*
X62000000Y-60000000D03*
G04 #@! TD*
G04 #@! TO.P,LED 9,1*
G04 #@! TO.N,Net-(RV9-Pad1)*
X68000000Y-60000000D03*
G04 #@! TO.P,LED 9,2*
G04 #@! TO.N,Net-(J2-Pad9)*
X70540000Y-52380000D03*
G04 #@! TO.P,LED 9,3*
G04 #@! TO.N,Net-(J1-Pad9)*
X68000000Y-47300000D03*
G04 #@! TD*
G04 #@! TO.P,LED 10,3*
G04 #@! TO.N,Net-(J1-Pad10)*
X74000000Y-47300000D03*
G04 #@! TO.P,LED 10,2*
G04 #@! TO.N,Net-(J2-Pad10)*
X76540000Y-52380000D03*
G04 #@! TO.P,LED 10,1*
G04 #@! TO.N,Net-(RV10-Pad1)*
X74000000Y-60000000D03*
G04 #@! TD*
G04 #@! TO.P,LED 12,1*
G04 #@! TO.N,Net-(RV12-Pad1)*
X86000000Y-60000000D03*
G04 #@! TO.P,LED 12,2*
G04 #@! TO.N,Net-(J2-Pad12)*
X88540000Y-52380000D03*
G04 #@! TO.P,LED 12,3*
G04 #@! TO.N,Net-(J1-Pad12)*
X86000000Y-47300000D03*
G04 #@! TD*
G04 #@! TO.P,LED 13,1*
G04 #@! TO.N,Net-(RV13-Pad1)*
X92000000Y-60000000D03*
G04 #@! TO.P,LED 13,2*
G04 #@! TO.N,Net-(J2-Pad13)*
X94540000Y-52380000D03*
G04 #@! TO.P,LED 13,3*
G04 #@! TO.N,Net-(J1-Pad13)*
X92000000Y-47300000D03*
G04 #@! TD*
G04 #@! TO.P,LED 14,3*
G04 #@! TO.N,Net-(J1-Pad14)*
X98000000Y-47300000D03*
G04 #@! TO.P,LED 14,2*
G04 #@! TO.N,Net-(J2-Pad14)*
X100540000Y-52380000D03*
G04 #@! TO.P,LED 14,1*
G04 #@! TO.N,Net-(RV14-Pad1)*
X98000000Y-60000000D03*
G04 #@! TD*
G04 #@! TO.P,LED 15,1*
G04 #@! TO.N,Net-(RV15-Pad1)*
X104000000Y-60000000D03*
G04 #@! TO.P,LED 15,2*
G04 #@! TO.N,Net-(J2-Pad15)*
X106540000Y-52380000D03*
G04 #@! TO.P,LED 15,3*
G04 #@! TO.N,Net-(J1-Pad15)*
X104000000Y-47300000D03*
G04 #@! TD*
G04 #@! TO.P,LED 16,3*
G04 #@! TO.N,Net-(J1-Pad16)*
X110000000Y-47300000D03*
G04 #@! TO.P,LED 16,2*
G04 #@! TO.N,Net-(J2-Pad16)*
X112540000Y-52380000D03*
G04 #@! TO.P,LED 16,1*
G04 #@! TO.N,Net-(RV16-Pad1)*
X110000000Y-60000000D03*
G04 #@! TD*
D11*
G04 #@! TO.P,From Stimulator,1*
G04 #@! TO.N,Net-(J1-Pad1)*
X37500000Y-80000000D03*
D12*
G04 #@! TO.P,From Stimulator,3*
G04 #@! TO.N,Net-(J1-Pad3)*
X39500000Y-80000000D03*
G04 #@! TO.P,From Stimulator,5*
G04 #@! TO.N,Net-(J1-Pad5)*
X41500000Y-80000000D03*
G04 #@! TO.P,From Stimulator,7*
G04 #@! TO.N,Net-(J1-Pad7)*
X43500000Y-80000000D03*
G04 #@! TO.P,From Stimulator,9*
G04 #@! TO.N,Net-(J1-Pad9)*
X45500000Y-80000000D03*
G04 #@! TO.P,From Stimulator,11*
G04 #@! TO.N,Net-(J1-Pad11)*
X47500000Y-80000000D03*
G04 #@! TO.P,From Stimulator,13*
G04 #@! TO.N,Net-(J1-Pad13)*
X49500000Y-80000000D03*
G04 #@! TO.P,From Stimulator,15*
G04 #@! TO.N,Net-(J1-Pad15)*
X51500000Y-80000000D03*
G04 #@! TO.P,From Stimulator,2*
G04 #@! TO.N,Net-(J1-Pad2)*
X37500000Y-82000000D03*
G04 #@! TO.P,From Stimulator,4*
G04 #@! TO.N,Net-(J1-Pad4)*
X39500000Y-82000000D03*
G04 #@! TO.P,From Stimulator,6*
G04 #@! TO.N,Net-(J1-Pad6)*
X41500000Y-82000000D03*
G04 #@! TO.P,From Stimulator,8*
G04 #@! TO.N,Net-(J1-Pad8)*
X43500000Y-82000000D03*
G04 #@! TO.P,From Stimulator,10*
G04 #@! TO.N,Net-(J1-Pad10)*
X45500000Y-82000000D03*
G04 #@! TO.P,From Stimulator,12*
G04 #@! TO.N,Net-(J1-Pad12)*
X47500000Y-82000000D03*
G04 #@! TO.P,From Stimulator,14*
G04 #@! TO.N,Net-(J1-Pad14)*
X49500000Y-82000000D03*
G04 #@! TO.P,From Stimulator,16*
G04 #@! TO.N,Net-(J1-Pad16)*
X51500000Y-82000000D03*
G04 #@! TD*
G04 #@! TO.P,To LED,16*
G04 #@! TO.N,Net-(J2-Pad16)*
X94800000Y-82000000D03*
G04 #@! TO.P,To LED,14*
G04 #@! TO.N,Net-(J2-Pad14)*
X92800000Y-82000000D03*
G04 #@! TO.P,To LED,12*
G04 #@! TO.N,Net-(J2-Pad12)*
X90800000Y-82000000D03*
G04 #@! TO.P,To LED,10*
G04 #@! TO.N,Net-(J2-Pad10)*
X88800000Y-82000000D03*
G04 #@! TO.P,To LED,8*
G04 #@! TO.N,Net-(J2-Pad8)*
X86800000Y-82000000D03*
G04 #@! TO.P,To LED,6*
G04 #@! TO.N,Net-(J2-Pad6)*
X84800000Y-82000000D03*
G04 #@! TO.P,To LED,4*
G04 #@! TO.N,Net-(J2-Pad4)*
X82800000Y-82000000D03*
G04 #@! TO.P,To LED,2*
G04 #@! TO.N,Net-(J2-Pad2)*
X80800000Y-82000000D03*
G04 #@! TO.P,To LED,15*
G04 #@! TO.N,Net-(J2-Pad15)*
X94800000Y-80000000D03*
G04 #@! TO.P,To LED,13*
G04 #@! TO.N,Net-(J2-Pad13)*
X92800000Y-80000000D03*
G04 #@! TO.P,To LED,11*
G04 #@! TO.N,Net-(J2-Pad11)*
X90800000Y-80000000D03*
G04 #@! TO.P,To LED,9*
G04 #@! TO.N,Net-(J2-Pad9)*
X88800000Y-80000000D03*
G04 #@! TO.P,To LED,7*
G04 #@! TO.N,Net-(J2-Pad7)*
X86800000Y-80000000D03*
G04 #@! TO.P,To LED,5*
G04 #@! TO.N,Net-(J2-Pad5)*
X84800000Y-80000000D03*
G04 #@! TO.P,To LED,3*
G04 #@! TO.N,Net-(J2-Pad3)*
X82800000Y-80000000D03*
D11*
G04 #@! TO.P,To LED,1*
G04 #@! TO.N,Net-(J2-Pad1)*
X80800000Y-80000000D03*
G04 #@! TD*
D13*
G04 #@! TO.N,Net-(J1-Pad1)*
X37500000Y-79150000D02*
X37500000Y-80000000D01*
X37500000Y-73313002D02*
X37500000Y-79150000D01*
X20000000Y-55813002D02*
X37500000Y-73313002D01*
X20000000Y-47300000D02*
X20000000Y-55813002D01*
G04 #@! TO.N,Net-(J1-Pad2)*
X38099999Y-81400001D02*
X37500000Y-82000000D01*
X38425001Y-81074999D02*
X38099999Y-81400001D01*
X38425001Y-73601593D02*
X38425001Y-81074999D01*
X27225001Y-62401593D02*
X38425001Y-73601593D01*
X27225001Y-48525001D02*
X27225001Y-62401593D01*
X26000000Y-47300000D02*
X27225001Y-48525001D01*
G04 #@! TO.N,Net-(J1-Pad3)*
X32000000Y-55813002D02*
X33700000Y-57513002D01*
X32000000Y-47300000D02*
X32000000Y-55813002D01*
X33700000Y-57513002D02*
X33700000Y-68240182D01*
X39500000Y-74040182D02*
X39500000Y-80000000D01*
X33700000Y-68240182D02*
X39500000Y-74040182D01*
G04 #@! TO.N,Net-(J1-Pad4)*
X40099999Y-81400001D02*
X39500000Y-82000000D01*
X40425001Y-81074999D02*
X40099999Y-81400001D01*
X40425001Y-54078003D02*
X40425001Y-81074999D01*
X38000000Y-51653002D02*
X40425001Y-54078003D01*
X38000000Y-47300000D02*
X38000000Y-51653002D01*
G04 #@! TO.N,Net-(J1-Pad16)*
X110000000Y-55813002D02*
X93213002Y-72600000D01*
X110000000Y-47300000D02*
X110000000Y-55813002D01*
X93213002Y-72600000D02*
X53900000Y-72600000D01*
X53900000Y-72600000D02*
X53100000Y-73400000D01*
X53100000Y-80400000D02*
X51500000Y-82000000D01*
X53100000Y-73400000D02*
X53100000Y-80400000D01*
G04 #@! TO.N,Net-(J1-Pad14)*
X98000000Y-55813002D02*
X82613002Y-71200000D01*
X98000000Y-47300000D02*
X98000000Y-55813002D01*
X82613002Y-71200000D02*
X51300000Y-71200000D01*
X50099999Y-81400001D02*
X49500000Y-82000000D01*
X50425001Y-81074999D02*
X50099999Y-81400001D01*
X50425001Y-72074999D02*
X50425001Y-81074999D01*
X51300000Y-71200000D02*
X50425001Y-72074999D01*
G04 #@! TO.N,Net-(J1-Pad12)*
X86000000Y-55813002D02*
X72113002Y-69700000D01*
X86000000Y-47300000D02*
X86000000Y-55813002D01*
X72113002Y-69700000D02*
X49500000Y-69700000D01*
X48099999Y-81400001D02*
X47500000Y-82000000D01*
X48425001Y-81074999D02*
X48099999Y-81400001D01*
X48425001Y-70774999D02*
X48425001Y-81074999D01*
X49500000Y-69700000D02*
X48425001Y-70774999D01*
G04 #@! TO.N,Net-(J1-Pad10)*
X74000000Y-52186998D02*
X74000000Y-47300000D01*
X57486978Y-68700020D02*
X74000000Y-52186998D01*
X47500000Y-68700020D02*
X57486978Y-68700020D01*
X46425001Y-69775019D02*
X47500000Y-68700020D01*
X46425001Y-81074999D02*
X46425001Y-69775019D01*
X45500000Y-82000000D02*
X46425001Y-81074999D01*
G04 #@! TO.N,Net-(J1-Pad8)*
X62000000Y-55813002D02*
X50013002Y-67800000D01*
X62000000Y-47300000D02*
X62000000Y-55813002D01*
X45900000Y-67800000D02*
X44363012Y-69336988D01*
X50013002Y-67800000D02*
X45900000Y-67800000D01*
X44099999Y-81400001D02*
X43500000Y-82000000D01*
X44425001Y-81074999D02*
X44099999Y-81400001D01*
X44425001Y-79555999D02*
X44425001Y-81074999D01*
X44363012Y-79494010D02*
X44425001Y-79555999D01*
X44363012Y-69336988D02*
X44363012Y-79494010D01*
G04 #@! TO.N,Net-(J1-Pad6)*
X50000000Y-58186998D02*
X43225009Y-64961989D01*
X50000000Y-47300000D02*
X50000000Y-58186998D01*
X42099999Y-81400001D02*
X41500000Y-82000000D01*
X42425001Y-81074999D02*
X42099999Y-81400001D01*
X42425001Y-73711409D02*
X42425001Y-81074999D01*
X43225008Y-72911402D02*
X42425001Y-73711409D01*
X43225009Y-64961989D02*
X43225008Y-72911402D01*
G04 #@! TO.N,Net-(J1-Pad15)*
X102774999Y-51958003D02*
X82833002Y-71900000D01*
X104000000Y-47300000D02*
X102774999Y-48525001D01*
X102774999Y-48525001D02*
X102774999Y-51958003D01*
X82833002Y-71900000D02*
X52700000Y-71900000D01*
X52700000Y-71900000D02*
X51500000Y-73100000D01*
X51500000Y-73100000D02*
X51500000Y-80000000D01*
G04 #@! TO.N,Net-(J1-Pad13)*
X90774999Y-57038003D02*
X77313002Y-70500000D01*
X92000000Y-47300000D02*
X90774999Y-48525001D01*
X90774999Y-48525001D02*
X90774999Y-57038003D01*
X77313002Y-70500000D02*
X49900000Y-70500000D01*
X49500000Y-70900000D02*
X49500000Y-80000000D01*
X49900000Y-70500000D02*
X49500000Y-70900000D01*
G04 #@! TO.N,Net-(J1-Pad11)*
X80000000Y-50733002D02*
X61533002Y-69200000D01*
X80000000Y-47300000D02*
X80000000Y-50733002D01*
X61533002Y-69200000D02*
X48700000Y-69200000D01*
X48700000Y-69200000D02*
X47500000Y-70400000D01*
X47500000Y-70400000D02*
X47500000Y-80000000D01*
G04 #@! TO.N,Net-(J1-Pad9)*
X68000000Y-55813002D02*
X68000000Y-47300000D01*
X55562992Y-68250010D02*
X68000000Y-55813002D01*
X46700000Y-68250010D02*
X55562992Y-68250010D01*
X45500000Y-80000000D02*
X45500000Y-69450010D01*
X45500000Y-69450010D02*
X46700000Y-68250010D01*
G04 #@! TO.N,Net-(J1-Pad7)*
X55100001Y-56713001D02*
X43913002Y-67900000D01*
X56000000Y-47300000D02*
X55100001Y-48199999D01*
X55100001Y-48199999D02*
X55100001Y-56713001D01*
X43913002Y-67900000D02*
X43913002Y-72986998D01*
X43500000Y-73400000D02*
X43500000Y-80000000D01*
X43913002Y-72986998D02*
X43500000Y-73400000D01*
G04 #@! TO.N,Net-(J1-Pad5)*
X42774999Y-48525001D02*
X42774999Y-72725001D01*
X44000000Y-47300000D02*
X42774999Y-48525001D01*
X41500000Y-79151472D02*
X41500000Y-80000000D01*
X41500000Y-74000000D02*
X41500000Y-79151472D01*
X42774999Y-72725001D02*
X41500000Y-74000000D01*
G04 #@! TD*
M02*
