M48
;DRILL file {KiCad (5.0.0)} date 02/27/19 09:55:38
;FORMAT={-:-/ absolute / metric / decimal}
FMAT,2
METRIC,TZ
T1C0.750
T2C1.000
%
G90
G05
M71
T1
X80.8Y-80.
X80.8Y-82.
X82.8Y-80.
X82.8Y-82.
X84.8Y-80.
X84.8Y-82.
X86.8Y-80.
X86.8Y-82.
X88.8Y-80.
X88.8Y-82.
X90.8Y-80.
X90.8Y-82.
X92.8Y-80.
X92.8Y-82.
X94.8Y-80.
X94.8Y-82.
X37.5Y-80.
X37.5Y-82.
X39.5Y-80.
X39.5Y-82.
X41.5Y-80.
X41.5Y-82.
X43.5Y-80.
X43.5Y-82.
X45.5Y-80.
X45.5Y-82.
X47.5Y-80.
X47.5Y-82.
X49.5Y-80.
X49.5Y-82.
X51.5Y-80.
X51.5Y-82.
T2
X110.Y-47.3
X110.Y-60.
X112.54Y-52.38
X68.Y-47.3
X68.Y-60.
X70.54Y-52.38
X38.Y-47.3
X38.Y-60.
X40.54Y-52.38
X44.Y-47.3
X44.Y-60.
X46.54Y-52.38
X104.Y-47.3
X104.Y-60.
X106.54Y-52.38
X20.Y-47.3
X20.Y-60.
X22.54Y-52.38
X50.Y-47.3
X50.Y-60.
X52.54Y-52.38
X86.Y-47.3
X86.Y-60.
X88.54Y-52.38
X92.Y-47.3
X92.Y-60.
X94.54Y-52.38
X98.Y-47.3
X98.Y-60.
X100.54Y-52.38
X56.Y-47.3
X56.Y-60.
X58.54Y-52.38
X80.Y-47.3
X80.Y-60.
X82.54Y-52.38
X62.Y-47.3
X62.Y-60.
X64.54Y-52.38
X26.Y-47.3
X26.Y-60.
X28.54Y-52.38
X74.Y-47.3
X74.Y-60.
X76.54Y-52.38
X32.Y-47.3
X32.Y-60.
X34.54Y-52.38
T0
M30
