G04 #@! TF.GenerationSoftware,KiCad,Pcbnew,(5.0.0)*
G04 #@! TF.CreationDate,2019-02-27T09:55:35+01:00*
G04 #@! TF.ProjectId,Potentiometer_mount_16LED,506F74656E74696F6D657465725F6D6F,rev?*
G04 #@! TF.SameCoordinates,Original*
G04 #@! TF.FileFunction,Soldermask,Top*
G04 #@! TF.FilePolarity,Negative*
%FSLAX46Y46*%
G04 Gerber Fmt 4.6, Leading zero omitted, Abs format (unit mm)*
G04 Created by KiCad (PCBNEW (5.0.0)) date 02/27/19 09:55:35*
%MOMM*%
%LPD*%
G01*
G04 APERTURE LIST*
%ADD10C,2.200000*%
%ADD11C,3.600000*%
%ADD12R,1.600000X1.600000*%
%ADD13C,1.600000*%
G04 APERTURE END LIST*
D10*
G04 #@! TO.C, LED 11*
X80000000Y-60000000D03*
X82540000Y-52380000D03*
X80000000Y-47300000D03*
G04 #@! TD*
D11*
G04 #@! TO.C,*
X108300000Y-75500000D03*
G04 #@! TD*
G04 #@! TO.C,*
X24300000Y-75500000D03*
G04 #@! TD*
D10*
G04 #@! TO.C,LED 1*
X20000000Y-47300000D03*
X22540000Y-52380000D03*
X20000000Y-60000000D03*
G04 #@! TD*
G04 #@! TO.C,LED 2*
X26000000Y-60000000D03*
X28540000Y-52380000D03*
X26000000Y-47300000D03*
G04 #@! TD*
G04 #@! TO.C,LED 3*
X32000000Y-47300000D03*
X34540000Y-52380000D03*
X32000000Y-60000000D03*
G04 #@! TD*
G04 #@! TO.C,LED 4*
X38000000Y-60000000D03*
X40540000Y-52380000D03*
X38000000Y-47300000D03*
G04 #@! TD*
G04 #@! TO.C,LED 5*
X44000000Y-60000000D03*
X46540000Y-52380000D03*
X44000000Y-47300000D03*
G04 #@! TD*
G04 #@! TO.C,LED 6*
X50000000Y-47300000D03*
X52540000Y-52380000D03*
X50000000Y-60000000D03*
G04 #@! TD*
G04 #@! TO.C,LED 7*
X56000000Y-60000000D03*
X58540000Y-52380000D03*
X56000000Y-47300000D03*
G04 #@! TD*
G04 #@! TO.C,LED 8*
X62000000Y-47300000D03*
X64540000Y-52380000D03*
X62000000Y-60000000D03*
G04 #@! TD*
G04 #@! TO.C,LED 9*
X68000000Y-60000000D03*
X70540000Y-52380000D03*
X68000000Y-47300000D03*
G04 #@! TD*
G04 #@! TO.C,LED 10*
X74000000Y-47300000D03*
X76540000Y-52380000D03*
X74000000Y-60000000D03*
G04 #@! TD*
G04 #@! TO.C,LED 12*
X86000000Y-60000000D03*
X88540000Y-52380000D03*
X86000000Y-47300000D03*
G04 #@! TD*
G04 #@! TO.C,LED 13*
X92000000Y-60000000D03*
X94540000Y-52380000D03*
X92000000Y-47300000D03*
G04 #@! TD*
G04 #@! TO.C,LED 14*
X98000000Y-47300000D03*
X100540000Y-52380000D03*
X98000000Y-60000000D03*
G04 #@! TD*
G04 #@! TO.C,LED 15*
X104000000Y-60000000D03*
X106540000Y-52380000D03*
X104000000Y-47300000D03*
G04 #@! TD*
G04 #@! TO.C,LED 16*
X110000000Y-47300000D03*
X112540000Y-52380000D03*
X110000000Y-60000000D03*
G04 #@! TD*
D11*
G04 #@! TO.C,*
X158500000Y-147800000D03*
G04 #@! TD*
D12*
G04 #@! TO.C,From Stimulator*
X37500000Y-80000000D03*
D13*
X39500000Y-80000000D03*
X41500000Y-80000000D03*
X43500000Y-80000000D03*
X45500000Y-80000000D03*
X47500000Y-80000000D03*
X49500000Y-80000000D03*
X51500000Y-80000000D03*
X37500000Y-82000000D03*
X39500000Y-82000000D03*
X41500000Y-82000000D03*
X43500000Y-82000000D03*
X45500000Y-82000000D03*
X47500000Y-82000000D03*
X49500000Y-82000000D03*
X51500000Y-82000000D03*
G04 #@! TD*
G04 #@! TO.C,To LED*
X94800000Y-82000000D03*
X92800000Y-82000000D03*
X90800000Y-82000000D03*
X88800000Y-82000000D03*
X86800000Y-82000000D03*
X84800000Y-82000000D03*
X82800000Y-82000000D03*
X80800000Y-82000000D03*
X94800000Y-80000000D03*
X92800000Y-80000000D03*
X90800000Y-80000000D03*
X88800000Y-80000000D03*
X86800000Y-80000000D03*
X84800000Y-80000000D03*
X82800000Y-80000000D03*
D12*
X80800000Y-80000000D03*
G04 #@! TD*
M02*
