G04 #@! TF.GenerationSoftware,KiCad,Pcbnew,(5.0.0)*
G04 #@! TF.CreationDate,2019-02-26T18:07:47+01:00*
G04 #@! TF.ProjectId,Potentiometer_mount_4LED,506F74656E74696F6D657465725F6D6F,rev?*
G04 #@! TF.SameCoordinates,Original*
G04 #@! TF.FileFunction,Legend,Top*
G04 #@! TF.FilePolarity,Positive*
%FSLAX46Y46*%
G04 Gerber Fmt 4.6, Leading zero omitted, Abs format (unit mm)*
G04 Created by KiCad (PCBNEW (5.0.0)) date 02/26/19 18:07:47*
%MOMM*%
%LPD*%
G01*
G04 APERTURE LIST*
%ADD10C,0.200000*%
%ADD11C,0.120000*%
%ADD12C,0.150000*%
G04 APERTURE END LIST*
D10*
X150590476Y-82985714D02*
X150590476Y-83652380D01*
X150352380Y-82604761D02*
X150114285Y-83319047D01*
X150733333Y-83319047D01*
X147566666Y-82652380D02*
X148185714Y-82652380D01*
X147852380Y-83033333D01*
X147995238Y-83033333D01*
X148090476Y-83080952D01*
X148138095Y-83128571D01*
X148185714Y-83223809D01*
X148185714Y-83461904D01*
X148138095Y-83557142D01*
X148090476Y-83604761D01*
X147995238Y-83652380D01*
X147709523Y-83652380D01*
X147614285Y-83604761D01*
X147566666Y-83557142D01*
X145114285Y-82747619D02*
X145161904Y-82700000D01*
X145257142Y-82652380D01*
X145495238Y-82652380D01*
X145590476Y-82700000D01*
X145638095Y-82747619D01*
X145685714Y-82842857D01*
X145685714Y-82938095D01*
X145638095Y-83080952D01*
X145066666Y-83652380D01*
X145685714Y-83652380D01*
X143185714Y-83652380D02*
X142614285Y-83652380D01*
X142900000Y-83652380D02*
X142900000Y-82652380D01*
X142804761Y-82795238D01*
X142709523Y-82890476D01*
X142614285Y-82938095D01*
X132390476Y-82985714D02*
X132390476Y-83652380D01*
X132152380Y-82604761D02*
X131914285Y-83319047D01*
X132533333Y-83319047D01*
X129366666Y-82652380D02*
X129985714Y-82652380D01*
X129652380Y-83033333D01*
X129795238Y-83033333D01*
X129890476Y-83080952D01*
X129938095Y-83128571D01*
X129985714Y-83223809D01*
X129985714Y-83461904D01*
X129938095Y-83557142D01*
X129890476Y-83604761D01*
X129795238Y-83652380D01*
X129509523Y-83652380D01*
X129414285Y-83604761D01*
X129366666Y-83557142D01*
X126814285Y-82747619D02*
X126861904Y-82700000D01*
X126957142Y-82652380D01*
X127195238Y-82652380D01*
X127290476Y-82700000D01*
X127338095Y-82747619D01*
X127385714Y-82842857D01*
X127385714Y-82938095D01*
X127338095Y-83080952D01*
X126766666Y-83652380D01*
X127385714Y-83652380D01*
X124885714Y-83652380D02*
X124314285Y-83652380D01*
X124600000Y-83652380D02*
X124600000Y-82652380D01*
X124504761Y-82795238D01*
X124409523Y-82890476D01*
X124314285Y-82938095D01*
D11*
G04 #@! TO.C,From Stimlator*
X121990000Y-77790000D02*
X121990000Y-81810000D01*
X121990000Y-81810000D02*
X134710000Y-81810000D01*
X134710000Y-81810000D02*
X134710000Y-77790000D01*
X134710000Y-77790000D02*
X121990000Y-77790000D01*
X121990000Y-79500000D02*
X122490000Y-79500000D01*
X122490000Y-79500000D02*
X122490000Y-78290000D01*
X122490000Y-78290000D02*
X134210000Y-78290000D01*
X134210000Y-78290000D02*
X134210000Y-79500000D01*
X134210000Y-79500000D02*
X134710000Y-79500000D01*
X121990000Y-80310000D02*
X122990000Y-80310000D01*
X122990000Y-80310000D02*
X122990000Y-81810000D01*
X134710000Y-80310000D02*
X133710000Y-80310000D01*
X133710000Y-80310000D02*
X133710000Y-81810000D01*
X121690000Y-79610000D02*
X121690000Y-82110000D01*
X121690000Y-82110000D02*
X124190000Y-82110000D01*
G04 #@! TO.C,To LED*
X139990000Y-82110000D02*
X142490000Y-82110000D01*
X139990000Y-79610000D02*
X139990000Y-82110000D01*
X152010000Y-80310000D02*
X152010000Y-81810000D01*
X153010000Y-80310000D02*
X152010000Y-80310000D01*
X141290000Y-80310000D02*
X141290000Y-81810000D01*
X140290000Y-80310000D02*
X141290000Y-80310000D01*
X152510000Y-79500000D02*
X153010000Y-79500000D01*
X152510000Y-78290000D02*
X152510000Y-79500000D01*
X140790000Y-78290000D02*
X152510000Y-78290000D01*
X140790000Y-79500000D02*
X140790000Y-78290000D01*
X140290000Y-79500000D02*
X140790000Y-79500000D01*
X153010000Y-77790000D02*
X140290000Y-77790000D01*
X153010000Y-81810000D02*
X153010000Y-77790000D01*
X140290000Y-81810000D02*
X153010000Y-81810000D01*
X140290000Y-77790000D02*
X140290000Y-81810000D01*
G04 #@! TO.C,LED 1*
X122270000Y-52360000D02*
X122270000Y-53119000D01*
X123570000Y-53879000D02*
X120970000Y-53879000D01*
X123570000Y-52360000D02*
X120970000Y-52360000D01*
X120970000Y-52360000D02*
X120970000Y-53879000D01*
X123570000Y-52360000D02*
X123570000Y-53879000D01*
X124790000Y-73120000D02*
X119750000Y-73120000D01*
X124790000Y-53880000D02*
X119750000Y-53880000D01*
X119750000Y-53880000D02*
X119750000Y-73120000D01*
X124790000Y-53880000D02*
X124790000Y-73120000D01*
G04 #@! TO.C,LED 2*
X134950000Y-53880000D02*
X134950000Y-73120000D01*
X129910000Y-53880000D02*
X129910000Y-73120000D01*
X134950000Y-53880000D02*
X129910000Y-53880000D01*
X134950000Y-73120000D02*
X129910000Y-73120000D01*
X133730000Y-52360000D02*
X133730000Y-53879000D01*
X131130000Y-52360000D02*
X131130000Y-53879000D01*
X133730000Y-52360000D02*
X131130000Y-52360000D01*
X133730000Y-53879000D02*
X131130000Y-53879000D01*
X132430000Y-52360000D02*
X132430000Y-53119000D01*
G04 #@! TO.C,LED 3*
X142590000Y-52360000D02*
X142590000Y-53119000D01*
X143890000Y-53879000D02*
X141290000Y-53879000D01*
X143890000Y-52360000D02*
X141290000Y-52360000D01*
X141290000Y-52360000D02*
X141290000Y-53879000D01*
X143890000Y-52360000D02*
X143890000Y-53879000D01*
X145110000Y-73120000D02*
X140070000Y-73120000D01*
X145110000Y-53880000D02*
X140070000Y-53880000D01*
X140070000Y-53880000D02*
X140070000Y-73120000D01*
X145110000Y-53880000D02*
X145110000Y-73120000D01*
G04 #@! TO.C,LED 4*
X155270000Y-53880000D02*
X155270000Y-73120000D01*
X150230000Y-53880000D02*
X150230000Y-73120000D01*
X155270000Y-53880000D02*
X150230000Y-53880000D01*
X155270000Y-73120000D02*
X150230000Y-73120000D01*
X154050000Y-52360000D02*
X154050000Y-53879000D01*
X151450000Y-52360000D02*
X151450000Y-53879000D01*
X154050000Y-52360000D02*
X151450000Y-52360000D01*
X154050000Y-53879000D02*
X151450000Y-53879000D01*
X152750000Y-52360000D02*
X152750000Y-53119000D01*
G04 #@! TO.C,From Stimlator*
D12*
X123304761Y-76228571D02*
X122971428Y-76228571D01*
X122971428Y-76752380D02*
X122971428Y-75752380D01*
X123447619Y-75752380D01*
X123828571Y-76752380D02*
X123828571Y-76085714D01*
X123828571Y-76276190D02*
X123876190Y-76180952D01*
X123923809Y-76133333D01*
X124019047Y-76085714D01*
X124114285Y-76085714D01*
X124590476Y-76752380D02*
X124495238Y-76704761D01*
X124447619Y-76657142D01*
X124400000Y-76561904D01*
X124400000Y-76276190D01*
X124447619Y-76180952D01*
X124495238Y-76133333D01*
X124590476Y-76085714D01*
X124733333Y-76085714D01*
X124828571Y-76133333D01*
X124876190Y-76180952D01*
X124923809Y-76276190D01*
X124923809Y-76561904D01*
X124876190Y-76657142D01*
X124828571Y-76704761D01*
X124733333Y-76752380D01*
X124590476Y-76752380D01*
X125352380Y-76752380D02*
X125352380Y-76085714D01*
X125352380Y-76180952D02*
X125400000Y-76133333D01*
X125495238Y-76085714D01*
X125638095Y-76085714D01*
X125733333Y-76133333D01*
X125780952Y-76228571D01*
X125780952Y-76752380D01*
X125780952Y-76228571D02*
X125828571Y-76133333D01*
X125923809Y-76085714D01*
X126066666Y-76085714D01*
X126161904Y-76133333D01*
X126209523Y-76228571D01*
X126209523Y-76752380D01*
X127400000Y-76704761D02*
X127542857Y-76752380D01*
X127780952Y-76752380D01*
X127876190Y-76704761D01*
X127923809Y-76657142D01*
X127971428Y-76561904D01*
X127971428Y-76466666D01*
X127923809Y-76371428D01*
X127876190Y-76323809D01*
X127780952Y-76276190D01*
X127590476Y-76228571D01*
X127495238Y-76180952D01*
X127447619Y-76133333D01*
X127400000Y-76038095D01*
X127400000Y-75942857D01*
X127447619Y-75847619D01*
X127495238Y-75800000D01*
X127590476Y-75752380D01*
X127828571Y-75752380D01*
X127971428Y-75800000D01*
X128257142Y-76085714D02*
X128638095Y-76085714D01*
X128400000Y-75752380D02*
X128400000Y-76609523D01*
X128447619Y-76704761D01*
X128542857Y-76752380D01*
X128638095Y-76752380D01*
X128971428Y-76752380D02*
X128971428Y-76085714D01*
X128971428Y-75752380D02*
X128923809Y-75800000D01*
X128971428Y-75847619D01*
X129019047Y-75800000D01*
X128971428Y-75752380D01*
X128971428Y-75847619D01*
X129447619Y-76752380D02*
X129447619Y-76085714D01*
X129447619Y-76180952D02*
X129495238Y-76133333D01*
X129590476Y-76085714D01*
X129733333Y-76085714D01*
X129828571Y-76133333D01*
X129876190Y-76228571D01*
X129876190Y-76752380D01*
X129876190Y-76228571D02*
X129923809Y-76133333D01*
X130019047Y-76085714D01*
X130161904Y-76085714D01*
X130257142Y-76133333D01*
X130304761Y-76228571D01*
X130304761Y-76752380D01*
X130923809Y-76752380D02*
X130828571Y-76704761D01*
X130780952Y-76609523D01*
X130780952Y-75752380D01*
X131733333Y-76752380D02*
X131733333Y-76228571D01*
X131685714Y-76133333D01*
X131590476Y-76085714D01*
X131400000Y-76085714D01*
X131304761Y-76133333D01*
X131733333Y-76704761D02*
X131638095Y-76752380D01*
X131400000Y-76752380D01*
X131304761Y-76704761D01*
X131257142Y-76609523D01*
X131257142Y-76514285D01*
X131304761Y-76419047D01*
X131400000Y-76371428D01*
X131638095Y-76371428D01*
X131733333Y-76323809D01*
X132066666Y-76085714D02*
X132447619Y-76085714D01*
X132209523Y-75752380D02*
X132209523Y-76609523D01*
X132257142Y-76704761D01*
X132352380Y-76752380D01*
X132447619Y-76752380D01*
X132923809Y-76752380D02*
X132828571Y-76704761D01*
X132780952Y-76657142D01*
X132733333Y-76561904D01*
X132733333Y-76276190D01*
X132780952Y-76180952D01*
X132828571Y-76133333D01*
X132923809Y-76085714D01*
X133066666Y-76085714D01*
X133161904Y-76133333D01*
X133209523Y-76180952D01*
X133257142Y-76276190D01*
X133257142Y-76561904D01*
X133209523Y-76657142D01*
X133161904Y-76704761D01*
X133066666Y-76752380D01*
X132923809Y-76752380D01*
X133685714Y-76752380D02*
X133685714Y-76085714D01*
X133685714Y-76276190D02*
X133733333Y-76180952D01*
X133780952Y-76133333D01*
X133876190Y-76085714D01*
X133971428Y-76085714D01*
G04 #@! TO.C,To LED*
X144173809Y-75852380D02*
X144745238Y-75852380D01*
X144459523Y-76852380D02*
X144459523Y-75852380D01*
X145221428Y-76852380D02*
X145126190Y-76804761D01*
X145078571Y-76757142D01*
X145030952Y-76661904D01*
X145030952Y-76376190D01*
X145078571Y-76280952D01*
X145126190Y-76233333D01*
X145221428Y-76185714D01*
X145364285Y-76185714D01*
X145459523Y-76233333D01*
X145507142Y-76280952D01*
X145554761Y-76376190D01*
X145554761Y-76661904D01*
X145507142Y-76757142D01*
X145459523Y-76804761D01*
X145364285Y-76852380D01*
X145221428Y-76852380D01*
X147221428Y-76852380D02*
X146745238Y-76852380D01*
X146745238Y-75852380D01*
X147554761Y-76328571D02*
X147888095Y-76328571D01*
X148030952Y-76852380D02*
X147554761Y-76852380D01*
X147554761Y-75852380D01*
X148030952Y-75852380D01*
X148459523Y-76852380D02*
X148459523Y-75852380D01*
X148697619Y-75852380D01*
X148840476Y-75900000D01*
X148935714Y-75995238D01*
X148983333Y-76090476D01*
X149030952Y-76280952D01*
X149030952Y-76423809D01*
X148983333Y-76614285D01*
X148935714Y-76709523D01*
X148840476Y-76804761D01*
X148697619Y-76852380D01*
X148459523Y-76852380D01*
G04 #@! TO.C,LED 1*
X120800000Y-74852380D02*
X120323809Y-74852380D01*
X120323809Y-73852380D01*
X121133333Y-74328571D02*
X121466666Y-74328571D01*
X121609523Y-74852380D02*
X121133333Y-74852380D01*
X121133333Y-73852380D01*
X121609523Y-73852380D01*
X122038095Y-74852380D02*
X122038095Y-73852380D01*
X122276190Y-73852380D01*
X122419047Y-73900000D01*
X122514285Y-73995238D01*
X122561904Y-74090476D01*
X122609523Y-74280952D01*
X122609523Y-74423809D01*
X122561904Y-74614285D01*
X122514285Y-74709523D01*
X122419047Y-74804761D01*
X122276190Y-74852380D01*
X122038095Y-74852380D01*
X124323809Y-74852380D02*
X123752380Y-74852380D01*
X124038095Y-74852380D02*
X124038095Y-73852380D01*
X123942857Y-73995238D01*
X123847619Y-74090476D01*
X123752380Y-74138095D01*
G04 #@! TO.C,LED 2*
X131000000Y-74852380D02*
X130523809Y-74852380D01*
X130523809Y-73852380D01*
X131333333Y-74328571D02*
X131666666Y-74328571D01*
X131809523Y-74852380D02*
X131333333Y-74852380D01*
X131333333Y-73852380D01*
X131809523Y-73852380D01*
X132238095Y-74852380D02*
X132238095Y-73852380D01*
X132476190Y-73852380D01*
X132619047Y-73900000D01*
X132714285Y-73995238D01*
X132761904Y-74090476D01*
X132809523Y-74280952D01*
X132809523Y-74423809D01*
X132761904Y-74614285D01*
X132714285Y-74709523D01*
X132619047Y-74804761D01*
X132476190Y-74852380D01*
X132238095Y-74852380D01*
X133952380Y-73947619D02*
X134000000Y-73900000D01*
X134095238Y-73852380D01*
X134333333Y-73852380D01*
X134428571Y-73900000D01*
X134476190Y-73947619D01*
X134523809Y-74042857D01*
X134523809Y-74138095D01*
X134476190Y-74280952D01*
X133904761Y-74852380D01*
X134523809Y-74852380D01*
G04 #@! TO.C,LED 3*
X141200000Y-74852380D02*
X140723809Y-74852380D01*
X140723809Y-73852380D01*
X141533333Y-74328571D02*
X141866666Y-74328571D01*
X142009523Y-74852380D02*
X141533333Y-74852380D01*
X141533333Y-73852380D01*
X142009523Y-73852380D01*
X142438095Y-74852380D02*
X142438095Y-73852380D01*
X142676190Y-73852380D01*
X142819047Y-73900000D01*
X142914285Y-73995238D01*
X142961904Y-74090476D01*
X143009523Y-74280952D01*
X143009523Y-74423809D01*
X142961904Y-74614285D01*
X142914285Y-74709523D01*
X142819047Y-74804761D01*
X142676190Y-74852380D01*
X142438095Y-74852380D01*
X144104761Y-73852380D02*
X144723809Y-73852380D01*
X144390476Y-74233333D01*
X144533333Y-74233333D01*
X144628571Y-74280952D01*
X144676190Y-74328571D01*
X144723809Y-74423809D01*
X144723809Y-74661904D01*
X144676190Y-74757142D01*
X144628571Y-74804761D01*
X144533333Y-74852380D01*
X144247619Y-74852380D01*
X144152380Y-74804761D01*
X144104761Y-74757142D01*
G04 #@! TO.C,LED 4*
X151300000Y-74852380D02*
X150823809Y-74852380D01*
X150823809Y-73852380D01*
X151633333Y-74328571D02*
X151966666Y-74328571D01*
X152109523Y-74852380D02*
X151633333Y-74852380D01*
X151633333Y-73852380D01*
X152109523Y-73852380D01*
X152538095Y-74852380D02*
X152538095Y-73852380D01*
X152776190Y-73852380D01*
X152919047Y-73900000D01*
X153014285Y-73995238D01*
X153061904Y-74090476D01*
X153109523Y-74280952D01*
X153109523Y-74423809D01*
X153061904Y-74614285D01*
X153014285Y-74709523D01*
X152919047Y-74804761D01*
X152776190Y-74852380D01*
X152538095Y-74852380D01*
X154728571Y-74185714D02*
X154728571Y-74852380D01*
X154490476Y-73804761D02*
X154252380Y-74519047D01*
X154871428Y-74519047D01*
G04 #@! TD*
M02*
